<?xml version="1.0" encoding="UTF-8" standalone="no"?>
<!DOCTYPE svg PUBLIC "-//W3C//DTD SVG 1.1//EN"
 "http://www.w3.org/Graphics/SVG/1.1/DTD/svg11.dtd">
<!-- Generated by graphviz version 2.38.0 (20140413.2041)
 -->
<!-- Title: headers/Action.h Pages: 1 -->
<svg width="1679pt" height="420pt"
 viewBox="0.00 0.00 1679.00 420.00" xmlns="http://www.w3.org/2000/svg" xmlns:xlink="http://www.w3.org/1999/xlink">
<g id="graph0" class="graph" transform="scale(1 1) rotate(0) translate(4 416)">
<title>headers/Action.h</title>
<polygon fill="white" stroke="none" points="-4,4 -4,-416 1675,-416 1675,4 -4,4"/>
<!-- Node1 -->
<g id="node1" class="node"><title>Node1</title>
<polygon fill="#bfbfbf" stroke="black" points="227,-392.5 227,-411.5 317,-411.5 317,-392.5 227,-392.5"/>
<text text-anchor="middle" x="272" y="-399.5" font-family="Helvetica,sans-Serif" font-size="10.00">headers/Action.h</text>
</g>
<!-- Node2 -->
<g id="node2" class="node"><title>Node2</title>
<polygon fill="white" stroke="#bfbfbf" points="1396,-0.5 1396,-19.5 1504,-19.5 1504,-0.5 1396,-0.5"/>
<text text-anchor="middle" x="1450" y="-7.5" font-family="Helvetica,sans-Serif" font-size="10.00">boost/shared_ptr.hpp</text>
</g>
<!-- Node1&#45;&gt;Node2 -->
<g id="edge1" class="edge"><title>Node1&#45;&gt;Node2</title>
<path fill="none" stroke="midnightblue" d="M317.357,-399.863C557.642,-393.551 1671,-360.549 1671,-291 1671,-291 1671,-291 1671,-121 1671,-50.4173 1579.54,-25.1245 1514.29,-16.0611"/>
<polygon fill="midnightblue" stroke="midnightblue" points="1514.43,-12.5499 1504.06,-14.7414 1513.53,-19.4924 1514.43,-12.5499"/>
</g>
<!-- Node3 -->
<g id="node3" class="node"><title>Node3</title>
<polygon fill="white" stroke="#bfbfbf" points="93.5,-0.5 93.5,-19.5 134.5,-19.5 134.5,-0.5 93.5,-0.5"/>
<text text-anchor="middle" x="114" y="-7.5" font-family="Helvetica,sans-Serif" font-size="10.00">string</text>
</g>
<!-- Node1&#45;&gt;Node3 -->
<g id="edge2" class="edge"><title>Node1&#45;&gt;Node3</title>
<path fill="none" stroke="midnightblue" d="M226.738,-394.903C188.668,-388.611 133.486,-376.724 89,-356 44.5997,-335.316 0,-339.982 0,-291 0,-291 0,-291 0,-121 0,-74.1149 50.5515,-40.8944 84.3292,-23.9302"/>
<polygon fill="midnightblue" stroke="midnightblue" points="85.8676,-27.0742 93.3555,-19.5787 82.8277,-20.7687 85.8676,-27.0742"/>
</g>
<!-- Node4 -->
<g id="node4" class="node"><title>Node4</title>
<polygon fill="white" stroke="#bfbfbf" points="263,-56.5 263,-75.5 307,-75.5 307,-56.5 263,-56.5"/>
<text text-anchor="middle" x="285" y="-63.5" font-family="Helvetica,sans-Serif" font-size="10.00">vector</text>
</g>
<!-- Node1&#45;&gt;Node4 -->
<g id="edge3" class="edge"><title>Node1&#45;&gt;Node4</title>
<path fill="none" stroke="midnightblue" d="M226.541,-395.607C168.641,-385.915 76,-359.676 76,-291 76,-291 76,-291 76,-233 76,-143.826 194.108,-94.9147 252.752,-76.1252"/>
<polygon fill="midnightblue" stroke="midnightblue" points="254.117,-79.3665 262.633,-73.0643 252.045,-72.6799 254.117,-79.3665"/>
</g>
<!-- Node5 -->
<g id="node5" class="node"><title>Node5</title>
<g id="a_node5"><a xlink:href="PH_8h.html" target="_top" xlink:title="header for the PH class ">
<polygon fill="white" stroke="black" points="819.5,-336.5 819.5,-355.5 858.5,-355.5 858.5,-336.5 819.5,-336.5"/>
<text text-anchor="middle" x="839" y="-343.5" font-family="Helvetica,sans-Serif" font-size="10.00">PH.h</text>
</a>
</g>
</g>
<!-- Node1&#45;&gt;Node5 -->
<g id="edge4" class="edge"><title>Node1&#45;&gt;Node5</title>
<path fill="none" stroke="midnightblue" d="M317.312,-396.302C429.222,-385.269 715.899,-357.996 809.242,-349.541"/>
<polygon fill="midnightblue" stroke="midnightblue" points="809.752,-353.01 819.398,-348.627 809.124,-346.038 809.752,-353.01"/>
</g>
<!-- Node22 -->
<g id="node22" class="node"><title>Node22</title>
<g id="a_node22"><a xlink:href="GAction_8h.html" target="_top" xlink:title="header for the GAction class ">
<polygon fill="white" stroke="black" points="411,-224.5 411,-243.5 471,-243.5 471,-224.5 411,-224.5"/>
<text text-anchor="middle" x="441" y="-231.5" font-family="Helvetica,sans-Serif" font-size="10.00">GAction.h</text>
</a>
</g>
</g>
<!-- Node1&#45;&gt;Node22 -->
<g id="edge71" class="edge"><title>Node1&#45;&gt;Node22</title>
<path fill="none" stroke="midnightblue" d="M277.823,-392.075C300.891,-365.153 382.7,-284.514 421.139,-250.453"/>
<polygon fill="midnightblue" stroke="midnightblue" points="423.814,-252.766 429.072,-243.568 419.226,-247.48 423.814,-252.766"/>
</g>
<!-- Node5&#45;&gt;Node1 -->
<g id="edge10" class="edge"><title>Node5&#45;&gt;Node1</title>
<path fill="none" stroke="midnightblue" d="M819.41,-349.137C741.138,-357.044 450.385,-384.774 327.397,-396.113"/>
<polygon fill="midnightblue" stroke="midnightblue" points="327.069,-392.628 317.431,-397.029 327.71,-399.599 327.069,-392.628"/>
</g>
<!-- Node5&#45;&gt;Node2 -->
<g id="edge8" class="edge"><title>Node5&#45;&gt;Node2</title>
<path fill="none" stroke="midnightblue" d="M858.627,-344.409C980.896,-340.476 1633,-315.715 1633,-235 1633,-235 1633,-235 1633,-121 1633,-63.3657 1565.5,-35.1638 1512.49,-21.9025"/>
<polygon fill="midnightblue" stroke="midnightblue" points="1512.98,-18.4219 1502.44,-19.5207 1511.36,-25.2331 1512.98,-18.4219"/>
</g>
<!-- Node5&#45;&gt;Node3 -->
<g id="edge7" class="edge"><title>Node5&#45;&gt;Node3</title>
<path fill="none" stroke="midnightblue" d="M819.306,-345.272C738.301,-345.715 424.169,-340.778 192,-244 153.273,-227.857 139.647,-222.658 116,-188 101.478,-166.716 104.59,-157.515 101,-132 96.2933,-98.5488 94.9248,-89.3973 100,-56 101.368,-47.001 104.19,-37.3251 106.945,-29.2601"/>
<polygon fill="midnightblue" stroke="midnightblue" points="110.265,-30.3722 110.4,-19.7782 103.688,-27.9759 110.265,-30.3722"/>
</g>
<!-- Node6 -->
<g id="node6" class="node"><title>Node6</title>
<polygon fill="white" stroke="#bfbfbf" points="547.5,-0.5 547.5,-19.5 576.5,-19.5 576.5,-0.5 547.5,-0.5"/>
<text text-anchor="middle" x="562" y="-7.5" font-family="Helvetica,sans-Serif" font-size="10.00">list</text>
</g>
<!-- Node5&#45;&gt;Node6 -->
<g id="edge5" class="edge"><title>Node5&#45;&gt;Node6</title>
<path fill="none" stroke="midnightblue" d="M858.541,-343.431C908.866,-338.219 1039,-316.831 1039,-235 1039,-235 1039,-235 1039,-121 1039,-90.9022 1043.17,-75.2088 1020,-56 986.491,-28.2211 678.177,-15.1283 587.174,-11.8472"/>
<polygon fill="midnightblue" stroke="midnightblue" points="587.074,-8.34164 576.957,-11.4875 586.827,-15.3373 587.074,-8.34164"/>
</g>
<!-- Node7 -->
<g id="node7" class="node"><title>Node7</title>
<polygon fill="white" stroke="#bfbfbf" points="821.5,-224.5 821.5,-243.5 856.5,-243.5 856.5,-224.5 821.5,-224.5"/>
<text text-anchor="middle" x="839" y="-231.5" font-family="Helvetica,sans-Serif" font-size="10.00">map</text>
</g>
<!-- Node5&#45;&gt;Node7 -->
<g id="edge6" class="edge"><title>Node5&#45;&gt;Node7</title>
<path fill="none" stroke="midnightblue" d="M839,-336.368C839,-318.617 839,-277.666 839,-253.597"/>
<polygon fill="midnightblue" stroke="midnightblue" points="842.5,-253.591 839,-243.591 835.5,-253.591 842.5,-253.591"/>
</g>
<!-- Node8 -->
<g id="node8" class="node"><title>Node8</title>
<polygon fill="white" stroke="#bfbfbf" points="639.5,-56.5 639.5,-75.5 760.5,-75.5 760.5,-56.5 639.5,-56.5"/>
<text text-anchor="middle" x="700" y="-63.5" font-family="Helvetica,sans-Serif" font-size="10.00">boost/make_shared.hpp</text>
</g>
<!-- Node5&#45;&gt;Node8 -->
<g id="edge9" class="edge"><title>Node5&#45;&gt;Node8</title>
<path fill="none" stroke="midnightblue" d="M848.202,-336.318C856.485,-327.895 868.217,-314.316 874,-300 905.31,-222.487 922.359,-175.511 868,-112 854.759,-96.5296 808.835,-84.8693 768.343,-77.2987"/>
<polygon fill="midnightblue" stroke="midnightblue" points="768.923,-73.8469 758.459,-75.5097 767.676,-80.7349 768.923,-73.8469"/>
</g>
<!-- Node9 -->
<g id="node9" class="node"><title>Node9</title>
<g id="a_node9"><a xlink:href="GVSkeletonGraph_8h.html" target="_top" xlink:title="header for the GVSkeletonGraph class ">
<polygon fill="white" stroke="black" points="1272,-168.5 1272,-187.5 1376,-187.5 1376,-168.5 1272,-168.5"/>
<text text-anchor="middle" x="1324" y="-175.5" font-family="Helvetica,sans-Serif" font-size="10.00">GVSkeletonGraph.h</text>
</a>
</g>
</g>
<!-- Node5&#45;&gt;Node9 -->
<g id="edge11" class="edge"><title>Node5&#45;&gt;Node9</title>
<path fill="none" stroke="midnightblue" d="M858.542,-342.315C896.616,-336.775 983.12,-322.662 1053,-300 1146.8,-269.58 1251.82,-217.016 1298.85,-192.42"/>
<polygon fill="midnightblue" stroke="midnightblue" points="1300.76,-195.368 1307.98,-187.614 1297.5,-189.174 1300.76,-195.368"/>
</g>
<!-- Node19 -->
<g id="node19" class="node"><title>Node19</title>
<g id="a_node19"><a xlink:href="PHScene_8h.html" target="_top" xlink:title="header for the PHScene class ">
<polygon fill="white" stroke="black" points="647.5,-280.5 647.5,-299.5 714.5,-299.5 714.5,-280.5 647.5,-280.5"/>
<text text-anchor="middle" x="681" y="-287.5" font-family="Helvetica,sans-Serif" font-size="10.00">PHScene.h</text>
</a>
</g>
</g>
<!-- Node5&#45;&gt;Node19 -->
<g id="edge25" class="edge"><title>Node5&#45;&gt;Node19</title>
<path fill="none" stroke="midnightblue" d="M819.309,-338.27C793.407,-329.417 747.459,-313.714 715.671,-302.849"/>
<polygon fill="midnightblue" stroke="midnightblue" points="716.485,-299.429 705.891,-299.507 714.221,-306.053 716.485,-299.429"/>
</g>
<!-- Node32 -->
<g id="node32" class="node"><title>Node32</title>
<g id="a_node32"><a xlink:href="Sort_8h.html" target="_top" xlink:title="header for the Sort class ">
<polygon fill="white" stroke="black" points="514.5,-112.5 514.5,-131.5 557.5,-131.5 557.5,-112.5 514.5,-112.5"/>
<text text-anchor="middle" x="536" y="-119.5" font-family="Helvetica,sans-Serif" font-size="10.00">Sort.h</text>
</a>
</g>
</g>
<!-- Node5&#45;&gt;Node32 -->
<g id="edge70" class="edge"><title>Node5&#45;&gt;Node32</title>
<path fill="none" stroke="midnightblue" d="M819.344,-345.368C765.117,-345.161 613.557,-336.065 555,-244 534.91,-212.414 533.465,-167.052 534.523,-141.796"/>
<polygon fill="midnightblue" stroke="midnightblue" points="538.022,-141.92 535.127,-131.728 531.034,-141.5 538.022,-141.92"/>
</g>
<!-- Node9&#45;&gt;Node2 -->
<g id="edge13" class="edge"><title>Node9&#45;&gt;Node2</title>
<path fill="none" stroke="midnightblue" d="M1376.22,-175.291C1442.44,-171.897 1551.04,-161.816 1576,-132 1612.16,-88.8158 1529.55,-44.6112 1481.46,-23.5912"/>
<polygon fill="midnightblue" stroke="midnightblue" points="1482.64,-20.2869 1472.06,-19.5848 1479.89,-26.7261 1482.64,-20.2869"/>
</g>
<!-- Node10 -->
<g id="node10" class="node"><title>Node10</title>
<polygon fill="white" stroke="#bfbfbf" points="1363,-112.5 1363,-131.5 1443,-131.5 1443,-112.5 1363,-112.5"/>
<text text-anchor="middle" x="1403" y="-119.5" font-family="Helvetica,sans-Serif" font-size="10.00">graphviz/gvc.h</text>
</g>
<!-- Node9&#45;&gt;Node10 -->
<g id="edge12" class="edge"><title>Node9&#45;&gt;Node10</title>
<path fill="none" stroke="midnightblue" d="M1336.69,-168.324C1348.9,-159.979 1367.58,-147.212 1382,-137.352"/>
<polygon fill="midnightblue" stroke="midnightblue" points="1384.06,-140.187 1390.34,-131.655 1380.11,-134.408 1384.06,-140.187"/>
</g>
<!-- Node11 -->
<g id="node11" class="node"><title>Node11</title>
<polygon fill="white" stroke="#bfbfbf" points="1461,-112.5 1461,-131.5 1505,-131.5 1505,-112.5 1461,-112.5"/>
<text text-anchor="middle" x="1483" y="-119.5" font-family="Helvetica,sans-Serif" font-size="10.00">QFont</text>
</g>
<!-- Node9&#45;&gt;Node11 -->
<g id="edge14" class="edge"><title>Node9&#45;&gt;Node11</title>
<path fill="none" stroke="midnightblue" d="M1349.19,-168.444C1376.89,-159.038 1421.42,-143.914 1451.42,-133.724"/>
<polygon fill="midnightblue" stroke="midnightblue" points="1452.65,-137.003 1461,-130.473 1450.4,-130.375 1452.65,-137.003"/>
</g>
<!-- Node12 -->
<g id="node12" class="node"><title>Node12</title>
<polygon fill="white" stroke="#bfbfbf" points="1523.5,-112.5 1523.5,-131.5 1566.5,-131.5 1566.5,-112.5 1523.5,-112.5"/>
<text text-anchor="middle" x="1545" y="-119.5" font-family="Helvetica,sans-Serif" font-size="10.00">QMap</text>
</g>
<!-- Node9&#45;&gt;Node12 -->
<g id="edge15" class="edge"><title>Node9&#45;&gt;Node12</title>
<path fill="none" stroke="midnightblue" d="M1362.71,-168.427C1399.18,-160.22 1455.54,-147.194 1513.64,-131.991"/>
<polygon fill="midnightblue" stroke="midnightblue" points="1514.58,-135.364 1523.36,-129.433 1512.8,-128.595 1514.58,-135.364"/>
</g>
<!-- Node13 -->
<g id="node13" class="node"><title>Node13</title>
<polygon fill="white" stroke="#bfbfbf" points="1303.5,-112.5 1303.5,-131.5 1344.5,-131.5 1344.5,-112.5 1303.5,-112.5"/>
<text text-anchor="middle" x="1324" y="-119.5" font-family="Helvetica,sans-Serif" font-size="10.00">QPair</text>
</g>
<!-- Node9&#45;&gt;Node13 -->
<g id="edge16" class="edge"><title>Node9&#45;&gt;Node13</title>
<path fill="none" stroke="midnightblue" d="M1324,-168.083C1324,-161.006 1324,-150.861 1324,-141.986"/>
<polygon fill="midnightblue" stroke="midnightblue" points="1327.5,-141.751 1324,-131.751 1320.5,-141.751 1327.5,-141.751"/>
</g>
<!-- Node14 -->
<g id="node14" class="node"><title>Node14</title>
<polygon fill="white" stroke="#bfbfbf" points="1133,-56.5 1133,-75.5 1183,-75.5 1183,-56.5 1133,-56.5"/>
<text text-anchor="middle" x="1158" y="-63.5" font-family="Helvetica,sans-Serif" font-size="10.00">QString</text>
</g>
<!-- Node9&#45;&gt;Node14 -->
<g id="edge17" class="edge"><title>Node9&#45;&gt;Node14</title>
<path fill="none" stroke="midnightblue" d="M1310.97,-168.368C1282.49,-149.492 1214.42,-104.385 1179.48,-81.2367"/>
<polygon fill="midnightblue" stroke="midnightblue" points="1181.23,-78.1977 1170.97,-75.5914 1177.37,-84.0328 1181.23,-78.1977"/>
</g>
<!-- Node15 -->
<g id="node15" class="node"><title>Node15</title>
<g id="a_node15"><a xlink:href="GVNode_8h.html" target="_top" xlink:title="header for the GVNode class ">
<polygon fill="white" stroke="black" points="1067,-112.5 1067,-131.5 1129,-131.5 1129,-112.5 1067,-112.5"/>
<text text-anchor="middle" x="1098" y="-119.5" font-family="Helvetica,sans-Serif" font-size="10.00">GVNode.h</text>
</a>
</g>
</g>
<!-- Node9&#45;&gt;Node15 -->
<g id="edge18" class="edge"><title>Node9&#45;&gt;Node15</title>
<path fill="none" stroke="midnightblue" d="M1288.19,-168.444C1247.63,-158.752 1181.65,-142.988 1139.05,-132.808"/>
<polygon fill="midnightblue" stroke="midnightblue" points="1139.82,-129.393 1129.28,-130.473 1138.19,-136.201 1139.82,-129.393"/>
</g>
<!-- Node17 -->
<g id="node17" class="node"><title>Node17</title>
<g id="a_node17"><a xlink:href="GVEdge_8h.html" target="_top" xlink:title="header for the GVEdge class ">
<polygon fill="white" stroke="black" points="1147,-112.5 1147,-131.5 1209,-131.5 1209,-112.5 1147,-112.5"/>
<text text-anchor="middle" x="1178" y="-119.5" font-family="Helvetica,sans-Serif" font-size="10.00">GVEdge.h</text>
</a>
</g>
</g>
<!-- Node9&#45;&gt;Node17 -->
<g id="edge21" class="edge"><title>Node9&#45;&gt;Node17</title>
<path fill="none" stroke="midnightblue" d="M1300.87,-168.444C1276.52,-159.438 1237.99,-145.189 1210.58,-135.049"/>
<polygon fill="midnightblue" stroke="midnightblue" points="1211.62,-131.703 1201.03,-131.516 1209.19,-138.268 1211.62,-131.703"/>
</g>
<!-- Node15&#45;&gt;Node14 -->
<g id="edge20" class="edge"><title>Node15&#45;&gt;Node14</title>
<path fill="none" stroke="midnightblue" d="M1107.64,-112.324C1116.51,-104.341 1129.87,-92.3128 1140.61,-82.6529"/>
<polygon fill="midnightblue" stroke="midnightblue" points="1143.09,-85.1251 1148.18,-75.8339 1138.41,-79.922 1143.09,-85.1251"/>
</g>
<!-- Node16 -->
<g id="node16" class="node"><title>Node16</title>
<polygon fill="white" stroke="#bfbfbf" points="1067.5,-56.5 1067.5,-75.5 1114.5,-75.5 1114.5,-56.5 1067.5,-56.5"/>
<text text-anchor="middle" x="1091" y="-63.5" font-family="Helvetica,sans-Serif" font-size="10.00">QPoint</text>
</g>
<!-- Node15&#45;&gt;Node16 -->
<g id="edge19" class="edge"><title>Node15&#45;&gt;Node16</title>
<path fill="none" stroke="midnightblue" d="M1096.84,-112.083C1095.92,-104.927 1094.58,-94.6353 1093.42,-85.6911"/>
<polygon fill="midnightblue" stroke="midnightblue" points="1096.89,-85.2181 1092.13,-75.7511 1089.95,-86.1181 1096.89,-85.2181"/>
</g>
<!-- Node17&#45;&gt;Node14 -->
<g id="edge23" class="edge"><title>Node17&#45;&gt;Node14</title>
<path fill="none" stroke="midnightblue" d="M1174.7,-112.083C1172.02,-104.849 1168.15,-94.4087 1164.81,-85.3968"/>
<polygon fill="midnightblue" stroke="midnightblue" points="1168,-83.9129 1161.24,-75.7511 1161.43,-86.3442 1168,-83.9129"/>
</g>
<!-- Node17&#45;&gt;Node16 -->
<g id="edge22" class="edge"><title>Node17&#45;&gt;Node16</title>
<path fill="none" stroke="midnightblue" d="M1164.02,-112.324C1150.45,-103.9 1129.62,-90.9709 1113.68,-81.0741"/>
<polygon fill="midnightblue" stroke="midnightblue" points="1115.29,-77.9544 1104.94,-75.6545 1111.59,-83.9019 1115.29,-77.9544"/>
</g>
<!-- Node18 -->
<g id="node18" class="node"><title>Node18</title>
<polygon fill="white" stroke="#bfbfbf" points="1201.5,-56.5 1201.5,-75.5 1276.5,-75.5 1276.5,-56.5 1201.5,-56.5"/>
<text text-anchor="middle" x="1239" y="-63.5" font-family="Helvetica,sans-Serif" font-size="10.00">QPainterPath</text>
</g>
<!-- Node17&#45;&gt;Node18 -->
<g id="edge24" class="edge"><title>Node17&#45;&gt;Node18</title>
<path fill="none" stroke="midnightblue" d="M1187.8,-112.324C1196.82,-104.341 1210.41,-92.3128 1221.32,-82.6529"/>
<polygon fill="midnightblue" stroke="midnightblue" points="1223.85,-85.083 1229.02,-75.8339 1219.21,-79.8416 1223.85,-85.083"/>
</g>
<!-- Node19&#45;&gt;Node2 -->
<g id="edge26" class="edge"><title>Node19&#45;&gt;Node2</title>
<path fill="none" stroke="midnightblue" d="M695.428,-280.406C719.041,-266.676 767.746,-239.74 812,-224 986.322,-162 1044.31,-195.753 1218,-132 1299.13,-102.22 1387.81,-49.8765 1428,-24.9527"/>
<polygon fill="midnightblue" stroke="midnightblue" points="1430.08,-27.7806 1436.71,-19.5128 1426.37,-21.8445 1430.08,-27.7806"/>
</g>
<!-- Node19&#45;&gt;Node3 -->
<g id="edge30" class="edge"><title>Node19&#45;&gt;Node3</title>
<path fill="none" stroke="midnightblue" d="M647.202,-287.93C538.746,-283.746 202.51,-264.703 133,-188 92.9248,-143.778 102.497,-65.5612 109.62,-29.7957"/>
<polygon fill="midnightblue" stroke="midnightblue" points="113.094,-30.285 111.78,-19.772 106.252,-28.81 113.094,-30.285"/>
</g>
<!-- Node19&#45;&gt;Node7 -->
<g id="edge29" class="edge"><title>Node19&#45;&gt;Node7</title>
<path fill="none" stroke="midnightblue" d="M706.036,-280.444C734.836,-270.601 781.964,-254.493 811.69,-244.334"/>
<polygon fill="midnightblue" stroke="midnightblue" points="813.089,-247.554 821.42,-241.008 810.825,-240.931 813.089,-247.554"/>
</g>
<!-- Node20 -->
<g id="node20" class="node"><title>Node20</title>
<polygon fill="white" stroke="#bfbfbf" points="564.5,-224.5 564.5,-243.5 617.5,-243.5 617.5,-224.5 564.5,-224.5"/>
<text text-anchor="middle" x="591" y="-231.5" font-family="Helvetica,sans-Serif" font-size="10.00">QObject</text>
</g>
<!-- Node19&#45;&gt;Node20 -->
<g id="edge27" class="edge"><title>Node19&#45;&gt;Node20</title>
<path fill="none" stroke="midnightblue" d="M666.54,-280.324C652.5,-271.9 630.952,-258.971 614.457,-249.074"/>
<polygon fill="midnightblue" stroke="midnightblue" points="615.8,-245.798 605.424,-243.655 612.198,-251.801 615.8,-245.798"/>
</g>
<!-- Node21 -->
<g id="node21" class="node"><title>Node21</title>
<polygon fill="white" stroke="#bfbfbf" points="635.5,-224.5 635.5,-243.5 726.5,-243.5 726.5,-224.5 635.5,-224.5"/>
<text text-anchor="middle" x="681" y="-231.5" font-family="Helvetica,sans-Serif" font-size="10.00">QGraphicsScene</text>
</g>
<!-- Node19&#45;&gt;Node21 -->
<g id="edge28" class="edge"><title>Node19&#45;&gt;Node21</title>
<path fill="none" stroke="midnightblue" d="M681,-280.083C681,-273.006 681,-262.861 681,-253.986"/>
<polygon fill="midnightblue" stroke="midnightblue" points="684.5,-253.751 681,-243.751 677.5,-253.751 684.5,-253.751"/>
</g>
<!-- Node19&#45;&gt;Node22 -->
<g id="edge31" class="edge"><title>Node19&#45;&gt;Node22</title>
<path fill="none" stroke="midnightblue" d="M647.466,-282.486C603.777,-273.235 527.78,-256.199 481.109,-245.246"/>
<polygon fill="midnightblue" stroke="midnightblue" points="481.87,-241.829 471.333,-242.938 480.262,-248.642 481.87,-241.829"/>
</g>
<!-- Node22&#45;&gt;Node1 -->
<g id="edge38" class="edge"><title>Node22&#45;&gt;Node1</title>
<path fill="none" stroke="midnightblue" d="M435.45,-243.605C412.802,-270.157 330.735,-351.073 292.059,-385.371"/>
<polygon fill="midnightblue" stroke="midnightblue" points="289.327,-383.108 284.073,-392.309 293.918,-388.393 289.327,-383.108"/>
</g>
<!-- Node22&#45;&gt;Node4 -->
<g id="edge69" class="edge"><title>Node22&#45;&gt;Node4</title>
<path fill="none" stroke="midnightblue" d="M430.443,-224.433C410.2,-207.753 365.01,-169.277 332,-132 318.498,-116.753 305.084,-97.7124 296.063,-84.1893"/>
<polygon fill="midnightblue" stroke="midnightblue" points="298.986,-82.2636 290.574,-75.823 293.134,-86.1039 298.986,-82.2636"/>
</g>
<!-- Node22&#45;&gt;Node6 -->
<g id="edge34" class="edge"><title>Node22&#45;&gt;Node6</title>
<path fill="none" stroke="midnightblue" d="M423.905,-224.498C407.96,-216.201 383.864,-202.709 365,-188 304.551,-140.868 203.87,-113.987 254,-56 290.667,-13.5868 470.239,-10.3648 536.969,-10.6664"/>
<polygon fill="midnightblue" stroke="midnightblue" points="537.34,-14.1693 547.367,-10.7473 537.395,-7.16956 537.34,-14.1693"/>
</g>
<!-- Node22&#45;&gt;Node16 -->
<g id="edge68" class="edge"><title>Node22&#45;&gt;Node16</title>
<path fill="none" stroke="midnightblue" d="M471.28,-229.638C550.776,-220.241 771.344,-190.474 946,-132 989.058,-117.584 1036.69,-94.8362 1065.21,-80.4292"/>
<polygon fill="midnightblue" stroke="midnightblue" points="1067.15,-83.3706 1074.47,-75.7084 1063.97,-77.1351 1067.15,-83.3706"/>
</g>
<!-- Node22&#45;&gt;Node17 -->
<g id="edge36" class="edge"><title>Node22&#45;&gt;Node17</title>
<path fill="none" stroke="midnightblue" d="M471.228,-230.245C554.427,-222.583 785.621,-200.754 861,-188 899.692,-181.453 908.599,-176.08 947,-168 1028.48,-150.855 1051.74,-149.559 1136.75,-132.2"/>
<polygon fill="midnightblue" stroke="midnightblue" points="1137.49,-135.622 1146.58,-130.179 1136.08,-128.766 1137.49,-135.622"/>
</g>
<!-- Node22&#45;&gt;Node19 -->
<g id="edge37" class="edge"><title>Node22&#45;&gt;Node19</title>
<path fill="none" stroke="midnightblue" d="M471.044,-240.777C513.287,-249.669 590.091,-266.863 638.243,-278.134"/>
<polygon fill="midnightblue" stroke="midnightblue" points="637.524,-281.56 648.06,-280.444 639.128,-274.746 637.524,-281.56"/>
</g>
<!-- Node23 -->
<g id="node23" class="node"><title>Node23</title>
<polygon fill="white" stroke="#bfbfbf" points="377.5,-56.5 377.5,-75.5 460.5,-75.5 460.5,-56.5 377.5,-56.5"/>
<text text-anchor="middle" x="419" y="-63.5" font-family="Helvetica,sans-Serif" font-size="10.00">QGraphicsItem</text>
</g>
<!-- Node22&#45;&gt;Node23 -->
<g id="edge32" class="edge"><title>Node22&#45;&gt;Node23</title>
<path fill="none" stroke="midnightblue" d="M436.742,-224.131C429.983,-210.734 415.728,-185.092 398,-168 375.885,-146.68 354.035,-158.787 339,-132 325.933,-108.72 355.262,-90.4995 382.012,-79.3472"/>
<polygon fill="midnightblue" stroke="midnightblue" points="383.635,-82.4704 391.668,-75.562 381.08,-75.9533 383.635,-82.4704"/>
</g>
<!-- Node24 -->
<g id="node24" class="node"><title>Node24</title>
<polygon fill="white" stroke="#bfbfbf" points="142,-168.5 142,-187.5 260,-187.5 260,-168.5 142,-168.5"/>
<text text-anchor="middle" x="201" y="-175.5" font-family="Helvetica,sans-Serif" font-size="10.00">QGraphicsPolygonItem</text>
</g>
<!-- Node22&#45;&gt;Node24 -->
<g id="edge33" class="edge"><title>Node22&#45;&gt;Node24</title>
<path fill="none" stroke="midnightblue" d="M410.604,-226.161C369.86,-216.993 297.096,-200.622 248.933,-189.785"/>
<polygon fill="midnightblue" stroke="midnightblue" points="249.574,-186.342 239.049,-187.561 248.037,-193.171 249.574,-186.342"/>
</g>
<!-- Node25 -->
<g id="node25" class="node"><title>Node25</title>
<polygon fill="white" stroke="#bfbfbf" points="278,-168.5 278,-187.5 318,-187.5 318,-168.5 278,-168.5"/>
<text text-anchor="middle" x="298" y="-175.5" font-family="Helvetica,sans-Serif" font-size="10.00">utility</text>
</g>
<!-- Node22&#45;&gt;Node25 -->
<g id="edge35" class="edge"><title>Node22&#45;&gt;Node25</title>
<path fill="none" stroke="midnightblue" d="M418.341,-224.444C393.9,-215.214 354.873,-200.476 327.923,-190.299"/>
<polygon fill="midnightblue" stroke="midnightblue" points="328.832,-186.902 318.241,-186.643 326.359,-193.45 328.832,-186.902"/>
</g>
<!-- Node26 -->
<g id="node26" class="node"><title>Node26</title>
<g id="a_node26"><a xlink:href="GSort_8h.html" target="_top" xlink:title="header for the GSort class ">
<polygon fill="white" stroke="black" points="642,-168.5 642,-187.5 692,-187.5 692,-168.5 642,-168.5"/>
<text text-anchor="middle" x="667" y="-175.5" font-family="Helvetica,sans-Serif" font-size="10.00">GSort.h</text>
</a>
</g>
</g>
<!-- Node22&#45;&gt;Node26 -->
<g id="edge39" class="edge"><title>Node22&#45;&gt;Node26</title>
<path fill="none" stroke="midnightblue" d="M471.011,-225.829C512.585,-215.896 587.559,-197.981 631.747,-187.423"/>
<polygon fill="midnightblue" stroke="midnightblue" points="632.835,-190.762 641.748,-185.034 631.208,-183.953 632.835,-190.762"/>
</g>
<!-- Node29 -->
<g id="node29" class="node"><title>Node29</title>
<polygon fill="white" stroke="#bfbfbf" points="410.5,-112.5 410.5,-131.5 457.5,-131.5 457.5,-112.5 410.5,-112.5"/>
<text text-anchor="middle" x="434" y="-119.5" font-family="Helvetica,sans-Serif" font-size="10.00">QColor</text>
</g>
<!-- Node22&#45;&gt;Node29 -->
<g id="edge66" class="edge"><title>Node22&#45;&gt;Node29</title>
<path fill="none" stroke="midnightblue" d="M450.553,-224.439C462.924,-212.256 482.006,-189.057 474,-168 469.665,-156.598 460.969,-146.239 452.79,-138.343"/>
<polygon fill="midnightblue" stroke="midnightblue" points="455.041,-135.66 445.266,-131.573 450.358,-140.863 455.041,-135.66"/>
</g>
<!-- Node30 -->
<g id="node30" class="node"><title>Node30</title>
<polygon fill="white" stroke="#bfbfbf" points="348,-112.5 348,-131.5 392,-131.5 392,-112.5 348,-112.5"/>
<text text-anchor="middle" x="370" y="-119.5" font-family="Helvetica,sans-Serif" font-size="10.00">QSize</text>
</g>
<!-- Node22&#45;&gt;Node30 -->
<g id="edge67" class="edge"><title>Node22&#45;&gt;Node30</title>
<path fill="none" stroke="midnightblue" d="M442.574,-224.316C444.492,-211.161 446.317,-185.829 436,-168 427.93,-154.053 413.59,-143.497 400.334,-136.126"/>
<polygon fill="midnightblue" stroke="midnightblue" points="401.912,-133.002 391.42,-131.53 398.704,-139.224 401.912,-133.002"/>
</g>
<!-- Node26&#45;&gt;Node4 -->
<g id="edge46" class="edge"><title>Node26&#45;&gt;Node4</title>
<path fill="none" stroke="midnightblue" d="M641.788,-171.671C609.483,-164.465 552.037,-150.374 505,-132 486.856,-124.912 484.239,-118.84 466,-112 452.089,-106.783 365.093,-85.9174 316.956,-74.5221"/>
<polygon fill="midnightblue" stroke="midnightblue" points="317.568,-71.0705 307.031,-72.1767 315.958,-77.8829 317.568,-71.0705"/>
</g>
<!-- Node26&#45;&gt;Node15 -->
<g id="edge57" class="edge"><title>Node26&#45;&gt;Node15</title>
<path fill="none" stroke="midnightblue" d="M692.035,-173.863C763.423,-164.919 968.513,-139.223 1056.79,-128.164"/>
<polygon fill="midnightblue" stroke="midnightblue" points="1057.47,-131.606 1066.95,-126.89 1056.6,-124.66 1057.47,-131.606"/>
</g>
<!-- Node26&#45;&gt;Node16 -->
<g id="edge44" class="edge"><title>Node26&#45;&gt;Node16</title>
<path fill="none" stroke="midnightblue" d="M692.082,-173.314C735.052,-166.744 825.336,-151.814 900,-132 957.184,-116.824 1022.06,-93.3783 1059.58,-79.1815"/>
<polygon fill="midnightblue" stroke="midnightblue" points="1060.86,-82.4396 1068.96,-75.6096 1058.37,-75.898 1060.86,-82.4396"/>
</g>
<!-- Node26&#45;&gt;Node19 -->
<g id="edge65" class="edge"><title>Node26&#45;&gt;Node19</title>
<path fill="none" stroke="midnightblue" d="M690.454,-187.592C706.161,-194.72 725.619,-206.542 735,-224 745.491,-243.524 724.794,-262.641 706.066,-275.032"/>
<polygon fill="midnightblue" stroke="midnightblue" points="704.093,-272.137 697.447,-280.388 707.788,-278.082 704.093,-272.137"/>
</g>
<!-- Node27 -->
<g id="node27" class="node"><title>Node27</title>
<polygon fill="white" stroke="#bfbfbf" points="669,-112.5 669,-131.5 773,-131.5 773,-112.5 669,-112.5"/>
<text text-anchor="middle" x="721" y="-119.5" font-family="Helvetica,sans-Serif" font-size="10.00">QGraphicsRectItem</text>
</g>
<!-- Node26&#45;&gt;Node27 -->
<g id="edge40" class="edge"><title>Node26&#45;&gt;Node27</title>
<path fill="none" stroke="midnightblue" d="M675.917,-168.083C683.78,-160.22 695.431,-148.569 704.919,-139.081"/>
<polygon fill="midnightblue" stroke="midnightblue" points="707.653,-141.297 712.249,-131.751 702.703,-136.347 707.653,-141.297"/>
</g>
<!-- Node28 -->
<g id="node28" class="node"><title>Node28</title>
<polygon fill="white" stroke="#bfbfbf" points="909,-56.5 909,-75.5 1011,-75.5 1011,-56.5 909,-56.5"/>
<text text-anchor="middle" x="960" y="-63.5" font-family="Helvetica,sans-Serif" font-size="10.00">QGraphicsTextItem</text>
</g>
<!-- Node26&#45;&gt;Node28 -->
<g id="edge41" class="edge"><title>Node26&#45;&gt;Node28</title>
<path fill="none" stroke="midnightblue" d="M692.12,-174.585C731.176,-170.134 808.185,-158.545 868,-132 896.573,-119.32 925.332,-97.1335 942.905,-82.2554"/>
<polygon fill="midnightblue" stroke="midnightblue" points="945.311,-84.8021 950.583,-75.6124 940.731,-79.5083 945.311,-84.8021"/>
</g>
<!-- Node26&#45;&gt;Node29 -->
<g id="edge42" class="edge"><title>Node26&#45;&gt;Node29</title>
<path fill="none" stroke="midnightblue" d="M641.747,-171.221C604.562,-162.701 532.897,-146.238 472,-132 470.556,-131.662 469.081,-131.317 467.591,-130.967"/>
<polygon fill="midnightblue" stroke="midnightblue" points="468.248,-127.526 457.712,-128.638 466.642,-134.339 468.248,-127.526"/>
</g>
<!-- Node26&#45;&gt;Node30 -->
<g id="edge43" class="edge"><title>Node26&#45;&gt;Node30</title>
<path fill="none" stroke="midnightblue" d="M641.873,-173.732C596.075,-167.565 495.822,-153.103 402.185,-132.057"/>
<polygon fill="midnightblue" stroke="midnightblue" points="402.799,-128.607 392.271,-129.798 401.243,-135.432 402.799,-128.607"/>
</g>
<!-- Node31 -->
<g id="node31" class="node"><title>Node31</title>
<polygon fill="white" stroke="#bfbfbf" points="575.5,-112.5 575.5,-131.5 650.5,-131.5 650.5,-112.5 575.5,-112.5"/>
<text text-anchor="middle" x="613" y="-119.5" font-family="Helvetica,sans-Serif" font-size="10.00">QColorDialog</text>
</g>
<!-- Node26&#45;&gt;Node31 -->
<g id="edge45" class="edge"><title>Node26&#45;&gt;Node31</title>
<path fill="none" stroke="midnightblue" d="M658.083,-168.083C650.22,-160.22 638.569,-148.569 629.081,-139.081"/>
<polygon fill="midnightblue" stroke="midnightblue" points="631.297,-136.347 621.751,-131.751 626.347,-141.297 631.297,-136.347"/>
</g>
<!-- Node26&#45;&gt;Node32 -->
<g id="edge47" class="edge"><title>Node26&#45;&gt;Node32</title>
<path fill="none" stroke="midnightblue" d="M646.243,-168.444C624.684,-159.557 590.737,-145.563 566.206,-135.451"/>
<polygon fill="midnightblue" stroke="midnightblue" points="567.239,-132.092 556.66,-131.516 564.572,-138.563 567.239,-132.092"/>
</g>
<!-- Node34 -->
<g id="node34" class="node"><title>Node34</title>
<g id="a_node34"><a xlink:href="GProcess_8h.html" target="_top" xlink:title="header for the GProcess class ">
<polygon fill="white" stroke="black" points="791,-112.5 791,-131.5 859,-131.5 859,-112.5 791,-112.5"/>
<text text-anchor="middle" x="825" y="-119.5" font-family="Helvetica,sans-Serif" font-size="10.00">GProcess.h</text>
</a>
</g>
</g>
<!-- Node26&#45;&gt;Node34 -->
<g id="edge58" class="edge"><title>Node26&#45;&gt;Node34</title>
<path fill="none" stroke="midnightblue" d="M692.036,-168.444C718.616,-159.359 760.809,-144.939 790.523,-134.783"/>
<polygon fill="midnightblue" stroke="midnightblue" points="791.751,-138.062 800.082,-131.516 789.487,-131.439 791.751,-138.062"/>
</g>
<!-- Node32&#45;&gt;Node2 -->
<g id="edge50" class="edge"><title>Node32&#45;&gt;Node2</title>
<path fill="none" stroke="midnightblue" d="M544.904,-112.236C560.558,-97.4745 594.71,-68.0839 630,-56 700.666,-31.8025 1205.1,-17.0668 1385.8,-12.5166"/>
<polygon fill="midnightblue" stroke="midnightblue" points="1386.05,-16.0117 1395.96,-12.2631 1385.87,-9.01391 1386.05,-16.0117"/>
</g>
<!-- Node32&#45;&gt;Node3 -->
<g id="edge48" class="edge"><title>Node32&#45;&gt;Node3</title>
<path fill="none" stroke="midnightblue" d="M514.311,-115.495C475.444,-105.579 395.422,-84.9186 368,-76 344.453,-68.3416 339.705,-63.1561 316,-56 256.166,-37.9373 184.377,-23.6441 144.508,-16.3378"/>
<polygon fill="midnightblue" stroke="midnightblue" points="145.079,-12.8843 134.616,-14.5487 143.833,-19.7726 145.079,-12.8843"/>
</g>
<!-- Node32&#45;&gt;Node4 -->
<g id="edge49" class="edge"><title>Node32&#45;&gt;Node4</title>
<path fill="none" stroke="midnightblue" d="M514.334,-115.423C509.618,-114.254 504.649,-113.056 500,-112 422.142,-94.3136 402.016,-92.9779 324,-76 321.793,-75.5198 319.518,-75.0164 317.228,-74.5036"/>
<polygon fill="midnightblue" stroke="midnightblue" points="317.779,-71.0397 307.252,-72.2364 316.228,-77.8656 317.779,-71.0397"/>
</g>
<!-- Node32&#45;&gt;Node8 -->
<g id="edge51" class="edge"><title>Node32&#45;&gt;Node8</title>
<path fill="none" stroke="midnightblue" d="M557.778,-113.829C585.02,-104.859 632.026,-89.3817 664.499,-78.6893"/>
<polygon fill="midnightblue" stroke="midnightblue" points="665.669,-81.9891 674.072,-75.5371 663.479,-75.3403 665.669,-81.9891"/>
</g>
<!-- Node33 -->
<g id="node33" class="node"><title>Node33</title>
<g id="a_node33"><a xlink:href="Process_8h.html" target="_top" xlink:title="header for the Process class ">
<polygon fill="white" stroke="black" points="483.5,-56.5 483.5,-75.5 544.5,-75.5 544.5,-56.5 483.5,-56.5"/>
<text text-anchor="middle" x="514" y="-63.5" font-family="Helvetica,sans-Serif" font-size="10.00">Process.h</text>
</a>
</g>
</g>
<!-- Node32&#45;&gt;Node33 -->
<g id="edge52" class="edge"><title>Node32&#45;&gt;Node33</title>
<path fill="none" stroke="midnightblue" d="M527.201,-112.083C522.776,-104.927 518.153,-94.6353 515.157,-85.6911"/>
<polygon fill="midnightblue" stroke="midnightblue" points="518.452,-84.4709 512.434,-75.7511 511.701,-86.3205 518.452,-84.4709"/>
</g>
<!-- Node33&#45;&gt;Node2 -->
<g id="edge53" class="edge"><title>Node33&#45;&gt;Node2</title>
<path fill="none" stroke="midnightblue" d="M544.888,-58.2017C549.597,-57.3456 554.414,-56.5712 559,-56 866.881,-17.6481 1238.49,-11.7631 1385.57,-11.0174"/>
<polygon fill="midnightblue" stroke="midnightblue" points="1385.79,-14.5166 1395.77,-10.9722 1385.76,-7.51668 1385.79,-14.5166"/>
</g>
<!-- Node33&#45;&gt;Node3 -->
<g id="edge54" class="edge"><title>Node33&#45;&gt;Node3</title>
<path fill="none" stroke="midnightblue" d="M483.068,-58.5121C478.365,-57.6131 473.561,-56.7442 469,-56 349.847,-36.5581 207.026,-20.7021 145.133,-14.1912"/>
<polygon fill="midnightblue" stroke="midnightblue" points="145.191,-10.6784 134.882,-13.1208 144.464,-17.6405 145.191,-10.6784"/>
</g>
<!-- Node33&#45;&gt;Node6 -->
<g id="edge55" class="edge"><title>Node33&#45;&gt;Node6</title>
<path fill="none" stroke="midnightblue" d="M521.926,-56.083C528.846,-48.2982 539.065,-36.8015 547.452,-27.3665"/>
<polygon fill="midnightblue" stroke="midnightblue" points="550.194,-29.5505 554.221,-19.7511 544.962,-24.8999 550.194,-29.5505"/>
</g>
<!-- Node33&#45;&gt;Node32 -->
<g id="edge56" class="edge"><title>Node33&#45;&gt;Node32</title>
<path fill="none" stroke="midnightblue" d="M522.696,-75.7511C527.166,-82.936 531.854,-93.362 534.872,-102.396"/>
<polygon fill="midnightblue" stroke="midnightblue" points="531.509,-103.368 537.533,-112.083 538.259,-101.513 531.509,-103.368"/>
</g>
<!-- Node34&#45;&gt;Node5 -->
<g id="edge63" class="edge"><title>Node34&#45;&gt;Node5</title>
<path fill="none" stroke="midnightblue" d="M829.695,-131.579C838.707,-148.59 858.142,-188.06 865,-224 871.985,-260.605 857.571,-303.149 847.548,-326.784"/>
<polygon fill="midnightblue" stroke="midnightblue" points="844.215,-325.664 843.344,-336.223 850.61,-328.512 844.215,-325.664"/>
</g>
<!-- Node34&#45;&gt;Node6 -->
<g id="edge62" class="edge"><title>Node34&#45;&gt;Node6</title>
<path fill="none" stroke="midnightblue" d="M790.829,-113.607C736.827,-101.853 637.109,-79.836 630,-76 607.653,-63.9416 587.367,-42.5531 574.882,-27.6162"/>
<polygon fill="midnightblue" stroke="midnightblue" points="577.483,-25.2658 568.476,-19.6864 572.038,-29.6647 577.483,-25.2658"/>
</g>
<!-- Node34&#45;&gt;Node23 -->
<g id="edge59" class="edge"><title>Node34&#45;&gt;Node23</title>
<path fill="none" stroke="midnightblue" d="M790.784,-113.549C787.819,-112.991 784.861,-112.466 782,-112 645.969,-89.8604 610.486,-95.1333 474,-76 472.922,-75.8489 471.833,-75.6937 470.735,-75.535"/>
<polygon fill="midnightblue" stroke="midnightblue" points="471.12,-72.0537 460.712,-74.0316 470.082,-78.9763 471.12,-72.0537"/>
</g>
<!-- Node34&#45;&gt;Node28 -->
<g id="edge61" class="edge"><title>Node34&#45;&gt;Node28</title>
<path fill="none" stroke="midnightblue" d="M846.391,-112.444C868.707,-103.517 903.903,-89.4387 929.208,-79.3168"/>
<polygon fill="midnightblue" stroke="midnightblue" points="930.724,-82.4801 938.709,-75.5164 928.124,-75.9807 930.724,-82.4801"/>
</g>
<!-- Node34&#45;&gt;Node33 -->
<g id="edge64" class="edge"><title>Node34&#45;&gt;Node33</title>
<path fill="none" stroke="midnightblue" d="M790.757,-113.704C787.798,-113.113 784.848,-112.537 782,-112 701.59,-96.8405 607.124,-81.5671 554.555,-73.2923"/>
<polygon fill="midnightblue" stroke="midnightblue" points="555.038,-69.8254 544.616,-71.7328 553.953,-76.7407 555.038,-69.8254"/>
</g>
<!-- Node35 -->
<g id="node35" class="node"><title>Node35</title>
<polygon fill="white" stroke="#bfbfbf" points="779,-56.5 779,-75.5 891,-75.5 891,-56.5 779,-56.5"/>
<text text-anchor="middle" x="835" y="-63.5" font-family="Helvetica,sans-Serif" font-size="10.00">QGraphicsEllipseItem</text>
</g>
<!-- Node34&#45;&gt;Node35 -->
<g id="edge60" class="edge"><title>Node34&#45;&gt;Node35</title>
<path fill="none" stroke="midnightblue" d="M826.651,-112.083C827.976,-104.927 829.882,-94.6353 831.539,-85.6911"/>
<polygon fill="midnightblue" stroke="midnightblue" points="835,-86.2212 833.379,-75.7511 828.117,-84.9466 835,-86.2212"/>
</g>
</g>
</svg>
