<?xml version="1.0" encoding="UTF-8" standalone="no"?>
<!DOCTYPE svg PUBLIC "-//W3C//DTD SVG 1.1//EN"
 "http://www.w3.org/Graphics/SVG/1.1/DTD/svg11.dtd">
<!-- Generated by graphviz version 2.38.0 (20140413.2041)
 -->
<!-- Title: headers/Action.h Pages: 1 -->
<svg width="1005pt" height="476pt"
 viewBox="0.00 0.00 1004.74 476.00" xmlns="http://www.w3.org/2000/svg" xmlns:xlink="http://www.w3.org/1999/xlink">
<g id="graph0" class="graph" transform="scale(1 1) rotate(0) translate(4 472)">
<title>headers/Action.h</title>
<polygon fill="white" stroke="none" points="-4,4 -4,-472 1000.74,-472 1000.74,4 -4,4"/>
<!-- Node1 -->
<g id="node1" class="node"><title>Node1</title>
<polygon fill="#bfbfbf" stroke="black" points="385.74,-448.5 385.74,-467.5 475.74,-467.5 475.74,-448.5 385.74,-448.5"/>
<text text-anchor="middle" x="430.74" y="-455.5" font-family="Helvetica,sans-Serif" font-size="10.00">headers/Action.h</text>
</g>
<!-- Node2 -->
<g id="node2" class="node"><title>Node2</title>
<g id="a_node2"><a xlink:href="PH_8h.html" target="_top" xlink:title="header for the PH class ">
<polygon fill="white" stroke="black" points="392.24,-392.5 392.24,-411.5 469.24,-411.5 469.24,-392.5 392.24,-392.5"/>
<text text-anchor="middle" x="430.74" y="-399.5" font-family="Helvetica,sans-Serif" font-size="10.00">headers/PH.h</text>
</a>
</g>
</g>
<!-- Node1&#45;&gt;Node2 -->
<g id="edge1" class="edge"><title>Node1&#45;&gt;Node2</title>
<path fill="none" stroke="midnightblue" d="M424.267,-438.101C423.635,-429.136 424.083,-418.858 425.609,-411.751"/>
<polygon fill="midnightblue" stroke="midnightblue" points="420.806,-438.622 425.574,-448.083 427.747,-437.713 420.806,-438.622"/>
</g>
<!-- Node5 -->
<g id="node5" class="node"><title>Node5</title>
<g id="a_node5"><a xlink:href="GAction_8h.html" target="_top" xlink:title="header for the GAction class ">
<polygon fill="white" stroke="black" points="264.74,-224.5 264.74,-243.5 362.74,-243.5 362.74,-224.5 264.74,-224.5"/>
<text text-anchor="middle" x="313.74" y="-231.5" font-family="Helvetica,sans-Serif" font-size="10.00">headers/GAction.h</text>
</a>
</g>
</g>
<!-- Node1&#45;&gt;Node5 -->
<g id="edge49" class="edge"><title>Node1&#45;&gt;Node5</title>
<path fill="none" stroke="midnightblue" d="M403.318,-442.311C392.725,-434.219 381.516,-423.498 373.74,-412 334.567,-354.082 312.955,-270.706 311.794,-243.756"/>
<polygon fill="midnightblue" stroke="midnightblue" points="401.426,-445.26 411.605,-448.201 405.482,-439.554 401.426,-445.26"/>
</g>
<!-- Node30 -->
<g id="node30" class="node"><title>Node30</title>
<g id="a_node30"><a xlink:href="Action_8cpp_source.html" target="_top" xlink:title="src/ph/Action.cpp">
<polygon fill="white" stroke="black" points="487.24,-392.5 487.24,-411.5 580.24,-411.5 580.24,-392.5 487.24,-392.5"/>
<text text-anchor="middle" x="533.74" y="-399.5" font-family="Helvetica,sans-Serif" font-size="10.00">src/ph/Action.cpp</text>
</a>
</g>
</g>
<!-- Node1&#45;&gt;Node30 -->
<g id="edge50" class="edge"><title>Node1&#45;&gt;Node30</title>
<path fill="none" stroke="midnightblue" d="M456.319,-443.59C475.363,-433.605 500.804,-420.267 517.232,-411.655"/>
<polygon fill="midnightblue" stroke="midnightblue" points="454.52,-440.581 447.289,-448.324 457.77,-446.78 454.52,-440.581"/>
</g>
<!-- Node2&#45;&gt;Node1 -->
<g id="edge2" class="edge"><title>Node2&#45;&gt;Node1</title>
<path fill="none" stroke="midnightblue" d="M437.197,-421.691C437.846,-430.635 437.416,-440.927 435.906,-448.083"/>
<polygon fill="midnightblue" stroke="midnightblue" points="440.663,-421.2 435.871,-411.751 433.724,-422.126 440.663,-421.2"/>
</g>
<!-- Node3 -->
<g id="node3" class="node"><title>Node3</title>
<g id="a_node3"><a xlink:href="GProcess_8h.html" target="_top" xlink:title="header for the GProcess class ">
<polygon fill="white" stroke="black" points="418.74,-336.5 418.74,-355.5 524.74,-355.5 524.74,-336.5 418.74,-336.5"/>
<text text-anchor="middle" x="471.74" y="-343.5" font-family="Helvetica,sans-Serif" font-size="10.00">headers/GProcess.h</text>
</a>
</g>
</g>
<!-- Node2&#45;&gt;Node3 -->
<g id="edge3" class="edge"><title>Node2&#45;&gt;Node3</title>
<path fill="none" stroke="midnightblue" d="M443.757,-383.855C450.857,-374.505 459.344,-363.327 465.096,-355.751"/>
<polygon fill="midnightblue" stroke="midnightblue" points="440.77,-382.002 437.51,-392.083 446.345,-386.235 440.77,-382.002"/>
</g>
<!-- Node7 -->
<g id="node7" class="node"><title>Node7</title>
<g id="a_node7"><a xlink:href="PHScene_8cpp_source.html" target="_top" xlink:title="src/gfx/PHScene.cpp">
<polygon fill="white" stroke="black" points="528.74,-112.5 528.74,-131.5 638.74,-131.5 638.74,-112.5 528.74,-112.5"/>
<text text-anchor="middle" x="583.74" y="-119.5" font-family="Helvetica,sans-Serif" font-size="10.00">src/gfx/PHScene.cpp</text>
</a>
</g>
</g>
<!-- Node2&#45;&gt;Node7 -->
<g id="edge45" class="edge"><title>Node2&#45;&gt;Node7</title>
<path fill="none" stroke="midnightblue" d="M475.274,-389.75C543.161,-371.279 664.74,-332.417 664.74,-291 664.74,-291 664.74,-291 664.74,-233 664.74,-187.465 619.177,-148.357 596.396,-131.65"/>
<polygon fill="midnightblue" stroke="midnightblue" points="474.021,-386.462 465.267,-392.431 475.832,-393.224 474.021,-386.462"/>
</g>
<!-- Node14 -->
<g id="node14" class="node"><title>Node14</title>
<g id="a_node14"><a xlink:href="TikzEditor_8cpp_source.html" target="_top" xlink:title="src/ui/TikzEditor.cpp">
<polygon fill="white" stroke="black" points="104.24,-0.5 104.24,-19.5 211.24,-19.5 211.24,-0.5 104.24,-0.5"/>
<text text-anchor="middle" x="157.74" y="-7.5" font-family="Helvetica,sans-Serif" font-size="10.00">src/ui/TikzEditor.cpp</text>
</a>
</g>
</g>
<!-- Node2&#45;&gt;Node14 -->
<g id="edge48" class="edge"><title>Node2&#45;&gt;Node14</title>
<path fill="none" stroke="midnightblue" d="M382.148,-391.362C294.187,-371.071 110.068,-314.933 27.7399,-188 -4.20709,-138.744 -11.5878,-103.627 22.7399,-56 41.23,-30.3463 74.98,-19.0963 104.107,-14.2597"/>
<polygon fill="midnightblue" stroke="midnightblue" points="381.607,-394.827 392.131,-393.605 383.142,-387.998 381.607,-394.827"/>
</g>
<!-- Node15 -->
<g id="node15" class="node"><title>Node15</title>
<g id="a_node15"><a xlink:href="PHIO_8h.html" target="_top" xlink:title="header for the PHIO class ">
<polygon fill="white" stroke="black" points="674.24,-56.5 674.24,-75.5 761.24,-75.5 761.24,-56.5 674.24,-56.5"/>
<text text-anchor="middle" x="717.74" y="-63.5" font-family="Helvetica,sans-Serif" font-size="10.00">headers/PHIO.h</text>
</a>
</g>
</g>
<!-- Node2&#45;&gt;Node15 -->
<g id="edge44" class="edge"><title>Node2&#45;&gt;Node15</title>
<path fill="none" stroke="midnightblue" d="M479.258,-391.214C525.506,-381.524 591.569,-366.635 615.74,-356 663.241,-335.1 712.74,-342.895 712.74,-291 712.74,-291 712.74,-291 712.74,-177 712.74,-139.148 715.731,-94.0459 717.086,-75.5518"/>
<polygon fill="midnightblue" stroke="midnightblue" points="478.5,-387.797 469.422,-393.259 479.925,-394.65 478.5,-387.797"/>
</g>
<!-- Node17 -->
<g id="node17" class="node"><title>Node17</title>
<g id="a_node17"><a xlink:href="Main2_8cpp_source.html" target="_top" xlink:title="src/Main2.cpp">
<polygon fill="white" stroke="black" points="918.74,-0.5 918.74,-19.5 996.74,-19.5 996.74,-0.5 918.74,-0.5"/>
<text text-anchor="middle" x="957.74" y="-7.5" font-family="Helvetica,sans-Serif" font-size="10.00">src/Main2.cpp</text>
</a>
</g>
</g>
<!-- Node2&#45;&gt;Node17 -->
<g id="edge46" class="edge"><title>Node2&#45;&gt;Node17</title>
<path fill="none" stroke="midnightblue" d="M479.533,-391.94C601.417,-375.874 939.74,-393.115 939.74,-291 939.74,-291 939.74,-291 939.74,-121 939.74,-82.8781 950.399,-38.2886 955.312,-19.7605"/>
<polygon fill="midnightblue" stroke="midnightblue" points="478.821,-388.507 469.442,-393.434 479.846,-395.432 478.821,-388.507"/>
</g>
<!-- Node20 -->
<g id="node20" class="node"><title>Node20</title>
<g id="a_node20"><a xlink:href="PH_8cpp_source.html" target="_top" xlink:title="src/ph/PH.cpp">
<polygon fill="white" stroke="black" points="817.74,-56.5 817.74,-75.5 897.74,-75.5 897.74,-56.5 817.74,-56.5"/>
<text text-anchor="middle" x="857.74" y="-63.5" font-family="Helvetica,sans-Serif" font-size="10.00">src/ph/PH.cpp</text>
</a>
</g>
</g>
<!-- Node2&#45;&gt;Node20 -->
<g id="edge47" class="edge"><title>Node2&#45;&gt;Node20</title>
<path fill="none" stroke="midnightblue" d="M479.55,-391.597C545.773,-378.819 656.407,-357.388 660.74,-356 727.227,-334.708 803.74,-360.813 803.74,-291 803.74,-291 803.74,-291 803.74,-177 803.74,-135.515 835.071,-93.4062 850.003,-75.694"/>
<polygon fill="midnightblue" stroke="midnightblue" points="478.482,-388.238 469.326,-393.569 479.808,-395.112 478.482,-388.238"/>
</g>
<!-- Node26 -->
<g id="node26" class="node"><title>Node26</title>
<g id="a_node26"><a xlink:href="MyArea_8h.html" target="_top" xlink:title="header for the MyArea class ">
<polygon fill="white" stroke="black" points="36.7399,-168.5 36.7399,-187.5 132.74,-187.5 132.74,-168.5 36.7399,-168.5"/>
<text text-anchor="middle" x="84.7399" y="-175.5" font-family="Helvetica,sans-Serif" font-size="10.00">headers/MyArea.h</text>
</a>
</g>
</g>
<!-- Node2&#45;&gt;Node26 -->
<g id="edge38" class="edge"><title>Node2&#45;&gt;Node26</title>
<path fill="none" stroke="midnightblue" d="M408.415,-386.676C342.622,-344.462 150.799,-221.385 98.2097,-187.643"/>
<polygon fill="midnightblue" stroke="midnightblue" points="406.87,-389.843 417.176,-392.297 410.65,-383.951 406.87,-389.843"/>
</g>
<!-- Node4 -->
<g id="node4" class="node"><title>Node4</title>
<g id="a_node4"><a xlink:href="GSort_8h.html" target="_top" xlink:title="header for the GSort class ">
<polygon fill="white" stroke="black" points="418.74,-280.5 418.74,-299.5 506.74,-299.5 506.74,-280.5 418.74,-280.5"/>
<text text-anchor="middle" x="462.74" y="-287.5" font-family="Helvetica,sans-Serif" font-size="10.00">headers/GSort.h</text>
</a>
</g>
</g>
<!-- Node3&#45;&gt;Node4 -->
<g id="edge4" class="edge"><title>Node3&#45;&gt;Node4</title>
<path fill="none" stroke="midnightblue" d="M468.59,-326.101C467.096,-317.136 465.383,-306.858 464.198,-299.751"/>
<polygon fill="midnightblue" stroke="midnightblue" points="465.157,-326.794 470.254,-336.083 472.062,-325.644 465.157,-326.794"/>
</g>
<!-- Node25 -->
<g id="node25" class="node"><title>Node25</title>
<g id="a_node25"><a xlink:href="GProcess_8cpp_source.html" target="_top" xlink:title="src/gfx/GProcess.cpp">
<polygon fill="white" stroke="black" points="524.74,-280.5 524.74,-299.5 636.74,-299.5 636.74,-280.5 524.74,-280.5"/>
<text text-anchor="middle" x="580.74" y="-287.5" font-family="Helvetica,sans-Serif" font-size="10.00">src/gfx/GProcess.cpp</text>
</a>
</g>
</g>
<!-- Node3&#45;&gt;Node25 -->
<g id="edge37" class="edge"><title>Node3&#45;&gt;Node25</title>
<path fill="none" stroke="midnightblue" d="M498.259,-331.862C518.47,-321.849 545.727,-308.346 563.271,-299.655"/>
<polygon fill="midnightblue" stroke="midnightblue" points="496.66,-328.748 489.253,-336.324 499.767,-335.021 496.66,-328.748"/>
</g>
<!-- Node4&#45;&gt;Node5 -->
<g id="edge5" class="edge"><title>Node4&#45;&gt;Node5</title>
<path fill="none" stroke="midnightblue" d="M429.369,-276.906C401.356,-266.754 362.044,-252.506 337.239,-243.516"/>
<polygon fill="midnightblue" stroke="midnightblue" points="428.536,-280.327 439.13,-280.444 430.921,-273.746 428.536,-280.327"/>
</g>
<!-- Node24 -->
<g id="node24" class="node"><title>Node24</title>
<g id="a_node24"><a xlink:href="GSort_8cpp_source.html" target="_top" xlink:title="src/gfx/GSort.cpp">
<polygon fill="white" stroke="black" points="478.74,-224.5 478.74,-243.5 572.74,-243.5 572.74,-224.5 478.74,-224.5"/>
<text text-anchor="middle" x="525.74" y="-231.5" font-family="Helvetica,sans-Serif" font-size="10.00">src/gfx/GSort.cpp</text>
</a>
</g>
</g>
<!-- Node4&#45;&gt;Node24 -->
<g id="edge36" class="edge"><title>Node4&#45;&gt;Node24</title>
<path fill="none" stroke="midnightblue" d="M480.78,-273.537C492.013,-263.909 506.059,-251.869 515.434,-243.834"/>
<polygon fill="midnightblue" stroke="midnightblue" points="478.177,-271.159 472.862,-280.324 482.732,-276.473 478.177,-271.159"/>
</g>
<!-- Node5&#45;&gt;Node1 -->
<g id="edge11" class="edge"><title>Node5&#45;&gt;Node1</title>
<path fill="none" stroke="midnightblue" d="M323.206,-253.19C335.343,-286.748 356.393,-359.738 391.74,-412 401.595,-426.571 416.963,-439.896 425.686,-448.201"/>
<polygon fill="midnightblue" stroke="midnightblue" points="326.432,-251.829 319.571,-243.756 319.9,-254.346 326.432,-251.829"/>
</g>
<!-- Node6 -->
<g id="node6" class="node"><title>Node6</title>
<g id="a_node6"><a xlink:href="PHScene_8h.html" target="_top" xlink:title="header for the PHScene class ">
<polygon fill="white" stroke="black" points="398.74,-168.5 398.74,-187.5 502.74,-187.5 502.74,-168.5 398.74,-168.5"/>
<text text-anchor="middle" x="450.74" y="-175.5" font-family="Helvetica,sans-Serif" font-size="10.00">headers/PHScene.h</text>
</a>
</g>
</g>
<!-- Node5&#45;&gt;Node6 -->
<g id="edge6" class="edge"><title>Node5&#45;&gt;Node6</title>
<path fill="none" stroke="midnightblue" d="M339.648,-220.503C363.855,-210.38 399.591,-196.388 424.053,-187.516"/>
<polygon fill="midnightblue" stroke="midnightblue" points="338.198,-217.316 330.359,-224.444 340.932,-223.76 338.198,-217.316"/>
</g>
<!-- Node8 -->
<g id="node8" class="node"><title>Node8</title>
<g id="a_node8"><a xlink:href="TikzEditor_8h_source.html" target="_top" xlink:title="headers/TikzEditor.h">
<polygon fill="white" stroke="black" points="273.24,-168.5 273.24,-187.5 380.24,-187.5 380.24,-168.5 273.24,-168.5"/>
<text text-anchor="middle" x="326.74" y="-175.5" font-family="Helvetica,sans-Serif" font-size="10.00">headers/TikzEditor.h</text>
</a>
</g>
</g>
<!-- Node5&#45;&gt;Node8 -->
<g id="edge12" class="edge"><title>Node5&#45;&gt;Node8</title>
<path fill="none" stroke="midnightblue" d="M318.29,-214.101C320.448,-205.136 322.922,-194.858 324.633,-187.751"/>
<polygon fill="midnightblue" stroke="midnightblue" points="314.824,-213.542 315.887,-224.083 321.63,-215.18 314.824,-213.542"/>
</g>
<!-- Node23 -->
<g id="node23" class="node"><title>Node23</title>
<g id="a_node23"><a xlink:href="GAction_8cpp_source.html" target="_top" xlink:title="src/gfx/GAction.cpp">
<polygon fill="white" stroke="black" points="150.74,-168.5 150.74,-187.5 254.74,-187.5 254.74,-168.5 150.74,-168.5"/>
<text text-anchor="middle" x="202.74" y="-175.5" font-family="Helvetica,sans-Serif" font-size="10.00">src/gfx/GAction.cpp</text>
</a>
</g>
</g>
<!-- Node5&#45;&gt;Node23 -->
<g id="edge35" class="edge"><title>Node5&#45;&gt;Node23</title>
<path fill="none" stroke="midnightblue" d="M286.734,-219.862C266.152,-209.849 238.395,-196.346 220.53,-187.655"/>
<polygon fill="midnightblue" stroke="midnightblue" points="285.382,-223.097 295.906,-224.324 288.445,-216.802 285.382,-223.097"/>
</g>
<!-- Node6&#45;&gt;Node2 -->
<g id="edge7" class="edge"><title>Node6&#45;&gt;Node2</title>
<path fill="none" stroke="midnightblue" d="M441.186,-196.523C431.064,-216.173 415.73,-249.316 409.74,-280 403.267,-313.152 402.424,-323.024 409.74,-356 412.727,-369.467 420.184,-383.678 425.356,-392.443"/>
<polygon fill="midnightblue" stroke="midnightblue" points="444.345,-198.038 445.928,-187.562 438.157,-194.764 444.345,-198.038"/>
</g>
<!-- Node6&#45;&gt;Node4 -->
<g id="edge9" class="edge"><title>Node6&#45;&gt;Node4</title>
<path fill="none" stroke="midnightblue" d="M452.769,-197.597C455.394,-221.666 459.862,-262.617 461.798,-280.368"/>
<polygon fill="midnightblue" stroke="midnightblue" points="456.241,-197.153 451.677,-187.591 449.282,-197.912 456.241,-197.153"/>
</g>
<!-- Node6&#45;&gt;Node5 -->
<g id="edge8" class="edge"><title>Node6&#45;&gt;Node5</title>
<path fill="none" stroke="midnightblue" d="M424.94,-191.451C400.768,-201.563 365.033,-215.557 340.537,-224.444"/>
<polygon fill="midnightblue" stroke="midnightblue" points="426.375,-194.645 434.213,-187.516 423.641,-188.201 426.375,-194.645"/>
</g>
<!-- Node6&#45;&gt;Node7 -->
<g id="edge10" class="edge"><title>Node6&#45;&gt;Node7</title>
<path fill="none" stroke="midnightblue" d="M481.188,-164.638C506.147,-154.504 540.817,-140.427 562.764,-131.516"/>
<polygon fill="midnightblue" stroke="midnightblue" points="479.763,-161.439 471.814,-168.444 482.396,-167.924 479.763,-161.439"/>
</g>
<!-- Node9 -->
<g id="node9" class="node"><title>Node9</title>
<g id="a_node9"><a xlink:href="MainWindow_8h.html" target="_top" xlink:title="header for the Main class ">
<polygon fill="white" stroke="black" points="367.24,-112.5 367.24,-131.5 486.24,-131.5 486.24,-112.5 367.24,-112.5"/>
<text text-anchor="middle" x="426.74" y="-119.5" font-family="Helvetica,sans-Serif" font-size="10.00">headers/MainWindow.h</text>
</a>
</g>
</g>
<!-- Node8&#45;&gt;Node9 -->
<g id="edge13" class="edge"><title>Node8&#45;&gt;Node9</title>
<path fill="none" stroke="midnightblue" d="M351.828,-163.453C370.289,-153.483 394.836,-140.228 410.713,-131.655"/>
<polygon fill="midnightblue" stroke="midnightblue" points="349.943,-160.493 342.807,-168.324 353.269,-166.652 349.943,-160.493"/>
</g>
<!-- Node8&#45;&gt;Node14 -->
<g id="edge34" class="edge"><title>Node8&#45;&gt;Node14</title>
<path fill="none" stroke="midnightblue" d="M311.636,-160.863C298.079,-146.917 277.218,-126.739 256.74,-112 229.621,-92.4808 214.015,-99.9734 190.74,-76 174.519,-59.2923 164.568,-33.0228 160.253,-19.5678"/>
<polygon fill="midnightblue" stroke="midnightblue" points="309.274,-163.458 318.715,-168.266 314.333,-158.62 309.274,-163.458"/>
</g>
<!-- Node10 -->
<g id="node10" class="node"><title>Node10</title>
<g id="a_node10"><a xlink:href="Area_8h_source.html" target="_top" xlink:title="headers/Area.h">
<polygon fill="white" stroke="black" points="228.24,-56.5 228.24,-75.5 311.24,-75.5 311.24,-56.5 228.24,-56.5"/>
<text text-anchor="middle" x="269.74" y="-63.5" font-family="Helvetica,sans-Serif" font-size="10.00">headers/Area.h</text>
</a>
</g>
</g>
<!-- Node9&#45;&gt;Node10 -->
<g id="edge14" class="edge"><title>Node9&#45;&gt;Node10</title>
<path fill="none" stroke="midnightblue" d="M392.351,-109.172C362.788,-99.0039 320.867,-84.5852 294.501,-75.5164"/>
<polygon fill="midnightblue" stroke="midnightblue" points="391.268,-112.501 401.863,-112.444 393.545,-105.881 391.268,-112.501"/>
</g>
<!-- Node13 -->
<g id="node13" class="node"><title>Node13</title>
<g id="a_node13"><a xlink:href="MainWindow_8cpp_source.html" target="_top" xlink:title="src/ui/MainWindow.cpp">
<polygon fill="white" stroke="black" points="334.24,-0.5 334.24,-19.5 453.24,-19.5 453.24,-0.5 334.24,-0.5"/>
<text text-anchor="middle" x="393.74" y="-7.5" font-family="Helvetica,sans-Serif" font-size="10.00">src/ui/MainWindow.cpp</text>
</a>
</g>
</g>
<!-- Node9&#45;&gt;Node13 -->
<g id="edge32" class="edge"><title>Node9&#45;&gt;Node13</title>
<path fill="none" stroke="midnightblue" d="M496.289,-114.515C547.324,-108.149 610.456,-96.355 626.74,-76 632.293,-69.0589 632.398,-62.8555 626.74,-56 620.995,-49.0394 513.923,-30.5202 446.948,-19.5297"/>
<polygon fill="midnightblue" stroke="midnightblue" points="495.773,-111.052 486.26,-115.717 496.606,-118.002 495.773,-111.052"/>
</g>
<!-- Node9&#45;&gt;Node14 -->
<g id="edge33" class="edge"><title>Node9&#45;&gt;Node14</title>
<path fill="none" stroke="midnightblue" d="M356.699,-116.367C314.488,-111.099 260.919,-99.8762 218.74,-76 193.69,-61.82 172.839,-33.9323 163.309,-19.7414"/>
<polygon fill="midnightblue" stroke="midnightblue" points="356.559,-119.874 366.896,-117.552 357.367,-112.921 356.559,-119.874"/>
</g>
<!-- Node9&#45;&gt;Node15 -->
<g id="edge19" class="edge"><title>Node9&#45;&gt;Node15</title>
<path fill="none" stroke="midnightblue" d="M482.931,-110.573C538.788,-100.208 623.28,-84.5287 674.222,-75.0755"/>
<polygon fill="midnightblue" stroke="midnightblue" points="482.043,-107.178 472.85,-112.444 483.32,-114.06 482.043,-107.178"/>
</g>
<!-- Node16 -->
<g id="node16" class="node"><title>Node16</title>
<g id="a_node16"><a xlink:href="Main_8cpp.html" target="_top" xlink:title="Principal Program. ">
<polygon fill="white" stroke="black" points="827.24,-0.5 827.24,-19.5 900.24,-19.5 900.24,-0.5 827.24,-0.5"/>
<text text-anchor="middle" x="863.74" y="-7.5" font-family="Helvetica,sans-Serif" font-size="10.00">src/Main.cpp</text>
</a>
</g>
</g>
<!-- Node9&#45;&gt;Node16 -->
<g id="edge28" class="edge"><title>Node9&#45;&gt;Node16</title>
<path fill="none" stroke="midnightblue" d="M496.555,-113.62C589.43,-103.528 744.857,-85.5858 769.74,-76 804.362,-62.6619 838.56,-34.1269 854.48,-19.7138"/>
<polygon fill="midnightblue" stroke="midnightblue" points="495.949,-110.165 486.384,-114.72 496.703,-117.124 495.949,-110.165"/>
</g>
<!-- Node9&#45;&gt;Node20 -->
<g id="edge29" class="edge"><title>Node9&#45;&gt;Node20</title>
<path fill="none" stroke="midnightblue" d="M496.633,-113.638C572.412,-105.427 696.858,-91.2773 803.74,-76 808.256,-75.3545 812.977,-74.6346 817.667,-73.891"/>
<polygon fill="midnightblue" stroke="midnightblue" points="495.837,-110.203 486.27,-114.756 496.588,-117.163 495.837,-110.203"/>
</g>
<!-- Node21 -->
<g id="node21" class="node"><title>Node21</title>
<g id="a_node21"><a xlink:href="ConnectionSettings_8cpp_source.html" target="_top" xlink:title="src/ui/ConnectionSettings.cpp">
<polygon fill="white" stroke="black" points="329.74,-56.5 329.74,-75.5 477.74,-75.5 477.74,-56.5 329.74,-56.5"/>
<text text-anchor="middle" x="403.74" y="-63.5" font-family="Helvetica,sans-Serif" font-size="10.00">src/ui/ConnectionSettings.cpp</text>
</a>
</g>
</g>
<!-- Node9&#45;&gt;Node21 -->
<g id="edge30" class="edge"><title>Node9&#45;&gt;Node21</title>
<path fill="none" stroke="midnightblue" d="M418.941,-102.69C415.065,-93.589 410.561,-83.0141 407.467,-75.7511"/>
<polygon fill="midnightblue" stroke="midnightblue" points="415.803,-104.254 422.942,-112.083 422.243,-101.511 415.803,-104.254"/>
</g>
<!-- Node22 -->
<g id="node22" class="node"><title>Node22</title>
<g id="a_node22"><a xlink:href="FunctionForm_8cpp_source.html" target="_top" xlink:title="src/ui/FunctionForm.cpp">
<polygon fill="white" stroke="black" points="495.74,-56.5 495.74,-75.5 617.74,-75.5 617.74,-56.5 495.74,-56.5"/>
<text text-anchor="middle" x="556.74" y="-63.5" font-family="Helvetica,sans-Serif" font-size="10.00">src/ui/FunctionForm.cpp</text>
</a>
</g>
</g>
<!-- Node9&#45;&gt;Node22 -->
<g id="edge31" class="edge"><title>Node9&#45;&gt;Node22</title>
<path fill="none" stroke="midnightblue" d="M456.825,-108.503C481.197,-98.3795 514.88,-84.388 536.237,-75.5164"/>
<polygon fill="midnightblue" stroke="midnightblue" points="455.231,-105.375 447.339,-112.444 457.916,-111.84 455.231,-105.375"/>
</g>
<!-- Node11 -->
<g id="node11" class="node"><title>Node11</title>
<g id="a_node11"><a xlink:href="PHIO_8cpp_source.html" target="_top" xlink:title="src/io/PHIO.cpp">
<polygon fill="white" stroke="black" points="229.24,-0.5 229.24,-19.5 316.24,-19.5 316.24,-0.5 229.24,-0.5"/>
<text text-anchor="middle" x="272.74" y="-7.5" font-family="Helvetica,sans-Serif" font-size="10.00">src/io/PHIO.cpp</text>
</a>
</g>
</g>
<!-- Node10&#45;&gt;Node11 -->
<g id="edge15" class="edge"><title>Node10&#45;&gt;Node11</title>
<path fill="none" stroke="midnightblue" d="M270.806,-45.8045C271.3,-36.9102 271.863,-26.7798 272.254,-19.7511"/>
<polygon fill="midnightblue" stroke="midnightblue" points="267.295,-45.9042 270.235,-56.083 274.285,-46.2926 267.295,-45.9042"/>
</g>
<!-- Node12 -->
<g id="node12" class="node"><title>Node12</title>
<g id="a_node12"><a xlink:href="Area_8cpp_source.html" target="_top" xlink:title="src/ui/Area.cpp">
<polygon fill="white" stroke="black" points="471.24,-0.5 471.24,-19.5 554.24,-19.5 554.24,-0.5 471.24,-0.5"/>
<text text-anchor="middle" x="512.74" y="-7.5" font-family="Helvetica,sans-Serif" font-size="10.00">src/ui/Area.cpp</text>
</a>
</g>
</g>
<!-- Node10&#45;&gt;Node12 -->
<g id="edge16" class="edge"><title>Node10&#45;&gt;Node12</title>
<path fill="none" stroke="midnightblue" d="M318.262,-54.2172C364.179,-44.0134 432.187,-28.9006 474.416,-19.5164"/>
<polygon fill="midnightblue" stroke="midnightblue" points="317.247,-50.8575 308.244,-56.4435 318.765,-57.6908 317.247,-50.8575"/>
</g>
<!-- Node10&#45;&gt;Node13 -->
<g id="edge17" class="edge"><title>Node10&#45;&gt;Node13</title>
<path fill="none" stroke="midnightblue" d="M298.747,-52.3678C321.968,-42.2553 353.902,-28.3486 374.184,-19.5164"/>
<polygon fill="midnightblue" stroke="midnightblue" points="297.159,-49.2419 289.388,-56.4435 299.954,-55.6597 297.159,-49.2419"/>
</g>
<!-- Node10&#45;&gt;Node14 -->
<g id="edge18" class="edge"><title>Node10&#45;&gt;Node14</title>
<path fill="none" stroke="midnightblue" d="M242.491,-51.8622C221.723,-41.8492 193.716,-28.3458 175.69,-19.6545"/>
<polygon fill="midnightblue" stroke="midnightblue" points="241.217,-55.1336 251.745,-56.324 244.257,-48.8282 241.217,-55.1336"/>
</g>
<!-- Node15&#45;&gt;Node11 -->
<g id="edge20" class="edge"><title>Node15&#45;&gt;Node11</title>
<path fill="none" stroke="midnightblue" d="M663.875,-59.2198C572.042,-49.3003 388.885,-29.2157 324.74,-20 322.019,-19.6091 319.222,-19.1863 316.404,-18.7443"/>
<polygon fill="midnightblue" stroke="midnightblue" points="663.755,-62.7272 674.073,-60.3202 664.506,-55.7676 663.755,-62.7272"/>
</g>
<!-- Node15&#45;&gt;Node12 -->
<g id="edge24" class="edge"><title>Node15&#45;&gt;Node12</title>
<path fill="none" stroke="midnightblue" d="M675.332,-53.8291C636.626,-43.6333 580.247,-28.7823 545.071,-19.5164"/>
<polygon fill="midnightblue" stroke="midnightblue" points="674.695,-57.2808 685.257,-56.4435 676.478,-50.5117 674.695,-57.2808"/>
</g>
<!-- Node15&#45;&gt;Node13 -->
<g id="edge25" class="edge"><title>Node15&#45;&gt;Node13</title>
<path fill="none" stroke="midnightblue" d="M663.876,-56.0226C603.037,-45.8829 504.751,-29.5019 445.005,-19.5441"/>
<polygon fill="midnightblue" stroke="midnightblue" points="663.604,-59.5256 674.044,-57.7173 664.755,-52.6209 663.604,-59.5256"/>
</g>
<!-- Node15&#45;&gt;Node14 -->
<g id="edge27" class="edge"><title>Node15&#45;&gt;Node14</title>
<path fill="none" stroke="midnightblue" d="M664.126,-59.6043C651.844,-58.3942 638.842,-57.1336 626.74,-56 445.936,-39.0634 400.111,-41.0518 219.74,-20 217.039,-19.6848 214.274,-19.3453 211.484,-18.9893"/>
<polygon fill="midnightblue" stroke="midnightblue" points="663.942,-63.1031 674.238,-60.6051 664.632,-56.1372 663.942,-63.1031"/>
</g>
<!-- Node15&#45;&gt;Node16 -->
<g id="edge21" class="edge"><title>Node15&#45;&gt;Node16</title>
<path fill="none" stroke="midnightblue" d="M750.439,-52.9058C777.888,-42.7536 816.408,-28.5063 840.714,-19.5164"/>
<polygon fill="midnightblue" stroke="midnightblue" points="749.039,-49.6919 740.874,-56.4435 751.467,-56.2572 749.039,-49.6919"/>
</g>
<!-- Node15&#45;&gt;Node17 -->
<g id="edge22" class="edge"><title>Node15&#45;&gt;Node17</title>
<path fill="none" stroke="midnightblue" d="M765.663,-54.2172C811.014,-44.0134 878.182,-28.9006 919.889,-19.5164"/>
<polygon fill="midnightblue" stroke="midnightblue" points="764.756,-50.8337 755.769,-56.4435 766.293,-57.663 764.756,-50.8337"/>
</g>
<!-- Node18 -->
<g id="node18" class="node"><title>Node18</title>
<g id="a_node18"><a xlink:href="PHIOTest_8cpp_source.html" target="_top" xlink:title="src/test/PHIOTest.cpp">
<polygon fill="white" stroke="black" points="572.74,-0.5 572.74,-19.5 688.74,-19.5 688.74,-0.5 572.74,-0.5"/>
<text text-anchor="middle" x="630.74" y="-7.5" font-family="Helvetica,sans-Serif" font-size="10.00">src/test/PHIOTest.cpp</text>
</a>
</g>
</g>
<!-- Node15&#45;&gt;Node18 -->
<g id="edge23" class="edge"><title>Node15&#45;&gt;Node18</title>
<path fill="none" stroke="midnightblue" d="M695.024,-50.9005C679.071,-40.9986 658.242,-28.0705 644.683,-19.6545"/>
<polygon fill="midnightblue" stroke="midnightblue" points="693.42,-54.024 703.762,-56.324 697.111,-48.0765 693.42,-54.024"/>
</g>
<!-- Node19 -->
<g id="node19" class="node"><title>Node19</title>
<g id="a_node19"><a xlink:href="TextArea_8cpp_source.html" target="_top" xlink:title="src/ui/TextArea.cpp">
<polygon fill="white" stroke="black" points="706.74,-0.5 706.74,-19.5 808.74,-19.5 808.74,-0.5 706.74,-0.5"/>
<text text-anchor="middle" x="757.74" y="-7.5" font-family="Helvetica,sans-Serif" font-size="10.00">src/ui/TextArea.cpp</text>
</a>
</g>
</g>
<!-- Node15&#45;&gt;Node19 -->
<g id="edge26" class="edge"><title>Node15&#45;&gt;Node19</title>
<path fill="none" stroke="midnightblue" d="M730.44,-47.8554C737.366,-38.5048 745.646,-27.3265 751.258,-19.7511"/>
<polygon fill="midnightblue" stroke="midnightblue" points="727.485,-45.9641 724.345,-56.083 733.11,-50.1307 727.485,-45.9641"/>
</g>
<!-- Node26&#45;&gt;Node9 -->
<g id="edge42" class="edge"><title>Node26&#45;&gt;Node9</title>
<path fill="none" stroke="midnightblue" d="M143.004,-167.8C207.379,-157.636 310.2,-141.401 372.791,-131.518"/>
<polygon fill="midnightblue" stroke="midnightblue" points="142.346,-164.361 133.015,-169.378 143.438,-171.275 142.346,-164.361"/>
</g>
<!-- Node27 -->
<g id="node27" class="node"><title>Node27</title>
<g id="a_node27"><a xlink:href="TreeArea_8h_source.html" target="_top" xlink:title="headers/TreeArea.h">
<polygon fill="white" stroke="black" points="145.74,-112.5 145.74,-131.5 247.74,-131.5 247.74,-112.5 145.74,-112.5"/>
<text text-anchor="middle" x="196.74" y="-119.5" font-family="Helvetica,sans-Serif" font-size="10.00">headers/TreeArea.h</text>
</a>
</g>
</g>
<!-- Node26&#45;&gt;Node27 -->
<g id="edge39" class="edge"><title>Node26&#45;&gt;Node27</title>
<path fill="none" stroke="midnightblue" d="M111.989,-163.862C132.756,-153.849 160.763,-140.346 178.79,-131.655"/>
<polygon fill="midnightblue" stroke="midnightblue" points="110.222,-160.828 102.735,-168.324 113.262,-167.134 110.222,-160.828"/>
</g>
<!-- Node29 -->
<g id="node29" class="node"><title>Node29</title>
<g id="a_node29"><a xlink:href="MyArea_8cpp_source.html" target="_top" xlink:title="src/ui/MyArea.cpp">
<polygon fill="white" stroke="black" points="31.7399,-112.5 31.7399,-131.5 127.74,-131.5 127.74,-112.5 31.7399,-112.5"/>
<text text-anchor="middle" x="79.7399" y="-119.5" font-family="Helvetica,sans-Serif" font-size="10.00">src/ui/MyArea.cpp</text>
</a>
</g>
</g>
<!-- Node26&#45;&gt;Node29 -->
<g id="edge43" class="edge"><title>Node26&#45;&gt;Node29</title>
<path fill="none" stroke="midnightblue" d="M82.9899,-158.101C82.1598,-149.136 81.2082,-138.858 80.5501,-131.751"/>
<polygon fill="midnightblue" stroke="midnightblue" points="79.507,-158.448 83.9142,-168.083 86.4772,-157.803 79.507,-158.448"/>
</g>
<!-- Node27&#45;&gt;Node10 -->
<g id="edge40" class="edge"><title>Node27&#45;&gt;Node10</title>
<path fill="none" stroke="midnightblue" d="M216.881,-106.101C230.019,-96.3824 246.722,-84.0269 257.798,-75.8339"/>
<polygon fill="midnightblue" stroke="midnightblue" points="214.427,-103.563 208.469,-112.324 218.59,-109.191 214.427,-103.563"/>
</g>
<!-- Node28 -->
<g id="node28" class="node"><title>Node28</title>
<g id="a_node28"><a xlink:href="TreeArea_8cpp_source.html" target="_top" xlink:title="src/ui/TreeArea.cpp">
<polygon fill="white" stroke="black" points="31.7399,-56.5 31.7399,-75.5 133.74,-75.5 133.74,-56.5 31.7399,-56.5"/>
<text text-anchor="middle" x="82.7399" y="-63.5" font-family="Helvetica,sans-Serif" font-size="10.00">src/ui/TreeArea.cpp</text>
</a>
</g>
</g>
<!-- Node27&#45;&gt;Node28 -->
<g id="edge41" class="edge"><title>Node27&#45;&gt;Node28</title>
<path fill="none" stroke="midnightblue" d="M169.498,-108.096C148.2,-98.0073 119.198,-84.2697 100.719,-75.5164"/>
<polygon fill="midnightblue" stroke="midnightblue" points="168.141,-111.326 178.676,-112.444 171.137,-105 168.141,-111.326"/>
</g>
</g>
</svg>
