<?xml version="1.0" encoding="UTF-8" standalone="no"?>
<!DOCTYPE svg PUBLIC "-//W3C//DTD SVG 1.1//EN"
 "http://www.w3.org/Graphics/SVG/1.1/DTD/svg11.dtd">
<!-- Generated by graphviz version 2.38.0 (20140413.2041)
 -->
<!-- Title: GAction Pages: 1 -->
<svg width="666pt" height="184pt"
 viewBox="0.00 0.00 666.00 183.50" xmlns="http://www.w3.org/2000/svg" xmlns:xlink="http://www.w3.org/1999/xlink">
<g id="graph0" class="graph" transform="scale(1 1) rotate(0) translate(4 179.5)">
<title>GAction</title>
<polygon fill="white" stroke="none" points="-4,4 -4,-179.5 662,-179.5 662,4 -4,4"/>
<!-- Node1 -->
<g id="node1" class="node"><title>Node1</title>
<polygon fill="#bfbfbf" stroke="black" points="606,-81.5 606,-100.5 658,-100.5 658,-81.5 606,-81.5"/>
<text text-anchor="middle" x="632" y="-88.5" font-family="Helvetica,sans-Serif" font-size="10.00">GAction</text>
</g>
<!-- Node2 -->
<g id="node2" class="node"><title>Node2</title>
<polygon fill="white" stroke="#bfbfbf" points="375.5,-145 375.5,-175 506.5,-175 506.5,-145 375.5,-145"/>
<text text-anchor="start" x="383.5" y="-163" font-family="Helvetica,sans-Serif" font-size="10.00">pair&lt; QGraphicsPathItem</text>
<text text-anchor="middle" x="441" y="-152" font-family="Helvetica,sans-Serif" font-size="10.00"> *, QGraphicsPathItem * &gt;</text>
</g>
<!-- Node2&#45;&gt;Node1 -->
<g id="edge1" class="edge"><title>Node2&#45;&gt;Node1</title>
<path fill="none" stroke="#9a32cd" stroke-dasharray="5,2" d="M513.327,-142.121C537.473,-135.124 564.31,-126.287 588,-116 597.822,-111.735 608.217,-105.736 616.326,-100.684"/>
<polygon fill="#9a32cd" stroke="#9a32cd" points="512.179,-138.809 503.516,-144.908 514.092,-145.543 512.179,-138.809"/>
<text text-anchor="middle" x="560" y="-139" font-family="Helvetica,sans-Serif" font-size="10.00"> arrowTails</text>
</g>
<!-- Node3 -->
<g id="node3" class="node"><title>Node3</title>
<polygon fill="white" stroke="#bfbfbf" points="368,-96 368,-126 514,-126 514,-96 368,-96"/>
<text text-anchor="start" x="376" y="-114" font-family="Helvetica,sans-Serif" font-size="10.00">pair&lt; QGraphicsPolygonItem</text>
<text text-anchor="middle" x="441" y="-103" font-family="Helvetica,sans-Serif" font-size="10.00"> *, QGraphicsPolygonItem * &gt;</text>
</g>
<!-- Node3&#45;&gt;Node1 -->
<g id="edge2" class="edge"><title>Node3&#45;&gt;Node1</title>
<path fill="none" stroke="#9a32cd" stroke-dasharray="5,2" d="M524.587,-102.261C554.016,-99.1464 585.012,-95.8665 605.911,-93.655"/>
<polygon fill="#9a32cd" stroke="#9a32cd" points="523.838,-98.8203 514.262,-103.353 524.575,-105.781 523.838,-98.8203"/>
<text text-anchor="middle" x="560" y="-104" font-family="Helvetica,sans-Serif" font-size="10.00"> arrowHeads</text>
</g>
<!-- Node4 -->
<g id="node4" class="node"><title>Node4</title>
<g id="a_node4"><a xlink:href="classPHScene.html" target="_top" xlink:title="the graphic object representing the process hitting extends QGraphicsScene ">
<polygon fill="white" stroke="black" points="411.5,-57.5 411.5,-76.5 470.5,-76.5 470.5,-57.5 411.5,-57.5"/>
<text text-anchor="middle" x="441" y="-64.5" font-family="Helvetica,sans-Serif" font-size="10.00">PHScene</text>
</a>
</g>
</g>
<!-- Node4&#45;&gt;Node1 -->
<g id="edge3" class="edge"><title>Node4&#45;&gt;Node1</title>
<path fill="none" stroke="#9a32cd" stroke-dasharray="5,2" d="M480.98,-69.324C510.494,-71.4252 551.966,-75.1091 588,-81 593.749,-81.9398 599.874,-83.2029 605.645,-84.5146"/>
<polygon fill="#9a32cd" stroke="#9a32cd" points="480.895,-65.8102 470.68,-68.6204 480.418,-72.7939 480.895,-65.8102"/>
<text text-anchor="middle" x="560" y="-84" font-family="Helvetica,sans-Serif" font-size="10.00"> scene</text>
</g>
<!-- Node5 -->
<g id="node5" class="node"><title>Node5</title>
<polygon fill="white" stroke="#bfbfbf" points="200.5,-95.5 200.5,-114.5 291.5,-114.5 291.5,-95.5 200.5,-95.5"/>
<text text-anchor="middle" x="246" y="-102.5" font-family="Helvetica,sans-Serif" font-size="10.00">QGraphicsScene</text>
</g>
<!-- Node5&#45;&gt;Node4 -->
<g id="edge4" class="edge"><title>Node5&#45;&gt;Node4</title>
<path fill="none" stroke="midnightblue" d="M302.019,-94.1672C337.656,-87.1507 382.614,-78.2989 411.34,-72.6428"/>
<polygon fill="midnightblue" stroke="midnightblue" points="300.899,-90.8206 291.763,-96.1865 302.251,-97.6887 300.899,-90.8206"/>
</g>
<!-- Node6 -->
<g id="node6" class="node"><title>Node6</title>
<polygon fill="white" stroke="#bfbfbf" points="185,-57.5 185,-76.5 307,-76.5 307,-57.5 185,-57.5"/>
<text text-anchor="middle" x="246" y="-64.5" font-family="Helvetica,sans-Serif" font-size="10.00">map&lt; string, GSortPtr &gt;</text>
</g>
<!-- Node6&#45;&gt;Node4 -->
<g id="edge5" class="edge"><title>Node6&#45;&gt;Node4</title>
<path fill="none" stroke="#9a32cd" stroke-dasharray="5,2" d="M317.379,-67C349.846,-67 386.578,-67 411.305,-67"/>
<polygon fill="#9a32cd" stroke="#9a32cd" points="317.008,-63.5001 307.008,-67 317.008,-70.5001 317.008,-63.5001"/>
<text text-anchor="middle" x="337.5" y="-70" font-family="Helvetica,sans-Serif" font-size="10.00"> sorts</text>
</g>
<!-- Node7 -->
<g id="node7" class="node"><title>Node7</title>
<g id="a_node7"><a xlink:href="classPH.html" target="_top" xlink:title="represents an entire process hitting as defined in a PH file ">
<polygon fill="white" stroke="black" points="230.5,-19.5 230.5,-38.5 261.5,-38.5 261.5,-19.5 230.5,-19.5"/>
<text text-anchor="middle" x="246" y="-26.5" font-family="Helvetica,sans-Serif" font-size="10.00">PH</text>
</a>
</g>
</g>
<!-- Node7&#45;&gt;Node4 -->
<g id="edge6" class="edge"><title>Node7&#45;&gt;Node4</title>
<path fill="none" stroke="#9a32cd" stroke-dasharray="5,2" d="M271.536,-33.831C307.207,-40.8542 373.253,-53.8581 411.187,-61.3271"/>
<polygon fill="#9a32cd" stroke="#9a32cd" points="271.994,-30.354 261.506,-31.8562 270.642,-37.2221 271.994,-30.354"/>
<text text-anchor="middle" x="337.5" y="-53" font-family="Helvetica,sans-Serif" font-size="10.00"> ph</text>
</g>
<!-- Node8 -->
<g id="node8" class="node"><title>Node8</title>
<polygon fill="white" stroke="#bfbfbf" points="13,-38.5 13,-57.5 101,-57.5 101,-38.5 13,-38.5"/>
<text text-anchor="middle" x="57" y="-45.5" font-family="Helvetica,sans-Serif" font-size="10.00">list&lt; ActionPtr &gt;</text>
</g>
<!-- Node8&#45;&gt;Node7 -->
<g id="edge7" class="edge"><title>Node8&#45;&gt;Node7</title>
<path fill="none" stroke="#9a32cd" stroke-dasharray="5,2" d="M111.399,-42.5744C151.99,-38.4502 205.023,-33.0619 230.326,-30.4909"/>
<polygon fill="#9a32cd" stroke="#9a32cd" points="110.967,-39.1003 101.372,-43.5933 111.674,-46.0644 110.967,-39.1003"/>
<text text-anchor="middle" x="149.5" y="-44" font-family="Helvetica,sans-Serif" font-size="10.00"> actions</text>
</g>
<!-- Node9 -->
<g id="node9" class="node"><title>Node9</title>
<polygon fill="white" stroke="#bfbfbf" points="0,-0.5 0,-19.5 114,-19.5 114,-0.5 0,-0.5"/>
<text text-anchor="middle" x="57" y="-7.5" font-family="Helvetica,sans-Serif" font-size="10.00">map&lt; string, SortPtr &gt;</text>
</g>
<!-- Node9&#45;&gt;Node7 -->
<g id="edge8" class="edge"><title>Node9&#45;&gt;Node7</title>
<path fill="none" stroke="#9a32cd" stroke-dasharray="5,2" d="M124.21,-16.7273C162.579,-20.6257 207.667,-25.2068 230.368,-27.5133"/>
<polygon fill="#9a32cd" stroke="#9a32cd" points="124.409,-13.2295 114.106,-15.7006 123.701,-20.1936 124.409,-13.2295"/>
<text text-anchor="middle" x="149.5" y="-24" font-family="Helvetica,sans-Serif" font-size="10.00"> sorts</text>
</g>
<!-- Node10 -->
<g id="node10" class="node"><title>Node10</title>
<polygon fill="white" stroke="#bfbfbf" points="376,-19.5 376,-38.5 506,-38.5 506,-19.5 376,-19.5"/>
<text text-anchor="middle" x="441" y="-26.5" font-family="Helvetica,sans-Serif" font-size="10.00">pair&lt; GVEdge, GVEdge &gt;</text>
</g>
<!-- Node10&#45;&gt;Node1 -->
<g id="edge9" class="edge"><title>Node10&#45;&gt;Node1</title>
<path fill="none" stroke="#9a32cd" stroke-dasharray="5,2" d="M516.032,-37.7547C539.71,-42.235 565.581,-48.9554 588,-59 600.399,-64.555 612.641,-74.182 620.873,-81.4296"/>
<polygon fill="#9a32cd" stroke="#9a32cd" points="516.495,-34.282 506.035,-35.9685 515.263,-41.1728 516.495,-34.282"/>
<text text-anchor="middle" x="560" y="-62" font-family="Helvetica,sans-Serif" font-size="10.00"> edges</text>
</g>
</g>
</svg>
