<?xml version="1.0" encoding="UTF-8" standalone="no"?>
<!DOCTYPE svg PUBLIC "-//W3C//DTD SVG 1.1//EN"
 "http://www.w3.org/Graphics/SVG/1.1/DTD/svg11.dtd">
<!-- Generated by graphviz version 2.38.0 (20140413.2041)
 -->
<!-- Title: Area Pages: 1 -->
<svg width="644pt" height="356pt"
 viewBox="0.00 0.00 644.00 356.17" xmlns="http://www.w3.org/2000/svg" xmlns:xlink="http://www.w3.org/1999/xlink">
<g id="graph0" class="graph" transform="scale(1 1) rotate(0) translate(4 352.174)">
<title>Area</title>
<polygon fill="white" stroke="none" points="-4,4 -4,-352.174 640,-352.174 640,4 -4,4"/>
<!-- Node1 -->
<g id="node1" class="node"><title>Node1</title>
<polygon fill="#bfbfbf" stroke="black" points="599,-215.5 599,-234.5 636,-234.5 636,-215.5 599,-215.5"/>
<text text-anchor="middle" x="617.5" y="-222.5" font-family="Helvetica,sans-Serif" font-size="10.00">Area</text>
</g>
<!-- Node2 -->
<g id="node2" class="node"><title>Node2</title>
<polygon fill="white" stroke="#bfbfbf" points="145.5,-307.5 145.5,-326.5 200.5,-326.5 200.5,-307.5 145.5,-307.5"/>
<text text-anchor="middle" x="173" y="-314.5" font-family="Helvetica,sans-Serif" font-size="10.00">QWidget</text>
</g>
<!-- Node2&#45;&gt;Node1 -->
<g id="edge1" class="edge"><title>Node2&#45;&gt;Node1</title>
<path fill="none" stroke="midnightblue" d="M210.833,-326.878C287.357,-345.095 465.976,-375.376 581,-297 602.537,-282.325 611.552,-250.671 614.847,-234.674"/>
<polygon fill="midnightblue" stroke="midnightblue" points="211.276,-323.383 200.73,-324.4 209.609,-330.182 211.276,-323.383"/>
</g>
<!-- Node9 -->
<g id="node9" class="node"><title>Node9</title>
<g id="a_node9"><a xlink:href="classTreeArea.html" target="_top" xlink:title="Tree Wigets extends QWidget. ">
<polygon fill="white" stroke="black" points="404.5,-275.5 404.5,-294.5 460.5,-294.5 460.5,-275.5 404.5,-275.5"/>
<text text-anchor="middle" x="432.5" y="-282.5" font-family="Helvetica,sans-Serif" font-size="10.00">TreeArea</text>
</a>
</g>
</g>
<!-- Node2&#45;&gt;Node9 -->
<g id="edge9" class="edge"><title>Node2&#45;&gt;Node9</title>
<path fill="none" stroke="midnightblue" d="M210.766,-312.431C263.082,-305.93 357.802,-294.159 404.284,-288.382"/>
<polygon fill="midnightblue" stroke="midnightblue" points="210.079,-308.989 200.587,-313.696 210.942,-315.936 210.079,-308.989"/>
</g>
<!-- Node3 -->
<g id="node3" class="node"><title>Node3</title>
<g id="a_node3"><a xlink:href="classMyArea.html" target="_top" xlink:title="Graph Widget extends QGraphicsView. ">
<polygon fill="white" stroke="black" points="148,-252.5 148,-271.5 198,-271.5 198,-252.5 148,-252.5"/>
<text text-anchor="middle" x="173" y="-259.5" font-family="Helvetica,sans-Serif" font-size="10.00">MyArea</text>
</a>
</g>
</g>
<!-- Node3&#45;&gt;Node1 -->
<g id="edge2" class="edge"><title>Node3&#45;&gt;Node1</title>
<path fill="none" stroke="#9a32cd" stroke-dasharray="5,2" d="M208.487,-260.868C278.816,-258.248 443.754,-250.52 581,-232 586.852,-231.21 593.193,-230.057 598.874,-228.913"/>
<polygon fill="#9a32cd" stroke="#9a32cd" points="208.287,-257.372 198.42,-261.231 208.54,-264.368 208.287,-257.372"/>
<text text-anchor="middle" x="432.5" y="-253" font-family="Helvetica,sans-Serif" font-size="10.00"> myArea</text>
</g>
<!-- Node3&#45;&gt;Node9 -->
<g id="edge10" class="edge"><title>Node3&#45;&gt;Node9</title>
<path fill="none" stroke="#9a32cd" stroke-dasharray="5,2" d="M208.254,-265.06C260.06,-269.687 357.288,-278.371 404.459,-282.585"/>
<polygon fill="#9a32cd" stroke="#9a32cd" points="208.497,-261.567 198.225,-264.164 207.874,-268.54 208.497,-261.567"/>
<text text-anchor="middle" x="304" y="-281" font-family="Helvetica,sans-Serif" font-size="10.00"> myArea</text>
</g>
<!-- Node4 -->
<g id="node4" class="node"><title>Node4</title>
<polygon fill="white" stroke="#bfbfbf" points="0,-252.5 0,-271.5 85,-271.5 85,-252.5 0,-252.5"/>
<text text-anchor="middle" x="42.5" y="-259.5" font-family="Helvetica,sans-Serif" font-size="10.00">QGraphicsView</text>
</g>
<!-- Node4&#45;&gt;Node3 -->
<g id="edge3" class="edge"><title>Node4&#45;&gt;Node3</title>
<path fill="none" stroke="midnightblue" d="M95.3817,-262C113.476,-262 132.931,-262 147.709,-262"/>
<polygon fill="midnightblue" stroke="midnightblue" points="95.2203,-258.5 85.2203,-262 95.2202,-265.5 95.2203,-258.5"/>
</g>
<!-- Node5 -->
<g id="node5" class="node"><title>Node5</title>
<g id="a_node5"><a xlink:href="classTextArea.html" target="_top" xlink:title="Text Widget extends QTextEdit. ">
<polygon fill="white" stroke="black" points="404.5,-190.5 404.5,-209.5 460.5,-209.5 460.5,-190.5 404.5,-190.5"/>
<text text-anchor="middle" x="432.5" y="-197.5" font-family="Helvetica,sans-Serif" font-size="10.00">TextArea</text>
</a>
</g>
</g>
<!-- Node5&#45;&gt;Node1 -->
<g id="edge4" class="edge"><title>Node5&#45;&gt;Node1</title>
<path fill="none" stroke="#9a32cd" stroke-dasharray="5,2" d="M470.621,-199.141C500.758,-199.245 544.147,-201.226 581,-210 586.988,-211.426 593.257,-213.764 598.832,-216.175"/>
<polygon fill="#9a32cd" stroke="#9a32cd" points="470.534,-195.641 460.546,-199.174 470.558,-202.641 470.534,-195.641"/>
<text text-anchor="middle" x="540" y="-224" font-family="Helvetica,sans-Serif" font-size="10.00"> indicatorEdit</text>
<text text-anchor="middle" x="540" y="-213" font-family="Helvetica,sans-Serif" font-size="10.00">textArea</text>
</g>
<!-- Node6 -->
<g id="node6" class="node"><title>Node6</title>
<polygon fill="white" stroke="#bfbfbf" points="142.5,-190.5 142.5,-209.5 203.5,-209.5 203.5,-190.5 142.5,-190.5"/>
<text text-anchor="middle" x="173" y="-197.5" font-family="Helvetica,sans-Serif" font-size="10.00">QTextEdit</text>
</g>
<!-- Node6&#45;&gt;Node5 -->
<g id="edge5" class="edge"><title>Node6&#45;&gt;Node5</title>
<path fill="none" stroke="midnightblue" d="M213.552,-200C266.37,-200 358.572,-200 404.251,-200"/>
<polygon fill="midnightblue" stroke="midnightblue" points="213.539,-196.5 203.539,-200 213.538,-203.5 213.539,-196.5"/>
</g>
<!-- Node7 -->
<g id="node7" class="node"><title>Node7</title>
<g id="a_node7"><a xlink:href="classColorerSequences.html" target="_top" xlink:title="ColorerSequences">
<polygon fill="white" stroke="black" points="384,-152.5 384,-171.5 481,-171.5 481,-152.5 384,-152.5"/>
<text text-anchor="middle" x="432.5" y="-159.5" font-family="Helvetica,sans-Serif" font-size="10.00">ColorerSequences</text>
</a>
</g>
</g>
<!-- Node7&#45;&gt;Node1 -->
<g id="edge6" class="edge"><title>Node7&#45;&gt;Node1</title>
<path fill="none" stroke="#9a32cd" stroke-dasharray="5,2" d="M491.253,-161.368C519.782,-163.284 553.821,-169.06 581,-184 594.367,-191.348 605.032,-205.814 611.062,-215.448"/>
<polygon fill="#9a32cd" stroke="#9a32cd" points="491.186,-157.86 481.015,-160.827 490.817,-164.85 491.186,-157.86"/>
<text text-anchor="middle" x="540" y="-187" font-family="Helvetica,sans-Serif" font-size="10.00"> colorerSequences</text>
</g>
<!-- Node8 -->
<g id="node8" class="node"><title>Node8</title>
<polygon fill="white" stroke="#bfbfbf" points="122.5,-152.5 122.5,-171.5 223.5,-171.5 223.5,-152.5 122.5,-152.5"/>
<text text-anchor="middle" x="173" y="-159.5" font-family="Helvetica,sans-Serif" font-size="10.00">QSyntaxHighlighter</text>
</g>
<!-- Node8&#45;&gt;Node7 -->
<g id="edge7" class="edge"><title>Node8&#45;&gt;Node7</title>
<path fill="none" stroke="midnightblue" d="M233.703,-162C279.33,-162 341.385,-162 383.745,-162"/>
<polygon fill="midnightblue" stroke="midnightblue" points="233.649,-158.5 223.649,-162 233.649,-165.5 233.649,-158.5"/>
</g>
<!-- Node9&#45;&gt;Node1 -->
<g id="edge8" class="edge"><title>Node9&#45;&gt;Node1</title>
<path fill="none" stroke="#9a32cd" stroke-dasharray="5,2" d="M470.968,-284.802C502.006,-283.238 546.462,-277.679 581,-260 592.71,-254.006 603.03,-242.791 609.482,-234.668"/>
<polygon fill="#9a32cd" stroke="#9a32cd" points="470.445,-281.32 460.587,-285.202 470.714,-288.315 470.445,-281.32"/>
<text text-anchor="middle" x="540" y="-285" font-family="Helvetica,sans-Serif" font-size="10.00"> treeArea</text>
</g>
<!-- Node10 -->
<g id="node10" class="node"><title>Node10</title>
<g id="a_node10"><a xlink:href="classMainWindow.html" target="_top" xlink:title="Builds the main window of the program extends QMainWindow. ">
<polygon fill="white" stroke="black" points="396,-76.5 396,-95.5 469,-95.5 469,-76.5 396,-76.5"/>
<text text-anchor="middle" x="432.5" y="-83.5" font-family="Helvetica,sans-Serif" font-size="10.00">MainWindow</text>
</a>
</g>
</g>
<!-- Node10&#45;&gt;Node1 -->
<g id="edge11" class="edge"><title>Node10&#45;&gt;Node1</title>
<path fill="none" stroke="#9a32cd" stroke-dasharray="5,2" d="M479.197,-95.4817C511.141,-104.163 552.939,-119.904 581,-147 601.014,-166.326 610.731,-199.038 614.515,-215.267"/>
<polygon fill="#9a32cd" stroke="#9a32cd" points="479.759,-92.0122 469.201,-92.9058 478.012,-98.7907 479.759,-92.0122"/>
<text text-anchor="middle" x="540" y="-150" font-family="Helvetica,sans-Serif" font-size="10.00"> mainWindow</text>
</g>
<!-- Node10&#45;&gt;Node10 -->
<g id="edge19" class="edge"><title>Node10&#45;&gt;Node10</title>
<path fill="none" stroke="#9a32cd" stroke-dasharray="5,2" d="M412.871,-105.4C414.182,-110.315 420.725,-114 432.5,-114 451.34,-114 456.786,-104.565 448.838,-95.7571"/>
<polygon fill="#9a32cd" stroke="#9a32cd" points="416.245,-106.352 416.162,-95.7571 409.62,-104.091 416.245,-106.352"/>
<text text-anchor="middle" x="432.5" y="-117" font-family="Helvetica,sans-Serif" font-size="10.00"> mwThis</text>
</g>
<!-- Node11 -->
<g id="node11" class="node"><title>Node11</title>
<polygon fill="white" stroke="#bfbfbf" points="133,-114.5 133,-133.5 213,-133.5 213,-114.5 133,-114.5"/>
<text text-anchor="middle" x="173" y="-121.5" font-family="Helvetica,sans-Serif" font-size="10.00">QMainWindow</text>
</g>
<!-- Node11&#45;&gt;Node10 -->
<g id="edge12" class="edge"><title>Node11&#45;&gt;Node10</title>
<path fill="none" stroke="midnightblue" d="M223.17,-119.558C262.084,-115.694 317.724,-109.395 366,-101 375.769,-99.3011 386.272,-97.0768 395.945,-94.8631"/>
<polygon fill="midnightblue" stroke="midnightblue" points="222.769,-116.08 213.156,-120.535 223.449,-123.047 222.769,-116.08"/>
</g>
<!-- Node12 -->
<g id="node12" class="node"><title>Node12</title>
<g id="a_node12"><a xlink:href="classTikzEditor.html" target="_top" xlink:title="TikzEditor">
<polygon fill="white" stroke="black" points="142.5,-76.5 142.5,-95.5 203.5,-95.5 203.5,-76.5 142.5,-76.5"/>
<text text-anchor="middle" x="173" y="-83.5" font-family="Helvetica,sans-Serif" font-size="10.00">TikzEditor</text>
</a>
</g>
</g>
<!-- Node12&#45;&gt;Node10 -->
<g id="edge13" class="edge"><title>Node12&#45;&gt;Node10</title>
<path fill="none" stroke="#9a32cd" stroke-dasharray="5,2" d="M213.593,-86C263.312,-86 347.88,-86 395.73,-86"/>
<polygon fill="#9a32cd" stroke="#9a32cd" points="213.539,-82.5001 203.539,-86 213.538,-89.5001 213.539,-82.5001"/>
<text text-anchor="middle" x="304" y="-89" font-family="Helvetica,sans-Serif" font-size="10.00"> TikzEditorWindow</text>
</g>
<!-- Node13 -->
<g id="node13" class="node"><title>Node13</title>
<polygon fill="white" stroke="#bfbfbf" points="16.5,-38.5 16.5,-57.5 68.5,-57.5 68.5,-38.5 16.5,-38.5"/>
<text text-anchor="middle" x="42.5" y="-45.5" font-family="Helvetica,sans-Serif" font-size="10.00">QDialog</text>
</g>
<!-- Node13&#45;&gt;Node12 -->
<g id="edge14" class="edge"><title>Node13&#45;&gt;Node12</title>
<path fill="none" stroke="midnightblue" d="M78.2888,-58.2877C98.3724,-64.2269 123.358,-71.6156 142.478,-77.2697"/>
<polygon fill="midnightblue" stroke="midnightblue" points="79.1632,-54.8965 68.5811,-55.417 77.1781,-61.6092 79.1632,-54.8965"/>
</g>
<!-- Node14 -->
<g id="node14" class="node"><title>Node14</title>
<g id="a_node14"><a xlink:href="classConnectionSettings.html" target="_top" xlink:title="ConnectionSettings">
<polygon fill="white" stroke="black" points="122,-38.5 122,-57.5 224,-57.5 224,-38.5 122,-38.5"/>
<text text-anchor="middle" x="173" y="-45.5" font-family="Helvetica,sans-Serif" font-size="10.00">ConnectionSettings</text>
</a>
</g>
</g>
<!-- Node13&#45;&gt;Node14 -->
<g id="edge16" class="edge"><title>Node13&#45;&gt;Node14</title>
<path fill="none" stroke="midnightblue" d="M78.766,-48C92.1034,-48 107.549,-48 121.985,-48"/>
<polygon fill="midnightblue" stroke="midnightblue" points="78.5812,-44.5001 68.5811,-48 78.5811,-51.5001 78.5812,-44.5001"/>
</g>
<!-- Node15 -->
<g id="node15" class="node"><title>Node15</title>
<g id="a_node15"><a xlink:href="classFunctionForm.html" target="_top" xlink:title="FunctionForm">
<polygon fill="white" stroke="black" points="134.5,-0.5 134.5,-19.5 211.5,-19.5 211.5,-0.5 134.5,-0.5"/>
<text text-anchor="middle" x="173" y="-7.5" font-family="Helvetica,sans-Serif" font-size="10.00">FunctionForm</text>
</a>
</g>
</g>
<!-- Node13&#45;&gt;Node15 -->
<g id="edge18" class="edge"><title>Node13&#45;&gt;Node15</title>
<path fill="none" stroke="midnightblue" d="M78.3951,-37.6808C97.4882,-32.0346 120.987,-25.0856 139.663,-19.5626"/>
<polygon fill="midnightblue" stroke="midnightblue" points="77.1781,-34.3908 68.5811,-40.583 79.1632,-41.1035 77.1781,-34.3908"/>
</g>
<!-- Node14&#45;&gt;Node10 -->
<g id="edge15" class="edge"><title>Node14&#45;&gt;Node10</title>
<path fill="none" stroke="#9a32cd" stroke-dasharray="5,2" d="M234.701,-53.61C272.596,-57.5228 322.314,-63.4031 366,-71 375.769,-72.6989 386.272,-74.9232 395.945,-77.1369"/>
<polygon fill="#9a32cd" stroke="#9a32cd" points="234.643,-50.0862 224.341,-52.5588 233.936,-57.0505 234.643,-50.0862"/>
<text text-anchor="middle" x="304" y="-74" font-family="Helvetica,sans-Serif" font-size="10.00"> ConnectionSettingsWindow</text>
</g>
<!-- Node15&#45;&gt;Node10 -->
<g id="edge17" class="edge"><title>Node15&#45;&gt;Node10</title>
<path fill="none" stroke="#9a32cd" stroke-dasharray="5,2" d="M221.81,-11.0261C261.685,-13.3176 319.317,-20.0198 366,-39 387.782,-47.856 409.184,-65.3297 421.323,-76.2964"/>
<polygon fill="#9a32cd" stroke="#9a32cd" points="221.982,-7.53047 211.819,-10.5228 221.63,-14.5216 221.982,-7.53047"/>
<text text-anchor="middle" x="304" y="-42" font-family="Helvetica,sans-Serif" font-size="10.00"> FunctionFormWindow</text>
</g>
</g>
</svg>
