<?xml version="1.0" encoding="UTF-8" standalone="no"?>
<!DOCTYPE svg PUBLIC "-//W3C//DTD SVG 1.1//EN"
 "http://www.w3.org/Graphics/SVG/1.1/DTD/svg11.dtd">
<!-- Generated by graphviz version 2.38.0 (20140413.2041)
 -->
<!-- Title: MainWindow Pages: 1 -->
<svg width="450pt" height="152pt"
 viewBox="0.00 0.00 450.00 152.00" xmlns="http://www.w3.org/2000/svg" xmlns:xlink="http://www.w3.org/1999/xlink">
<g id="graph0" class="graph" transform="scale(1 1) rotate(0) translate(4 148)">
<title>MainWindow</title>
<polygon fill="white" stroke="none" points="-4,4 -4,-148 446,-148 446,4 -4,4"/>
<!-- Node1 -->
<g id="node1" class="node"><title>Node1</title>
<polygon fill="#bfbfbf" stroke="black" points="129.5,-0.5 129.5,-19.5 202.5,-19.5 202.5,-0.5 129.5,-0.5"/>
<text text-anchor="middle" x="166" y="-7.5" font-family="Helvetica,sans-Serif" font-size="10.00">MainWindow</text>
</g>
<!-- Node1&#45;&gt;Node1 -->
<g id="edge8" class="edge"><title>Node1&#45;&gt;Node1</title>
<path fill="none" stroke="#9a32cd" stroke-dasharray="5,2" d="M212.757,-14.9222C217.485,-13.9454 220.5,-12.3047 220.5,-10 220.5,-6.3125 212.78,-4.32471 202.679,-4.03662"/>
<polygon fill="#9a32cd" stroke="#9a32cd" points="212.266,-11.4542 202.679,-15.9634 212.986,-18.4171 212.266,-11.4542"/>
<text text-anchor="middle" x="239.5" y="-7.5" font-family="Helvetica,sans-Serif" font-size="10.00"> mwThis</text>
</g>
<!-- Node2 -->
<g id="node2" class="node"><title>Node2</title>
<polygon fill="white" stroke="#bfbfbf" points="0,-67.5 0,-86.5 80,-86.5 80,-67.5 0,-67.5"/>
<text text-anchor="middle" x="40" y="-74.5" font-family="Helvetica,sans-Serif" font-size="10.00">QMainWindow</text>
</g>
<!-- Node2&#45;&gt;Node1 -->
<g id="edge1" class="edge"><title>Node2&#45;&gt;Node1</title>
<path fill="none" stroke="midnightblue" d="M63.4565,-62.3288C76.4557,-54.8955 92.9814,-45.6788 108,-38 120.757,-31.4773 135.385,-24.6724 146.759,-19.5259"/>
<polygon fill="midnightblue" stroke="midnightblue" points="61.6059,-59.3555 54.6864,-67.3786 65.0989,-65.4218 61.6059,-59.3555"/>
</g>
<!-- Node3 -->
<g id="node3" class="node"><title>Node3</title>
<g id="a_node3"><a xlink:href="classTikzEditor.html" target="_top" xlink:title="TikzEditor">
<polygon fill="white" stroke="black" points="98.5,-67.5 98.5,-86.5 159.5,-86.5 159.5,-67.5 98.5,-67.5"/>
<text text-anchor="middle" x="129" y="-74.5" font-family="Helvetica,sans-Serif" font-size="10.00">TikzEditor</text>
</a>
</g>
</g>
<!-- Node3&#45;&gt;Node1 -->
<g id="edge2" class="edge"><title>Node3&#45;&gt;Node1</title>
<path fill="none" stroke="#9a32cd" stroke-dasharray="5,2" d="M115.692,-59.0051C112.043,-52.2245 110.05,-44.5011 114,-38 119.123,-29.5673 127.83,-23.6486 136.668,-19.5494"/>
<polygon fill="#9a32cd" stroke="#9a32cd" points="112.853,-61.0576 121.292,-67.4636 118.69,-57.1933 112.853,-61.0576"/>
<text text-anchor="middle" x="155.5" y="-41" font-family="Helvetica,sans-Serif" font-size="10.00"> TikzEditorWindow</text>
</g>
<!-- Node4 -->
<g id="node4" class="node"><title>Node4</title>
<polygon fill="white" stroke="#bfbfbf" points="203,-124.5 203,-143.5 255,-143.5 255,-124.5 203,-124.5"/>
<text text-anchor="middle" x="229" y="-131.5" font-family="Helvetica,sans-Serif" font-size="10.00">QDialog</text>
</g>
<!-- Node4&#45;&gt;Node3 -->
<g id="edge3" class="edge"><title>Node4&#45;&gt;Node3</title>
<path fill="none" stroke="midnightblue" d="M204.519,-119.535C185.794,-109.236 160.545,-95.3496 144.515,-86.5334"/>
<polygon fill="midnightblue" stroke="midnightblue" points="202.926,-122.654 213.375,-124.406 206.3,-116.52 202.926,-122.654"/>
</g>
<!-- Node5 -->
<g id="node5" class="node"><title>Node5</title>
<g id="a_node5"><a xlink:href="classConnectionSettings.html" target="_top" xlink:title="ConnectionSettings">
<polygon fill="white" stroke="black" points="178,-67.5 178,-86.5 280,-86.5 280,-67.5 178,-67.5"/>
<text text-anchor="middle" x="229" y="-74.5" font-family="Helvetica,sans-Serif" font-size="10.00">ConnectionSettings</text>
</a>
</g>
</g>
<!-- Node4&#45;&gt;Node5 -->
<g id="edge5" class="edge"><title>Node4&#45;&gt;Node5</title>
<path fill="none" stroke="midnightblue" d="M229,-114.117C229,-104.817 229,-94.0557 229,-86.7149"/>
<polygon fill="midnightblue" stroke="midnightblue" points="225.5,-114.406 229,-124.406 232.5,-114.406 225.5,-114.406"/>
</g>
<!-- Node6 -->
<g id="node6" class="node"><title>Node6</title>
<g id="a_node6"><a xlink:href="classFunctionForm.html" target="_top" xlink:title="FunctionForm">
<polygon fill="white" stroke="black" points="308.5,-67.5 308.5,-86.5 385.5,-86.5 385.5,-67.5 308.5,-67.5"/>
<text text-anchor="middle" x="347" y="-74.5" font-family="Helvetica,sans-Serif" font-size="10.00">FunctionForm</text>
</a>
</g>
</g>
<!-- Node4&#45;&gt;Node6 -->
<g id="edge7" class="edge"><title>Node4&#45;&gt;Node6</title>
<path fill="none" stroke="midnightblue" d="M256.685,-120.096C278.892,-109.745 309.432,-95.5106 328.692,-86.5334"/>
<polygon fill="midnightblue" stroke="midnightblue" points="255.023,-117.009 247.438,-124.406 257.98,-123.354 255.023,-117.009"/>
</g>
<!-- Node5&#45;&gt;Node1 -->
<g id="edge4" class="edge"><title>Node5&#45;&gt;Node1</title>
<path fill="none" stroke="#9a32cd" stroke-dasharray="5,2" d="M215.873,-59.2952C210.282,-52.4827 203.549,-44.6585 197,-38 190.594,-31.4867 182.844,-24.7367 176.696,-19.615"/>
<polygon fill="#9a32cd" stroke="#9a32cd" points="213.25,-61.6186 222.244,-67.2195 218.706,-57.2327 213.25,-61.6186"/>
<text text-anchor="middle" x="269" y="-41" font-family="Helvetica,sans-Serif" font-size="10.00"> ConnectionSettingsWindow</text>
</g>
<!-- Node6&#45;&gt;Node1 -->
<g id="edge6" class="edge"><title>Node6&#45;&gt;Node1</title>
<path fill="none" stroke="#9a32cd" stroke-dasharray="5,2" d="M345.203,-57.1443C343.583,-50.171 340.57,-42.8036 335,-38 315.706,-21.3601 246.417,-14.8976 202.777,-12.4443"/>
<polygon fill="#9a32cd" stroke="#9a32cd" points="341.793,-57.9987 346.767,-67.353 348.712,-56.9381 341.793,-57.9987"/>
<text text-anchor="middle" x="392.5" y="-41" font-family="Helvetica,sans-Serif" font-size="10.00"> FunctionFormWindow</text>
</g>
</g>
</svg>
