<?xml version="1.0" encoding="UTF-8" standalone="no"?>
<!DOCTYPE svg PUBLIC "-//W3C//DTD SVG 1.1//EN"
 "http://www.w3.org/Graphics/SVG/1.1/DTD/svg11.dtd">
<!-- Generated by graphviz version 2.38.0 (20140413.2041)
 -->
<!-- Title: PHScene Pages: 1 -->
<svg width="390pt" height="162pt"
 viewBox="0.00 0.00 389.50 162.00" xmlns="http://www.w3.org/2000/svg" xmlns:xlink="http://www.w3.org/1999/xlink">
<g id="graph0" class="graph" transform="scale(1 1) rotate(0) translate(4 158)">
<title>PHScene</title>
<polygon fill="white" stroke="none" points="-4,4 -4,-158 385.5,-158 385.5,4 -4,4"/>
<!-- Node1 -->
<g id="node1" class="node"><title>Node1</title>
<polygon fill="#bfbfbf" stroke="black" points="141,-0.5 141,-19.5 200,-19.5 200,-0.5 141,-0.5"/>
<text text-anchor="middle" x="170.5" y="-7.5" font-family="Helvetica,sans-Serif" font-size="10.00">PHScene</text>
</g>
<!-- Node2 -->
<g id="node2" class="node"><title>Node2</title>
<polygon fill="white" stroke="#bfbfbf" points="0,-67.5 0,-86.5 91,-86.5 91,-67.5 0,-67.5"/>
<text text-anchor="middle" x="45.5" y="-74.5" font-family="Helvetica,sans-Serif" font-size="10.00">QGraphicsScene</text>
</g>
<!-- Node2&#45;&gt;Node1 -->
<g id="edge1" class="edge"><title>Node2&#45;&gt;Node1</title>
<path fill="none" stroke="midnightblue" d="M71.2628,-62.6034C96.0174,-49.7309 132.692,-30.66 153.832,-19.6672"/>
<polygon fill="midnightblue" stroke="midnightblue" points="69.3565,-59.6497 62.099,-67.3685 72.586,-65.8602 69.3565,-59.6497"/>
</g>
<!-- Node3 -->
<g id="node3" class="node"><title>Node3</title>
<polygon fill="white" stroke="#bfbfbf" points="109.5,-67.5 109.5,-86.5 231.5,-86.5 231.5,-67.5 109.5,-67.5"/>
<text text-anchor="middle" x="170.5" y="-74.5" font-family="Helvetica,sans-Serif" font-size="10.00">map&lt; string, GSortPtr &gt;</text>
</g>
<!-- Node3&#45;&gt;Node1 -->
<g id="edge2" class="edge"><title>Node3&#45;&gt;Node1</title>
<path fill="none" stroke="#9a32cd" stroke-dasharray="5,2" d="M170.5,-57.037C170.5,-44.6703 170.5,-29.1198 170.5,-19.6273"/>
<polygon fill="#9a32cd" stroke="#9a32cd" points="167,-57.2338 170.5,-67.2338 174,-57.2338 167,-57.2338"/>
<text text-anchor="middle" x="183" y="-41" font-family="Helvetica,sans-Serif" font-size="10.00"> sorts</text>
</g>
<!-- Node4 -->
<g id="node4" class="node"><title>Node4</title>
<g id="a_node4"><a xlink:href="classPH.html" target="_top" xlink:title="represents an entire process hitting as defined in a PH file ">
<polygon fill="white" stroke="black" points="250,-67.5 250,-86.5 281,-86.5 281,-67.5 250,-67.5"/>
<text text-anchor="middle" x="265.5" y="-74.5" font-family="Helvetica,sans-Serif" font-size="10.00">PH</text>
</a>
</g>
</g>
<!-- Node4&#45;&gt;Node1 -->
<g id="edge3" class="edge"><title>Node4&#45;&gt;Node1</title>
<path fill="none" stroke="#9a32cd" stroke-dasharray="5,2" d="M244.19,-61.4196C225.409,-48.5695 198.682,-30.2821 183.109,-19.6273"/>
<polygon fill="#9a32cd" stroke="#9a32cd" points="242.458,-64.4755 252.688,-67.2338 246.411,-58.6983 242.458,-64.4755"/>
<text text-anchor="middle" x="230.5" y="-41" font-family="Helvetica,sans-Serif" font-size="10.00"> ph</text>
</g>
<!-- Node5 -->
<g id="node5" class="node"><title>Node5</title>
<polygon fill="white" stroke="#bfbfbf" points="161.5,-134.5 161.5,-153.5 249.5,-153.5 249.5,-134.5 161.5,-134.5"/>
<text text-anchor="middle" x="205.5" y="-141.5" font-family="Helvetica,sans-Serif" font-size="10.00">list&lt; ActionPtr &gt;</text>
</g>
<!-- Node5&#45;&gt;Node4 -->
<g id="edge4" class="edge"><title>Node5&#45;&gt;Node4</title>
<path fill="none" stroke="#9a32cd" stroke-dasharray="5,2" d="M220.606,-126.635C232.341,-113.923 248.148,-96.7978 257.536,-86.6273"/>
<polygon fill="#9a32cd" stroke="#9a32cd" points="217.803,-124.512 213.592,-134.234 222.947,-129.26 217.803,-124.512"/>
<text text-anchor="middle" x="256" y="-108" font-family="Helvetica,sans-Serif" font-size="10.00"> actions</text>
</g>
<!-- Node6 -->
<g id="node6" class="node"><title>Node6</title>
<polygon fill="white" stroke="#bfbfbf" points="267.5,-134.5 267.5,-153.5 381.5,-153.5 381.5,-134.5 267.5,-134.5"/>
<text text-anchor="middle" x="324.5" y="-141.5" font-family="Helvetica,sans-Serif" font-size="10.00">map&lt; string, SortPtr &gt;</text>
</g>
<!-- Node6&#45;&gt;Node4 -->
<g id="edge5" class="edge"><title>Node6&#45;&gt;Node4</title>
<path fill="none" stroke="#9a32cd" stroke-dasharray="5,2" d="M309.645,-126.635C298.107,-113.923 282.563,-96.7978 273.331,-86.6273"/>
<polygon fill="#9a32cd" stroke="#9a32cd" points="307.23,-129.182 316.543,-134.234 312.414,-124.477 307.23,-129.182"/>
<text text-anchor="middle" x="311" y="-108" font-family="Helvetica,sans-Serif" font-size="10.00"> sorts</text>
</g>
</g>
</svg>
