<?xml version="1.0" encoding="UTF-8" standalone="no"?>
<!DOCTYPE svg PUBLIC "-//W3C//DTD SVG 1.1//EN"
 "http://www.w3.org/Graphics/SVG/1.1/DTD/svg11.dtd">
<!-- Generated by graphviz version 2.38.0 (20140413.2041)
 -->
<!-- Title: TreeArea Pages: 1 -->
<svg width="149pt" height="152pt"
 viewBox="0.00 0.00 149.00 152.00" xmlns="http://www.w3.org/2000/svg" xmlns:xlink="http://www.w3.org/1999/xlink">
<g id="graph0" class="graph" transform="scale(1 1) rotate(0) translate(4 148)">
<title>TreeArea</title>
<polygon fill="white" stroke="none" points="-4,4 -4,-148 145,-148 145,4 -4,4"/>
<!-- Node1 -->
<g id="node1" class="node"><title>Node1</title>
<polygon fill="#bfbfbf" stroke="black" points="25.5,-0.5 25.5,-19.5 81.5,-19.5 81.5,-0.5 25.5,-0.5"/>
<text text-anchor="middle" x="53.5" y="-7.5" font-family="Helvetica,sans-Serif" font-size="10.00">TreeArea</text>
</g>
<!-- Node2 -->
<g id="node2" class="node"><title>Node2</title>
<polygon fill="white" stroke="#bfbfbf" points="0,-67.5 0,-86.5 55,-86.5 55,-67.5 0,-67.5"/>
<text text-anchor="middle" x="27.5" y="-74.5" font-family="Helvetica,sans-Serif" font-size="10.00">QWidget</text>
</g>
<!-- Node2&#45;&gt;Node1 -->
<g id="edge1" class="edge"><title>Node2&#45;&gt;Node1</title>
<path fill="none" stroke="midnightblue" d="M34.784,-57.79C39.777,-45.3076 46.1746,-29.3135 50.0491,-19.6273"/>
<polygon fill="midnightblue" stroke="midnightblue" points="31.4708,-56.6491 31.0065,-67.2338 37.9701,-59.2489 31.4708,-56.6491"/>
</g>
<!-- Node3 -->
<g id="node3" class="node"><title>Node3</title>
<g id="a_node3"><a xlink:href="classMyArea.html" target="_top" xlink:title="Graph Widget extends QGraphicsView. ">
<polygon fill="white" stroke="black" points="73.5,-67.5 73.5,-86.5 123.5,-86.5 123.5,-67.5 73.5,-67.5"/>
<text text-anchor="middle" x="98.5" y="-74.5" font-family="Helvetica,sans-Serif" font-size="10.00">MyArea</text>
</a>
</g>
</g>
<!-- Node3&#45;&gt;Node1 -->
<g id="edge2" class="edge"><title>Node3&#45;&gt;Node1</title>
<path fill="none" stroke="#9a32cd" stroke-dasharray="5,2" d="M86.6641,-58.9037C77.9197,-46.2729 66.3798,-29.6041 59.4727,-19.6273"/>
<polygon fill="#9a32cd" stroke="#9a32cd" points="83.8613,-61.0041 92.4311,-67.2338 89.6166,-57.0196 83.8613,-61.0041"/>
<text text-anchor="middle" x="97" y="-41" font-family="Helvetica,sans-Serif" font-size="10.00"> myArea</text>
</g>
<!-- Node4 -->
<g id="node4" class="node"><title>Node4</title>
<polygon fill="white" stroke="#bfbfbf" points="56,-124.5 56,-143.5 141,-143.5 141,-124.5 56,-124.5"/>
<text text-anchor="middle" x="98.5" y="-131.5" font-family="Helvetica,sans-Serif" font-size="10.00">QGraphicsView</text>
</g>
<!-- Node4&#45;&gt;Node3 -->
<g id="edge3" class="edge"><title>Node4&#45;&gt;Node3</title>
<path fill="none" stroke="midnightblue" d="M98.5,-114.117C98.5,-104.817 98.5,-94.0557 98.5,-86.7149"/>
<polygon fill="midnightblue" stroke="midnightblue" points="95.0001,-114.406 98.5,-124.406 102,-114.406 95.0001,-114.406"/>
</g>
</g>
</svg>
