<?xml version="1.0" encoding="UTF-8" standalone="no"?>
<!DOCTYPE svg PUBLIC "-//W3C//DTD SVG 1.1//EN"
 "http://www.w3.org/Graphics/SVG/1.1/DTD/svg11.dtd">
<!-- Generated by graphviz version 2.38.0 (20140413.2041)
 -->
<!-- Title: GSort Pages: 1 -->
<svg width="417pt" height="229pt"
 viewBox="0.00 0.00 416.50 229.00" xmlns="http://www.w3.org/2000/svg" xmlns:xlink="http://www.w3.org/1999/xlink">
<g id="graph0" class="graph" transform="scale(1 1) rotate(0) translate(4 225)">
<title>GSort</title>
<polygon fill="white" stroke="none" points="-4,4 -4,-225 412.5,-225 412.5,4 -4,4"/>
<!-- Node1 -->
<g id="node1" class="node"><title>Node1</title>
<polygon fill="#bfbfbf" stroke="black" points="197.5,-0.5 197.5,-19.5 239.5,-19.5 239.5,-0.5 197.5,-0.5"/>
<text text-anchor="middle" x="218.5" y="-7.5" font-family="Helvetica,sans-Serif" font-size="10.00">GSort</text>
</g>
<!-- Node2 -->
<g id="node2" class="node"><title>Node2</title>
<polygon fill="white" stroke="#bfbfbf" points="18.5,-67.5 18.5,-86.5 122.5,-86.5 122.5,-67.5 18.5,-67.5"/>
<text text-anchor="middle" x="70.5" y="-74.5" font-family="Helvetica,sans-Serif" font-size="10.00">QGraphicsRectItem</text>
</g>
<!-- Node2&#45;&gt;Node1 -->
<g id="edge1" class="edge"><title>Node2&#45;&gt;Node1</title>
<path fill="none" stroke="midnightblue" d="M99.4603,-63.281C128.77,-50.4085 173.293,-30.8545 198.765,-19.6672"/>
<polygon fill="midnightblue" stroke="midnightblue" points="97.9017,-60.1427 90.1533,-67.3685 100.717,-66.5518 97.9017,-60.1427"/>
</g>
<!-- Node3 -->
<g id="node3" class="node"><title>Node3</title>
<g id="a_node3"><a xlink:href="classPHScene.html" target="_top" xlink:title="the graphic object representing the process hitting extends QGraphicsScene ">
<polygon fill="white" stroke="black" points="141,-67.5 141,-86.5 200,-86.5 200,-67.5 141,-67.5"/>
<text text-anchor="middle" x="170.5" y="-74.5" font-family="Helvetica,sans-Serif" font-size="10.00">PHScene</text>
</a>
</g>
</g>
<!-- Node3&#45;&gt;Node1 -->
<g id="edge2" class="edge"><title>Node3&#45;&gt;Node1</title>
<path fill="none" stroke="#9a32cd" stroke-dasharray="5,2" d="M181.918,-58.6604C186.352,-52.102 191.548,-44.6248 196.5,-38 201.134,-31.8008 206.634,-25.0508 210.975,-19.8506"/>
<polygon fill="#9a32cd" stroke="#9a32cd" points="178.722,-57.1443 176.083,-67.4054 184.545,-61.0291 178.722,-57.1443"/>
<text text-anchor="middle" x="211.5" y="-41" font-family="Helvetica,sans-Serif" font-size="10.00"> scene</text>
</g>
<!-- Node4 -->
<g id="node4" class="node"><title>Node4</title>
<polygon fill="white" stroke="#bfbfbf" points="0,-134.5 0,-153.5 91,-153.5 91,-134.5 0,-134.5"/>
<text text-anchor="middle" x="45.5" y="-141.5" font-family="Helvetica,sans-Serif" font-size="10.00">QGraphicsScene</text>
</g>
<!-- Node4&#45;&gt;Node3 -->
<g id="edge3" class="edge"><title>Node4&#45;&gt;Node3</title>
<path fill="none" stroke="midnightblue" d="M71.2628,-129.603C96.0174,-116.731 132.692,-97.66 153.832,-86.6672"/>
<polygon fill="midnightblue" stroke="midnightblue" points="69.3565,-126.65 62.099,-134.369 72.586,-132.86 69.3565,-126.65"/>
</g>
<!-- Node5 -->
<g id="node5" class="node"><title>Node5</title>
<polygon fill="white" stroke="#bfbfbf" points="109.5,-134.5 109.5,-153.5 231.5,-153.5 231.5,-134.5 109.5,-134.5"/>
<text text-anchor="middle" x="170.5" y="-141.5" font-family="Helvetica,sans-Serif" font-size="10.00">map&lt; string, GSortPtr &gt;</text>
</g>
<!-- Node5&#45;&gt;Node3 -->
<g id="edge4" class="edge"><title>Node5&#45;&gt;Node3</title>
<path fill="none" stroke="#9a32cd" stroke-dasharray="5,2" d="M170.5,-124.037C170.5,-111.67 170.5,-96.1198 170.5,-86.6273"/>
<polygon fill="#9a32cd" stroke="#9a32cd" points="167,-124.234 170.5,-134.234 174,-124.234 167,-124.234"/>
<text text-anchor="middle" x="183" y="-108" font-family="Helvetica,sans-Serif" font-size="10.00"> sorts</text>
</g>
<!-- Node6 -->
<g id="node6" class="node"><title>Node6</title>
<g id="a_node6"><a xlink:href="classPH.html" target="_top" xlink:title="represents an entire process hitting as defined in a PH file ">
<polygon fill="white" stroke="black" points="250,-134.5 250,-153.5 281,-153.5 281,-134.5 250,-134.5"/>
<text text-anchor="middle" x="265.5" y="-141.5" font-family="Helvetica,sans-Serif" font-size="10.00">PH</text>
</a>
</g>
</g>
<!-- Node6&#45;&gt;Node3 -->
<g id="edge5" class="edge"><title>Node6&#45;&gt;Node3</title>
<path fill="none" stroke="#9a32cd" stroke-dasharray="5,2" d="M244.19,-128.42C225.409,-115.569 198.682,-97.2821 183.109,-86.6273"/>
<polygon fill="#9a32cd" stroke="#9a32cd" points="242.458,-131.476 252.688,-134.234 246.411,-125.698 242.458,-131.476"/>
<text text-anchor="middle" x="231.5" y="-108" font-family="Helvetica,sans-Serif" font-size="10.00"> ph</text>
</g>
<!-- Node7 -->
<g id="node7" class="node"><title>Node7</title>
<polygon fill="white" stroke="#bfbfbf" points="162.5,-201.5 162.5,-220.5 250.5,-220.5 250.5,-201.5 162.5,-201.5"/>
<text text-anchor="middle" x="206.5" y="-208.5" font-family="Helvetica,sans-Serif" font-size="10.00">list&lt; ActionPtr &gt;</text>
</g>
<!-- Node7&#45;&gt;Node6 -->
<g id="edge6" class="edge"><title>Node7&#45;&gt;Node6</title>
<path fill="none" stroke="#9a32cd" stroke-dasharray="5,2" d="M221.355,-193.635C232.893,-180.923 248.437,-163.798 257.669,-153.627"/>
<polygon fill="#9a32cd" stroke="#9a32cd" points="218.586,-191.477 214.457,-201.234 223.77,-196.182 218.586,-191.477"/>
<text text-anchor="middle" x="258" y="-175" font-family="Helvetica,sans-Serif" font-size="10.00"> actions</text>
</g>
<!-- Node8 -->
<g id="node8" class="node"><title>Node8</title>
<polygon fill="white" stroke="#bfbfbf" points="268.5,-201.5 268.5,-220.5 382.5,-220.5 382.5,-201.5 268.5,-201.5"/>
<text text-anchor="middle" x="325.5" y="-208.5" font-family="Helvetica,sans-Serif" font-size="10.00">map&lt; string, SortPtr &gt;</text>
</g>
<!-- Node8&#45;&gt;Node6 -->
<g id="edge7" class="edge"><title>Node8&#45;&gt;Node6</title>
<path fill="none" stroke="#9a32cd" stroke-dasharray="5,2" d="M310.394,-193.635C298.659,-180.923 282.852,-163.798 273.464,-153.627"/>
<polygon fill="#9a32cd" stroke="#9a32cd" points="308.053,-196.26 317.408,-201.234 313.197,-191.512 308.053,-196.26"/>
<text text-anchor="middle" x="312" y="-175" font-family="Helvetica,sans-Serif" font-size="10.00"> sorts</text>
</g>
<!-- Node9 -->
<g id="node9" class="node"><title>Node9</title>
<g id="a_node9"><a xlink:href="structGVNode.html" target="_top" xlink:title="struct containing the information for a GVGraph&#39;s node ">
<polygon fill="white" stroke="black" points="218.5,-67.5 218.5,-86.5 272.5,-86.5 272.5,-67.5 218.5,-67.5"/>
<text text-anchor="middle" x="245.5" y="-74.5" font-family="Helvetica,sans-Serif" font-size="10.00">GVNode</text>
</a>
</g>
</g>
<!-- Node9&#45;&gt;Node1 -->
<g id="edge8" class="edge"><title>Node9&#45;&gt;Node1</title>
<path fill="none" stroke="#9a32cd" stroke-dasharray="5,2" d="M237.936,-57.79C232.751,-45.3076 226.107,-29.3135 222.084,-19.6273"/>
<polygon fill="#9a32cd" stroke="#9a32cd" points="234.79,-59.3415 241.859,-67.2338 241.255,-56.6562 234.79,-59.3415"/>
<text text-anchor="middle" x="247" y="-41" font-family="Helvetica,sans-Serif" font-size="10.00"> node</text>
</g>
<!-- Node10 -->
<g id="node10" class="node"><title>Node10</title>
<polygon fill="white" stroke="#bfbfbf" points="290.5,-67.5 290.5,-86.5 408.5,-86.5 408.5,-67.5 290.5,-67.5"/>
<text text-anchor="middle" x="349.5" y="-74.5" font-family="Helvetica,sans-Serif" font-size="10.00">vector&lt; GProcessPtr &gt;</text>
</g>
<!-- Node10&#45;&gt;Node1 -->
<g id="edge9" class="edge"><title>Node10&#45;&gt;Node1</title>
<path fill="none" stroke="#9a32cd" stroke-dasharray="5,2" d="M322.844,-62.7739C296.898,-49.8999 258.22,-30.7086 235.968,-19.6672"/>
<polygon fill="#9a32cd" stroke="#9a32cd" points="321.591,-66.059 332.104,-67.3685 324.702,-59.7884 321.591,-66.059"/>
<text text-anchor="middle" x="320" y="-41" font-family="Helvetica,sans-Serif" font-size="10.00"> gProcesses</text>
</g>
</g>
</svg>
