<?xml version="1.0" encoding="UTF-8" standalone="no"?>
<!DOCTYPE svg PUBLIC "-//W3C//DTD SVG 1.1//EN"
 "http://www.w3.org/Graphics/SVG/1.1/DTD/svg11.dtd">
<!-- Generated by graphviz version 2.38.0 (20140413.2041)
 -->
<!-- Title: PH Pages: 1 -->
<svg width="228pt" height="95pt"
 viewBox="0.00 0.00 228.00 95.00" xmlns="http://www.w3.org/2000/svg" xmlns:xlink="http://www.w3.org/1999/xlink">
<g id="graph0" class="graph" transform="scale(1 1) rotate(0) translate(4 91)">
<title>PH</title>
<polygon fill="white" stroke="none" points="-4,4 -4,-91 224,-91 224,4 -4,4"/>
<!-- Node1 -->
<g id="node1" class="node"><title>Node1</title>
<polygon fill="#bfbfbf" stroke="black" points="87.5,-0.5 87.5,-19.5 118.5,-19.5 118.5,-0.5 87.5,-0.5"/>
<text text-anchor="middle" x="103" y="-7.5" font-family="Helvetica,sans-Serif" font-size="10.00">PH</text>
</g>
<!-- Node2 -->
<g id="node2" class="node"><title>Node2</title>
<polygon fill="white" stroke="#bfbfbf" points="0,-67.5 0,-86.5 88,-86.5 88,-67.5 0,-67.5"/>
<text text-anchor="middle" x="44" y="-74.5" font-family="Helvetica,sans-Serif" font-size="10.00">list&lt; ActionPtr &gt;</text>
</g>
<!-- Node2&#45;&gt;Node1 -->
<g id="edge1" class="edge"><title>Node2&#45;&gt;Node1</title>
<path fill="none" stroke="#9a32cd" stroke-dasharray="5,2" d="M58.8545,-59.6348C70.3932,-46.9228 85.9374,-29.7978 95.1691,-19.6273"/>
<polygon fill="#9a32cd" stroke="#9a32cd" points="56.0865,-57.4769 51.957,-67.2338 61.2697,-62.1816 56.0865,-57.4769"/>
<text text-anchor="middle" x="95.5" y="-41" font-family="Helvetica,sans-Serif" font-size="10.00"> actions</text>
</g>
<!-- Node3 -->
<g id="node3" class="node"><title>Node3</title>
<polygon fill="white" stroke="#bfbfbf" points="106,-67.5 106,-86.5 220,-86.5 220,-67.5 106,-67.5"/>
<text text-anchor="middle" x="163" y="-74.5" font-family="Helvetica,sans-Serif" font-size="10.00">map&lt; string, SortPtr &gt;</text>
</g>
<!-- Node3&#45;&gt;Node1 -->
<g id="edge2" class="edge"><title>Node3&#45;&gt;Node1</title>
<path fill="none" stroke="#9a32cd" stroke-dasharray="5,2" d="M147.894,-59.6348C136.159,-46.9228 120.352,-29.7978 110.964,-19.6273"/>
<polygon fill="#9a32cd" stroke="#9a32cd" points="145.553,-62.2597 154.908,-67.2338 150.697,-57.5118 145.553,-62.2597"/>
<text text-anchor="middle" x="148.5" y="-41" font-family="Helvetica,sans-Serif" font-size="10.00"> sorts</text>
</g>
</g>
</svg>
