<?xml version="1.0" encoding="UTF-8" standalone="no"?>
<!DOCTYPE svg PUBLIC "-//W3C//DTD SVG 1.1//EN"
 "http://www.w3.org/Graphics/SVG/1.1/DTD/svg11.dtd">
<!-- Generated by graphviz version 2.38.0 (20140413.2041)
 -->
<!-- Title: src Pages: 1 -->
<svg width="526pt" height="132pt"
 viewBox="0.00 0.00 526.00 132.00" xmlns="http://www.w3.org/2000/svg" xmlns:xlink="http://www.w3.org/1999/xlink">
<g id="graph0" class="graph" transform="scale(1 1) rotate(0) translate(4 128)">
<title>src</title>
<polygon fill="white" stroke="none" points="-4,4 -4,-128 522,-128 522,4 -4,4"/>
<g id="clust1" class="cluster"><title>clusterdir_68267d1309a1af8e8297ef4c3efbcdba</title>
<g id="a_clust1"><a xlink:href="dir_68267d1309a1af8e8297ef4c3efbcdba.html" target="_top">
<polygon fill="#eeeeff" stroke="black" points="8,-64 8,-116 510,-116 510,-64 8,-64"/>
</a>
</g>
</g>
<!-- dir_68267d1309a1af8e8297ef4c3efbcdba -->
<g id="node1" class="node"><title>dir_68267d1309a1af8e8297ef4c3efbcdba</title>
<text text-anchor="middle" x="475" y="-87.5" font-family="Helvetica,sans-Serif" font-size="10.00">src</text>
</g>
<!-- dir_c86603f79b902ad390ffc2674fbc4470 -->
<g id="node2" class="node"><title>dir_c86603f79b902ad390ffc2674fbc4470</title>
<g id="a_node2"><a xlink:href="dir_c86603f79b902ad390ffc2674fbc4470.html" target="_top" xlink:title="gfx">
<polygon fill="white" stroke="black" points="430,-108 376,-108 376,-72 430,-72 430,-108"/>
<text text-anchor="middle" x="403" y="-87.5" font-family="Helvetica,sans-Serif" font-size="10.00">gfx</text>
</a>
</g>
</g>
<!-- dir_7f57b1e41c5acd0e859ae5f3a2b075a9 -->
<g id="node8" class="node"><title>dir_7f57b1e41c5acd0e859ae5f3a2b075a9</title>
<g id="a_node8"><a xlink:href="dir_7f57b1e41c5acd0e859ae5f3a2b075a9.html" target="_top" xlink:title="headers">
<polygon fill="white" stroke="red" points="250,-36 196,-36 196,-0 250,-0 250,-36"/>
<text text-anchor="middle" x="223" y="-15.5" font-family="Helvetica,sans-Serif" font-size="10.00">headers</text>
</a>
</g>
</g>
<!-- dir_c86603f79b902ad390ffc2674fbc4470&#45;&gt;dir_7f57b1e41c5acd0e859ae5f3a2b075a9 -->
<g id="edge4" class="edge"><title>dir_c86603f79b902ad390ffc2674fbc4470&#45;&gt;dir_7f57b1e41c5acd0e859ae5f3a2b075a9</title>
<path fill="none" stroke="black" d="M380.4,-71.7749C376.089,-68.9373 371.511,-66.2067 367,-64 332.378,-47.0644 289.98,-34.7301 260.185,-27.3029"/>
<polygon fill="black" stroke="black" points="260.748,-23.8381 250.205,-24.881 259.097,-30.6407 260.748,-23.8381"/>
<g id="a_edge4&#45;headlabel"><a xlink:href="dir_000003_000000.html" target="_top" xlink:title="6">
<text text-anchor="middle" x="264.911" y="-19.4266" font-family="Helvetica,sans-Serif" font-size="10.00">6</text>
</a>
</g>
</g>
<!-- dir_6301db9d128cb166f1aaf708d2e0d943 -->
<g id="node3" class="node"><title>dir_6301db9d128cb166f1aaf708d2e0d943</title>
<g id="a_node3"><a xlink:href="dir_6301db9d128cb166f1aaf708d2e0d943.html" target="_top" xlink:title="gviz">
<polygon fill="white" stroke="black" points="358,-108 304,-108 304,-72 358,-72 358,-108"/>
<text text-anchor="middle" x="331" y="-87.5" font-family="Helvetica,sans-Serif" font-size="10.00">gviz</text>
</a>
</g>
</g>
<!-- dir_6301db9d128cb166f1aaf708d2e0d943&#45;&gt;dir_7f57b1e41c5acd0e859ae5f3a2b075a9 -->
<g id="edge3" class="edge"><title>dir_6301db9d128cb166f1aaf708d2e0d943&#45;&gt;dir_7f57b1e41c5acd0e859ae5f3a2b075a9</title>
<path fill="none" stroke="black" d="M306.709,-71.8948C302.815,-69.2208 298.812,-66.5127 295,-64 283.329,-56.307 270.425,-48.1387 258.803,-40.9029"/>
<polygon fill="black" stroke="black" points="260.551,-37.8683 250.207,-35.5746 256.863,-43.818 260.551,-37.8683"/>
<g id="a_edge3&#45;headlabel"><a xlink:href="dir_000004_000000.html" target="_top" xlink:title="2">
<text text-anchor="middle" x="265.102" y="-34.8488" font-family="Helvetica,sans-Serif" font-size="10.00">2</text>
</a>
</g>
</g>
<!-- dir_c184e51c84f2c3f0345bbc8a0d75d3e1 -->
<g id="node4" class="node"><title>dir_c184e51c84f2c3f0345bbc8a0d75d3e1</title>
<g id="a_node4"><a xlink:href="dir_c184e51c84f2c3f0345bbc8a0d75d3e1.html" target="_top" xlink:title="io">
<polygon fill="white" stroke="black" points="286,-108 232,-108 232,-72 286,-72 286,-108"/>
<text text-anchor="middle" x="259" y="-87.5" font-family="Helvetica,sans-Serif" font-size="10.00">io</text>
</a>
</g>
</g>
<!-- dir_c184e51c84f2c3f0345bbc8a0d75d3e1&#45;&gt;dir_7f57b1e41c5acd0e859ae5f3a2b075a9 -->
<g id="edge5" class="edge"><title>dir_c184e51c84f2c3f0345bbc8a0d75d3e1&#45;&gt;dir_7f57b1e41c5acd0e859ae5f3a2b075a9</title>
<path fill="none" stroke="black" d="M250.101,-71.6966C246.003,-63.7284 241.051,-54.0995 236.507,-45.2641"/>
<polygon fill="black" stroke="black" points="239.483,-43.3965 231.797,-36.1043 233.258,-46.598 239.483,-43.3965"/>
<g id="a_edge5&#45;headlabel"><a xlink:href="dir_000005_000000.html" target="_top" xlink:title="5">
<text text-anchor="middle" x="243.651" y="-42.7946" font-family="Helvetica,sans-Serif" font-size="10.00">5</text>
</a>
</g>
</g>
<!-- dir_e2d822bf3df8c75a1d2e32aff2fa8898 -->
<g id="node5" class="node"><title>dir_e2d822bf3df8c75a1d2e32aff2fa8898</title>
<g id="a_node5"><a xlink:href="dir_e2d822bf3df8c75a1d2e32aff2fa8898.html" target="_top" xlink:title="ph">
<polygon fill="white" stroke="black" points="214,-108 160,-108 160,-72 214,-72 214,-108"/>
<text text-anchor="middle" x="187" y="-87.5" font-family="Helvetica,sans-Serif" font-size="10.00">ph</text>
</a>
</g>
</g>
<!-- dir_e2d822bf3df8c75a1d2e32aff2fa8898&#45;&gt;dir_7f57b1e41c5acd0e859ae5f3a2b075a9 -->
<g id="edge1" class="edge"><title>dir_e2d822bf3df8c75a1d2e32aff2fa8898&#45;&gt;dir_7f57b1e41c5acd0e859ae5f3a2b075a9</title>
<path fill="none" stroke="black" d="M195.899,-71.6966C199.997,-63.7284 204.949,-54.0995 209.493,-45.2641"/>
<polygon fill="black" stroke="black" points="212.742,-46.598 214.203,-36.1043 206.517,-43.3965 212.742,-46.598"/>
<g id="a_edge1&#45;headlabel"><a xlink:href="dir_000006_000000.html" target="_top" xlink:title="8">
<text text-anchor="middle" x="213.623" y="-48.5931" font-family="Helvetica,sans-Serif" font-size="10.00">8</text>
</a>
</g>
</g>
<!-- dir_120ed4da3e3217b1e7fc0b4f48568e79 -->
<g id="node6" class="node"><title>dir_120ed4da3e3217b1e7fc0b4f48568e79</title>
<g id="a_node6"><a xlink:href="dir_120ed4da3e3217b1e7fc0b4f48568e79.html" target="_top" xlink:title="test">
<polygon fill="white" stroke="black" points="142,-108 88,-108 88,-72 142,-72 142,-108"/>
<text text-anchor="middle" x="115" y="-87.5" font-family="Helvetica,sans-Serif" font-size="10.00">test</text>
</a>
</g>
</g>
<!-- dir_120ed4da3e3217b1e7fc0b4f48568e79&#45;&gt;dir_7f57b1e41c5acd0e859ae5f3a2b075a9 -->
<g id="edge2" class="edge"><title>dir_120ed4da3e3217b1e7fc0b4f48568e79&#45;&gt;dir_7f57b1e41c5acd0e859ae5f3a2b075a9</title>
<path fill="none" stroke="black" d="M139.291,-71.8948C143.185,-69.2208 147.188,-66.5127 151,-64 162.671,-56.307 175.575,-48.1387 187.197,-40.9029"/>
<polygon fill="black" stroke="black" points="189.137,-43.818 195.793,-35.5746 185.449,-37.8683 189.137,-43.818"/>
<g id="a_edge2&#45;headlabel"><a xlink:href="dir_000007_000000.html" target="_top" xlink:title="3">
<text text-anchor="middle" x="187.578" y="-45.6251" font-family="Helvetica,sans-Serif" font-size="10.00">3</text>
</a>
</g>
</g>
<!-- dir_da5c6b39c0a2f54e57df6799511cd3ab -->
<g id="node7" class="node"><title>dir_da5c6b39c0a2f54e57df6799511cd3ab</title>
<g id="a_node7"><a xlink:href="dir_da5c6b39c0a2f54e57df6799511cd3ab.html" target="_top" xlink:title="ui">
<polygon fill="white" stroke="black" points="70,-108 16,-108 16,-72 70,-72 70,-108"/>
<text text-anchor="middle" x="43" y="-87.5" font-family="Helvetica,sans-Serif" font-size="10.00">ui</text>
</a>
</g>
</g>
<!-- dir_da5c6b39c0a2f54e57df6799511cd3ab&#45;&gt;dir_7f57b1e41c5acd0e859ae5f3a2b075a9 -->
<g id="edge6" class="edge"><title>dir_da5c6b39c0a2f54e57df6799511cd3ab&#45;&gt;dir_7f57b1e41c5acd0e859ae5f3a2b075a9</title>
<path fill="none" stroke="black" d="M65.6003,-71.7749C69.9107,-68.9373 74.4887,-66.2067 79,-64 113.622,-47.0644 156.02,-34.7301 185.815,-27.3029"/>
<polygon fill="black" stroke="black" points="186.903,-30.6407 195.795,-24.881 185.252,-23.8381 186.903,-30.6407"/>
<g id="a_edge6&#45;headlabel"><a xlink:href="dir_000008_000000.html" target="_top" xlink:title="15">
<text text-anchor="middle" x="184.079" y="-31.7475" font-family="Helvetica,sans-Serif" font-size="10.00">15</text>
</a>
</g>
</g>
</g>
</svg>
