<?xml version="1.0" encoding="UTF-8" standalone="no"?>
<!DOCTYPE svg PUBLIC "-//W3C//DTD SVG 1.1//EN"
 "http://www.w3.org/Graphics/SVG/1.1/DTD/svg11.dtd">
<!-- Generated by graphviz version 2.38.0 (20140413.2041)
 -->
<!-- Title: headers/Exceptions.h Pages: 1 -->
<svg width="257pt" height="84pt"
 viewBox="0.00 0.00 256.50 84.00" xmlns="http://www.w3.org/2000/svg" xmlns:xlink="http://www.w3.org/1999/xlink">
<g id="graph0" class="graph" transform="scale(1 1) rotate(0) translate(4 80)">
<title>headers/Exceptions.h</title>
<polygon fill="white" stroke="none" points="-4,4 -4,-80 252.5,-80 252.5,4 -4,4"/>
<!-- Node1 -->
<g id="node1" class="node"><title>Node1</title>
<polygon fill="#bfbfbf" stroke="black" points="37.5,-56.5 37.5,-75.5 148.5,-75.5 148.5,-56.5 37.5,-56.5"/>
<text text-anchor="middle" x="93" y="-63.5" font-family="Helvetica,sans-Serif" font-size="10.00">headers/Exceptions.h</text>
</g>
<!-- Node2 -->
<g id="node2" class="node"><title>Node2</title>
<polygon fill="white" stroke="#bfbfbf" points="0,-0.5 0,-19.5 54,-19.5 54,-0.5 0,-0.5"/>
<text text-anchor="middle" x="27" y="-7.5" font-family="Helvetica,sans-Serif" font-size="10.00">iostream</text>
</g>
<!-- Node1&#45;&gt;Node2 -->
<g id="edge1" class="edge"><title>Node1&#45;&gt;Node2</title>
<path fill="none" stroke="midnightblue" d="M82.396,-56.324C72.5438,-48.2631 57.6491,-36.0765 45.7849,-26.3695"/>
<polygon fill="midnightblue" stroke="midnightblue" points="47.7529,-23.4575 37.797,-19.8339 43.3202,-28.8752 47.7529,-23.4575"/>
</g>
<!-- Node3 -->
<g id="node3" class="node"><title>Node3</title>
<polygon fill="white" stroke="#bfbfbf" points="72.5,-0.5 72.5,-19.5 113.5,-19.5 113.5,-0.5 72.5,-0.5"/>
<text text-anchor="middle" x="93" y="-7.5" font-family="Helvetica,sans-Serif" font-size="10.00">string</text>
</g>
<!-- Node1&#45;&gt;Node3 -->
<g id="edge2" class="edge"><title>Node1&#45;&gt;Node3</title>
<path fill="none" stroke="midnightblue" d="M93,-56.083C93,-49.0059 93,-38.8611 93,-29.9865"/>
<polygon fill="midnightblue" stroke="midnightblue" points="96.5001,-29.751 93,-19.7511 89.5001,-29.7511 96.5001,-29.751"/>
</g>
<!-- Node4 -->
<g id="node4" class="node"><title>Node4</title>
<polygon fill="white" stroke="#bfbfbf" points="131.5,-0.5 131.5,-19.5 248.5,-19.5 248.5,-0.5 131.5,-0.5"/>
<text text-anchor="middle" x="190" y="-7.5" font-family="Helvetica,sans-Serif" font-size="10.00">boost/exception/all.hpp</text>
</g>
<!-- Node1&#45;&gt;Node4 -->
<g id="edge3" class="edge"><title>Node1&#45;&gt;Node4</title>
<path fill="none" stroke="midnightblue" d="M108.585,-56.324C123.999,-47.7428 147.812,-34.486 165.71,-24.5224"/>
<polygon fill="midnightblue" stroke="midnightblue" points="167.419,-27.5767 174.454,-19.6545 164.014,-21.4606 167.419,-27.5767"/>
</g>
</g>
</svg>
