<?xml version="1.0" encoding="UTF-8" standalone="no"?>
<!DOCTYPE svg PUBLIC "-//W3C//DTD SVG 1.1//EN"
 "http://www.w3.org/Graphics/SVG/1.1/DTD/svg11.dtd">
<!-- Generated by graphviz version 2.38.0 (20140413.2041)
 -->
<!-- Title: headers/Exceptions.h Pages: 1 -->
<svg width="1043pt" height="84pt"
 viewBox="0.00 0.00 1043.00 84.00" xmlns="http://www.w3.org/2000/svg" xmlns:xlink="http://www.w3.org/1999/xlink">
<g id="graph0" class="graph" transform="scale(1 1) rotate(0) translate(4 80)">
<title>headers/Exceptions.h</title>
<polygon fill="white" stroke="none" points="-4,4 -4,-80 1039,-80 1039,4 -4,4"/>
<!-- Node1 -->
<g id="node1" class="node"><title>Node1</title>
<polygon fill="#bfbfbf" stroke="black" points="479.5,-56.5 479.5,-75.5 590.5,-75.5 590.5,-56.5 479.5,-56.5"/>
<text text-anchor="middle" x="535" y="-63.5" font-family="Helvetica,sans-Serif" font-size="10.00">headers/Exceptions.h</text>
</g>
<!-- Node2 -->
<g id="node2" class="node"><title>Node2</title>
<g id="a_node2"><a xlink:href="PHScene_8cpp_source.html" target="_top" xlink:title="src/gfx/PHScene.cpp">
<polygon fill="white" stroke="black" points="0,-0.5 0,-19.5 110,-19.5 110,-0.5 0,-0.5"/>
<text text-anchor="middle" x="55" y="-7.5" font-family="Helvetica,sans-Serif" font-size="10.00">src/gfx/PHScene.cpp</text>
</a>
</g>
</g>
<!-- Node1&#45;&gt;Node2 -->
<g id="edge1" class="edge"><title>Node1&#45;&gt;Node2</title>
<path fill="none" stroke="midnightblue" d="M469.242,-58.542C387.177,-50.3319 242.572,-35.3683 119,-20 116.105,-19.64 113.138,-19.2602 110.143,-18.8685"/>
<polygon fill="midnightblue" stroke="midnightblue" points="469.123,-62.0475 479.422,-59.5579 469.819,-55.0821 469.123,-62.0475"/>
</g>
<!-- Node3 -->
<g id="node3" class="node"><title>Node3</title>
<g id="a_node3"><a xlink:href="GVSkeletonGraph_8cpp_source.html" target="_top" xlink:title="src/gviz/GVSkeletonGraph.cpp">
<polygon fill="white" stroke="black" points="128,-0.5 128,-19.5 280,-19.5 280,-0.5 128,-0.5"/>
<text text-anchor="middle" x="204" y="-7.5" font-family="Helvetica,sans-Serif" font-size="10.00">src/gviz/GVSkeletonGraph.cpp</text>
</a>
</g>
</g>
<!-- Node1&#45;&gt;Node3 -->
<g id="edge2" class="edge"><title>Node1&#45;&gt;Node3</title>
<path fill="none" stroke="midnightblue" d="M472.421,-54.7907C409.876,-44.587 314.812,-29.078 256.203,-19.5164"/>
<polygon fill="midnightblue" stroke="midnightblue" points="472.119,-58.2877 482.552,-56.4435 473.246,-51.379 472.119,-58.2877"/>
</g>
<!-- Node4 -->
<g id="node4" class="node"><title>Node4</title>
<g id="a_node4"><a xlink:href="IO_8cpp_source.html" target="_top" xlink:title="src/io/IO.cpp">
<polygon fill="white" stroke="black" points="298.5,-0.5 298.5,-19.5 371.5,-19.5 371.5,-0.5 298.5,-0.5"/>
<text text-anchor="middle" x="335" y="-7.5" font-family="Helvetica,sans-Serif" font-size="10.00">src/io/IO.cpp</text>
</a>
</g>
</g>
<!-- Node1&#45;&gt;Node4 -->
<g id="edge3" class="edge"><title>Node1&#45;&gt;Node4</title>
<path fill="none" stroke="midnightblue" d="M493.626,-53.8291C455.864,-43.6333 400.86,-28.7823 366.542,-19.5164"/>
<polygon fill="midnightblue" stroke="midnightblue" points="492.743,-57.2158 503.309,-56.4435 494.567,-50.4578 492.743,-57.2158"/>
</g>
<!-- Node5 -->
<g id="node5" class="node"><title>Node5</title>
<g id="a_node5"><a xlink:href="PHIO_8cpp_source.html" target="_top" xlink:title="src/io/PHIO.cpp">
<polygon fill="white" stroke="black" points="389.5,-0.5 389.5,-19.5 476.5,-19.5 476.5,-0.5 389.5,-0.5"/>
<text text-anchor="middle" x="433" y="-7.5" font-family="Helvetica,sans-Serif" font-size="10.00">src/io/PHIO.cpp</text>
</a>
</g>
</g>
<!-- Node1&#45;&gt;Node5 -->
<g id="edge4" class="edge"><title>Node1&#45;&gt;Node5</title>
<path fill="none" stroke="midnightblue" d="M509.669,-51.5895C490.81,-41.6052 465.616,-28.2672 449.347,-19.6545"/>
<polygon fill="midnightblue" stroke="midnightblue" points="508.136,-54.7383 518.612,-56.324 511.412,-48.5518 508.136,-54.7383"/>
</g>
<!-- Node6 -->
<g id="node6" class="node"><title>Node6</title>
<g id="a_node6"><a xlink:href="PH_8cpp_source.html" target="_top" xlink:title="src/ph/PH.cpp">
<polygon fill="white" stroke="black" points="495,-0.5 495,-19.5 575,-19.5 575,-0.5 495,-0.5"/>
<text text-anchor="middle" x="535" y="-7.5" font-family="Helvetica,sans-Serif" font-size="10.00">src/ph/PH.cpp</text>
</a>
</g>
</g>
<!-- Node1&#45;&gt;Node6 -->
<g id="edge5" class="edge"><title>Node1&#45;&gt;Node6</title>
<path fill="none" stroke="midnightblue" d="M535,-45.8045C535,-36.9102 535,-26.7798 535,-19.7511"/>
<polygon fill="midnightblue" stroke="midnightblue" points="531.5,-46.083 535,-56.083 538.5,-46.083 531.5,-46.083"/>
</g>
<!-- Node7 -->
<g id="node7" class="node"><title>Node7</title>
<g id="a_node7"><a xlink:href="Sort_8cpp_source.html" target="_top" xlink:title="src/ph/Sort.cpp">
<polygon fill="white" stroke="black" points="593.5,-0.5 593.5,-19.5 676.5,-19.5 676.5,-0.5 593.5,-0.5"/>
<text text-anchor="middle" x="635" y="-7.5" font-family="Helvetica,sans-Serif" font-size="10.00">src/ph/Sort.cpp</text>
</a>
</g>
</g>
<!-- Node1&#45;&gt;Node7 -->
<g id="edge6" class="edge"><title>Node1&#45;&gt;Node7</title>
<path fill="none" stroke="midnightblue" d="M560.088,-51.4526C578.549,-41.4835 603.097,-28.2279 618.973,-19.6545"/>
<polygon fill="midnightblue" stroke="midnightblue" points="558.203,-48.4928 551.067,-56.324 561.529,-54.6521 558.203,-48.4928"/>
</g>
<!-- Node8 -->
<g id="node8" class="node"><title>Node8</title>
<g id="a_node8"><a xlink:href="Area_8cpp_source.html" target="_top" xlink:title="src/ui/Area.cpp">
<polygon fill="white" stroke="black" points="694.5,-0.5 694.5,-19.5 777.5,-19.5 777.5,-0.5 694.5,-0.5"/>
<text text-anchor="middle" x="736" y="-7.5" font-family="Helvetica,sans-Serif" font-size="10.00">src/ui/Area.cpp</text>
</a>
</g>
</g>
<!-- Node1&#45;&gt;Node8 -->
<g id="edge7" class="edge"><title>Node1&#45;&gt;Node8</title>
<path fill="none" stroke="midnightblue" d="M576.581,-53.8291C614.531,-43.6333 669.81,-28.7823 704.3,-19.5164"/>
<polygon fill="midnightblue" stroke="midnightblue" points="575.598,-50.4688 566.849,-56.4435 577.415,-57.229 575.598,-50.4688"/>
</g>
<!-- Node9 -->
<g id="node9" class="node"><title>Node9</title>
<g id="a_node9"><a xlink:href="MainWindow_8cpp_source.html" target="_top" xlink:title="src/ui/MainWindow.cpp">
<polygon fill="white" stroke="black" points="795.5,-0.5 795.5,-19.5 914.5,-19.5 914.5,-0.5 795.5,-0.5"/>
<text text-anchor="middle" x="855" y="-7.5" font-family="Helvetica,sans-Serif" font-size="10.00">src/ui/MainWindow.cpp</text>
</a>
</g>
</g>
<!-- Node1&#45;&gt;Node9 -->
<g id="edge8" class="edge"><title>Node1&#45;&gt;Node9</title>
<path fill="none" stroke="midnightblue" d="M595.874,-54.7275C656.345,-44.523 747.988,-29.0583 804.532,-19.5164"/>
<polygon fill="midnightblue" stroke="midnightblue" points="594.983,-51.3283 585.705,-56.4435 596.148,-58.2307 594.983,-51.3283"/>
</g>
<!-- Node10 -->
<g id="node10" class="node"><title>Node10</title>
<g id="a_node10"><a xlink:href="TextArea_8cpp_source.html" target="_top" xlink:title="src/ui/TextArea.cpp">
<polygon fill="white" stroke="black" points="933,-0.5 933,-19.5 1035,-19.5 1035,-0.5 933,-0.5"/>
<text text-anchor="middle" x="984" y="-7.5" font-family="Helvetica,sans-Serif" font-size="10.00">src/ui/TextArea.cpp</text>
</a>
</g>
</g>
<!-- Node1&#45;&gt;Node10 -->
<g id="edge9" class="edge"><title>Node1&#45;&gt;Node10</title>
<path fill="none" stroke="midnightblue" d="M600.886,-58.0631C678.32,-49.7518 810.645,-35.0537 924,-20 926.924,-19.6117 929.925,-19.2007 932.953,-18.7766"/>
<polygon fill="midnightblue" stroke="midnightblue" points="600.365,-54.5988 590.795,-59.1434 601.11,-61.559 600.365,-54.5988"/>
</g>
</g>
</svg>
