<?xml version="1.0" encoding="UTF-8" standalone="no"?>
<!DOCTYPE svg PUBLIC "-//W3C//DTD SVG 1.1//EN"
 "http://www.w3.org/Graphics/SVG/1.1/DTD/svg11.dtd">
<!-- Generated by graphviz version 2.38.0 (20140413.2041)
 -->
<!-- Title: headers/GAction.h Pages: 1 -->
<svg width="1259pt" height="364pt"
 viewBox="0.00 0.00 1258.50 364.00" xmlns="http://www.w3.org/2000/svg" xmlns:xlink="http://www.w3.org/1999/xlink">
<g id="graph0" class="graph" transform="scale(1 1) rotate(0) translate(4 360)">
<title>headers/GAction.h</title>
<polygon fill="white" stroke="none" points="-4,4 -4,-360 1254.5,-360 1254.5,4 -4,4"/>
<!-- Node1 -->
<g id="node1" class="node"><title>Node1</title>
<polygon fill="#bfbfbf" stroke="black" points="718.5,-336.5 718.5,-355.5 816.5,-355.5 816.5,-336.5 718.5,-336.5"/>
<text text-anchor="middle" x="767.5" y="-343.5" font-family="Helvetica,sans-Serif" font-size="10.00">headers/GAction.h</text>
</g>
<!-- Node2 -->
<g id="node2" class="node"><title>Node2</title>
<g id="a_node2"><a xlink:href="PHScene_8h.html" target="_top" xlink:title="header for the PHScene class ">
<polygon fill="white" stroke="black" points="715.5,-280.5 715.5,-299.5 819.5,-299.5 819.5,-280.5 715.5,-280.5"/>
<text text-anchor="middle" x="767.5" y="-287.5" font-family="Helvetica,sans-Serif" font-size="10.00">headers/PHScene.h</text>
</a>
</g>
</g>
<!-- Node1&#45;&gt;Node2 -->
<g id="edge1" class="edge"><title>Node1&#45;&gt;Node2</title>
<path fill="none" stroke="midnightblue" d="M761.028,-326.101C760.396,-317.136 760.843,-306.858 762.369,-299.751"/>
<polygon fill="midnightblue" stroke="midnightblue" points="757.566,-326.622 762.334,-336.083 764.507,-325.713 757.566,-326.622"/>
</g>
<!-- Node4 -->
<g id="node4" class="node"><title>Node4</title>
<g id="a_node4"><a xlink:href="Action_8h.html" target="_top" xlink:title="header for the Action class ">
<polygon fill="white" stroke="black" points="180.5,-168.5 180.5,-187.5 270.5,-187.5 270.5,-168.5 180.5,-168.5"/>
<text text-anchor="middle" x="225.5" y="-175.5" font-family="Helvetica,sans-Serif" font-size="10.00">headers/Action.h</text>
</a>
</g>
</g>
<!-- Node1&#45;&gt;Node4 -->
<g id="edge46" class="edge"><title>Node1&#45;&gt;Node4</title>
<path fill="none" stroke="midnightblue" d="M718.822,-333.971C684.342,-325.11 637.365,-312.177 596.5,-300 462.467,-260.06 303.36,-207.813 246.621,-187.549"/>
<polygon fill="midnightblue" stroke="midnightblue" points="718.095,-337.397 728.649,-336.471 719.821,-330.613 718.095,-337.397"/>
</g>
<!-- Node29 -->
<g id="node29" class="node"><title>Node29</title>
<g id="a_node29"><a xlink:href="TikzEditor_8h_source.html" target="_top" xlink:title="headers/TikzEditor.h">
<polygon fill="white" stroke="black" points="289,-168.5 289,-187.5 396,-187.5 396,-168.5 289,-168.5"/>
<text text-anchor="middle" x="342.5" y="-175.5" font-family="Helvetica,sans-Serif" font-size="10.00">headers/TikzEditor.h</text>
</a>
</g>
</g>
<!-- Node1&#45;&gt;Node29 -->
<g id="edge47" class="edge"><title>Node1&#45;&gt;Node29</title>
<path fill="none" stroke="midnightblue" d="M735.998,-332.696C653.806,-300.593 434.383,-214.888 364.324,-187.524"/>
<polygon fill="midnightblue" stroke="midnightblue" points="734.957,-336.047 745.545,-336.425 737.504,-329.526 734.957,-336.047"/>
</g>
<!-- Node30 -->
<g id="node30" class="node"><title>Node30</title>
<g id="a_node30"><a xlink:href="GAction_8cpp_source.html" target="_top" xlink:title="src/gfx/GAction.cpp">
<polygon fill="white" stroke="black" points="1146.5,-280.5 1146.5,-299.5 1250.5,-299.5 1250.5,-280.5 1146.5,-280.5"/>
<text text-anchor="middle" x="1198.5" y="-287.5" font-family="Helvetica,sans-Serif" font-size="10.00">src/gfx/GAction.cpp</text>
</a>
</g>
</g>
<!-- Node1&#45;&gt;Node30 -->
<g id="edge50" class="edge"><title>Node1&#45;&gt;Node30</title>
<path fill="none" stroke="midnightblue" d="M826.788,-337.928C899.027,-329.256 1024.78,-313.985 1132.5,-300 1136.97,-299.419 1141.61,-298.807 1146.27,-298.185"/>
<polygon fill="midnightblue" stroke="midnightblue" points="826.039,-334.493 816.527,-339.159 826.872,-341.443 826.039,-334.493"/>
</g>
<!-- Node2&#45;&gt;Node1 -->
<g id="edge43" class="edge"><title>Node2&#45;&gt;Node1</title>
<path fill="none" stroke="midnightblue" d="M773.958,-309.691C774.606,-318.635 774.176,-328.927 772.666,-336.083"/>
<polygon fill="midnightblue" stroke="midnightblue" points="777.423,-309.2 772.631,-299.751 770.485,-310.126 777.423,-309.2"/>
</g>
<!-- Node3 -->
<g id="node3" class="node"><title>Node3</title>
<g id="a_node3"><a xlink:href="PH_8h.html" target="_top" xlink:title="header for the PH class ">
<polygon fill="white" stroke="black" points="638,-224.5 638,-243.5 715,-243.5 715,-224.5 638,-224.5"/>
<text text-anchor="middle" x="676.5" y="-231.5" font-family="Helvetica,sans-Serif" font-size="10.00">headers/PH.h</text>
</a>
</g>
</g>
<!-- Node2&#45;&gt;Node3 -->
<g id="edge2" class="edge"><title>Node2&#45;&gt;Node3</title>
<path fill="none" stroke="midnightblue" d="M744.206,-275.177C727.461,-265.241 705.4,-252.149 691.084,-243.655"/>
<polygon fill="midnightblue" stroke="midnightblue" points="742.493,-278.231 752.879,-280.324 746.066,-272.211 742.493,-278.231"/>
</g>
<!-- Node7 -->
<g id="node7" class="node"><title>Node7</title>
<g id="a_node7"><a xlink:href="GSort_8h.html" target="_top" xlink:title="header for the GSort class ">
<polygon fill="white" stroke="black" points="1071.5,-112.5 1071.5,-131.5 1159.5,-131.5 1159.5,-112.5 1071.5,-112.5"/>
<text text-anchor="middle" x="1115.5" y="-119.5" font-family="Helvetica,sans-Serif" font-size="10.00">headers/GSort.h</text>
</a>
</g>
</g>
<!-- Node2&#45;&gt;Node7 -->
<g id="edge44" class="edge"><title>Node2&#45;&gt;Node7</title>
<path fill="none" stroke="midnightblue" d="M827.402,-278.41C890.085,-265.157 989.242,-237.885 1061.5,-188 1083.71,-172.663 1101.89,-145.794 1110.36,-131.893"/>
<polygon fill="midnightblue" stroke="midnightblue" points="826.372,-275.048 817.283,-280.494 827.784,-281.904 826.372,-275.048"/>
</g>
<!-- Node28 -->
<g id="node28" class="node"><title>Node28</title>
<g id="a_node28"><a xlink:href="PHScene_8cpp_source.html" target="_top" xlink:title="src/gfx/PHScene.cpp">
<polygon fill="white" stroke="black" points="942.5,-168.5 942.5,-187.5 1052.5,-187.5 1052.5,-168.5 942.5,-168.5"/>
<text text-anchor="middle" x="997.5" y="-175.5" font-family="Helvetica,sans-Serif" font-size="10.00">src/gfx/PHScene.cpp</text>
</a>
</g>
</g>
<!-- Node2&#45;&gt;Node28 -->
<g id="edge45" class="edge"><title>Node2&#45;&gt;Node28</title>
<path fill="none" stroke="midnightblue" d="M794.637,-276.021C842.205,-253.272 939.392,-206.791 979.536,-187.591"/>
<polygon fill="midnightblue" stroke="midnightblue" points="793.059,-272.896 785.548,-280.368 796.079,-279.211 793.059,-272.896"/>
</g>
<!-- Node3&#45;&gt;Node4 -->
<g id="edge3" class="edge"><title>Node3&#45;&gt;Node4</title>
<path fill="none" stroke="midnightblue" d="M627.683,-228.839C551.121,-221.652 398.767,-205.946 270.5,-188 269.37,-187.842 268.228,-187.679 267.078,-187.512"/>
<polygon fill="midnightblue" stroke="midnightblue" points="627.691,-232.355 637.972,-229.796 628.339,-225.385 627.691,-232.355"/>
</g>
<!-- Node6 -->
<g id="node6" class="node"><title>Node6</title>
<g id="a_node6"><a xlink:href="GProcess_8h.html" target="_top" xlink:title="header for the GProcess class ">
<polygon fill="white" stroke="black" points="818.5,-168.5 818.5,-187.5 924.5,-187.5 924.5,-168.5 818.5,-168.5"/>
<text text-anchor="middle" x="871.5" y="-175.5" font-family="Helvetica,sans-Serif" font-size="10.00">headers/GProcess.h</text>
</a>
</g>
</g>
<!-- Node3&#45;&gt;Node6 -->
<g id="edge7" class="edge"><title>Node3&#45;&gt;Node6</title>
<path fill="none" stroke="midnightblue" d="M717.31,-221.699C754.113,-211.507 807.429,-196.743 840.746,-187.516"/>
<polygon fill="midnightblue" stroke="midnightblue" points="716.102,-218.402 707.398,-224.444 717.97,-225.148 716.102,-218.402"/>
</g>
<!-- Node10 -->
<g id="node10" class="node"><title>Node10</title>
<g id="a_node10"><a xlink:href="MyArea_8h.html" target="_top" xlink:title="header for the MyArea class ">
<polygon fill="white" stroke="black" points="666.5,-168.5 666.5,-187.5 762.5,-187.5 762.5,-168.5 666.5,-168.5"/>
<text text-anchor="middle" x="714.5" y="-175.5" font-family="Helvetica,sans-Serif" font-size="10.00">headers/MyArea.h</text>
</a>
</g>
</g>
<!-- Node3&#45;&gt;Node10 -->
<g id="edge12" class="edge"><title>Node3&#45;&gt;Node10</title>
<path fill="none" stroke="midnightblue" d="M688.565,-215.855C695.145,-206.505 703.011,-195.327 708.342,-187.751"/>
<polygon fill="midnightblue" stroke="midnightblue" points="685.668,-213.891 682.775,-224.083 691.392,-217.919 685.668,-213.891"/>
</g>
<!-- Node16 -->
<g id="node16" class="node"><title>Node16</title>
<g id="a_node16"><a xlink:href="TikzEditor_8cpp_source.html" target="_top" xlink:title="src/ui/TikzEditor.cpp">
<polygon fill="white" stroke="black" points="242,-0.5 242,-19.5 349,-19.5 349,-0.5 242,-0.5"/>
<text text-anchor="middle" x="295.5" y="-7.5" font-family="Helvetica,sans-Serif" font-size="10.00">src/ui/TikzEditor.cpp</text>
</a>
</g>
</g>
<!-- Node3&#45;&gt;Node16 -->
<g id="edge42" class="edge"><title>Node3&#45;&gt;Node16</title>
<path fill="none" stroke="midnightblue" d="M631.279,-222.026C513.725,-193.052 205.737,-114.12 178.5,-76 157.426,-46.5061 205.482,-28.8209 246.242,-19.5048"/>
<polygon fill="midnightblue" stroke="midnightblue" points="630.514,-225.442 641.061,-224.43 632.185,-218.644 630.514,-225.442"/>
</g>
<!-- Node19 -->
<g id="node19" class="node"><title>Node19</title>
<g id="a_node19"><a xlink:href="PHIO_8h.html" target="_top" xlink:title="header for the PHIO class ">
<polygon fill="white" stroke="black" points="807,-56.5 807,-75.5 894,-75.5 894,-56.5 807,-56.5"/>
<text text-anchor="middle" x="850.5" y="-63.5" font-family="Helvetica,sans-Serif" font-size="10.00">headers/PHIO.h</text>
</a>
</g>
</g>
<!-- Node3&#45;&gt;Node19 -->
<g id="edge38" class="edge"><title>Node3&#45;&gt;Node19</title>
<path fill="none" stroke="midnightblue" d="M666.2,-215.306C652.785,-189.671 633.693,-141.996 657.5,-112 662.232,-106.037 752.683,-86.8081 808.057,-75.5077"/>
<polygon fill="midnightblue" stroke="midnightblue" points="663.239,-217.185 671.129,-224.257 669.371,-213.809 663.239,-217.185"/>
</g>
<!-- Node21 -->
<g id="node21" class="node"><title>Node21</title>
<g id="a_node21"><a xlink:href="Main2_8cpp_source.html" target="_top" xlink:title="src/Main2.cpp">
<polygon fill="white" stroke="black" points="1164.5,-0.5 1164.5,-19.5 1242.5,-19.5 1242.5,-0.5 1164.5,-0.5"/>
<text text-anchor="middle" x="1203.5" y="-7.5" font-family="Helvetica,sans-Serif" font-size="10.00">src/Main2.cpp</text>
</a>
</g>
</g>
<!-- Node3&#45;&gt;Node21 -->
<g id="edge40" class="edge"><title>Node3&#45;&gt;Node21</title>
<path fill="none" stroke="midnightblue" d="M704.458,-220.134C723.462,-211.296 749.118,-199.185 771.5,-188 788.572,-179.469 792.307,-176.286 809.5,-168 845.355,-150.72 855.645,-149.28 891.5,-132 908.693,-123.714 912.113,-119.871 929.5,-112 970.255,-93.5495 982.745,-94.4505 1023.5,-76 1040.89,-68.1288 1043.89,-63.3562 1061.5,-56 1098.13,-40.6993 1141.89,-27.5686 1171.05,-19.5066"/>
<polygon fill="midnightblue" stroke="midnightblue" points="702.78,-217.054 695.179,-224.435 705.724,-223.405 702.78,-217.054"/>
</g>
<!-- Node24 -->
<g id="node24" class="node"><title>Node24</title>
<g id="a_node24"><a xlink:href="PH_8cpp_source.html" target="_top" xlink:title="src/ph/PH.cpp">
<polygon fill="white" stroke="black" points="187.5,-56.5 187.5,-75.5 267.5,-75.5 267.5,-56.5 187.5,-56.5"/>
<text text-anchor="middle" x="227.5" y="-63.5" font-family="Helvetica,sans-Serif" font-size="10.00">src/ph/PH.cpp</text>
</a>
</g>
</g>
<!-- Node3&#45;&gt;Node24 -->
<g id="edge41" class="edge"><title>Node3&#45;&gt;Node24</title>
<path fill="none" stroke="midnightblue" d="M643.747,-220.891C557.33,-188.942 324.722,-102.944 250.556,-75.5241"/>
<polygon fill="midnightblue" stroke="midnightblue" points="642.712,-224.24 653.305,-224.425 645.14,-217.674 642.712,-224.24"/>
</g>
<!-- Node3&#45;&gt;Node28 -->
<g id="edge39" class="edge"><title>Node3&#45;&gt;Node28</title>
<path fill="none" stroke="midnightblue" d="M725.172,-224.812C784.988,-214.75 886.001,-197.757 946.752,-187.537"/>
<polygon fill="midnightblue" stroke="midnightblue" points="724.501,-221.376 715.22,-226.486 725.662,-228.279 724.501,-221.376"/>
</g>
<!-- Node4&#45;&gt;Node1 -->
<g id="edge5" class="edge"><title>Node4&#45;&gt;Node1</title>
<path fill="none" stroke="midnightblue" d="M265.605,-190.605C336.221,-212.684 486.75,-261.932 614.5,-300 659.399,-313.379 711.676,-327.67 742.214,-336.471"/>
<polygon fill="midnightblue" stroke="midnightblue" points="266.366,-187.176 255.778,-187.549 264.288,-193.861 266.366,-187.176"/>
</g>
<!-- Node4&#45;&gt;Node3 -->
<g id="edge4" class="edge"><title>Node4&#45;&gt;Node3</title>
<path fill="none" stroke="midnightblue" d="M280.805,-186.881C283.413,-187.273 285.988,-187.649 288.5,-188 416.274,-205.877 567.95,-221.532 637.892,-228.756"/>
<polygon fill="midnightblue" stroke="midnightblue" points="281.064,-183.38 270.647,-185.312 279.996,-190.298 281.064,-183.38"/>
</g>
<!-- Node5 -->
<g id="node5" class="node"><title>Node5</title>
<g id="a_node5"><a xlink:href="Action_8cpp_source.html" target="_top" xlink:title="src/ph/Action.cpp">
<polygon fill="white" stroke="black" points="0,-112.5 0,-131.5 93,-131.5 93,-112.5 0,-112.5"/>
<text text-anchor="middle" x="46.5" y="-119.5" font-family="Helvetica,sans-Serif" font-size="10.00">src/ph/Action.cpp</text>
</a>
</g>
</g>
<!-- Node4&#45;&gt;Node5 -->
<g id="edge6" class="edge"><title>Node4&#45;&gt;Node5</title>
<path fill="none" stroke="midnightblue" d="M187.169,-165.436C153.42,-155.255 105.053,-140.664 74.7304,-131.516"/>
<polygon fill="midnightblue" stroke="midnightblue" points="186.552,-168.906 197.137,-168.444 188.574,-162.204 186.552,-168.906"/>
</g>
<!-- Node6&#45;&gt;Node7 -->
<g id="edge8" class="edge"><title>Node6&#45;&gt;Node7</title>
<path fill="none" stroke="midnightblue" d="M919.932,-166.281C966.041,-156.077 1034.53,-140.92 1077.02,-131.516"/>
<polygon fill="midnightblue" stroke="midnightblue" points="919.17,-162.865 910.163,-168.444 920.683,-169.7 919.17,-162.865"/>
</g>
<!-- Node9 -->
<g id="node9" class="node"><title>Node9</title>
<g id="a_node9"><a xlink:href="GProcess_8cpp_source.html" target="_top" xlink:title="src/gfx/GProcess.cpp">
<polygon fill="white" stroke="black" points="938.5,-112.5 938.5,-131.5 1050.5,-131.5 1050.5,-112.5 938.5,-112.5"/>
<text text-anchor="middle" x="994.5" y="-119.5" font-family="Helvetica,sans-Serif" font-size="10.00">src/gfx/GProcess.cpp</text>
</a>
</g>
</g>
<!-- Node6&#45;&gt;Node9 -->
<g id="edge11" class="edge"><title>Node6&#45;&gt;Node9</title>
<path fill="none" stroke="midnightblue" d="M900.273,-164.368C923.307,-154.255 954.984,-140.349 975.101,-131.516"/>
<polygon fill="midnightblue" stroke="midnightblue" points="898.739,-161.219 890.99,-168.444 901.553,-167.628 898.739,-161.219"/>
</g>
<!-- Node7&#45;&gt;Node1 -->
<g id="edge9" class="edge"><title>Node7&#45;&gt;Node1</title>
<path fill="none" stroke="midnightblue" d="M1111.02,-141.545C1106.85,-155.621 1099.44,-174.749 1087.5,-188 1008.78,-275.337 870.642,-319.515 804.645,-336.49"/>
<polygon fill="midnightblue" stroke="midnightblue" points="1114.49,-142.112 1113.69,-131.547 1107.73,-140.302 1114.49,-142.112"/>
</g>
<!-- Node8 -->
<g id="node8" class="node"><title>Node8</title>
<g id="a_node8"><a xlink:href="GSort_8cpp_source.html" target="_top" xlink:title="src/gfx/GSort.cpp">
<polygon fill="white" stroke="black" points="1070.5,-56.5 1070.5,-75.5 1164.5,-75.5 1164.5,-56.5 1070.5,-56.5"/>
<text text-anchor="middle" x="1117.5" y="-63.5" font-family="Helvetica,sans-Serif" font-size="10.00">src/gfx/GSort.cpp</text>
</a>
</g>
</g>
<!-- Node7&#45;&gt;Node8 -->
<g id="edge10" class="edge"><title>Node7&#45;&gt;Node8</title>
<path fill="none" stroke="midnightblue" d="M1116.21,-101.805C1116.54,-92.9102 1116.92,-82.7798 1117.18,-75.7511"/>
<polygon fill="midnightblue" stroke="midnightblue" points="1112.7,-101.96 1115.83,-112.083 1119.7,-102.219 1112.7,-101.96"/>
</g>
<!-- Node11 -->
<g id="node11" class="node"><title>Node11</title>
<g id="a_node11"><a xlink:href="TreeArea_8h_source.html" target="_top" xlink:title="headers/TreeArea.h">
<polygon fill="white" stroke="black" points="780.5,-112.5 780.5,-131.5 882.5,-131.5 882.5,-112.5 780.5,-112.5"/>
<text text-anchor="middle" x="831.5" y="-119.5" font-family="Helvetica,sans-Serif" font-size="10.00">headers/TreeArea.h</text>
</a>
</g>
</g>
<!-- Node10&#45;&gt;Node11 -->
<g id="edge13" class="edge"><title>Node10&#45;&gt;Node11</title>
<path fill="none" stroke="midnightblue" d="M742.164,-164.232C764.049,-154.131 793.997,-140.309 813.048,-131.516"/>
<polygon fill="midnightblue" stroke="midnightblue" points="740.652,-161.075 733.039,-168.444 743.585,-167.431 740.652,-161.075"/>
</g>
<!-- Node18 -->
<g id="node18" class="node"><title>Node18</title>
<g id="a_node18"><a xlink:href="MainWindow_8h.html" target="_top" xlink:title="header for the Main class ">
<polygon fill="white" stroke="black" points="491,-112.5 491,-131.5 610,-131.5 610,-112.5 491,-112.5"/>
<text text-anchor="middle" x="550.5" y="-119.5" font-family="Helvetica,sans-Serif" font-size="10.00">headers/MainWindow.h</text>
</a>
</g>
</g>
<!-- Node10&#45;&gt;Node18 -->
<g id="edge20" class="edge"><title>Node10&#45;&gt;Node18</title>
<path fill="none" stroke="midnightblue" d="M678.98,-165.304C648.078,-155.129 604.027,-140.625 576.365,-131.516"/>
<polygon fill="midnightblue" stroke="midnightblue" points="677.921,-168.64 688.514,-168.444 680.11,-161.992 677.921,-168.64"/>
</g>
<!-- Node27 -->
<g id="node27" class="node"><title>Node27</title>
<g id="a_node27"><a xlink:href="MyArea_8cpp_source.html" target="_top" xlink:title="src/ui/MyArea.cpp">
<polygon fill="white" stroke="black" points="666.5,-112.5 666.5,-131.5 762.5,-131.5 762.5,-112.5 666.5,-112.5"/>
<text text-anchor="middle" x="714.5" y="-119.5" font-family="Helvetica,sans-Serif" font-size="10.00">src/ui/MyArea.cpp</text>
</a>
</g>
</g>
<!-- Node10&#45;&gt;Node27 -->
<g id="edge37" class="edge"><title>Node10&#45;&gt;Node27</title>
<path fill="none" stroke="midnightblue" d="M714.5,-157.805C714.5,-148.91 714.5,-138.78 714.5,-131.751"/>
<polygon fill="midnightblue" stroke="midnightblue" points="711,-158.083 714.5,-168.083 718,-158.083 711,-158.083"/>
</g>
<!-- Node12 -->
<g id="node12" class="node"><title>Node12</title>
<g id="a_node12"><a xlink:href="Area_8h_source.html" target="_top" xlink:title="headers/Area.h">
<polygon fill="white" stroke="black" points="706,-56.5 706,-75.5 789,-75.5 789,-56.5 706,-56.5"/>
<text text-anchor="middle" x="747.5" y="-63.5" font-family="Helvetica,sans-Serif" font-size="10.00">headers/Area.h</text>
</a>
</g>
</g>
<!-- Node11&#45;&gt;Node12 -->
<g id="edge14" class="edge"><title>Node11&#45;&gt;Node12</title>
<path fill="none" stroke="midnightblue" d="M809.568,-106.901C794.165,-96.9986 774.054,-84.0705 760.963,-75.6545"/>
<polygon fill="midnightblue" stroke="midnightblue" points="807.699,-109.86 818.004,-112.324 811.485,-103.972 807.699,-109.86"/>
</g>
<!-- Node17 -->
<g id="node17" class="node"><title>Node17</title>
<g id="a_node17"><a xlink:href="TreeArea_8cpp_source.html" target="_top" xlink:title="src/ui/TreeArea.cpp">
<polygon fill="white" stroke="black" points="912.5,-56.5 912.5,-75.5 1014.5,-75.5 1014.5,-56.5 912.5,-56.5"/>
<text text-anchor="middle" x="963.5" y="-63.5" font-family="Helvetica,sans-Serif" font-size="10.00">src/ui/TreeArea.cpp</text>
</a>
</g>
</g>
<!-- Node11&#45;&gt;Node17 -->
<g id="edge19" class="edge"><title>Node11&#45;&gt;Node17</title>
<path fill="none" stroke="midnightblue" d="M861.719,-108.638C886.49,-98.504 920.9,-84.4274 942.682,-75.5164"/>
<polygon fill="midnightblue" stroke="midnightblue" points="860.346,-105.418 852.416,-112.444 862.997,-111.897 860.346,-105.418"/>
</g>
<!-- Node13 -->
<g id="node13" class="node"><title>Node13</title>
<g id="a_node13"><a xlink:href="PHIO_8cpp_source.html" target="_top" xlink:title="src/io/PHIO.cpp">
<polygon fill="white" stroke="black" points="704,-0.5 704,-19.5 791,-19.5 791,-0.5 704,-0.5"/>
<text text-anchor="middle" x="747.5" y="-7.5" font-family="Helvetica,sans-Serif" font-size="10.00">src/io/PHIO.cpp</text>
</a>
</g>
</g>
<!-- Node12&#45;&gt;Node13 -->
<g id="edge15" class="edge"><title>Node12&#45;&gt;Node13</title>
<path fill="none" stroke="midnightblue" d="M747.5,-45.8045C747.5,-36.9102 747.5,-26.7798 747.5,-19.7511"/>
<polygon fill="midnightblue" stroke="midnightblue" points="744,-46.083 747.5,-56.083 751,-46.083 744,-46.083"/>
</g>
<!-- Node14 -->
<g id="node14" class="node"><title>Node14</title>
<g id="a_node14"><a xlink:href="Area_8cpp_source.html" target="_top" xlink:title="src/ui/Area.cpp">
<polygon fill="white" stroke="black" points="809,-0.5 809,-19.5 892,-19.5 892,-0.5 809,-0.5"/>
<text text-anchor="middle" x="850.5" y="-7.5" font-family="Helvetica,sans-Serif" font-size="10.00">src/ui/Area.cpp</text>
</a>
</g>
</g>
<!-- Node12&#45;&gt;Node14 -->
<g id="edge16" class="edge"><title>Node12&#45;&gt;Node14</title>
<path fill="none" stroke="midnightblue" d="M773.079,-51.5895C792.123,-41.6052 817.564,-28.2672 833.992,-19.6545"/>
<polygon fill="midnightblue" stroke="midnightblue" points="771.28,-48.5808 764.049,-56.324 774.531,-54.7805 771.28,-48.5808"/>
</g>
<!-- Node15 -->
<g id="node15" class="node"><title>Node15</title>
<g id="a_node15"><a xlink:href="MainWindow_8cpp_source.html" target="_top" xlink:title="src/ui/MainWindow.cpp">
<polygon fill="white" stroke="black" points="567,-0.5 567,-19.5 686,-19.5 686,-0.5 567,-0.5"/>
<text text-anchor="middle" x="626.5" y="-7.5" font-family="Helvetica,sans-Serif" font-size="10.00">src/ui/MainWindow.cpp</text>
</a>
</g>
</g>
<!-- Node12&#45;&gt;Node15 -->
<g id="edge17" class="edge"><title>Node12&#45;&gt;Node15</title>
<path fill="none" stroke="midnightblue" d="M719.194,-52.3678C696.535,-42.2553 665.374,-28.3486 645.583,-19.5164"/>
<polygon fill="midnightblue" stroke="midnightblue" points="717.769,-55.5643 728.327,-56.4435 720.622,-49.1719 717.769,-55.5643"/>
</g>
<!-- Node12&#45;&gt;Node16 -->
<g id="edge18" class="edge"><title>Node12&#45;&gt;Node16</title>
<path fill="none" stroke="midnightblue" d="M695.694,-58.8108C609.337,-48.4938 436.814,-27.8827 349.209,-17.4166"/>
<polygon fill="midnightblue" stroke="midnightblue" points="695.442,-62.3055 705.787,-60.0166 696.273,-55.355 695.442,-62.3055"/>
</g>
<!-- Node18&#45;&gt;Node12 -->
<g id="edge21" class="edge"><title>Node18&#45;&gt;Node12</title>
<path fill="none" stroke="midnightblue" d="M591.729,-109.699C628.909,-99.507 682.771,-84.7429 716.431,-75.5164"/>
<polygon fill="midnightblue" stroke="midnightblue" points="590.434,-106.424 581.715,-112.444 592.285,-113.175 590.434,-106.424"/>
</g>
<!-- Node18&#45;&gt;Node15 -->
<g id="edge35" class="edge"><title>Node18&#45;&gt;Node15</title>
<path fill="none" stroke="midnightblue" d="M594.12,-108.849C610.347,-101.978 627.09,-91.5449 636.5,-76 647.261,-58.2237 637.667,-32.87 631.221,-19.6977"/>
<polygon fill="midnightblue" stroke="midnightblue" points="592.751,-105.625 584.684,-112.493 595.274,-112.155 592.751,-105.625"/>
</g>
<!-- Node18&#45;&gt;Node16 -->
<g id="edge36" class="edge"><title>Node18&#45;&gt;Node16</title>
<path fill="none" stroke="midnightblue" d="M480.679,-111.442C415.623,-101.937 326.827,-87.1974 314.5,-76 298.313,-61.2965 295.618,-33.646 295.354,-19.624"/>
<polygon fill="midnightblue" stroke="midnightblue" points="480.503,-114.953 490.901,-112.921 481.506,-108.025 480.503,-114.953"/>
</g>
<!-- Node18&#45;&gt;Node19 -->
<g id="edge22" class="edge"><title>Node18&#45;&gt;Node19</title>
<path fill="none" stroke="midnightblue" d="M608.132,-110.626C666.066,-100.198 754.102,-84.3516 806.603,-74.9015"/>
<polygon fill="midnightblue" stroke="midnightblue" points="607.258,-107.227 598.036,-112.444 608.498,-114.117 607.258,-107.227"/>
</g>
<!-- Node20 -->
<g id="node20" class="node"><title>Node20</title>
<g id="a_node20"><a xlink:href="Main_8cpp.html" target="_top" xlink:title="Principal Program. ">
<polygon fill="white" stroke="black" points="476,-0.5 476,-19.5 549,-19.5 549,-0.5 476,-0.5"/>
<text text-anchor="middle" x="512.5" y="-7.5" font-family="Helvetica,sans-Serif" font-size="10.00">src/Main.cpp</text>
</a>
</g>
</g>
<!-- Node18&#45;&gt;Node20 -->
<g id="edge31" class="edge"><title>Node18&#45;&gt;Node20</title>
<path fill="none" stroke="midnightblue" d="M582.018,-108.248C606.676,-96.3067 634.612,-77.1678 620.5,-56 611.486,-42.4792 571.552,-28.2813 542.869,-19.5342"/>
<polygon fill="midnightblue" stroke="midnightblue" points="580.455,-105.113 572.822,-112.461 583.371,-111.477 580.455,-105.113"/>
</g>
<!-- Node18&#45;&gt;Node24 -->
<g id="edge32" class="edge"><title>Node18&#45;&gt;Node24</title>
<path fill="none" stroke="midnightblue" d="M489.204,-110.752C424.183,-99.882 323.336,-83.0221 267.726,-73.7251"/>
<polygon fill="midnightblue" stroke="midnightblue" points="488.879,-114.247 499.32,-112.444 490.034,-107.342 488.879,-114.247"/>
</g>
<!-- Node25 -->
<g id="node25" class="node"><title>Node25</title>
<g id="a_node25"><a xlink:href="ConnectionSettings_8cpp_source.html" target="_top" xlink:title="src/ui/ConnectionSettings.cpp">
<polygon fill="white" stroke="black" points="323.5,-56.5 323.5,-75.5 471.5,-75.5 471.5,-56.5 323.5,-56.5"/>
<text text-anchor="middle" x="397.5" y="-63.5" font-family="Helvetica,sans-Serif" font-size="10.00">src/ui/ConnectionSettings.cpp</text>
</a>
</g>
</g>
<!-- Node18&#45;&gt;Node25 -->
<g id="edge33" class="edge"><title>Node18&#45;&gt;Node25</title>
<path fill="none" stroke="midnightblue" d="M516.611,-109.039C487.823,-98.8786 447.213,-84.5457 421.63,-75.5164"/>
<polygon fill="midnightblue" stroke="midnightblue" points="515.662,-112.416 526.257,-112.444 517.992,-105.815 515.662,-112.416"/>
</g>
<!-- Node26 -->
<g id="node26" class="node"><title>Node26</title>
<g id="a_node26"><a xlink:href="FunctionForm_8cpp_source.html" target="_top" xlink:title="src/ui/FunctionForm.cpp">
<polygon fill="white" stroke="black" points="489.5,-56.5 489.5,-75.5 611.5,-75.5 611.5,-56.5 489.5,-56.5"/>
<text text-anchor="middle" x="550.5" y="-63.5" font-family="Helvetica,sans-Serif" font-size="10.00">src/ui/FunctionForm.cpp</text>
</a>
</g>
</g>
<!-- Node18&#45;&gt;Node26 -->
<g id="edge34" class="edge"><title>Node18&#45;&gt;Node26</title>
<path fill="none" stroke="midnightblue" d="M550.5,-101.805C550.5,-92.9102 550.5,-82.7798 550.5,-75.7511"/>
<polygon fill="midnightblue" stroke="midnightblue" points="547,-102.083 550.5,-112.083 554,-102.083 547,-102.083"/>
</g>
<!-- Node19&#45;&gt;Node13 -->
<g id="edge23" class="edge"><title>Node19&#45;&gt;Node13</title>
<path fill="none" stroke="midnightblue" d="M824.921,-51.5895C805.877,-41.6052 780.436,-28.2672 764.008,-19.6545"/>
<polygon fill="midnightblue" stroke="midnightblue" points="823.469,-54.7805 833.951,-56.324 826.72,-48.5808 823.469,-54.7805"/>
</g>
<!-- Node19&#45;&gt;Node14 -->
<g id="edge27" class="edge"><title>Node19&#45;&gt;Node14</title>
<path fill="none" stroke="midnightblue" d="M850.5,-45.8045C850.5,-36.9102 850.5,-26.7798 850.5,-19.7511"/>
<polygon fill="midnightblue" stroke="midnightblue" points="847,-46.083 850.5,-56.083 854,-46.083 847,-46.083"/>
</g>
<!-- Node19&#45;&gt;Node15 -->
<g id="edge28" class="edge"><title>Node19&#45;&gt;Node15</title>
<path fill="none" stroke="midnightblue" d="M805.237,-54.0884C762.918,-43.8865 700.591,-28.8612 661.827,-19.5164"/>
<polygon fill="midnightblue" stroke="midnightblue" points="804.465,-57.5024 815.007,-56.4435 806.105,-50.6974 804.465,-57.5024"/>
</g>
<!-- Node19&#45;&gt;Node16 -->
<g id="edge30" class="edge"><title>Node19&#45;&gt;Node16</title>
<path fill="none" stroke="midnightblue" d="M796.762,-56.0083C627.266,-34.3687 439.336,-20.4617 349.143,-14.4149"/>
<polygon fill="midnightblue" stroke="midnightblue" points="796.503,-59.5038 806.868,-57.3107 797.398,-52.5612 796.503,-59.5038"/>
</g>
<!-- Node19&#45;&gt;Node20 -->
<g id="edge24" class="edge"><title>Node19&#45;&gt;Node20</title>
<path fill="none" stroke="midnightblue" d="M796.88,-55.9328C689.329,-38.9322 660.635,-38.0376 557.5,-20 554.832,-19.5333 552.078,-19.0319 549.31,-18.5131"/>
<polygon fill="midnightblue" stroke="midnightblue" points="796.413,-59.4023 806.838,-57.5171 797.512,-52.4893 796.413,-59.4023"/>
</g>
<!-- Node19&#45;&gt;Node21 -->
<g id="edge25" class="edge"><title>Node19&#45;&gt;Node21</title>
<path fill="none" stroke="midnightblue" d="M904.23,-55.9261C1016.97,-38.5078 1047.04,-37.9074 1155.5,-20 1158.43,-19.5166 1161.45,-18.9972 1164.49,-18.4606"/>
<polygon fill="midnightblue" stroke="midnightblue" points="903.501,-52.4973 894.158,-57.4928 904.577,-59.4141 903.501,-52.4973"/>
</g>
<!-- Node22 -->
<g id="node22" class="node"><title>Node22</title>
<g id="a_node22"><a xlink:href="PHIOTest_8cpp_source.html" target="_top" xlink:title="src/test/PHIOTest.cpp">
<polygon fill="white" stroke="black" points="910.5,-0.5 910.5,-19.5 1026.5,-19.5 1026.5,-0.5 910.5,-0.5"/>
<text text-anchor="middle" x="968.5" y="-7.5" font-family="Helvetica,sans-Serif" font-size="10.00">src/test/PHIOTest.cpp</text>
</a>
</g>
</g>
<!-- Node19&#45;&gt;Node22 -->
<g id="edge26" class="edge"><title>Node19&#45;&gt;Node22</title>
<path fill="none" stroke="midnightblue" d="M878.4,-52.2321C900.473,-42.1312 930.676,-28.3091 949.89,-19.5164"/>
<polygon fill="midnightblue" stroke="midnightblue" points="876.834,-49.0997 869.197,-56.4435 879.747,-55.4648 876.834,-49.0997"/>
</g>
<!-- Node23 -->
<g id="node23" class="node"><title>Node23</title>
<g id="a_node23"><a xlink:href="TextArea_8cpp_source.html" target="_top" xlink:title="src/ui/TextArea.cpp">
<polygon fill="white" stroke="black" points="1044.5,-0.5 1044.5,-19.5 1146.5,-19.5 1146.5,-0.5 1044.5,-0.5"/>
<text text-anchor="middle" x="1095.5" y="-7.5" font-family="Helvetica,sans-Serif" font-size="10.00">src/ui/TextArea.cpp</text>
</a>
</g>
</g>
<!-- Node19&#45;&gt;Node23 -->
<g id="edge29" class="edge"><title>Node19&#45;&gt;Node23</title>
<path fill="none" stroke="midnightblue" d="M899.13,-54.2815C945.429,-44.0769 1014.19,-28.9203 1056.86,-19.5164"/>
<polygon fill="midnightblue" stroke="midnightblue" points="898.333,-50.8731 889.321,-56.4435 899.84,-57.709 898.333,-50.8731"/>
</g>
<!-- Node29&#45;&gt;Node16 -->
<g id="edge49" class="edge"><title>Node29&#45;&gt;Node16</title>
<path fill="none" stroke="midnightblue" d="M288.763,-165.857C241.814,-152.97 176.465,-126.673 145.5,-76 121.23,-36.2827 189.616,-20.7772 241.903,-14.7621"/>
<polygon fill="midnightblue" stroke="midnightblue" points="287.922,-169.255 298.483,-168.407 289.699,-162.484 287.922,-169.255"/>
</g>
<!-- Node29&#45;&gt;Node18 -->
<g id="edge48" class="edge"><title>Node29&#45;&gt;Node18</title>
<path fill="none" stroke="midnightblue" d="M385.278,-165.894C424.558,-155.697 481.929,-140.802 517.696,-131.516"/>
<polygon fill="midnightblue" stroke="midnightblue" points="384.258,-162.543 375.458,-168.444 386.017,-169.318 384.258,-162.543"/>
</g>
</g>
</svg>
