<?xml version="1.0" encoding="UTF-8" standalone="no"?>
<!DOCTYPE svg PUBLIC "-//W3C//DTD SVG 1.1//EN"
 "http://www.w3.org/Graphics/SVG/1.1/DTD/svg11.dtd">
<!-- Generated by graphviz version 2.38.0 (20140413.2041)
 -->
<!-- Title: headers/GAction.h Pages: 1 -->
<svg width="1805pt" height="364pt"
 viewBox="0.00 0.00 1805.00 364.00" xmlns="http://www.w3.org/2000/svg" xmlns:xlink="http://www.w3.org/1999/xlink">
<g id="graph0" class="graph" transform="scale(1 1) rotate(0) translate(4 360)">
<title>headers/GAction.h</title>
<polygon fill="white" stroke="none" points="-4,4 -4,-360 1801,-360 1801,4 -4,4"/>
<!-- Node1 -->
<g id="node1" class="node"><title>Node1</title>
<polygon fill="#bfbfbf" stroke="black" points="936,-336.5 936,-355.5 1034,-355.5 1034,-336.5 936,-336.5"/>
<text text-anchor="middle" x="985" y="-343.5" font-family="Helvetica,sans-Serif" font-size="10.00">headers/GAction.h</text>
</g>
<!-- Node2 -->
<g id="node2" class="node"><title>Node2</title>
<polygon fill="white" stroke="#bfbfbf" points="1119.5,-168.5 1119.5,-187.5 1202.5,-187.5 1202.5,-168.5 1119.5,-168.5"/>
<text text-anchor="middle" x="1161" y="-175.5" font-family="Helvetica,sans-Serif" font-size="10.00">QGraphicsItem</text>
</g>
<!-- Node1&#45;&gt;Node2 -->
<g id="edge1" class="edge"><title>Node1&#45;&gt;Node2</title>
<path fill="none" stroke="midnightblue" d="M992.941,-336.495C1011.89,-316.325 1061.5,-264.268 1106,-224 1117.55,-213.548 1131.08,-202.461 1141.84,-193.907"/>
<polygon fill="midnightblue" stroke="midnightblue" points="1144.09,-196.59 1149.77,-187.65 1139.75,-191.093 1144.09,-196.59"/>
</g>
<!-- Node3 -->
<g id="node3" class="node"><title>Node3</title>
<polygon fill="white" stroke="#bfbfbf" points="1621,-280.5 1621,-299.5 1739,-299.5 1739,-280.5 1621,-280.5"/>
<text text-anchor="middle" x="1680" y="-287.5" font-family="Helvetica,sans-Serif" font-size="10.00">QGraphicsPolygonItem</text>
</g>
<!-- Node1&#45;&gt;Node3 -->
<g id="edge2" class="edge"><title>Node1&#45;&gt;Node3</title>
<path fill="none" stroke="midnightblue" d="M1034.26,-342.283C1139.53,-336.291 1394.18,-320.804 1607,-300 1608.11,-299.891 1609.23,-299.78 1610.36,-299.665"/>
<polygon fill="midnightblue" stroke="midnightblue" points="1611.09,-303.107 1620.67,-298.569 1610.35,-296.146 1611.09,-303.107"/>
</g>
<!-- Node4 -->
<g id="node4" class="node"><title>Node4</title>
<polygon fill="white" stroke="#bfbfbf" points="1418.5,-0.5 1418.5,-19.5 1447.5,-19.5 1447.5,-0.5 1418.5,-0.5"/>
<text text-anchor="middle" x="1433" y="-7.5" font-family="Helvetica,sans-Serif" font-size="10.00">list</text>
</g>
<!-- Node1&#45;&gt;Node4 -->
<g id="edge3" class="edge"><title>Node1&#45;&gt;Node4</title>
<path fill="none" stroke="midnightblue" d="M1034.24,-341.285C1178.98,-329.71 1593,-291.652 1593,-235 1593,-235 1593,-235 1593,-121 1593,-56.0888 1502.47,-26.5916 1457.61,-15.9585"/>
<polygon fill="midnightblue" stroke="midnightblue" points="1458.29,-12.5249 1447.77,-13.7564 1456.76,-19.3559 1458.29,-12.5249"/>
</g>
<!-- Node5 -->
<g id="node5" class="node"><title>Node5</title>
<polygon fill="white" stroke="#bfbfbf" points="1757,-280.5 1757,-299.5 1797,-299.5 1797,-280.5 1757,-280.5"/>
<text text-anchor="middle" x="1777" y="-287.5" font-family="Helvetica,sans-Serif" font-size="10.00">utility</text>
</g>
<!-- Node1&#45;&gt;Node5 -->
<g id="edge4" class="edge"><title>Node1&#45;&gt;Node5</title>
<path fill="none" stroke="midnightblue" d="M1034.15,-343.655C1176.95,-339.506 1590.94,-325.72 1746.56,-299.739"/>
<polygon fill="midnightblue" stroke="midnightblue" points="1747.63,-303.106 1756.87,-297.929 1746.42,-296.211 1747.63,-303.106"/>
</g>
<!-- Node6 -->
<g id="node6" class="node"><title>Node6</title>
<g id="a_node6"><a xlink:href="GVEdge_8h.html" target="_top" xlink:title="header for the GVEdge class ">
<polygon fill="white" stroke="black" points="66,-56.5 66,-75.5 128,-75.5 128,-56.5 66,-56.5"/>
<text text-anchor="middle" x="97" y="-63.5" font-family="Helvetica,sans-Serif" font-size="10.00">GVEdge.h</text>
</a>
</g>
</g>
<!-- Node1&#45;&gt;Node6 -->
<g id="edge5" class="edge"><title>Node1&#45;&gt;Node6</title>
<path fill="none" stroke="midnightblue" d="M935.749,-344.509C741.363,-341.93 38,-326.292 38,-235 38,-235 38,-235 38,-177 38,-140.024 64.2094,-103.472 81.6909,-83.2051"/>
<polygon fill="midnightblue" stroke="midnightblue" points="84.4746,-85.3434 88.5467,-75.5623 79.2639,-80.6691 84.4746,-85.3434"/>
</g>
<!-- Node7 -->
<g id="node7" class="node"><title>Node7</title>
<polygon fill="white" stroke="#bfbfbf" points="14.5,-0.5 14.5,-19.5 61.5,-19.5 61.5,-0.5 14.5,-0.5"/>
<text text-anchor="middle" x="38" y="-7.5" font-family="Helvetica,sans-Serif" font-size="10.00">QPoint</text>
</g>
<!-- Node1&#45;&gt;Node7 -->
<g id="edge70" class="edge"><title>Node1&#45;&gt;Node7</title>
<path fill="none" stroke="midnightblue" d="M935.886,-345.382C775.969,-346.171 271.566,-344.943 116,-300 59.2242,-283.597 0,-294.098 0,-235 0,-235 0,-235 0,-121 0,-86.8131 16.6005,-49.7639 27.8573,-28.5707"/>
<polygon fill="midnightblue" stroke="midnightblue" points="30.9473,-30.2151 32.7163,-19.769 24.8191,-26.832 30.9473,-30.2151"/>
</g>
<!-- Node10 -->
<g id="node10" class="node"><title>Node10</title>
<g id="a_node10"><a xlink:href="PHScene_8h.html" target="_top" xlink:title="header for the PHScene class ">
<polygon fill="white" stroke="black" points="489.5,-112.5 489.5,-131.5 556.5,-131.5 556.5,-112.5 489.5,-112.5"/>
<text text-anchor="middle" x="523" y="-119.5" font-family="Helvetica,sans-Serif" font-size="10.00">PHScene.h</text>
</a>
</g>
</g>
<!-- Node1&#45;&gt;Node10 -->
<g id="edge9" class="edge"><title>Node1&#45;&gt;Node10</title>
<path fill="none" stroke="midnightblue" d="M935.726,-343.295C827.071,-338.906 574.856,-325.717 547,-300 502.249,-258.686 506.502,-177.727 515.056,-141.404"/>
<polygon fill="midnightblue" stroke="midnightblue" points="518.459,-142.232 517.8,-131.658 511.721,-140.336 518.459,-142.232"/>
</g>
<!-- Node16 -->
<g id="node16" class="node"><title>Node16</title>
<g id="a_node16"><a xlink:href="Action_8h.html" target="_top" xlink:title="header for the Action class ">
<polygon fill="white" stroke="black" points="929.5,-224.5 929.5,-243.5 982.5,-243.5 982.5,-224.5 929.5,-224.5"/>
<text text-anchor="middle" x="956" y="-231.5" font-family="Helvetica,sans-Serif" font-size="10.00">Action.h</text>
</a>
</g>
</g>
<!-- Node1&#45;&gt;Node16 -->
<g id="edge16" class="edge"><title>Node1&#45;&gt;Node16</title>
<path fill="none" stroke="midnightblue" d="M978.881,-336.368C970.853,-318.617 959.601,-277.666 955.692,-253.597"/>
<polygon fill="midnightblue" stroke="midnightblue" points="959.154,-253.074 954.43,-243.591 952.209,-253.951 959.154,-253.074"/>
</g>
<!-- Node17 -->
<g id="node17" class="node"><title>Node17</title>
<polygon fill="white" stroke="#bfbfbf" points="1047,-56.5 1047,-75.5 1091,-75.5 1091,-56.5 1047,-56.5"/>
<text text-anchor="middle" x="1069" y="-63.5" font-family="Helvetica,sans-Serif" font-size="10.00">vector</text>
</g>
<!-- Node1&#45;&gt;Node17 -->
<g id="edge71" class="edge"><title>Node1&#45;&gt;Node17</title>
<path fill="none" stroke="midnightblue" d="M976.961,-336.421C962.208,-320.018 931.292,-282.411 920,-244 910.313,-211.048 914.985,-196.602 934,-168 961.17,-127.133 1010.65,-96.4749 1041.57,-80.182"/>
<polygon fill="midnightblue" stroke="midnightblue" points="1043.22,-83.2682 1050.53,-75.5914 1040.03,-77.0392 1043.22,-83.2682"/>
</g>
<!-- Node28 -->
<g id="node28" class="node"><title>Node28</title>
<g id="a_node28"><a xlink:href="GSort_8h.html" target="_top" xlink:title="header for the GSort class ">
<polygon fill="white" stroke="black" points="1102,-280.5 1102,-299.5 1152,-299.5 1152,-280.5 1102,-280.5"/>
<text text-anchor="middle" x="1127" y="-287.5" font-family="Helvetica,sans-Serif" font-size="10.00">GSort.h</text>
</a>
</g>
</g>
<!-- Node1&#45;&gt;Node28 -->
<g id="edge50" class="edge"><title>Node1&#45;&gt;Node28</title>
<path fill="none" stroke="midnightblue" d="M1007.5,-336.444C1031.08,-327.478 1068.32,-313.314 1094.96,-303.183"/>
<polygon fill="midnightblue" stroke="midnightblue" points="1096.5,-306.342 1104.6,-299.516 1094.01,-299.8 1096.5,-306.342"/>
</g>
<!-- Node31 -->
<g id="node31" class="node"><title>Node31</title>
<polygon fill="white" stroke="#bfbfbf" points="1455.5,-224.5 1455.5,-243.5 1502.5,-243.5 1502.5,-224.5 1455.5,-224.5"/>
<text text-anchor="middle" x="1479" y="-231.5" font-family="Helvetica,sans-Serif" font-size="10.00">QColor</text>
</g>
<!-- Node1&#45;&gt;Node31 -->
<g id="edge68" class="edge"><title>Node1&#45;&gt;Node31</title>
<path fill="none" stroke="midnightblue" d="M1023.98,-336.463C1102.66,-319.204 1286.11,-278.836 1440,-244 1441.72,-243.61 1443.49,-243.208 1445.27,-242.801"/>
<polygon fill="midnightblue" stroke="midnightblue" points="1446.53,-246.104 1455.5,-240.457 1444.97,-239.281 1446.53,-246.104"/>
</g>
<!-- Node32 -->
<g id="node32" class="node"><title>Node32</title>
<polygon fill="white" stroke="#bfbfbf" points="1521,-224.5 1521,-243.5 1565,-243.5 1565,-224.5 1521,-224.5"/>
<text text-anchor="middle" x="1543" y="-231.5" font-family="Helvetica,sans-Serif" font-size="10.00">QSize</text>
</g>
<!-- Node1&#45;&gt;Node32 -->
<g id="edge69" class="edge"><title>Node1&#45;&gt;Node32</title>
<path fill="none" stroke="midnightblue" d="M1034.09,-337.507C1126.04,-323.055 1330.51,-288.963 1510.78,-244.167"/>
<polygon fill="midnightblue" stroke="midnightblue" points="1511.85,-247.507 1520.7,-241.684 1510.15,-240.716 1511.85,-247.507"/>
</g>
<!-- Node6&#45;&gt;Node7 -->
<g id="edge6" class="edge"><title>Node6&#45;&gt;Node7</title>
<path fill="none" stroke="midnightblue" d="M87.5206,-56.324C78.7989,-48.3414 65.6565,-36.3128 55.1022,-26.6529"/>
<polygon fill="midnightblue" stroke="midnightblue" points="57.3917,-24.0036 47.6519,-19.8339 52.6655,-29.1674 57.3917,-24.0036"/>
</g>
<!-- Node8 -->
<g id="node8" class="node"><title>Node8</title>
<polygon fill="white" stroke="#bfbfbf" points="333,-0.5 333,-19.5 383,-19.5 383,-0.5 333,-0.5"/>
<text text-anchor="middle" x="358" y="-7.5" font-family="Helvetica,sans-Serif" font-size="10.00">QString</text>
</g>
<!-- Node6&#45;&gt;Node8 -->
<g id="edge7" class="edge"><title>Node6&#45;&gt;Node8</title>
<path fill="none" stroke="midnightblue" d="M128.43,-57.8647C131.325,-57.2265 134.216,-56.5966 137,-56 202.573,-41.9487 279.324,-26.5571 322.946,-17.9078"/>
<polygon fill="midnightblue" stroke="midnightblue" points="323.646,-21.3372 332.776,-15.9617 322.287,-14.4705 323.646,-21.3372"/>
</g>
<!-- Node9 -->
<g id="node9" class="node"><title>Node9</title>
<polygon fill="white" stroke="#bfbfbf" points="79.5,-0.5 79.5,-19.5 154.5,-19.5 154.5,-0.5 79.5,-0.5"/>
<text text-anchor="middle" x="117" y="-7.5" font-family="Helvetica,sans-Serif" font-size="10.00">QPainterPath</text>
</g>
<!-- Node6&#45;&gt;Node9 -->
<g id="edge8" class="edge"><title>Node6&#45;&gt;Node9</title>
<path fill="none" stroke="midnightblue" d="M100.303,-56.083C102.982,-48.8486 106.849,-38.4087 110.186,-29.3968"/>
<polygon fill="midnightblue" stroke="midnightblue" points="113.568,-30.3442 113.759,-19.7511 107.004,-27.9129 113.568,-30.3442"/>
</g>
<!-- Node10&#45;&gt;Node1 -->
<g id="edge15" class="edge"><title>Node10&#45;&gt;Node1</title>
<path fill="none" stroke="midnightblue" d="M525.137,-131.658C525.907,-160.553 515.62,-254.412 565,-300 591.219,-324.206 816.206,-337.313 925.732,-342.429"/>
<polygon fill="midnightblue" stroke="midnightblue" points="925.81,-345.937 935.96,-342.9 926.132,-338.944 925.81,-345.937"/>
</g>
<!-- Node11 -->
<g id="node11" class="node"><title>Node11</title>
<polygon fill="white" stroke="#bfbfbf" points="946,-0.5 946,-19.5 1054,-19.5 1054,-0.5 946,-0.5"/>
<text text-anchor="middle" x="1000" y="-7.5" font-family="Helvetica,sans-Serif" font-size="10.00">boost/shared_ptr.hpp</text>
</g>
<!-- Node10&#45;&gt;Node11 -->
<g id="edge10" class="edge"><title>Node10&#45;&gt;Node11</title>
<path fill="none" stroke="midnightblue" d="M508.393,-112.384C488.359,-99.5334 456.701,-74.8421 474,-56 504.659,-22.6065 802.095,-13.951 935.647,-11.7418"/>
<polygon fill="midnightblue" stroke="midnightblue" points="935.801,-15.2399 945.744,-11.5819 935.69,-8.24078 935.801,-15.2399"/>
</g>
<!-- Node12 -->
<g id="node12" class="node"><title>Node12</title>
<polygon fill="white" stroke="#bfbfbf" points="146.5,-56.5 146.5,-75.5 199.5,-75.5 199.5,-56.5 146.5,-56.5"/>
<text text-anchor="middle" x="173" y="-63.5" font-family="Helvetica,sans-Serif" font-size="10.00">QObject</text>
</g>
<!-- Node10&#45;&gt;Node12 -->
<g id="edge11" class="edge"><title>Node10&#45;&gt;Node12</title>
<path fill="none" stroke="midnightblue" d="M489.228,-117.409C433.093,-111.173 316.894,-97.1366 209.695,-76.1674"/>
<polygon fill="midnightblue" stroke="midnightblue" points="210.173,-72.6942 199.684,-74.1833 208.812,-79.5606 210.173,-72.6942"/>
</g>
<!-- Node13 -->
<g id="node13" class="node"><title>Node13</title>
<polygon fill="white" stroke="#bfbfbf" points="217.5,-56.5 217.5,-75.5 308.5,-75.5 308.5,-56.5 217.5,-56.5"/>
<text text-anchor="middle" x="263" y="-63.5" font-family="Helvetica,sans-Serif" font-size="10.00">QGraphicsScene</text>
</g>
<!-- Node10&#45;&gt;Node13 -->
<g id="edge12" class="edge"><title>Node10&#45;&gt;Node13</title>
<path fill="none" stroke="midnightblue" d="M489.276,-113.996C444.706,-104.739 365.788,-88.3483 313.933,-77.5784"/>
<polygon fill="midnightblue" stroke="midnightblue" points="314.444,-74.1099 303.941,-75.5032 313.021,-80.9637 314.444,-74.1099"/>
</g>
<!-- Node14 -->
<g id="node14" class="node"><title>Node14</title>
<polygon fill="white" stroke="#bfbfbf" points="483.5,-56.5 483.5,-75.5 518.5,-75.5 518.5,-56.5 483.5,-56.5"/>
<text text-anchor="middle" x="501" y="-63.5" font-family="Helvetica,sans-Serif" font-size="10.00">map</text>
</g>
<!-- Node10&#45;&gt;Node14 -->
<g id="edge13" class="edge"><title>Node10&#45;&gt;Node14</title>
<path fill="none" stroke="midnightblue" d="M519.367,-112.083C516.388,-104.77 512.074,-94.1814 508.375,-85.1034"/>
<polygon fill="midnightblue" stroke="midnightblue" points="511.58,-83.6914 504.565,-75.7511 505.097,-86.3326 511.58,-83.6914"/>
</g>
<!-- Node15 -->
<g id="node15" class="node"><title>Node15</title>
<polygon fill="white" stroke="#bfbfbf" points="602.5,-0.5 602.5,-19.5 643.5,-19.5 643.5,-0.5 602.5,-0.5"/>
<text text-anchor="middle" x="623" y="-7.5" font-family="Helvetica,sans-Serif" font-size="10.00">string</text>
</g>
<!-- Node10&#45;&gt;Node15 -->
<g id="edge14" class="edge"><title>Node10&#45;&gt;Node15</title>
<path fill="none" stroke="midnightblue" d="M495.819,-112.448C465.123,-101.367 421.795,-80.5318 441,-56 459.428,-32.4607 545.117,-19.5333 592.053,-14.1084"/>
<polygon fill="midnightblue" stroke="midnightblue" points="592.712,-17.5568 602.265,-12.9758 591.941,-10.5994 592.712,-17.5568"/>
</g>
<!-- Node16&#45;&gt;Node1 -->
<g id="edge49" class="edge"><title>Node16&#45;&gt;Node1</title>
<path fill="none" stroke="midnightblue" d="M962.1,-243.591C970.124,-261.308 981.379,-302.254 985.299,-326.348"/>
<polygon fill="midnightblue" stroke="midnightblue" points="981.839,-326.887 986.567,-336.368 988.784,-326.008 981.839,-326.887"/>
</g>
<!-- Node16&#45;&gt;Node11 -->
<g id="edge17" class="edge"><title>Node16&#45;&gt;Node11</title>
<path fill="none" stroke="midnightblue" d="M950.362,-224.481C944.946,-215.745 937.136,-201.556 934,-188 931.996,-179.34 932.243,-176.714 934,-168 944.723,-114.823 973.975,-57.2286 989.69,-28.8612"/>
<polygon fill="midnightblue" stroke="midnightblue" points="992.94,-30.2237 994.808,-19.7948 986.844,-26.7826 992.94,-30.2237"/>
</g>
<!-- Node16&#45;&gt;Node15 -->
<g id="edge18" class="edge"><title>Node16&#45;&gt;Node15</title>
<path fill="none" stroke="midnightblue" d="M929.239,-230.294C873.367,-223.385 742.734,-200.501 661,-132 630.582,-106.507 624.16,-56.9264 623.023,-29.8169"/>
<polygon fill="midnightblue" stroke="midnightblue" points="626.519,-29.6321 622.804,-19.7101 619.521,-29.7834 626.519,-29.6321"/>
</g>
<!-- Node16&#45;&gt;Node17 -->
<g id="edge19" class="edge"><title>Node16&#45;&gt;Node17</title>
<path fill="none" stroke="midnightblue" d="M963.341,-224.302C970.692,-215.428 982.151,-201.133 991,-188 1012.81,-155.632 1013.42,-144.52 1035,-112 1041.36,-102.414 1049.05,-92.1474 1055.5,-83.8447"/>
<polygon fill="midnightblue" stroke="midnightblue" points="1058.45,-85.7509 1061.9,-75.7313 1052.96,-81.4166 1058.45,-85.7509"/>
</g>
<!-- Node18 -->
<g id="node18" class="node"><title>Node18</title>
<g id="a_node18"><a xlink:href="PH_8h.html" target="_top" xlink:title="header for the PH class ">
<polygon fill="white" stroke="black" points="943.5,-168.5 943.5,-187.5 982.5,-187.5 982.5,-168.5 943.5,-168.5"/>
<text text-anchor="middle" x="963" y="-175.5" font-family="Helvetica,sans-Serif" font-size="10.00">PH.h</text>
</a>
</g>
</g>
<!-- Node16&#45;&gt;Node18 -->
<g id="edge20" class="edge"><title>Node16&#45;&gt;Node18</title>
<path fill="none" stroke="midnightblue" d="M951.99,-224.083C951.408,-216.927 952.311,-206.635 954.12,-197.691"/>
<polygon fill="midnightblue" stroke="midnightblue" points="957.575,-198.313 956.735,-187.751 950.805,-196.532 957.575,-198.313"/>
</g>
<!-- Node18&#45;&gt;Node4 -->
<g id="edge21" class="edge"><title>Node18&#45;&gt;Node4</title>
<path fill="none" stroke="midnightblue" d="M982.619,-175.168C1028.67,-170.582 1147.03,-157.137 1243,-132 1312.65,-113.758 1339.81,-122.236 1395,-76 1409.84,-63.5705 1420.22,-43.7755 1426.34,-29.2927"/>
<polygon fill="midnightblue" stroke="midnightblue" points="1429.65,-30.4544 1430.05,-19.8672 1423.13,-27.8931 1429.65,-30.4544"/>
</g>
<!-- Node18&#45;&gt;Node10 -->
<g id="edge38" class="edge"><title>Node18&#45;&gt;Node10</title>
<path fill="none" stroke="midnightblue" d="M943.239,-174.575C876.754,-166.415 660.108,-139.827 566.61,-128.352"/>
<polygon fill="midnightblue" stroke="midnightblue" points="566.981,-124.871 556.629,-127.127 566.128,-131.819 566.981,-124.871"/>
</g>
<!-- Node18&#45;&gt;Node11 -->
<g id="edge24" class="edge"><title>Node18&#45;&gt;Node11</title>
<path fill="none" stroke="midnightblue" d="M966.525,-168.261C973.328,-150.97 988.198,-111.03 995,-76 997.97,-60.7039 999.192,-43.0612 999.687,-30.0195"/>
<polygon fill="midnightblue" stroke="midnightblue" points="1003.19,-30.0088 999.96,-19.9177 996.191,-29.8194 1003.19,-30.0088"/>
</g>
<!-- Node18&#45;&gt;Node14 -->
<g id="edge22" class="edge"><title>Node18&#45;&gt;Node14</title>
<path fill="none" stroke="midnightblue" d="M943.371,-176.094C893.133,-173.372 756.171,-163.411 647,-132 602.636,-119.235 554.267,-95.6062 525.839,-80.6269"/>
<polygon fill="midnightblue" stroke="midnightblue" points="527.124,-77.3454 516.654,-75.7213 523.826,-83.5198 527.124,-77.3454"/>
</g>
<!-- Node18&#45;&gt;Node15 -->
<g id="edge23" class="edge"><title>Node18&#45;&gt;Node15</title>
<path fill="none" stroke="midnightblue" d="M943.196,-175.497C888.021,-171.036 733.741,-156.626 690,-132 661.435,-115.918 657.615,-104.822 642,-76 634.124,-61.4631 629.168,-43.2833 626.3,-29.8492"/>
<polygon fill="midnightblue" stroke="midnightblue" points="629.704,-29.0159 624.364,-19.865 622.832,-30.3484 629.704,-29.0159"/>
</g>
<!-- Node18&#45;&gt;Node16 -->
<g id="edge26" class="edge"><title>Node18&#45;&gt;Node16</title>
<path fill="none" stroke="midnightblue" d="M966.997,-187.751C967.608,-194.936 966.697,-205.362 964.863,-214.396"/>
<polygon fill="midnightblue" stroke="midnightblue" points="961.474,-213.522 962.322,-224.083 968.245,-215.298 961.474,-213.522"/>
</g>
<!-- Node19 -->
<g id="node19" class="node"><title>Node19</title>
<polygon fill="white" stroke="#bfbfbf" points="1108.5,-56.5 1108.5,-75.5 1229.5,-75.5 1229.5,-56.5 1108.5,-56.5"/>
<text text-anchor="middle" x="1169" y="-63.5" font-family="Helvetica,sans-Serif" font-size="10.00">boost/make_shared.hpp</text>
</g>
<!-- Node18&#45;&gt;Node19 -->
<g id="edge25" class="edge"><title>Node18&#45;&gt;Node19</title>
<path fill="none" stroke="midnightblue" d="M979.164,-168.368C1014.97,-149.251 1101.15,-103.229 1143.98,-80.361"/>
<polygon fill="midnightblue" stroke="midnightblue" points="1145.74,-83.3892 1152.91,-75.5914 1142.44,-77.2144 1145.74,-83.3892"/>
</g>
<!-- Node20 -->
<g id="node20" class="node"><title>Node20</title>
<g id="a_node20"><a xlink:href="GVSkeletonGraph_8h.html" target="_top" xlink:title="header for the GVSkeletonGraph class ">
<polygon fill="white" stroke="black" points="699,-112.5 699,-131.5 803,-131.5 803,-112.5 699,-112.5"/>
<text text-anchor="middle" x="751" y="-119.5" font-family="Helvetica,sans-Serif" font-size="10.00">GVSkeletonGraph.h</text>
</a>
</g>
</g>
<!-- Node18&#45;&gt;Node20 -->
<g id="edge27" class="edge"><title>Node18&#45;&gt;Node20</title>
<path fill="none" stroke="midnightblue" d="M943.436,-172.017C909.796,-163.448 840.218,-145.725 794.595,-134.104"/>
<polygon fill="midnightblue" stroke="midnightblue" points="795.234,-130.656 784.68,-131.579 793.506,-137.439 795.234,-130.656"/>
</g>
<!-- Node26 -->
<g id="node26" class="node"><title>Node26</title>
<g id="a_node26"><a xlink:href="Sort_8h.html" target="_top" xlink:title="header for the Sort class ">
<polygon fill="white" stroke="black" points="1191.5,-112.5 1191.5,-131.5 1234.5,-131.5 1234.5,-112.5 1191.5,-112.5"/>
<text text-anchor="middle" x="1213" y="-119.5" font-family="Helvetica,sans-Serif" font-size="10.00">Sort.h</text>
</a>
</g>
</g>
<!-- Node18&#45;&gt;Node26 -->
<g id="edge39" class="edge"><title>Node18&#45;&gt;Node26</title>
<path fill="none" stroke="midnightblue" d="M982.617,-172.763C1025.69,-163.458 1128.87,-141.171 1181.29,-129.85"/>
<polygon fill="midnightblue" stroke="midnightblue" points="1182.32,-133.207 1191.36,-127.674 1180.85,-126.364 1182.32,-133.207"/>
</g>
<!-- Node20&#45;&gt;Node6 -->
<g id="edge37" class="edge"><title>Node20&#45;&gt;Node6</title>
<path fill="none" stroke="midnightblue" d="M698.64,-118.164C574.205,-111.267 262.514,-93.0284 138.377,-75.9543"/>
<polygon fill="midnightblue" stroke="midnightblue" points="138.756,-72.473 128.36,-74.5174 137.762,-79.402 138.756,-72.473"/>
</g>
<!-- Node20&#45;&gt;Node8 -->
<g id="edge33" class="edge"><title>Node20&#45;&gt;Node8</title>
<path fill="none" stroke="midnightblue" d="M722.416,-112.485C679.893,-99.8682 597.416,-75.5889 527,-56 480.874,-43.1682 427.451,-29.0706 393.221,-20.1352"/>
<polygon fill="midnightblue" stroke="midnightblue" points="393.803,-16.6701 383.244,-17.535 392.038,-23.4438 393.803,-16.6701"/>
</g>
<!-- Node20&#45;&gt;Node11 -->
<g id="edge29" class="edge"><title>Node20&#45;&gt;Node11</title>
<path fill="none" stroke="midnightblue" d="M803.226,-113.562C838.502,-107.073 885.326,-95.5416 923,-76 947.372,-63.3586 970.8,-41.7885 985.282,-26.9878"/>
<polygon fill="midnightblue" stroke="midnightblue" points="987.993,-29.2161 992.356,-19.5614 982.924,-24.3879 987.993,-29.2161"/>
</g>
<!-- Node21 -->
<g id="node21" class="node"><title>Node21</title>
<polygon fill="white" stroke="#bfbfbf" points="711,-56.5 711,-75.5 791,-75.5 791,-56.5 711,-56.5"/>
<text text-anchor="middle" x="751" y="-63.5" font-family="Helvetica,sans-Serif" font-size="10.00">graphviz/gvc.h</text>
</g>
<!-- Node20&#45;&gt;Node21 -->
<g id="edge28" class="edge"><title>Node20&#45;&gt;Node21</title>
<path fill="none" stroke="midnightblue" d="M751,-112.083C751,-105.006 751,-94.8611 751,-85.9865"/>
<polygon fill="midnightblue" stroke="midnightblue" points="754.5,-85.751 751,-75.7511 747.5,-85.7511 754.5,-85.751"/>
</g>
<!-- Node22 -->
<g id="node22" class="node"><title>Node22</title>
<polygon fill="white" stroke="#bfbfbf" points="809,-56.5 809,-75.5 853,-75.5 853,-56.5 809,-56.5"/>
<text text-anchor="middle" x="831" y="-63.5" font-family="Helvetica,sans-Serif" font-size="10.00">QFont</text>
</g>
<!-- Node20&#45;&gt;Node22 -->
<g id="edge30" class="edge"><title>Node20&#45;&gt;Node22</title>
<path fill="none" stroke="midnightblue" d="M763.853,-112.324C776.216,-103.979 795.13,-91.2122 809.737,-81.3524"/>
<polygon fill="midnightblue" stroke="midnightblue" points="811.848,-84.1503 818.179,-75.6545 807.932,-78.3483 811.848,-84.1503"/>
</g>
<!-- Node23 -->
<g id="node23" class="node"><title>Node23</title>
<polygon fill="white" stroke="#bfbfbf" points="871.5,-56.5 871.5,-75.5 914.5,-75.5 914.5,-56.5 871.5,-56.5"/>
<text text-anchor="middle" x="893" y="-63.5" font-family="Helvetica,sans-Serif" font-size="10.00">QMap</text>
</g>
<!-- Node20&#45;&gt;Node23 -->
<g id="edge31" class="edge"><title>Node20&#45;&gt;Node23</title>
<path fill="none" stroke="midnightblue" d="M773.5,-112.444C797.216,-103.425 834.761,-89.1472 861.433,-79.0043"/>
<polygon fill="midnightblue" stroke="midnightblue" points="862.969,-82.165 871.072,-75.339 860.48,-75.6221 862.969,-82.165"/>
</g>
<!-- Node24 -->
<g id="node24" class="node"><title>Node24</title>
<polygon fill="white" stroke="#bfbfbf" points="651.5,-56.5 651.5,-75.5 692.5,-75.5 692.5,-56.5 651.5,-56.5"/>
<text text-anchor="middle" x="672" y="-63.5" font-family="Helvetica,sans-Serif" font-size="10.00">QPair</text>
</g>
<!-- Node20&#45;&gt;Node24 -->
<g id="edge32" class="edge"><title>Node20&#45;&gt;Node24</title>
<path fill="none" stroke="midnightblue" d="M738.307,-112.324C726.099,-103.979 707.422,-91.2122 692.997,-81.3524"/>
<polygon fill="midnightblue" stroke="midnightblue" points="694.892,-78.4082 684.661,-75.6545 690.942,-84.1871 694.892,-78.4082"/>
</g>
<!-- Node25 -->
<g id="node25" class="node"><title>Node25</title>
<g id="a_node25"><a xlink:href="GVNode_8h.html" target="_top" xlink:title="header for the GVNode class ">
<polygon fill="white" stroke="black" points="327,-56.5 327,-75.5 389,-75.5 389,-56.5 327,-56.5"/>
<text text-anchor="middle" x="358" y="-63.5" font-family="Helvetica,sans-Serif" font-size="10.00">GVNode.h</text>
</a>
</g>
</g>
<!-- Node20&#45;&gt;Node25 -->
<g id="edge34" class="edge"><title>Node20&#45;&gt;Node25</title>
<path fill="none" stroke="midnightblue" d="M698.813,-113.829C619.707,-102.96 471.057,-82.5346 399.101,-72.6474"/>
<polygon fill="midnightblue" stroke="midnightblue" points="399.441,-69.1614 389.058,-71.2675 398.488,-76.0963 399.441,-69.1614"/>
</g>
<!-- Node25&#45;&gt;Node7 -->
<g id="edge35" class="edge"><title>Node25&#45;&gt;Node7</title>
<path fill="none" stroke="midnightblue" d="M326.707,-57.8899C323.436,-57.2188 320.154,-56.5753 317,-56 211.06,-36.6776 180.301,-42.6808 71.728,-20.1484"/>
<polygon fill="midnightblue" stroke="midnightblue" points="72.1877,-16.6684 61.6806,-18.0287 70.7428,-23.5176 72.1877,-16.6684"/>
</g>
<!-- Node25&#45;&gt;Node8 -->
<g id="edge36" class="edge"><title>Node25&#45;&gt;Node8</title>
<path fill="none" stroke="midnightblue" d="M358,-56.083C358,-49.0059 358,-38.8611 358,-29.9865"/>
<polygon fill="midnightblue" stroke="midnightblue" points="361.5,-29.751 358,-19.7511 354.5,-29.7511 361.5,-29.751"/>
</g>
<!-- Node26&#45;&gt;Node11 -->
<g id="edge42" class="edge"><title>Node26&#45;&gt;Node11</title>
<path fill="none" stroke="midnightblue" d="M1230.98,-112.336C1254.17,-100.032 1289.55,-76.6885 1272,-56 1245.92,-25.2528 1136.38,-15.4857 1064.51,-12.4012"/>
<polygon fill="midnightblue" stroke="midnightblue" points="1064.33,-8.89123 1054.2,-11.9929 1064.05,-15.8858 1064.33,-8.89123"/>
</g>
<!-- Node26&#45;&gt;Node15 -->
<g id="edge40" class="edge"><title>Node26&#45;&gt;Node15</title>
<path fill="none" stroke="midnightblue" d="M1221.41,-112.334C1233.6,-98.7449 1253.15,-72.2947 1238,-56 1217.9,-34.3782 775.799,-16.6061 653.887,-12.1035"/>
<polygon fill="midnightblue" stroke="midnightblue" points="653.866,-8.60051 643.744,-11.7324 653.609,-15.5958 653.866,-8.60051"/>
</g>
<!-- Node26&#45;&gt;Node17 -->
<g id="edge41" class="edge"><title>Node26&#45;&gt;Node17</title>
<path fill="none" stroke="midnightblue" d="M1191.44,-112.916C1167.4,-103.901 1128.29,-89.2342 1100.75,-78.9072"/>
<polygon fill="midnightblue" stroke="midnightblue" points="1101.77,-75.5515 1091.18,-75.3173 1099.31,-82.1058 1101.77,-75.5515"/>
</g>
<!-- Node26&#45;&gt;Node19 -->
<g id="edge43" class="edge"><title>Node26&#45;&gt;Node19</title>
<path fill="none" stroke="midnightblue" d="M1205.73,-112.083C1199.46,-104.377 1190.21,-93.0333 1182.57,-83.6531"/>
<polygon fill="midnightblue" stroke="midnightblue" points="1185.16,-81.2926 1176.13,-75.7511 1179.73,-85.7143 1185.16,-81.2926"/>
</g>
<!-- Node27 -->
<g id="node27" class="node"><title>Node27</title>
<g id="a_node27"><a xlink:href="Process_8h.html" target="_top" xlink:title="header for the Process class ">
<polygon fill="white" stroke="black" points="1324.5,-56.5 1324.5,-75.5 1385.5,-75.5 1385.5,-56.5 1324.5,-56.5"/>
<text text-anchor="middle" x="1355" y="-63.5" font-family="Helvetica,sans-Serif" font-size="10.00">Process.h</text>
</a>
</g>
</g>
<!-- Node26&#45;&gt;Node27 -->
<g id="edge44" class="edge"><title>Node26&#45;&gt;Node27</title>
<path fill="none" stroke="midnightblue" d="M1230.41,-112.444C1252.21,-103.399 1289.7,-89.064 1317.96,-78.9158"/>
<polygon fill="midnightblue" stroke="midnightblue" points="1319.27,-82.1622 1327.52,-75.5164 1316.93,-75.5661 1319.27,-82.1622"/>
</g>
<!-- Node27&#45;&gt;Node4 -->
<g id="edge47" class="edge"><title>Node27&#45;&gt;Node4</title>
<path fill="none" stroke="midnightblue" d="M1367.53,-56.324C1379.59,-47.979 1398.03,-35.2122 1412.27,-25.3524"/>
<polygon fill="midnightblue" stroke="midnightblue" points="1414.27,-28.2243 1420.5,-19.6545 1410.28,-22.469 1414.27,-28.2243"/>
</g>
<!-- Node27&#45;&gt;Node11 -->
<g id="edge45" class="edge"><title>Node27&#45;&gt;Node11</title>
<path fill="none" stroke="midnightblue" d="M1324.06,-58.5859C1319.35,-57.6768 1314.55,-56.7853 1310,-56 1225.35,-41.4012 1127.14,-27.6859 1064.33,-19.3217"/>
<polygon fill="midnightblue" stroke="midnightblue" points="1064.55,-15.8205 1054.18,-17.9753 1063.63,-22.7597 1064.55,-15.8205"/>
</g>
<!-- Node27&#45;&gt;Node15 -->
<g id="edge46" class="edge"><title>Node27&#45;&gt;Node15</title>
<path fill="none" stroke="midnightblue" d="M1324.28,-61.382C1308.64,-59.6131 1289.32,-57.5393 1272,-56 1034.47,-34.8946 747.277,-17.9925 653.92,-12.7169"/>
<polygon fill="midnightblue" stroke="midnightblue" points="653.939,-9.21251 643.758,-12.1454 653.545,-16.2015 653.939,-9.21251"/>
</g>
<!-- Node27&#45;&gt;Node26 -->
<g id="edge48" class="edge"><title>Node27&#45;&gt;Node26</title>
<path fill="none" stroke="midnightblue" d="M1337.3,-75.6774C1313.92,-85.3645 1272.86,-101.009 1244.26,-111.148"/>
<polygon fill="midnightblue" stroke="midnightblue" points="1243,-107.882 1234.71,-114.486 1245.31,-114.49 1243,-107.882"/>
</g>
<!-- Node28&#45;&gt;Node7 -->
<g id="edge55" class="edge"><title>Node28&#45;&gt;Node7</title>
<path fill="none" stroke="midnightblue" d="M1101.97,-288.036C1032.63,-285.043 832.413,-274.23 669,-244 391.644,-192.691 258.084,-273.798 57,-76 44.8309,-64.0298 40.3537,-44.7301 38.7577,-30.2648"/>
<polygon fill="midnightblue" stroke="midnightblue" points="42.2224,-29.6514 38.0036,-19.9327 35.2409,-30.161 42.2224,-29.6514"/>
</g>
<!-- Node28&#45;&gt;Node10 -->
<g id="edge67" class="edge"><title>Node28&#45;&gt;Node10</title>
<path fill="none" stroke="midnightblue" d="M1101.96,-286.881C1027.88,-279.99 804.165,-254.677 632,-188 598.711,-175.108 563.898,-152.498 542.824,-137.635"/>
<polygon fill="midnightblue" stroke="midnightblue" points="544.585,-134.591 534.42,-131.602 540.503,-140.277 544.585,-134.591"/>
</g>
<!-- Node28&#45;&gt;Node17 -->
<g id="edge57" class="edge"><title>Node28&#45;&gt;Node17</title>
<path fill="none" stroke="midnightblue" d="M1120.87,-280.48C1114.88,-271.744 1105.97,-257.554 1101,-244 1080.71,-188.661 1072.95,-118.707 1070.26,-85.7715"/>
<polygon fill="midnightblue" stroke="midnightblue" points="1073.75,-85.4617 1069.52,-75.7501 1066.77,-85.983 1073.75,-85.4617"/>
</g>
<!-- Node28&#45;&gt;Node25 -->
<g id="edge59" class="edge"><title>Node28&#45;&gt;Node25</title>
<path fill="none" stroke="midnightblue" d="M1101.81,-288.106C1039.7,-285.463 874.572,-275.763 741,-244 670.553,-227.248 654.277,-217.17 588,-188 510.035,-153.686 421.974,-104.175 381.111,-80.5443"/>
<polygon fill="midnightblue" stroke="midnightblue" points="382.854,-77.5088 372.449,-75.5127 379.338,-83.5619 382.854,-77.5088"/>
</g>
<!-- Node28&#45;&gt;Node26 -->
<g id="edge58" class="edge"><title>Node28&#45;&gt;Node26</title>
<path fill="none" stroke="midnightblue" d="M1121.62,-280.443C1116.44,-271.678 1108.99,-257.467 1106,-244 1101.8,-225.073 1104.18,-176.238 1110,-168 1126.38,-144.815 1157.4,-133.449 1181.14,-127.956"/>
<polygon fill="midnightblue" stroke="midnightblue" points="1182.05,-131.343 1191.13,-125.884 1180.62,-124.489 1182.05,-131.343"/>
</g>
<!-- Node29 -->
<g id="node29" class="node"><title>Node29</title>
<polygon fill="white" stroke="#bfbfbf" points="1115,-224.5 1115,-243.5 1219,-243.5 1219,-224.5 1115,-224.5"/>
<text text-anchor="middle" x="1167" y="-231.5" font-family="Helvetica,sans-Serif" font-size="10.00">QGraphicsRectItem</text>
</g>
<!-- Node28&#45;&gt;Node29 -->
<g id="edge51" class="edge"><title>Node28&#45;&gt;Node29</title>
<path fill="none" stroke="midnightblue" d="M1133.61,-280.083C1139.26,-272.455 1147.54,-261.264 1154.45,-251.941"/>
<polygon fill="midnightblue" stroke="midnightblue" points="1157.38,-253.87 1160.52,-243.751 1151.75,-249.703 1157.38,-253.87"/>
</g>
<!-- Node30 -->
<g id="node30" class="node"><title>Node30</title>
<polygon fill="white" stroke="#bfbfbf" points="1463,-168.5 1463,-187.5 1565,-187.5 1565,-168.5 1463,-168.5"/>
<text text-anchor="middle" x="1514" y="-175.5" font-family="Helvetica,sans-Serif" font-size="10.00">QGraphicsTextItem</text>
</g>
<!-- Node28&#45;&gt;Node30 -->
<g id="edge52" class="edge"><title>Node28&#45;&gt;Node30</title>
<path fill="none" stroke="midnightblue" d="M1152.26,-288.231C1202.49,-286 1317.88,-277.351 1408,-244 1425.4,-237.561 1467.22,-210.464 1492.83,-193.354"/>
<polygon fill="midnightblue" stroke="midnightblue" points="1495.1,-196.041 1501.45,-187.559 1491.2,-190.231 1495.1,-196.041"/>
</g>
<!-- Node28&#45;&gt;Node31 -->
<g id="edge53" class="edge"><title>Node28&#45;&gt;Node31</title>
<path fill="none" stroke="midnightblue" d="M1152.36,-286.153C1205.93,-279.967 1334.41,-264.217 1441,-244 1442.46,-243.724 1443.94,-243.429 1445.44,-243.121"/>
<polygon fill="midnightblue" stroke="midnightblue" points="1446.33,-246.508 1455.35,-240.949 1444.84,-239.67 1446.33,-246.508"/>
</g>
<!-- Node28&#45;&gt;Node32 -->
<g id="edge54" class="edge"><title>Node28&#45;&gt;Node32</title>
<path fill="none" stroke="midnightblue" d="M1152.45,-287.493C1213.02,-283.597 1370.48,-271.645 1510.7,-243.958"/>
<polygon fill="midnightblue" stroke="midnightblue" points="1511.64,-247.337 1520.76,-241.937 1510.27,-240.474 1511.64,-247.337"/>
</g>
<!-- Node33 -->
<g id="node33" class="node"><title>Node33</title>
<polygon fill="white" stroke="#bfbfbf" points="1237.5,-224.5 1237.5,-243.5 1312.5,-243.5 1312.5,-224.5 1237.5,-224.5"/>
<text text-anchor="middle" x="1275" y="-231.5" font-family="Helvetica,sans-Serif" font-size="10.00">QColorDialog</text>
</g>
<!-- Node28&#45;&gt;Node33 -->
<g id="edge56" class="edge"><title>Node28&#45;&gt;Node33</title>
<path fill="none" stroke="midnightblue" d="M1150.45,-280.444C1175.13,-271.438 1214.19,-257.189 1241.98,-247.049"/>
<polygon fill="midnightblue" stroke="midnightblue" points="1243.46,-250.232 1251.66,-243.516 1241.06,-243.656 1243.46,-250.232"/>
</g>
<!-- Node34 -->
<g id="node34" class="node"><title>Node34</title>
<g id="a_node34"><a xlink:href="GProcess_8h.html" target="_top" xlink:title="header for the GProcess class ">
<polygon fill="white" stroke="black" points="1331,-224.5 1331,-243.5 1399,-243.5 1399,-224.5 1331,-224.5"/>
<text text-anchor="middle" x="1365" y="-231.5" font-family="Helvetica,sans-Serif" font-size="10.00">GProcess.h</text>
</a>
</g>
</g>
<!-- Node28&#45;&gt;Node34 -->
<g id="edge60" class="edge"><title>Node28&#45;&gt;Node34</title>
<path fill="none" stroke="midnightblue" d="M1152.02,-283.323C1192.1,-274.228 1271.25,-256.272 1320.96,-244.993"/>
<polygon fill="midnightblue" stroke="midnightblue" points="1321.81,-248.388 1330.79,-242.762 1320.26,-241.562 1321.81,-248.388"/>
</g>
<!-- Node34&#45;&gt;Node2 -->
<g id="edge61" class="edge"><title>Node34&#45;&gt;Node2</title>
<path fill="none" stroke="midnightblue" d="M1332.68,-224.444C1297.61,-215.162 1241.5,-200.309 1203.04,-190.127"/>
<polygon fill="midnightblue" stroke="midnightblue" points="1203.74,-186.692 1193.17,-187.516 1201.94,-193.459 1203.74,-186.692"/>
</g>
<!-- Node34&#45;&gt;Node4 -->
<g id="edge64" class="edge"><title>Node34&#45;&gt;Node4</title>
<path fill="none" stroke="midnightblue" d="M1368.18,-224.223C1376.7,-200.513 1400.54,-133.112 1417,-76 1421.43,-60.6261 1425.72,-42.9892 1428.74,-29.9696"/>
<polygon fill="midnightblue" stroke="midnightblue" points="1432.23,-30.4177 1431.04,-19.8897 1425.41,-28.8607 1432.23,-30.4177"/>
</g>
<!-- Node34&#45;&gt;Node18 -->
<g id="edge65" class="edge"><title>Node34&#45;&gt;Node18</title>
<path fill="none" stroke="midnightblue" d="M1330.94,-225.764C1327.59,-225.133 1324.23,-224.533 1321,-224 1200.01,-204.053 1054.74,-188.3 993.053,-181.99"/>
<polygon fill="midnightblue" stroke="midnightblue" points="993.172,-178.484 982.87,-180.957 992.466,-185.448 993.172,-178.484"/>
</g>
<!-- Node34&#45;&gt;Node27 -->
<g id="edge66" class="edge"><title>Node34&#45;&gt;Node27</title>
<path fill="none" stroke="midnightblue" d="M1364.46,-224.075C1362.89,-197.945 1358.27,-121.211 1356.12,-85.577"/>
<polygon fill="midnightblue" stroke="midnightblue" points="1359.61,-85.3395 1355.52,-75.5681 1352.62,-85.7605 1359.61,-85.3395"/>
</g>
<!-- Node34&#45;&gt;Node30 -->
<g id="edge63" class="edge"><title>Node34&#45;&gt;Node30</title>
<path fill="none" stroke="midnightblue" d="M1388.61,-224.444C1413.46,-215.438 1452.77,-201.189 1480.75,-191.049"/>
<polygon fill="midnightblue" stroke="midnightblue" points="1482.29,-194.214 1490.5,-187.516 1479.91,-187.633 1482.29,-194.214"/>
</g>
<!-- Node35 -->
<g id="node35" class="node"><title>Node35</title>
<polygon fill="white" stroke="#bfbfbf" points="1225,-168.5 1225,-187.5 1337,-187.5 1337,-168.5 1225,-168.5"/>
<text text-anchor="middle" x="1281" y="-175.5" font-family="Helvetica,sans-Serif" font-size="10.00">QGraphicsEllipseItem</text>
</g>
<!-- Node34&#45;&gt;Node35 -->
<g id="edge62" class="edge"><title>Node34&#45;&gt;Node35</title>
<path fill="none" stroke="midnightblue" d="M1351.5,-224.324C1338.4,-215.9 1318.29,-202.971 1302.89,-193.074"/>
<polygon fill="midnightblue" stroke="midnightblue" points="1304.77,-190.118 1294.46,-187.655 1300.98,-196.006 1304.77,-190.118"/>
</g>
</g>
</svg>
