<?xml version="1.0" encoding="UTF-8" standalone="no"?>
<!DOCTYPE svg PUBLIC "-//W3C//DTD SVG 1.1//EN"
 "http://www.w3.org/Graphics/SVG/1.1/DTD/svg11.dtd">
<!-- Generated by graphviz version 2.38.0 (20140413.2041)
 -->
<!-- Title: headers/GProcess.h Pages: 1 -->
<svg width="1748pt" height="420pt"
 viewBox="0.00 0.00 1747.75 420.00" xmlns="http://www.w3.org/2000/svg" xmlns:xlink="http://www.w3.org/1999/xlink">
<g id="graph0" class="graph" transform="scale(1 1) rotate(0) translate(4 416)">
<title>headers/GProcess.h</title>
<polygon fill="white" stroke="none" points="-4,4 -4,-416 1743.75,-416 1743.75,4 -4,4"/>
<!-- Node1 -->
<g id="node1" class="node"><title>Node1</title>
<polygon fill="#bfbfbf" stroke="black" points="172.752,-392.5 172.752,-411.5 278.752,-411.5 278.752,-392.5 172.752,-392.5"/>
<text text-anchor="middle" x="225.752" y="-399.5" font-family="Helvetica,sans-Serif" font-size="10.00">headers/GProcess.h</text>
</g>
<!-- Node2 -->
<g id="node2" class="node"><title>Node2</title>
<polygon fill="white" stroke="#bfbfbf" points="330.252,-168.5 330.252,-187.5 413.252,-187.5 413.252,-168.5 330.252,-168.5"/>
<text text-anchor="middle" x="371.752" y="-175.5" font-family="Helvetica,sans-Serif" font-size="10.00">QGraphicsItem</text>
</g>
<!-- Node1&#45;&gt;Node2 -->
<g id="edge1" class="edge"><title>Node1&#45;&gt;Node2</title>
<path fill="none" stroke="midnightblue" d="M231.475,-392.297C253.23,-359.217 331.037,-240.909 360.413,-196.241"/>
<polygon fill="midnightblue" stroke="midnightblue" points="363.339,-198.162 365.909,-187.884 357.49,-194.316 363.339,-198.162"/>
</g>
<!-- Node3 -->
<g id="node3" class="node"><title>Node3</title>
<polygon fill="white" stroke="#bfbfbf" points="28.7518,-336.5 28.7518,-355.5 140.752,-355.5 140.752,-336.5 28.7518,-336.5"/>
<text text-anchor="middle" x="84.7518" y="-343.5" font-family="Helvetica,sans-Serif" font-size="10.00">QGraphicsEllipseItem</text>
</g>
<!-- Node1&#45;&gt;Node3 -->
<g id="edge2" class="edge"><title>Node1&#45;&gt;Node3</title>
<path fill="none" stroke="midnightblue" d="M203.41,-392.444C179.999,-383.478 143.016,-369.314 116.562,-359.183"/>
<polygon fill="midnightblue" stroke="midnightblue" points="117.579,-355.824 106.989,-355.516 115.076,-362.361 117.579,-355.824"/>
</g>
<!-- Node4 -->
<g id="node4" class="node"><title>Node4</title>
<polygon fill="white" stroke="#bfbfbf" points="182.752,-112.5 182.752,-131.5 284.752,-131.5 284.752,-112.5 182.752,-112.5"/>
<text text-anchor="middle" x="233.752" y="-119.5" font-family="Helvetica,sans-Serif" font-size="10.00">QGraphicsTextItem</text>
</g>
<!-- Node1&#45;&gt;Node4 -->
<g id="edge3" class="edge"><title>Node1&#45;&gt;Node4</title>
<path fill="none" stroke="midnightblue" d="M222.152,-392.222C218.696,-383.285 213.719,-368.942 211.752,-356 199.669,-276.492 219.421,-180.648 229.004,-141.256"/>
<polygon fill="midnightblue" stroke="midnightblue" points="232.411,-142.057 231.453,-131.506 225.622,-140.352 232.411,-142.057"/>
</g>
<!-- Node5 -->
<g id="node5" class="node"><title>Node5</title>
<polygon fill="white" stroke="#bfbfbf" points="262.252,-0.5 262.252,-19.5 291.252,-19.5 291.252,-0.5 262.252,-0.5"/>
<text text-anchor="middle" x="276.752" y="-7.5" font-family="Helvetica,sans-Serif" font-size="10.00">list</text>
</g>
<!-- Node1&#45;&gt;Node5 -->
<g id="edge4" class="edge"><title>Node1&#45;&gt;Node5</title>
<path fill="none" stroke="midnightblue" d="M172.582,-395.557C119.116,-389.031 41.5666,-376.353 19.7518,-356 -2.25527,-335.468 0.751757,-321.098 0.751757,-291 0.751757,-291 0.751757,-291 0.751757,-121 0.751757,-67.2519 183.654,-28.1161 251.672,-15.4203"/>
<polygon fill="midnightblue" stroke="midnightblue" points="252.705,-18.7896 261.913,-13.5479 251.446,-11.9037 252.705,-18.7896"/>
</g>
<!-- Node6 -->
<g id="node6" class="node"><title>Node6</title>
<g id="a_node6"><a xlink:href="PH_8h.html" target="_top" xlink:title="header for the PH class ">
<polygon fill="white" stroke="black" points="592.252,-336.5 592.252,-355.5 631.252,-355.5 631.252,-336.5 592.252,-336.5"/>
<text text-anchor="middle" x="611.752" y="-343.5" font-family="Helvetica,sans-Serif" font-size="10.00">PH.h</text>
</a>
</g>
</g>
<!-- Node1&#45;&gt;Node6 -->
<g id="edge5" class="edge"><title>Node1&#45;&gt;Node6</title>
<path fill="none" stroke="midnightblue" d="M278.793,-394.088C343.859,-385.53 457.508,-370.326 554.752,-356 563.728,-354.678 573.486,-353.165 582.351,-351.761"/>
<polygon fill="midnightblue" stroke="midnightblue" points="582.922,-355.214 592.245,-350.182 581.818,-348.302 582.922,-355.214"/>
</g>
<!-- Node29 -->
<g id="node29" class="node"><title>Node29</title>
<g id="a_node29"><a xlink:href="Process_8h.html" target="_top" xlink:title="header for the Process class ">
<polygon fill="white" stroke="black" points="503.252,-56.5 503.252,-75.5 564.252,-75.5 564.252,-56.5 503.252,-56.5"/>
<text text-anchor="middle" x="533.752" y="-63.5" font-family="Helvetica,sans-Serif" font-size="10.00">Process.h</text>
</a>
</g>
</g>
<!-- Node1&#45;&gt;Node29 -->
<g id="edge71" class="edge"><title>Node1&#45;&gt;Node29</title>
<path fill="none" stroke="midnightblue" d="M226.085,-392.279C228.08,-352.982 241.692,-190.865 331.752,-112 355.396,-91.2949 441.062,-77.8732 492.937,-71.4498"/>
<polygon fill="midnightblue" stroke="midnightblue" points="493.636,-74.891 503.146,-70.2217 492.8,-67.9411 493.636,-74.891"/>
</g>
<!-- Node6&#45;&gt;Node5 -->
<g id="edge6" class="edge"><title>Node6&#45;&gt;Node5</title>
<path fill="none" stroke="midnightblue" d="M592.119,-343.093C550.246,-338.652 449.411,-325.969 368.752,-300 281.564,-271.929 250.686,-261.294 195.752,-188 157.635,-137.143 103.533,-107.518 140.752,-56 166.156,-20.8349 220.083,-12.6989 251.867,-11.0842"/>
<polygon fill="midnightblue" stroke="midnightblue" points="252.223,-14.5746 262.104,-10.7514 251.995,-7.57826 252.223,-14.5746"/>
</g>
<!-- Node7 -->
<g id="node7" class="node"><title>Node7</title>
<polygon fill="white" stroke="#bfbfbf" points="150.252,-56.5 150.252,-75.5 185.252,-75.5 185.252,-56.5 150.252,-56.5"/>
<text text-anchor="middle" x="167.752" y="-63.5" font-family="Helvetica,sans-Serif" font-size="10.00">map</text>
</g>
<!-- Node6&#45;&gt;Node7 -->
<g id="edge7" class="edge"><title>Node6&#45;&gt;Node7</title>
<path fill="none" stroke="midnightblue" d="M591.986,-342.891C556.016,-338.522 478.014,-326.584 417.752,-300 297.288,-246.86 240.304,-245.605 173.752,-132 165.607,-118.096 164.659,-99.5856 165.425,-85.8745"/>
<polygon fill="midnightblue" stroke="midnightblue" points="168.931,-85.9689 166.353,-75.6926 161.96,-85.334 168.931,-85.9689"/>
</g>
<!-- Node8 -->
<g id="node8" class="node"><title>Node8</title>
<polygon fill="white" stroke="#bfbfbf" points="513.252,-0.5 513.252,-19.5 554.252,-19.5 554.252,-0.5 513.252,-0.5"/>
<text text-anchor="middle" x="533.752" y="-7.5" font-family="Helvetica,sans-Serif" font-size="10.00">string</text>
</g>
<!-- Node6&#45;&gt;Node8 -->
<g id="edge8" class="edge"><title>Node6&#45;&gt;Node8</title>
<path fill="none" stroke="midnightblue" d="M631.427,-345.233C727.948,-345.859 1146.75,-342.389 1146.75,-235 1146.75,-235 1146.75,-235 1146.75,-121 1146.75,-40.1099 1055.45,-74.6944 976.752,-56 825.087,-19.9735 637.49,-12.7819 564.669,-11.3522"/>
<polygon fill="midnightblue" stroke="midnightblue" points="564.441,-7.84779 554.382,-11.1744 564.32,-14.8467 564.441,-7.84779"/>
</g>
<!-- Node9 -->
<g id="node9" class="node"><title>Node9</title>
<polygon fill="white" stroke="#bfbfbf" points="1111.75,-0.5 1111.75,-19.5 1219.75,-19.5 1219.75,-0.5 1111.75,-0.5"/>
<text text-anchor="middle" x="1165.75" y="-7.5" font-family="Helvetica,sans-Serif" font-size="10.00">boost/shared_ptr.hpp</text>
</g>
<!-- Node6&#45;&gt;Node9 -->
<g id="edge9" class="edge"><title>Node6&#45;&gt;Node9</title>
<path fill="none" stroke="midnightblue" d="M631.33,-345.216C781.117,-346.623 1739.75,-351.09 1739.75,-235 1739.75,-235 1739.75,-235 1739.75,-121 1739.75,-59.5621 1676.55,-73.8261 1617.75,-56 1546.93,-34.5266 1336.98,-20.351 1229.99,-14.3151"/>
<polygon fill="midnightblue" stroke="midnightblue" points="1230.14,-10.8184 1219.96,-13.7564 1229.75,-17.8075 1230.14,-10.8184"/>
</g>
<!-- Node10 -->
<g id="node10" class="node"><title>Node10</title>
<polygon fill="white" stroke="#bfbfbf" points="697.252,-56.5 697.252,-75.5 818.252,-75.5 818.252,-56.5 697.252,-56.5"/>
<text text-anchor="middle" x="757.752" y="-63.5" font-family="Helvetica,sans-Serif" font-size="10.00">boost/make_shared.hpp</text>
</g>
<!-- Node6&#45;&gt;Node10 -->
<g id="edge10" class="edge"><title>Node6&#45;&gt;Node10</title>
<path fill="none" stroke="midnightblue" d="M610.415,-336.376C604.305,-296.382 579.913,-130.147 593.752,-112 605.676,-96.3629 649.597,-84.8148 688.986,-77.3344"/>
<polygon fill="midnightblue" stroke="midnightblue" points="689.676,-80.7664 698.881,-75.5202 688.413,-73.8812 689.676,-80.7664"/>
</g>
<!-- Node11 -->
<g id="node11" class="node"><title>Node11</title>
<g id="a_node11"><a xlink:href="Action_8h.html" target="_top" xlink:title="header for the Action class ">
<polygon fill="white" stroke="black" points="747.252,-280.5 747.252,-299.5 800.252,-299.5 800.252,-280.5 747.252,-280.5"/>
<text text-anchor="middle" x="773.752" y="-287.5" font-family="Helvetica,sans-Serif" font-size="10.00">Action.h</text>
</a>
</g>
</g>
<!-- Node6&#45;&gt;Node11 -->
<g id="edge11" class="edge"><title>Node6&#45;&gt;Node11</title>
<path fill="none" stroke="midnightblue" d="M631.347,-336.799C657.658,-327.306 704.451,-311.66 737.28,-301.342"/>
<polygon fill="midnightblue" stroke="midnightblue" points="738.474,-304.636 746.982,-298.323 736.394,-297.952 738.474,-304.636"/>
</g>
<!-- Node20 -->
<g id="node20" class="node"><title>Node20</title>
<g id="a_node20"><a xlink:href="PHScene_8h.html" target="_top" xlink:title="header for the PHScene class ">
<polygon fill="white" stroke="black" points="341.252,-112.5 341.252,-131.5 408.252,-131.5 408.252,-112.5 341.252,-112.5"/>
<text text-anchor="middle" x="374.752" y="-119.5" font-family="Helvetica,sans-Serif" font-size="10.00">PHScene.h</text>
</a>
</g>
</g>
<!-- Node6&#45;&gt;Node20 -->
<g id="edge69" class="edge"><title>Node6&#45;&gt;Node20</title>
<path fill="none" stroke="midnightblue" d="M592.144,-341.485C537.283,-330.473 382.232,-291.026 320.752,-188 309.278,-168.772 330.679,-149.367 349.834,-136.831"/>
<polygon fill="midnightblue" stroke="midnightblue" points="351.676,-139.807 358.351,-131.58 348.002,-133.849 351.676,-139.807"/>
</g>
<!-- Node28 -->
<g id="node28" class="node"><title>Node28</title>
<g id="a_node28"><a xlink:href="Sort_8h.html" target="_top" xlink:title="header for the Sort class ">
<polygon fill="white" stroke="black" points="503.252,-112.5 503.252,-131.5 546.252,-131.5 546.252,-112.5 503.252,-112.5"/>
<text text-anchor="middle" x="524.752" y="-119.5" font-family="Helvetica,sans-Serif" font-size="10.00">Sort.h</text>
</a>
</g>
</g>
<!-- Node6&#45;&gt;Node28 -->
<g id="edge70" class="edge"><title>Node6&#45;&gt;Node28</title>
<path fill="none" stroke="midnightblue" d="M608.341,-336.297C595.486,-303.494 549.787,-186.884 531.954,-141.377"/>
<polygon fill="midnightblue" stroke="midnightblue" points="535.141,-139.917 528.233,-131.884 528.623,-142.471 535.141,-139.917"/>
</g>
<!-- Node31 -->
<g id="node31" class="node"><title>Node31</title>
<g id="a_node31"><a xlink:href="GVSkeletonGraph_8h.html" target="_top" xlink:title="header for the GVSkeletonGraph class ">
<polygon fill="white" stroke="black" points="1440.75,-168.5 1440.75,-187.5 1544.75,-187.5 1544.75,-168.5 1440.75,-168.5"/>
<text text-anchor="middle" x="1492.75" y="-175.5" font-family="Helvetica,sans-Serif" font-size="10.00">GVSkeletonGraph.h</text>
</a>
</g>
</g>
<!-- Node6&#45;&gt;Node31 -->
<g id="edge60" class="edge"><title>Node6&#45;&gt;Node31</title>
<path fill="none" stroke="midnightblue" d="M631.481,-345.273C703.35,-345.869 957.569,-344.506 1160.75,-300 1277.77,-274.367 1409.44,-217.435 1465.33,-191.868"/>
<polygon fill="midnightblue" stroke="midnightblue" points="1466.94,-194.98 1474.55,-187.616 1464.01,-188.623 1466.94,-194.98"/>
</g>
<!-- Node11&#45;&gt;Node6 -->
<g id="edge15" class="edge"><title>Node11&#45;&gt;Node6</title>
<path fill="none" stroke="midnightblue" d="M753.315,-299.505C724.918,-309.721 673.838,-326.74 641.318,-336.813"/>
<polygon fill="midnightblue" stroke="midnightblue" points="640.006,-333.554 631.464,-339.822 642.05,-340.249 640.006,-333.554"/>
</g>
<!-- Node11&#45;&gt;Node8 -->
<g id="edge13" class="edge"><title>Node11&#45;&gt;Node8</title>
<path fill="none" stroke="midnightblue" d="M747.068,-283.453C688.602,-269.694 549.948,-227.937 493.752,-132 476.679,-102.854 481.748,-87.5728 493.752,-56 498.087,-44.5976 506.782,-34.2394 514.962,-26.343"/>
<polygon fill="midnightblue" stroke="midnightblue" points="517.393,-28.8633 522.486,-19.5728 512.711,-23.6595 517.393,-28.8633"/>
</g>
<!-- Node11&#45;&gt;Node9 -->
<g id="edge12" class="edge"><title>Node11&#45;&gt;Node9</title>
<path fill="none" stroke="midnightblue" d="M800.423,-289.252C938.483,-289.883 1569.14,-284.339 1661.75,-132 1696.02,-75.6287 1624.04,-74.525 1569.75,-56 1508.47,-35.0873 1327.46,-21.0335 1229.85,-14.751"/>
<polygon fill="midnightblue" stroke="midnightblue" points="1230.01,-11.2543 1219.81,-14.1132 1229.57,-18.2402 1230.01,-11.2543"/>
</g>
<!-- Node12 -->
<g id="node12" class="node"><title>Node12</title>
<polygon fill="white" stroke="#bfbfbf" points="923.752,-56.5 923.752,-75.5 967.752,-75.5 967.752,-56.5 923.752,-56.5"/>
<text text-anchor="middle" x="945.752" y="-63.5" font-family="Helvetica,sans-Serif" font-size="10.00">vector</text>
</g>
<!-- Node11&#45;&gt;Node12 -->
<g id="edge14" class="edge"><title>Node11&#45;&gt;Node12</title>
<path fill="none" stroke="midnightblue" d="M800.455,-285.396C849.961,-277.285 956.17,-252.944 1013.75,-188 1036.65,-162.172 1047.48,-141.616 1029.75,-112 1018.51,-93.2302 996.473,-81.8445 977.788,-75.2225"/>
<polygon fill="midnightblue" stroke="midnightblue" points="978.713,-71.8433 968.121,-72.0986 976.56,-78.5041 978.713,-71.8433"/>
</g>
<!-- Node13 -->
<g id="node13" class="node"><title>Node13</title>
<g id="a_node13"><a xlink:href="GAction_8h.html" target="_top" xlink:title="header for the GAction class ">
<polygon fill="white" stroke="black" points="743.752,-224.5 743.752,-243.5 803.752,-243.5 803.752,-224.5 743.752,-224.5"/>
<text text-anchor="middle" x="773.752" y="-231.5" font-family="Helvetica,sans-Serif" font-size="10.00">GAction.h</text>
</a>
</g>
</g>
<!-- Node11&#45;&gt;Node13 -->
<g id="edge16" class="edge"><title>Node11&#45;&gt;Node13</title>
<path fill="none" stroke="midnightblue" d="M768.585,-280.083C767.076,-272.927 766.646,-262.635 767.294,-253.691"/>
<polygon fill="midnightblue" stroke="midnightblue" points="770.767,-254.126 768.621,-243.751 763.829,-253.2 770.767,-254.126"/>
</g>
<!-- Node13&#45;&gt;Node2 -->
<g id="edge17" class="edge"><title>Node13&#45;&gt;Node2</title>
<path fill="none" stroke="midnightblue" d="M743.536,-228.941C675.281,-219.773 508.519,-197.372 423.469,-185.947"/>
<polygon fill="midnightblue" stroke="midnightblue" points="423.891,-182.472 413.514,-184.61 422.959,-189.41 423.891,-182.472"/>
</g>
<!-- Node13&#45;&gt;Node5 -->
<g id="edge19" class="edge"><title>Node13&#45;&gt;Node5</title>
<path fill="none" stroke="midnightblue" d="M746.517,-224.443C718.96,-215.677 675.196,-201.466 637.752,-188 573.134,-164.762 554.742,-163.554 493.752,-132 439.338,-103.849 432.524,-85.3573 378.752,-56 352.911,-41.8921 321.768,-28.6623 300.746,-20.2478"/>
<polygon fill="midnightblue" stroke="midnightblue" points="301.893,-16.938 291.307,-16.5212 299.323,-23.449 301.893,-16.938"/>
</g>
<!-- Node13&#45;&gt;Node11 -->
<g id="edge32" class="edge"><title>Node13&#45;&gt;Node11</title>
<path fill="none" stroke="midnightblue" d="M778.883,-243.751C780.409,-250.858 780.856,-261.136 780.224,-270.101"/>
<polygon fill="midnightblue" stroke="midnightblue" points="776.745,-269.713 778.918,-280.083 783.686,-270.622 776.745,-269.713"/>
</g>
<!-- Node13&#45;&gt;Node12 -->
<g id="edge59" class="edge"><title>Node13&#45;&gt;Node12</title>
<path fill="none" stroke="midnightblue" d="M800.637,-224.384C826.38,-215.904 866.16,-202.195 899.752,-188 925.751,-177.014 998.829,-155.957 1013.75,-132 1026.94,-110.829 1000.19,-91.7841 976.461,-79.8636"/>
<polygon fill="midnightblue" stroke="midnightblue" points="977.807,-76.6283 967.272,-75.5048 974.807,-82.9528 977.807,-76.6283"/>
</g>
<!-- Node14 -->
<g id="node14" class="node"><title>Node14</title>
<polygon fill="white" stroke="#bfbfbf" points="714.752,-168.5 714.752,-187.5 832.752,-187.5 832.752,-168.5 714.752,-168.5"/>
<text text-anchor="middle" x="773.752" y="-175.5" font-family="Helvetica,sans-Serif" font-size="10.00">QGraphicsPolygonItem</text>
</g>
<!-- Node13&#45;&gt;Node14 -->
<g id="edge18" class="edge"><title>Node13&#45;&gt;Node14</title>
<path fill="none" stroke="midnightblue" d="M773.752,-224.083C773.752,-217.006 773.752,-206.861 773.752,-197.986"/>
<polygon fill="midnightblue" stroke="midnightblue" points="777.252,-197.751 773.752,-187.751 770.252,-197.751 777.252,-197.751"/>
</g>
<!-- Node15 -->
<g id="node15" class="node"><title>Node15</title>
<polygon fill="white" stroke="#bfbfbf" points="964.752,-168.5 964.752,-187.5 1004.75,-187.5 1004.75,-168.5 964.752,-168.5"/>
<text text-anchor="middle" x="984.752" y="-175.5" font-family="Helvetica,sans-Serif" font-size="10.00">utility</text>
</g>
<!-- Node13&#45;&gt;Node15 -->
<g id="edge20" class="edge"><title>Node13&#45;&gt;Node15</title>
<path fill="none" stroke="midnightblue" d="M803.84,-225.446C839.077,-216.577 899.192,-201.378 950.752,-188 952.015,-187.672 953.305,-187.336 954.607,-186.996"/>
<polygon fill="midnightblue" stroke="midnightblue" points="955.843,-190.29 964.624,-184.363 954.063,-183.52 955.843,-190.29"/>
</g>
<!-- Node16 -->
<g id="node16" class="node"><title>Node16</title>
<g id="a_node16"><a xlink:href="GVEdge_8h.html" target="_top" xlink:title="header for the GVEdge class ">
<polygon fill="white" stroke="black" points="1254.75,-112.5 1254.75,-131.5 1316.75,-131.5 1316.75,-112.5 1254.75,-112.5"/>
<text text-anchor="middle" x="1285.75" y="-119.5" font-family="Helvetica,sans-Serif" font-size="10.00">GVEdge.h</text>
</a>
</g>
</g>
<!-- Node13&#45;&gt;Node16 -->
<g id="edge21" class="edge"><title>Node13&#45;&gt;Node16</title>
<path fill="none" stroke="midnightblue" d="M803.835,-229.066C854.333,-222.235 959.218,-207.065 1046.75,-188 1118.77,-172.313 1201.51,-148.489 1248.31,-134.46"/>
<polygon fill="midnightblue" stroke="midnightblue" points="1249.45,-137.772 1258.02,-131.537 1247.43,-131.07 1249.45,-137.772"/>
</g>
<!-- Node17 -->
<g id="node17" class="node"><title>Node17</title>
<polygon fill="white" stroke="#bfbfbf" points="1178.25,-56.5 1178.25,-75.5 1225.25,-75.5 1225.25,-56.5 1178.25,-56.5"/>
<text text-anchor="middle" x="1201.75" y="-63.5" font-family="Helvetica,sans-Serif" font-size="10.00">QPoint</text>
</g>
<!-- Node13&#45;&gt;Node17 -->
<g id="edge58" class="edge"><title>Node13&#45;&gt;Node17</title>
<path fill="none" stroke="midnightblue" d="M803.965,-231.074C850.501,-227.291 941.864,-216.597 1013.75,-188 1022.78,-184.41 1132.61,-112.466 1180.1,-81.2489"/>
<polygon fill="midnightblue" stroke="midnightblue" points="1182.29,-83.9999 1188.72,-75.5808 1178.45,-78.1514 1182.29,-83.9999"/>
</g>
<!-- Node13&#45;&gt;Node20 -->
<g id="edge25" class="edge"><title>Node13&#45;&gt;Node20</title>
<path fill="none" stroke="midnightblue" d="M743.506,-228.899C700.03,-221.988 618.395,-206.908 550.752,-188 496.081,-172.718 434.14,-149.766 400.083,-135.62"/>
<polygon fill="midnightblue" stroke="midnightblue" points="401.02,-132.216 390.448,-131.531 398.286,-138.66 401.02,-132.216"/>
</g>
<!-- Node23 -->
<g id="node23" class="node"><title>Node23</title>
<g id="a_node23"><a xlink:href="GSort_8h.html" target="_top" xlink:title="header for the GSort class ">
<polygon fill="white" stroke="black" points="646.752,-168.5 646.752,-187.5 696.752,-187.5 696.752,-168.5 646.752,-168.5"/>
<text text-anchor="middle" x="671.752" y="-175.5" font-family="Helvetica,sans-Serif" font-size="10.00">GSort.h</text>
</a>
</g>
</g>
<!-- Node13&#45;&gt;Node23 -->
<g id="edge33" class="edge"><title>Node13&#45;&gt;Node23</title>
<path fill="none" stroke="midnightblue" d="M757.364,-224.324C741.08,-215.703 715.884,-202.364 697.036,-192.386"/>
<polygon fill="midnightblue" stroke="midnightblue" points="698.575,-189.24 688.099,-187.655 695.299,-195.427 698.575,-189.24"/>
</g>
<!-- Node25 -->
<g id="node25" class="node"><title>Node25</title>
<polygon fill="white" stroke="#bfbfbf" points="895.252,-112.5 895.252,-131.5 942.252,-131.5 942.252,-112.5 895.252,-112.5"/>
<text text-anchor="middle" x="918.752" y="-119.5" font-family="Helvetica,sans-Serif" font-size="10.00">QColor</text>
</g>
<!-- Node13&#45;&gt;Node25 -->
<g id="edge56" class="edge"><title>Node13&#45;&gt;Node25</title>
<path fill="none" stroke="midnightblue" d="M787.619,-224.49C801.592,-215.762 823.623,-201.578 841.752,-188 863.018,-172.072 886.152,-152.166 901.453,-138.607"/>
<polygon fill="midnightblue" stroke="midnightblue" points="903.957,-141.064 909.086,-131.794 899.295,-135.842 903.957,-141.064"/>
</g>
<!-- Node26 -->
<g id="node26" class="node"><title>Node26</title>
<polygon fill="white" stroke="#bfbfbf" points="960.752,-112.5 960.752,-131.5 1004.75,-131.5 1004.75,-112.5 960.752,-112.5"/>
<text text-anchor="middle" x="982.752" y="-119.5" font-family="Helvetica,sans-Serif" font-size="10.00">QSize</text>
</g>
<!-- Node13&#45;&gt;Node26 -->
<g id="edge57" class="edge"><title>Node13&#45;&gt;Node26</title>
<path fill="none" stroke="midnightblue" d="M792.664,-224.406C811.78,-215.613 842.08,-201.38 867.752,-188 900.105,-171.138 936.656,-150.132 959.695,-136.644"/>
<polygon fill="midnightblue" stroke="midnightblue" points="961.554,-139.612 968.402,-131.528 958.007,-133.577 961.554,-139.612"/>
</g>
<!-- Node16&#45;&gt;Node17 -->
<g id="edge22" class="edge"><title>Node16&#45;&gt;Node17</title>
<path fill="none" stroke="midnightblue" d="M1272.26,-112.324C1259.15,-103.9 1239.04,-90.9709 1223.64,-81.0741"/>
<polygon fill="midnightblue" stroke="midnightblue" points="1225.52,-78.118 1215.21,-75.6545 1221.73,-84.0063 1225.52,-78.118"/>
</g>
<!-- Node18 -->
<g id="node18" class="node"><title>Node18</title>
<polygon fill="white" stroke="#bfbfbf" points="1251.75,-56.5 1251.75,-75.5 1301.75,-75.5 1301.75,-56.5 1251.75,-56.5"/>
<text text-anchor="middle" x="1276.75" y="-63.5" font-family="Helvetica,sans-Serif" font-size="10.00">QString</text>
</g>
<!-- Node16&#45;&gt;Node18 -->
<g id="edge23" class="edge"><title>Node16&#45;&gt;Node18</title>
<path fill="none" stroke="midnightblue" d="M1284.27,-112.083C1283.07,-104.927 1281.36,-94.6353 1279.87,-85.6911"/>
<polygon fill="midnightblue" stroke="midnightblue" points="1283.31,-85.0396 1278.21,-75.7511 1276.4,-86.1904 1283.31,-85.0396"/>
</g>
<!-- Node19 -->
<g id="node19" class="node"><title>Node19</title>
<polygon fill="white" stroke="#bfbfbf" points="1320.25,-56.5 1320.25,-75.5 1395.25,-75.5 1395.25,-56.5 1320.25,-56.5"/>
<text text-anchor="middle" x="1357.75" y="-63.5" font-family="Helvetica,sans-Serif" font-size="10.00">QPainterPath</text>
</g>
<!-- Node16&#45;&gt;Node19 -->
<g id="edge24" class="edge"><title>Node16&#45;&gt;Node19</title>
<path fill="none" stroke="midnightblue" d="M1297.32,-112.324C1308.17,-104.185 1324.63,-91.8395 1337.64,-82.0874"/>
<polygon fill="midnightblue" stroke="midnightblue" points="1340.07,-84.6339 1345.97,-75.8339 1335.87,-79.0339 1340.07,-84.6339"/>
</g>
<!-- Node20&#45;&gt;Node7 -->
<g id="edge29" class="edge"><title>Node20&#45;&gt;Node7</title>
<path fill="none" stroke="midnightblue" d="M340.926,-112.695C305.428,-103.899 248.041,-89.4524 198.752,-76 197.67,-75.7049 196.569,-75.401 195.457,-75.0914"/>
<polygon fill="midnightblue" stroke="midnightblue" points="196.005,-71.6085 185.429,-72.2388 194.09,-78.3414 196.005,-71.6085"/>
</g>
<!-- Node20&#45;&gt;Node8 -->
<g id="edge30" class="edge"><title>Node20&#45;&gt;Node8</title>
<path fill="none" stroke="midnightblue" d="M385.371,-112.456C401.377,-99.6974 432.79,-75.122 460.752,-56 476.881,-44.9695 495.66,-33.421 510.132,-24.7852"/>
<polygon fill="midnightblue" stroke="midnightblue" points="512.127,-27.6716 518.949,-19.5655 508.561,-21.648 512.127,-27.6716"/>
</g>
<!-- Node20&#45;&gt;Node9 -->
<g id="edge26" class="edge"><title>Node20&#45;&gt;Node9</title>
<path fill="none" stroke="midnightblue" d="M408.5,-113.841C448.002,-105.343 515.33,-90.4919 572.752,-76 604.954,-67.8731 612.068,-61.8986 644.752,-56 807.626,-26.6053 1002.73,-16.2556 1101.57,-12.7327"/>
<polygon fill="midnightblue" stroke="midnightblue" points="1101.82,-16.2262 1111.69,-12.3838 1101.58,-9.23034 1101.82,-16.2262"/>
</g>
<!-- Node20&#45;&gt;Node13 -->
<g id="edge31" class="edge"><title>Node20&#45;&gt;Node13</title>
<path fill="none" stroke="midnightblue" d="M401.764,-131.531C439.247,-144.936 508.425,-171.137 568.752,-188 625.38,-203.829 691.814,-216.976 733.471,-224.892"/>
<polygon fill="midnightblue" stroke="midnightblue" points="733.031,-228.371 743.507,-226.79 734.332,-221.493 733.031,-228.371"/>
</g>
<!-- Node21 -->
<g id="node21" class="node"><title>Node21</title>
<polygon fill="white" stroke="#bfbfbf" points="208.252,-56.5 208.252,-75.5 261.252,-75.5 261.252,-56.5 208.252,-56.5"/>
<text text-anchor="middle" x="234.752" y="-63.5" font-family="Helvetica,sans-Serif" font-size="10.00">QObject</text>
</g>
<!-- Node20&#45;&gt;Node21 -->
<g id="edge27" class="edge"><title>Node20&#45;&gt;Node21</title>
<path fill="none" stroke="midnightblue" d="M352.568,-112.444C329.323,-103.478 292.603,-89.314 266.337,-79.1827"/>
<polygon fill="midnightblue" stroke="midnightblue" points="267.421,-75.8497 256.831,-75.5164 264.902,-82.3807 267.421,-75.8497"/>
</g>
<!-- Node22 -->
<g id="node22" class="node"><title>Node22</title>
<polygon fill="white" stroke="#bfbfbf" points="279.252,-56.5 279.252,-75.5 370.252,-75.5 370.252,-56.5 279.252,-56.5"/>
<text text-anchor="middle" x="324.752" y="-63.5" font-family="Helvetica,sans-Serif" font-size="10.00">QGraphicsScene</text>
</g>
<!-- Node20&#45;&gt;Node22 -->
<g id="edge28" class="edge"><title>Node20&#45;&gt;Node22</title>
<path fill="none" stroke="midnightblue" d="M366.495,-112.083C359.287,-104.298 348.642,-92.8015 339.906,-83.3665"/>
<polygon fill="midnightblue" stroke="midnightblue" points="342.217,-80.7108 332.855,-75.7511 337.081,-85.4666 342.217,-80.7108"/>
</g>
<!-- Node23&#45;&gt;Node1 -->
<g id="edge54" class="edge"><title>Node23&#45;&gt;Node1</title>
<path fill="none" stroke="midnightblue" d="M654.352,-187.661C585.866,-221.75 334.61,-346.815 252.157,-387.857"/>
<polygon fill="midnightblue" stroke="midnightblue" points="250.355,-384.844 242.962,-392.433 253.474,-391.111 250.355,-384.844"/>
</g>
<!-- Node23&#45;&gt;Node4 -->
<g id="edge35" class="edge"><title>Node23&#45;&gt;Node4</title>
<path fill="none" stroke="midnightblue" d="M646.63,-173.903C579.126,-165.58 392.341,-142.552 294.817,-130.529"/>
<polygon fill="midnightblue" stroke="midnightblue" points="295.161,-127.045 284.808,-129.295 294.305,-133.992 295.161,-127.045"/>
</g>
<!-- Node23&#45;&gt;Node12 -->
<g id="edge40" class="edge"><title>Node23&#45;&gt;Node12</title>
<path fill="none" stroke="midnightblue" d="M696.779,-169.912C724.698,-161.759 771.029,-147.49 809.752,-132 820.625,-127.65 882.787,-97.6032 919.195,-79.9224"/>
<polygon fill="midnightblue" stroke="midnightblue" points="920.819,-83.0246 928.284,-75.5058 917.76,-76.7286 920.819,-83.0246"/>
</g>
<!-- Node23&#45;&gt;Node17 -->
<g id="edge38" class="edge"><title>Node23&#45;&gt;Node17</title>
<path fill="none" stroke="midnightblue" d="M697,-170.306C699.95,-169.527 702.917,-168.745 705.752,-168 767.056,-151.89 784.204,-153.723 843.752,-132 863.175,-124.914 865.957,-117.97 885.752,-112 985.642,-81.8716 1109.53,-71.719 1168.08,-68.456"/>
<polygon fill="midnightblue" stroke="midnightblue" points="1168.43,-71.9426 1178.24,-67.9236 1168.07,-64.9522 1168.43,-71.9426"/>
</g>
<!-- Node23&#45;&gt;Node20 -->
<g id="edge55" class="edge"><title>Node23&#45;&gt;Node20</title>
<path fill="none" stroke="midnightblue" d="M646.686,-172.443C596.213,-163.266 481.777,-142.459 418.633,-130.978"/>
<polygon fill="midnightblue" stroke="midnightblue" points="419.048,-127.497 408.584,-129.151 417.796,-134.384 419.048,-127.497"/>
</g>
<!-- Node24 -->
<g id="node24" class="node"><title>Node24</title>
<polygon fill="white" stroke="#bfbfbf" points="696.752,-112.5 696.752,-131.5 800.752,-131.5 800.752,-112.5 696.752,-112.5"/>
<text text-anchor="middle" x="748.752" y="-119.5" font-family="Helvetica,sans-Serif" font-size="10.00">QGraphicsRectItem</text>
</g>
<!-- Node23&#45;&gt;Node24 -->
<g id="edge34" class="edge"><title>Node23&#45;&gt;Node24</title>
<path fill="none" stroke="midnightblue" d="M684.123,-168.324C695.91,-160.058 713.884,-147.453 727.887,-137.632"/>
<polygon fill="midnightblue" stroke="midnightblue" points="730.233,-140.262 736.411,-131.655 726.214,-134.531 730.233,-140.262"/>
</g>
<!-- Node23&#45;&gt;Node25 -->
<g id="edge36" class="edge"><title>Node23&#45;&gt;Node25</title>
<path fill="none" stroke="midnightblue" d="M696.963,-170.159C699.92,-169.406 702.899,-168.671 705.752,-168 783.052,-149.833 803.22,-149.152 880.752,-132 882.2,-131.68 883.678,-131.348 885.17,-131.01"/>
<polygon fill="midnightblue" stroke="midnightblue" points="886.104,-134.387 895.06,-128.726 884.529,-127.566 886.104,-134.387"/>
</g>
<!-- Node23&#45;&gt;Node26 -->
<g id="edge37" class="edge"><title>Node23&#45;&gt;Node26</title>
<path fill="none" stroke="midnightblue" d="M696.928,-169.997C699.891,-169.274 702.881,-168.589 705.752,-168 810.406,-146.531 841.314,-154.442 950.371,-131.798"/>
<polygon fill="midnightblue" stroke="midnightblue" points="951.404,-135.157 960.463,-129.663 949.955,-128.309 951.404,-135.157"/>
</g>
<!-- Node27 -->
<g id="node27" class="node"><title>Node27</title>
<polygon fill="white" stroke="#bfbfbf" points="603.252,-112.5 603.252,-131.5 678.252,-131.5 678.252,-112.5 603.252,-112.5"/>
<text text-anchor="middle" x="640.752" y="-119.5" font-family="Helvetica,sans-Serif" font-size="10.00">QColorDialog</text>
</g>
<!-- Node23&#45;&gt;Node27 -->
<g id="edge39" class="edge"><title>Node23&#45;&gt;Node27</title>
<path fill="none" stroke="midnightblue" d="M666.633,-168.083C662.344,-160.613 656.094,-149.724 650.809,-140.52"/>
<polygon fill="midnightblue" stroke="midnightblue" points="653.79,-138.681 645.776,-131.751 647.719,-142.166 653.79,-138.681"/>
</g>
<!-- Node23&#45;&gt;Node28 -->
<g id="edge41" class="edge"><title>Node23&#45;&gt;Node28</title>
<path fill="none" stroke="midnightblue" d="M648.459,-168.444C623.512,-159.279 583.782,-144.685 556.101,-134.516"/>
<polygon fill="midnightblue" stroke="midnightblue" points="557.091,-131.151 546.498,-130.988 554.678,-137.722 557.091,-131.151"/>
</g>
<!-- Node30 -->
<g id="node30" class="node"><title>Node30</title>
<g id="a_node30"><a xlink:href="GVNode_8h.html" target="_top" xlink:title="header for the GVNode class ">
<polygon fill="white" stroke="black" points="1174.75,-112.5 1174.75,-131.5 1236.75,-131.5 1236.75,-112.5 1174.75,-112.5"/>
<text text-anchor="middle" x="1205.75" y="-119.5" font-family="Helvetica,sans-Serif" font-size="10.00">GVNode.h</text>
</a>
</g>
</g>
<!-- Node23&#45;&gt;Node30 -->
<g id="edge51" class="edge"><title>Node23&#45;&gt;Node30</title>
<path fill="none" stroke="midnightblue" d="M696.897,-169.837C699.866,-169.142 702.865,-168.508 705.752,-168 874.259,-138.334 1078.35,-127.704 1164.36,-124.36"/>
<polygon fill="midnightblue" stroke="midnightblue" points="1164.64,-127.852 1174.5,-123.979 1164.38,-120.857 1164.64,-127.852"/>
</g>
<!-- Node28&#45;&gt;Node8 -->
<g id="edge42" class="edge"><title>Node28&#45;&gt;Node8</title>
<path fill="none" stroke="midnightblue" d="M539.122,-112.33C550.632,-104.469 565.94,-91.7221 572.752,-76 580.449,-58.2338 566.417,-39.4196 553.09,-26.6299"/>
<polygon fill="midnightblue" stroke="midnightblue" points="555.286,-23.8977 545.495,-19.8492 550.624,-29.1197 555.286,-23.8977"/>
</g>
<!-- Node28&#45;&gt;Node9 -->
<g id="edge44" class="edge"><title>Node28&#45;&gt;Node9</title>
<path fill="none" stroke="midnightblue" d="M546.627,-113.366C570.832,-104.787 610.895,-90.1971 644.752,-76 664.189,-67.8492 667.408,-61.5124 687.752,-56 831.985,-16.918 1008.63,-10.5055 1101.55,-10.1721"/>
<polygon fill="midnightblue" stroke="midnightblue" points="1101.65,-13.6721 1111.64,-10.1588 1101.64,-6.67206 1101.65,-13.6721"/>
</g>
<!-- Node28&#45;&gt;Node10 -->
<g id="edge45" class="edge"><title>Node28&#45;&gt;Node10</title>
<path fill="none" stroke="midnightblue" d="M546.436,-115.503C551.151,-114.329 556.115,-113.109 560.752,-112 611.286,-99.9129 669.286,-86.7495 709.199,-77.801"/>
<polygon fill="midnightblue" stroke="midnightblue" points="710.2,-81.1635 719.194,-75.5634 708.671,-74.3326 710.2,-81.1635"/>
</g>
<!-- Node28&#45;&gt;Node12 -->
<g id="edge43" class="edge"><title>Node28&#45;&gt;Node12</title>
<path fill="none" stroke="midnightblue" d="M546.504,-118.148C560.086,-116.371 577.937,-114.042 593.752,-112 711.581,-96.7838 851.634,-78.9567 913.566,-71.0868"/>
<polygon fill="midnightblue" stroke="midnightblue" points="914.031,-74.5559 923.51,-69.8234 913.149,-67.6117 914.031,-74.5559"/>
</g>
<!-- Node28&#45;&gt;Node29 -->
<g id="edge46" class="edge"><title>Node28&#45;&gt;Node29</title>
<path fill="none" stroke="midnightblue" d="M521.072,-112.083C520.751,-104.849 522.068,-94.4087 524.25,-85.3968"/>
<polygon fill="midnightblue" stroke="midnightblue" points="527.622,-86.3359 527.162,-75.7511 520.921,-84.3126 527.622,-86.3359"/>
</g>
<!-- Node29&#45;&gt;Node5 -->
<g id="edge49" class="edge"><title>Node29&#45;&gt;Node5</title>
<path fill="none" stroke="midnightblue" d="M503.007,-58.54C451.463,-47.7098 348.637,-26.1043 301.454,-16.1903"/>
<polygon fill="midnightblue" stroke="midnightblue" points="301.997,-12.7281 291.491,-14.097 300.558,-19.5785 301.997,-12.7281"/>
</g>
<!-- Node29&#45;&gt;Node8 -->
<g id="edge48" class="edge"><title>Node29&#45;&gt;Node8</title>
<path fill="none" stroke="midnightblue" d="M533.752,-56.083C533.752,-49.0059 533.752,-38.8611 533.752,-29.9865"/>
<polygon fill="midnightblue" stroke="midnightblue" points="537.252,-29.751 533.752,-19.7511 530.252,-29.7511 537.252,-29.751"/>
</g>
<!-- Node29&#45;&gt;Node9 -->
<g id="edge47" class="edge"><title>Node29&#45;&gt;Node9</title>
<path fill="none" stroke="midnightblue" d="M564.477,-61.4741C580.118,-59.7286 599.437,-57.6481 616.752,-56 791.859,-39.3326 998.749,-23.3857 1101.36,-15.7281"/>
<polygon fill="midnightblue" stroke="midnightblue" points="1101.84,-19.2018 1111.55,-14.9688 1101.32,-12.2211 1101.84,-19.2018"/>
</g>
<!-- Node29&#45;&gt;Node28 -->
<g id="edge50" class="edge"><title>Node29&#45;&gt;Node28</title>
<path fill="none" stroke="midnightblue" d="M537.424,-75.7511C537.77,-82.936 536.472,-93.362 534.304,-102.396"/>
<polygon fill="midnightblue" stroke="midnightblue" points="530.919,-101.499 531.404,-112.083 537.625,-103.506 530.919,-101.499"/>
</g>
<!-- Node30&#45;&gt;Node17 -->
<g id="edge52" class="edge"><title>Node30&#45;&gt;Node17</title>
<path fill="none" stroke="midnightblue" d="M1205.09,-112.083C1204.57,-105.006 1203.82,-94.8611 1203.16,-85.9865"/>
<polygon fill="midnightblue" stroke="midnightblue" points="1206.63,-85.4652 1202.4,-75.7511 1199.65,-85.9823 1206.63,-85.4652"/>
</g>
<!-- Node30&#45;&gt;Node18 -->
<g id="edge53" class="edge"><title>Node30&#45;&gt;Node18</title>
<path fill="none" stroke="midnightblue" d="M1217.16,-112.324C1227.86,-104.185 1244.09,-91.8395 1256.91,-82.0874"/>
<polygon fill="midnightblue" stroke="midnightblue" points="1259.3,-84.6734 1265.14,-75.8339 1255.06,-79.1018 1259.3,-84.6734"/>
</g>
<!-- Node31&#45;&gt;Node9 -->
<g id="edge62" class="edge"><title>Node31&#45;&gt;Node9</title>
<path fill="none" stroke="midnightblue" d="M1544.91,-172.628C1599.9,-165.96 1674.72,-149.77 1644.75,-112 1593.87,-47.8771 1348.34,-23.0677 1229.91,-14.7147"/>
<polygon fill="midnightblue" stroke="midnightblue" points="1230.1,-11.2198 1219.89,-14.0257 1229.62,-18.2033 1230.1,-11.2198"/>
</g>
<!-- Node31&#45;&gt;Node16 -->
<g id="edge68" class="edge"><title>Node31&#45;&gt;Node16</title>
<path fill="none" stroke="midnightblue" d="M1459.95,-168.444C1423.95,-159.052 1366.09,-143.959 1327.04,-133.77"/>
<polygon fill="midnightblue" stroke="midnightblue" points="1327.6,-130.301 1317.04,-131.163 1325.84,-137.074 1327.6,-130.301"/>
</g>
<!-- Node31&#45;&gt;Node18 -->
<g id="edge66" class="edge"><title>Node31&#45;&gt;Node18</title>
<path fill="none" stroke="midnightblue" d="M1459.52,-168.452C1432.76,-160.86 1394.64,-148.424 1363.75,-132 1337.67,-118.132 1310.92,-96.8899 1294.1,-82.4957"/>
<polygon fill="midnightblue" stroke="midnightblue" points="1296.1,-79.597 1286.26,-75.668 1291.5,-84.8754 1296.1,-79.597"/>
</g>
<!-- Node31&#45;&gt;Node30 -->
<g id="edge67" class="edge"><title>Node31&#45;&gt;Node30</title>
<path fill="none" stroke="midnightblue" d="M1442.49,-168.467C1394.65,-160.203 1320.39,-147.015 1247.04,-132.202"/>
<polygon fill="midnightblue" stroke="midnightblue" points="1247.67,-128.757 1237.17,-130.197 1246.27,-135.617 1247.67,-128.757"/>
</g>
<!-- Node32 -->
<g id="node32" class="node"><title>Node32</title>
<polygon fill="white" stroke="#bfbfbf" points="1372.75,-112.5 1372.75,-131.5 1452.75,-131.5 1452.75,-112.5 1372.75,-112.5"/>
<text text-anchor="middle" x="1412.75" y="-119.5" font-family="Helvetica,sans-Serif" font-size="10.00">graphviz/gvc.h</text>
</g>
<!-- Node31&#45;&gt;Node32 -->
<g id="edge61" class="edge"><title>Node31&#45;&gt;Node32</title>
<path fill="none" stroke="midnightblue" d="M1479.9,-168.324C1467.54,-159.979 1448.62,-147.212 1434.01,-137.352"/>
<polygon fill="midnightblue" stroke="midnightblue" points="1435.82,-134.348 1425.57,-131.655 1431.9,-140.15 1435.82,-134.348"/>
</g>
<!-- Node33 -->
<g id="node33" class="node"><title>Node33</title>
<polygon fill="white" stroke="#bfbfbf" points="1470.75,-112.5 1470.75,-131.5 1514.75,-131.5 1514.75,-112.5 1470.75,-112.5"/>
<text text-anchor="middle" x="1492.75" y="-119.5" font-family="Helvetica,sans-Serif" font-size="10.00">QFont</text>
</g>
<!-- Node31&#45;&gt;Node33 -->
<g id="edge63" class="edge"><title>Node31&#45;&gt;Node33</title>
<path fill="none" stroke="midnightblue" d="M1492.75,-168.083C1492.75,-161.006 1492.75,-150.861 1492.75,-141.986"/>
<polygon fill="midnightblue" stroke="midnightblue" points="1496.25,-141.751 1492.75,-131.751 1489.25,-141.751 1496.25,-141.751"/>
</g>
<!-- Node34 -->
<g id="node34" class="node"><title>Node34</title>
<polygon fill="white" stroke="#bfbfbf" points="1533.25,-112.5 1533.25,-131.5 1576.25,-131.5 1576.25,-112.5 1533.25,-112.5"/>
<text text-anchor="middle" x="1554.75" y="-119.5" font-family="Helvetica,sans-Serif" font-size="10.00">QMap</text>
</g>
<!-- Node31&#45;&gt;Node34 -->
<g id="edge64" class="edge"><title>Node31&#45;&gt;Node34</title>
<path fill="none" stroke="midnightblue" d="M1502.71,-168.324C1511.88,-160.341 1525.69,-148.313 1536.78,-138.653"/>
<polygon fill="midnightblue" stroke="midnightblue" points="1539.37,-141.041 1544.61,-131.834 1534.77,-135.762 1539.37,-141.041"/>
</g>
<!-- Node35 -->
<g id="node35" class="node"><title>Node35</title>
<polygon fill="white" stroke="#bfbfbf" points="1594.25,-112.5 1594.25,-131.5 1635.25,-131.5 1635.25,-112.5 1594.25,-112.5"/>
<text text-anchor="middle" x="1614.75" y="-119.5" font-family="Helvetica,sans-Serif" font-size="10.00">QPair</text>
</g>
<!-- Node31&#45;&gt;Node35 -->
<g id="edge65" class="edge"><title>Node31&#45;&gt;Node35</title>
<path fill="none" stroke="midnightblue" d="M1512.08,-168.444C1532.07,-159.596 1563.49,-145.687 1586.32,-135.586"/>
<polygon fill="midnightblue" stroke="midnightblue" points="1587.78,-138.764 1595.51,-131.516 1584.95,-132.363 1587.78,-138.764"/>
</g>
</g>
</svg>
