<?xml version="1.0" encoding="UTF-8" standalone="no"?>
<!DOCTYPE svg PUBLIC "-//W3C//DTD SVG 1.1//EN"
 "http://www.w3.org/Graphics/SVG/1.1/DTD/svg11.dtd">
<!-- Generated by graphviz version 2.38.0 (20140413.2041)
 -->
<!-- Title: headers/GProcess.h Pages: 1 -->
<svg width="1038pt" height="476pt"
 viewBox="0.00 0.00 1037.59 476.00" xmlns="http://www.w3.org/2000/svg" xmlns:xlink="http://www.w3.org/1999/xlink">
<g id="graph0" class="graph" transform="scale(1 1) rotate(0) translate(4 472)">
<title>headers/GProcess.h</title>
<polygon fill="white" stroke="none" points="-4,4 -4,-472 1033.59,-472 1033.59,4 -4,4"/>
<!-- Node1 -->
<g id="node1" class="node"><title>Node1</title>
<polygon fill="#bfbfbf" stroke="black" points="794.591,-448.5 794.591,-467.5 900.591,-467.5 900.591,-448.5 794.591,-448.5"/>
<text text-anchor="middle" x="847.591" y="-455.5" font-family="Helvetica,sans-Serif" font-size="10.00">headers/GProcess.h</text>
</g>
<!-- Node2 -->
<g id="node2" class="node"><title>Node2</title>
<g id="a_node2"><a xlink:href="GSort_8h.html" target="_top" xlink:title="header for the GSort class ">
<polygon fill="white" stroke="black" points="640.591,-392.5 640.591,-411.5 728.591,-411.5 728.591,-392.5 640.591,-392.5"/>
<text text-anchor="middle" x="684.591" y="-399.5" font-family="Helvetica,sans-Serif" font-size="10.00">headers/GSort.h</text>
</a>
</g>
</g>
<!-- Node1&#45;&gt;Node2 -->
<g id="edge1" class="edge"><title>Node1&#45;&gt;Node2</title>
<path fill="none" stroke="midnightblue" d="M811.888,-445.172C781.195,-435.004 737.672,-420.585 710.298,-411.516"/>
<polygon fill="midnightblue" stroke="midnightblue" points="811.17,-448.621 821.763,-448.444 813.371,-441.976 811.17,-448.621"/>
</g>
<!-- Node30 -->
<g id="node30" class="node"><title>Node30</title>
<g id="a_node30"><a xlink:href="GProcess_8cpp_source.html" target="_top" xlink:title="src/gfx/GProcess.cpp">
<polygon fill="white" stroke="black" points="875.591,-392.5 875.591,-411.5 987.591,-411.5 987.591,-392.5 875.591,-392.5"/>
<text text-anchor="middle" x="931.591" y="-399.5" font-family="Helvetica,sans-Serif" font-size="10.00">src/gfx/GProcess.cpp</text>
</a>
</g>
</g>
<!-- Node1&#45;&gt;Node30 -->
<g id="edge50" class="edge"><title>Node1&#45;&gt;Node30</title>
<path fill="none" stroke="midnightblue" d="M869.523,-442.901C884.926,-432.999 905.037,-420.071 918.128,-411.655"/>
<polygon fill="midnightblue" stroke="midnightblue" points="867.606,-439.972 861.087,-448.324 871.391,-445.86 867.606,-439.972"/>
</g>
<!-- Node3 -->
<g id="node3" class="node"><title>Node3</title>
<g id="a_node3"><a xlink:href="GAction_8h.html" target="_top" xlink:title="header for the GAction class ">
<polygon fill="white" stroke="black" points="692.591,-336.5 692.591,-355.5 790.591,-355.5 790.591,-336.5 692.591,-336.5"/>
<text text-anchor="middle" x="741.591" y="-343.5" font-family="Helvetica,sans-Serif" font-size="10.00">headers/GAction.h</text>
</a>
</g>
</g>
<!-- Node2&#45;&gt;Node3 -->
<g id="edge2" class="edge"><title>Node2&#45;&gt;Node3</title>
<path fill="none" stroke="midnightblue" d="M701.212,-385.253C711.325,-375.673 723.867,-363.791 732.266,-355.834"/>
<polygon fill="midnightblue" stroke="midnightblue" points="698.601,-382.906 693.749,-392.324 703.415,-387.987 698.601,-382.906"/>
</g>
<!-- Node29 -->
<g id="node29" class="node"><title>Node29</title>
<g id="a_node29"><a xlink:href="GSort_8cpp_source.html" target="_top" xlink:title="src/gfx/GSort.cpp">
<polygon fill="white" stroke="black" points="580.591,-336.5 580.591,-355.5 674.591,-355.5 674.591,-336.5 580.591,-336.5"/>
<text text-anchor="middle" x="627.591" y="-343.5" font-family="Helvetica,sans-Serif" font-size="10.00">src/gfx/GSort.cpp</text>
</a>
</g>
</g>
<!-- Node2&#45;&gt;Node29 -->
<g id="edge49" class="edge"><title>Node2&#45;&gt;Node29</title>
<path fill="none" stroke="midnightblue" d="M667.969,-385.253C657.857,-375.673 645.314,-363.791 636.915,-355.834"/>
<polygon fill="midnightblue" stroke="midnightblue" points="665.766,-387.987 675.433,-392.324 670.58,-382.906 665.766,-387.987"/>
</g>
<!-- Node4 -->
<g id="node4" class="node"><title>Node4</title>
<g id="a_node4"><a xlink:href="PHScene_8h.html" target="_top" xlink:title="header for the PHScene class ">
<polygon fill="white" stroke="black" points="537.591,-280.5 537.591,-299.5 641.591,-299.5 641.591,-280.5 537.591,-280.5"/>
<text text-anchor="middle" x="589.591" y="-287.5" font-family="Helvetica,sans-Serif" font-size="10.00">headers/PHScene.h</text>
</a>
</g>
</g>
<!-- Node3&#45;&gt;Node4 -->
<g id="edge3" class="edge"><title>Node3&#45;&gt;Node4</title>
<path fill="none" stroke="midnightblue" d="M702.601,-333.172C672.393,-323.004 632.012,-308.585 608.483,-299.516"/>
<polygon fill="midnightblue" stroke="midnightblue" points="701.823,-336.602 712.417,-336.444 704.037,-329.961 701.823,-336.602"/>
</g>
<!-- Node6 -->
<g id="node6" class="node"><title>Node6</title>
<g id="a_node6"><a xlink:href="Action_8h.html" target="_top" xlink:title="header for the Action class ">
<polygon fill="white" stroke="black" points="774.591,-168.5 774.591,-187.5 864.591,-187.5 864.591,-168.5 774.591,-168.5"/>
<text text-anchor="middle" x="819.591" y="-175.5" font-family="Helvetica,sans-Serif" font-size="10.00">headers/Action.h</text>
</a>
</g>
</g>
<!-- Node3&#45;&gt;Node6 -->
<g id="edge44" class="edge"><title>Node3&#45;&gt;Node6</title>
<path fill="none" stroke="midnightblue" d="M746.781,-327.593C751.859,-319.484 758.542,-309.537 763.591,-300 784.889,-259.767 801.839,-207.69 812.464,-187.51"/>
<polygon fill="midnightblue" stroke="midnightblue" points="743.643,-326.025 741.601,-336.421 749.68,-329.568 743.643,-326.025"/>
</g>
<!-- Node27 -->
<g id="node27" class="node"><title>Node27</title>
<g id="a_node27"><a xlink:href="TikzEditor_8h_source.html" target="_top" xlink:title="headers/TikzEditor.h">
<polygon fill="white" stroke="black" points="31.0907,-168.5 31.0907,-187.5 138.091,-187.5 138.091,-168.5 31.0907,-168.5"/>
<text text-anchor="middle" x="84.5907" y="-175.5" font-family="Helvetica,sans-Serif" font-size="10.00">headers/TikzEditor.h</text>
</a>
</g>
</g>
<!-- Node3&#45;&gt;Node27 -->
<g id="edge45" class="edge"><title>Node3&#45;&gt;Node27</title>
<path fill="none" stroke="midnightblue" d="M687.359,-334.443C644.196,-325.825 582.328,-312.987 528.591,-300 370.944,-261.9 184.128,-208.139 113.532,-187.512"/>
<polygon fill="midnightblue" stroke="midnightblue" points="686.875,-337.916 697.365,-336.433 688.24,-331.05 686.875,-337.916"/>
</g>
<!-- Node28 -->
<g id="node28" class="node"><title>Node28</title>
<g id="a_node28"><a xlink:href="GAction_8cpp_source.html" target="_top" xlink:title="src/gfx/GAction.cpp">
<polygon fill="white" stroke="black" points="659.591,-280.5 659.591,-299.5 763.591,-299.5 763.591,-280.5 659.591,-280.5"/>
<text text-anchor="middle" x="711.591" y="-287.5" font-family="Helvetica,sans-Serif" font-size="10.00">src/gfx/GAction.cpp</text>
</a>
</g>
</g>
<!-- Node3&#45;&gt;Node28 -->
<g id="edge48" class="edge"><title>Node3&#45;&gt;Node28</title>
<path fill="none" stroke="midnightblue" d="M731.743,-327.275C726.616,-318.045 720.574,-307.17 716.452,-299.751"/>
<polygon fill="midnightblue" stroke="midnightblue" points="728.721,-329.041 736.637,-336.083 734.84,-325.642 728.721,-329.041"/>
</g>
<!-- Node4&#45;&gt;Node2 -->
<g id="edge42" class="edge"><title>Node4&#45;&gt;Node2</title>
<path fill="none" stroke="midnightblue" d="M577.469,-308.322C569.387,-322.206 561.872,-341.669 571.591,-356 586.939,-378.632 615.675,-389.882 640.327,-395.474"/>
<polygon fill="midnightblue" stroke="midnightblue" points="580.521,-310.045 582.95,-299.732 574.62,-306.28 580.521,-310.045"/>
</g>
<!-- Node4&#45;&gt;Node3 -->
<g id="edge41" class="edge"><title>Node4&#45;&gt;Node3</title>
<path fill="none" stroke="midnightblue" d="M628.447,-302.783C658.626,-312.939 699.016,-327.359 722.595,-336.444"/>
<polygon fill="midnightblue" stroke="midnightblue" points="629.236,-299.357 618.643,-299.516 627.024,-305.998 629.236,-299.357"/>
</g>
<!-- Node5 -->
<g id="node5" class="node"><title>Node5</title>
<g id="a_node5"><a xlink:href="PH_8h.html" target="_top" xlink:title="header for the PH class ">
<polygon fill="white" stroke="black" points="650.091,-224.5 650.091,-243.5 727.091,-243.5 727.091,-224.5 650.091,-224.5"/>
<text text-anchor="middle" x="688.591" y="-231.5" font-family="Helvetica,sans-Serif" font-size="10.00">headers/PH.h</text>
</a>
</g>
</g>
<!-- Node4&#45;&gt;Node5 -->
<g id="edge4" class="edge"><title>Node4&#45;&gt;Node5</title>
<path fill="none" stroke="midnightblue" d="M614.428,-275.453C632.704,-265.483 657.006,-252.228 672.724,-243.655"/>
<polygon fill="midnightblue" stroke="midnightblue" points="612.6,-272.463 605.497,-280.324 615.952,-278.608 612.6,-272.463"/>
</g>
<!-- Node26 -->
<g id="node26" class="node"><title>Node26</title>
<g id="a_node26"><a xlink:href="PHScene_8cpp_source.html" target="_top" xlink:title="src/gfx/PHScene.cpp">
<polygon fill="white" stroke="black" points="156.591,-168.5 156.591,-187.5 266.591,-187.5 266.591,-168.5 156.591,-168.5"/>
<text text-anchor="middle" x="211.591" y="-175.5" font-family="Helvetica,sans-Serif" font-size="10.00">src/gfx/PHScene.cpp</text>
</a>
</g>
</g>
<!-- Node4&#45;&gt;Node26 -->
<g id="edge43" class="edge"><title>Node4&#45;&gt;Node26</title>
<path fill="none" stroke="midnightblue" d="M550.575,-277.646C474.606,-255.539 308.383,-207.167 240.918,-187.535"/>
<polygon fill="midnightblue" stroke="midnightblue" points="549.665,-281.026 560.244,-280.46 551.62,-274.305 549.665,-281.026"/>
</g>
<!-- Node5&#45;&gt;Node1 -->
<g id="edge9" class="edge"><title>Node5&#45;&gt;Node1</title>
<path fill="none" stroke="midnightblue" d="M723.085,-247.556C739.687,-254.966 758.907,-265.721 772.591,-280 822.007,-331.565 841.215,-420.606 846.187,-448.434"/>
<polygon fill="midnightblue" stroke="midnightblue" points="724.247,-244.248 713.674,-243.579 721.522,-250.696 724.247,-244.248"/>
</g>
<!-- Node5&#45;&gt;Node6 -->
<g id="edge5" class="edge"><title>Node5&#45;&gt;Node6</title>
<path fill="none" stroke="midnightblue" d="M713.419,-220.368C736.496,-210.255 770.479,-196.349 793.851,-187.516"/>
<polygon fill="midnightblue" stroke="midnightblue" points="711.973,-217.18 704.259,-224.444 714.819,-223.576 711.973,-217.18"/>
</g>
<!-- Node8 -->
<g id="node8" class="node"><title>Node8</title>
<g id="a_node8"><a xlink:href="MyArea_8h.html" target="_top" xlink:title="header for the MyArea class ">
<polygon fill="white" stroke="black" points="485.591,-168.5 485.591,-187.5 581.591,-187.5 581.591,-168.5 485.591,-168.5"/>
<text text-anchor="middle" x="533.591" y="-175.5" font-family="Helvetica,sans-Serif" font-size="10.00">headers/MyArea.h</text>
</a>
</g>
</g>
<!-- Node5&#45;&gt;Node8 -->
<g id="edge10" class="edge"><title>Node5&#45;&gt;Node8</title>
<path fill="none" stroke="midnightblue" d="M654.259,-221.039C625.094,-210.879 583.953,-196.546 558.036,-187.516"/>
<polygon fill="midnightblue" stroke="midnightblue" points="653.436,-224.459 664.03,-224.444 655.739,-217.848 653.436,-224.459"/>
</g>
<!-- Node14 -->
<g id="node14" class="node"><title>Node14</title>
<g id="a_node14"><a xlink:href="TikzEditor_8cpp_source.html" target="_top" xlink:title="src/ui/TikzEditor.cpp">
<polygon fill="white" stroke="black" points="1.0907,-0.5 1.0907,-19.5 108.091,-19.5 108.091,-0.5 1.0907,-0.5"/>
<text text-anchor="middle" x="54.5907" y="-7.5" font-family="Helvetica,sans-Serif" font-size="10.00">src/ui/TikzEditor.cpp</text>
</a>
</g>
</g>
<!-- Node5&#45;&gt;Node14 -->
<g id="edge40" class="edge"><title>Node5&#45;&gt;Node14</title>
<path fill="none" stroke="midnightblue" d="M639.838,-223.402C596.764,-214.743 532.314,-201.352 476.591,-188 382.864,-165.542 118.033,-151.072 57.5907,-76 44.5552,-59.8095 48.7084,-33.3137 52.0758,-19.6906"/>
<polygon fill="midnightblue" stroke="midnightblue" points="639.277,-226.859 649.77,-225.391 640.651,-219.995 639.277,-226.859"/>
</g>
<!-- Node17 -->
<g id="node17" class="node"><title>Node17</title>
<g id="a_node17"><a xlink:href="PHIO_8h.html" target="_top" xlink:title="header for the PHIO class ">
<polygon fill="white" stroke="black" points="665.091,-56.5 665.091,-75.5 752.091,-75.5 752.091,-56.5 665.091,-56.5"/>
<text text-anchor="middle" x="708.591" y="-63.5" font-family="Helvetica,sans-Serif" font-size="10.00">headers/PHIO.h</text>
</a>
</g>
</g>
<!-- Node5&#45;&gt;Node17 -->
<g id="edge36" class="edge"><title>Node5&#45;&gt;Node17</title>
<path fill="none" stroke="midnightblue" d="M690.888,-213.93C695.227,-177.92 704.466,-101.231 707.558,-75.5681"/>
<polygon fill="midnightblue" stroke="midnightblue" points="687.387,-213.728 689.666,-224.075 694.337,-214.566 687.387,-213.728"/>
</g>
<!-- Node19 -->
<g id="node19" class="node"><title>Node19</title>
<g id="a_node19"><a xlink:href="Main2_8cpp_source.html" target="_top" xlink:title="src/Main2.cpp">
<polygon fill="white" stroke="black" points="951.591,-0.5 951.591,-19.5 1029.59,-19.5 1029.59,-0.5 951.591,-0.5"/>
<text text-anchor="middle" x="990.591" y="-7.5" font-family="Helvetica,sans-Serif" font-size="10.00">src/Main2.cpp</text>
</a>
</g>
</g>
<!-- Node5&#45;&gt;Node19 -->
<g id="edge38" class="edge"><title>Node5&#45;&gt;Node19</title>
<path fill="none" stroke="midnightblue" d="M697.894,-215.253C713.949,-185.225 746.927,-126.262 765.591,-112 808.483,-79.2242 832.286,-97.9778 881.591,-76 918.619,-59.4944 958.729,-33.1365 978.361,-19.6158"/>
<polygon fill="midnightblue" stroke="midnightblue" points="694.732,-213.746 693.143,-224.221 700.918,-217.023 694.732,-213.746"/>
</g>
<!-- Node22 -->
<g id="node22" class="node"><title>Node22</title>
<g id="a_node22"><a xlink:href="PH_8cpp_source.html" target="_top" xlink:title="src/ph/PH.cpp">
<polygon fill="white" stroke="black" points="566.591,-56.5 566.591,-75.5 646.591,-75.5 646.591,-56.5 566.591,-56.5"/>
<text text-anchor="middle" x="606.591" y="-63.5" font-family="Helvetica,sans-Serif" font-size="10.00">src/ph/PH.cpp</text>
</a>
</g>
</g>
<!-- Node5&#45;&gt;Node22 -->
<g id="edge39" class="edge"><title>Node5&#45;&gt;Node22</title>
<path fill="none" stroke="midnightblue" d="M685.782,-214.294C681.43,-189.483 671.41,-144.983 651.591,-112 642.827,-97.4157 628.323,-84.0937 618.156,-75.7929"/>
<polygon fill="midnightblue" stroke="midnightblue" points="682.333,-214.891 687.397,-224.197 689.241,-213.764 682.333,-214.891"/>
</g>
<!-- Node5&#45;&gt;Node26 -->
<g id="edge37" class="edge"><title>Node5&#45;&gt;Node26</title>
<path fill="none" stroke="midnightblue" d="M639.739,-227.929C563.149,-219.906 410.164,-203.594 280.591,-188 276.153,-187.466 271.557,-186.898 266.94,-186.318"/>
<polygon fill="midnightblue" stroke="midnightblue" points="639.719,-231.446 650.029,-229.005 640.447,-224.484 639.719,-231.446"/>
</g>
<!-- Node6&#45;&gt;Node3 -->
<g id="edge7" class="edge"><title>Node6&#45;&gt;Node3</title>
<path fill="none" stroke="midnightblue" d="M820.067,-197.464C815.123,-221.708 799.977,-265.267 781.591,-300 774.489,-313.415 764.155,-327.64 755.206,-336.421"/>
<polygon fill="midnightblue" stroke="midnightblue" points="823.536,-197.93 821.621,-187.51 816.62,-196.85 823.536,-197.93"/>
</g>
<!-- Node6&#45;&gt;Node5 -->
<g id="edge6" class="edge"><title>Node6&#45;&gt;Node5</title>
<path fill="none" stroke="midnightblue" d="M794.867,-191.586C771.822,-201.687 737.841,-215.596 714.437,-224.444"/>
<polygon fill="midnightblue" stroke="midnightblue" points="796.298,-194.781 804.01,-187.516 793.451,-188.385 796.298,-194.781"/>
</g>
<!-- Node7 -->
<g id="node7" class="node"><title>Node7</title>
<g id="a_node7"><a xlink:href="Action_8cpp_source.html" target="_top" xlink:title="src/ph/Action.cpp">
<polygon fill="white" stroke="black" points="775.091,-112.5 775.091,-131.5 868.091,-131.5 868.091,-112.5 775.091,-112.5"/>
<text text-anchor="middle" x="821.591" y="-119.5" font-family="Helvetica,sans-Serif" font-size="10.00">src/ph/Action.cpp</text>
</a>
</g>
</g>
<!-- Node6&#45;&gt;Node7 -->
<g id="edge8" class="edge"><title>Node6&#45;&gt;Node7</title>
<path fill="none" stroke="midnightblue" d="M820.302,-157.805C820.631,-148.91 821.006,-138.78 821.267,-131.751"/>
<polygon fill="midnightblue" stroke="midnightblue" points="816.794,-157.96 819.921,-168.083 823.789,-158.219 816.794,-157.96"/>
</g>
<!-- Node9 -->
<g id="node9" class="node"><title>Node9</title>
<g id="a_node9"><a xlink:href="TreeArea_8h_source.html" target="_top" xlink:title="headers/TreeArea.h">
<polygon fill="white" stroke="black" points="540.591,-112.5 540.591,-131.5 642.591,-131.5 642.591,-112.5 540.591,-112.5"/>
<text text-anchor="middle" x="591.591" y="-119.5" font-family="Helvetica,sans-Serif" font-size="10.00">headers/TreeArea.h</text>
</a>
</g>
</g>
<!-- Node8&#45;&gt;Node9 -->
<g id="edge11" class="edge"><title>Node8&#45;&gt;Node9</title>
<path fill="none" stroke="midnightblue" d="M550.504,-161.253C560.794,-151.673 573.556,-139.791 582.102,-131.834"/>
<polygon fill="midnightblue" stroke="midnightblue" points="547.843,-158.948 542.909,-168.324 552.613,-164.071 547.843,-158.948"/>
</g>
<!-- Node16 -->
<g id="node16" class="node"><title>Node16</title>
<g id="a_node16"><a xlink:href="MainWindow_8h.html" target="_top" xlink:title="header for the Main class ">
<polygon fill="white" stroke="black" points="289.091,-112.5 289.091,-131.5 408.091,-131.5 408.091,-112.5 289.091,-112.5"/>
<text text-anchor="middle" x="348.591" y="-119.5" font-family="Helvetica,sans-Serif" font-size="10.00">headers/MainWindow.h</text>
</a>
</g>
</g>
<!-- Node8&#45;&gt;Node16 -->
<g id="edge18" class="edge"><title>Node8&#45;&gt;Node16</title>
<path fill="none" stroke="midnightblue" d="M494.425,-165.568C459.525,-155.381 409.241,-140.703 377.767,-131.516"/>
<polygon fill="midnightblue" stroke="midnightblue" points="493.697,-169.001 504.277,-168.444 495.658,-162.282 493.697,-169.001"/>
</g>
<!-- Node25 -->
<g id="node25" class="node"><title>Node25</title>
<g id="a_node25"><a xlink:href="MyArea_8cpp_source.html" target="_top" xlink:title="src/ui/MyArea.cpp">
<polygon fill="white" stroke="black" points="426.591,-112.5 426.591,-131.5 522.591,-131.5 522.591,-112.5 426.591,-112.5"/>
<text text-anchor="middle" x="474.591" y="-119.5" font-family="Helvetica,sans-Serif" font-size="10.00">src/ui/MyArea.cpp</text>
</a>
</g>
</g>
<!-- Node8&#45;&gt;Node25 -->
<g id="edge35" class="edge"><title>Node8&#45;&gt;Node25</title>
<path fill="none" stroke="midnightblue" d="M516.696,-161.537C506.176,-151.909 493.022,-139.869 484.243,-131.834"/>
<polygon fill="midnightblue" stroke="midnightblue" points="514.372,-164.154 524.111,-168.324 519.098,-158.99 514.372,-164.154"/>
</g>
<!-- Node10 -->
<g id="node10" class="node"><title>Node10</title>
<g id="a_node10"><a xlink:href="Area_8h_source.html" target="_top" xlink:title="headers/Area.h">
<polygon fill="white" stroke="black" points="465.091,-56.5 465.091,-75.5 548.091,-75.5 548.091,-56.5 465.091,-56.5"/>
<text text-anchor="middle" x="506.591" y="-63.5" font-family="Helvetica,sans-Serif" font-size="10.00">headers/Area.h</text>
</a>
</g>
</g>
<!-- Node9&#45;&gt;Node10 -->
<g id="edge12" class="edge"><title>Node9&#45;&gt;Node10</title>
<path fill="none" stroke="midnightblue" d="M569.397,-106.901C553.811,-96.9986 533.461,-84.0705 520.214,-75.6545"/>
<polygon fill="midnightblue" stroke="midnightblue" points="567.616,-109.916 577.934,-112.324 571.37,-104.007 567.616,-109.916"/>
</g>
<!-- Node15 -->
<g id="node15" class="node"><title>Node15</title>
<g id="a_node15"><a xlink:href="TreeArea_8cpp_source.html" target="_top" xlink:title="src/ui/TreeArea.cpp">
<polygon fill="white" stroke="black" points="770.591,-56.5 770.591,-75.5 872.591,-75.5 872.591,-56.5 770.591,-56.5"/>
<text text-anchor="middle" x="821.591" y="-63.5" font-family="Helvetica,sans-Serif" font-size="10.00">src/ui/TreeArea.cpp</text>
</a>
</g>
</g>
<!-- Node9&#45;&gt;Node15 -->
<g id="edge17" class="edge"><title>Node9&#45;&gt;Node15</title>
<path fill="none" stroke="midnightblue" d="M637.792,-110.153C681.248,-99.95 745.431,-84.8809 785.317,-75.5164"/>
<polygon fill="midnightblue" stroke="midnightblue" points="636.97,-106.75 628.035,-112.444 638.57,-113.565 636.97,-106.75"/>
</g>
<!-- Node11 -->
<g id="node11" class="node"><title>Node11</title>
<g id="a_node11"><a xlink:href="PHIO_8cpp_source.html" target="_top" xlink:title="src/io/PHIO.cpp">
<polygon fill="white" stroke="black" points="491.091,-0.5 491.091,-19.5 578.091,-19.5 578.091,-0.5 491.091,-0.5"/>
<text text-anchor="middle" x="534.591" y="-7.5" font-family="Helvetica,sans-Serif" font-size="10.00">src/io/PHIO.cpp</text>
</a>
</g>
</g>
<!-- Node10&#45;&gt;Node11 -->
<g id="edge13" class="edge"><title>Node10&#45;&gt;Node11</title>
<path fill="none" stroke="midnightblue" d="M515.933,-46.9827C520.686,-37.8168 526.247,-27.0922 530.053,-19.7511"/>
<polygon fill="midnightblue" stroke="midnightblue" points="512.71,-45.5943 511.214,-56.083 518.925,-48.8166 512.71,-45.5943"/>
</g>
<!-- Node12 -->
<g id="node12" class="node"><title>Node12</title>
<g id="a_node12"><a xlink:href="Area_8cpp_source.html" target="_top" xlink:title="src/ui/Area.cpp">
<polygon fill="white" stroke="black" points="596.091,-0.5 596.091,-19.5 679.091,-19.5 679.091,-0.5 596.091,-0.5"/>
<text text-anchor="middle" x="637.591" y="-7.5" font-family="Helvetica,sans-Serif" font-size="10.00">src/ui/Area.cpp</text>
</a>
</g>
</g>
<!-- Node10&#45;&gt;Node12 -->
<g id="edge14" class="edge"><title>Node10&#45;&gt;Node12</title>
<path fill="none" stroke="midnightblue" d="M536.908,-52.503C561.466,-42.3795 595.409,-28.388 616.93,-19.5164"/>
<polygon fill="midnightblue" stroke="midnightblue" points="535.259,-49.3966 527.348,-56.4435 537.927,-55.8683 535.259,-49.3966"/>
</g>
<!-- Node13 -->
<g id="node13" class="node"><title>Node13</title>
<g id="a_node13"><a xlink:href="MainWindow_8cpp_source.html" target="_top" xlink:title="src/ui/MainWindow.cpp">
<polygon fill="white" stroke="black" points="263.091,-0.5 263.091,-19.5 382.091,-19.5 382.091,-0.5 263.091,-0.5"/>
<text text-anchor="middle" x="322.591" y="-7.5" font-family="Helvetica,sans-Serif" font-size="10.00">src/ui/MainWindow.cpp</text>
</a>
</g>
</g>
<!-- Node10&#45;&gt;Node13 -->
<g id="edge15" class="edge"><title>Node10&#45;&gt;Node13</title>
<path fill="none" stroke="midnightblue" d="M467.636,-53.5677C432.926,-43.381 382.914,-28.7034 351.61,-19.5164"/>
<polygon fill="midnightblue" stroke="midnightblue" points="466.854,-56.9858 477.435,-56.4435 468.826,-50.2691 466.854,-56.9858"/>
</g>
<!-- Node10&#45;&gt;Node14 -->
<g id="edge16" class="edge"><title>Node10&#45;&gt;Node14</title>
<path fill="none" stroke="midnightblue" d="M454.785,-58.8108C368.428,-48.4938 195.905,-27.8827 108.3,-17.4166"/>
<polygon fill="midnightblue" stroke="midnightblue" points="454.533,-62.3055 464.878,-60.0166 455.364,-55.355 454.533,-62.3055"/>
</g>
<!-- Node16&#45;&gt;Node10 -->
<g id="edge19" class="edge"><title>Node16&#45;&gt;Node10</title>
<path fill="none" stroke="midnightblue" d="M383.198,-109.172C412.95,-99.0039 455.138,-84.5852 481.672,-75.5164"/>
<polygon fill="midnightblue" stroke="midnightblue" points="381.957,-105.898 373.626,-112.444 384.221,-112.521 381.957,-105.898"/>
</g>
<!-- Node16&#45;&gt;Node13 -->
<g id="edge33" class="edge"><title>Node16&#45;&gt;Node13</title>
<path fill="none" stroke="midnightblue" d="M365.248,-104.413C376.346,-91.2621 387.552,-72.4281 379.591,-56 371.563,-39.4349 354.152,-27.1278 340.672,-19.6099"/>
<polygon fill="midnightblue" stroke="midnightblue" points="362.338,-102.41 358.173,-112.152 367.504,-107.133 362.338,-102.41"/>
</g>
<!-- Node16&#45;&gt;Node14 -->
<g id="edge34" class="edge"><title>Node16&#45;&gt;Node14</title>
<path fill="none" stroke="midnightblue" d="M278.688,-117.901C207.423,-113.32 103.247,-102.238 73.5907,-76 57.2125,-61.51 54.6039,-33.7627 54.4019,-19.6718"/>
<polygon fill="midnightblue" stroke="midnightblue" points="278.756,-121.412 288.951,-118.531 279.184,-114.425 278.756,-121.412"/>
</g>
<!-- Node16&#45;&gt;Node17 -->
<g id="edge20" class="edge"><title>Node16&#45;&gt;Node17</title>
<path fill="none" stroke="midnightblue" d="M418.467,-111.217C480.736,-102.39 574.319,-88.8551 655.591,-76 658.633,-75.5188 661.771,-75.0121 664.931,-74.4945"/>
<polygon fill="midnightblue" stroke="midnightblue" points="417.777,-107.78 408.366,-112.647 418.758,-114.711 417.777,-107.78"/>
</g>
<!-- Node18 -->
<g id="node18" class="node"><title>Node18</title>
<g id="a_node18"><a xlink:href="Main_8cpp.html" target="_top" xlink:title="Principal Program. ">
<polygon fill="white" stroke="black" points="400.091,-0.5 400.091,-19.5 473.091,-19.5 473.091,-0.5 400.091,-0.5"/>
<text text-anchor="middle" x="436.591" y="-7.5" font-family="Helvetica,sans-Serif" font-size="10.00">src/Main.cpp</text>
</a>
</g>
</g>
<!-- Node16&#45;&gt;Node18 -->
<g id="edge29" class="edge"><title>Node16&#45;&gt;Node18</title>
<path fill="none" stroke="midnightblue" d="M366.529,-105.734C375.752,-97.4297 386.857,-86.6914 395.591,-76 410.784,-57.4007 424.881,-32.8217 431.913,-19.8671"/>
<polygon fill="midnightblue" stroke="midnightblue" points="364.213,-103.11 359.016,-112.343 368.836,-108.366 364.213,-103.11"/>
</g>
<!-- Node16&#45;&gt;Node22 -->
<g id="edge30" class="edge"><title>Node16&#45;&gt;Node22</title>
<path fill="none" stroke="midnightblue" d="M399.526,-110.339C448.437,-100.102 521.344,-84.8422 566.326,-75.4275"/>
<polygon fill="midnightblue" stroke="midnightblue" points="398.542,-106.969 389.472,-112.444 399.977,-113.821 398.542,-106.969"/>
</g>
<!-- Node23 -->
<g id="node23" class="node"><title>Node23</title>
<g id="a_node23"><a xlink:href="ConnectionSettings_8cpp_source.html" target="_top" xlink:title="src/ui/ConnectionSettings.cpp">
<polygon fill="white" stroke="black" points="82.5907,-56.5 82.5907,-75.5 230.591,-75.5 230.591,-56.5 82.5907,-56.5"/>
<text text-anchor="middle" x="156.591" y="-63.5" font-family="Helvetica,sans-Serif" font-size="10.00">src/ui/ConnectionSettings.cpp</text>
</a>
</g>
</g>
<!-- Node16&#45;&gt;Node23 -->
<g id="edge31" class="edge"><title>Node16&#45;&gt;Node23</title>
<path fill="none" stroke="midnightblue" d="M308.408,-109.699C272.171,-99.507 219.676,-84.7429 186.871,-75.5164"/>
<polygon fill="midnightblue" stroke="midnightblue" points="307.594,-113.105 318.168,-112.444 309.489,-106.367 307.594,-113.105"/>
</g>
<!-- Node24 -->
<g id="node24" class="node"><title>Node24</title>
<g id="a_node24"><a xlink:href="FunctionForm_8cpp_source.html" target="_top" xlink:title="src/ui/FunctionForm.cpp">
<polygon fill="white" stroke="black" points="248.591,-56.5 248.591,-75.5 370.591,-75.5 370.591,-56.5 248.591,-56.5"/>
<text text-anchor="middle" x="309.591" y="-63.5" font-family="Helvetica,sans-Serif" font-size="10.00">src/ui/FunctionForm.cpp</text>
</a>
</g>
</g>
<!-- Node16&#45;&gt;Node24 -->
<g id="edge32" class="edge"><title>Node16&#45;&gt;Node24</title>
<path fill="none" stroke="midnightblue" d="M336.208,-103.855C329.455,-94.5048 321.382,-83.3265 315.911,-75.7511"/>
<polygon fill="midnightblue" stroke="midnightblue" points="333.458,-106.025 342.151,-112.083 339.133,-101.927 333.458,-106.025"/>
</g>
<!-- Node17&#45;&gt;Node11 -->
<g id="edge21" class="edge"><title>Node17&#45;&gt;Node11</title>
<path fill="none" stroke="midnightblue" d="M671.33,-53.4363C638.524,-43.2551 591.508,-28.664 562.033,-19.5164"/>
<polygon fill="midnightblue" stroke="midnightblue" points="670.432,-56.8222 681.02,-56.4435 672.507,-50.1368 670.432,-56.8222"/>
</g>
<!-- Node17&#45;&gt;Node12 -->
<g id="edge25" class="edge"><title>Node17&#45;&gt;Node12</title>
<path fill="none" stroke="midnightblue" d="M689.001,-50.1008C676.223,-40.3824 659.978,-28.0269 649.206,-19.8339"/>
<polygon fill="midnightblue" stroke="midnightblue" points="687.105,-53.0561 697.183,-56.324 691.343,-47.4844 687.105,-53.0561"/>
</g>
<!-- Node17&#45;&gt;Node13 -->
<g id="edge26" class="edge"><title>Node17&#45;&gt;Node13</title>
<path fill="none" stroke="midnightblue" d="M655.04,-55.9961C606.11,-48.8865 464.244,-29.8927 382.307,-18.9579"/>
<polygon fill="midnightblue" stroke="midnightblue" points="654.531,-59.4589 664.937,-57.4666 655.56,-52.5349 654.531,-59.4589"/>
</g>
<!-- Node17&#45;&gt;Node14 -->
<g id="edge28" class="edge"><title>Node17&#45;&gt;Node14</title>
<path fill="none" stroke="midnightblue" d="M654.762,-56.0212C446.632,-31.0133 211.777,-18.1977 108.222,-13.3309"/>
<polygon fill="midnightblue" stroke="midnightblue" points="654.616,-59.5291 664.965,-57.2597 655.46,-52.5801 654.616,-59.5291"/>
</g>
<!-- Node17&#45;&gt;Node18 -->
<g id="edge22" class="edge"><title>Node17&#45;&gt;Node18</title>
<path fill="none" stroke="midnightblue" d="M655.449,-54.4918C609.442,-45.388 541.119,-31.8531 481.591,-20 478.934,-19.471 476.189,-18.9238 473.427,-18.3725"/>
<polygon fill="midnightblue" stroke="midnightblue" points="655.002,-57.9711 665.491,-56.4786 656.361,-51.1042 655.002,-57.9711"/>
</g>
<!-- Node17&#45;&gt;Node19 -->
<g id="edge23" class="edge"><title>Node17&#45;&gt;Node19</title>
<path fill="none" stroke="midnightblue" d="M762.289,-54.7173C817.466,-44.1515 902.052,-27.9542 951.287,-18.5262"/>
<polygon fill="midnightblue" stroke="midnightblue" points="761.507,-51.3034 752.344,-56.6217 762.824,-58.1785 761.507,-51.3034"/>
</g>
<!-- Node20 -->
<g id="node20" class="node"><title>Node20</title>
<g id="a_node20"><a xlink:href="PHIOTest_8cpp_source.html" target="_top" xlink:title="src/test/PHIOTest.cpp">
<polygon fill="white" stroke="black" points="697.591,-0.5 697.591,-19.5 813.591,-19.5 813.591,-0.5 697.591,-0.5"/>
<text text-anchor="middle" x="755.591" y="-7.5" font-family="Helvetica,sans-Serif" font-size="10.00">src/test/PHIOTest.cpp</text>
</a>
</g>
</g>
<!-- Node17&#45;&gt;Node20 -->
<g id="edge24" class="edge"><title>Node17&#45;&gt;Node20</title>
<path fill="none" stroke="midnightblue" d="M723.012,-48.4314C731.249,-38.9673 741.245,-27.4827 747.974,-19.7511"/>
<polygon fill="midnightblue" stroke="midnightblue" points="720.277,-46.2421 716.352,-56.083 725.557,-50.8378 720.277,-46.2421"/>
</g>
<!-- Node21 -->
<g id="node21" class="node"><title>Node21</title>
<g id="a_node21"><a xlink:href="TextArea_8cpp_source.html" target="_top" xlink:title="src/ui/TextArea.cpp">
<polygon fill="white" stroke="black" points="831.591,-0.5 831.591,-19.5 933.591,-19.5 933.591,-0.5 831.591,-0.5"/>
<text text-anchor="middle" x="882.591" y="-7.5" font-family="Helvetica,sans-Serif" font-size="10.00">src/ui/TextArea.cpp</text>
</a>
</g>
</g>
<!-- Node17&#45;&gt;Node21 -->
<g id="edge27" class="edge"><title>Node17&#45;&gt;Node21</title>
<path fill="none" stroke="midnightblue" d="M745.851,-53.4363C778.658,-43.2551 825.673,-28.664 855.149,-19.5164"/>
<polygon fill="midnightblue" stroke="midnightblue" points="744.675,-50.1368 736.162,-56.4435 746.75,-56.8222 744.675,-50.1368"/>
</g>
<!-- Node27&#45;&gt;Node14 -->
<g id="edge47" class="edge"><title>Node27&#45;&gt;Node14</title>
<path fill="none" stroke="midnightblue" d="M66.3198,-161.753C46.2533,-143.694 15.2034,-111.546 2.5907,-76 -0.381771,-67.6228 -1.10446,-64.0844 2.5907,-56 9.98565,-39.821 26.388,-27.2312 38.8074,-19.5333"/>
<polygon fill="midnightblue" stroke="midnightblue" points="64.0783,-164.442 73.9116,-168.386 68.6843,-159.171 64.0783,-164.442"/>
</g>
<!-- Node27&#45;&gt;Node16 -->
<g id="edge46" class="edge"><title>Node27&#45;&gt;Node16</title>
<path fill="none" stroke="midnightblue" d="M136.366,-166.41C186.259,-156.204 260.788,-140.96 306.955,-131.516"/>
<polygon fill="midnightblue" stroke="midnightblue" points="135.518,-163.01 126.422,-168.444 136.921,-169.869 135.518,-163.01"/>
</g>
</g>
</svg>
