<?xml version="1.0" encoding="UTF-8" standalone="no"?>
<!DOCTYPE svg PUBLIC "-//W3C//DTD SVG 1.1//EN"
 "http://www.w3.org/Graphics/SVG/1.1/DTD/svg11.dtd">
<!-- Generated by graphviz version 2.38.0 (20140413.2041)
 -->
<!-- Title: headers/GSort.h Pages: 1 -->
<svg width="1117pt" height="420pt"
 viewBox="0.00 0.00 1116.54 420.00" xmlns="http://www.w3.org/2000/svg" xmlns:xlink="http://www.w3.org/1999/xlink">
<g id="graph0" class="graph" transform="scale(1 1) rotate(0) translate(4 416)">
<title>headers/GSort.h</title>
<polygon fill="white" stroke="none" points="-4,4 -4,-416 1112.54,-416 1112.54,4 -4,4"/>
<!-- Node1 -->
<g id="node1" class="node"><title>Node1</title>
<polygon fill="#bfbfbf" stroke="black" points="384.536,-392.5 384.536,-411.5 472.536,-411.5 472.536,-392.5 384.536,-392.5"/>
<text text-anchor="middle" x="428.536" y="-399.5" font-family="Helvetica,sans-Serif" font-size="10.00">headers/GSort.h</text>
</g>
<!-- Node2 -->
<g id="node2" class="node"><title>Node2</title>
<g id="a_node2"><a xlink:href="GAction_8h.html" target="_top" xlink:title="header for the GAction class ">
<polygon fill="white" stroke="black" points="228.536,-336.5 228.536,-355.5 326.536,-355.5 326.536,-336.5 228.536,-336.5"/>
<text text-anchor="middle" x="277.536" y="-343.5" font-family="Helvetica,sans-Serif" font-size="10.00">headers/GAction.h</text>
</a>
</g>
</g>
<!-- Node1&#45;&gt;Node2 -->
<g id="edge1" class="edge"><title>Node1&#45;&gt;Node2</title>
<path fill="none" stroke="midnightblue" d="M395.09,-389.039C366.678,-378.879 326.599,-364.546 301.351,-355.516"/>
<polygon fill="midnightblue" stroke="midnightblue" points="394.015,-392.372 404.61,-392.444 396.372,-385.781 394.015,-392.372"/>
</g>
<!-- Node30 -->
<g id="node30" class="node"><title>Node30</title>
<g id="a_node30"><a xlink:href="GSort_8cpp_source.html" target="_top" xlink:title="src/gfx/GSort.cpp">
<polygon fill="white" stroke="black" points="344.536,-336.5 344.536,-355.5 438.536,-355.5 438.536,-336.5 344.536,-336.5"/>
<text text-anchor="middle" x="391.536" y="-343.5" font-family="Helvetica,sans-Serif" font-size="10.00">src/gfx/GSort.cpp</text>
</a>
</g>
</g>
<!-- Node1&#45;&gt;Node30 -->
<g id="edge50" class="edge"><title>Node1&#45;&gt;Node30</title>
<path fill="none" stroke="midnightblue" d="M416.59,-383.566C410.224,-374.275 402.669,-363.248 397.532,-355.751"/>
<polygon fill="midnightblue" stroke="midnightblue" points="413.887,-385.812 422.426,-392.083 419.661,-381.855 413.887,-385.812"/>
</g>
<!-- Node3 -->
<g id="node3" class="node"><title>Node3</title>
<g id="a_node3"><a xlink:href="PHScene_8h.html" target="_top" xlink:title="header for the PHScene class ">
<polygon fill="white" stroke="black" points="328.536,-280.5 328.536,-299.5 432.536,-299.5 432.536,-280.5 328.536,-280.5"/>
<text text-anchor="middle" x="380.536" y="-287.5" font-family="Helvetica,sans-Serif" font-size="10.00">headers/PHScene.h</text>
</a>
</g>
</g>
<!-- Node2&#45;&gt;Node3 -->
<g id="edge2" class="edge"><title>Node2&#45;&gt;Node3</title>
<path fill="none" stroke="midnightblue" d="M297.924,-331.177C315.612,-321.241 340.872,-308.149 358.918,-299.655"/>
<polygon fill="midnightblue" stroke="midnightblue" points="295.896,-328.306 288.97,-336.324 299.384,-334.375 295.896,-328.306"/>
</g>
<!-- Node5 -->
<g id="node5" class="node"><title>Node5</title>
<g id="a_node5"><a xlink:href="Action_8h.html" target="_top" xlink:title="header for the Action class ">
<polygon fill="white" stroke="black" points="217.536,-168.5 217.536,-187.5 307.536,-187.5 307.536,-168.5 217.536,-168.5"/>
<text text-anchor="middle" x="262.536" y="-175.5" font-family="Helvetica,sans-Serif" font-size="10.00">headers/Action.h</text>
</a>
</g>
</g>
<!-- Node2&#45;&gt;Node5 -->
<g id="edge45" class="edge"><title>Node2&#45;&gt;Node5</title>
<path fill="none" stroke="midnightblue" d="M271.316,-325.93C264.676,-289.92 258.177,-213.231 260.106,-187.568"/>
<polygon fill="midnightblue" stroke="midnightblue" points="267.969,-327.018 273.467,-336.075 274.817,-325.567 267.969,-327.018"/>
</g>
<!-- Node28 -->
<g id="node28" class="node"><title>Node28</title>
<g id="a_node28"><a xlink:href="TikzEditor_8h_source.html" target="_top" xlink:title="headers/TikzEditor.h">
<polygon fill="white" stroke="black" points="55.0362,-168.5 55.0362,-187.5 162.036,-187.5 162.036,-168.5 55.0362,-168.5"/>
<text text-anchor="middle" x="108.536" y="-175.5" font-family="Helvetica,sans-Serif" font-size="10.00">headers/TikzEditor.h</text>
</a>
</g>
</g>
<!-- Node2&#45;&gt;Node28 -->
<g id="edge46" class="edge"><title>Node2&#45;&gt;Node28</title>
<path fill="none" stroke="midnightblue" d="M218.45,-341.978C186.942,-337.173 150.12,-325.877 127.536,-300 98.8729,-267.157 103.932,-209.323 107.085,-187.583"/>
<polygon fill="midnightblue" stroke="midnightblue" points="218.093,-345.461 228.469,-343.319 219.022,-338.523 218.093,-345.461"/>
</g>
<!-- Node29 -->
<g id="node29" class="node"><title>Node29</title>
<g id="a_node29"><a xlink:href="GAction_8cpp_source.html" target="_top" xlink:title="src/gfx/GAction.cpp">
<polygon fill="white" stroke="black" points="136.536,-280.5 136.536,-299.5 240.536,-299.5 240.536,-280.5 136.536,-280.5"/>
<text text-anchor="middle" x="188.536" y="-287.5" font-family="Helvetica,sans-Serif" font-size="10.00">src/gfx/GAction.cpp</text>
</a>
</g>
</g>
<!-- Node2&#45;&gt;Node29 -->
<g id="edge49" class="edge"><title>Node2&#45;&gt;Node29</title>
<path fill="none" stroke="midnightblue" d="M254.298,-330.901C237.978,-320.999 216.671,-308.071 202.8,-299.655"/>
<polygon fill="midnightblue" stroke="midnightblue" points="252.872,-334.129 263.237,-336.324 256.503,-328.144 252.872,-334.129"/>
</g>
<!-- Node3&#45;&gt;Node1 -->
<g id="edge43" class="edge"><title>Node3&#45;&gt;Node1</title>
<path fill="none" stroke="midnightblue" d="M412.378,-304.058C425.776,-311.335 439.986,-321.834 447.536,-336 457.49,-354.676 444.053,-379.224 435.197,-392.153"/>
<polygon fill="midnightblue" stroke="midnightblue" points="413.834,-300.872 403.325,-299.529 410.702,-307.133 413.834,-300.872"/>
</g>
<!-- Node3&#45;&gt;Node2 -->
<g id="edge42" class="edge"><title>Node3&#45;&gt;Node2</title>
<path fill="none" stroke="midnightblue" d="M360.397,-304.683C342.63,-314.675 317.09,-327.912 298.946,-336.444"/>
<polygon fill="midnightblue" stroke="midnightblue" points="362.451,-307.539 369.372,-299.516 358.959,-301.472 362.451,-307.539"/>
</g>
<!-- Node4 -->
<g id="node4" class="node"><title>Node4</title>
<g id="a_node4"><a xlink:href="PH_8h.html" target="_top" xlink:title="header for the PH class ">
<polygon fill="white" stroke="black" points="444.036,-224.5 444.036,-243.5 521.036,-243.5 521.036,-224.5 444.036,-224.5"/>
<text text-anchor="middle" x="482.536" y="-231.5" font-family="Helvetica,sans-Serif" font-size="10.00">headers/PH.h</text>
</a>
</g>
</g>
<!-- Node3&#45;&gt;Node4 -->
<g id="edge3" class="edge"><title>Node3&#45;&gt;Node4</title>
<path fill="none" stroke="midnightblue" d="M405.867,-275.59C424.726,-265.605 449.92,-252.267 466.189,-243.655"/>
<polygon fill="midnightblue" stroke="midnightblue" points="404.125,-272.552 396.924,-280.324 407.4,-278.738 404.125,-272.552"/>
</g>
<!-- Node27 -->
<g id="node27" class="node"><title>Node27</title>
<g id="a_node27"><a xlink:href="PHScene_8cpp_source.html" target="_top" xlink:title="src/gfx/PHScene.cpp">
<polygon fill="white" stroke="black" points="325.536,-168.5 325.536,-187.5 435.536,-187.5 435.536,-168.5 325.536,-168.5"/>
<text text-anchor="middle" x="380.536" y="-175.5" font-family="Helvetica,sans-Serif" font-size="10.00">src/gfx/PHScene.cpp</text>
</a>
</g>
</g>
<!-- Node3&#45;&gt;Node27 -->
<g id="edge44" class="edge"><title>Node3&#45;&gt;Node27</title>
<path fill="none" stroke="midnightblue" d="M380.536,-270.348C380.536,-246.254 380.536,-205.308 380.536,-187.591"/>
<polygon fill="midnightblue" stroke="midnightblue" points="377.036,-270.368 380.536,-280.368 384.036,-270.369 377.036,-270.368"/>
</g>
<!-- Node4&#45;&gt;Node5 -->
<g id="edge4" class="edge"><title>Node4&#45;&gt;Node5</title>
<path fill="none" stroke="midnightblue" d="M434.085,-222.453C390.708,-212.251 328.642,-196.984 292.193,-187.527"/>
<polygon fill="midnightblue" stroke="midnightblue" points="433.326,-225.87 443.861,-224.74 434.921,-219.054 433.326,-225.87"/>
</g>
<!-- Node7 -->
<g id="node7" class="node"><title>Node7</title>
<g id="a_node7"><a xlink:href="GProcess_8h.html" target="_top" xlink:title="header for the GProcess class ">
<polygon fill="white" stroke="black" points="934.536,-168.5 934.536,-187.5 1040.54,-187.5 1040.54,-168.5 934.536,-168.5"/>
<text text-anchor="middle" x="987.536" y="-175.5" font-family="Helvetica,sans-Serif" font-size="10.00">headers/GProcess.h</text>
</a>
</g>
</g>
<!-- Node4&#45;&gt;Node7 -->
<g id="edge8" class="edge"><title>Node4&#45;&gt;Node7</title>
<path fill="none" stroke="midnightblue" d="M531.641,-228.458C612.708,-220.847 779.597,-204.702 920.536,-188 925.082,-187.461 929.797,-186.878 934.525,-186.276"/>
<polygon fill="midnightblue" stroke="midnightblue" points="530.881,-225.014 521.251,-229.431 531.534,-231.983 530.881,-225.014"/>
</g>
<!-- Node9 -->
<g id="node9" class="node"><title>Node9</title>
<g id="a_node9"><a xlink:href="MyArea_8h.html" target="_top" xlink:title="header for the MyArea class ">
<polygon fill="white" stroke="black" points="529.536,-168.5 529.536,-187.5 625.536,-187.5 625.536,-168.5 529.536,-168.5"/>
<text text-anchor="middle" x="577.536" y="-175.5" font-family="Helvetica,sans-Serif" font-size="10.00">headers/MyArea.h</text>
</a>
</g>
</g>
<!-- Node4&#45;&gt;Node9 -->
<g id="edge11" class="edge"><title>Node4&#45;&gt;Node9</title>
<path fill="none" stroke="midnightblue" d="M506.854,-219.177C524.335,-209.241 547.366,-196.149 562.311,-187.655"/>
<polygon fill="midnightblue" stroke="midnightblue" points="504.764,-216.339 497.8,-224.324 508.223,-222.425 504.764,-216.339"/>
</g>
<!-- Node15 -->
<g id="node15" class="node"><title>Node15</title>
<g id="a_node15"><a xlink:href="TikzEditor_8cpp_source.html" target="_top" xlink:title="src/ui/TikzEditor.cpp">
<polygon fill="white" stroke="black" points="147.036,-0.5 147.036,-19.5 254.036,-19.5 254.036,-0.5 147.036,-0.5"/>
<text text-anchor="middle" x="200.536" y="-7.5" font-family="Helvetica,sans-Serif" font-size="10.00">src/ui/TikzEditor.cpp</text>
</a>
</g>
</g>
<!-- Node4&#45;&gt;Node15 -->
<g id="edge41" class="edge"><title>Node4&#45;&gt;Node15</title>
<path fill="none" stroke="midnightblue" d="M475.903,-214.678C469.797,-200.178 459.418,-180.374 444.536,-168 408.215,-137.799 387.864,-150.816 344.536,-132 326.669,-124.241 324.119,-117.844 305.536,-112 249.054,-94.2373 80.4727,-120.606 41.5362,-76 8.29576,-37.9191 88.7768,-21.7704 146.959,-15.2051"/>
<polygon fill="midnightblue" stroke="midnightblue" points="472.694,-216.08 479.598,-224.117 479.212,-213.529 472.694,-216.08"/>
</g>
<!-- Node18 -->
<g id="node18" class="node"><title>Node18</title>
<g id="a_node18"><a xlink:href="PHIO_8h.html" target="_top" xlink:title="header for the PHIO class ">
<polygon fill="white" stroke="black" points="791.036,-56.5 791.036,-75.5 878.036,-75.5 878.036,-56.5 791.036,-56.5"/>
<text text-anchor="middle" x="834.536" y="-63.5" font-family="Helvetica,sans-Serif" font-size="10.00">headers/PHIO.h</text>
</a>
</g>
</g>
<!-- Node4&#45;&gt;Node18 -->
<g id="edge37" class="edge"><title>Node4&#45;&gt;Node18</title>
<path fill="none" stroke="midnightblue" d="M529.154,-221.923C585.514,-207.171 681.841,-177.523 754.536,-132 782.14,-114.714 810.929,-89.1535 825.267,-75.8206"/>
<polygon fill="midnightblue" stroke="midnightblue" points="528.262,-218.538 519.449,-224.419 530.005,-225.318 528.262,-218.538"/>
</g>
<!-- Node20 -->
<g id="node20" class="node"><title>Node20</title>
<g id="a_node20"><a xlink:href="Main2_8cpp_source.html" target="_top" xlink:title="src/Main2.cpp">
<polygon fill="white" stroke="black" points="1030.54,-0.5 1030.54,-19.5 1108.54,-19.5 1108.54,-0.5 1030.54,-0.5"/>
<text text-anchor="middle" x="1069.54" y="-7.5" font-family="Helvetica,sans-Serif" font-size="10.00">src/Main2.cpp</text>
</a>
</g>
</g>
<!-- Node4&#45;&gt;Node20 -->
<g id="edge39" class="edge"><title>Node4&#45;&gt;Node20</title>
<path fill="none" stroke="midnightblue" d="M531.126,-224.374C570.595,-216.726 627.407,-204.252 675.536,-188 827.577,-136.661 1000.75,-47.4683 1053.48,-19.5838"/>
<polygon fill="midnightblue" stroke="midnightblue" points="530.398,-220.95 521.23,-226.261 531.709,-227.826 530.398,-220.95"/>
</g>
<!-- Node23 -->
<g id="node23" class="node"><title>Node23</title>
<g id="a_node23"><a xlink:href="PH_8cpp_source.html" target="_top" xlink:title="src/ph/PH.cpp">
<polygon fill="white" stroke="black" points="470.536,-56.5 470.536,-75.5 550.536,-75.5 550.536,-56.5 470.536,-56.5"/>
<text text-anchor="middle" x="510.536" y="-63.5" font-family="Helvetica,sans-Serif" font-size="10.00">src/ph/PH.cpp</text>
</a>
</g>
</g>
<!-- Node4&#45;&gt;Node23 -->
<g id="edge40" class="edge"><title>Node4&#45;&gt;Node23</title>
<path fill="none" stroke="midnightblue" d="M485.753,-213.93C491.827,-177.92 504.762,-101.231 509.091,-75.5681"/>
<polygon fill="midnightblue" stroke="midnightblue" points="482.254,-213.632 484.042,-224.075 489.156,-214.797 482.254,-213.632"/>
</g>
<!-- Node4&#45;&gt;Node27 -->
<g id="edge38" class="edge"><title>Node4&#45;&gt;Node27</title>
<path fill="none" stroke="midnightblue" d="M457.205,-219.59C438.346,-209.605 413.152,-196.267 396.884,-187.655"/>
<polygon fill="midnightblue" stroke="midnightblue" points="455.673,-222.738 466.148,-224.324 458.948,-216.552 455.673,-222.738"/>
</g>
<!-- Node5&#45;&gt;Node2 -->
<g id="edge6" class="edge"><title>Node5&#45;&gt;Node2</title>
<path fill="none" stroke="midnightblue" d="M268.665,-197.577C275.306,-233.211 281.844,-309.945 279.993,-336.075"/>
<polygon fill="midnightblue" stroke="midnightblue" points="272.037,-196.61 266.515,-187.568 265.193,-198.08 272.037,-196.61"/>
</g>
<!-- Node5&#45;&gt;Node4 -->
<g id="edge5" class="edge"><title>Node5&#45;&gt;Node4</title>
<path fill="none" stroke="midnightblue" d="M312.078,-189.804C355.354,-199.993 416.605,-215.063 452.765,-224.444"/>
<polygon fill="midnightblue" stroke="midnightblue" points="312.847,-186.389 302.313,-187.516 311.251,-193.205 312.847,-186.389"/>
</g>
<!-- Node6 -->
<g id="node6" class="node"><title>Node6</title>
<g id="a_node6"><a xlink:href="Action_8cpp_source.html" target="_top" xlink:title="src/ph/Action.cpp">
<polygon fill="white" stroke="black" points="204.036,-112.5 204.036,-131.5 297.036,-131.5 297.036,-112.5 204.036,-112.5"/>
<text text-anchor="middle" x="250.536" y="-119.5" font-family="Helvetica,sans-Serif" font-size="10.00">src/ph/Action.cpp</text>
</a>
</g>
</g>
<!-- Node5&#45;&gt;Node6 -->
<g id="edge7" class="edge"><title>Node5&#45;&gt;Node6</title>
<path fill="none" stroke="midnightblue" d="M258.336,-158.101C256.344,-149.136 254.06,-138.858 252.481,-131.751"/>
<polygon fill="midnightblue" stroke="midnightblue" points="254.969,-159.08 260.555,-168.083 261.802,-157.562 254.969,-159.08"/>
</g>
<!-- Node7&#45;&gt;Node1 -->
<g id="edge9" class="edge"><title>Node7&#45;&gt;Node1</title>
<path fill="none" stroke="midnightblue" d="M956.678,-191.255C855.632,-231.384 536.226,-358.232 450.107,-392.433"/>
<polygon fill="midnightblue" stroke="midnightblue" points="958.028,-194.485 966.03,-187.541 955.444,-187.979 958.028,-194.485"/>
</g>
<!-- Node8 -->
<g id="node8" class="node"><title>Node8</title>
<g id="a_node8"><a xlink:href="GProcess_8cpp_source.html" target="_top" xlink:title="src/gfx/GProcess.cpp">
<polygon fill="white" stroke="black" points="934.536,-112.5 934.536,-131.5 1046.54,-131.5 1046.54,-112.5 934.536,-112.5"/>
<text text-anchor="middle" x="990.536" y="-119.5" font-family="Helvetica,sans-Serif" font-size="10.00">src/gfx/GProcess.cpp</text>
</a>
</g>
</g>
<!-- Node7&#45;&gt;Node8 -->
<g id="edge10" class="edge"><title>Node7&#45;&gt;Node8</title>
<path fill="none" stroke="midnightblue" d="M988.603,-157.805C989.097,-148.91 989.66,-138.78 990.05,-131.751"/>
<polygon fill="midnightblue" stroke="midnightblue" points="985.092,-157.904 988.032,-168.083 992.081,-158.293 985.092,-157.904"/>
</g>
<!-- Node10 -->
<g id="node10" class="node"><title>Node10</title>
<g id="a_node10"><a xlink:href="TreeArea_8h_source.html" target="_top" xlink:title="headers/TreeArea.h">
<polygon fill="white" stroke="black" points="643.536,-112.5 643.536,-131.5 745.536,-131.5 745.536,-112.5 643.536,-112.5"/>
<text text-anchor="middle" x="694.536" y="-119.5" font-family="Helvetica,sans-Serif" font-size="10.00">headers/TreeArea.h</text>
</a>
</g>
</g>
<!-- Node9&#45;&gt;Node10 -->
<g id="edge12" class="edge"><title>Node9&#45;&gt;Node10</title>
<path fill="none" stroke="midnightblue" d="M605.2,-164.232C627.085,-154.131 657.033,-140.309 676.084,-131.516"/>
<polygon fill="midnightblue" stroke="midnightblue" points="603.688,-161.075 596.075,-168.444 606.622,-167.431 603.688,-161.075"/>
</g>
<!-- Node17 -->
<g id="node17" class="node"><title>Node17</title>
<g id="a_node17"><a xlink:href="MainWindow_8h.html" target="_top" xlink:title="header for the Main class ">
<polygon fill="white" stroke="black" points="354.036,-112.5 354.036,-131.5 473.036,-131.5 473.036,-112.5 354.036,-112.5"/>
<text text-anchor="middle" x="413.536" y="-119.5" font-family="Helvetica,sans-Serif" font-size="10.00">headers/MainWindow.h</text>
</a>
</g>
</g>
<!-- Node9&#45;&gt;Node17 -->
<g id="edge19" class="edge"><title>Node9&#45;&gt;Node17</title>
<path fill="none" stroke="midnightblue" d="M542.016,-165.304C511.114,-155.129 467.063,-140.625 439.401,-131.516"/>
<polygon fill="midnightblue" stroke="midnightblue" points="540.957,-168.64 551.55,-168.444 543.146,-161.992 540.957,-168.64"/>
</g>
<!-- Node26 -->
<g id="node26" class="node"><title>Node26</title>
<g id="a_node26"><a xlink:href="MyArea_8cpp_source.html" target="_top" xlink:title="src/ui/MyArea.cpp">
<polygon fill="white" stroke="black" points="529.536,-112.5 529.536,-131.5 625.536,-131.5 625.536,-112.5 529.536,-112.5"/>
<text text-anchor="middle" x="577.536" y="-119.5" font-family="Helvetica,sans-Serif" font-size="10.00">src/ui/MyArea.cpp</text>
</a>
</g>
</g>
<!-- Node9&#45;&gt;Node26 -->
<g id="edge36" class="edge"><title>Node9&#45;&gt;Node26</title>
<path fill="none" stroke="midnightblue" d="M577.536,-157.805C577.536,-148.91 577.536,-138.78 577.536,-131.751"/>
<polygon fill="midnightblue" stroke="midnightblue" points="574.036,-158.083 577.536,-168.083 581.036,-158.083 574.036,-158.083"/>
</g>
<!-- Node11 -->
<g id="node11" class="node"><title>Node11</title>
<g id="a_node11"><a xlink:href="Area_8h_source.html" target="_top" xlink:title="headers/Area.h">
<polygon fill="white" stroke="black" points="569.036,-56.5 569.036,-75.5 652.036,-75.5 652.036,-56.5 569.036,-56.5"/>
<text text-anchor="middle" x="610.536" y="-63.5" font-family="Helvetica,sans-Serif" font-size="10.00">headers/Area.h</text>
</a>
</g>
</g>
<!-- Node10&#45;&gt;Node11 -->
<g id="edge13" class="edge"><title>Node10&#45;&gt;Node11</title>
<path fill="none" stroke="midnightblue" d="M672.604,-106.901C657.201,-96.9986 637.09,-84.0705 623.999,-75.6545"/>
<polygon fill="midnightblue" stroke="midnightblue" points="670.736,-109.86 681.04,-112.324 674.521,-103.972 670.736,-109.86"/>
</g>
<!-- Node16 -->
<g id="node16" class="node"><title>Node16</title>
<g id="a_node16"><a xlink:href="TreeArea_8cpp_source.html" target="_top" xlink:title="src/ui/TreeArea.cpp">
<polygon fill="white" stroke="black" points="670.536,-56.5 670.536,-75.5 772.536,-75.5 772.536,-56.5 670.536,-56.5"/>
<text text-anchor="middle" x="721.536" y="-63.5" font-family="Helvetica,sans-Serif" font-size="10.00">src/ui/TreeArea.cpp</text>
</a>
</g>
</g>
<!-- Node10&#45;&gt;Node16 -->
<g id="edge18" class="edge"><title>Node10&#45;&gt;Node16</title>
<path fill="none" stroke="midnightblue" d="M703.545,-102.983C708.128,-93.8168 713.49,-83.0922 717.161,-75.7511"/>
<polygon fill="midnightblue" stroke="midnightblue" points="700.336,-101.573 698.995,-112.083 706.597,-104.704 700.336,-101.573"/>
</g>
<!-- Node12 -->
<g id="node12" class="node"><title>Node12</title>
<g id="a_node12"><a xlink:href="PHIO_8cpp_source.html" target="_top" xlink:title="src/io/PHIO.cpp">
<polygon fill="white" stroke="black" points="671.036,-0.5 671.036,-19.5 758.036,-19.5 758.036,-0.5 671.036,-0.5"/>
<text text-anchor="middle" x="714.536" y="-7.5" font-family="Helvetica,sans-Serif" font-size="10.00">src/io/PHIO.cpp</text>
</a>
</g>
</g>
<!-- Node11&#45;&gt;Node12 -->
<g id="edge14" class="edge"><title>Node11&#45;&gt;Node12</title>
<path fill="none" stroke="midnightblue" d="M636.364,-51.5895C655.593,-41.6052 681.281,-28.2672 697.868,-19.6545"/>
<polygon fill="midnightblue" stroke="midnightblue" points="634.508,-48.6095 627.246,-56.324 637.733,-54.822 634.508,-48.6095"/>
</g>
<!-- Node13 -->
<g id="node13" class="node"><title>Node13</title>
<g id="a_node13"><a xlink:href="Area_8cpp_source.html" target="_top" xlink:title="src/ui/Area.cpp">
<polygon fill="white" stroke="black" points="570.036,-0.5 570.036,-19.5 653.036,-19.5 653.036,-0.5 570.036,-0.5"/>
<text text-anchor="middle" x="611.536" y="-7.5" font-family="Helvetica,sans-Serif" font-size="10.00">src/ui/Area.cpp</text>
</a>
</g>
</g>
<!-- Node11&#45;&gt;Node13 -->
<g id="edge15" class="edge"><title>Node11&#45;&gt;Node13</title>
<path fill="none" stroke="midnightblue" d="M610.892,-45.8045C611.056,-36.9102 611.244,-26.7798 611.374,-19.7511"/>
<polygon fill="midnightblue" stroke="midnightblue" points="607.387,-46.0199 610.701,-56.083 614.386,-46.1495 607.387,-46.0199"/>
</g>
<!-- Node14 -->
<g id="node14" class="node"><title>Node14</title>
<g id="a_node14"><a xlink:href="MainWindow_8cpp_source.html" target="_top" xlink:title="src/ui/MainWindow.cpp">
<polygon fill="white" stroke="black" points="433.036,-0.5 433.036,-19.5 552.036,-19.5 552.036,-0.5 433.036,-0.5"/>
<text text-anchor="middle" x="492.536" y="-7.5" font-family="Helvetica,sans-Serif" font-size="10.00">src/ui/MainWindow.cpp</text>
</a>
</g>
</g>
<!-- Node11&#45;&gt;Node14 -->
<g id="edge16" class="edge"><title>Node11&#45;&gt;Node14</title>
<path fill="none" stroke="midnightblue" d="M582.636,-52.2321C560.564,-42.1312 530.36,-28.3091 511.146,-19.5164"/>
<polygon fill="midnightblue" stroke="midnightblue" points="581.289,-55.4648 591.839,-56.4435 584.202,-49.0997 581.289,-55.4648"/>
</g>
<!-- Node11&#45;&gt;Node15 -->
<g id="edge17" class="edge"><title>Node11&#45;&gt;Node15</title>
<path fill="none" stroke="midnightblue" d="M558.823,-55.9604C444.313,-38.8609 322.462,-24.546 254.175,-16.8764"/>
<polygon fill="midnightblue" stroke="midnightblue" points="558.406,-59.437 568.816,-57.4626 559.447,-52.5148 558.406,-59.437"/>
</g>
<!-- Node17&#45;&gt;Node11 -->
<g id="edge20" class="edge"><title>Node17&#45;&gt;Node11</title>
<path fill="none" stroke="midnightblue" d="M454.765,-109.699C491.946,-99.507 545.808,-84.7429 579.467,-75.5164"/>
<polygon fill="midnightblue" stroke="midnightblue" points="453.47,-106.424 444.751,-112.444 455.321,-113.175 453.47,-106.424"/>
</g>
<!-- Node17&#45;&gt;Node14 -->
<g id="edge34" class="edge"><title>Node17&#45;&gt;Node14</title>
<path fill="none" stroke="midnightblue" d="M425.776,-103.957C442.897,-80.1184 473.354,-37.7088 486.366,-19.5914"/>
<polygon fill="midnightblue" stroke="midnightblue" points="422.726,-102.204 419.735,-112.368 428.411,-106.288 422.726,-102.204"/>
</g>
<!-- Node17&#45;&gt;Node15 -->
<g id="edge35" class="edge"><title>Node17&#45;&gt;Node15</title>
<path fill="none" stroke="midnightblue" d="M343.849,-112.337C295.8,-105.004 237.483,-92.961 219.536,-76 203.643,-60.9796 200.815,-33.4727 200.456,-19.5529"/>
<polygon fill="midnightblue" stroke="midnightblue" points="343.523,-115.827 353.928,-113.831 344.549,-108.903 343.523,-115.827"/>
</g>
<!-- Node17&#45;&gt;Node18 -->
<g id="edge21" class="edge"><title>Node17&#45;&gt;Node18</title>
<path fill="none" stroke="midnightblue" d="M483.389,-113.438C557.507,-105.185 677.975,-91.1164 781.536,-76 784.584,-75.5551 787.726,-75.0754 790.889,-74.5772"/>
<polygon fill="midnightblue" stroke="midnightblue" points="482.798,-109.982 473.245,-114.563 483.57,-116.939 482.798,-109.982"/>
</g>
<!-- Node19 -->
<g id="node19" class="node"><title>Node19</title>
<g id="a_node19"><a xlink:href="Main_8cpp.html" target="_top" xlink:title="Principal Program. ">
<polygon fill="white" stroke="black" points="342.036,-0.5 342.036,-19.5 415.036,-19.5 415.036,-0.5 342.036,-0.5"/>
<text text-anchor="middle" x="378.536" y="-7.5" font-family="Helvetica,sans-Serif" font-size="10.00">src/Main.cpp</text>
</a>
</g>
</g>
<!-- Node17&#45;&gt;Node19 -->
<g id="edge30" class="edge"><title>Node17&#45;&gt;Node19</title>
<path fill="none" stroke="midnightblue" d="M407.705,-102.674C400.053,-78.6248 386.932,-37.3881 381.27,-19.5914"/>
<polygon fill="midnightblue" stroke="midnightblue" points="404.422,-103.9 410.79,-112.368 411.093,-101.778 404.422,-103.9"/>
</g>
<!-- Node17&#45;&gt;Node23 -->
<g id="edge31" class="edge"><title>Node17&#45;&gt;Node23</title>
<path fill="none" stroke="midnightblue" d="M437.871,-107.453C455.779,-97.4835 479.59,-84.2279 494.99,-75.6545"/>
<polygon fill="midnightblue" stroke="midnightblue" points="436.156,-104.402 429.121,-112.324 439.561,-110.518 436.156,-104.402"/>
</g>
<!-- Node24 -->
<g id="node24" class="node"><title>Node24</title>
<g id="a_node24"><a xlink:href="ConnectionSettings_8cpp_source.html" target="_top" xlink:title="src/ui/ConnectionSettings.cpp">
<polygon fill="white" stroke="black" points="228.536,-56.5 228.536,-75.5 376.536,-75.5 376.536,-56.5 228.536,-56.5"/>
<text text-anchor="middle" x="302.536" y="-63.5" font-family="Helvetica,sans-Serif" font-size="10.00">src/ui/ConnectionSettings.cpp</text>
</a>
</g>
</g>
<!-- Node17&#45;&gt;Node24 -->
<g id="edge32" class="edge"><title>Node17&#45;&gt;Node24</title>
<path fill="none" stroke="midnightblue" d="M386.531,-107.862C365.948,-97.8492 338.192,-84.3458 320.326,-75.6545"/>
<polygon fill="midnightblue" stroke="midnightblue" points="385.179,-111.097 395.702,-112.324 388.241,-104.802 385.179,-111.097"/>
</g>
<!-- Node25 -->
<g id="node25" class="node"><title>Node25</title>
<g id="a_node25"><a xlink:href="FunctionForm_8cpp_source.html" target="_top" xlink:title="src/ui/FunctionForm.cpp">
<polygon fill="white" stroke="black" points="50.5362,-56.5 50.5362,-75.5 172.536,-75.5 172.536,-56.5 50.5362,-56.5"/>
<text text-anchor="middle" x="111.536" y="-63.5" font-family="Helvetica,sans-Serif" font-size="10.00">src/ui/FunctionForm.cpp</text>
</a>
</g>
</g>
<!-- Node17&#45;&gt;Node25 -->
<g id="edge33" class="edge"><title>Node17&#45;&gt;Node25</title>
<path fill="none" stroke="midnightblue" d="M355.732,-110.664C298.66,-100.459 212.419,-85.0386 159.165,-75.5164"/>
<polygon fill="midnightblue" stroke="midnightblue" points="355.223,-114.129 365.683,-112.444 356.456,-107.238 355.223,-114.129"/>
</g>
<!-- Node18&#45;&gt;Node12 -->
<g id="edge22" class="edge"><title>Node18&#45;&gt;Node12</title>
<path fill="none" stroke="midnightblue" d="M806.163,-52.2321C783.717,-42.1312 753.001,-28.3091 733.462,-19.5164"/>
<polygon fill="midnightblue" stroke="midnightblue" points="804.966,-55.5316 815.522,-56.4435 807.839,-49.1481 804.966,-55.5316"/>
</g>
<!-- Node18&#45;&gt;Node13 -->
<g id="edge26" class="edge"><title>Node18&#45;&gt;Node13</title>
<path fill="none" stroke="midnightblue" d="M789.475,-54.0884C747.345,-43.8865 685.296,-28.8612 646.706,-19.5164"/>
<polygon fill="midnightblue" stroke="midnightblue" points="788.658,-57.4916 799.201,-56.4435 790.306,-50.6883 788.658,-57.4916"/>
</g>
<!-- Node18&#45;&gt;Node14 -->
<g id="edge27" class="edge"><title>Node18&#45;&gt;Node14</title>
<path fill="none" stroke="midnightblue" d="M780.822,-55.9023C693.817,-41.7831 604.889,-28.0801 548.786,-19.5247"/>
<polygon fill="midnightblue" stroke="midnightblue" points="780.439,-59.3859 790.871,-57.5364 781.563,-52.4767 780.439,-59.3859"/>
</g>
<!-- Node18&#45;&gt;Node15 -->
<g id="edge29" class="edge"><title>Node18&#45;&gt;Node15</title>
<path fill="none" stroke="midnightblue" d="M780.554,-56.0859C698.507,-47.3377 382.182,-24.1584 254.398,-14.8904"/>
<polygon fill="midnightblue" stroke="midnightblue" points="780.577,-59.6112 790.91,-57.2686 781.371,-52.6564 780.577,-59.6112"/>
</g>
<!-- Node18&#45;&gt;Node19 -->
<g id="edge23" class="edge"><title>Node18&#45;&gt;Node19</title>
<path fill="none" stroke="midnightblue" d="M780.731,-55.9885C621.315,-34.9614 578.439,-43.2226 423.536,-20 420.857,-19.5984 418.096,-19.1447 415.322,-18.6599"/>
<polygon fill="midnightblue" stroke="midnightblue" points="780.524,-59.4918 790.899,-57.3483 781.452,-52.5536 780.524,-59.4918"/>
</g>
<!-- Node18&#45;&gt;Node20 -->
<g id="edge24" class="edge"><title>Node18&#45;&gt;Node20</title>
<path fill="none" stroke="midnightblue" d="M881.741,-54.1529C926.143,-43.95 991.721,-28.8809 1032.47,-19.5164"/>
<polygon fill="midnightblue" stroke="midnightblue" points="880.735,-50.7929 871.773,-56.4435 882.303,-57.6151 880.735,-50.7929"/>
</g>
<!-- Node21 -->
<g id="node21" class="node"><title>Node21</title>
<g id="a_node21"><a xlink:href="PHIOTest_8cpp_source.html" target="_top" xlink:title="src/test/PHIOTest.cpp">
<polygon fill="white" stroke="black" points="776.536,-0.5 776.536,-19.5 892.536,-19.5 892.536,-0.5 776.536,-0.5"/>
<text text-anchor="middle" x="834.536" y="-7.5" font-family="Helvetica,sans-Serif" font-size="10.00">src/test/PHIOTest.cpp</text>
</a>
</g>
</g>
<!-- Node18&#45;&gt;Node21 -->
<g id="edge25" class="edge"><title>Node18&#45;&gt;Node21</title>
<path fill="none" stroke="midnightblue" d="M834.536,-45.8045C834.536,-36.9102 834.536,-26.7798 834.536,-19.7511"/>
<polygon fill="midnightblue" stroke="midnightblue" points="831.036,-46.083 834.536,-56.083 838.036,-46.083 831.036,-46.083"/>
</g>
<!-- Node22 -->
<g id="node22" class="node"><title>Node22</title>
<g id="a_node22"><a xlink:href="TextArea_8cpp_source.html" target="_top" xlink:title="src/ui/TextArea.cpp">
<polygon fill="white" stroke="black" points="910.536,-0.5 910.536,-19.5 1012.54,-19.5 1012.54,-0.5 910.536,-0.5"/>
<text text-anchor="middle" x="961.536" y="-7.5" font-family="Helvetica,sans-Serif" font-size="10.00">src/ui/TextArea.cpp</text>
</a>
</g>
</g>
<!-- Node18&#45;&gt;Node22 -->
<g id="edge28" class="edge"><title>Node18&#45;&gt;Node22</title>
<path fill="none" stroke="midnightblue" d="M863.927,-52.503C887.736,-42.3795 920.642,-28.388 941.507,-19.5164"/>
<polygon fill="midnightblue" stroke="midnightblue" points="862.493,-49.3096 854.66,-56.4435 865.232,-55.7515 862.493,-49.3096"/>
</g>
<!-- Node28&#45;&gt;Node15 -->
<g id="edge48" class="edge"><title>Node28&#45;&gt;Node15</title>
<path fill="none" stroke="midnightblue" d="M82.8915,-163.581C43.8308,-141.411 -22.8883,-95.6413 8.53622,-56 25.5508,-34.5366 96.2971,-22.3243 146.964,-16.1834"/>
<polygon fill="midnightblue" stroke="midnightblue" points="81.2425,-166.668 91.6877,-168.442 84.6286,-160.542 81.2425,-166.668"/>
</g>
<!-- Node28&#45;&gt;Node17 -->
<g id="edge47" class="edge"><title>Node28&#45;&gt;Node17</title>
<path fill="none" stroke="midnightblue" d="M166.914,-166.664C224.554,-156.459 311.652,-141.039 365.434,-131.516"/>
<polygon fill="midnightblue" stroke="midnightblue" points="166.101,-163.254 156.864,-168.444 167.321,-170.146 166.101,-163.254"/>
</g>
</g>
</svg>
