<?xml version="1.0" encoding="UTF-8" standalone="no"?>
<!DOCTYPE svg PUBLIC "-//W3C//DTD SVG 1.1//EN"
 "http://www.w3.org/Graphics/SVG/1.1/DTD/svg11.dtd">
<!-- Generated by graphviz version 2.38.0 (20140413.2041)
 -->
<!-- Title: headers/GSort.h Pages: 1 -->
<svg width="1647pt" height="364pt"
 viewBox="0.00 0.00 1646.50 364.00" xmlns="http://www.w3.org/2000/svg" xmlns:xlink="http://www.w3.org/1999/xlink">
<g id="graph0" class="graph" transform="scale(1 1) rotate(0) translate(4 360)">
<title>headers/GSort.h</title>
<polygon fill="white" stroke="none" points="-4,4 -4,-360 1642.5,-360 1642.5,4 -4,4"/>
<!-- Node1 -->
<g id="node1" class="node"><title>Node1</title>
<polygon fill="#bfbfbf" stroke="black" points="907,-336.5 907,-355.5 995,-355.5 995,-336.5 907,-336.5"/>
<text text-anchor="middle" x="951" y="-343.5" font-family="Helvetica,sans-Serif" font-size="10.00">headers/GSort.h</text>
</g>
<!-- Node2 -->
<g id="node2" class="node"><title>Node2</title>
<polygon fill="white" stroke="#bfbfbf" points="0,-280.5 0,-299.5 104,-299.5 104,-280.5 0,-280.5"/>
<text text-anchor="middle" x="52" y="-287.5" font-family="Helvetica,sans-Serif" font-size="10.00">QGraphicsRectItem</text>
</g>
<!-- Node1&#45;&gt;Node2 -->
<g id="edge1" class="edge"><title>Node1&#45;&gt;Node2</title>
<path fill="none" stroke="midnightblue" d="M906.656,-343.878C782.113,-340.452 418.614,-328.568 118,-300 116.737,-299.88 115.461,-299.754 114.176,-299.622"/>
<polygon fill="midnightblue" stroke="midnightblue" points="114.518,-296.139 104.193,-298.517 113.748,-303.096 114.518,-296.139"/>
</g>
<!-- Node3 -->
<g id="node3" class="node"><title>Node3</title>
<polygon fill="white" stroke="#bfbfbf" points="407,-224.5 407,-243.5 509,-243.5 509,-224.5 407,-224.5"/>
<text text-anchor="middle" x="458" y="-231.5" font-family="Helvetica,sans-Serif" font-size="10.00">QGraphicsTextItem</text>
</g>
<!-- Node1&#45;&gt;Node3 -->
<g id="edge2" class="edge"><title>Node1&#45;&gt;Node3</title>
<path fill="none" stroke="midnightblue" d="M912.725,-336.46C823.904,-316.642 603.924,-267.559 506.159,-245.745"/>
<polygon fill="midnightblue" stroke="midnightblue" points="506.772,-242.296 496.25,-243.535 505.248,-249.128 506.772,-242.296"/>
</g>
<!-- Node4 -->
<g id="node4" class="node"><title>Node4</title>
<polygon fill="white" stroke="#bfbfbf" points="1056.5,-56.5 1056.5,-75.5 1103.5,-75.5 1103.5,-56.5 1056.5,-56.5"/>
<text text-anchor="middle" x="1080" y="-63.5" font-family="Helvetica,sans-Serif" font-size="10.00">QColor</text>
</g>
<!-- Node1&#45;&gt;Node4 -->
<g id="edge3" class="edge"><title>Node1&#45;&gt;Node4</title>
<path fill="none" stroke="midnightblue" d="M961.783,-336.264C981.645,-319.113 1022,-278.869 1022,-235 1022,-235 1022,-235 1022,-177 1022,-140.163 1047.77,-103.565 1064.95,-83.2515"/>
<polygon fill="midnightblue" stroke="midnightblue" points="1067.71,-85.4097 1071.69,-75.5894 1062.46,-80.7864 1067.71,-85.4097"/>
</g>
<!-- Node5 -->
<g id="node5" class="node"><title>Node5</title>
<polygon fill="white" stroke="#bfbfbf" points="1122,-56.5 1122,-75.5 1166,-75.5 1166,-56.5 1122,-56.5"/>
<text text-anchor="middle" x="1144" y="-63.5" font-family="Helvetica,sans-Serif" font-size="10.00">QSize</text>
</g>
<!-- Node1&#45;&gt;Node5 -->
<g id="edge4" class="edge"><title>Node1&#45;&gt;Node5</title>
<path fill="none" stroke="midnightblue" d="M970.236,-336.415C1001.53,-320.986 1060,-285.41 1060,-235 1060,-235 1060,-235 1060,-177 1060,-146.902 1061.39,-136.411 1079,-112 1088.5,-98.832 1103.1,-88.2252 1116.05,-80.6242"/>
<polygon fill="midnightblue" stroke="midnightblue" points="1118.04,-83.5252 1125.1,-75.6271 1114.66,-77.3975 1118.04,-83.5252"/>
</g>
<!-- Node6 -->
<g id="node6" class="node"><title>Node6</title>
<polygon fill="white" stroke="#bfbfbf" points="1116.5,-0.5 1116.5,-19.5 1163.5,-19.5 1163.5,-0.5 1116.5,-0.5"/>
<text text-anchor="middle" x="1140" y="-7.5" font-family="Helvetica,sans-Serif" font-size="10.00">QPoint</text>
</g>
<!-- Node1&#45;&gt;Node6 -->
<g id="edge5" class="edge"><title>Node1&#45;&gt;Node6</title>
<path fill="none" stroke="midnightblue" d="M995.206,-342.341C1143.35,-332.849 1613,-297.804 1613,-235 1613,-235 1613,-235 1613,-121 1613,-90.9022 1617.16,-75.2187 1594,-56 1561.8,-29.283 1273.46,-16.0127 1173.75,-12.1931"/>
<polygon fill="midnightblue" stroke="midnightblue" points="1173.74,-8.69064 1163.62,-11.813 1173.48,-15.6857 1173.74,-8.69064"/>
</g>
<!-- Node7 -->
<g id="node7" class="node"><title>Node7</title>
<polygon fill="white" stroke="#bfbfbf" points="880.5,-280.5 880.5,-299.5 955.5,-299.5 955.5,-280.5 880.5,-280.5"/>
<text text-anchor="middle" x="918" y="-287.5" font-family="Helvetica,sans-Serif" font-size="10.00">QColorDialog</text>
</g>
<!-- Node1&#45;&gt;Node7 -->
<g id="edge6" class="edge"><title>Node1&#45;&gt;Node7</title>
<path fill="none" stroke="midnightblue" d="M945.551,-336.083C940.986,-328.613 934.332,-317.724 928.707,-308.52"/>
<polygon fill="midnightblue" stroke="midnightblue" points="931.549,-306.459 923.348,-299.751 925.576,-310.109 931.549,-306.459"/>
</g>
<!-- Node8 -->
<g id="node8" class="node"><title>Node8</title>
<polygon fill="white" stroke="#bfbfbf" points="316,-56.5 316,-75.5 360,-75.5 360,-56.5 316,-56.5"/>
<text text-anchor="middle" x="338" y="-63.5" font-family="Helvetica,sans-Serif" font-size="10.00">vector</text>
</g>
<!-- Node1&#45;&gt;Node8 -->
<g id="edge7" class="edge"><title>Node1&#45;&gt;Node8</title>
<path fill="none" stroke="midnightblue" d="M906.967,-343.767C736.852,-338.43 132,-313.905 132,-235 132,-235 132,-235 132,-177 132,-99.1378 247.932,-76.1922 305.855,-69.5871"/>
<polygon fill="midnightblue" stroke="midnightblue" points="306.371,-73.0523 315.954,-68.5343 305.645,-66.09 306.371,-73.0523"/>
</g>
<!-- Node9 -->
<g id="node9" class="node"><title>Node9</title>
<g id="a_node9"><a xlink:href="Sort_8h.html" target="_top" xlink:title="header for the Sort class ">
<polygon fill="white" stroke="black" points="357.5,-168.5 357.5,-187.5 400.5,-187.5 400.5,-168.5 357.5,-168.5"/>
<text text-anchor="middle" x="379" y="-175.5" font-family="Helvetica,sans-Serif" font-size="10.00">Sort.h</text>
</a>
</g>
</g>
<!-- Node1&#45;&gt;Node9 -->
<g id="edge8" class="edge"><title>Node1&#45;&gt;Node9</title>
<path fill="none" stroke="midnightblue" d="M906.955,-342.927C789.394,-336.498 472.11,-312.995 398,-244 385.371,-232.242 380.977,-212.602 379.528,-197.982"/>
<polygon fill="midnightblue" stroke="midnightblue" points="382.996,-197.349 378.895,-187.58 376.009,-197.774 382.996,-197.349"/>
</g>
<!-- Node15 -->
<g id="node15" class="node"><title>Node15</title>
<g id="a_node15"><a xlink:href="GVNode_8h.html" target="_top" xlink:title="header for the GVNode class ">
<polygon fill="white" stroke="black" points="896,-56.5 896,-75.5 958,-75.5 958,-56.5 896,-56.5"/>
<text text-anchor="middle" x="927" y="-63.5" font-family="Helvetica,sans-Serif" font-size="10.00">GVNode.h</text>
</a>
</g>
</g>
<!-- Node1&#45;&gt;Node15 -->
<g id="edge18" class="edge"><title>Node1&#45;&gt;Node15</title>
<path fill="none" stroke="midnightblue" d="M955.451,-336.424C964.458,-318.244 984,-274.278 984,-235 984,-235 984,-235 984,-177 984,-140.3 958.679,-103.657 941.79,-83.2973"/>
<polygon fill="midnightblue" stroke="midnightblue" points="944.348,-80.9037 935.167,-75.6161 939.046,-85.475 944.348,-80.9037"/>
</g>
<!-- Node17 -->
<g id="node17" class="node"><title>Node17</title>
<g id="a_node17"><a xlink:href="GProcess_8h.html" target="_top" xlink:title="header for the GProcess class ">
<polygon fill="white" stroke="black" points="782,-280.5 782,-299.5 850,-299.5 850,-280.5 782,-280.5"/>
<text text-anchor="middle" x="816" y="-287.5" font-family="Helvetica,sans-Serif" font-size="10.00">GProcess.h</text>
</a>
</g>
</g>
<!-- Node1&#45;&gt;Node17 -->
<g id="edge21" class="edge"><title>Node1&#45;&gt;Node17</title>
<path fill="none" stroke="midnightblue" d="M929.609,-336.444C907.293,-327.517 872.097,-313.439 846.792,-303.317"/>
<polygon fill="midnightblue" stroke="midnightblue" points="847.876,-299.981 837.291,-299.516 845.276,-306.48 847.876,-299.981"/>
</g>
<!-- Node28 -->
<g id="node28" class="node"><title>Node28</title>
<g id="a_node28"><a xlink:href="PHScene_8h.html" target="_top" xlink:title="header for the PHScene class ">
<polygon fill="white" stroke="black" points="1416.5,-56.5 1416.5,-75.5 1483.5,-75.5 1483.5,-56.5 1416.5,-56.5"/>
<text text-anchor="middle" x="1450" y="-63.5" font-family="Helvetica,sans-Serif" font-size="10.00">PHScene.h</text>
</a>
</g>
</g>
<!-- Node1&#45;&gt;Node28 -->
<g id="edge71" class="edge"><title>Node1&#45;&gt;Node28</title>
<path fill="none" stroke="midnightblue" d="M995.008,-339.882C1085.7,-328.106 1285,-295.363 1285,-235 1285,-235 1285,-235 1285,-177 1285,-118.541 1357.59,-89.2375 1406.48,-76.1318"/>
<polygon fill="midnightblue" stroke="midnightblue" points="1407.39,-79.512 1416.21,-73.6495 1405.66,-72.729 1407.39,-79.512"/>
</g>
<!-- Node9&#45;&gt;Node8 -->
<g id="edge10" class="edge"><title>Node9&#45;&gt;Node8</title>
<path fill="none" stroke="midnightblue" d="M370.064,-168.266C362.02,-159.805 350.626,-146.201 345,-132 339.181,-117.309 337.62,-99.3736 337.408,-86.0669"/>
<polygon fill="midnightblue" stroke="midnightblue" points="340.91,-85.792 337.495,-75.7627 333.911,-85.7328 340.91,-85.792"/>
</g>
<!-- Node10 -->
<g id="node10" class="node"><title>Node10</title>
<polygon fill="white" stroke="#bfbfbf" points="191.5,-0.5 191.5,-19.5 232.5,-19.5 232.5,-0.5 191.5,-0.5"/>
<text text-anchor="middle" x="212" y="-7.5" font-family="Helvetica,sans-Serif" font-size="10.00">string</text>
</g>
<!-- Node9&#45;&gt;Node10 -->
<g id="edge9" class="edge"><title>Node9&#45;&gt;Node10</title>
<path fill="none" stroke="midnightblue" d="M357.366,-175.171C312.092,-170.847 209.817,-158.323 189,-132 165.007,-101.661 186.405,-53.7831 201.026,-28.3006"/>
<polygon fill="midnightblue" stroke="midnightblue" points="204.036,-30.0876 206.189,-19.714 198.037,-26.4803 204.036,-30.0876"/>
</g>
<!-- Node11 -->
<g id="node11" class="node"><title>Node11</title>
<polygon fill="white" stroke="#bfbfbf" points="391,-0.5 391,-19.5 499,-19.5 499,-0.5 391,-0.5"/>
<text text-anchor="middle" x="445" y="-7.5" font-family="Helvetica,sans-Serif" font-size="10.00">boost/shared_ptr.hpp</text>
</g>
<!-- Node9&#45;&gt;Node11 -->
<g id="edge11" class="edge"><title>Node9&#45;&gt;Node11</title>
<path fill="none" stroke="midnightblue" d="M366.869,-168.454C339.593,-148.196 277.997,-95.9631 307,-56 324.005,-32.5681 353.542,-21.1046 380.937,-15.5865"/>
<polygon fill="midnightblue" stroke="midnightblue" points="381.675,-19.0103 390.906,-13.8113 380.447,-12.1187 381.675,-19.0103"/>
</g>
<!-- Node12 -->
<g id="node12" class="node"><title>Node12</title>
<polygon fill="white" stroke="#bfbfbf" points="354.5,-112.5 354.5,-131.5 475.5,-131.5 475.5,-112.5 354.5,-112.5"/>
<text text-anchor="middle" x="415" y="-119.5" font-family="Helvetica,sans-Serif" font-size="10.00">boost/make_shared.hpp</text>
</g>
<!-- Node9&#45;&gt;Node12 -->
<g id="edge12" class="edge"><title>Node9&#45;&gt;Node12</title>
<path fill="none" stroke="midnightblue" d="M384.945,-168.083C389.977,-160.534 397.337,-149.495 403.513,-140.23"/>
<polygon fill="midnightblue" stroke="midnightblue" points="406.531,-142.013 409.166,-131.751 400.707,-138.13 406.531,-142.013"/>
</g>
<!-- Node13 -->
<g id="node13" class="node"><title>Node13</title>
<g id="a_node13"><a xlink:href="Process_8h.html" target="_top" xlink:title="header for the Process class ">
<polygon fill="white" stroke="black" points="198.5,-112.5 198.5,-131.5 259.5,-131.5 259.5,-112.5 198.5,-112.5"/>
<text text-anchor="middle" x="229" y="-119.5" font-family="Helvetica,sans-Serif" font-size="10.00">Process.h</text>
</a>
</g>
</g>
<!-- Node9&#45;&gt;Node13 -->
<g id="edge13" class="edge"><title>Node9&#45;&gt;Node13</title>
<path fill="none" stroke="midnightblue" d="M357.299,-170.806C330.848,-162.182 286.508,-146.372 257.407,-135.303"/>
<polygon fill="midnightblue" stroke="midnightblue" points="258.393,-131.932 247.803,-131.605 255.878,-138.465 258.393,-131.932"/>
</g>
<!-- Node13&#45;&gt;Node9 -->
<g id="edge17" class="edge"><title>Node13&#45;&gt;Node9</title>
<path fill="none" stroke="midnightblue" d="M257.737,-131.516C284.571,-140.467 324.135,-154.629 350.79,-164.772"/>
<polygon fill="midnightblue" stroke="midnightblue" points="349.731,-168.115 360.321,-168.444 352.248,-161.583 349.731,-168.115"/>
</g>
<!-- Node13&#45;&gt;Node10 -->
<g id="edge15" class="edge"><title>Node13&#45;&gt;Node10</title>
<path fill="none" stroke="midnightblue" d="M227.666,-112.368C224.923,-94.617 218.594,-53.6664 214.874,-29.5974"/>
<polygon fill="midnightblue" stroke="midnightblue" points="218.314,-28.9395 213.328,-19.5914 211.396,-30.0087 218.314,-28.9395"/>
</g>
<!-- Node13&#45;&gt;Node11 -->
<g id="edge14" class="edge"><title>Node13&#45;&gt;Node11</title>
<path fill="none" stroke="midnightblue" d="M232.564,-112.364C238.812,-98.3256 253.094,-70.6516 274,-56 305.346,-34.0313 346.725,-22.7876 380.926,-17.0329"/>
<polygon fill="midnightblue" stroke="midnightblue" points="381.489,-20.4875 390.828,-15.4842 380.408,-13.5716 381.489,-20.4875"/>
</g>
<!-- Node14 -->
<g id="node14" class="node"><title>Node14</title>
<polygon fill="white" stroke="#bfbfbf" points="849.5,-56.5 849.5,-75.5 878.5,-75.5 878.5,-56.5 849.5,-56.5"/>
<text text-anchor="middle" x="864" y="-63.5" font-family="Helvetica,sans-Serif" font-size="10.00">list</text>
</g>
<!-- Node13&#45;&gt;Node14 -->
<g id="edge16" class="edge"><title>Node13&#45;&gt;Node14</title>
<path fill="none" stroke="midnightblue" d="M259.793,-118.609C376.867,-109.516 788.395,-77.52 802,-76 814.287,-74.6272 827.887,-72.6991 839.211,-70.9794"/>
<polygon fill="midnightblue" stroke="midnightblue" points="839.909,-74.413 849.253,-69.4195 838.834,-67.496 839.909,-74.413"/>
</g>
<!-- Node15&#45;&gt;Node6 -->
<g id="edge19" class="edge"><title>Node15&#45;&gt;Node6</title>
<path fill="none" stroke="midnightblue" d="M958.429,-57.0321C998.03,-46.9924 1065.81,-29.8093 1106.41,-19.5169"/>
<polygon fill="midnightblue" stroke="midnightblue" points="1107.52,-22.8452 1116.35,-16.995 1105.8,-16.0599 1107.52,-22.8452"/>
</g>
<!-- Node16 -->
<g id="node16" class="node"><title>Node16</title>
<polygon fill="white" stroke="#bfbfbf" points="901,-0.5 901,-19.5 951,-19.5 951,-0.5 901,-0.5"/>
<text text-anchor="middle" x="926" y="-7.5" font-family="Helvetica,sans-Serif" font-size="10.00">QString</text>
</g>
<!-- Node15&#45;&gt;Node16 -->
<g id="edge20" class="edge"><title>Node15&#45;&gt;Node16</title>
<path fill="none" stroke="midnightblue" d="M926.835,-56.083C926.704,-49.0059 926.516,-38.8611 926.352,-29.9865"/>
<polygon fill="midnightblue" stroke="midnightblue" points="929.847,-29.6845 926.162,-19.7511 922.848,-29.8142 929.847,-29.6845"/>
</g>
<!-- Node17&#45;&gt;Node3 -->
<g id="edge24" class="edge"><title>Node17&#45;&gt;Node3</title>
<path fill="none" stroke="midnightblue" d="M781.997,-283.871C721.614,-274.763 594.9,-255.65 519.067,-244.211"/>
<polygon fill="midnightblue" stroke="midnightblue" points="519.581,-240.749 509.171,-242.719 518.537,-247.671 519.581,-240.749"/>
</g>
<!-- Node17&#45;&gt;Node13 -->
<g id="edge70" class="edge"><title>Node17&#45;&gt;Node13</title>
<path fill="none" stroke="midnightblue" d="M781.975,-283.12C737.42,-275.223 656.984,-260.287 589,-244 557.119,-236.362 549.831,-231.845 518,-224 443.013,-205.52 420.434,-214.795 348,-188 311.907,-174.648 273.384,-151.843 250.253,-137.102"/>
<polygon fill="midnightblue" stroke="midnightblue" points="251.913,-134.007 241.615,-131.515 248.11,-139.885 251.913,-134.007"/>
</g>
<!-- Node17&#45;&gt;Node14 -->
<g id="edge25" class="edge"><title>Node17&#45;&gt;Node14</title>
<path fill="none" stroke="midnightblue" d="M817.882,-280.297C824.959,-247.563 850.081,-131.375 859.964,-85.6664"/>
<polygon fill="midnightblue" stroke="midnightblue" points="863.387,-86.3976 862.079,-75.8837 856.545,-84.9182 863.387,-86.3976"/>
</g>
<!-- Node18 -->
<g id="node18" class="node"><title>Node18</title>
<polygon fill="white" stroke="#bfbfbf" points="1501.5,-56.5 1501.5,-75.5 1584.5,-75.5 1584.5,-56.5 1501.5,-56.5"/>
<text text-anchor="middle" x="1543" y="-63.5" font-family="Helvetica,sans-Serif" font-size="10.00">QGraphicsItem</text>
</g>
<!-- Node17&#45;&gt;Node18 -->
<g id="edge22" class="edge"><title>Node17&#45;&gt;Node18</title>
<path fill="none" stroke="midnightblue" d="M844.297,-280.489C874.276,-271.464 922.989,-256.776 965,-244 1169.2,-181.898 1413.75,-106.758 1505.66,-78.4905"/>
<polygon fill="midnightblue" stroke="midnightblue" points="1506.81,-81.7975 1515.34,-75.5122 1504.75,-75.1069 1506.81,-81.7975"/>
</g>
<!-- Node19 -->
<g id="node19" class="node"><title>Node19</title>
<polygon fill="white" stroke="#bfbfbf" points="844,-224.5 844,-243.5 956,-243.5 956,-224.5 844,-224.5"/>
<text text-anchor="middle" x="900" y="-231.5" font-family="Helvetica,sans-Serif" font-size="10.00">QGraphicsEllipseItem</text>
</g>
<!-- Node17&#45;&gt;Node19 -->
<g id="edge23" class="edge"><title>Node17&#45;&gt;Node19</title>
<path fill="none" stroke="midnightblue" d="M829.496,-280.324C842.6,-271.9 862.712,-258.971 878.107,-249.074"/>
<polygon fill="midnightblue" stroke="midnightblue" points="880.018,-252.006 886.537,-243.655 876.233,-246.118 880.018,-252.006"/>
</g>
<!-- Node20 -->
<g id="node20" class="node"><title>Node20</title>
<g id="a_node20"><a xlink:href="PH_8h.html" target="_top" xlink:title="header for the PH class ">
<polygon fill="white" stroke="black" points="598.5,-224.5 598.5,-243.5 637.5,-243.5 637.5,-224.5 598.5,-224.5"/>
<text text-anchor="middle" x="618" y="-231.5" font-family="Helvetica,sans-Serif" font-size="10.00">PH.h</text>
</a>
</g>
</g>
<!-- Node17&#45;&gt;Node20 -->
<g id="edge26" class="edge"><title>Node17&#45;&gt;Node20</title>
<path fill="none" stroke="midnightblue" d="M784.626,-280.444C747.012,-270.185 684.448,-253.122 647.626,-243.08"/>
<polygon fill="midnightblue" stroke="midnightblue" points="648.092,-239.579 637.523,-240.325 646.25,-246.332 648.092,-239.579"/>
</g>
<!-- Node20&#45;&gt;Node9 -->
<g id="edge69" class="edge"><title>Node20&#45;&gt;Node9</title>
<path fill="none" stroke="midnightblue" d="M598.442,-228.581C557.121,-219.245 460.63,-197.444 410.498,-186.117"/>
<polygon fill="midnightblue" stroke="midnightblue" points="411.066,-182.657 400.54,-183.867 409.523,-189.485 411.066,-182.657"/>
</g>
<!-- Node20&#45;&gt;Node10 -->
<g id="edge29" class="edge"><title>Node20&#45;&gt;Node10</title>
<path fill="none" stroke="midnightblue" d="M598.479,-230.776C553.741,-225.456 440.531,-210.724 348,-188 270.336,-168.927 223.931,-196.753 177,-132 171.559,-124.493 164.254,-95.8116 178,-56 181.7,-45.2838 189.008,-35.0561 195.903,-27.0671"/>
<polygon fill="midnightblue" stroke="midnightblue" points="198.561,-29.3479 202.771,-19.6254 193.417,-24.6004 198.561,-29.3479"/>
</g>
<!-- Node20&#45;&gt;Node11 -->
<g id="edge30" class="edge"><title>Node20&#45;&gt;Node11</title>
<path fill="none" stroke="midnightblue" d="M617.403,-224.359C615.433,-202.484 607.274,-144.359 575,-112 545.449,-82.3713 520.291,-102.616 488,-76 472.541,-63.2579 460.58,-43.5119 453.242,-29.126"/>
<polygon fill="midnightblue" stroke="midnightblue" points="456.229,-27.2616 448.732,-19.775 449.924,-30.3026 456.229,-27.2616"/>
</g>
<!-- Node20&#45;&gt;Node12 -->
<g id="edge31" class="edge"><title>Node20&#45;&gt;Node12</title>
<path fill="none" stroke="midnightblue" d="M599.69,-224.387C581.183,-215.579 551.848,-201.335 527,-188 495.627,-171.163 460.206,-150.281 437.753,-136.803"/>
<polygon fill="midnightblue" stroke="midnightblue" points="439.346,-133.676 428.974,-131.513 435.733,-139.672 439.346,-133.676"/>
</g>
<!-- Node20&#45;&gt;Node14 -->
<g id="edge27" class="edge"><title>Node20&#45;&gt;Node14</title>
<path fill="none" stroke="midnightblue" d="M630.88,-224.309C670.899,-197.304 793.361,-114.667 842.886,-81.2479"/>
<polygon fill="midnightblue" stroke="midnightblue" points="844.916,-84.1 851.248,-75.6051 841.001,-78.2975 844.916,-84.1"/>
</g>
<!-- Node21 -->
<g id="node21" class="node"><title>Node21</title>
<polygon fill="white" stroke="#bfbfbf" points="1603.5,-0.5 1603.5,-19.5 1638.5,-19.5 1638.5,-0.5 1603.5,-0.5"/>
<text text-anchor="middle" x="1621" y="-7.5" font-family="Helvetica,sans-Serif" font-size="10.00">map</text>
</g>
<!-- Node20&#45;&gt;Node21 -->
<g id="edge28" class="edge"><title>Node20&#45;&gt;Node21</title>
<path fill="none" stroke="midnightblue" d="M637.626,-230.39C687.302,-223.744 822.032,-205.47 934,-188 1227.97,-142.134 1361.27,-261.365 1594,-76 1608.17,-64.7161 1614.98,-44.7094 1618.21,-29.863"/>
<polygon fill="midnightblue" stroke="midnightblue" points="1621.7,-30.2091 1620.04,-19.7458 1614.81,-28.9632 1621.7,-30.2091"/>
</g>
<!-- Node22 -->
<g id="node22" class="node"><title>Node22</title>
<g id="a_node22"><a xlink:href="Action_8h.html" target="_top" xlink:title="header for the Action class ">
<polygon fill="white" stroke="black" points="536.5,-168.5 536.5,-187.5 589.5,-187.5 589.5,-168.5 536.5,-168.5"/>
<text text-anchor="middle" x="563" y="-175.5" font-family="Helvetica,sans-Serif" font-size="10.00">Action.h</text>
</a>
</g>
</g>
<!-- Node20&#45;&gt;Node22 -->
<g id="edge32" class="edge"><title>Node20&#45;&gt;Node22</title>
<path fill="none" stroke="midnightblue" d="M604.048,-224.324C594.48,-216.576 582.319,-205.017 573.542,-195.511"/>
<polygon fill="midnightblue" stroke="midnightblue" points="576.058,-193.072 566.849,-187.834 570.782,-197.672 576.058,-193.072"/>
</g>
<!-- Node20&#45;&gt;Node28 -->
<g id="edge68" class="edge"><title>Node20&#45;&gt;Node28</title>
<path fill="none" stroke="midnightblue" d="M637.624,-229.565C708.047,-217.186 954.596,-173.403 1157,-132 1245.85,-113.826 1349.32,-90.3185 1406.46,-77.1309"/>
<polygon fill="midnightblue" stroke="midnightblue" points="1407.29,-80.5329 1416.24,-74.8705 1405.71,-73.7127 1407.29,-80.5329"/>
</g>
<!-- Node31 -->
<g id="node31" class="node"><title>Node31</title>
<g id="a_node31"><a xlink:href="GVSkeletonGraph_8h.html" target="_top" xlink:title="header for the GVSkeletonGraph class ">
<polygon fill="white" stroke="black" points="646,-112.5 646,-131.5 750,-131.5 750,-112.5 646,-112.5"/>
<text text-anchor="middle" x="698" y="-119.5" font-family="Helvetica,sans-Serif" font-size="10.00">GVSkeletonGraph.h</text>
</a>
</g>
</g>
<!-- Node20&#45;&gt;Node31 -->
<g id="edge59" class="edge"><title>Node20&#45;&gt;Node31</title>
<path fill="none" stroke="midnightblue" d="M624.277,-224.368C637.48,-206.215 668.326,-163.802 685.644,-139.99"/>
<polygon fill="midnightblue" stroke="midnightblue" points="688.701,-141.737 691.752,-131.591 683.039,-137.62 688.701,-141.737"/>
</g>
<!-- Node22&#45;&gt;Node8 -->
<g id="edge35" class="edge"><title>Node22&#45;&gt;Node8</title>
<path fill="none" stroke="midnightblue" d="M554.597,-168.143C540.999,-154.291 512.777,-127.488 484,-112 464.199,-101.343 406.579,-85.0621 369.924,-75.2821"/>
<polygon fill="midnightblue" stroke="midnightblue" points="370.753,-71.8811 360.191,-72.7061 368.962,-78.6481 370.753,-71.8811"/>
</g>
<!-- Node22&#45;&gt;Node10 -->
<g id="edge34" class="edge"><title>Node22&#45;&gt;Node10</title>
<path fill="none" stroke="midnightblue" d="M558.335,-168.195C550.623,-154.414 533.965,-127.707 513,-112 468.929,-78.9814 310.286,-35.9767 242.768,-18.6892"/>
<polygon fill="midnightblue" stroke="midnightblue" points="243.299,-15.2131 232.745,-16.141 241.575,-21.9973 243.299,-15.2131"/>
</g>
<!-- Node22&#45;&gt;Node11 -->
<g id="edge33" class="edge"><title>Node22&#45;&gt;Node11</title>
<path fill="none" stroke="midnightblue" d="M564.749,-168.335C566.96,-154.748 569.056,-128.3 556,-112 524.896,-73.1672 480.508,-115.303 450,-76 439.924,-63.0194 439.669,-43.8554 441.336,-29.6968"/>
<polygon fill="midnightblue" stroke="midnightblue" points="444.823,-30.0539 442.934,-19.6288 437.909,-28.9565 444.823,-30.0539"/>
</g>
<!-- Node22&#45;&gt;Node20 -->
<g id="edge36" class="edge"><title>Node22&#45;&gt;Node20</title>
<path fill="none" stroke="midnightblue" d="M577.044,-187.751C586.579,-195.483 598.66,-206.967 607.405,-216.431"/>
<polygon fill="midnightblue" stroke="midnightblue" points="604.871,-218.851 614.084,-224.083 610.145,-214.248 604.871,-218.851"/>
</g>
<!-- Node23 -->
<g id="node23" class="node"><title>Node23</title>
<g id="a_node23"><a xlink:href="GAction_8h.html" target="_top" xlink:title="header for the GAction class ">
<polygon fill="white" stroke="black" points="1088,-112.5 1088,-131.5 1148,-131.5 1148,-112.5 1088,-112.5"/>
<text text-anchor="middle" x="1118" y="-119.5" font-family="Helvetica,sans-Serif" font-size="10.00">GAction.h</text>
</a>
</g>
</g>
<!-- Node22&#45;&gt;Node23 -->
<g id="edge37" class="edge"><title>Node22&#45;&gt;Node23</title>
<path fill="none" stroke="midnightblue" d="M589.576,-174.097C679.273,-164.927 970.298,-136.601 1077.76,-126.568"/>
<polygon fill="midnightblue" stroke="midnightblue" points="1078.24,-130.039 1087.87,-125.628 1077.59,-123.069 1078.24,-130.039"/>
</g>
<!-- Node23&#45;&gt;Node1 -->
<g id="edge54" class="edge"><title>Node23&#45;&gt;Node1</title>
<path fill="none" stroke="midnightblue" d="M1118.49,-131.659C1119.61,-159.773 1119.28,-249.59 1074,-300 1056.3,-319.699 1029.26,-330.788 1005.02,-337.024"/>
<polygon fill="midnightblue" stroke="midnightblue" points="1004.13,-333.638 995.201,-339.335 1005.74,-340.452 1004.13,-333.638"/>
</g>
<!-- Node23&#45;&gt;Node4 -->
<g id="edge55" class="edge"><title>Node23&#45;&gt;Node4</title>
<path fill="none" stroke="midnightblue" d="M1111.73,-112.083C1106.36,-104.455 1098.48,-93.2645 1091.92,-83.9408"/>
<polygon fill="midnightblue" stroke="midnightblue" points="1094.78,-81.9149 1086.16,-75.7511 1089.05,-85.9434 1094.78,-81.9149"/>
</g>
<!-- Node23&#45;&gt;Node5 -->
<g id="edge56" class="edge"><title>Node23&#45;&gt;Node5</title>
<path fill="none" stroke="midnightblue" d="M1122.29,-112.083C1125.85,-104.691 1131.02,-93.9533 1135.42,-84.8111"/>
<polygon fill="midnightblue" stroke="midnightblue" points="1138.6,-86.2795 1139.79,-75.7511 1132.29,-83.2427 1138.6,-86.2795"/>
</g>
<!-- Node23&#45;&gt;Node6 -->
<g id="edge57" class="edge"><title>Node23&#45;&gt;Node6</title>
<path fill="none" stroke="midnightblue" d="M1136.08,-112.39C1149.56,-104.872 1166.97,-92.5651 1175,-76 1183.24,-58.9985 1170.39,-40.0253 1158,-26.9878"/>
<polygon fill="midnightblue" stroke="midnightblue" points="1160.14,-24.1873 1150.54,-19.7079 1155.25,-29.1971 1160.14,-24.1873"/>
</g>
<!-- Node23&#45;&gt;Node8 -->
<g id="edge58" class="edge"><title>Node23&#45;&gt;Node8</title>
<path fill="none" stroke="midnightblue" d="M1087.9,-118.916C964.529,-110.375 498.044,-78.08 370.437,-69.2456"/>
<polygon fill="midnightblue" stroke="midnightblue" points="370.378,-65.7332 360.16,-68.5341 369.894,-72.7165 370.378,-65.7332"/>
</g>
<!-- Node23&#45;&gt;Node14 -->
<g id="edge40" class="edge"><title>Node23&#45;&gt;Node14</title>
<path fill="none" stroke="midnightblue" d="M1087.68,-116.881C1044.96,-110.693 964.571,-97.6434 888.67,-76.1114"/>
<polygon fill="midnightblue" stroke="midnightblue" points="889.538,-72.7191 878.959,-73.302 887.593,-79.4433 889.538,-72.7191"/>
</g>
<!-- Node23&#45;&gt;Node18 -->
<g id="edge38" class="edge"><title>Node23&#45;&gt;Node18</title>
<path fill="none" stroke="midnightblue" d="M1148.22,-117.982C1210.49,-111.632 1357.82,-95.9368 1491.3,-76.1872"/>
<polygon fill="midnightblue" stroke="midnightblue" points="1491.91,-79.6337 1501.29,-74.6969 1490.88,-72.7103 1491.91,-79.6337"/>
</g>
<!-- Node23&#45;&gt;Node22 -->
<g id="edge53" class="edge"><title>Node23&#45;&gt;Node22</title>
<path fill="none" stroke="midnightblue" d="M1087.91,-126.261C993.425,-135.885 703.536,-164.091 600.068,-173.728"/>
<polygon fill="midnightblue" stroke="midnightblue" points="599.435,-170.272 589.801,-174.68 600.081,-177.242 599.435,-170.272"/>
</g>
<!-- Node24 -->
<g id="node24" class="node"><title>Node24</title>
<polygon fill="white" stroke="#bfbfbf" points="1280,-56.5 1280,-75.5 1398,-75.5 1398,-56.5 1280,-56.5"/>
<text text-anchor="middle" x="1339" y="-63.5" font-family="Helvetica,sans-Serif" font-size="10.00">QGraphicsPolygonItem</text>
</g>
<!-- Node23&#45;&gt;Node24 -->
<g id="edge39" class="edge"><title>Node23&#45;&gt;Node24</title>
<path fill="none" stroke="midnightblue" d="M1148.27,-113.605C1185.99,-104.386 1250.79,-88.5526 1294.26,-77.9322"/>
<polygon fill="midnightblue" stroke="midnightblue" points="1295.12,-81.3245 1304,-75.5509 1293.46,-74.5246 1295.12,-81.3245"/>
</g>
<!-- Node25 -->
<g id="node25" class="node"><title>Node25</title>
<polygon fill="white" stroke="#bfbfbf" points="1222,-56.5 1222,-75.5 1262,-75.5 1262,-56.5 1222,-56.5"/>
<text text-anchor="middle" x="1242" y="-63.5" font-family="Helvetica,sans-Serif" font-size="10.00">utility</text>
</g>
<!-- Node23&#45;&gt;Node25 -->
<g id="edge41" class="edge"><title>Node23&#45;&gt;Node25</title>
<path fill="none" stroke="midnightblue" d="M1137.65,-112.444C1157.96,-103.596 1189.9,-89.6875 1213.1,-79.5865"/>
<polygon fill="midnightblue" stroke="midnightblue" points="1214.67,-82.7181 1222.44,-75.5164 1211.88,-76.3002 1214.67,-82.7181"/>
</g>
<!-- Node26 -->
<g id="node26" class="node"><title>Node26</title>
<g id="a_node26"><a xlink:href="GVEdge_8h.html" target="_top" xlink:title="header for the GVEdge class ">
<polygon fill="white" stroke="black" points="976,-56.5 976,-75.5 1038,-75.5 1038,-56.5 976,-56.5"/>
<text text-anchor="middle" x="1007" y="-63.5" font-family="Helvetica,sans-Serif" font-size="10.00">GVEdge.h</text>
</a>
</g>
</g>
<!-- Node23&#45;&gt;Node26 -->
<g id="edge42" class="edge"><title>Node23&#45;&gt;Node26</title>
<path fill="none" stroke="midnightblue" d="M1100.17,-112.324C1082.28,-103.625 1054.52,-90.1202 1033.95,-80.113"/>
<polygon fill="midnightblue" stroke="midnightblue" points="1035.31,-76.8819 1024.79,-75.6545 1032.25,-83.1765 1035.31,-76.8819"/>
</g>
<!-- Node23&#45;&gt;Node28 -->
<g id="edge46" class="edge"><title>Node23&#45;&gt;Node28</title>
<path fill="none" stroke="midnightblue" d="M1148.32,-112.844C1149.9,-112.552 1151.46,-112.27 1153,-112 1261.4,-92.965 1289.64,-95.2822 1398,-76 1400.75,-75.5114 1403.58,-74.9788 1406.46,-74.4248"/>
<polygon fill="midnightblue" stroke="midnightblue" points="1407.16,-77.8548 1416.29,-72.4909 1405.81,-70.9863 1407.16,-77.8548"/>
</g>
<!-- Node26&#45;&gt;Node6 -->
<g id="edge43" class="edge"><title>Node26&#45;&gt;Node6</title>
<path fill="none" stroke="midnightblue" d="M1028.07,-56.4435C1050.06,-47.5171 1084.73,-33.4387 1109.66,-23.3168"/>
<polygon fill="midnightblue" stroke="midnightblue" points="1111.08,-26.5213 1119.02,-19.5164 1108.44,-20.0355 1111.08,-26.5213"/>
</g>
<!-- Node26&#45;&gt;Node16 -->
<g id="edge44" class="edge"><title>Node26&#45;&gt;Node16</title>
<path fill="none" stroke="midnightblue" d="M993.986,-56.324C981.468,-47.979 962.318,-35.2122 947.529,-25.3524"/>
<polygon fill="midnightblue" stroke="midnightblue" points="949.244,-22.2894 938.982,-19.6545 945.361,-28.1137 949.244,-22.2894"/>
</g>
<!-- Node27 -->
<g id="node27" class="node"><title>Node27</title>
<polygon fill="white" stroke="#bfbfbf" points="969.5,-0.5 969.5,-19.5 1044.5,-19.5 1044.5,-0.5 969.5,-0.5"/>
<text text-anchor="middle" x="1007" y="-7.5" font-family="Helvetica,sans-Serif" font-size="10.00">QPainterPath</text>
</g>
<!-- Node26&#45;&gt;Node27 -->
<g id="edge45" class="edge"><title>Node26&#45;&gt;Node27</title>
<path fill="none" stroke="midnightblue" d="M1007,-56.083C1007,-49.0059 1007,-38.8611 1007,-29.9865"/>
<polygon fill="midnightblue" stroke="midnightblue" points="1010.5,-29.751 1007,-19.7511 1003.5,-29.7511 1010.5,-29.751"/>
</g>
<!-- Node28&#45;&gt;Node10 -->
<g id="edge51" class="edge"><title>Node28&#45;&gt;Node10</title>
<path fill="none" stroke="midnightblue" d="M1416.29,-57.3752C1413.16,-56.8397 1410.03,-56.3674 1407,-56 954.481,-1.10693 837.395,-40.0502 382,-20 333.376,-17.8592 276.963,-14.7484 242.903,-12.8015"/>
<polygon fill="midnightblue" stroke="midnightblue" points="242.852,-9.29288 232.668,-12.2129 242.45,-16.2813 242.852,-9.29288"/>
</g>
<!-- Node28&#45;&gt;Node11 -->
<g id="edge47" class="edge"><title>Node28&#45;&gt;Node11</title>
<path fill="none" stroke="midnightblue" d="M1416.29,-57.4128C1413.16,-56.8694 1410.03,-56.385 1407,-56 1232.62,-33.8165 695.67,-17.7151 509.419,-12.6709"/>
<polygon fill="midnightblue" stroke="midnightblue" points="509.327,-9.16725 499.236,-12.3967 509.139,-16.1647 509.327,-9.16725"/>
</g>
<!-- Node28&#45;&gt;Node21 -->
<g id="edge50" class="edge"><title>Node28&#45;&gt;Node21</title>
<path fill="none" stroke="midnightblue" d="M1477.1,-56.4435C1509.05,-46.3535 1561.84,-29.681 1593.83,-19.5805"/>
<polygon fill="midnightblue" stroke="midnightblue" points="1594.95,-22.8977 1603.43,-16.5488 1592.84,-16.2226 1594.95,-22.8977"/>
</g>
<!-- Node28&#45;&gt;Node23 -->
<g id="edge52" class="edge"><title>Node28&#45;&gt;Node23</title>
<path fill="none" stroke="midnightblue" d="M1418.73,-75.5055C1417.81,-75.6746 1416.9,-75.8396 1416,-76 1307.64,-95.2822 1279.4,-92.965 1171,-112 1166.94,-112.713 1162.68,-113.515 1158.4,-114.34"/>
<polygon fill="midnightblue" stroke="midnightblue" points="1157.59,-110.931 1148.44,-116.272 1158.93,-117.802 1157.59,-110.931"/>
</g>
<!-- Node29 -->
<g id="node29" class="node"><title>Node29</title>
<polygon fill="white" stroke="#bfbfbf" points="1363.5,-0.5 1363.5,-19.5 1416.5,-19.5 1416.5,-0.5 1363.5,-0.5"/>
<text text-anchor="middle" x="1390" y="-7.5" font-family="Helvetica,sans-Serif" font-size="10.00">QObject</text>
</g>
<!-- Node28&#45;&gt;Node29 -->
<g id="edge48" class="edge"><title>Node28&#45;&gt;Node29</title>
<path fill="none" stroke="midnightblue" d="M1440.36,-56.324C1431.49,-48.3414 1418.13,-36.3128 1407.39,-26.6529"/>
<polygon fill="midnightblue" stroke="midnightblue" points="1409.59,-23.922 1399.82,-19.8339 1404.91,-29.1251 1409.59,-23.922"/>
</g>
<!-- Node30 -->
<g id="node30" class="node"><title>Node30</title>
<polygon fill="white" stroke="#bfbfbf" points="1434.5,-0.5 1434.5,-19.5 1525.5,-19.5 1525.5,-0.5 1434.5,-0.5"/>
<text text-anchor="middle" x="1480" y="-7.5" font-family="Helvetica,sans-Serif" font-size="10.00">QGraphicsScene</text>
</g>
<!-- Node28&#45;&gt;Node30 -->
<g id="edge49" class="edge"><title>Node28&#45;&gt;Node30</title>
<path fill="none" stroke="midnightblue" d="M1454.95,-56.083C1459.1,-48.6127 1465.15,-37.7244 1470.27,-28.5199"/>
<polygon fill="midnightblue" stroke="midnightblue" points="1473.34,-30.1924 1475.14,-19.7511 1467.22,-26.7929 1473.34,-30.1924"/>
</g>
<!-- Node31&#45;&gt;Node11 -->
<g id="edge61" class="edge"><title>Node31&#45;&gt;Node11</title>
<path fill="none" stroke="midnightblue" d="M645.792,-114.171C609.299,-107.89 560.268,-96.3563 521,-76 496.81,-63.46 473.717,-41.867 459.467,-27.0334"/>
<polygon fill="midnightblue" stroke="midnightblue" points="461.894,-24.5047 452.509,-19.5883 456.78,-29.2843 461.894,-24.5047"/>
</g>
<!-- Node31&#45;&gt;Node15 -->
<g id="edge66" class="edge"><title>Node31&#45;&gt;Node15</title>
<path fill="none" stroke="midnightblue" d="M734.286,-112.444C775.501,-102.725 842.615,-86.8987 885.775,-76.7212"/>
<polygon fill="midnightblue" stroke="midnightblue" points="886.738,-80.0902 895.668,-74.3884 885.131,-73.277 886.738,-80.0902"/>
</g>
<!-- Node31&#45;&gt;Node16 -->
<g id="edge65" class="edge"><title>Node31&#45;&gt;Node16</title>
<path fill="none" stroke="midnightblue" d="M718.923,-112.485C740.072,-103.753 773.596,-89.5664 802,-76 811.682,-71.3757 866.998,-42.2083 900.392,-24.5539"/>
<polygon fill="midnightblue" stroke="midnightblue" points="902.372,-27.4661 909.575,-19.6969 899.099,-21.2783 902.372,-27.4661"/>
</g>
<!-- Node31&#45;&gt;Node26 -->
<g id="edge67" class="edge"><title>Node31&#45;&gt;Node26</title>
<path fill="none" stroke="midnightblue" d="M750.227,-113.144C802.418,-105.095 885.178,-91.7972 965.776,-76.1585"/>
<polygon fill="midnightblue" stroke="midnightblue" points="966.449,-79.5933 975.592,-74.24 965.106,-72.7232 966.449,-79.5933"/>
</g>
<!-- Node32 -->
<g id="node32" class="node"><title>Node32</title>
<polygon fill="white" stroke="#bfbfbf" points="713,-56.5 713,-75.5 793,-75.5 793,-56.5 713,-56.5"/>
<text text-anchor="middle" x="753" y="-63.5" font-family="Helvetica,sans-Serif" font-size="10.00">graphviz/gvc.h</text>
</g>
<!-- Node31&#45;&gt;Node32 -->
<g id="edge60" class="edge"><title>Node31&#45;&gt;Node32</title>
<path fill="none" stroke="midnightblue" d="M707.082,-112.083C715.171,-104.141 727.195,-92.3354 736.91,-82.7973"/>
<polygon fill="midnightblue" stroke="midnightblue" points="739.403,-85.2545 744.087,-75.7511 734.499,-80.2595 739.403,-85.2545"/>
</g>
<!-- Node33 -->
<g id="node33" class="node"><title>Node33</title>
<polygon fill="white" stroke="#bfbfbf" points="530,-56.5 530,-75.5 574,-75.5 574,-56.5 530,-56.5"/>
<text text-anchor="middle" x="552" y="-63.5" font-family="Helvetica,sans-Serif" font-size="10.00">QFont</text>
</g>
<!-- Node31&#45;&gt;Node33 -->
<g id="edge62" class="edge"><title>Node31&#45;&gt;Node33</title>
<path fill="none" stroke="midnightblue" d="M674.866,-112.444C650.231,-103.332 611.084,-88.8531 583.614,-78.6929"/>
<polygon fill="midnightblue" stroke="midnightblue" points="584.663,-75.3493 574.07,-75.1629 582.235,-81.9146 584.663,-75.3493"/>
</g>
<!-- Node34 -->
<g id="node34" class="node"><title>Node34</title>
<polygon fill="white" stroke="#bfbfbf" points="592.5,-56.5 592.5,-75.5 635.5,-75.5 635.5,-56.5 592.5,-56.5"/>
<text text-anchor="middle" x="614" y="-63.5" font-family="Helvetica,sans-Serif" font-size="10.00">QMap</text>
</g>
<!-- Node31&#45;&gt;Node34 -->
<g id="edge63" class="edge"><title>Node31&#45;&gt;Node34</title>
<path fill="none" stroke="midnightblue" d="M684.504,-112.324C671.4,-103.9 651.288,-90.9709 635.893,-81.0741"/>
<polygon fill="midnightblue" stroke="midnightblue" points="637.767,-78.118 627.463,-75.6545 633.982,-84.0063 637.767,-78.118"/>
</g>
<!-- Node35 -->
<g id="node35" class="node"><title>Node35</title>
<polygon fill="white" stroke="#bfbfbf" points="653.5,-56.5 653.5,-75.5 694.5,-75.5 694.5,-56.5 653.5,-56.5"/>
<text text-anchor="middle" x="674" y="-63.5" font-family="Helvetica,sans-Serif" font-size="10.00">QPair</text>
</g>
<!-- Node31&#45;&gt;Node35 -->
<g id="edge64" class="edge"><title>Node31&#45;&gt;Node35</title>
<path fill="none" stroke="midnightblue" d="M694.037,-112.083C690.787,-104.77 686.081,-94.1814 682.046,-85.1034"/>
<polygon fill="midnightblue" stroke="midnightblue" points="685.149,-83.4677 677.889,-75.7511 678.752,-86.3107 685.149,-83.4677"/>
</g>
</g>
</svg>
