<?xml version="1.0" encoding="UTF-8" standalone="no"?>
<!DOCTYPE svg PUBLIC "-//W3C//DTD SVG 1.1//EN"
 "http://www.w3.org/Graphics/SVG/1.1/DTD/svg11.dtd">
<!-- Generated by graphviz version 2.38.0 (20140413.2041)
 -->
<!-- Title: headers/GVEdge.h Pages: 1 -->
<svg width="1368pt" height="476pt"
 viewBox="0.00 0.00 1368.00 476.00" xmlns="http://www.w3.org/2000/svg" xmlns:xlink="http://www.w3.org/1999/xlink">
<g id="graph0" class="graph" transform="scale(1 1) rotate(0) translate(4 472)">
<title>headers/GVEdge.h</title>
<polygon fill="white" stroke="none" points="-4,4 -4,-472 1364,-472 1364,4 -4,4"/>
<!-- Node1 -->
<g id="node1" class="node"><title>Node1</title>
<polygon fill="#bfbfbf" stroke="black" points="953.5,-448.5 953.5,-467.5 1052.5,-467.5 1052.5,-448.5 953.5,-448.5"/>
<text text-anchor="middle" x="1003" y="-455.5" font-family="Helvetica,sans-Serif" font-size="10.00">headers/GVEdge.h</text>
</g>
<!-- Node2 -->
<g id="node2" class="node"><title>Node2</title>
<g id="a_node2"><a xlink:href="GVSkeletonGraph_8h.html" target="_top" xlink:title="header for the GVSkeletonGraph class ">
<polygon fill="white" stroke="black" points="739.5,-392.5 739.5,-411.5 880.5,-411.5 880.5,-392.5 739.5,-392.5"/>
<text text-anchor="middle" x="810" y="-399.5" font-family="Helvetica,sans-Serif" font-size="10.00">headers/GVSkeletonGraph.h</text>
</a>
</g>
</g>
<!-- Node1&#45;&gt;Node2 -->
<g id="edge1" class="edge"><title>Node1&#45;&gt;Node2</title>
<path fill="none" stroke="midnightblue" d="M962.608,-445.699C926.183,-435.507 873.414,-420.743 840.438,-411.516"/>
<polygon fill="midnightblue" stroke="midnightblue" points="961.845,-449.12 972.419,-448.444 963.731,-442.378 961.845,-449.12"/>
</g>
<!-- Node5 -->
<g id="node5" class="node"><title>Node5</title>
<g id="a_node5"><a xlink:href="GAction_8h.html" target="_top" xlink:title="header for the GAction class ">
<polygon fill="white" stroke="black" points="1141,-224.5 1141,-243.5 1239,-243.5 1239,-224.5 1141,-224.5"/>
<text text-anchor="middle" x="1190" y="-231.5" font-family="Helvetica,sans-Serif" font-size="10.00">headers/GAction.h</text>
</a>
</g>
</g>
<!-- Node1&#45;&gt;Node5 -->
<g id="edge55" class="edge"><title>Node1&#45;&gt;Node5</title>
<path fill="none" stroke="midnightblue" d="M1016.85,-440.555C1053.88,-396.593 1154.27,-277.413 1182.52,-243.884"/>
<polygon fill="midnightblue" stroke="midnightblue" points="1014.1,-438.394 1010.33,-448.297 1019.45,-442.904 1014.1,-438.394"/>
</g>
<!-- Node3 -->
<g id="node3" class="node"><title>Node3</title>
<g id="a_node3"><a xlink:href="PH_8h.html" target="_top" xlink:title="header for the PH class ">
<polygon fill="white" stroke="black" points="837.5,-336.5 837.5,-355.5 914.5,-355.5 914.5,-336.5 837.5,-336.5"/>
<text text-anchor="middle" x="876" y="-343.5" font-family="Helvetica,sans-Serif" font-size="10.00">headers/PH.h</text>
</a>
</g>
</g>
<!-- Node2&#45;&gt;Node3 -->
<g id="edge2" class="edge"><title>Node2&#45;&gt;Node3</title>
<path fill="none" stroke="midnightblue" d="M828.554,-385.82C840.378,-376.145 855.286,-363.948 865.203,-355.834"/>
<polygon fill="midnightblue" stroke="midnightblue" points="826.127,-383.283 820.604,-392.324 830.56,-388.7 826.127,-383.283"/>
</g>
<!-- Node22 -->
<g id="node22" class="node"><title>Node22</title>
<g id="a_node22"><a xlink:href="PH_8cpp_source.html" target="_top" xlink:title="src/ph/PH.cpp">
<polygon fill="white" stroke="black" points="139,-56.5 139,-75.5 219,-75.5 219,-56.5 139,-56.5"/>
<text text-anchor="middle" x="179" y="-63.5" font-family="Helvetica,sans-Serif" font-size="10.00">src/ph/PH.cpp</text>
</a>
</g>
</g>
<!-- Node2&#45;&gt;Node22 -->
<g id="edge54" class="edge"><title>Node2&#45;&gt;Node22</title>
<path fill="none" stroke="midnightblue" d="M729.253,-395.883C552.907,-383.627 149,-349.201 149,-291 149,-291 149,-291 149,-177 149,-138.004 166.765,-93.8859 174.954,-75.6212"/>
<polygon fill="midnightblue" stroke="midnightblue" points="729.045,-399.377 739.261,-396.572 729.525,-392.394 729.045,-399.377"/>
</g>
<!-- Node33 -->
<g id="node33" class="node"><title>Node33</title>
<g id="a_node33"><a xlink:href="GVSkeletonGraph_8cpp_source.html" target="_top" xlink:title="src/gviz/GVSkeletonGraph.cpp">
<polygon fill="white" stroke="black" points="667,-336.5 667,-355.5 819,-355.5 819,-336.5 667,-336.5"/>
<text text-anchor="middle" x="743" y="-343.5" font-family="Helvetica,sans-Serif" font-size="10.00">src/gviz/GVSkeletonGraph.cpp</text>
</a>
</g>
</g>
<!-- Node2&#45;&gt;Node33 -->
<g id="edge53" class="edge"><title>Node2&#45;&gt;Node33</title>
<path fill="none" stroke="midnightblue" d="M791.165,-385.82C779.162,-376.145 764.028,-363.948 753.961,-355.834"/>
<polygon fill="midnightblue" stroke="midnightblue" points="789.253,-388.774 799.235,-392.324 793.646,-383.324 789.253,-388.774"/>
</g>
<!-- Node4 -->
<g id="node4" class="node"><title>Node4</title>
<g id="a_node4"><a xlink:href="Action_8h.html" target="_top" xlink:title="header for the Action class ">
<polygon fill="white" stroke="black" points="1032,-280.5 1032,-299.5 1122,-299.5 1122,-280.5 1032,-280.5"/>
<text text-anchor="middle" x="1077" y="-287.5" font-family="Helvetica,sans-Serif" font-size="10.00">headers/Action.h</text>
</a>
</g>
</g>
<!-- Node3&#45;&gt;Node4 -->
<g id="edge3" class="edge"><title>Node3&#45;&gt;Node4</title>
<path fill="none" stroke="midnightblue" d="M912.455,-333.699C948.712,-323.507 1003.84,-308.743 1040.22,-299.516"/>
<polygon fill="midnightblue" stroke="midnightblue" points="911.429,-330.352 902.76,-336.444 913.336,-337.087 911.429,-330.352"/>
</g>
<!-- Node9 -->
<g id="node9" class="node"><title>Node9</title>
<g id="a_node9"><a xlink:href="PHScene_8cpp_source.html" target="_top" xlink:title="src/gfx/PHScene.cpp">
<polygon fill="white" stroke="black" points="1250,-112.5 1250,-131.5 1360,-131.5 1360,-112.5 1250,-112.5"/>
<text text-anchor="middle" x="1305" y="-119.5" font-family="Helvetica,sans-Serif" font-size="10.00">src/gfx/PHScene.cpp</text>
</a>
</g>
</g>
<!-- Node3&#45;&gt;Node9 -->
<g id="edge49" class="edge"><title>Node3&#45;&gt;Node9</title>
<path fill="none" stroke="midnightblue" d="M924.889,-344.001C986.283,-341.355 1093.99,-332.065 1180,-300 1256.63,-271.432 1294.04,-263.28 1326,-188 1334.34,-168.351 1320.57,-144.198 1311.66,-131.59"/>
<polygon fill="midnightblue" stroke="midnightblue" points="924.568,-340.51 914.712,-344.396 924.84,-347.505 924.568,-340.51"/>
</g>
<!-- Node16 -->
<g id="node16" class="node"><title>Node16</title>
<g id="a_node16"><a xlink:href="TikzEditor_8cpp_source.html" target="_top" xlink:title="src/ui/TikzEditor.cpp">
<polygon fill="white" stroke="black" points="903.5,-0.5 903.5,-19.5 1010.5,-19.5 1010.5,-0.5 903.5,-0.5"/>
<text text-anchor="middle" x="957" y="-7.5" font-family="Helvetica,sans-Serif" font-size="10.00">src/ui/TikzEditor.cpp</text>
</a>
</g>
</g>
<!-- Node3&#45;&gt;Node16 -->
<g id="edge52" class="edge"><title>Node3&#45;&gt;Node16</title>
<path fill="none" stroke="midnightblue" d="M866.311,-327.248C862.382,-319.175 858.248,-309.352 856,-300 842.29,-242.956 833.849,-221.907 857,-168 878.849,-117.125 914.91,-124.836 941,-76 950.857,-57.5492 954.763,-32.9098 956.213,-19.9064"/>
<polygon fill="midnightblue" stroke="midnightblue" points="863.324,-329.092 871.02,-336.373 869.544,-325.881 863.324,-329.092"/>
</g>
<!-- Node17 -->
<g id="node17" class="node"><title>Node17</title>
<g id="a_node17"><a xlink:href="PHIO_8h.html" target="_top" xlink:title="header for the PHIO class ">
<polygon fill="white" stroke="black" points="237.5,-56.5 237.5,-75.5 324.5,-75.5 324.5,-56.5 237.5,-56.5"/>
<text text-anchor="middle" x="281" y="-63.5" font-family="Helvetica,sans-Serif" font-size="10.00">headers/PHIO.h</text>
</a>
</g>
</g>
<!-- Node3&#45;&gt;Node17 -->
<g id="edge48" class="edge"><title>Node3&#45;&gt;Node17</title>
<path fill="none" stroke="midnightblue" d="M827.454,-335.788C700.248,-311.486 367,-246.704 367,-235 367,-235 367,-235 367,-177 367,-130.7 319.128,-92.256 294.817,-75.7187"/>
<polygon fill="midnightblue" stroke="midnightblue" points="826.846,-339.235 837.324,-337.671 828.158,-332.359 826.846,-339.235"/>
</g>
<!-- Node19 -->
<g id="node19" class="node"><title>Node19</title>
<g id="a_node19"><a xlink:href="Main2_8cpp_source.html" target="_top" xlink:title="src/Main2.cpp">
<polygon fill="white" stroke="black" points="0,-0.5 0,-19.5 78,-19.5 78,-0.5 0,-0.5"/>
<text text-anchor="middle" x="39" y="-7.5" font-family="Helvetica,sans-Serif" font-size="10.00">src/Main2.cpp</text>
</a>
</g>
</g>
<!-- Node3&#45;&gt;Node19 -->
<g id="edge50" class="edge"><title>Node3&#45;&gt;Node19</title>
<path fill="none" stroke="midnightblue" d="M827.123,-336.166C697.644,-322.764 410.633,-348.384 309,-300 169.508,-233.593 66.6482,-60.6715 43.7823,-19.7658"/>
<polygon fill="midnightblue" stroke="midnightblue" points="826.952,-339.669 837.289,-337.342 827.757,-332.716 826.952,-339.669"/>
</g>
<!-- Node3&#45;&gt;Node22 -->
<g id="edge51" class="edge"><title>Node3&#45;&gt;Node22</title>
<path fill="none" stroke="midnightblue" d="M827.159,-336.122C685.954,-318.468 283,-355.166 283,-235 283,-235 283,-235 283,-177 283,-127.591 226.912,-91.4278 197.115,-75.7022"/>
<polygon fill="midnightblue" stroke="midnightblue" points="826.866,-339.615 837.258,-337.553 827.848,-332.684 826.866,-339.615"/>
</g>
<!-- Node27 -->
<g id="node27" class="node"><title>Node27</title>
<g id="a_node27"><a xlink:href="GProcess_8h.html" target="_top" xlink:title="header for the GProcess class ">
<polygon fill="white" stroke="black" points="865,-280.5 865,-299.5 971,-299.5 971,-280.5 865,-280.5"/>
<text text-anchor="middle" x="918" y="-287.5" font-family="Helvetica,sans-Serif" font-size="10.00">headers/GProcess.h</text>
</a>
</g>
</g>
<!-- Node3&#45;&gt;Node27 -->
<g id="edge39" class="edge"><title>Node3&#45;&gt;Node27</title>
<path fill="none" stroke="midnightblue" d="M889.11,-328.144C896.428,-318.736 905.241,-307.405 911.194,-299.751"/>
<polygon fill="midnightblue" stroke="midnightblue" points="886.312,-326.041 882.935,-336.083 891.838,-330.338 886.312,-326.041"/>
</g>
<!-- Node29 -->
<g id="node29" class="node"><title>Node29</title>
<g id="a_node29"><a xlink:href="MyArea_8h.html" target="_top" xlink:title="header for the MyArea class ">
<polygon fill="white" stroke="black" points="568,-168.5 568,-187.5 664,-187.5 664,-168.5 568,-168.5"/>
<text text-anchor="middle" x="616" y="-175.5" font-family="Helvetica,sans-Serif" font-size="10.00">headers/MyArea.h</text>
</a>
</g>
</g>
<!-- Node3&#45;&gt;Node29 -->
<g id="edge42" class="edge"><title>Node3&#45;&gt;Node29</title>
<path fill="none" stroke="midnightblue" d="M853.842,-330.853C801.547,-297.465 671.676,-214.547 629.478,-187.605"/>
<polygon fill="midnightblue" stroke="midnightblue" points="852.075,-333.877 862.387,-336.309 855.842,-327.977 852.075,-333.877"/>
</g>
<!-- Node4&#45;&gt;Node3 -->
<g id="edge4" class="edge"><title>Node4&#45;&gt;Node3</title>
<path fill="none" stroke="midnightblue" d="M1040.7,-302.257C1004.5,-312.436 949.367,-327.201 912.938,-336.444"/>
<polygon fill="midnightblue" stroke="midnightblue" points="1041.71,-305.609 1050.38,-299.516 1039.8,-298.874 1041.71,-305.609"/>
</g>
<!-- Node4&#45;&gt;Node5 -->
<g id="edge5" class="edge"><title>Node4&#45;&gt;Node5</title>
<path fill="none" stroke="midnightblue" d="M1099.14,-275.59C1118.71,-265.605 1146.89,-252.267 1166.78,-243.655"/>
<polygon fill="midnightblue" stroke="midnightblue" points="1097.3,-272.603 1090.04,-280.324 1100.53,-278.813 1097.3,-272.603"/>
</g>
<!-- Node26 -->
<g id="node26" class="node"><title>Node26</title>
<g id="a_node26"><a xlink:href="Action_8cpp_source.html" target="_top" xlink:title="src/ph/Action.cpp">
<polygon fill="white" stroke="black" points="1030.5,-224.5 1030.5,-243.5 1123.5,-243.5 1123.5,-224.5 1030.5,-224.5"/>
<text text-anchor="middle" x="1077" y="-231.5" font-family="Helvetica,sans-Serif" font-size="10.00">src/ph/Action.cpp</text>
</a>
</g>
</g>
<!-- Node4&#45;&gt;Node26 -->
<g id="edge38" class="edge"><title>Node4&#45;&gt;Node26</title>
<path fill="none" stroke="midnightblue" d="M1077,-269.805C1077,-260.91 1077,-250.78 1077,-243.751"/>
<polygon fill="midnightblue" stroke="midnightblue" points="1073.5,-270.083 1077,-280.083 1080.5,-270.083 1073.5,-270.083"/>
</g>
<!-- Node5&#45;&gt;Node4 -->
<g id="edge13" class="edge"><title>Node5&#45;&gt;Node4</title>
<path fill="none" stroke="midnightblue" d="M1168.14,-248.268C1148.49,-258.306 1119.99,-271.794 1099.99,-280.444"/>
<polygon fill="midnightblue" stroke="midnightblue" points="1170.01,-251.242 1177.26,-243.516 1166.77,-245.034 1170.01,-251.242"/>
</g>
<!-- Node6 -->
<g id="node6" class="node"><title>Node6</title>
<g id="a_node6"><a xlink:href="PHScene_8h.html" target="_top" xlink:title="header for the PHScene class ">
<polygon fill="white" stroke="black" points="1213,-168.5 1213,-187.5 1317,-187.5 1317,-168.5 1213,-168.5"/>
<text text-anchor="middle" x="1265" y="-175.5" font-family="Helvetica,sans-Serif" font-size="10.00">headers/PHScene.h</text>
</a>
</g>
</g>
<!-- Node5&#45;&gt;Node6 -->
<g id="edge6" class="edge"><title>Node5&#45;&gt;Node6</title>
<path fill="none" stroke="midnightblue" d="M1205,-217.778C1217.46,-208.038 1234.86,-195.756 1247.87,-187.655"/>
<polygon fill="midnightblue" stroke="midnightblue" points="1202.49,-215.304 1196.94,-224.324 1206.9,-220.738 1202.49,-215.304"/>
</g>
<!-- Node10 -->
<g id="node10" class="node"><title>Node10</title>
<g id="a_node10"><a xlink:href="TikzEditor_8h_source.html" target="_top" xlink:title="headers/TikzEditor.h">
<polygon fill="white" stroke="black" points="866.5,-168.5 866.5,-187.5 973.5,-187.5 973.5,-168.5 866.5,-168.5"/>
<text text-anchor="middle" x="920" y="-175.5" font-family="Helvetica,sans-Serif" font-size="10.00">headers/TikzEditor.h</text>
</a>
</g>
</g>
<!-- Node5&#45;&gt;Node10 -->
<g id="edge14" class="edge"><title>Node5&#45;&gt;Node10</title>
<path fill="none" stroke="midnightblue" d="M1137.37,-222.473C1086.34,-212.268 1009.9,-196.979 962.582,-187.516"/>
<polygon fill="midnightblue" stroke="midnightblue" points="1136.73,-225.914 1147.22,-224.444 1138.1,-219.05 1136.73,-225.914"/>
</g>
<!-- Node25 -->
<g id="node25" class="node"><title>Node25</title>
<g id="a_node25"><a xlink:href="GAction_8cpp_source.html" target="_top" xlink:title="src/gfx/GAction.cpp">
<polygon fill="white" stroke="black" points="1091,-168.5 1091,-187.5 1195,-187.5 1195,-168.5 1091,-168.5"/>
<text text-anchor="middle" x="1143" y="-175.5" font-family="Helvetica,sans-Serif" font-size="10.00">src/gfx/GAction.cpp</text>
</a>
</g>
</g>
<!-- Node5&#45;&gt;Node25 -->
<g id="edge37" class="edge"><title>Node5&#45;&gt;Node25</title>
<path fill="none" stroke="midnightblue" d="M1175.58,-216.431C1167.34,-206.967 1157.35,-195.483 1150.62,-187.751"/>
<polygon fill="midnightblue" stroke="midnightblue" points="1173.03,-218.838 1182.24,-224.083 1178.31,-214.242 1173.03,-218.838"/>
</g>
<!-- Node6&#45;&gt;Node3 -->
<g id="edge7" class="edge"><title>Node6&#45;&gt;Node3</title>
<path fill="none" stroke="midnightblue" d="M1264.26,-197.652C1262.8,-211.787 1258.78,-230.94 1248,-244 1211.3,-288.458 1185.89,-282.384 1131,-300 1056.52,-323.902 965.483,-336.101 914.803,-341.464"/>
<polygon fill="midnightblue" stroke="midnightblue" points="1267.76,-197.825 1264.96,-187.605 1260.78,-197.336 1267.76,-197.825"/>
</g>
<!-- Node6&#45;&gt;Node5 -->
<g id="edge8" class="edge"><title>Node6&#45;&gt;Node5</title>
<path fill="none" stroke="midnightblue" d="M1249.81,-194.369C1237.38,-204.077 1220.11,-216.263 1207.16,-224.324"/>
<polygon fill="midnightblue" stroke="midnightblue" points="1252.31,-196.849 1257.88,-187.834 1247.91,-191.41 1252.31,-196.849"/>
</g>
<!-- Node7 -->
<g id="node7" class="node"><title>Node7</title>
<g id="a_node7"><a xlink:href="GSort_8h.html" target="_top" xlink:title="header for the GSort class ">
<polygon fill="white" stroke="black" points="1062,-112.5 1062,-131.5 1150,-131.5 1150,-112.5 1062,-112.5"/>
<text text-anchor="middle" x="1106" y="-119.5" font-family="Helvetica,sans-Serif" font-size="10.00">headers/GSort.h</text>
</a>
</g>
</g>
<!-- Node6&#45;&gt;Node7 -->
<g id="edge9" class="edge"><title>Node6&#45;&gt;Node7</title>
<path fill="none" stroke="midnightblue" d="M1230.17,-165.172C1200.23,-155.004 1157.78,-140.585 1131.08,-131.516"/>
<polygon fill="midnightblue" stroke="midnightblue" points="1229.21,-168.542 1239.81,-168.444 1231.46,-161.914 1229.21,-168.542"/>
</g>
<!-- Node6&#45;&gt;Node9 -->
<g id="edge12" class="edge"><title>Node6&#45;&gt;Node9</title>
<path fill="none" stroke="midnightblue" d="M1277.7,-159.855C1284.63,-150.505 1292.91,-139.327 1298.52,-131.751"/>
<polygon fill="midnightblue" stroke="midnightblue" points="1274.75,-157.964 1271.61,-168.083 1280.37,-162.131 1274.75,-157.964"/>
</g>
<!-- Node7&#45;&gt;Node5 -->
<g id="edge10" class="edge"><title>Node7&#45;&gt;Node5</title>
<path fill="none" stroke="midnightblue" d="M1091.78,-139.675C1081.86,-153.436 1072.04,-173.057 1082,-188 1095.24,-207.859 1119.08,-218.968 1141,-225.175"/>
<polygon fill="midnightblue" stroke="midnightblue" points="1094.7,-141.621 1098.1,-131.587 1089.18,-137.309 1094.7,-141.621"/>
</g>
<!-- Node8 -->
<g id="node8" class="node"><title>Node8</title>
<g id="a_node8"><a xlink:href="GSort_8cpp_source.html" target="_top" xlink:title="src/gfx/GSort.cpp">
<polygon fill="white" stroke="black" points="1061,-56.5 1061,-75.5 1155,-75.5 1155,-56.5 1061,-56.5"/>
<text text-anchor="middle" x="1108" y="-63.5" font-family="Helvetica,sans-Serif" font-size="10.00">src/gfx/GSort.cpp</text>
</a>
</g>
</g>
<!-- Node7&#45;&gt;Node8 -->
<g id="edge11" class="edge"><title>Node7&#45;&gt;Node8</title>
<path fill="none" stroke="midnightblue" d="M1106.71,-101.805C1107.04,-92.9102 1107.42,-82.7798 1107.68,-75.7511"/>
<polygon fill="midnightblue" stroke="midnightblue" points="1103.2,-101.96 1106.33,-112.083 1110.2,-102.219 1103.2,-101.96"/>
</g>
<!-- Node11 -->
<g id="node11" class="node"><title>Node11</title>
<g id="a_node11"><a xlink:href="MainWindow_8h.html" target="_top" xlink:title="header for the Main class ">
<polygon fill="white" stroke="black" points="652.5,-112.5 652.5,-131.5 771.5,-131.5 771.5,-112.5 652.5,-112.5"/>
<text text-anchor="middle" x="712" y="-119.5" font-family="Helvetica,sans-Serif" font-size="10.00">headers/MainWindow.h</text>
</a>
</g>
</g>
<!-- Node10&#45;&gt;Node11 -->
<g id="edge15" class="edge"><title>Node10&#45;&gt;Node11</title>
<path fill="none" stroke="midnightblue" d="M877.222,-165.894C837.942,-155.697 780.571,-140.802 744.804,-131.516"/>
<polygon fill="midnightblue" stroke="midnightblue" points="876.483,-169.318 887.042,-168.444 878.242,-162.543 876.483,-169.318"/>
</g>
<!-- Node10&#45;&gt;Node16 -->
<g id="edge36" class="edge"><title>Node10&#45;&gt;Node16</title>
<path fill="none" stroke="midnightblue" d="M939.849,-162.058C961.596,-144.311 995.221,-112.479 1009,-76 1012.14,-67.6846 1012.7,-64.0844 1009,-56 1001.61,-39.821 985.203,-27.2312 972.783,-19.5333"/>
<polygon fill="midnightblue" stroke="midnightblue" points="937.558,-159.407 931.89,-168.358 941.903,-164.895 937.558,-159.407"/>
</g>
<!-- Node12 -->
<g id="node12" class="node"><title>Node12</title>
<g id="a_node12"><a xlink:href="Area_8h_source.html" target="_top" xlink:title="headers/Area.h">
<polygon fill="white" stroke="black" points="463.5,-56.5 463.5,-75.5 546.5,-75.5 546.5,-56.5 463.5,-56.5"/>
<text text-anchor="middle" x="505" y="-63.5" font-family="Helvetica,sans-Serif" font-size="10.00">headers/Area.h</text>
</a>
</g>
</g>
<!-- Node11&#45;&gt;Node12 -->
<g id="edge16" class="edge"><title>Node11&#45;&gt;Node12</title>
<path fill="none" stroke="midnightblue" d="M669.178,-109.829C630.094,-99.6333 573.165,-84.7823 537.646,-75.5164"/>
<polygon fill="midnightblue" stroke="midnightblue" points="668.641,-113.306 679.2,-112.444 670.408,-106.533 668.641,-113.306"/>
</g>
<!-- Node15 -->
<g id="node15" class="node"><title>Node15</title>
<g id="a_node15"><a xlink:href="MainWindow_8cpp_source.html" target="_top" xlink:title="src/ui/MainWindow.cpp">
<polygon fill="white" stroke="black" points="556.5,-0.5 556.5,-19.5 675.5,-19.5 675.5,-0.5 556.5,-0.5"/>
<text text-anchor="middle" x="616" y="-7.5" font-family="Helvetica,sans-Serif" font-size="10.00">src/ui/MainWindow.cpp</text>
</a>
</g>
</g>
<!-- Node11&#45;&gt;Node15 -->
<g id="edge34" class="edge"><title>Node11&#45;&gt;Node15</title>
<path fill="none" stroke="midnightblue" d="M642.832,-109.702C623.887,-103.086 605.439,-92.6044 594,-76 581.699,-58.1442 598.008,-32.824 608.465,-19.6778"/>
<polygon fill="midnightblue" stroke="midnightblue" points="641.856,-113.064 652.445,-112.735 643.962,-106.388 641.856,-113.064"/>
</g>
<!-- Node11&#45;&gt;Node16 -->
<g id="edge35" class="edge"><title>Node11&#45;&gt;Node16</title>
<path fill="none" stroke="midnightblue" d="M781.725,-119.196C824.198,-115.012 877.673,-103.935 917,-76 937.093,-61.728 949.104,-33.8819 954.17,-19.7207"/>
<polygon fill="midnightblue" stroke="midnightblue" points="781.389,-115.712 771.735,-120.074 782.003,-122.685 781.389,-115.712"/>
</g>
<!-- Node11&#45;&gt;Node17 -->
<g id="edge21" class="edge"><title>Node11&#45;&gt;Node17</title>
<path fill="none" stroke="midnightblue" d="M642.055,-111.903C504.087,-95.0717 467.661,-95.1213 334,-76 330.951,-75.5638 327.808,-75.0906 324.644,-74.597"/>
<polygon fill="midnightblue" stroke="midnightblue" points="641.815,-115.4 652.167,-113.145 642.668,-108.452 641.815,-115.4"/>
</g>
<!-- Node18 -->
<g id="node18" class="node"><title>Node18</title>
<g id="a_node18"><a xlink:href="Main_8cpp.html" target="_top" xlink:title="Principal Program. ">
<polygon fill="white" stroke="black" points="753.5,-0.5 753.5,-19.5 826.5,-19.5 826.5,-0.5 753.5,-0.5"/>
<text text-anchor="middle" x="790" y="-7.5" font-family="Helvetica,sans-Serif" font-size="10.00">src/Main.cpp</text>
</a>
</g>
</g>
<!-- Node11&#45;&gt;Node18 -->
<g id="edge30" class="edge"><title>Node11&#45;&gt;Node18</title>
<path fill="none" stroke="midnightblue" d="M781.488,-113.36C828.717,-106.569 885.203,-94.7568 900,-76 923.356,-46.3939 867.185,-27.4447 826.809,-18.0545"/>
<polygon fill="midnightblue" stroke="midnightblue" points="780.995,-109.894 771.569,-114.733 781.955,-116.828 780.995,-109.894"/>
</g>
<!-- Node11&#45;&gt;Node22 -->
<g id="edge31" class="edge"><title>Node11&#45;&gt;Node22</title>
<path fill="none" stroke="midnightblue" d="M642.123,-111.956C457.233,-92.3191 408.25,-100.316 228,-76 225.086,-75.6069 222.081,-75.1594 219.062,-74.679"/>
<polygon fill="midnightblue" stroke="midnightblue" points="641.863,-115.448 652.18,-113.037 642.611,-108.488 641.863,-115.448"/>
</g>
<!-- Node23 -->
<g id="node23" class="node"><title>Node23</title>
<g id="a_node23"><a xlink:href="ConnectionSettings_8cpp_source.html" target="_top" xlink:title="src/ui/ConnectionSettings.cpp">
<polygon fill="white" stroke="black" points="603,-56.5 603,-75.5 751,-75.5 751,-56.5 603,-56.5"/>
<text text-anchor="middle" x="677" y="-63.5" font-family="Helvetica,sans-Serif" font-size="10.00">src/ui/ConnectionSettings.cpp</text>
</a>
</g>
</g>
<!-- Node11&#45;&gt;Node23 -->
<g id="edge32" class="edge"><title>Node11&#45;&gt;Node23</title>
<path fill="none" stroke="midnightblue" d="M700.7,-103.566C694.678,-94.2747 687.531,-83.2484 682.672,-75.7511"/>
<polygon fill="midnightblue" stroke="midnightblue" points="697.844,-105.595 706.22,-112.083 703.719,-101.788 697.844,-105.595"/>
</g>
<!-- Node24 -->
<g id="node24" class="node"><title>Node24</title>
<g id="a_node24"><a xlink:href="FunctionForm_8cpp_source.html" target="_top" xlink:title="src/ui/FunctionForm.cpp">
<polygon fill="white" stroke="black" points="769,-56.5 769,-75.5 891,-75.5 891,-56.5 769,-56.5"/>
<text text-anchor="middle" x="830" y="-63.5" font-family="Helvetica,sans-Serif" font-size="10.00">src/ui/FunctionForm.cpp</text>
</a>
</g>
</g>
<!-- Node11&#45;&gt;Node24 -->
<g id="edge33" class="edge"><title>Node11&#45;&gt;Node24</title>
<path fill="none" stroke="midnightblue" d="M739.9,-108.232C761.973,-98.1312 792.176,-84.3091 811.39,-75.5164"/>
<polygon fill="midnightblue" stroke="midnightblue" points="738.334,-105.1 730.697,-112.444 741.247,-111.465 738.334,-105.1"/>
</g>
<!-- Node13 -->
<g id="node13" class="node"><title>Node13</title>
<g id="a_node13"><a xlink:href="PHIO_8cpp_source.html" target="_top" xlink:title="src/io/PHIO.cpp">
<polygon fill="white" stroke="black" points="451.5,-0.5 451.5,-19.5 538.5,-19.5 538.5,-0.5 451.5,-0.5"/>
<text text-anchor="middle" x="495" y="-7.5" font-family="Helvetica,sans-Serif" font-size="10.00">src/io/PHIO.cpp</text>
</a>
</g>
</g>
<!-- Node12&#45;&gt;Node13 -->
<g id="edge17" class="edge"><title>Node12&#45;&gt;Node13</title>
<path fill="none" stroke="midnightblue" d="M501.5,-46.1005C499.84,-37.1357 497.937,-26.8579 496.621,-19.7511"/>
<polygon fill="midnightblue" stroke="midnightblue" points="498.086,-46.8875 503.349,-56.083 504.969,-45.6128 498.086,-46.8875"/>
</g>
<!-- Node14 -->
<g id="node14" class="node"><title>Node14</title>
<g id="a_node14"><a xlink:href="Area_8cpp_source.html" target="_top" xlink:title="src/ui/Area.cpp">
<polygon fill="white" stroke="black" points="350.5,-0.5 350.5,-19.5 433.5,-19.5 433.5,-0.5 350.5,-0.5"/>
<text text-anchor="middle" x="392" y="-7.5" font-family="Helvetica,sans-Serif" font-size="10.00">src/ui/Area.cpp</text>
</a>
</g>
</g>
<!-- Node12&#45;&gt;Node14 -->
<g id="edge18" class="edge"><title>Node12&#45;&gt;Node14</title>
<path fill="none" stroke="midnightblue" d="M477.997,-52.096C456.886,-42.0073 428.138,-28.2697 409.821,-19.5164"/>
<polygon fill="midnightblue" stroke="midnightblue" points="476.563,-55.2897 487.095,-56.4435 479.581,-48.9738 476.563,-55.2897"/>
</g>
<!-- Node12&#45;&gt;Node15 -->
<g id="edge19" class="edge"><title>Node12&#45;&gt;Node15</title>
<path fill="none" stroke="midnightblue" d="M532.005,-51.8622C552.588,-41.8492 580.345,-28.3458 598.21,-19.6545"/>
<polygon fill="midnightblue" stroke="midnightblue" points="530.295,-48.8019 522.834,-56.324 533.358,-55.0966 530.295,-48.8019"/>
</g>
<!-- Node12&#45;&gt;Node16 -->
<g id="edge20" class="edge"><title>Node12&#45;&gt;Node16</title>
<path fill="none" stroke="midnightblue" d="M556.806,-58.8108C643.163,-48.4938 815.686,-27.8827 903.291,-17.4166"/>
<polygon fill="midnightblue" stroke="midnightblue" points="556.227,-55.355 546.713,-60.0166 557.058,-62.3055 556.227,-55.355"/>
</g>
<!-- Node17&#45;&gt;Node13 -->
<g id="edge22" class="edge"><title>Node17&#45;&gt;Node13</title>
<path fill="none" stroke="midnightblue" d="M324.755,-53.959C365.174,-43.7598 424.373,-28.8217 461.25,-19.5164"/>
<polygon fill="midnightblue" stroke="midnightblue" points="323.749,-50.6032 314.909,-56.4435 325.461,-57.3904 323.749,-50.6032"/>
</g>
<!-- Node17&#45;&gt;Node14 -->
<g id="edge26" class="edge"><title>Node17&#45;&gt;Node14</title>
<path fill="none" stroke="midnightblue" d="M308.005,-51.8622C328.588,-41.8492 356.345,-28.3458 374.21,-19.6545"/>
<polygon fill="midnightblue" stroke="midnightblue" points="306.295,-48.8019 298.834,-56.324 309.358,-55.0966 306.295,-48.8019"/>
</g>
<!-- Node17&#45;&gt;Node15 -->
<g id="edge27" class="edge"><title>Node17&#45;&gt;Node15</title>
<path fill="none" stroke="midnightblue" d="M334.786,-55.884C420.062,-41.8703 507.005,-28.0999 561.65,-19.5084"/>
<polygon fill="midnightblue" stroke="midnightblue" points="333.966,-52.4718 324.667,-57.5494 335.103,-59.3789 333.966,-52.4718"/>
</g>
<!-- Node17&#45;&gt;Node16 -->
<g id="edge29" class="edge"><title>Node17&#45;&gt;Node16</title>
<path fill="none" stroke="midnightblue" d="M334.665,-56.0425C557.333,-29.4801 615.61,-35.9745 835,-20 857.347,-18.3728 881.995,-16.5583 903.252,-14.9872"/>
<polygon fill="midnightblue" stroke="midnightblue" points="334.135,-52.5809 324.624,-57.2492 334.97,-59.5309 334.135,-52.5809"/>
</g>
<!-- Node17&#45;&gt;Node18 -->
<g id="edge23" class="edge"><title>Node17&#45;&gt;Node18</title>
<path fill="none" stroke="midnightblue" d="M334.727,-56.0178C432.038,-43.5784 663.085,-22.4211 753.225,-14.2944"/>
<polygon fill="midnightblue" stroke="midnightblue" points="334.096,-52.5706 324.636,-57.3418 335.006,-59.5111 334.096,-52.5706"/>
</g>
<!-- Node17&#45;&gt;Node19 -->
<g id="edge24" class="edge"><title>Node17&#45;&gt;Node19</title>
<path fill="none" stroke="midnightblue" d="M232.677,-54.2172C186.949,-44.0134 119.221,-28.9006 77.1662,-19.5164"/>
<polygon fill="midnightblue" stroke="midnightblue" points="232.132,-57.6816 242.654,-56.4435 233.657,-50.8496 232.132,-57.6816"/>
</g>
<!-- Node20 -->
<g id="node20" class="node"><title>Node20</title>
<g id="a_node20"><a xlink:href="PHIOTest_8cpp_source.html" target="_top" xlink:title="src/test/PHIOTest.cpp">
<polygon fill="white" stroke="black" points="96,-0.5 96,-19.5 212,-19.5 212,-0.5 96,-0.5"/>
<text text-anchor="middle" x="154" y="-7.5" font-family="Helvetica,sans-Serif" font-size="10.00">src/test/PHIOTest.cpp</text>
</a>
</g>
</g>
<!-- Node17&#45;&gt;Node20 -->
<g id="edge25" class="edge"><title>Node17&#45;&gt;Node20</title>
<path fill="none" stroke="midnightblue" d="M251.609,-52.503C227.8,-42.3795 194.894,-28.388 174.029,-19.5164"/>
<polygon fill="midnightblue" stroke="midnightblue" points="250.304,-55.7515 260.876,-56.4435 253.043,-49.3096 250.304,-55.7515"/>
</g>
<!-- Node21 -->
<g id="node21" class="node"><title>Node21</title>
<g id="a_node21"><a xlink:href="TextArea_8cpp_source.html" target="_top" xlink:title="src/ui/TextArea.cpp">
<polygon fill="white" stroke="black" points="230,-0.5 230,-19.5 332,-19.5 332,-0.5 230,-0.5"/>
<text text-anchor="middle" x="281" y="-7.5" font-family="Helvetica,sans-Serif" font-size="10.00">src/ui/TextArea.cpp</text>
</a>
</g>
</g>
<!-- Node17&#45;&gt;Node21 -->
<g id="edge28" class="edge"><title>Node17&#45;&gt;Node21</title>
<path fill="none" stroke="midnightblue" d="M281,-45.8045C281,-36.9102 281,-26.7798 281,-19.7511"/>
<polygon fill="midnightblue" stroke="midnightblue" points="277.5,-46.083 281,-56.083 284.5,-46.083 277.5,-46.083"/>
</g>
<!-- Node27&#45;&gt;Node7 -->
<g id="edge40" class="edge"><title>Node27&#45;&gt;Node7</title>
<path fill="none" stroke="midnightblue" d="M940.609,-274.73C953.434,-266.3 969.557,-255.126 983,-244 1029.61,-205.42 1079.25,-152.387 1098.11,-131.73"/>
<polygon fill="midnightblue" stroke="midnightblue" points="938.431,-271.971 931.939,-280.344 942.235,-277.847 938.431,-271.971"/>
</g>
<!-- Node28 -->
<g id="node28" class="node"><title>Node28</title>
<g id="a_node28"><a xlink:href="GProcess_8cpp_source.html" target="_top" xlink:title="src/gfx/GProcess.cpp">
<polygon fill="white" stroke="black" points="862,-224.5 862,-243.5 974,-243.5 974,-224.5 862,-224.5"/>
<text text-anchor="middle" x="918" y="-231.5" font-family="Helvetica,sans-Serif" font-size="10.00">src/gfx/GProcess.cpp</text>
</a>
</g>
</g>
<!-- Node27&#45;&gt;Node28 -->
<g id="edge41" class="edge"><title>Node27&#45;&gt;Node28</title>
<path fill="none" stroke="midnightblue" d="M918,-269.805C918,-260.91 918,-250.78 918,-243.751"/>
<polygon fill="midnightblue" stroke="midnightblue" points="914.5,-270.083 918,-280.083 921.5,-270.083 914.5,-270.083"/>
</g>
<!-- Node29&#45;&gt;Node11 -->
<g id="edge46" class="edge"><title>Node29&#45;&gt;Node11</title>
<path fill="none" stroke="midnightblue" d="M640.574,-163.177C658.239,-153.241 681.513,-140.149 696.614,-131.655"/>
<polygon fill="midnightblue" stroke="midnightblue" points="638.424,-160.371 631.424,-168.324 641.856,-166.472 638.424,-160.371"/>
</g>
<!-- Node30 -->
<g id="node30" class="node"><title>Node30</title>
<g id="a_node30"><a xlink:href="TreeArea_8h_source.html" target="_top" xlink:title="headers/TreeArea.h">
<polygon fill="white" stroke="black" points="418,-112.5 418,-131.5 520,-131.5 520,-112.5 418,-112.5"/>
<text text-anchor="middle" x="469" y="-119.5" font-family="Helvetica,sans-Serif" font-size="10.00">headers/TreeArea.h</text>
</a>
</g>
</g>
<!-- Node29&#45;&gt;Node30 -->
<g id="edge43" class="edge"><title>Node29&#45;&gt;Node30</title>
<path fill="none" stroke="midnightblue" d="M583.077,-164.906C555.44,-154.754 516.656,-140.506 492.184,-131.516"/>
<polygon fill="midnightblue" stroke="midnightblue" points="582.114,-168.281 592.707,-168.444 584.528,-161.71 582.114,-168.281"/>
</g>
<!-- Node32 -->
<g id="node32" class="node"><title>Node32</title>
<g id="a_node32"><a xlink:href="MyArea_8cpp_source.html" target="_top" xlink:title="src/ui/MyArea.cpp">
<polygon fill="white" stroke="black" points="538,-112.5 538,-131.5 634,-131.5 634,-112.5 538,-112.5"/>
<text text-anchor="middle" x="586" y="-119.5" font-family="Helvetica,sans-Serif" font-size="10.00">src/ui/MyArea.cpp</text>
</a>
</g>
</g>
<!-- Node29&#45;&gt;Node32 -->
<g id="edge47" class="edge"><title>Node29&#45;&gt;Node32</title>
<path fill="none" stroke="midnightblue" d="M606.153,-159.275C601.025,-150.045 594.984,-139.17 590.862,-131.751"/>
<polygon fill="midnightblue" stroke="midnightblue" points="603.13,-161.041 611.046,-168.083 609.249,-157.642 603.13,-161.041"/>
</g>
<!-- Node30&#45;&gt;Node12 -->
<g id="edge44" class="edge"><title>Node30&#45;&gt;Node12</title>
<path fill="none" stroke="midnightblue" d="M480.623,-103.566C486.817,-94.2747 494.168,-83.2484 499.166,-75.7511"/>
<polygon fill="midnightblue" stroke="midnightblue" points="477.58,-101.821 474.945,-112.083 483.404,-105.704 477.58,-101.821"/>
</g>
<!-- Node31 -->
<g id="node31" class="node"><title>Node31</title>
<g id="a_node31"><a xlink:href="TreeArea_8cpp_source.html" target="_top" xlink:title="src/ui/TreeArea.cpp">
<polygon fill="white" stroke="black" points="343,-56.5 343,-75.5 445,-75.5 445,-56.5 343,-56.5"/>
<text text-anchor="middle" x="394" y="-63.5" font-family="Helvetica,sans-Serif" font-size="10.00">src/ui/TreeArea.cpp</text>
</a>
</g>
</g>
<!-- Node30&#45;&gt;Node31 -->
<g id="edge45" class="edge"><title>Node30&#45;&gt;Node31</title>
<path fill="none" stroke="midnightblue" d="M448.695,-106.38C435.139,-96.6204 417.758,-84.1057 406.269,-75.8339"/>
<polygon fill="midnightblue" stroke="midnightblue" points="446.79,-109.321 456.95,-112.324 450.88,-103.641 446.79,-109.321"/>
</g>
</g>
</svg>
