<?xml version="1.0" encoding="UTF-8" standalone="no"?>
<!DOCTYPE svg PUBLIC "-//W3C//DTD SVG 1.1//EN"
 "http://www.w3.org/Graphics/SVG/1.1/DTD/svg11.dtd">
<!-- Generated by graphviz version 2.38.0 (20140413.2041)
 -->
<!-- Title: headers/GVEdge.h Pages: 1 -->
<svg width="217pt" height="84pt"
 viewBox="0.00 0.00 217.00 84.00" xmlns="http://www.w3.org/2000/svg" xmlns:xlink="http://www.w3.org/1999/xlink">
<g id="graph0" class="graph" transform="scale(1 1) rotate(0) translate(4 80)">
<title>headers/GVEdge.h</title>
<polygon fill="white" stroke="none" points="-4,4 -4,-80 213,-80 213,4 -4,4"/>
<!-- Node1 -->
<g id="node1" class="node"><title>Node1</title>
<polygon fill="#bfbfbf" stroke="black" points="41,-56.5 41,-75.5 140,-75.5 140,-56.5 41,-56.5"/>
<text text-anchor="middle" x="90.5" y="-63.5" font-family="Helvetica,sans-Serif" font-size="10.00">headers/GVEdge.h</text>
</g>
<!-- Node2 -->
<g id="node2" class="node"><title>Node2</title>
<polygon fill="white" stroke="#bfbfbf" points="0,-0.5 0,-19.5 47,-19.5 47,-0.5 0,-0.5"/>
<text text-anchor="middle" x="23.5" y="-7.5" font-family="Helvetica,sans-Serif" font-size="10.00">QPoint</text>
</g>
<!-- Node1&#45;&gt;Node2 -->
<g id="edge1" class="edge"><title>Node1&#45;&gt;Node2</title>
<path fill="none" stroke="midnightblue" d="M79.7353,-56.324C69.7339,-48.2631 54.6135,-36.0765 42.5695,-26.3695"/>
<polygon fill="midnightblue" stroke="midnightblue" points="44.4429,-23.3841 34.4606,-19.8339 40.0502,-28.8343 44.4429,-23.3841"/>
</g>
<!-- Node3 -->
<g id="node3" class="node"><title>Node3</title>
<polygon fill="white" stroke="#bfbfbf" points="65.5,-0.5 65.5,-19.5 115.5,-19.5 115.5,-0.5 65.5,-0.5"/>
<text text-anchor="middle" x="90.5" y="-7.5" font-family="Helvetica,sans-Serif" font-size="10.00">QString</text>
</g>
<!-- Node1&#45;&gt;Node3 -->
<g id="edge2" class="edge"><title>Node1&#45;&gt;Node3</title>
<path fill="none" stroke="midnightblue" d="M90.5,-56.083C90.5,-49.0059 90.5,-38.8611 90.5,-29.9865"/>
<polygon fill="midnightblue" stroke="midnightblue" points="94.0001,-29.751 90.5,-19.7511 87.0001,-29.7511 94.0001,-29.751"/>
</g>
<!-- Node4 -->
<g id="node4" class="node"><title>Node4</title>
<polygon fill="white" stroke="#bfbfbf" points="134,-0.5 134,-19.5 209,-19.5 209,-0.5 134,-0.5"/>
<text text-anchor="middle" x="171.5" y="-7.5" font-family="Helvetica,sans-Serif" font-size="10.00">QPainterPath</text>
</g>
<!-- Node1&#45;&gt;Node4 -->
<g id="edge3" class="edge"><title>Node1&#45;&gt;Node4</title>
<path fill="none" stroke="midnightblue" d="M103.514,-56.324C116.032,-47.979 135.182,-35.2122 149.971,-25.3524"/>
<polygon fill="midnightblue" stroke="midnightblue" points="152.139,-28.1137 158.518,-19.6545 148.256,-22.2894 152.139,-28.1137"/>
</g>
</g>
</svg>
