<?xml version="1.0" encoding="UTF-8" standalone="no"?>
<!DOCTYPE svg PUBLIC "-//W3C//DTD SVG 1.1//EN"
 "http://www.w3.org/Graphics/SVG/1.1/DTD/svg11.dtd">
<!-- Generated by graphviz version 2.38.0 (20140413.2041)
 -->
<!-- Title: headers/GVNode.h Pages: 1 -->
<svg width="1148pt" height="476pt"
 viewBox="0.00 0.00 1147.83 476.00" xmlns="http://www.w3.org/2000/svg" xmlns:xlink="http://www.w3.org/1999/xlink">
<g id="graph0" class="graph" transform="scale(1 1) rotate(0) translate(4 472)">
<title>headers/GVNode.h</title>
<polygon fill="white" stroke="none" points="-4,4 -4,-472 1143.83,-472 1143.83,4 -4,4"/>
<!-- Node1 -->
<g id="node1" class="node"><title>Node1</title>
<polygon fill="#bfbfbf" stroke="black" points="893,-448.5 893,-467.5 993,-467.5 993,-448.5 893,-448.5"/>
<text text-anchor="middle" x="943" y="-455.5" font-family="Helvetica,sans-Serif" font-size="10.00">headers/GVNode.h</text>
</g>
<!-- Node2 -->
<g id="node2" class="node"><title>Node2</title>
<g id="a_node2"><a xlink:href="GVSkeletonGraph_8h.html" target="_top" xlink:title="header for the GVSkeletonGraph class ">
<polygon fill="white" stroke="black" points="618.5,-392.5 618.5,-411.5 759.5,-411.5 759.5,-392.5 618.5,-392.5"/>
<text text-anchor="middle" x="689" y="-399.5" font-family="Helvetica,sans-Serif" font-size="10.00">headers/GVSkeletonGraph.h</text>
</a>
</g>
</g>
<!-- Node1&#45;&gt;Node2 -->
<g id="edge1" class="edge"><title>Node1&#45;&gt;Node2</title>
<path fill="none" stroke="midnightblue" d="M892.885,-446.346C844.883,-436.141 773.385,-420.94 729.059,-411.516"/>
<polygon fill="midnightblue" stroke="midnightblue" points="892.244,-449.787 902.753,-448.444 893.699,-442.94 892.244,-449.787"/>
</g>
<!-- Node7 -->
<g id="node7" class="node"><title>Node7</title>
<g id="a_node7"><a xlink:href="GSort_8h.html" target="_top" xlink:title="header for the GSort class ">
<polygon fill="white" stroke="black" points="872,-112.5 872,-131.5 960,-131.5 960,-112.5 872,-112.5"/>
<text text-anchor="middle" x="916" y="-119.5" font-family="Helvetica,sans-Serif" font-size="10.00">headers/GSort.h</text>
</a>
</g>
</g>
<!-- Node1&#45;&gt;Node7 -->
<g id="edge55" class="edge"><title>Node1&#45;&gt;Node7</title>
<path fill="none" stroke="midnightblue" d="M1003.25,-447.722C1058.57,-435.377 1132,-407.581 1132,-347 1132,-347 1132,-347 1132,-289 1132,-197.721 1009.23,-149.723 948.806,-131.628"/>
<polygon fill="midnightblue" stroke="midnightblue" points="1002.21,-444.363 993.152,-449.852 1003.66,-451.212 1002.21,-444.363"/>
</g>
<!-- Node3 -->
<g id="node3" class="node"><title>Node3</title>
<g id="a_node3"><a xlink:href="PH_8h.html" target="_top" xlink:title="header for the PH class ">
<polygon fill="white" stroke="black" points="717.5,-336.5 717.5,-355.5 794.5,-355.5 794.5,-336.5 717.5,-336.5"/>
<text text-anchor="middle" x="756" y="-343.5" font-family="Helvetica,sans-Serif" font-size="10.00">headers/PH.h</text>
</a>
</g>
</g>
<!-- Node2&#45;&gt;Node3 -->
<g id="edge2" class="edge"><title>Node2&#45;&gt;Node3</title>
<path fill="none" stroke="midnightblue" d="M707.835,-385.82C719.838,-376.145 734.972,-363.948 745.039,-355.834"/>
<polygon fill="midnightblue" stroke="midnightblue" points="705.354,-383.324 699.765,-392.324 709.747,-388.774 705.354,-383.324"/>
</g>
<!-- Node22 -->
<g id="node22" class="node"><title>Node22</title>
<g id="a_node22"><a xlink:href="PH_8cpp_source.html" target="_top" xlink:title="src/ph/PH.cpp">
<polygon fill="white" stroke="black" points="139,-56.5 139,-75.5 219,-75.5 219,-56.5 139,-56.5"/>
<text text-anchor="middle" x="179" y="-63.5" font-family="Helvetica,sans-Serif" font-size="10.00">src/ph/PH.cpp</text>
</a>
</g>
</g>
<!-- Node2&#45;&gt;Node22 -->
<g id="edge54" class="edge"><title>Node2&#45;&gt;Node22</title>
<path fill="none" stroke="midnightblue" d="M608.28,-401.086C457.683,-399.052 149,-383.591 149,-291 149,-291 149,-291 149,-177 149,-138.004 166.765,-93.8859 174.954,-75.6212"/>
<polygon fill="midnightblue" stroke="midnightblue" points="608.364,-404.587 618.404,-401.205 608.447,-397.587 608.364,-404.587"/>
</g>
<!-- Node33 -->
<g id="node33" class="node"><title>Node33</title>
<g id="a_node33"><a xlink:href="GVSkeletonGraph_8cpp_source.html" target="_top" xlink:title="src/gviz/GVSkeletonGraph.cpp">
<polygon fill="white" stroke="black" points="547,-336.5 547,-355.5 699,-355.5 699,-336.5 547,-336.5"/>
<text text-anchor="middle" x="623" y="-343.5" font-family="Helvetica,sans-Serif" font-size="10.00">src/gviz/GVSkeletonGraph.cpp</text>
</a>
</g>
</g>
<!-- Node2&#45;&gt;Node33 -->
<g id="edge53" class="edge"><title>Node2&#45;&gt;Node33</title>
<path fill="none" stroke="midnightblue" d="M670.446,-385.82C658.622,-376.145 643.714,-363.948 633.797,-355.834"/>
<polygon fill="midnightblue" stroke="midnightblue" points="668.44,-388.7 678.396,-392.324 672.873,-383.283 668.44,-388.7"/>
</g>
<!-- Node4 -->
<g id="node4" class="node"><title>Node4</title>
<g id="a_node4"><a xlink:href="Action_8h.html" target="_top" xlink:title="header for the Action class ">
<polygon fill="white" stroke="black" points="772,-280.5 772,-299.5 862,-299.5 862,-280.5 772,-280.5"/>
<text text-anchor="middle" x="817" y="-287.5" font-family="Helvetica,sans-Serif" font-size="10.00">headers/Action.h</text>
</a>
</g>
</g>
<!-- Node3&#45;&gt;Node4 -->
<g id="edge3" class="edge"><title>Node3&#45;&gt;Node4</title>
<path fill="none" stroke="midnightblue" d="M768.14,-328.718C777.962,-319.2 791.484,-307.561 801.984,-299.751"/>
<polygon fill="midnightblue" stroke="midnightblue" points="765.416,-326.496 760.907,-336.083 770.411,-331.401 765.416,-326.496"/>
</g>
<!-- Node9 -->
<g id="node9" class="node"><title>Node9</title>
<g id="a_node9"><a xlink:href="PHScene_8cpp_source.html" target="_top" xlink:title="src/gfx/PHScene.cpp">
<polygon fill="white" stroke="black" points="1016,-112.5 1016,-131.5 1126,-131.5 1126,-112.5 1016,-112.5"/>
<text text-anchor="middle" x="1071" y="-119.5" font-family="Helvetica,sans-Serif" font-size="10.00">src/gfx/PHScene.cpp</text>
</a>
</g>
</g>
<!-- Node3&#45;&gt;Node9 -->
<g id="edge49" class="edge"><title>Node3&#45;&gt;Node9</title>
<path fill="none" stroke="midnightblue" d="M804.879,-342.168C846.541,-337.874 906.695,-327.085 952,-300 1020.65,-258.959 1058.17,-161.166 1068.22,-131.608"/>
<polygon fill="midnightblue" stroke="midnightblue" points="804.333,-338.703 794.705,-343.125 804.989,-345.673 804.333,-338.703"/>
</g>
<!-- Node16 -->
<g id="node16" class="node"><title>Node16</title>
<g id="a_node16"><a xlink:href="TikzEditor_8cpp_source.html" target="_top" xlink:title="src/ui/TikzEditor.cpp">
<polygon fill="white" stroke="black" points="903.5,-0.5 903.5,-19.5 1010.5,-19.5 1010.5,-0.5 903.5,-0.5"/>
<text text-anchor="middle" x="957" y="-7.5" font-family="Helvetica,sans-Serif" font-size="10.00">src/ui/TikzEditor.cpp</text>
</a>
</g>
</g>
<!-- Node3&#45;&gt;Node16 -->
<g id="edge52" class="edge"><title>Node3&#45;&gt;Node16</title>
<path fill="none" stroke="midnightblue" d="M804.762,-343.519C851.793,-340.223 923.649,-330.149 978,-300 1005.5,-284.748 1118.85,-173.128 1135,-132 1148.33,-98.0446 1132.34,-78.9705 1104,-56 1077.46,-34.4883 1040.71,-23.2383 1010.6,-17.3662"/>
<polygon fill="midnightblue" stroke="midnightblue" points="804.298,-340.041 794.535,-344.156 804.733,-347.027 804.298,-340.041"/>
</g>
<!-- Node17 -->
<g id="node17" class="node"><title>Node17</title>
<g id="a_node17"><a xlink:href="PHIO_8h.html" target="_top" xlink:title="header for the PHIO class ">
<polygon fill="white" stroke="black" points="237.5,-56.5 237.5,-75.5 324.5,-75.5 324.5,-56.5 237.5,-56.5"/>
<text text-anchor="middle" x="281" y="-63.5" font-family="Helvetica,sans-Serif" font-size="10.00">headers/PHIO.h</text>
</a>
</g>
</g>
<!-- Node3&#45;&gt;Node17 -->
<g id="edge48" class="edge"><title>Node3&#45;&gt;Node17</title>
<path fill="none" stroke="midnightblue" d="M707.186,-335.532C591.446,-312.752 310,-255.273 310,-235 310,-235 310,-235 310,-177 310,-138.093 292.827,-93.9267 284.911,-75.6354"/>
<polygon fill="midnightblue" stroke="midnightblue" points="706.714,-339.006 717.201,-337.498 708.062,-332.137 706.714,-339.006"/>
</g>
<!-- Node19 -->
<g id="node19" class="node"><title>Node19</title>
<g id="a_node19"><a xlink:href="Main2_8cpp_source.html" target="_top" xlink:title="src/Main2.cpp">
<polygon fill="white" stroke="black" points="0,-0.5 0,-19.5 78,-19.5 78,-0.5 0,-0.5"/>
<text text-anchor="middle" x="39" y="-7.5" font-family="Helvetica,sans-Serif" font-size="10.00">src/Main2.cpp</text>
</a>
</g>
</g>
<!-- Node3&#45;&gt;Node19 -->
<g id="edge50" class="edge"><title>Node3&#45;&gt;Node19</title>
<path fill="none" stroke="midnightblue" d="M707.043,-336.152C596.993,-324.397 358.623,-343.387 276,-300 146.741,-232.124 61.6183,-60.3156 42.898,-19.7011"/>
<polygon fill="midnightblue" stroke="midnightblue" points="706.935,-339.665 717.282,-337.389 707.774,-332.715 706.935,-339.665"/>
</g>
<!-- Node3&#45;&gt;Node22 -->
<g id="edge51" class="edge"><title>Node3&#45;&gt;Node22</title>
<path fill="none" stroke="midnightblue" d="M707.119,-336.096C584.799,-320.157 248,-336.693 248,-235 248,-235 248,-235 248,-177 248,-133.266 208.375,-92.6455 189.181,-75.5352"/>
<polygon fill="midnightblue" stroke="midnightblue" points="706.854,-339.594 717.254,-337.576 707.865,-332.668 706.854,-339.594"/>
</g>
<!-- Node27 -->
<g id="node27" class="node"><title>Node27</title>
<g id="a_node27"><a xlink:href="GProcess_8h.html" target="_top" xlink:title="header for the GProcess class ">
<polygon fill="white" stroke="black" points="641,-280.5 641,-299.5 747,-299.5 747,-280.5 641,-280.5"/>
<text text-anchor="middle" x="694" y="-287.5" font-family="Helvetica,sans-Serif" font-size="10.00">headers/GProcess.h</text>
</a>
</g>
</g>
<!-- Node3&#45;&gt;Node27 -->
<g id="edge39" class="edge"><title>Node3&#45;&gt;Node27</title>
<path fill="none" stroke="midnightblue" d="M738.246,-329.537C727.192,-319.909 713.369,-307.869 704.143,-299.834"/>
<polygon fill="midnightblue" stroke="midnightblue" points="736.199,-332.395 746.039,-336.324 740.797,-327.117 736.199,-332.395"/>
</g>
<!-- Node29 -->
<g id="node29" class="node"><title>Node29</title>
<g id="a_node29"><a xlink:href="MyArea_8h.html" target="_top" xlink:title="header for the MyArea class ">
<polygon fill="white" stroke="black" points="486,-168.5 486,-187.5 582,-187.5 582,-168.5 486,-168.5"/>
<text text-anchor="middle" x="534" y="-175.5" font-family="Helvetica,sans-Serif" font-size="10.00">headers/MyArea.h</text>
</a>
</g>
</g>
<!-- Node3&#45;&gt;Node29 -->
<g id="edge42" class="edge"><title>Node3&#45;&gt;Node29</title>
<path fill="none" stroke="midnightblue" d="M707.657,-334.045C683.432,-326.986 654.54,-316.06 632,-300 586.868,-267.842 551.175,-209.596 538.745,-187.665"/>
<polygon fill="midnightblue" stroke="midnightblue" points="706.803,-337.44 717.375,-336.746 708.677,-330.696 706.803,-337.44"/>
</g>
<!-- Node4&#45;&gt;Node3 -->
<g id="edge4" class="edge"><title>Node4&#45;&gt;Node3</title>
<path fill="none" stroke="midnightblue" d="M804.921,-307.224C795.062,-316.783 781.451,-328.498 770.916,-336.324"/>
<polygon fill="midnightblue" stroke="midnightblue" points="807.666,-309.424 812.17,-299.834 802.668,-304.522 807.666,-309.424"/>
</g>
<!-- Node5 -->
<g id="node5" class="node"><title>Node5</title>
<g id="a_node5"><a xlink:href="GAction_8h.html" target="_top" xlink:title="header for the GAction class ">
<polygon fill="white" stroke="black" points="768,-224.5 768,-243.5 866,-243.5 866,-224.5 768,-224.5"/>
<text text-anchor="middle" x="817" y="-231.5" font-family="Helvetica,sans-Serif" font-size="10.00">headers/GAction.h</text>
</a>
</g>
</g>
<!-- Node4&#45;&gt;Node5 -->
<g id="edge5" class="edge"><title>Node4&#45;&gt;Node5</title>
<path fill="none" stroke="midnightblue" d="M810.528,-270.101C809.896,-261.136 810.343,-250.858 811.869,-243.751"/>
<polygon fill="midnightblue" stroke="midnightblue" points="807.066,-270.622 811.834,-280.083 814.007,-269.713 807.066,-270.622"/>
</g>
<!-- Node26 -->
<g id="node26" class="node"><title>Node26</title>
<g id="a_node26"><a xlink:href="Action_8cpp_source.html" target="_top" xlink:title="src/ph/Action.cpp">
<polygon fill="white" stroke="black" points="883.5,-224.5 883.5,-243.5 976.5,-243.5 976.5,-224.5 883.5,-224.5"/>
<text text-anchor="middle" x="930" y="-231.5" font-family="Helvetica,sans-Serif" font-size="10.00">src/ph/Action.cpp</text>
</a>
</g>
</g>
<!-- Node4&#45;&gt;Node26 -->
<g id="edge38" class="edge"><title>Node4&#45;&gt;Node26</title>
<path fill="none" stroke="midnightblue" d="M844.003,-276.096C865.114,-266.007 893.862,-252.27 912.179,-243.516"/>
<polygon fill="midnightblue" stroke="midnightblue" points="842.419,-272.974 834.905,-280.444 845.437,-279.29 842.419,-272.974"/>
</g>
<!-- Node5&#45;&gt;Node4 -->
<g id="edge13" class="edge"><title>Node5&#45;&gt;Node4</title>
<path fill="none" stroke="midnightblue" d="M823.458,-253.691C824.106,-262.635 823.676,-272.927 822.166,-280.083"/>
<polygon fill="midnightblue" stroke="midnightblue" points="826.923,-253.2 822.131,-243.751 819.985,-254.126 826.923,-253.2"/>
</g>
<!-- Node6 -->
<g id="node6" class="node"><title>Node6</title>
<g id="a_node6"><a xlink:href="PHScene_8h.html" target="_top" xlink:title="header for the PHScene class ">
<polygon fill="white" stroke="black" points="924,-168.5 924,-187.5 1028,-187.5 1028,-168.5 924,-168.5"/>
<text text-anchor="middle" x="976" y="-175.5" font-family="Helvetica,sans-Serif" font-size="10.00">headers/PHScene.h</text>
</a>
</g>
</g>
<!-- Node5&#45;&gt;Node6 -->
<g id="edge6" class="edge"><title>Node5&#45;&gt;Node6</title>
<path fill="none" stroke="midnightblue" d="M846.874,-220.906C875.224,-210.754 917.393,-196.506 945.844,-187.516"/>
<polygon fill="midnightblue" stroke="midnightblue" points="845.316,-217.748 837.105,-224.444 847.699,-224.329 845.316,-217.748"/>
</g>
<!-- Node10 -->
<g id="node10" class="node"><title>Node10</title>
<g id="a_node10"><a xlink:href="TikzEditor_8h_source.html" target="_top" xlink:title="headers/TikzEditor.h">
<polygon fill="white" stroke="black" points="798.5,-168.5 798.5,-187.5 905.5,-187.5 905.5,-168.5 798.5,-168.5"/>
<text text-anchor="middle" x="852" y="-175.5" font-family="Helvetica,sans-Serif" font-size="10.00">headers/TikzEditor.h</text>
</a>
</g>
</g>
<!-- Node5&#45;&gt;Node10 -->
<g id="edge14" class="edge"><title>Node5&#45;&gt;Node10</title>
<path fill="none" stroke="midnightblue" d="M828.3,-215.566C834.322,-206.275 841.469,-195.248 846.328,-187.751"/>
<polygon fill="midnightblue" stroke="midnightblue" points="825.281,-213.788 822.78,-224.083 831.156,-217.595 825.281,-213.788"/>
</g>
<!-- Node25 -->
<g id="node25" class="node"><title>Node25</title>
<g id="a_node25"><a xlink:href="GAction_8cpp_source.html" target="_top" xlink:title="src/gfx/GAction.cpp">
<polygon fill="white" stroke="black" points="676,-168.5 676,-187.5 780,-187.5 780,-168.5 676,-168.5"/>
<text text-anchor="middle" x="728" y="-175.5" font-family="Helvetica,sans-Serif" font-size="10.00">src/gfx/GAction.cpp</text>
</a>
</g>
</g>
<!-- Node5&#45;&gt;Node25 -->
<g id="edge37" class="edge"><title>Node5&#45;&gt;Node25</title>
<path fill="none" stroke="midnightblue" d="M793.762,-218.901C777.442,-208.999 756.135,-196.071 742.264,-187.655"/>
<polygon fill="midnightblue" stroke="midnightblue" points="792.336,-222.129 802.701,-224.324 795.967,-216.144 792.336,-222.129"/>
</g>
<!-- Node6&#45;&gt;Node3 -->
<g id="edge7" class="edge"><title>Node6&#45;&gt;Node3</title>
<path fill="none" stroke="midnightblue" d="M984.531,-197.146C989.685,-210.98 993.736,-229.976 985,-244 943.876,-310.019 848.302,-333.094 794.528,-341.002"/>
<polygon fill="midnightblue" stroke="midnightblue" points="987.677,-195.599 980.569,-187.742 981.227,-198.317 987.677,-195.599"/>
</g>
<!-- Node6&#45;&gt;Node5 -->
<g id="edge8" class="edge"><title>Node6&#45;&gt;Node5</title>
<path fill="none" stroke="midnightblue" d="M946.252,-191.049C917.943,-201.189 875.774,-215.438 847.283,-224.444"/>
<polygon fill="midnightblue" stroke="midnightblue" points="947.794,-194.213 956.004,-187.516 945.41,-187.632 947.794,-194.213"/>
</g>
<!-- Node6&#45;&gt;Node7 -->
<g id="edge9" class="edge"><title>Node6&#45;&gt;Node7</title>
<path fill="none" stroke="midnightblue" d="M958.819,-161.537C948.121,-151.909 934.744,-139.869 925.815,-131.834"/>
<polygon fill="midnightblue" stroke="midnightblue" points="956.586,-164.236 966.36,-168.324 961.268,-159.033 956.586,-164.236"/>
</g>
<!-- Node6&#45;&gt;Node9 -->
<g id="edge12" class="edge"><title>Node6&#45;&gt;Node9</title>
<path fill="none" stroke="midnightblue" d="M1000.32,-163.177C1017.8,-153.241 1040.83,-140.149 1055.77,-131.655"/>
<polygon fill="midnightblue" stroke="midnightblue" points="998.227,-160.339 991.263,-168.324 1001.69,-166.425 998.227,-160.339"/>
</g>
<!-- Node7&#45;&gt;Node5 -->
<g id="edge10" class="edge"><title>Node7&#45;&gt;Node5</title>
<path fill="none" stroke="midnightblue" d="M861.586,-124.958C795.929,-128.598 691.296,-138.92 667,-168 661.301,-174.821 661.694,-180.869 667,-188 679.213,-204.414 728.908,-217.082 767.794,-224.735"/>
<polygon fill="midnightblue" stroke="midnightblue" points="861.965,-128.443 871.77,-124.429 861.602,-121.452 861.965,-128.443"/>
</g>
<!-- Node8 -->
<g id="node8" class="node"><title>Node8</title>
<g id="a_node8"><a xlink:href="GSort_8cpp_source.html" target="_top" xlink:title="src/gfx/GSort.cpp">
<polygon fill="white" stroke="black" points="985,-56.5 985,-75.5 1079,-75.5 1079,-56.5 985,-56.5"/>
<text text-anchor="middle" x="1032" y="-63.5" font-family="Helvetica,sans-Serif" font-size="10.00">src/gfx/GSort.cpp</text>
</a>
</g>
</g>
<!-- Node7&#45;&gt;Node8 -->
<g id="edge11" class="edge"><title>Node7&#45;&gt;Node8</title>
<path fill="none" stroke="midnightblue" d="M943.72,-108.096C965.392,-98.0073 994.902,-84.2697 1013.71,-75.5164"/>
<polygon fill="midnightblue" stroke="midnightblue" points="941.969,-105.05 934.381,-112.444 944.923,-111.396 941.969,-105.05"/>
</g>
<!-- Node11 -->
<g id="node11" class="node"><title>Node11</title>
<g id="a_node11"><a xlink:href="MainWindow_8h.html" target="_top" xlink:title="header for the Main class ">
<polygon fill="white" stroke="black" points="612.5,-112.5 612.5,-131.5 731.5,-131.5 731.5,-112.5 612.5,-112.5"/>
<text text-anchor="middle" x="672" y="-119.5" font-family="Helvetica,sans-Serif" font-size="10.00">headers/MainWindow.h</text>
</a>
</g>
</g>
<!-- Node10&#45;&gt;Node11 -->
<g id="edge15" class="edge"><title>Node10&#45;&gt;Node11</title>
<path fill="none" stroke="midnightblue" d="M813.892,-165.568C779.937,-155.381 731.011,-140.703 700.388,-131.516"/>
<polygon fill="midnightblue" stroke="midnightblue" points="812.894,-168.922 823.478,-168.444 814.906,-162.218 812.894,-168.922"/>
</g>
<!-- Node10&#45;&gt;Node16 -->
<g id="edge36" class="edge"><title>Node10&#45;&gt;Node16</title>
<path fill="none" stroke="midnightblue" d="M886.546,-164.923C910.075,-156.403 941.773,-144.35 969,-132 986.381,-124.116 989.826,-120.325 1007,-112 1042.45,-94.8164 1066.53,-109.033 1088,-76 1109.65,-42.6838 1055.87,-25.8099 1010.8,-17.7261"/>
<polygon fill="midnightblue" stroke="midnightblue" points="885.229,-161.677 876.999,-168.348 887.593,-168.265 885.229,-161.677"/>
</g>
<!-- Node12 -->
<g id="node12" class="node"><title>Node12</title>
<g id="a_node12"><a xlink:href="Area_8h_source.html" target="_top" xlink:title="headers/Area.h">
<polygon fill="white" stroke="black" points="463.5,-56.5 463.5,-75.5 546.5,-75.5 546.5,-56.5 463.5,-56.5"/>
<text text-anchor="middle" x="505" y="-63.5" font-family="Helvetica,sans-Serif" font-size="10.00">headers/Area.h</text>
</a>
</g>
</g>
<!-- Node11&#45;&gt;Node12 -->
<g id="edge16" class="edge"><title>Node11&#45;&gt;Node12</title>
<path fill="none" stroke="midnightblue" d="M635.83,-109.304C604.363,-99.1294 559.506,-84.6246 531.338,-75.5164"/>
<polygon fill="midnightblue" stroke="midnightblue" points="634.947,-112.697 645.538,-112.444 637.1,-106.037 634.947,-112.697"/>
</g>
<!-- Node15 -->
<g id="node15" class="node"><title>Node15</title>
<g id="a_node15"><a xlink:href="MainWindow_8cpp_source.html" target="_top" xlink:title="src/ui/MainWindow.cpp">
<polygon fill="white" stroke="black" points="556.5,-0.5 556.5,-19.5 675.5,-19.5 675.5,-0.5 556.5,-0.5"/>
<text text-anchor="middle" x="616" y="-7.5" font-family="Helvetica,sans-Serif" font-size="10.00">src/ui/MainWindow.cpp</text>
</a>
</g>
</g>
<!-- Node11&#45;&gt;Node15 -->
<g id="edge34" class="edge"><title>Node11&#45;&gt;Node15</title>
<path fill="none" stroke="midnightblue" d="M633.617,-108.501C618.487,-101.477 602.677,-91.0228 594,-76 583.275,-57.4303 598.508,-32.8392 608.499,-19.8749"/>
<polygon fill="midnightblue" stroke="midnightblue" points="632.307,-111.747 642.879,-112.441 635.047,-105.306 632.307,-111.747"/>
</g>
<!-- Node11&#45;&gt;Node16 -->
<g id="edge35" class="edge"><title>Node11&#45;&gt;Node16</title>
<path fill="none" stroke="midnightblue" d="M741.849,-114.528C803.952,-107.647 889.114,-95.0941 917,-76 937.335,-62.076 949.237,-34.0723 954.225,-19.7988"/>
<polygon fill="midnightblue" stroke="midnightblue" points="741.271,-111.07 731.705,-115.625 742.023,-118.03 741.271,-111.07"/>
</g>
<!-- Node11&#45;&gt;Node17 -->
<g id="edge21" class="edge"><title>Node11&#45;&gt;Node17</title>
<path fill="none" stroke="midnightblue" d="M602.155,-112.443C533.735,-103.886 426.557,-90.0153 334,-76 330.955,-75.5389 327.814,-75.0471 324.653,-74.5402"/>
<polygon fill="midnightblue" stroke="midnightblue" points="602.022,-115.954 612.379,-113.718 602.889,-109.008 602.022,-115.954"/>
</g>
<!-- Node18 -->
<g id="node18" class="node"><title>Node18</title>
<g id="a_node18"><a xlink:href="Main_8cpp.html" target="_top" xlink:title="Principal Program. ">
<polygon fill="white" stroke="black" points="753.5,-0.5 753.5,-19.5 826.5,-19.5 826.5,-0.5 753.5,-0.5"/>
<text text-anchor="middle" x="790" y="-7.5" font-family="Helvetica,sans-Serif" font-size="10.00">src/Main.cpp</text>
</a>
</g>
</g>
<!-- Node11&#45;&gt;Node18 -->
<g id="edge30" class="edge"><title>Node11&#45;&gt;Node18</title>
<path fill="none" stroke="midnightblue" d="M741.703,-116.749C801.202,-111.493 880.202,-100.088 900,-76 924.015,-46.7821 867.248,-27.6509 826.65,-18.1309"/>
<polygon fill="midnightblue" stroke="midnightblue" points="741.258,-113.274 731.587,-117.601 741.846,-120.249 741.258,-113.274"/>
</g>
<!-- Node11&#45;&gt;Node22 -->
<g id="edge31" class="edge"><title>Node11&#45;&gt;Node22</title>
<path fill="none" stroke="midnightblue" d="M602.239,-112.892C599.457,-112.587 596.702,-112.289 594,-112 431.474,-94.6316 389.856,-98.7838 228,-76 225.088,-75.5901 222.085,-75.1303 219.067,-74.6411"/>
<polygon fill="midnightblue" stroke="midnightblue" points="602.066,-116.394 612.391,-114.017 602.837,-109.437 602.066,-116.394"/>
</g>
<!-- Node23 -->
<g id="node23" class="node"><title>Node23</title>
<g id="a_node23"><a xlink:href="ConnectionSettings_8cpp_source.html" target="_top" xlink:title="src/ui/ConnectionSettings.cpp">
<polygon fill="white" stroke="black" points="603,-56.5 603,-75.5 751,-75.5 751,-56.5 603,-56.5"/>
<text text-anchor="middle" x="677" y="-63.5" font-family="Helvetica,sans-Serif" font-size="10.00">src/ui/ConnectionSettings.cpp</text>
</a>
</g>
</g>
<!-- Node11&#45;&gt;Node23 -->
<g id="edge32" class="edge"><title>Node11&#45;&gt;Node23</title>
<path fill="none" stroke="midnightblue" d="M673.75,-102.101C674.58,-93.1357 675.532,-82.8579 676.19,-75.7511"/>
<polygon fill="midnightblue" stroke="midnightblue" points="670.263,-101.803 672.826,-112.083 677.233,-102.448 670.263,-101.803"/>
</g>
<!-- Node24 -->
<g id="node24" class="node"><title>Node24</title>
<g id="a_node24"><a xlink:href="FunctionForm_8cpp_source.html" target="_top" xlink:title="src/ui/FunctionForm.cpp">
<polygon fill="white" stroke="black" points="769,-56.5 769,-75.5 891,-75.5 891,-56.5 769,-56.5"/>
<text text-anchor="middle" x="830" y="-63.5" font-family="Helvetica,sans-Serif" font-size="10.00">src/ui/FunctionForm.cpp</text>
</a>
</g>
</g>
<!-- Node11&#45;&gt;Node24 -->
<g id="edge33" class="edge"><title>Node11&#45;&gt;Node24</title>
<path fill="none" stroke="midnightblue" d="M706.608,-109.172C736.359,-99.0039 778.547,-84.5852 805.082,-75.5164"/>
<polygon fill="midnightblue" stroke="midnightblue" points="705.366,-105.898 697.036,-112.444 707.63,-112.521 705.366,-105.898"/>
</g>
<!-- Node13 -->
<g id="node13" class="node"><title>Node13</title>
<g id="a_node13"><a xlink:href="PHIO_8cpp_source.html" target="_top" xlink:title="src/io/PHIO.cpp">
<polygon fill="white" stroke="black" points="350.5,-0.5 350.5,-19.5 437.5,-19.5 437.5,-0.5 350.5,-0.5"/>
<text text-anchor="middle" x="394" y="-7.5" font-family="Helvetica,sans-Serif" font-size="10.00">src/io/PHIO.cpp</text>
</a>
</g>
</g>
<!-- Node12&#45;&gt;Node13 -->
<g id="edge17" class="edge"><title>Node12&#45;&gt;Node13</title>
<path fill="none" stroke="midnightblue" d="M477.995,-51.8622C457.412,-41.8492 429.655,-28.3458 411.79,-19.6545"/>
<polygon fill="midnightblue" stroke="midnightblue" points="476.642,-55.0966 487.166,-56.324 479.705,-48.8019 476.642,-55.0966"/>
</g>
<!-- Node14 -->
<g id="node14" class="node"><title>Node14</title>
<g id="a_node14"><a xlink:href="Area_8cpp_source.html" target="_top" xlink:title="src/ui/Area.cpp">
<polygon fill="white" stroke="black" points="455.5,-0.5 455.5,-19.5 538.5,-19.5 538.5,-0.5 455.5,-0.5"/>
<text text-anchor="middle" x="497" y="-7.5" font-family="Helvetica,sans-Serif" font-size="10.00">src/ui/Area.cpp</text>
</a>
</g>
</g>
<!-- Node12&#45;&gt;Node14 -->
<g id="edge18" class="edge"><title>Node12&#45;&gt;Node14</title>
<path fill="none" stroke="midnightblue" d="M502.2,-46.1005C500.872,-37.1357 499.349,-26.8579 498.296,-19.7511"/>
<polygon fill="midnightblue" stroke="midnightblue" points="498.751,-46.7039 503.679,-56.083 505.676,-45.678 498.751,-46.7039"/>
</g>
<!-- Node12&#45;&gt;Node15 -->
<g id="edge19" class="edge"><title>Node12&#45;&gt;Node15</title>
<path fill="none" stroke="midnightblue" d="M532.005,-51.8622C552.588,-41.8492 580.345,-28.3458 598.21,-19.6545"/>
<polygon fill="midnightblue" stroke="midnightblue" points="530.295,-48.8019 522.834,-56.324 533.358,-55.0966 530.295,-48.8019"/>
</g>
<!-- Node12&#45;&gt;Node16 -->
<g id="edge20" class="edge"><title>Node12&#45;&gt;Node16</title>
<path fill="none" stroke="midnightblue" d="M556.806,-58.8108C643.163,-48.4938 815.686,-27.8827 903.291,-17.4166"/>
<polygon fill="midnightblue" stroke="midnightblue" points="556.227,-55.355 546.713,-60.0166 557.058,-62.3055 556.227,-55.355"/>
</g>
<!-- Node17&#45;&gt;Node13 -->
<g id="edge22" class="edge"><title>Node17&#45;&gt;Node13</title>
<path fill="none" stroke="midnightblue" d="M308.003,-52.096C329.114,-42.0073 357.862,-28.2697 376.179,-19.5164"/>
<polygon fill="midnightblue" stroke="midnightblue" points="306.419,-48.9738 298.905,-56.4435 309.437,-55.2897 306.419,-48.9738"/>
</g>
<!-- Node17&#45;&gt;Node14 -->
<g id="edge26" class="edge"><title>Node17&#45;&gt;Node14</title>
<path fill="none" stroke="midnightblue" d="M325.164,-53.959C365.961,-43.7598 425.713,-28.8217 462.934,-19.5164"/>
<polygon fill="midnightblue" stroke="midnightblue" points="324.078,-50.6226 315.226,-56.4435 325.776,-57.4136 324.078,-50.6226"/>
</g>
<!-- Node17&#45;&gt;Node15 -->
<g id="edge27" class="edge"><title>Node17&#45;&gt;Node15</title>
<path fill="none" stroke="midnightblue" d="M334.786,-55.884C420.062,-41.8703 507.005,-28.0999 561.65,-19.5084"/>
<polygon fill="midnightblue" stroke="midnightblue" points="333.966,-52.4718 324.667,-57.5494 335.103,-59.3789 333.966,-52.4718"/>
</g>
<!-- Node17&#45;&gt;Node16 -->
<g id="edge29" class="edge"><title>Node17&#45;&gt;Node16</title>
<path fill="none" stroke="midnightblue" d="M334.665,-56.0425C557.333,-29.4801 615.61,-35.9745 835,-20 857.347,-18.3728 881.995,-16.5583 903.252,-14.9872"/>
<polygon fill="midnightblue" stroke="midnightblue" points="334.135,-52.5809 324.624,-57.2492 334.97,-59.5309 334.135,-52.5809"/>
</g>
<!-- Node17&#45;&gt;Node18 -->
<g id="edge23" class="edge"><title>Node17&#45;&gt;Node18</title>
<path fill="none" stroke="midnightblue" d="M334.727,-56.0178C432.038,-43.5784 663.085,-22.4211 753.225,-14.2944"/>
<polygon fill="midnightblue" stroke="midnightblue" points="334.096,-52.5706 324.636,-57.3418 335.006,-59.5111 334.096,-52.5706"/>
</g>
<!-- Node17&#45;&gt;Node19 -->
<g id="edge24" class="edge"><title>Node17&#45;&gt;Node19</title>
<path fill="none" stroke="midnightblue" d="M232.677,-54.2172C186.949,-44.0134 119.221,-28.9006 77.1662,-19.5164"/>
<polygon fill="midnightblue" stroke="midnightblue" points="232.132,-57.6816 242.654,-56.4435 233.657,-50.8496 232.132,-57.6816"/>
</g>
<!-- Node20 -->
<g id="node20" class="node"><title>Node20</title>
<g id="a_node20"><a xlink:href="PHIOTest_8cpp_source.html" target="_top" xlink:title="src/test/PHIOTest.cpp">
<polygon fill="white" stroke="black" points="96,-0.5 96,-19.5 212,-19.5 212,-0.5 96,-0.5"/>
<text text-anchor="middle" x="154" y="-7.5" font-family="Helvetica,sans-Serif" font-size="10.00">src/test/PHIOTest.cpp</text>
</a>
</g>
</g>
<!-- Node17&#45;&gt;Node20 -->
<g id="edge25" class="edge"><title>Node17&#45;&gt;Node20</title>
<path fill="none" stroke="midnightblue" d="M251.609,-52.503C227.8,-42.3795 194.894,-28.388 174.029,-19.5164"/>
<polygon fill="midnightblue" stroke="midnightblue" points="250.304,-55.7515 260.876,-56.4435 253.043,-49.3096 250.304,-55.7515"/>
</g>
<!-- Node21 -->
<g id="node21" class="node"><title>Node21</title>
<g id="a_node21"><a xlink:href="TextArea_8cpp_source.html" target="_top" xlink:title="src/ui/TextArea.cpp">
<polygon fill="white" stroke="black" points="230,-0.5 230,-19.5 332,-19.5 332,-0.5 230,-0.5"/>
<text text-anchor="middle" x="281" y="-7.5" font-family="Helvetica,sans-Serif" font-size="10.00">src/ui/TextArea.cpp</text>
</a>
</g>
</g>
<!-- Node17&#45;&gt;Node21 -->
<g id="edge28" class="edge"><title>Node17&#45;&gt;Node21</title>
<path fill="none" stroke="midnightblue" d="M281,-45.8045C281,-36.9102 281,-26.7798 281,-19.7511"/>
<polygon fill="midnightblue" stroke="midnightblue" points="277.5,-46.083 281,-56.083 284.5,-46.083 277.5,-46.083"/>
</g>
<!-- Node27&#45;&gt;Node7 -->
<g id="edge40" class="edge"><title>Node27&#45;&gt;Node7</title>
<path fill="none" stroke="midnightblue" d="M662.983,-275.667C650.009,-268.348 636.279,-257.892 629,-244 614.184,-215.723 656.135,-170.072 659,-168 692.308,-143.91 807.57,-131.359 871.835,-126.094"/>
<polygon fill="midnightblue" stroke="midnightblue" points="661.704,-278.947 672.192,-280.447 664.928,-272.734 661.704,-278.947"/>
</g>
<!-- Node28 -->
<g id="node28" class="node"><title>Node28</title>
<g id="a_node28"><a xlink:href="GProcess_8cpp_source.html" target="_top" xlink:title="src/gfx/GProcess.cpp">
<polygon fill="white" stroke="black" points="638,-224.5 638,-243.5 750,-243.5 750,-224.5 638,-224.5"/>
<text text-anchor="middle" x="694" y="-231.5" font-family="Helvetica,sans-Serif" font-size="10.00">src/gfx/GProcess.cpp</text>
</a>
</g>
</g>
<!-- Node27&#45;&gt;Node28 -->
<g id="edge41" class="edge"><title>Node27&#45;&gt;Node28</title>
<path fill="none" stroke="midnightblue" d="M694,-269.805C694,-260.91 694,-250.78 694,-243.751"/>
<polygon fill="midnightblue" stroke="midnightblue" points="690.5,-270.083 694,-280.083 697.5,-270.083 690.5,-270.083"/>
</g>
<!-- Node29&#45;&gt;Node11 -->
<g id="edge46" class="edge"><title>Node29&#45;&gt;Node11</title>
<path fill="none" stroke="midnightblue" d="M565.249,-164.772C591.171,-154.629 627.362,-140.467 650.236,-131.516"/>
<polygon fill="midnightblue" stroke="midnightblue" points="563.904,-161.54 555.867,-168.444 566.454,-168.059 563.904,-161.54"/>
</g>
<!-- Node30 -->
<g id="node30" class="node"><title>Node30</title>
<g id="a_node30"><a xlink:href="TreeArea_8h_source.html" target="_top" xlink:title="headers/TreeArea.h">
<polygon fill="white" stroke="black" points="369,-112.5 369,-131.5 471,-131.5 471,-112.5 369,-112.5"/>
<text text-anchor="middle" x="420" y="-119.5" font-family="Helvetica,sans-Serif" font-size="10.00">headers/TreeArea.h</text>
</a>
</g>
</g>
<!-- Node29&#45;&gt;Node30 -->
<g id="edge43" class="edge"><title>Node29&#45;&gt;Node30</title>
<path fill="none" stroke="midnightblue" d="M506.758,-164.096C485.46,-154.007 456.458,-140.27 437.979,-131.516"/>
<polygon fill="midnightblue" stroke="midnightblue" points="505.401,-167.326 515.936,-168.444 508.397,-161 505.401,-167.326"/>
</g>
<!-- Node32 -->
<g id="node32" class="node"><title>Node32</title>
<g id="a_node32"><a xlink:href="MyArea_8cpp_source.html" target="_top" xlink:title="src/ui/MyArea.cpp">
<polygon fill="white" stroke="black" points="489,-112.5 489,-131.5 585,-131.5 585,-112.5 489,-112.5"/>
<text text-anchor="middle" x="537" y="-119.5" font-family="Helvetica,sans-Serif" font-size="10.00">src/ui/MyArea.cpp</text>
</a>
</g>
</g>
<!-- Node29&#45;&gt;Node32 -->
<g id="edge47" class="edge"><title>Node29&#45;&gt;Node32</title>
<path fill="none" stroke="midnightblue" d="M535.066,-157.805C535.561,-148.91 536.123,-138.78 536.514,-131.751"/>
<polygon fill="midnightblue" stroke="midnightblue" points="531.556,-157.904 534.495,-168.083 538.545,-158.293 531.556,-157.904"/>
</g>
<!-- Node30&#45;&gt;Node12 -->
<g id="edge44" class="edge"><title>Node30&#45;&gt;Node12</title>
<path fill="none" stroke="midnightblue" d="M442.194,-106.901C457.78,-96.9986 478.13,-84.0705 491.377,-75.6545"/>
<polygon fill="midnightblue" stroke="midnightblue" points="440.221,-104.007 433.657,-112.324 443.974,-109.916 440.221,-104.007"/>
</g>
<!-- Node31 -->
<g id="node31" class="node"><title>Node31</title>
<g id="a_node31"><a xlink:href="TreeArea_8cpp_source.html" target="_top" xlink:title="src/ui/TreeArea.cpp">
<polygon fill="white" stroke="black" points="343,-56.5 343,-75.5 445,-75.5 445,-56.5 343,-56.5"/>
<text text-anchor="middle" x="394" y="-63.5" font-family="Helvetica,sans-Serif" font-size="10.00">src/ui/TreeArea.cpp</text>
</a>
</g>
</g>
<!-- Node30&#45;&gt;Node31 -->
<g id="edge45" class="edge"><title>Node30&#45;&gt;Node31</title>
<path fill="none" stroke="midnightblue" d="M411.325,-102.983C406.912,-93.8168 401.748,-83.0922 398.213,-75.7511"/>
<polygon fill="midnightblue" stroke="midnightblue" points="408.215,-104.591 415.707,-112.083 414.522,-101.555 408.215,-104.591"/>
</g>
</g>
</svg>
