<?xml version="1.0" encoding="UTF-8" standalone="no"?>
<!DOCTYPE svg PUBLIC "-//W3C//DTD SVG 1.1//EN"
 "http://www.w3.org/Graphics/SVG/1.1/DTD/svg11.dtd">
<!-- Generated by graphviz version 2.38.0 (20140413.2041)
 -->
<!-- Title: headers/GVSkeletonGraph.h Pages: 1 -->
<svg width="1471pt" height="420pt"
 viewBox="0.00 0.00 1470.89 420.00" xmlns="http://www.w3.org/2000/svg" xmlns:xlink="http://www.w3.org/1999/xlink">
<g id="graph0" class="graph" transform="scale(1 1) rotate(0) translate(4 416)">
<title>headers/GVSkeletonGraph.h</title>
<polygon fill="white" stroke="none" points="-4,4 -4,-416 1466.89,-416 1466.89,4 -4,4"/>
<!-- Node1 -->
<g id="node1" class="node"><title>Node1</title>
<polygon fill="#bfbfbf" stroke="black" points="1212.39,-392.5 1212.39,-411.5 1353.39,-411.5 1353.39,-392.5 1212.39,-392.5"/>
<text text-anchor="middle" x="1282.89" y="-399.5" font-family="Helvetica,sans-Serif" font-size="10.00">headers/GVSkeletonGraph.h</text>
</g>
<!-- Node2 -->
<g id="node2" class="node"><title>Node2</title>
<g id="a_node2"><a xlink:href="PH_8h.html" target="_top" xlink:title="header for the PH class ">
<polygon fill="white" stroke="black" points="506.387,-336.5 506.387,-355.5 583.387,-355.5 583.387,-336.5 506.387,-336.5"/>
<text text-anchor="middle" x="544.887" y="-343.5" font-family="Helvetica,sans-Serif" font-size="10.00">headers/PH.h</text>
</a>
</g>
</g>
<!-- Node1&#45;&gt;Node2 -->
<g id="edge1" class="edge"><title>Node1&#45;&gt;Node2</title>
<path fill="none" stroke="midnightblue" d="M1201.99,-395.08C1043.92,-383.515 699.415,-358.307 583.688,-349.839"/>
<polygon fill="midnightblue" stroke="midnightblue" points="1201.9,-398.583 1212.12,-395.822 1202.41,-391.602 1201.9,-398.583"/>
</g>
<!-- Node21 -->
<g id="node21" class="node"><title>Node21</title>
<g id="a_node21"><a xlink:href="PH_8cpp_source.html" target="_top" xlink:title="src/ph/PH.cpp">
<polygon fill="white" stroke="black" points="1234.89,-56.5 1234.89,-75.5 1314.89,-75.5 1314.89,-56.5 1234.89,-56.5"/>
<text text-anchor="middle" x="1274.89" y="-63.5" font-family="Helvetica,sans-Serif" font-size="10.00">src/ph/PH.cpp</text>
</a>
</g>
</g>
<!-- Node1&#45;&gt;Node21 -->
<g id="edge53" class="edge"><title>Node1&#45;&gt;Node21</title>
<path fill="none" stroke="midnightblue" d="M1282.89,-382.251C1282.89,-360.357 1282.89,-323.052 1282.89,-291 1282.89,-291 1282.89,-291 1282.89,-177 1282.89,-139.088 1278.1,-94.0183 1275.93,-75.5424"/>
<polygon fill="midnightblue" stroke="midnightblue" points="1279.39,-382.442 1282.89,-392.442 1286.39,-382.442 1279.39,-382.442"/>
</g>
<!-- Node32 -->
<g id="node32" class="node"><title>Node32</title>
<g id="a_node32"><a xlink:href="GVSkeletonGraph_8cpp_source.html" target="_top" xlink:title="src/gviz/GVSkeletonGraph.cpp">
<polygon fill="white" stroke="black" points="1310.89,-336.5 1310.89,-355.5 1462.89,-355.5 1462.89,-336.5 1310.89,-336.5"/>
<text text-anchor="middle" x="1386.89" y="-343.5" font-family="Helvetica,sans-Serif" font-size="10.00">src/gviz/GVSkeletonGraph.cpp</text>
</a>
</g>
</g>
<!-- Node1&#45;&gt;Node32 -->
<g id="edge52" class="edge"><title>Node1&#45;&gt;Node32</title>
<path fill="none" stroke="midnightblue" d="M1308.71,-387.59C1327.94,-377.605 1353.63,-364.267 1370.22,-355.655"/>
<polygon fill="midnightblue" stroke="midnightblue" points="1306.86,-384.61 1299.6,-392.324 1310.08,-390.822 1306.86,-384.61"/>
</g>
<!-- Node3 -->
<g id="node3" class="node"><title>Node3</title>
<g id="a_node3"><a xlink:href="Action_8h.html" target="_top" xlink:title="header for the Action class ">
<polygon fill="white" stroke="black" points="255.887,-280.5 255.887,-299.5 345.887,-299.5 345.887,-280.5 255.887,-280.5"/>
<text text-anchor="middle" x="300.887" y="-287.5" font-family="Helvetica,sans-Serif" font-size="10.00">headers/Action.h</text>
</a>
</g>
</g>
<!-- Node2&#45;&gt;Node3 -->
<g id="edge2" class="edge"><title>Node2&#45;&gt;Node3</title>
<path fill="none" stroke="midnightblue" d="M496.528,-335.469C448.525,-325.29 376.381,-309.309 334.353,-299.531"/>
<polygon fill="midnightblue" stroke="midnightblue" points="495.878,-338.909 506.385,-337.548 497.323,-332.059 495.878,-338.909"/>
</g>
<!-- Node8 -->
<g id="node8" class="node"><title>Node8</title>
<g id="a_node8"><a xlink:href="PHScene_8cpp_source.html" target="_top" xlink:title="src/gfx/PHScene.cpp">
<polygon fill="white" stroke="black" points="245.887,-112.5 245.887,-131.5 355.887,-131.5 355.887,-112.5 245.887,-112.5"/>
<text text-anchor="middle" x="300.887" y="-119.5" font-family="Helvetica,sans-Serif" font-size="10.00">src/gfx/PHScene.cpp</text>
</a>
</g>
</g>
<!-- Node2&#45;&gt;Node8 -->
<g id="edge48" class="edge"><title>Node2&#45;&gt;Node8</title>
<path fill="none" stroke="midnightblue" d="M529.692,-328.93C499.138,-296.933 427.557,-223.556 361.887,-168 345.812,-154.4 326.002,-140.222 313.406,-131.501"/>
<polygon fill="midnightblue" stroke="midnightblue" points="527.44,-331.64 536.867,-336.475 532.512,-326.816 527.44,-331.64"/>
</g>
<!-- Node15 -->
<g id="node15" class="node"><title>Node15</title>
<g id="a_node15"><a xlink:href="TikzEditor_8cpp_source.html" target="_top" xlink:title="src/ui/TikzEditor.cpp">
<polygon fill="white" stroke="black" points="406.387,-0.5 406.387,-19.5 513.387,-19.5 513.387,-0.5 406.387,-0.5"/>
<text text-anchor="middle" x="459.887" y="-7.5" font-family="Helvetica,sans-Serif" font-size="10.00">src/ui/TikzEditor.cpp</text>
</a>
</g>
</g>
<!-- Node2&#45;&gt;Node15 -->
<g id="edge51" class="edge"><title>Node2&#45;&gt;Node15</title>
<path fill="none" stroke="midnightblue" d="M545.647,-326.112C546.354,-292.996 545.053,-222.775 524.887,-168 507.852,-121.729 478.377,-122.811 462.887,-76 456.499,-56.6953 457.611,-32.4028 458.834,-19.6806"/>
<polygon fill="midnightblue" stroke="midnightblue" points="542.146,-326.09 545.34,-336.191 549.143,-326.303 542.146,-326.09"/>
</g>
<!-- Node16 -->
<g id="node16" class="node"><title>Node16</title>
<g id="a_node16"><a xlink:href="PHIO_8h.html" target="_top" xlink:title="header for the PHIO class ">
<polygon fill="white" stroke="black" points="971.387,-56.5 971.387,-75.5 1058.39,-75.5 1058.39,-56.5 971.387,-56.5"/>
<text text-anchor="middle" x="1014.89" y="-63.5" font-family="Helvetica,sans-Serif" font-size="10.00">headers/PHIO.h</text>
</a>
</g>
</g>
<!-- Node2&#45;&gt;Node16 -->
<g id="edge47" class="edge"><title>Node2&#45;&gt;Node16</title>
<path fill="none" stroke="midnightblue" d="M593.958,-343.703C713.28,-339.221 1008.89,-319.582 1008.89,-235 1008.89,-235 1008.89,-235 1008.89,-177 1008.89,-139.131 1012.48,-94.0381 1014.1,-75.5491"/>
<polygon fill="midnightblue" stroke="midnightblue" points="593.519,-340.216 583.649,-344.068 593.767,-347.211 593.519,-340.216"/>
</g>
<!-- Node18 -->
<g id="node18" class="node"><title>Node18</title>
<g id="a_node18"><a xlink:href="Main2_8cpp_source.html" target="_top" xlink:title="src/Main2.cpp">
<polygon fill="white" stroke="black" points="1328.89,-0.5 1328.89,-19.5 1406.89,-19.5 1406.89,-0.5 1328.89,-0.5"/>
<text text-anchor="middle" x="1367.89" y="-7.5" font-family="Helvetica,sans-Serif" font-size="10.00">src/Main2.cpp</text>
</a>
</g>
</g>
<!-- Node2&#45;&gt;Node18 -->
<g id="edge49" class="edge"><title>Node2&#45;&gt;Node18</title>
<path fill="none" stroke="midnightblue" d="M593.893,-342.032C747.102,-332.106 1206.89,-297.141 1206.89,-235 1206.89,-235 1206.89,-235 1206.89,-121 1206.89,-90.9022 1204.85,-77.5205 1225.89,-56 1240.31,-41.2533 1291.88,-27.4139 1328.71,-19.0758"/>
<polygon fill="midnightblue" stroke="midnightblue" points="593.582,-338.545 583.827,-342.677 594.03,-345.53 593.582,-338.545"/>
</g>
<!-- Node2&#45;&gt;Node21 -->
<g id="edge50" class="edge"><title>Node2&#45;&gt;Node21</title>
<path fill="none" stroke="midnightblue" d="M593.685,-344.775C740.476,-343.683 1170.97,-337.302 1220.89,-300 1245.55,-281.565 1244.89,-265.795 1244.89,-235 1244.89,-235 1244.89,-235 1244.89,-177 1244.89,-138.004 1262.65,-93.8859 1270.84,-75.6212"/>
<polygon fill="midnightblue" stroke="midnightblue" points="593.59,-341.275 583.615,-344.845 593.639,-348.275 593.59,-341.275"/>
</g>
<!-- Node26 -->
<g id="node26" class="node"><title>Node26</title>
<g id="a_node26"><a xlink:href="GProcess_8h.html" target="_top" xlink:title="header for the GProcess class ">
<polygon fill="white" stroke="black" points="14.887,-280.5 14.887,-299.5 120.887,-299.5 120.887,-280.5 14.887,-280.5"/>
<text text-anchor="middle" x="67.887" y="-287.5" font-family="Helvetica,sans-Serif" font-size="10.00">headers/GProcess.h</text>
</a>
</g>
</g>
<!-- Node2&#45;&gt;Node26 -->
<g id="edge38" class="edge"><title>Node2&#45;&gt;Node26</title>
<path fill="none" stroke="midnightblue" d="M496.048,-339.471C405.989,-329.276 214.458,-307.593 121.171,-297.032"/>
<polygon fill="midnightblue" stroke="midnightblue" points="495.926,-342.98 506.256,-340.627 496.713,-336.024 495.926,-342.98"/>
</g>
<!-- Node28 -->
<g id="node28" class="node"><title>Node28</title>
<g id="a_node28"><a xlink:href="MyArea_8h.html" target="_top" xlink:title="header for the MyArea class ">
<polygon fill="white" stroke="black" points="702.887,-168.5 702.887,-187.5 798.887,-187.5 798.887,-168.5 702.887,-168.5"/>
<text text-anchor="middle" x="750.887" y="-175.5" font-family="Helvetica,sans-Serif" font-size="10.00">headers/MyArea.h</text>
</a>
</g>
</g>
<!-- Node2&#45;&gt;Node28 -->
<g id="edge41" class="edge"><title>Node2&#45;&gt;Node28</title>
<path fill="none" stroke="midnightblue" d="M563.485,-330.014C605.576,-296.095 707.051,-214.324 740.208,-187.605"/>
<polygon fill="midnightblue" stroke="midnightblue" points="561.263,-327.309 555.672,-336.309 565.655,-332.76 561.263,-327.309"/>
</g>
<!-- Node3&#45;&gt;Node2 -->
<g id="edge3" class="edge"><title>Node3&#45;&gt;Node2</title>
<path fill="none" stroke="midnightblue" d="M354.327,-301.611C402.176,-311.802 470.729,-327.004 511.313,-336.444"/>
<polygon fill="midnightblue" stroke="midnightblue" points="354.957,-298.167 344.449,-299.516 353.505,-305.015 354.957,-298.167"/>
</g>
<!-- Node4 -->
<g id="node4" class="node"><title>Node4</title>
<g id="a_node4"><a xlink:href="GAction_8h.html" target="_top" xlink:title="header for the GAction class ">
<polygon fill="white" stroke="black" points="251.887,-224.5 251.887,-243.5 349.887,-243.5 349.887,-224.5 251.887,-224.5"/>
<text text-anchor="middle" x="300.887" y="-231.5" font-family="Helvetica,sans-Serif" font-size="10.00">headers/GAction.h</text>
</a>
</g>
</g>
<!-- Node3&#45;&gt;Node4 -->
<g id="edge4" class="edge"><title>Node3&#45;&gt;Node4</title>
<path fill="none" stroke="midnightblue" d="M294.415,-270.101C293.783,-261.136 294.23,-250.858 295.756,-243.751"/>
<polygon fill="midnightblue" stroke="midnightblue" points="290.953,-270.622 295.721,-280.083 297.894,-269.713 290.953,-270.622"/>
</g>
<!-- Node25 -->
<g id="node25" class="node"><title>Node25</title>
<g id="a_node25"><a xlink:href="Action_8cpp_source.html" target="_top" xlink:title="src/ph/Action.cpp">
<polygon fill="white" stroke="black" points="141.387,-224.5 141.387,-243.5 234.387,-243.5 234.387,-224.5 141.387,-224.5"/>
<text text-anchor="middle" x="187.887" y="-231.5" font-family="Helvetica,sans-Serif" font-size="10.00">src/ph/Action.cpp</text>
</a>
</g>
</g>
<!-- Node3&#45;&gt;Node25 -->
<g id="edge37" class="edge"><title>Node3&#45;&gt;Node25</title>
<path fill="none" stroke="midnightblue" d="M273.884,-276.096C252.773,-266.007 224.025,-252.27 205.708,-243.516"/>
<polygon fill="midnightblue" stroke="midnightblue" points="272.45,-279.29 282.982,-280.444 275.468,-272.974 272.45,-279.29"/>
</g>
<!-- Node4&#45;&gt;Node3 -->
<g id="edge12" class="edge"><title>Node4&#45;&gt;Node3</title>
<path fill="none" stroke="midnightblue" d="M307.344,-253.691C307.993,-262.635 307.563,-272.927 306.053,-280.083"/>
<polygon fill="midnightblue" stroke="midnightblue" points="310.81,-253.2 306.018,-243.751 303.872,-254.126 310.81,-253.2"/>
</g>
<!-- Node5 -->
<g id="node5" class="node"><title>Node5</title>
<g id="a_node5"><a xlink:href="PHScene_8h.html" target="_top" xlink:title="header for the PHScene class ">
<polygon fill="white" stroke="black" points="248.887,-168.5 248.887,-187.5 352.887,-187.5 352.887,-168.5 248.887,-168.5"/>
<text text-anchor="middle" x="300.887" y="-175.5" font-family="Helvetica,sans-Serif" font-size="10.00">headers/PHScene.h</text>
</a>
</g>
</g>
<!-- Node4&#45;&gt;Node5 -->
<g id="edge5" class="edge"><title>Node4&#45;&gt;Node5</title>
<path fill="none" stroke="midnightblue" d="M294.415,-214.101C293.783,-205.136 294.23,-194.858 295.756,-187.751"/>
<polygon fill="midnightblue" stroke="midnightblue" points="290.953,-214.622 295.721,-224.083 297.894,-213.713 290.953,-214.622"/>
</g>
<!-- Node9 -->
<g id="node9" class="node"><title>Node9</title>
<g id="a_node9"><a xlink:href="TikzEditor_8h_source.html" target="_top" xlink:title="headers/TikzEditor.h">
<polygon fill="white" stroke="black" points="409.387,-168.5 409.387,-187.5 516.387,-187.5 516.387,-168.5 409.387,-168.5"/>
<text text-anchor="middle" x="462.887" y="-175.5" font-family="Helvetica,sans-Serif" font-size="10.00">headers/TikzEditor.h</text>
</a>
</g>
</g>
<!-- Node4&#45;&gt;Node9 -->
<g id="edge13" class="edge"><title>Node4&#45;&gt;Node9</title>
<path fill="none" stroke="midnightblue" d="M336.371,-221.172C366.875,-211.004 410.132,-196.585 437.338,-187.516"/>
<polygon fill="midnightblue" stroke="midnightblue" points="334.936,-217.961 326.556,-224.444 337.15,-224.602 334.936,-217.961"/>
</g>
<!-- Node24 -->
<g id="node24" class="node"><title>Node24</title>
<g id="a_node24"><a xlink:href="GAction_8cpp_source.html" target="_top" xlink:title="src/gfx/GAction.cpp">
<polygon fill="white" stroke="black" points="126.887,-168.5 126.887,-187.5 230.887,-187.5 230.887,-168.5 126.887,-168.5"/>
<text text-anchor="middle" x="178.887" y="-175.5" font-family="Helvetica,sans-Serif" font-size="10.00">src/gfx/GAction.cpp</text>
</a>
</g>
</g>
<!-- Node4&#45;&gt;Node24 -->
<g id="edge36" class="edge"><title>Node4&#45;&gt;Node24</title>
<path fill="none" stroke="midnightblue" d="M272.347,-220.368C249.501,-210.255 218.082,-196.349 198.128,-187.516"/>
<polygon fill="midnightblue" stroke="midnightblue" points="270.995,-223.597 281.556,-224.444 273.828,-217.196 270.995,-223.597"/>
</g>
<!-- Node5&#45;&gt;Node2 -->
<g id="edge6" class="edge"><title>Node5&#45;&gt;Node2</title>
<path fill="none" stroke="midnightblue" d="M323.363,-193.271C334.907,-201.34 348.658,-212.169 358.887,-224 384.27,-253.358 371.719,-275.585 401.887,-300 431.93,-324.314 475.237,-335.562 506.31,-340.721"/>
<polygon fill="midnightblue" stroke="midnightblue" points="325.306,-190.36 315.059,-187.668 321.391,-196.163 325.306,-190.36"/>
</g>
<!-- Node5&#45;&gt;Node4 -->
<g id="edge7" class="edge"><title>Node5&#45;&gt;Node4</title>
<path fill="none" stroke="midnightblue" d="M307.344,-197.691C307.993,-206.635 307.563,-216.927 306.053,-224.083"/>
<polygon fill="midnightblue" stroke="midnightblue" points="310.81,-197.2 306.018,-187.751 303.872,-198.126 310.81,-197.2"/>
</g>
<!-- Node6 -->
<g id="node6" class="node"><title>Node6</title>
<g id="a_node6"><a xlink:href="GSort_8h.html" target="_top" xlink:title="header for the GSort class ">
<polygon fill="white" stroke="black" points="54.887,-112.5 54.887,-131.5 142.887,-131.5 142.887,-112.5 54.887,-112.5"/>
<text text-anchor="middle" x="98.887" y="-119.5" font-family="Helvetica,sans-Serif" font-size="10.00">headers/GSort.h</text>
</a>
</g>
</g>
<!-- Node5&#45;&gt;Node6 -->
<g id="edge8" class="edge"><title>Node5&#45;&gt;Node6</title>
<path fill="none" stroke="midnightblue" d="M259.099,-165.829C220.96,-155.633 165.406,-140.782 130.745,-131.516"/>
<polygon fill="midnightblue" stroke="midnightblue" points="258.315,-169.242 268.879,-168.444 260.123,-162.48 258.315,-169.242"/>
</g>
<!-- Node5&#45;&gt;Node8 -->
<g id="edge11" class="edge"><title>Node5&#45;&gt;Node8</title>
<path fill="none" stroke="midnightblue" d="M300.887,-157.805C300.887,-148.91 300.887,-138.78 300.887,-131.751"/>
<polygon fill="midnightblue" stroke="midnightblue" points="297.387,-158.083 300.887,-168.083 304.387,-158.083 297.387,-158.083"/>
</g>
<!-- Node6&#45;&gt;Node4 -->
<g id="edge9" class="edge"><title>Node6&#45;&gt;Node4</title>
<path fill="none" stroke="midnightblue" d="M99.5058,-141.885C101.007,-156.451 105.425,-176.066 117.887,-188 127.93,-197.617 205.334,-214.306 256.206,-224.433"/>
<polygon fill="midnightblue" stroke="midnightblue" points="102.974,-141.28 98.8293,-131.529 95.9887,-141.736 102.974,-141.28"/>
</g>
<!-- Node7 -->
<g id="node7" class="node"><title>Node7</title>
<g id="a_node7"><a xlink:href="GSort_8cpp_source.html" target="_top" xlink:title="src/gfx/GSort.cpp">
<polygon fill="white" stroke="black" points="51.887,-56.5 51.887,-75.5 145.887,-75.5 145.887,-56.5 51.887,-56.5"/>
<text text-anchor="middle" x="98.887" y="-63.5" font-family="Helvetica,sans-Serif" font-size="10.00">src/gfx/GSort.cpp</text>
</a>
</g>
</g>
<!-- Node6&#45;&gt;Node7 -->
<g id="edge10" class="edge"><title>Node6&#45;&gt;Node7</title>
<path fill="none" stroke="midnightblue" d="M98.887,-101.805C98.887,-92.9102 98.887,-82.7798 98.887,-75.7511"/>
<polygon fill="midnightblue" stroke="midnightblue" points="95.3871,-102.083 98.887,-112.083 102.387,-102.083 95.3871,-102.083"/>
</g>
<!-- Node10 -->
<g id="node10" class="node"><title>Node10</title>
<g id="a_node10"><a xlink:href="MainWindow_8h.html" target="_top" xlink:title="header for the Main class ">
<polygon fill="white" stroke="black" points="615.387,-112.5 615.387,-131.5 734.387,-131.5 734.387,-112.5 615.387,-112.5"/>
<text text-anchor="middle" x="674.887" y="-119.5" font-family="Helvetica,sans-Serif" font-size="10.00">headers/MainWindow.h</text>
</a>
</g>
</g>
<!-- Node9&#45;&gt;Node10 -->
<g id="edge14" class="edge"><title>Node9&#45;&gt;Node10</title>
<path fill="none" stroke="midnightblue" d="M506.233,-165.959C546.274,-155.76 604.92,-140.822 641.452,-131.516"/>
<polygon fill="midnightblue" stroke="midnightblue" points="505.306,-162.583 496.479,-168.444 507.034,-169.367 505.306,-162.583"/>
</g>
<!-- Node9&#45;&gt;Node15 -->
<g id="edge35" class="edge"><title>Node9&#45;&gt;Node15</title>
<path fill="none" stroke="midnightblue" d="M450.271,-160.188C436.728,-140.995 416.058,-108.092 407.887,-76 405.694,-67.386 404.192,-64.0844 407.887,-56 415.282,-39.821 431.684,-27.2312 444.104,-19.5333"/>
<polygon fill="midnightblue" stroke="midnightblue" points="447.556,-162.406 456.261,-168.445 453.222,-158.295 447.556,-162.406"/>
</g>
<!-- Node11 -->
<g id="node11" class="node"><title>Node11</title>
<g id="a_node11"><a xlink:href="Area_8h_source.html" target="_top" xlink:title="headers/Area.h">
<polygon fill="white" stroke="black" points="870.387,-56.5 870.387,-75.5 953.387,-75.5 953.387,-56.5 870.387,-56.5"/>
<text text-anchor="middle" x="911.887" y="-63.5" font-family="Helvetica,sans-Serif" font-size="10.00">headers/Area.h</text>
</a>
</g>
</g>
<!-- Node10&#45;&gt;Node11 -->
<g id="edge15" class="edge"><title>Node10&#45;&gt;Node11</title>
<path fill="none" stroke="midnightblue" d="M722.211,-110.217C766.995,-100.013 833.323,-84.9006 874.509,-75.5164"/>
<polygon fill="midnightblue" stroke="midnightblue" points="721.413,-106.809 712.44,-112.444 722.968,-113.634 721.413,-106.809"/>
</g>
<!-- Node14 -->
<g id="node14" class="node"><title>Node14</title>
<g id="a_node14"><a xlink:href="MainWindow_8cpp_source.html" target="_top" xlink:title="src/ui/MainWindow.cpp">
<polygon fill="white" stroke="black" points="640.387,-0.5 640.387,-19.5 759.387,-19.5 759.387,-0.5 640.387,-0.5"/>
<text text-anchor="middle" x="699.887" y="-7.5" font-family="Helvetica,sans-Serif" font-size="10.00">src/ui/MainWindow.cpp</text>
</a>
</g>
</g>
<!-- Node10&#45;&gt;Node14 -->
<g id="edge33" class="edge"><title>Node10&#45;&gt;Node14</title>
<path fill="none" stroke="midnightblue" d="M663.882,-103.393C657.041,-90.1151 650.636,-71.5892 656.887,-56 663,-40.755 677.013,-27.7492 687.39,-19.698"/>
<polygon fill="midnightblue" stroke="midnightblue" points="661.011,-105.424 668.996,-112.388 667.096,-101.965 661.011,-105.424"/>
</g>
<!-- Node10&#45;&gt;Node15 -->
<g id="edge34" class="edge"><title>Node10&#45;&gt;Node15</title>
<path fill="none" stroke="midnightblue" d="M604.963,-112.494C556.331,-105.212 497.088,-93.1625 478.887,-76 462.977,-60.9975 460.156,-33.4825 459.803,-19.5569"/>
<polygon fill="midnightblue" stroke="midnightblue" points="604.761,-116.002 615.161,-113.976 605.768,-109.074 604.761,-116.002"/>
</g>
<!-- Node10&#45;&gt;Node16 -->
<g id="edge20" class="edge"><title>Node10&#45;&gt;Node16</title>
<path fill="none" stroke="midnightblue" d="M740.636,-110.933C798.831,-101.965 886.052,-88.3835 961.887,-76 964.927,-75.5036 968.063,-74.9857 971.222,-74.46"/>
<polygon fill="midnightblue" stroke="midnightblue" points="739.827,-107.517 730.476,-112.498 740.892,-114.435 739.827,-107.517"/>
</g>
<!-- Node17 -->
<g id="node17" class="node"><title>Node17</title>
<g id="a_node17"><a xlink:href="Main_8cpp.html" target="_top" xlink:title="Principal Program. ">
<polygon fill="white" stroke="black" points="777.387,-0.5 777.387,-19.5 850.387,-19.5 850.387,-0.5 777.387,-0.5"/>
<text text-anchor="middle" x="813.887" y="-7.5" font-family="Helvetica,sans-Serif" font-size="10.00">src/Main.cpp</text>
</a>
</g>
</g>
<!-- Node10&#45;&gt;Node17 -->
<g id="edge29" class="edge"><title>Node10&#45;&gt;Node17</title>
<path fill="none" stroke="midnightblue" d="M734.271,-110.39C770.528,-102.568 811.961,-90.7421 822.887,-76 835.369,-59.1591 825.258,-32.9479 818.584,-19.5362"/>
<polygon fill="midnightblue" stroke="midnightblue" points="733.286,-107.02 724.212,-112.489 734.716,-113.873 733.286,-107.02"/>
</g>
<!-- Node10&#45;&gt;Node21 -->
<g id="edge30" class="edge"><title>Node10&#45;&gt;Node21</title>
<path fill="none" stroke="midnightblue" d="M744.84,-111.949C942.471,-91.2841 994.016,-93.8852 1187.89,-76 1203.16,-74.5911 1219.92,-72.8931 1234.62,-71.3533"/>
<polygon fill="midnightblue" stroke="midnightblue" points="744.284,-108.489 734.705,-113.016 745.016,-115.45 744.284,-108.489"/>
</g>
<!-- Node22 -->
<g id="node22" class="node"><title>Node22</title>
<g id="a_node22"><a xlink:href="ConnectionSettings_8cpp_source.html" target="_top" xlink:title="src/ui/ConnectionSettings.cpp">
<polygon fill="white" stroke="black" points="665.887,-56.5 665.887,-75.5 813.887,-75.5 813.887,-56.5 665.887,-56.5"/>
<text text-anchor="middle" x="739.887" y="-63.5" font-family="Helvetica,sans-Serif" font-size="10.00">src/ui/ConnectionSettings.cpp</text>
</a>
</g>
</g>
<!-- Node10&#45;&gt;Node22 -->
<g id="edge31" class="edge"><title>Node10&#45;&gt;Node22</title>
<path fill="none" stroke="midnightblue" d="M693.16,-105.82C704.805,-96.1452 719.486,-83.9481 729.254,-75.8339"/>
<polygon fill="midnightblue" stroke="midnightblue" points="690.786,-103.242 685.33,-112.324 695.259,-108.626 690.786,-103.242"/>
</g>
<!-- Node23 -->
<g id="node23" class="node"><title>Node23</title>
<g id="a_node23"><a xlink:href="FunctionForm_8cpp_source.html" target="_top" xlink:title="src/ui/FunctionForm.cpp">
<polygon fill="white" stroke="black" points="487.887,-56.5 487.887,-75.5 609.887,-75.5 609.887,-56.5 487.887,-56.5"/>
<text text-anchor="middle" x="548.887" y="-63.5" font-family="Helvetica,sans-Serif" font-size="10.00">src/ui/FunctionForm.cpp</text>
</a>
</g>
</g>
<!-- Node10&#45;&gt;Node23 -->
<g id="edge32" class="edge"><title>Node10&#45;&gt;Node23</title>
<path fill="none" stroke="midnightblue" d="M645.727,-108.503C622.106,-98.3795 589.459,-84.388 568.759,-75.5164"/>
<polygon fill="midnightblue" stroke="midnightblue" points="644.352,-111.721 654.922,-112.444 647.109,-105.287 644.352,-111.721"/>
</g>
<!-- Node12 -->
<g id="node12" class="node"><title>Node12</title>
<g id="a_node12"><a xlink:href="PHIO_8cpp_source.html" target="_top" xlink:title="src/io/PHIO.cpp">
<polygon fill="white" stroke="black" points="868.387,-0.5 868.387,-19.5 955.387,-19.5 955.387,-0.5 868.387,-0.5"/>
<text text-anchor="middle" x="911.887" y="-7.5" font-family="Helvetica,sans-Serif" font-size="10.00">src/io/PHIO.cpp</text>
</a>
</g>
</g>
<!-- Node11&#45;&gt;Node12 -->
<g id="edge16" class="edge"><title>Node11&#45;&gt;Node12</title>
<path fill="none" stroke="midnightblue" d="M911.887,-45.8045C911.887,-36.9102 911.887,-26.7798 911.887,-19.7511"/>
<polygon fill="midnightblue" stroke="midnightblue" points="908.387,-46.083 911.887,-56.083 915.387,-46.083 908.387,-46.083"/>
</g>
<!-- Node13 -->
<g id="node13" class="node"><title>Node13</title>
<g id="a_node13"><a xlink:href="Area_8cpp_source.html" target="_top" xlink:title="src/ui/Area.cpp">
<polygon fill="white" stroke="black" points="973.387,-0.5 973.387,-19.5 1056.39,-19.5 1056.39,-0.5 973.387,-0.5"/>
<text text-anchor="middle" x="1014.89" y="-7.5" font-family="Helvetica,sans-Serif" font-size="10.00">src/ui/Area.cpp</text>
</a>
</g>
</g>
<!-- Node11&#45;&gt;Node13 -->
<g id="edge17" class="edge"><title>Node11&#45;&gt;Node13</title>
<path fill="none" stroke="midnightblue" d="M937.466,-51.5895C956.51,-41.6052 981.951,-28.2672 998.379,-19.6545"/>
<polygon fill="midnightblue" stroke="midnightblue" points="935.667,-48.5808 928.436,-56.324 938.918,-54.7805 935.667,-48.5808"/>
</g>
<!-- Node11&#45;&gt;Node14 -->
<g id="edge18" class="edge"><title>Node11&#45;&gt;Node14</title>
<path fill="none" stroke="midnightblue" d="M868.541,-53.959C828.5,-43.7598 769.854,-28.8217 733.322,-19.5164"/>
<polygon fill="midnightblue" stroke="midnightblue" points="867.74,-57.3668 878.295,-56.4435 869.468,-50.5834 867.74,-57.3668"/>
</g>
<!-- Node11&#45;&gt;Node15 -->
<g id="edge19" class="edge"><title>Node11&#45;&gt;Node15</title>
<path fill="none" stroke="midnightblue" d="M860.081,-58.8108C773.724,-48.4938 601.201,-27.8827 513.596,-17.4166"/>
<polygon fill="midnightblue" stroke="midnightblue" points="859.829,-62.3055 870.174,-60.0166 860.66,-55.355 859.829,-62.3055"/>
</g>
<!-- Node16&#45;&gt;Node12 -->
<g id="edge21" class="edge"><title>Node16&#45;&gt;Node12</title>
<path fill="none" stroke="midnightblue" d="M989.308,-51.5895C970.264,-41.6052 944.823,-28.2672 928.395,-19.6545"/>
<polygon fill="midnightblue" stroke="midnightblue" points="987.856,-54.7805 998.338,-56.324 991.107,-48.5808 987.856,-54.7805"/>
</g>
<!-- Node16&#45;&gt;Node13 -->
<g id="edge25" class="edge"><title>Node16&#45;&gt;Node13</title>
<path fill="none" stroke="midnightblue" d="M1014.89,-45.8045C1014.89,-36.9102 1014.89,-26.7798 1014.89,-19.7511"/>
<polygon fill="midnightblue" stroke="midnightblue" points="1011.39,-46.083 1014.89,-56.083 1018.39,-46.083 1011.39,-46.083"/>
</g>
<!-- Node16&#45;&gt;Node14 -->
<g id="edge26" class="edge"><title>Node16&#45;&gt;Node14</title>
<path fill="none" stroke="midnightblue" d="M961.164,-55.7903C901.855,-45.6231 807.167,-29.3908 749.539,-19.5118"/>
<polygon fill="midnightblue" stroke="midnightblue" points="960.64,-59.2515 971.088,-57.4915 961.823,-52.3521 960.64,-59.2515"/>
</g>
<!-- Node16&#45;&gt;Node15 -->
<g id="edge28" class="edge"><title>Node16&#45;&gt;Node15</title>
<path fill="none" stroke="midnightblue" d="M961.149,-56.0083C791.653,-34.3687 603.723,-20.4617 513.53,-14.4149"/>
<polygon fill="midnightblue" stroke="midnightblue" points="960.89,-59.5038 971.255,-57.3107 961.785,-52.5612 960.89,-59.5038"/>
</g>
<!-- Node16&#45;&gt;Node17 -->
<g id="edge22" class="edge"><title>Node16&#45;&gt;Node17</title>
<path fill="none" stroke="midnightblue" d="M973.306,-53.8291C935.356,-43.6333 880.077,-28.7823 845.587,-19.5164"/>
<polygon fill="midnightblue" stroke="midnightblue" points="972.472,-57.229 983.038,-56.4435 974.289,-50.4688 972.472,-57.229"/>
</g>
<!-- Node16&#45;&gt;Node18 -->
<g id="edge23" class="edge"><title>Node16&#45;&gt;Node18</title>
<path fill="none" stroke="midnightblue" d="M1068.62,-55.9261C1181.35,-38.5078 1211.42,-37.9074 1319.89,-20 1322.81,-19.5166 1325.84,-18.9972 1328.88,-18.4606"/>
<polygon fill="midnightblue" stroke="midnightblue" points="1067.89,-52.4973 1058.54,-57.4928 1068.96,-59.4141 1067.89,-52.4973"/>
</g>
<!-- Node19 -->
<g id="node19" class="node"><title>Node19</title>
<g id="a_node19"><a xlink:href="PHIOTest_8cpp_source.html" target="_top" xlink:title="src/test/PHIOTest.cpp">
<polygon fill="white" stroke="black" points="1074.89,-0.5 1074.89,-19.5 1190.89,-19.5 1190.89,-0.5 1074.89,-0.5"/>
<text text-anchor="middle" x="1132.89" y="-7.5" font-family="Helvetica,sans-Serif" font-size="10.00">src/test/PHIOTest.cpp</text>
</a>
</g>
</g>
<!-- Node16&#45;&gt;Node19 -->
<g id="edge24" class="edge"><title>Node16&#45;&gt;Node19</title>
<path fill="none" stroke="midnightblue" d="M1042.79,-52.2321C1064.86,-42.1312 1095.06,-28.3091 1114.28,-19.5164"/>
<polygon fill="midnightblue" stroke="midnightblue" points="1041.22,-49.0997 1033.58,-56.4435 1044.13,-55.4648 1041.22,-49.0997"/>
</g>
<!-- Node20 -->
<g id="node20" class="node"><title>Node20</title>
<g id="a_node20"><a xlink:href="TextArea_8cpp_source.html" target="_top" xlink:title="src/ui/TextArea.cpp">
<polygon fill="white" stroke="black" points="1208.89,-0.5 1208.89,-19.5 1310.89,-19.5 1310.89,-0.5 1208.89,-0.5"/>
<text text-anchor="middle" x="1259.89" y="-7.5" font-family="Helvetica,sans-Serif" font-size="10.00">src/ui/TextArea.cpp</text>
</a>
</g>
</g>
<!-- Node16&#45;&gt;Node20 -->
<g id="edge27" class="edge"><title>Node16&#45;&gt;Node20</title>
<path fill="none" stroke="midnightblue" d="M1063.52,-54.2815C1109.82,-44.0769 1178.58,-28.9203 1221.25,-19.5164"/>
<polygon fill="midnightblue" stroke="midnightblue" points="1062.72,-50.8731 1053.71,-56.4435 1064.23,-57.709 1062.72,-50.8731"/>
</g>
<!-- Node26&#45;&gt;Node6 -->
<g id="edge39" class="edge"><title>Node26&#45;&gt;Node6</title>
<path fill="none" stroke="midnightblue" d="M36.8695,-275.667C23.8965,-268.348 10.1656,-257.892 2.88699,-244 -1.23841,-236.126 -0.410178,-232.255 2.88699,-224 19.7572,-181.764 63.6227,-147.092 85.736,-131.653"/>
<polygon fill="midnightblue" stroke="midnightblue" points="35.5908,-278.947 46.0789,-280.447 38.8155,-272.734 35.5908,-278.947"/>
</g>
<!-- Node27 -->
<g id="node27" class="node"><title>Node27</title>
<g id="a_node27"><a xlink:href="GProcess_8cpp_source.html" target="_top" xlink:title="src/gfx/GProcess.cpp">
<polygon fill="white" stroke="black" points="11.887,-224.5 11.887,-243.5 123.887,-243.5 123.887,-224.5 11.887,-224.5"/>
<text text-anchor="middle" x="67.887" y="-231.5" font-family="Helvetica,sans-Serif" font-size="10.00">src/gfx/GProcess.cpp</text>
</a>
</g>
</g>
<!-- Node26&#45;&gt;Node27 -->
<g id="edge40" class="edge"><title>Node26&#45;&gt;Node27</title>
<path fill="none" stroke="midnightblue" d="M67.887,-269.805C67.887,-260.91 67.887,-250.78 67.887,-243.751"/>
<polygon fill="midnightblue" stroke="midnightblue" points="64.3871,-270.083 67.887,-280.083 71.3871,-270.083 64.3871,-270.083"/>
</g>
<!-- Node28&#45;&gt;Node10 -->
<g id="edge45" class="edge"><title>Node28&#45;&gt;Node10</title>
<path fill="none" stroke="midnightblue" d="M730.311,-162.38C716.575,-152.62 698.962,-140.106 687.32,-131.834"/>
<polygon fill="midnightblue" stroke="midnightblue" points="728.497,-165.385 738.676,-168.324 732.552,-159.679 728.497,-165.385"/>
</g>
<!-- Node29 -->
<g id="node29" class="node"><title>Node29</title>
<g id="a_node29"><a xlink:href="TreeArea_8h_source.html" target="_top" xlink:title="headers/TreeArea.h">
<polygon fill="white" stroke="black" points="866.887,-112.5 866.887,-131.5 968.887,-131.5 968.887,-112.5 866.887,-112.5"/>
<text text-anchor="middle" x="917.887" y="-119.5" font-family="Helvetica,sans-Serif" font-size="10.00">headers/TreeArea.h</text>
</a>
</g>
</g>
<!-- Node28&#45;&gt;Node29 -->
<g id="edge42" class="edge"><title>Node28&#45;&gt;Node29</title>
<path fill="none" stroke="midnightblue" d="M787.057,-165.304C818.524,-155.129 863.381,-140.625 891.549,-131.516"/>
<polygon fill="midnightblue" stroke="midnightblue" points="785.787,-162.037 777.349,-168.444 787.94,-168.697 785.787,-162.037"/>
</g>
<!-- Node31 -->
<g id="node31" class="node"><title>Node31</title>
<g id="a_node31"><a xlink:href="MyArea_8cpp_source.html" target="_top" xlink:title="src/ui/MyArea.cpp">
<polygon fill="white" stroke="black" points="752.887,-112.5 752.887,-131.5 848.887,-131.5 848.887,-112.5 752.887,-112.5"/>
<text text-anchor="middle" x="800.887" y="-119.5" font-family="Helvetica,sans-Serif" font-size="10.00">src/ui/MyArea.cpp</text>
</a>
</g>
</g>
<!-- Node28&#45;&gt;Node31 -->
<g id="edge46" class="edge"><title>Node28&#45;&gt;Node31</title>
<path fill="none" stroke="midnightblue" d="M765.963,-160.718C774.776,-151.2 785.553,-139.561 792.784,-131.751"/>
<polygon fill="midnightblue" stroke="midnightblue" points="763.369,-158.367 759.143,-168.083 768.506,-163.123 763.369,-158.367"/>
</g>
<!-- Node29&#45;&gt;Node11 -->
<g id="edge43" class="edge"><title>Node29&#45;&gt;Node11</title>
<path fill="none" stroke="midnightblue" d="M915.787,-102.101C914.791,-93.1357 913.649,-82.8579 912.859,-75.7511"/>
<polygon fill="midnightblue" stroke="midnightblue" points="912.313,-102.531 916.896,-112.083 919.27,-101.758 912.313,-102.531"/>
</g>
<!-- Node30 -->
<g id="node30" class="node"><title>Node30</title>
<g id="a_node30"><a xlink:href="TreeArea_8cpp_source.html" target="_top" xlink:title="src/ui/TreeArea.cpp">
<polygon fill="white" stroke="black" points="1076.89,-56.5 1076.89,-75.5 1178.89,-75.5 1178.89,-56.5 1076.89,-56.5"/>
<text text-anchor="middle" x="1127.89" y="-63.5" font-family="Helvetica,sans-Serif" font-size="10.00">src/ui/TreeArea.cpp</text>
</a>
</g>
</g>
<!-- Node29&#45;&gt;Node30 -->
<g id="edge44" class="edge"><title>Node29&#45;&gt;Node30</title>
<path fill="none" stroke="midnightblue" d="M961.077,-109.894C1000.73,-99.6966 1058.66,-84.802 1094.77,-75.5164"/>
<polygon fill="midnightblue" stroke="midnightblue" points="959.975,-106.563 951.162,-112.444 961.719,-113.343 959.975,-106.563"/>
</g>
</g>
</svg>
