<?xml version="1.0" encoding="UTF-8" standalone="no"?>
<!DOCTYPE svg PUBLIC "-//W3C//DTD SVG 1.1//EN"
 "http://www.w3.org/Graphics/SVG/1.1/DTD/svg11.dtd">
<!-- Generated by graphviz version 2.38.0 (20140413.2041)
 -->
<!-- Title: headers/GVSkeletonGraph.h Pages: 1 -->
<svg width="638pt" height="140pt"
 viewBox="0.00 0.00 637.50 140.00" xmlns="http://www.w3.org/2000/svg" xmlns:xlink="http://www.w3.org/1999/xlink">
<g id="graph0" class="graph" transform="scale(1 1) rotate(0) translate(4 136)">
<title>headers/GVSkeletonGraph.h</title>
<polygon fill="white" stroke="none" points="-4,4 -4,-136 633.5,-136 633.5,4 -4,4"/>
<!-- Node1 -->
<g id="node1" class="node"><title>Node1</title>
<polygon fill="#bfbfbf" stroke="black" points="267.5,-112.5 267.5,-131.5 408.5,-131.5 408.5,-112.5 267.5,-112.5"/>
<text text-anchor="middle" x="338" y="-119.5" font-family="Helvetica,sans-Serif" font-size="10.00">headers/GVSkeletonGraph.h</text>
</g>
<!-- Node2 -->
<g id="node2" class="node"><title>Node2</title>
<polygon fill="white" stroke="#bfbfbf" points="0,-56.5 0,-75.5 80,-75.5 80,-56.5 0,-56.5"/>
<text text-anchor="middle" x="40" y="-63.5" font-family="Helvetica,sans-Serif" font-size="10.00">graphviz/gvc.h</text>
</g>
<!-- Node1&#45;&gt;Node2 -->
<g id="edge1" class="edge"><title>Node1&#45;&gt;Node2</title>
<path fill="none" stroke="midnightblue" d="M290.721,-112.497C242.782,-103.866 166.167,-90.047 90.3186,-76.2364"/>
<polygon fill="midnightblue" stroke="midnightblue" points="90.575,-72.7256 80.1096,-74.3767 89.3205,-79.6122 90.575,-72.7256"/>
</g>
<!-- Node3 -->
<g id="node3" class="node"><title>Node3</title>
<polygon fill="white" stroke="#bfbfbf" points="98,-56.5 98,-75.5 206,-75.5 206,-56.5 98,-56.5"/>
<text text-anchor="middle" x="152" y="-63.5" font-family="Helvetica,sans-Serif" font-size="10.00">boost/shared_ptr.hpp</text>
</g>
<!-- Node1&#45;&gt;Node3 -->
<g id="edge2" class="edge"><title>Node1&#45;&gt;Node3</title>
<path fill="none" stroke="midnightblue" d="M308.528,-112.444C276.829,-103.241 226.268,-88.5617 191.225,-78.3879"/>
<polygon fill="midnightblue" stroke="midnightblue" points="191.914,-74.9434 181.334,-75.5164 189.962,-81.6658 191.914,-74.9434"/>
</g>
<!-- Node4 -->
<g id="node4" class="node"><title>Node4</title>
<polygon fill="white" stroke="#bfbfbf" points="224,-56.5 224,-75.5 268,-75.5 268,-56.5 224,-56.5"/>
<text text-anchor="middle" x="246" y="-63.5" font-family="Helvetica,sans-Serif" font-size="10.00">QFont</text>
</g>
<!-- Node1&#45;&gt;Node4 -->
<g id="edge3" class="edge"><title>Node1&#45;&gt;Node4</title>
<path fill="none" stroke="midnightblue" d="M323.219,-112.324C308.733,-103.822 286.427,-90.7288 269.507,-80.7975"/>
<polygon fill="midnightblue" stroke="midnightblue" points="271.141,-77.6981 260.745,-75.6545 267.597,-83.735 271.141,-77.6981"/>
</g>
<!-- Node5 -->
<g id="node5" class="node"><title>Node5</title>
<polygon fill="white" stroke="#bfbfbf" points="286.5,-56.5 286.5,-75.5 329.5,-75.5 329.5,-56.5 286.5,-56.5"/>
<text text-anchor="middle" x="308" y="-63.5" font-family="Helvetica,sans-Serif" font-size="10.00">QMap</text>
</g>
<!-- Node1&#45;&gt;Node5 -->
<g id="edge4" class="edge"><title>Node1&#45;&gt;Node5</title>
<path fill="none" stroke="midnightblue" d="M333.046,-112.083C328.896,-104.613 322.847,-93.7244 317.733,-84.5199"/>
<polygon fill="midnightblue" stroke="midnightblue" points="320.778,-82.7929 312.862,-75.7511 314.659,-86.1924 320.778,-82.7929"/>
</g>
<!-- Node6 -->
<g id="node6" class="node"><title>Node6</title>
<polygon fill="white" stroke="#bfbfbf" points="347.5,-56.5 347.5,-75.5 388.5,-75.5 388.5,-56.5 347.5,-56.5"/>
<text text-anchor="middle" x="368" y="-63.5" font-family="Helvetica,sans-Serif" font-size="10.00">QPair</text>
</g>
<!-- Node1&#45;&gt;Node6 -->
<g id="edge5" class="edge"><title>Node1&#45;&gt;Node6</title>
<path fill="none" stroke="midnightblue" d="M342.954,-112.083C347.104,-104.613 353.153,-93.7244 358.267,-84.5199"/>
<polygon fill="midnightblue" stroke="midnightblue" points="361.341,-86.1924 363.138,-75.7511 355.222,-82.7929 361.341,-86.1924"/>
</g>
<!-- Node7 -->
<g id="node7" class="node"><title>Node7</title>
<polygon fill="white" stroke="#bfbfbf" points="421,-0.5 421,-19.5 471,-19.5 471,-0.5 421,-0.5"/>
<text text-anchor="middle" x="446" y="-7.5" font-family="Helvetica,sans-Serif" font-size="10.00">QString</text>
</g>
<!-- Node1&#45;&gt;Node7 -->
<g id="edge6" class="edge"><title>Node1&#45;&gt;Node7</title>
<path fill="none" stroke="midnightblue" d="M351.763,-112.364C364.54,-103.973 383.69,-90.4163 398,-76 412.614,-61.2773 426.361,-41.8752 435.366,-28.1121"/>
<polygon fill="midnightblue" stroke="midnightblue" points="438.362,-29.9232 440.795,-19.6115 432.463,-26.1552 438.362,-29.9232"/>
</g>
<!-- Node8 -->
<g id="node8" class="node"><title>Node8</title>
<g id="a_node8"><a xlink:href="GVNode_8h.html" target="_top" xlink:title="header for the GVNode class ">
<polygon fill="white" stroke="black" points="445,-56.5 445,-75.5 507,-75.5 507,-56.5 445,-56.5"/>
<text text-anchor="middle" x="476" y="-63.5" font-family="Helvetica,sans-Serif" font-size="10.00">GVNode.h</text>
</a>
</g>
</g>
<!-- Node1&#45;&gt;Node8 -->
<g id="edge7" class="edge"><title>Node1&#45;&gt;Node8</title>
<path fill="none" stroke="midnightblue" d="M359.867,-112.444C382.779,-103.478 418.975,-89.314 444.866,-79.1827"/>
<polygon fill="midnightblue" stroke="midnightblue" points="446.199,-82.4198 454.236,-75.5164 443.648,-75.9011 446.199,-82.4198"/>
</g>
<!-- Node10 -->
<g id="node10" class="node"><title>Node10</title>
<g id="a_node10"><a xlink:href="GVEdge_8h.html" target="_top" xlink:title="header for the GVEdge class ">
<polygon fill="white" stroke="black" points="525,-56.5 525,-75.5 587,-75.5 587,-56.5 525,-56.5"/>
<text text-anchor="middle" x="556" y="-63.5" font-family="Helvetica,sans-Serif" font-size="10.00">GVEdge.h</text>
</a>
</g>
</g>
<!-- Node1&#45;&gt;Node10 -->
<g id="edge10" class="edge"><title>Node1&#45;&gt;Node10</title>
<path fill="none" stroke="midnightblue" d="M372.543,-112.444C411.252,-102.855 473.958,-87.3223 515.089,-77.1339"/>
<polygon fill="midnightblue" stroke="midnightblue" points="515.933,-80.5308 524.798,-74.729 514.249,-73.7362 515.933,-80.5308"/>
</g>
<!-- Node8&#45;&gt;Node7 -->
<g id="edge9" class="edge"><title>Node8&#45;&gt;Node7</title>
<path fill="none" stroke="midnightblue" d="M471.046,-56.083C466.896,-48.6127 460.847,-37.7244 455.733,-28.5199"/>
<polygon fill="midnightblue" stroke="midnightblue" points="458.778,-26.7929 450.862,-19.7511 452.659,-30.1924 458.778,-26.7929"/>
</g>
<!-- Node9 -->
<g id="node9" class="node"><title>Node9</title>
<polygon fill="white" stroke="#bfbfbf" points="489.5,-0.5 489.5,-19.5 536.5,-19.5 536.5,-0.5 489.5,-0.5"/>
<text text-anchor="middle" x="513" y="-7.5" font-family="Helvetica,sans-Serif" font-size="10.00">QPoint</text>
</g>
<!-- Node8&#45;&gt;Node9 -->
<g id="edge8" class="edge"><title>Node8&#45;&gt;Node9</title>
<path fill="none" stroke="midnightblue" d="M482.11,-56.083C487.282,-48.5341 494.846,-37.4948 501.194,-28.2298"/>
<polygon fill="midnightblue" stroke="midnightblue" points="504.239,-29.9787 507.004,-19.7511 498.464,-26.0221 504.239,-29.9787"/>
</g>
<!-- Node10&#45;&gt;Node7 -->
<g id="edge12" class="edge"><title>Node10&#45;&gt;Node7</title>
<path fill="none" stroke="midnightblue" d="M538.327,-56.324C520.606,-47.6247 493.097,-34.1202 472.712,-24.113"/>
<polygon fill="midnightblue" stroke="midnightblue" points="474.149,-20.9195 463.63,-19.6545 471.064,-27.2031 474.149,-20.9195"/>
</g>
<!-- Node10&#45;&gt;Node9 -->
<g id="edge11" class="edge"><title>Node10&#45;&gt;Node9</title>
<path fill="none" stroke="midnightblue" d="M548.899,-56.083C542.763,-48.3768 533.73,-37.0333 526.261,-27.6531"/>
<polygon fill="midnightblue" stroke="midnightblue" points="528.936,-25.3936 519.968,-19.7511 523.46,-29.7542 528.936,-25.3936"/>
</g>
<!-- Node11 -->
<g id="node11" class="node"><title>Node11</title>
<polygon fill="white" stroke="#bfbfbf" points="554.5,-0.5 554.5,-19.5 629.5,-19.5 629.5,-0.5 554.5,-0.5"/>
<text text-anchor="middle" x="592" y="-7.5" font-family="Helvetica,sans-Serif" font-size="10.00">QPainterPath</text>
</g>
<!-- Node10&#45;&gt;Node11 -->
<g id="edge13" class="edge"><title>Node10&#45;&gt;Node11</title>
<path fill="none" stroke="midnightblue" d="M561.945,-56.083C566.977,-48.5341 574.337,-37.4948 580.513,-28.2298"/>
<polygon fill="midnightblue" stroke="midnightblue" points="583.531,-30.0131 586.166,-19.7511 577.707,-26.1301 583.531,-30.0131"/>
</g>
</g>
</svg>
