<?xml version="1.0" encoding="UTF-8" standalone="no"?>
<!DOCTYPE svg PUBLIC "-//W3C//DTD SVG 1.1//EN"
 "http://www.w3.org/Graphics/SVG/1.1/DTD/svg11.dtd">
<!-- Generated by graphviz version 2.38.0 (20140413.2041)
 -->
<!-- Title: Graphical Class Hierarchy Pages: 1 -->
<svg width="198pt" height="104pt"
 viewBox="0.00 0.00 198.00 104.00" xmlns="http://www.w3.org/2000/svg" xmlns:xlink="http://www.w3.org/1999/xlink">
<g id="graph0" class="graph" transform="scale(1 1) rotate(0) translate(4 100)">
<title>Graphical Class Hierarchy</title>
<polygon fill="white" stroke="none" points="-4,4 -4,-100 194,-100 194,4 -4,4"/>
<!-- Node1 -->
<g id="node1" class="node"><title>Node1</title>
<polygon fill="white" stroke="#bfbfbf" points="0,-38.5 0,-57.5 52,-57.5 52,-38.5 0,-38.5"/>
<text text-anchor="middle" x="26" y="-45.5" font-family="Helvetica,sans-Serif" font-size="10.00">QDialog</text>
</g>
<!-- Node2 -->
<g id="node2" class="node"><title>Node2</title>
<g id="a_node2"><a xlink:href="classConnectionSettings.html" target="_top" xlink:title="ConnectionSettings">
<polygon fill="white" stroke="black" points="88,-76.5 88,-95.5 190,-95.5 190,-76.5 88,-76.5"/>
<text text-anchor="middle" x="139" y="-83.5" font-family="Helvetica,sans-Serif" font-size="10.00">ConnectionSettings</text>
</a>
</g>
</g>
<!-- Node1&#45;&gt;Node2 -->
<g id="edge1" class="edge"><title>Node1&#45;&gt;Node2</title>
<path fill="none" stroke="midnightblue" d="M61.9821,-59.9759C77.5295,-65.2984 95.577,-71.4768 110.185,-76.4777"/>
<polygon fill="midnightblue" stroke="midnightblue" points="62.7822,-56.5504 52.1876,-56.6228 60.5149,-63.1731 62.7822,-56.5504"/>
</g>
<!-- Node3 -->
<g id="node3" class="node"><title>Node3</title>
<g id="a_node3"><a xlink:href="classFunctionForm.html" target="_top" xlink:title="FunctionForm">
<polygon fill="white" stroke="black" points="100.5,-38.5 100.5,-57.5 177.5,-57.5 177.5,-38.5 100.5,-38.5"/>
<text text-anchor="middle" x="139" y="-45.5" font-family="Helvetica,sans-Serif" font-size="10.00">FunctionForm</text>
</a>
</g>
</g>
<!-- Node1&#45;&gt;Node3 -->
<g id="edge2" class="edge"><title>Node1&#45;&gt;Node3</title>
<path fill="none" stroke="midnightblue" d="M62.3577,-48C74.4415,-48 87.9991,-48 100.263,-48"/>
<polygon fill="midnightblue" stroke="midnightblue" points="62.1877,-44.5001 52.1876,-48 62.1876,-51.5001 62.1877,-44.5001"/>
</g>
<!-- Node4 -->
<g id="node4" class="node"><title>Node4</title>
<g id="a_node4"><a xlink:href="classTikzEditor.html" target="_top" xlink:title="TikzEditor">
<polygon fill="white" stroke="black" points="108.5,-0.5 108.5,-19.5 169.5,-19.5 169.5,-0.5 108.5,-0.5"/>
<text text-anchor="middle" x="139" y="-7.5" font-family="Helvetica,sans-Serif" font-size="10.00">TikzEditor</text>
</a>
</g>
</g>
<!-- Node1&#45;&gt;Node4 -->
<g id="edge3" class="edge"><title>Node1&#45;&gt;Node4</title>
<path fill="none" stroke="midnightblue" d="M61.9821,-36.0241C77.5295,-30.7016 95.577,-24.5232 110.185,-19.5223"/>
<polygon fill="midnightblue" stroke="midnightblue" points="60.5149,-32.8269 52.1876,-39.3772 62.7822,-39.4496 60.5149,-32.8269"/>
</g>
</g>
</svg>
