<?xml version="1.0" encoding="UTF-8" standalone="no"?>
<!DOCTYPE svg PUBLIC "-//W3C//DTD SVG 1.1//EN"
 "http://www.w3.org/Graphics/SVG/1.1/DTD/svg11.dtd">
<!-- Generated by graphviz version 2.38.0 (20140413.2041)
 -->
<!-- Title: Graphical Class Hierarchy Pages: 1 -->
<svg width="155pt" height="66pt"
 viewBox="0.00 0.00 155.00 66.00" xmlns="http://www.w3.org/2000/svg" xmlns:xlink="http://www.w3.org/1999/xlink">
<g id="graph0" class="graph" transform="scale(1 1) rotate(0) translate(4 62)">
<title>Graphical Class Hierarchy</title>
<polygon fill="white" stroke="none" points="-4,4 -4,-62 151,-62 151,4 -4,4"/>
<!-- Node1 -->
<g id="node1" class="node"><title>Node1</title>
<polygon fill="white" stroke="#bfbfbf" points="0,-19.5 0,-38.5 55,-38.5 55,-19.5 0,-19.5"/>
<text text-anchor="middle" x="27.5" y="-26.5" font-family="Helvetica,sans-Serif" font-size="10.00">QWidget</text>
</g>
<!-- Node2 -->
<g id="node2" class="node"><title>Node2</title>
<g id="a_node2"><a xlink:href="classArea.html" target="_top" xlink:title="New Tab extends QWidget. ">
<polygon fill="white" stroke="black" points="100.5,-38.5 100.5,-57.5 137.5,-57.5 137.5,-38.5 100.5,-38.5"/>
<text text-anchor="middle" x="119" y="-45.5" font-family="Helvetica,sans-Serif" font-size="10.00">Area</text>
</a>
</g>
</g>
<!-- Node1&#45;&gt;Node2 -->
<g id="edge1" class="edge"><title>Node1&#45;&gt;Node2</title>
<path fill="none" stroke="midnightblue" d="M65.305,-36.8134C77.4779,-39.3975 90.4611,-42.1538 100.494,-44.2837"/>
<polygon fill="midnightblue" stroke="midnightblue" points="65.8618,-33.3536 55.353,-34.7006 64.4081,-40.201 65.8618,-33.3536"/>
</g>
<!-- Node3 -->
<g id="node3" class="node"><title>Node3</title>
<g id="a_node3"><a xlink:href="classTreeArea.html" target="_top" xlink:title="Tree Wigets extends QWidget. ">
<polygon fill="white" stroke="black" points="91,-0.5 91,-19.5 147,-19.5 147,-0.5 91,-0.5"/>
<text text-anchor="middle" x="119" y="-7.5" font-family="Helvetica,sans-Serif" font-size="10.00">TreeArea</text>
</a>
</g>
</g>
<!-- Node1&#45;&gt;Node3 -->
<g id="edge2" class="edge"><title>Node1&#45;&gt;Node3</title>
<path fill="none" stroke="midnightblue" d="M65.1713,-21.215C73.7636,-19.391 82.7668,-17.4797 90.8567,-15.7623"/>
<polygon fill="midnightblue" stroke="midnightblue" points="64.4081,-17.799 55.353,-23.2994 65.8618,-24.6464 64.4081,-17.799"/>
</g>
</g>
</svg>
