<?xml version="1.0" encoding="UTF-8" standalone="no"?>
<!DOCTYPE svg PUBLIC "-//W3C//DTD SVG 1.1//EN"
 "http://www.w3.org/Graphics/SVG/1.1/DTD/svg11.dtd">
<!-- Generated by graphviz version 2.38.0 (20140413.2041)
 -->
<!-- Title: Graphical Class Hierarchy Pages: 1 -->
<svg width="510pt" height="332pt"
 viewBox="0.00 0.00 510.00 332.00" xmlns="http://www.w3.org/2000/svg" xmlns:xlink="http://www.w3.org/1999/xlink">
<g id="graph0" class="graph" transform="scale(1 1) rotate(0) translate(4 328)">
<title>Graphical Class Hierarchy</title>
<polygon fill="white" stroke="none" points="-4,4 -4,-328 506,-328 506,4 -4,4"/>
<!-- Node1 -->
<g id="node1" class="node"><title>Node1</title>
<polygon fill="white" stroke="#bfbfbf" points="0,-133.5 0,-152.5 59,-152.5 59,-133.5 0,-133.5"/>
<text text-anchor="middle" x="29.5" y="-140.5" font-family="Helvetica,sans-Serif" font-size="10.00">exception</text>
</g>
<!-- Node2 -->
<g id="node2" class="node"><title>Node2</title>
<g id="a_node2"><a xlink:href="structexception__base.html" target="_top" xlink:title="struct defining the base of the exception ">
<polygon fill="white" stroke="black" points="95,-114.5 95,-133.5 180,-133.5 180,-114.5 95,-114.5"/>
<text text-anchor="middle" x="137.5" y="-121.5" font-family="Helvetica,sans-Serif" font-size="10.00">exception_base</text>
</a>
</g>
</g>
<!-- Node1&#45;&gt;Node2 -->
<g id="edge1" class="edge"><title>Node1&#45;&gt;Node2</title>
<path fill="none" stroke="midnightblue" d="M69.0283,-136.094C77.3582,-134.601 86.2046,-133.015 94.6547,-131.501"/>
<polygon fill="midnightblue" stroke="midnightblue" points="68.4107,-132.649 59.1851,-137.858 69.6458,-139.539 68.4107,-132.649"/>
</g>
<!-- Node3 -->
<g id="node3" class="node"><title>Node3</title>
<g id="a_node3"><a xlink:href="structgv__error.html" target="_top" xlink:title="struct defining the exception called when an error occurs in GraphViz extends exception_base ...">
<polygon fill="white" stroke="black" points="250.5,-285.5 250.5,-304.5 302.5,-304.5 302.5,-285.5 250.5,-285.5"/>
<text text-anchor="middle" x="276.5" y="-292.5" font-family="Helvetica,sans-Serif" font-size="10.00">gv_error</text>
</a>
</g>
</g>
<!-- Node2&#45;&gt;Node3 -->
<g id="edge2" class="edge"><title>Node2&#45;&gt;Node3</title>
<path fill="none" stroke="midnightblue" d="M149.379,-142.463C163.46,-165.734 189.363,-206.5 216,-238 231.149,-255.914 251.307,-274.268 263.839,-285.147"/>
<polygon fill="midnightblue" stroke="midnightblue" points="152.238,-140.423 144.101,-133.638 146.231,-144.017 152.238,-140.423"/>
</g>
<!-- Node5 -->
<g id="node5" class="node"><title>Node5</title>
<g id="a_node5"><a xlink:href="structio__error.html" target="_top" xlink:title="struct defining the base of the IO errors ">
<polygon fill="white" stroke="black" points="252,-209.5 252,-228.5 301,-228.5 301,-209.5 252,-209.5"/>
<text text-anchor="middle" x="276.5" y="-216.5" font-family="Helvetica,sans-Serif" font-size="10.00">io_error</text>
</a>
</g>
</g>
<!-- Node2&#45;&gt;Node5 -->
<g id="edge4" class="edge"><title>Node2&#45;&gt;Node5</title>
<path fill="none" stroke="midnightblue" d="M160.896,-139.53C189.421,-159.31 237.854,-192.895 261.573,-209.343"/>
<polygon fill="midnightblue" stroke="midnightblue" points="162.602,-136.454 152.39,-133.632 158.613,-142.206 162.602,-136.454"/>
</g>
<!-- Node9 -->
<g id="node9" class="node"><title>Node9</title>
<g id="a_node9"><a xlink:href="structph__error.html" target="_top" xlink:title="struct defining the exception called when there is an error in the PH file extends exception_base ...">
<polygon fill="white" stroke="black" points="250.5,-114.5 250.5,-133.5 302.5,-133.5 302.5,-114.5 250.5,-114.5"/>
<text text-anchor="middle" x="276.5" y="-121.5" font-family="Helvetica,sans-Serif" font-size="10.00">ph_error</text>
</a>
</g>
</g>
<!-- Node2&#45;&gt;Node9 -->
<g id="edge8" class="edge"><title>Node2&#45;&gt;Node9</title>
<path fill="none" stroke="midnightblue" d="M190.498,-124C210.951,-124 233.49,-124 250.217,-124"/>
<polygon fill="midnightblue" stroke="midnightblue" points="190.349,-120.5 180.349,-124 190.349,-127.5 190.349,-120.5"/>
</g>
<!-- Node13 -->
<g id="node13" class="node"><title>Node13</title>
<g id="a_node13"><a xlink:href="structph__parse__error.html" target="_top" xlink:title="struct defining the exception called when the PH file cannot be parsed extends exception_base ...">
<polygon fill="white" stroke="black" points="236,-57.5 236,-76.5 317,-76.5 317,-57.5 236,-57.5"/>
<text text-anchor="middle" x="276.5" y="-64.5" font-family="Helvetica,sans-Serif" font-size="10.00">ph_parse_error</text>
</a>
</g>
</g>
<!-- Node2&#45;&gt;Node13 -->
<g id="edge12" class="edge"><title>Node2&#45;&gt;Node13</title>
<path fill="none" stroke="midnightblue" d="M170.898,-110.521C195.994,-100.079 230.142,-85.8715 252.494,-76.5716"/>
<polygon fill="midnightblue" stroke="midnightblue" points="169.319,-107.387 161.431,-114.459 172.008,-113.85 169.319,-107.387"/>
</g>
<!-- Node16 -->
<g id="node16" class="node"><title>Node16</title>
<g id="a_node16"><a xlink:href="structpint__program__not__found.html" target="_top" xlink:title="struct defining the exception called when Pint is not found$ extends exception_base ...">
<polygon fill="white" stroke="black" points="216,-19.5 216,-38.5 337,-38.5 337,-19.5 216,-19.5"/>
<text text-anchor="middle" x="276.5" y="-26.5" font-family="Helvetica,sans-Serif" font-size="10.00">pint_program_not_found</text>
</a>
</g>
</g>
<!-- Node2&#45;&gt;Node16 -->
<g id="edge15" class="edge"><title>Node2&#45;&gt;Node16</title>
<path fill="none" stroke="midnightblue" d="M152.33,-106.274C166.584,-89.1157 190.298,-63.4893 216,-48 222.316,-44.194 229.474,-41.0693 236.582,-38.5326"/>
<polygon fill="midnightblue" stroke="midnightblue" points="149.344,-104.4 145.777,-114.377 154.787,-108.802 149.344,-104.4"/>
</g>
<!-- Node4 -->
<g id="node4" class="node"><title>Node4</title>
<g id="a_node4"><a xlink:href="structsubgraph__not__found.html" target="_top" xlink:title="struct defining the exception called when the subgraph is not found extends gv_error ...">
<polygon fill="white" stroke="black" points="385.5,-304.5 385.5,-323.5 489.5,-323.5 489.5,-304.5 385.5,-304.5"/>
<text text-anchor="middle" x="437.5" y="-311.5" font-family="Helvetica,sans-Serif" font-size="10.00">subgraph_not_found</text>
</a>
</g>
</g>
<!-- Node3&#45;&gt;Node4 -->
<g id="edge3" class="edge"><title>Node3&#45;&gt;Node4</title>
<path fill="none" stroke="midnightblue" d="M312.635,-299.199C334.006,-301.752 361.668,-305.058 385.428,-307.897"/>
<polygon fill="midnightblue" stroke="midnightblue" points="313.039,-295.722 302.694,-298.011 312.208,-302.672 313.039,-295.722"/>
</g>
<!-- Node6 -->
<g id="node6" class="node"><title>Node6</title>
<g id="a_node6"><a xlink:href="structfile__not__exist.html" target="_top" xlink:title="struct defining the exception called when the file does not exist extends io_error ...">
<polygon fill="white" stroke="black" points="400.5,-266.5 400.5,-285.5 474.5,-285.5 474.5,-266.5 400.5,-266.5"/>
<text text-anchor="middle" x="437.5" y="-273.5" font-family="Helvetica,sans-Serif" font-size="10.00">file_not_exist</text>
</a>
</g>
</g>
<!-- Node5&#45;&gt;Node6 -->
<g id="edge5" class="edge"><title>Node5&#45;&gt;Node6</title>
<path fill="none" stroke="midnightblue" d="M309.44,-232.525C327.87,-240.123 351.571,-249.547 373,-257 382.564,-260.327 393.057,-263.611 402.709,-266.49"/>
<polygon fill="midnightblue" stroke="midnightblue" points="310.635,-229.232 300.058,-228.627 307.95,-235.696 310.635,-229.232"/>
</g>
<!-- Node7 -->
<g id="node7" class="node"><title>Node7</title>
<g id="a_node7"><a xlink:href="structnot__regular__file.html" target="_top" xlink:title="struct defining the exception called when the format of the file is not the one expected extends io_e...">
<polygon fill="white" stroke="black" points="396,-228.5 396,-247.5 479,-247.5 479,-228.5 396,-228.5"/>
<text text-anchor="middle" x="437.5" y="-235.5" font-family="Helvetica,sans-Serif" font-size="10.00">not_regular_file</text>
</a>
</g>
</g>
<!-- Node5&#45;&gt;Node7 -->
<g id="edge6" class="edge"><title>Node5&#45;&gt;Node7</title>
<path fill="none" stroke="midnightblue" d="M311.302,-223.039C336.016,-225.993 369.653,-230.012 395.837,-233.141"/>
<polygon fill="midnightblue" stroke="midnightblue" points="311.649,-219.556 301.304,-221.844 310.818,-226.506 311.649,-219.556"/>
</g>
<!-- Node8 -->
<g id="node8" class="node"><title>Node8</title>
<g id="a_node8"><a xlink:href="structwrong__import__file.html" target="_top" xlink:title="wrong_import_file">
<polygon fill="white" stroke="black" points="391,-190.5 391,-209.5 484,-209.5 484,-190.5 391,-190.5"/>
<text text-anchor="middle" x="437.5" y="-197.5" font-family="Helvetica,sans-Serif" font-size="10.00">wrong_import_file</text>
</a>
</g>
</g>
<!-- Node5&#45;&gt;Node8 -->
<g id="edge7" class="edge"><title>Node5&#45;&gt;Node8</title>
<path fill="none" stroke="midnightblue" d="M311.339,-214.956C334.48,-212.191 365.431,-208.493 390.764,-205.465"/>
<polygon fill="midnightblue" stroke="midnightblue" points="310.818,-211.494 301.304,-216.156 311.649,-218.444 310.818,-211.494"/>
</g>
<!-- Node10 -->
<g id="node10" class="node"><title>Node10</title>
<g id="a_node10"><a xlink:href="structprocess__not__found.html" target="_top" xlink:title="struct defining the exception called when the process called is not found extends ph_error ...">
<polygon fill="white" stroke="black" points="388,-152.5 388,-171.5 487,-171.5 487,-152.5 388,-152.5"/>
<text text-anchor="middle" x="437.5" y="-159.5" font-family="Helvetica,sans-Serif" font-size="10.00">process_not_found</text>
</a>
</g>
</g>
<!-- Node9&#45;&gt;Node10 -->
<g id="edge9" class="edge"><title>Node9&#45;&gt;Node10</title>
<path fill="none" stroke="midnightblue" d="M312.428,-132.348C337.26,-138.282 370.665,-146.266 396.557,-152.454"/>
<polygon fill="midnightblue" stroke="midnightblue" points="313.234,-128.942 302.694,-130.021 311.607,-135.75 313.234,-128.942"/>
</g>
<!-- Node11 -->
<g id="node11" class="node"><title>Node11</title>
<g id="a_node11"><a xlink:href="structprocess__required.html" target="_top" xlink:title="struct defining the exception called when the process is not specified extends ph_error ...">
<polygon fill="white" stroke="black" points="392,-114.5 392,-133.5 483,-133.5 483,-114.5 392,-114.5"/>
<text text-anchor="middle" x="437.5" y="-121.5" font-family="Helvetica,sans-Serif" font-size="10.00">process_required</text>
</a>
</g>
</g>
<!-- Node9&#45;&gt;Node11 -->
<g id="edge10" class="edge"><title>Node9&#45;&gt;Node11</title>
<path fill="none" stroke="midnightblue" d="M312.836,-124C336.148,-124 366.882,-124 391.878,-124"/>
<polygon fill="midnightblue" stroke="midnightblue" points="312.694,-120.5 302.694,-124 312.694,-127.5 312.694,-120.5"/>
</g>
<!-- Node12 -->
<g id="node12" class="node"><title>Node12</title>
<g id="a_node12"><a xlink:href="structsort__not__found.html" target="_top" xlink:title="struct defining the exception called when the sort called are not found extends ph_error ...">
<polygon fill="white" stroke="black" points="397,-76.5 397,-95.5 478,-95.5 478,-76.5 397,-76.5"/>
<text text-anchor="middle" x="437.5" y="-83.5" font-family="Helvetica,sans-Serif" font-size="10.00">sort_not_found</text>
</a>
</g>
</g>
<!-- Node9&#45;&gt;Node12 -->
<g id="edge11" class="edge"><title>Node9&#45;&gt;Node12</title>
<path fill="none" stroke="midnightblue" d="M312.464,-115.644C337.391,-109.687 370.941,-101.668 396.864,-95.4728"/>
<polygon fill="midnightblue" stroke="midnightblue" points="311.607,-112.25 302.694,-117.979 313.234,-119.058 311.607,-112.25"/>
</g>
<!-- Node14 -->
<g id="node14" class="node"><title>Node14</title>
<g id="a_node14"><a xlink:href="structpint__phc__crash.html" target="_top" xlink:title="struct defining the exception called when Pint cannot be called extends ph_parse_error ...">
<polygon fill="white" stroke="black" points="396,-38.5 396,-57.5 479,-57.5 479,-38.5 396,-38.5"/>
<text text-anchor="middle" x="437.5" y="-45.5" font-family="Helvetica,sans-Serif" font-size="10.00">pint_phc_crash</text>
</a>
</g>
</g>
<!-- Node13&#45;&gt;Node14 -->
<g id="edge13" class="edge"><title>Node13&#45;&gt;Node14</title>
<path fill="none" stroke="midnightblue" d="M327.392,-61.0381C349.448,-58.4024 375.052,-55.3428 395.912,-52.8501"/>
<polygon fill="midnightblue" stroke="midnightblue" points="326.726,-57.5926 317.212,-62.2545 327.557,-64.5432 326.726,-57.5926"/>
</g>
<!-- Node15 -->
<g id="node15" class="node"><title>Node15</title>
<g id="a_node15"><a xlink:href="structtextAreaEmpty__exception.html" target="_top" xlink:title="struct defining the exception called when the user update from an empty textArea extends ph_parse_err...">
<polygon fill="white" stroke="black" points="373,-0.5 373,-19.5 502,-19.5 502,-0.5 373,-0.5"/>
<text text-anchor="middle" x="437.5" y="-7.5" font-family="Helvetica,sans-Serif" font-size="10.00">textAreaEmpty_exception</text>
</a>
</g>
</g>
<!-- Node13&#45;&gt;Node15 -->
<g id="edge14" class="edge"><title>Node13&#45;&gt;Node15</title>
<path fill="none" stroke="midnightblue" d="M320.767,-54.1764C326.285,-52.2517 331.813,-50.1769 337,-48 353.682,-40.9988 356.254,-35.8477 373,-29 381.627,-25.472 391.152,-22.2745 400.143,-19.5514"/>
<polygon fill="midnightblue" stroke="midnightblue" points="319.296,-50.9778 310.922,-57.4684 321.516,-57.6165 319.296,-50.9778"/>
</g>
<!-- Node17 -->
<g id="node17" class="node"><title>Node17</title>
<polygon fill="white" stroke="#bfbfbf" points="0,-95.5 0,-114.5 59,-114.5 59,-95.5 0,-95.5"/>
<text text-anchor="middle" x="29.5" y="-102.5" font-family="Helvetica,sans-Serif" font-size="10.00">exception</text>
</g>
<!-- Node17&#45;&gt;Node2 -->
<g id="edge16" class="edge"><title>Node17&#45;&gt;Node2</title>
<path fill="none" stroke="midnightblue" d="M69.0283,-111.906C77.3582,-113.399 86.2046,-114.985 94.6547,-116.499"/>
<polygon fill="midnightblue" stroke="midnightblue" points="69.6458,-108.461 59.1851,-110.142 68.4107,-115.351 69.6458,-108.461"/>
</g>
</g>
</svg>
