<?xml version="1.0" encoding="UTF-8" standalone="no"?>
<!DOCTYPE svg PUBLIC "-//W3C//DTD SVG 1.1//EN"
 "http://www.w3.org/Graphics/SVG/1.1/DTD/svg11.dtd">
<!-- Generated by graphviz version 2.38.0 (20140413.2041)
 -->
<!-- Title: headers/IO.h Pages: 1 -->
<svg width="612pt" height="84pt"
 viewBox="0.00 0.00 612.00 84.00" xmlns="http://www.w3.org/2000/svg" xmlns:xlink="http://www.w3.org/1999/xlink">
<g id="graph0" class="graph" transform="scale(1 1) rotate(0) translate(4 80)">
<title>headers/IO.h</title>
<polygon fill="white" stroke="none" points="-4,4 -4,-80 608,-80 608,4 -4,4"/>
<!-- Node1 -->
<g id="node1" class="node"><title>Node1</title>
<polygon fill="#bfbfbf" stroke="black" points="243,-56.5 243,-75.5 316,-75.5 316,-56.5 243,-56.5"/>
<text text-anchor="middle" x="279.5" y="-63.5" font-family="Helvetica,sans-Serif" font-size="10.00">headers/IO.h</text>
</g>
<!-- Node2 -->
<g id="node2" class="node"><title>Node2</title>
<g id="a_node2"><a xlink:href="IO_8cpp_source.html" target="_top" xlink:title="src/io/IO.cpp">
<polygon fill="white" stroke="black" points="0,-0.5 0,-19.5 73,-19.5 73,-0.5 0,-0.5"/>
<text text-anchor="middle" x="36.5" y="-7.5" font-family="Helvetica,sans-Serif" font-size="10.00">src/io/IO.cpp</text>
</a>
</g>
</g>
<!-- Node1&#45;&gt;Node2 -->
<g id="edge1" class="edge"><title>Node1&#45;&gt;Node2</title>
<path fill="none" stroke="midnightblue" d="M233.018,-54.6707C186.454,-44.3231 115.738,-28.6085 73.0429,-19.1206"/>
<polygon fill="midnightblue" stroke="midnightblue" points="232.336,-58.1045 242.857,-56.8572 233.855,-51.2711 232.336,-58.1045"/>
</g>
<!-- Node3 -->
<g id="node3" class="node"><title>Node3</title>
<g id="a_node3"><a xlink:href="PHIO_8cpp_source.html" target="_top" xlink:title="src/io/PHIO.cpp">
<polygon fill="white" stroke="black" points="91,-0.5 91,-19.5 178,-19.5 178,-0.5 91,-0.5"/>
<text text-anchor="middle" x="134.5" y="-7.5" font-family="Helvetica,sans-Serif" font-size="10.00">src/io/PHIO.cpp</text>
</a>
</g>
</g>
<!-- Node1&#45;&gt;Node3 -->
<g id="edge2" class="edge"><title>Node1&#45;&gt;Node3</title>
<path fill="none" stroke="midnightblue" d="M247.025,-52.9058C219.764,-42.7536 181.508,-28.5063 157.368,-19.5164"/>
<polygon fill="midnightblue" stroke="midnightblue" points="245.932,-56.2334 256.524,-56.4435 248.375,-49.6736 245.932,-56.2334"/>
</g>
<!-- Node4 -->
<g id="node4" class="node"><title>Node4</title>
<g id="a_node4"><a xlink:href="Main_8cpp.html" target="_top" xlink:title="Principal Program. ">
<polygon fill="white" stroke="black" points="196,-0.5 196,-19.5 269,-19.5 269,-0.5 196,-0.5"/>
<text text-anchor="middle" x="232.5" y="-7.5" font-family="Helvetica,sans-Serif" font-size="10.00">src/Main.cpp</text>
</a>
</g>
</g>
<!-- Node1&#45;&gt;Node4 -->
<g id="edge3" class="edge"><title>Node1&#45;&gt;Node4</title>
<path fill="none" stroke="midnightblue" d="M265.079,-48.4314C256.842,-38.9673 246.846,-27.4827 240.117,-19.7511"/>
<polygon fill="midnightblue" stroke="midnightblue" points="262.534,-50.8378 271.739,-56.083 267.814,-46.2421 262.534,-50.8378"/>
</g>
<!-- Node5 -->
<g id="node5" class="node"><title>Node5</title>
<g id="a_node5"><a xlink:href="Main2_8cpp_source.html" target="_top" xlink:title="src/Main2.cpp">
<polygon fill="white" stroke="black" points="287.5,-0.5 287.5,-19.5 365.5,-19.5 365.5,-0.5 287.5,-0.5"/>
<text text-anchor="middle" x="326.5" y="-7.5" font-family="Helvetica,sans-Serif" font-size="10.00">src/Main2.cpp</text>
</a>
</g>
</g>
<!-- Node1&#45;&gt;Node5 -->
<g id="edge4" class="edge"><title>Node1&#45;&gt;Node5</title>
<path fill="none" stroke="midnightblue" d="M293.921,-48.4314C302.158,-38.9673 312.154,-27.4827 318.883,-19.7511"/>
<polygon fill="midnightblue" stroke="midnightblue" points="291.186,-46.2421 287.261,-56.083 296.466,-50.8378 291.186,-46.2421"/>
</g>
<!-- Node6 -->
<g id="node6" class="node"><title>Node6</title>
<g id="a_node6"><a xlink:href="Area_8cpp_source.html" target="_top" xlink:title="src/ui/Area.cpp">
<polygon fill="white" stroke="black" points="384,-0.5 384,-19.5 467,-19.5 467,-0.5 384,-0.5"/>
<text text-anchor="middle" x="425.5" y="-7.5" font-family="Helvetica,sans-Serif" font-size="10.00">src/ui/Area.cpp</text>
</a>
</g>
</g>
<!-- Node1&#45;&gt;Node6 -->
<g id="edge5" class="edge"><title>Node1&#45;&gt;Node6</title>
<path fill="none" stroke="midnightblue" d="M312.199,-52.9058C339.648,-42.7536 378.168,-28.5063 402.474,-19.5164"/>
<polygon fill="midnightblue" stroke="midnightblue" points="310.799,-49.6919 302.634,-56.4435 313.227,-56.2572 310.799,-49.6919"/>
</g>
<!-- Node7 -->
<g id="node7" class="node"><title>Node7</title>
<g id="a_node7"><a xlink:href="MainWindow_8cpp_source.html" target="_top" xlink:title="src/ui/MainWindow.cpp">
<polygon fill="white" stroke="black" points="485,-0.5 485,-19.5 604,-19.5 604,-0.5 485,-0.5"/>
<text text-anchor="middle" x="544.5" y="-7.5" font-family="Helvetica,sans-Serif" font-size="10.00">src/ui/MainWindow.cpp</text>
</a>
</g>
</g>
<!-- Node1&#45;&gt;Node7 -->
<g id="edge6" class="edge"><title>Node1&#45;&gt;Node7</title>
<path fill="none" stroke="midnightblue" d="M325.961,-55.5325C375.895,-45.3573 454.552,-29.329 502.633,-19.5313"/>
<polygon fill="midnightblue" stroke="midnightblue" points="325.169,-52.1219 316.069,-57.5482 326.566,-58.981 325.169,-52.1219"/>
</g>
</g>
</svg>
