<?xml version="1.0" encoding="UTF-8" standalone="no"?>
<!DOCTYPE svg PUBLIC "-//W3C//DTD SVG 1.1//EN"
 "http://www.w3.org/Graphics/SVG/1.1/DTD/svg11.dtd">
<!-- Generated by graphviz version 2.38.0 (20140413.2041)
 -->
<!-- Title: headers/MainWindow.h Pages: 1 -->
<svg width="901pt" height="140pt"
 viewBox="0.00 0.00 900.50 140.00" xmlns="http://www.w3.org/2000/svg" xmlns:xlink="http://www.w3.org/1999/xlink">
<g id="graph0" class="graph" transform="scale(1 1) rotate(0) translate(4 136)">
<title>headers/MainWindow.h</title>
<polygon fill="white" stroke="none" points="-4,4 -4,-136 896.5,-136 896.5,4 -4,4"/>
<!-- Node1 -->
<g id="node1" class="node"><title>Node1</title>
<polygon fill="#bfbfbf" stroke="black" points="383,-112.5 383,-131.5 502,-131.5 502,-112.5 383,-112.5"/>
<text text-anchor="middle" x="442.5" y="-119.5" font-family="Helvetica,sans-Serif" font-size="10.00">headers/MainWindow.h</text>
</g>
<!-- Node2 -->
<g id="node2" class="node"><title>Node2</title>
<g id="a_node2"><a xlink:href="Area_8h_source.html" target="_top" xlink:title="headers/Area.h">
<polygon fill="white" stroke="black" points="262,-56.5 262,-75.5 345,-75.5 345,-56.5 262,-56.5"/>
<text text-anchor="middle" x="303.5" y="-63.5" font-family="Helvetica,sans-Serif" font-size="10.00">headers/Area.h</text>
</a>
</g>
</g>
<!-- Node1&#45;&gt;Node2 -->
<g id="edge1" class="edge"><title>Node1&#45;&gt;Node2</title>
<path fill="none" stroke="midnightblue" d="M411.024,-108.772C384.915,-98.6287 348.461,-84.4669 325.422,-75.5164"/>
<polygon fill="midnightblue" stroke="midnightblue" points="409.886,-112.085 420.475,-112.444 412.421,-105.56 409.886,-112.085"/>
</g>
<!-- Node5 -->
<g id="node5" class="node"><title>Node5</title>
<g id="a_node5"><a xlink:href="MainWindow_8cpp_source.html" target="_top" xlink:title="src/ui/MainWindow.cpp">
<polygon fill="white" stroke="black" points="0,-0.5 0,-19.5 119,-19.5 119,-0.5 0,-0.5"/>
<text text-anchor="middle" x="59.5" y="-7.5" font-family="Helvetica,sans-Serif" font-size="10.00">src/ui/MainWindow.cpp</text>
</a>
</g>
</g>
<!-- Node1&#45;&gt;Node5 -->
<g id="edge19" class="edge"><title>Node1&#45;&gt;Node5</title>
<path fill="none" stroke="midnightblue" d="M377.408,-110.7C333.456,-102.997 274.397,-91.1885 223.5,-76 169.5,-59.8854 108.402,-33.3564 78.3063,-19.7086"/>
<polygon fill="midnightblue" stroke="midnightblue" points="376.943,-114.171 387.393,-112.424 378.135,-107.273 376.943,-114.171"/>
</g>
<!-- Node6 -->
<g id="node6" class="node"><title>Node6</title>
<g id="a_node6"><a xlink:href="TikzEditor_8cpp_source.html" target="_top" xlink:title="src/ui/TikzEditor.cpp">
<polygon fill="white" stroke="black" points="137,-0.5 137,-19.5 244,-19.5 244,-0.5 137,-0.5"/>
<text text-anchor="middle" x="190.5" y="-7.5" font-family="Helvetica,sans-Serif" font-size="10.00">src/ui/TikzEditor.cpp</text>
</a>
</g>
</g>
<!-- Node1&#45;&gt;Node6 -->
<g id="edge20" class="edge"><title>Node1&#45;&gt;Node6</title>
<path fill="none" stroke="midnightblue" d="M372.413,-114.173C334.909,-108.183 289.054,-96.9674 252.5,-76 227.339,-61.5673 206.011,-33.7941 196.228,-19.6847"/>
<polygon fill="midnightblue" stroke="midnightblue" points="372.346,-117.702 382.755,-115.727 373.387,-110.78 372.346,-117.702"/>
</g>
<!-- Node7 -->
<g id="node7" class="node"><title>Node7</title>
<g id="a_node7"><a xlink:href="PHIO_8h.html" target="_top" xlink:title="header for the PHIO class ">
<polygon fill="white" stroke="black" points="363,-56.5 363,-75.5 450,-75.5 450,-56.5 363,-56.5"/>
<text text-anchor="middle" x="406.5" y="-63.5" font-family="Helvetica,sans-Serif" font-size="10.00">headers/PHIO.h</text>
</a>
</g>
</g>
<!-- Node1&#45;&gt;Node7 -->
<g id="edge6" class="edge"><title>Node1&#45;&gt;Node7</title>
<path fill="none" stroke="midnightblue" d="M430.877,-103.566C424.683,-94.2747 417.332,-83.2484 412.334,-75.7511"/>
<polygon fill="midnightblue" stroke="midnightblue" points="428.096,-105.704 436.555,-112.083 433.92,-101.821 428.096,-105.704"/>
</g>
<!-- Node8 -->
<g id="node8" class="node"><title>Node8</title>
<g id="a_node8"><a xlink:href="Main_8cpp.html" target="_top" xlink:title="Principal Program. ">
<polygon fill="white" stroke="black" points="819,-0.5 819,-19.5 892,-19.5 892,-0.5 819,-0.5"/>
<text text-anchor="middle" x="855.5" y="-7.5" font-family="Helvetica,sans-Serif" font-size="10.00">src/Main.cpp</text>
</a>
</g>
</g>
<!-- Node1&#45;&gt;Node8 -->
<g id="edge15" class="edge"><title>Node1&#45;&gt;Node8</title>
<path fill="none" stroke="midnightblue" d="M452.139,-103.45C461.56,-88.1476 477.404,-66.7633 497.5,-56 620.55,9.90338 671.566,-41.4176 809.5,-20 812.556,-19.5255 815.718,-18.9936 818.887,-18.4318"/>
<polygon fill="midnightblue" stroke="midnightblue" points="448.903,-102.052 446.895,-112.455 454.952,-105.575 448.903,-102.052"/>
</g>
<!-- Node12 -->
<g id="node12" class="node"><title>Node12</title>
<g id="a_node12"><a xlink:href="PH_8cpp_source.html" target="_top" xlink:title="src/ph/PH.cpp">
<polygon fill="white" stroke="black" points="506.5,-56.5 506.5,-75.5 586.5,-75.5 586.5,-56.5 506.5,-56.5"/>
<text text-anchor="middle" x="546.5" y="-63.5" font-family="Helvetica,sans-Serif" font-size="10.00">src/ph/PH.cpp</text>
</a>
</g>
</g>
<!-- Node1&#45;&gt;Node12 -->
<g id="edge16" class="edge"><title>Node1&#45;&gt;Node12</title>
<path fill="none" stroke="midnightblue" d="M468.328,-107.59C487.557,-97.6052 513.245,-84.2672 529.832,-75.6545"/>
<polygon fill="midnightblue" stroke="midnightblue" points="466.471,-104.61 459.209,-112.324 469.697,-110.822 466.471,-104.61"/>
</g>
<!-- Node13 -->
<g id="node13" class="node"><title>Node13</title>
<g id="a_node13"><a xlink:href="ConnectionSettings_8cpp_source.html" target="_top" xlink:title="src/ui/ConnectionSettings.cpp">
<polygon fill="white" stroke="black" points="604.5,-56.5 604.5,-75.5 752.5,-75.5 752.5,-56.5 604.5,-56.5"/>
<text text-anchor="middle" x="678.5" y="-63.5" font-family="Helvetica,sans-Serif" font-size="10.00">src/ui/ConnectionSettings.cpp</text>
</a>
</g>
</g>
<!-- Node1&#45;&gt;Node13 -->
<g id="edge17" class="edge"><title>Node1&#45;&gt;Node13</title>
<path fill="none" stroke="midnightblue" d="M489.906,-110.153C534.497,-99.95 600.354,-84.8809 641.28,-75.5164"/>
<polygon fill="midnightblue" stroke="midnightblue" points="488.862,-106.801 479.895,-112.444 490.424,-113.625 488.862,-106.801"/>
</g>
<!-- Node14 -->
<g id="node14" class="node"><title>Node14</title>
<g id="a_node14"><a xlink:href="FunctionForm_8cpp_source.html" target="_top" xlink:title="src/ui/FunctionForm.cpp">
<polygon fill="white" stroke="black" points="770.5,-56.5 770.5,-75.5 892.5,-75.5 892.5,-56.5 770.5,-56.5"/>
<text text-anchor="middle" x="831.5" y="-63.5" font-family="Helvetica,sans-Serif" font-size="10.00">src/ui/FunctionForm.cpp</text>
</a>
</g>
</g>
<!-- Node1&#45;&gt;Node14 -->
<g id="edge18" class="edge"><title>Node1&#45;&gt;Node14</title>
<path fill="none" stroke="midnightblue" d="M512.091,-111.34C585.577,-101.138 700.295,-85.2136 770.398,-75.482"/>
<polygon fill="midnightblue" stroke="midnightblue" points="511.428,-107.898 502.004,-112.74 512.39,-114.831 511.428,-107.898"/>
</g>
<!-- Node3 -->
<g id="node3" class="node"><title>Node3</title>
<g id="a_node3"><a xlink:href="PHIO_8cpp_source.html" target="_top" xlink:title="src/io/PHIO.cpp">
<polygon fill="white" stroke="black" points="363,-0.5 363,-19.5 450,-19.5 450,-0.5 363,-0.5"/>
<text text-anchor="middle" x="406.5" y="-7.5" font-family="Helvetica,sans-Serif" font-size="10.00">src/io/PHIO.cpp</text>
</a>
</g>
</g>
<!-- Node2&#45;&gt;Node3 -->
<g id="edge2" class="edge"><title>Node2&#45;&gt;Node3</title>
<path fill="none" stroke="midnightblue" d="M329.079,-51.5895C348.123,-41.6052 373.564,-28.2672 389.992,-19.6545"/>
<polygon fill="midnightblue" stroke="midnightblue" points="327.28,-48.5808 320.049,-56.324 330.531,-54.7805 327.28,-48.5808"/>
</g>
<!-- Node4 -->
<g id="node4" class="node"><title>Node4</title>
<g id="a_node4"><a xlink:href="Area_8cpp_source.html" target="_top" xlink:title="src/ui/Area.cpp">
<polygon fill="white" stroke="black" points="262,-0.5 262,-19.5 345,-19.5 345,-0.5 262,-0.5"/>
<text text-anchor="middle" x="303.5" y="-7.5" font-family="Helvetica,sans-Serif" font-size="10.00">src/ui/Area.cpp</text>
</a>
</g>
</g>
<!-- Node2&#45;&gt;Node4 -->
<g id="edge3" class="edge"><title>Node2&#45;&gt;Node4</title>
<path fill="none" stroke="midnightblue" d="M303.5,-45.8045C303.5,-36.9102 303.5,-26.7798 303.5,-19.7511"/>
<polygon fill="midnightblue" stroke="midnightblue" points="300,-46.083 303.5,-56.083 307,-46.083 300,-46.083"/>
</g>
<!-- Node2&#45;&gt;Node5 -->
<g id="edge4" class="edge"><title>Node2&#45;&gt;Node5</title>
<path fill="none" stroke="midnightblue" d="M255.068,-54.2815C208.959,-44.0769 140.473,-28.9203 97.9816,-19.5164"/>
<polygon fill="midnightblue" stroke="midnightblue" points="254.317,-57.6999 264.837,-56.4435 255.83,-50.8653 254.317,-57.6999"/>
</g>
<!-- Node2&#45;&gt;Node6 -->
<g id="edge5" class="edge"><title>Node2&#45;&gt;Node6</title>
<path fill="none" stroke="midnightblue" d="M276.497,-52.096C255.386,-42.0073 226.638,-28.2697 208.321,-19.5164"/>
<polygon fill="midnightblue" stroke="midnightblue" points="275.063,-55.2897 285.595,-56.4435 278.081,-48.9738 275.063,-55.2897"/>
</g>
<!-- Node7&#45;&gt;Node3 -->
<g id="edge7" class="edge"><title>Node7&#45;&gt;Node3</title>
<path fill="none" stroke="midnightblue" d="M406.5,-45.8045C406.5,-36.9102 406.5,-26.7798 406.5,-19.7511"/>
<polygon fill="midnightblue" stroke="midnightblue" points="403,-46.083 406.5,-56.083 410,-46.083 403,-46.083"/>
</g>
<!-- Node7&#45;&gt;Node4 -->
<g id="edge11" class="edge"><title>Node7&#45;&gt;Node4</title>
<path fill="none" stroke="midnightblue" d="M380.921,-51.5895C361.877,-41.6052 336.436,-28.2672 320.008,-19.6545"/>
<polygon fill="midnightblue" stroke="midnightblue" points="379.469,-54.7805 389.951,-56.324 382.72,-48.5808 379.469,-54.7805"/>
</g>
<!-- Node7&#45;&gt;Node5 -->
<g id="edge12" class="edge"><title>Node7&#45;&gt;Node5</title>
<path fill="none" stroke="midnightblue" d="M352.915,-55.9275C264.601,-41.7194 174.161,-28.0488 117.005,-19.5183"/>
<polygon fill="midnightblue" stroke="midnightblue" points="352.407,-59.3907 362.837,-57.5274 353.521,-52.4799 352.407,-59.3907"/>
</g>
<!-- Node7&#45;&gt;Node6 -->
<g id="edge14" class="edge"><title>Node7&#45;&gt;Node6</title>
<path fill="none" stroke="midnightblue" d="M362.336,-53.959C321.539,-43.7598 261.787,-28.8217 224.566,-19.5164"/>
<polygon fill="midnightblue" stroke="midnightblue" points="361.724,-57.4136 372.274,-56.4435 363.422,-50.6226 361.724,-57.4136"/>
</g>
<!-- Node7&#45;&gt;Node8 -->
<g id="edge8" class="edge"><title>Node7&#45;&gt;Node8</title>
<path fill="none" stroke="midnightblue" d="M460.09,-56.5854C461.575,-56.384 463.047,-56.1884 464.5,-56 617.386,-36.1741 657.033,-42.8235 809.5,-20 812.558,-19.5422 815.722,-19.022 818.893,-18.468"/>
<polygon fill="midnightblue" stroke="midnightblue" points="459.584,-53.122 450.171,-57.9842 460.562,-60.0534 459.584,-53.122"/>
</g>
<!-- Node9 -->
<g id="node9" class="node"><title>Node9</title>
<g id="a_node9"><a xlink:href="Main2_8cpp_source.html" target="_top" xlink:title="src/Main2.cpp">
<polygon fill="white" stroke="black" points="588.5,-0.5 588.5,-19.5 666.5,-19.5 666.5,-0.5 588.5,-0.5"/>
<text text-anchor="middle" x="627.5" y="-7.5" font-family="Helvetica,sans-Serif" font-size="10.00">src/Main2.cpp</text>
</a>
</g>
</g>
<!-- Node7&#45;&gt;Node9 -->
<g id="edge9" class="edge"><title>Node7&#45;&gt;Node9</title>
<path fill="none" stroke="midnightblue" d="M451.421,-54.0237C493.168,-43.8232 554.482,-28.8414 592.646,-19.5164"/>
<polygon fill="midnightblue" stroke="midnightblue" points="450.402,-50.6699 441.518,-56.4435 452.063,-57.4698 450.402,-50.6699"/>
</g>
<!-- Node10 -->
<g id="node10" class="node"><title>Node10</title>
<g id="a_node10"><a xlink:href="PHIOTest_8cpp_source.html" target="_top" xlink:title="src/test/PHIOTest.cpp">
<polygon fill="white" stroke="black" points="684.5,-0.5 684.5,-19.5 800.5,-19.5 800.5,-0.5 684.5,-0.5"/>
<text text-anchor="middle" x="742.5" y="-7.5" font-family="Helvetica,sans-Serif" font-size="10.00">src/test/PHIOTest.cpp</text>
</a>
</g>
</g>
<!-- Node7&#45;&gt;Node10 -->
<g id="edge10" class="edge"><title>Node7&#45;&gt;Node10</title>
<path fill="none" stroke="midnightblue" d="M460.209,-56.3683C523.198,-46.2449 626.949,-29.5707 689.591,-19.5032"/>
<polygon fill="midnightblue" stroke="midnightblue" points="459.4,-52.9533 450.082,-57.9958 460.51,-59.8646 459.4,-52.9533"/>
</g>
<!-- Node11 -->
<g id="node11" class="node"><title>Node11</title>
<g id="a_node11"><a xlink:href="TextArea_8cpp_source.html" target="_top" xlink:title="src/ui/TextArea.cpp">
<polygon fill="white" stroke="black" points="468.5,-0.5 468.5,-19.5 570.5,-19.5 570.5,-0.5 468.5,-0.5"/>
<text text-anchor="middle" x="519.5" y="-7.5" font-family="Helvetica,sans-Serif" font-size="10.00">src/ui/TextArea.cpp</text>
</a>
</g>
</g>
<!-- Node7&#45;&gt;Node11 -->
<g id="edge13" class="edge"><title>Node7&#45;&gt;Node11</title>
<path fill="none" stroke="midnightblue" d="M433.503,-52.096C454.614,-42.0073 483.362,-28.2697 501.679,-19.5164"/>
<polygon fill="midnightblue" stroke="midnightblue" points="431.919,-48.9738 424.405,-56.4435 434.937,-55.2897 431.919,-48.9738"/>
</g>
</g>
</svg>
