<?xml version="1.0" encoding="UTF-8" standalone="no"?>
<!DOCTYPE svg PUBLIC "-//W3C//DTD SVG 1.1//EN"
 "http://www.w3.org/Graphics/SVG/1.1/DTD/svg11.dtd">
<!-- Generated by graphviz version 2.38.0 (20140413.2041)
 -->
<!-- Title: headers/MyArea.h Pages: 1 -->
<svg width="940pt" height="196pt"
 viewBox="0.00 0.00 939.50 196.00" xmlns="http://www.w3.org/2000/svg" xmlns:xlink="http://www.w3.org/1999/xlink">
<g id="graph0" class="graph" transform="scale(1 1) rotate(0) translate(4 192)">
<title>headers/MyArea.h</title>
<polygon fill="white" stroke="none" points="-4,4 -4,-192 935.5,-192 935.5,4 -4,4"/>
<!-- Node1 -->
<g id="node1" class="node"><title>Node1</title>
<polygon fill="#bfbfbf" stroke="black" points="397.5,-168.5 397.5,-187.5 493.5,-187.5 493.5,-168.5 397.5,-168.5"/>
<text text-anchor="middle" x="445.5" y="-175.5" font-family="Helvetica,sans-Serif" font-size="10.00">headers/MyArea.h</text>
</g>
<!-- Node2 -->
<g id="node2" class="node"><title>Node2</title>
<g id="a_node2"><a xlink:href="TreeArea_8h_source.html" target="_top" xlink:title="headers/TreeArea.h">
<polygon fill="white" stroke="black" points="214.5,-112.5 214.5,-131.5 316.5,-131.5 316.5,-112.5 214.5,-112.5"/>
<text text-anchor="middle" x="265.5" y="-119.5" font-family="Helvetica,sans-Serif" font-size="10.00">headers/TreeArea.h</text>
</a>
</g>
</g>
<!-- Node1&#45;&gt;Node2 -->
<g id="edge1" class="edge"><title>Node1&#45;&gt;Node2</title>
<path fill="none" stroke="midnightblue" d="M407.392,-165.568C373.437,-155.381 324.511,-140.703 293.888,-131.516"/>
<polygon fill="midnightblue" stroke="midnightblue" points="406.394,-168.922 416.978,-168.444 408.406,-162.218 406.394,-168.922"/>
</g>
<!-- Node9 -->
<g id="node9" class="node"><title>Node9</title>
<g id="a_node9"><a xlink:href="MainWindow_8h.html" target="_top" xlink:title="header for the Main class ">
<polygon fill="white" stroke="black" points="386,-112.5 386,-131.5 505,-131.5 505,-112.5 386,-112.5"/>
<text text-anchor="middle" x="445.5" y="-119.5" font-family="Helvetica,sans-Serif" font-size="10.00">headers/MainWindow.h</text>
</a>
</g>
</g>
<!-- Node1&#45;&gt;Node9 -->
<g id="edge8" class="edge"><title>Node1&#45;&gt;Node9</title>
<path fill="none" stroke="midnightblue" d="M445.5,-157.805C445.5,-148.91 445.5,-138.78 445.5,-131.751"/>
<polygon fill="midnightblue" stroke="midnightblue" points="442,-158.083 445.5,-168.083 449,-158.083 442,-158.083"/>
</g>
<!-- Node18 -->
<g id="node18" class="node"><title>Node18</title>
<g id="a_node18"><a xlink:href="MyArea_8cpp_source.html" target="_top" xlink:title="src/ui/MyArea.cpp">
<polygon fill="white" stroke="black" points="523.5,-112.5 523.5,-131.5 619.5,-131.5 619.5,-112.5 523.5,-112.5"/>
<text text-anchor="middle" x="571.5" y="-119.5" font-family="Helvetica,sans-Serif" font-size="10.00">src/ui/MyArea.cpp</text>
</a>
</g>
</g>
<!-- Node1&#45;&gt;Node18 -->
<g id="edge25" class="edge"><title>Node1&#45;&gt;Node18</title>
<path fill="none" stroke="midnightblue" d="M474.66,-164.503C498.281,-154.38 530.928,-140.388 551.628,-131.516"/>
<polygon fill="midnightblue" stroke="midnightblue" points="473.278,-161.287 465.465,-168.444 476.035,-167.721 473.278,-161.287"/>
</g>
<!-- Node3 -->
<g id="node3" class="node"><title>Node3</title>
<g id="a_node3"><a xlink:href="Area_8h_source.html" target="_top" xlink:title="headers/Area.h">
<polygon fill="white" stroke="black" points="224,-56.5 224,-75.5 307,-75.5 307,-56.5 224,-56.5"/>
<text text-anchor="middle" x="265.5" y="-63.5" font-family="Helvetica,sans-Serif" font-size="10.00">headers/Area.h</text>
</a>
</g>
</g>
<!-- Node2&#45;&gt;Node3 -->
<g id="edge2" class="edge"><title>Node2&#45;&gt;Node3</title>
<path fill="none" stroke="midnightblue" d="M265.5,-101.805C265.5,-92.9102 265.5,-82.7798 265.5,-75.7511"/>
<polygon fill="midnightblue" stroke="midnightblue" points="262,-102.083 265.5,-112.083 269,-102.083 262,-102.083"/>
</g>
<!-- Node8 -->
<g id="node8" class="node"><title>Node8</title>
<g id="a_node8"><a xlink:href="TreeArea_8cpp_source.html" target="_top" xlink:title="src/ui/TreeArea.cpp">
<polygon fill="white" stroke="black" points="103.5,-56.5 103.5,-75.5 205.5,-75.5 205.5,-56.5 103.5,-56.5"/>
<text text-anchor="middle" x="154.5" y="-63.5" font-family="Helvetica,sans-Serif" font-size="10.00">src/ui/TreeArea.cpp</text>
</a>
</g>
</g>
<!-- Node2&#45;&gt;Node8 -->
<g id="edge7" class="edge"><title>Node2&#45;&gt;Node8</title>
<path fill="none" stroke="midnightblue" d="M238.495,-107.862C217.912,-97.8492 190.155,-84.3458 172.29,-75.6545"/>
<polygon fill="midnightblue" stroke="midnightblue" points="237.142,-111.097 247.666,-112.324 240.205,-104.802 237.142,-111.097"/>
</g>
<!-- Node4 -->
<g id="node4" class="node"><title>Node4</title>
<g id="a_node4"><a xlink:href="PHIO_8cpp_source.html" target="_top" xlink:title="src/io/PHIO.cpp">
<polygon fill="white" stroke="black" points="0,-0.5 0,-19.5 87,-19.5 87,-0.5 0,-0.5"/>
<text text-anchor="middle" x="43.5" y="-7.5" font-family="Helvetica,sans-Serif" font-size="10.00">src/io/PHIO.cpp</text>
</a>
</g>
</g>
<!-- Node3&#45;&gt;Node4 -->
<g id="edge3" class="edge"><title>Node3&#45;&gt;Node4</title>
<path fill="none" stroke="midnightblue" d="M220.375,-54.0237C178.44,-43.8232 116.848,-28.8414 78.512,-19.5164"/>
<polygon fill="midnightblue" stroke="midnightblue" points="219.78,-57.4808 230.323,-56.4435 221.434,-50.6791 219.78,-57.4808"/>
</g>
<!-- Node5 -->
<g id="node5" class="node"><title>Node5</title>
<g id="a_node5"><a xlink:href="Area_8cpp_source.html" target="_top" xlink:title="src/ui/Area.cpp">
<polygon fill="white" stroke="black" points="105,-0.5 105,-19.5 188,-19.5 188,-0.5 105,-0.5"/>
<text text-anchor="middle" x="146.5" y="-7.5" font-family="Helvetica,sans-Serif" font-size="10.00">src/ui/Area.cpp</text>
</a>
</g>
</g>
<!-- Node3&#45;&gt;Node5 -->
<g id="edge4" class="edge"><title>Node3&#45;&gt;Node5</title>
<path fill="none" stroke="midnightblue" d="M237.363,-52.2321C215.104,-42.1312 184.644,-28.3091 165.268,-19.5164"/>
<polygon fill="midnightblue" stroke="midnightblue" points="236.091,-55.4984 246.644,-56.4435 238.984,-49.124 236.091,-55.4984"/>
</g>
<!-- Node6 -->
<g id="node6" class="node"><title>Node6</title>
<g id="a_node6"><a xlink:href="MainWindow_8cpp_source.html" target="_top" xlink:title="src/ui/MainWindow.cpp">
<polygon fill="white" stroke="black" points="206,-0.5 206,-19.5 325,-19.5 325,-0.5 206,-0.5"/>
<text text-anchor="middle" x="265.5" y="-7.5" font-family="Helvetica,sans-Serif" font-size="10.00">src/ui/MainWindow.cpp</text>
</a>
</g>
</g>
<!-- Node3&#45;&gt;Node6 -->
<g id="edge5" class="edge"><title>Node3&#45;&gt;Node6</title>
<path fill="none" stroke="midnightblue" d="M265.5,-45.8045C265.5,-36.9102 265.5,-26.7798 265.5,-19.7511"/>
<polygon fill="midnightblue" stroke="midnightblue" points="262,-46.083 265.5,-56.083 269,-46.083 262,-46.083"/>
</g>
<!-- Node7 -->
<g id="node7" class="node"><title>Node7</title>
<g id="a_node7"><a xlink:href="TikzEditor_8cpp_source.html" target="_top" xlink:title="src/ui/TikzEditor.cpp">
<polygon fill="white" stroke="black" points="343,-0.5 343,-19.5 450,-19.5 450,-0.5 343,-0.5"/>
<text text-anchor="middle" x="396.5" y="-7.5" font-family="Helvetica,sans-Serif" font-size="10.00">src/ui/TikzEditor.cpp</text>
</a>
</g>
</g>
<!-- Node3&#45;&gt;Node7 -->
<g id="edge6" class="edge"><title>Node3&#45;&gt;Node7</title>
<path fill="none" stroke="midnightblue" d="M295.817,-52.503C320.376,-42.3795 354.318,-28.388 375.84,-19.5164"/>
<polygon fill="midnightblue" stroke="midnightblue" points="294.169,-49.3966 286.257,-56.4435 296.837,-55.8683 294.169,-49.3966"/>
</g>
<!-- Node9&#45;&gt;Node3 -->
<g id="edge9" class="edge"><title>Node9&#45;&gt;Node3</title>
<path fill="none" stroke="midnightblue" d="M407.392,-109.568C373.437,-99.381 324.511,-84.7034 293.888,-75.5164"/>
<polygon fill="midnightblue" stroke="midnightblue" points="406.394,-112.922 416.978,-112.444 408.406,-106.218 406.394,-112.922"/>
</g>
<!-- Node9&#45;&gt;Node6 -->
<g id="edge23" class="edge"><title>Node9&#45;&gt;Node6</title>
<path fill="none" stroke="midnightblue" d="M422.605,-107.009C384.822,-83.919 310.517,-38.5104 279.559,-19.5914"/>
<polygon fill="midnightblue" stroke="midnightblue" points="421.018,-110.14 431.376,-112.368 424.668,-104.167 421.018,-110.14"/>
</g>
<!-- Node9&#45;&gt;Node7 -->
<g id="edge24" class="edge"><title>Node9&#45;&gt;Node7</title>
<path fill="none" stroke="midnightblue" d="M420.778,-106.9C409.968,-99.2784 398.42,-88.7928 392.5,-76 383.953,-57.5309 389.403,-32.8989 393.392,-19.9015"/>
<polygon fill="midnightblue" stroke="midnightblue" points="418.882,-109.842 429.166,-112.387 422.714,-103.984 418.882,-109.842"/>
</g>
<!-- Node10 -->
<g id="node10" class="node"><title>Node10</title>
<g id="a_node10"><a xlink:href="PHIO_8h.html" target="_top" xlink:title="header for the PHIO class ">
<polygon fill="white" stroke="black" points="402,-56.5 402,-75.5 489,-75.5 489,-56.5 402,-56.5"/>
<text text-anchor="middle" x="445.5" y="-63.5" font-family="Helvetica,sans-Serif" font-size="10.00">headers/PHIO.h</text>
</a>
</g>
</g>
<!-- Node9&#45;&gt;Node10 -->
<g id="edge10" class="edge"><title>Node9&#45;&gt;Node10</title>
<path fill="none" stroke="midnightblue" d="M445.5,-101.805C445.5,-92.9102 445.5,-82.7798 445.5,-75.7511"/>
<polygon fill="midnightblue" stroke="midnightblue" points="442,-102.083 445.5,-112.083 449,-102.083 442,-102.083"/>
</g>
<!-- Node11 -->
<g id="node11" class="node"><title>Node11</title>
<g id="a_node11"><a xlink:href="Main_8cpp.html" target="_top" xlink:title="Principal Program. ">
<polygon fill="white" stroke="black" points="819,-0.5 819,-19.5 892,-19.5 892,-0.5 819,-0.5"/>
<text text-anchor="middle" x="855.5" y="-7.5" font-family="Helvetica,sans-Serif" font-size="10.00">src/Main.cpp</text>
</a>
</g>
</g>
<!-- Node9&#45;&gt;Node11 -->
<g id="edge19" class="edge"><title>Node9&#45;&gt;Node11</title>
<path fill="none" stroke="midnightblue" d="M462.152,-105.197C479.335,-89.8948 507.631,-67.3864 536.5,-56 650.348,-11.0967 688.722,-39.7591 809.5,-20 812.552,-19.5007 815.711,-18.9514 818.879,-18.3779"/>
<polygon fill="midnightblue" stroke="midnightblue" points="459.675,-102.72 454.656,-112.05 464.398,-107.886 459.675,-102.72"/>
</g>
<!-- Node15 -->
<g id="node15" class="node"><title>Node15</title>
<g id="a_node15"><a xlink:href="PH_8cpp_source.html" target="_top" xlink:title="src/ph/PH.cpp">
<polygon fill="white" stroke="black" points="545.5,-56.5 545.5,-75.5 625.5,-75.5 625.5,-56.5 545.5,-56.5"/>
<text text-anchor="middle" x="585.5" y="-63.5" font-family="Helvetica,sans-Serif" font-size="10.00">src/ph/PH.cpp</text>
</a>
</g>
</g>
<!-- Node9&#45;&gt;Node15 -->
<g id="edge20" class="edge"><title>Node9&#45;&gt;Node15</title>
<path fill="none" stroke="midnightblue" d="M477.202,-108.772C503.5,-98.6287 540.216,-84.4669 563.42,-75.5164"/>
<polygon fill="midnightblue" stroke="midnightblue" points="475.754,-105.579 467.683,-112.444 478.273,-112.11 475.754,-105.579"/>
</g>
<!-- Node16 -->
<g id="node16" class="node"><title>Node16</title>
<g id="a_node16"><a xlink:href="ConnectionSettings_8cpp_source.html" target="_top" xlink:title="src/ui/ConnectionSettings.cpp">
<polygon fill="white" stroke="black" points="643.5,-56.5 643.5,-75.5 791.5,-75.5 791.5,-56.5 643.5,-56.5"/>
<text text-anchor="middle" x="717.5" y="-63.5" font-family="Helvetica,sans-Serif" font-size="10.00">src/ui/ConnectionSettings.cpp</text>
</a>
</g>
</g>
<!-- Node9&#45;&gt;Node16 -->
<g id="edge21" class="edge"><title>Node9&#45;&gt;Node16</title>
<path fill="none" stroke="midnightblue" d="M498.523,-110.473C549.929,-100.268 626.937,-84.9794 674.602,-75.5164"/>
<polygon fill="midnightblue" stroke="midnightblue" points="497.726,-107.063 488.599,-112.444 499.089,-113.929 497.726,-107.063"/>
</g>
<!-- Node17 -->
<g id="node17" class="node"><title>Node17</title>
<g id="a_node17"><a xlink:href="FunctionForm_8cpp_source.html" target="_top" xlink:title="src/ui/FunctionForm.cpp">
<polygon fill="white" stroke="black" points="809.5,-56.5 809.5,-75.5 931.5,-75.5 931.5,-56.5 809.5,-56.5"/>
<text text-anchor="middle" x="870.5" y="-63.5" font-family="Helvetica,sans-Serif" font-size="10.00">src/ui/FunctionForm.cpp</text>
</a>
</g>
</g>
<!-- Node9&#45;&gt;Node17 -->
<g id="edge22" class="edge"><title>Node9&#45;&gt;Node17</title>
<path fill="none" stroke="midnightblue" d="M515.516,-111.875C643.253,-95.5267 676.637,-91.7582 800.5,-76 803.417,-75.6289 806.403,-75.2482 809.418,-74.8631"/>
<polygon fill="midnightblue" stroke="midnightblue" points="514.811,-108.436 505.337,-113.178 515.701,-115.38 514.811,-108.436"/>
</g>
<!-- Node10&#45;&gt;Node4 -->
<g id="edge11" class="edge"><title>Node10&#45;&gt;Node4</title>
<path fill="none" stroke="midnightblue" d="M391.6,-58.808C322.781,-50.7325 200.083,-35.766 95.5,-20 92.7821,-19.5903 89.9871,-19.153 87.1704,-18.7002"/>
<polygon fill="midnightblue" stroke="midnightblue" points="391.424,-62.3111 401.763,-59.9963 392.237,-55.3585 391.424,-62.3111"/>
</g>
<!-- Node10&#45;&gt;Node5 -->
<g id="edge15" class="edge"><title>Node10&#45;&gt;Node5</title>
<path fill="none" stroke="midnightblue" d="M391.551,-55.2567C333.092,-44.6988 241.079,-28.0811 188.005,-18.4958"/>
<polygon fill="midnightblue" stroke="midnightblue" points="391.24,-58.757 401.703,-57.0901 392.484,-51.8685 391.24,-58.757"/>
</g>
<!-- Node10&#45;&gt;Node6 -->
<g id="edge16" class="edge"><title>Node10&#45;&gt;Node6</title>
<path fill="none" stroke="midnightblue" d="M407.392,-53.5677C373.437,-43.381 324.511,-28.7034 293.888,-19.5164"/>
<polygon fill="midnightblue" stroke="midnightblue" points="406.394,-56.9224 416.978,-56.4435 408.406,-50.2176 406.394,-56.9224"/>
</g>
<!-- Node10&#45;&gt;Node7 -->
<g id="edge18" class="edge"><title>Node10&#45;&gt;Node7</title>
<path fill="none" stroke="midnightblue" d="M430.466,-48.4314C421.878,-38.9673 411.457,-27.4827 404.441,-19.7511"/>
<polygon fill="midnightblue" stroke="midnightblue" points="428.097,-51.0293 437.409,-56.083 433.281,-46.3254 428.097,-51.0293"/>
</g>
<!-- Node10&#45;&gt;Node11 -->
<g id="edge12" class="edge"><title>Node10&#45;&gt;Node11</title>
<path fill="none" stroke="midnightblue" d="M499.093,-56.6109C500.577,-56.402 502.049,-56.1979 503.5,-56 639.182,-37.498 674.207,-41.1622 809.5,-20 812.555,-19.5221 815.717,-18.9878 818.886,-18.4244"/>
<polygon fill="midnightblue" stroke="midnightblue" points="498.575,-53.1494 489.179,-58.0458 499.577,-60.0772 498.575,-53.1494"/>
</g>
<!-- Node12 -->
<g id="node12" class="node"><title>Node12</title>
<g id="a_node12"><a xlink:href="Main2_8cpp_source.html" target="_top" xlink:title="src/Main2.cpp">
<polygon fill="white" stroke="black" points="468.5,-0.5 468.5,-19.5 546.5,-19.5 546.5,-0.5 468.5,-0.5"/>
<text text-anchor="middle" x="507.5" y="-7.5" font-family="Helvetica,sans-Serif" font-size="10.00">src/Main2.cpp</text>
</a>
</g>
</g>
<!-- Node10&#45;&gt;Node12 -->
<g id="edge13" class="edge"><title>Node10&#45;&gt;Node12</title>
<path fill="none" stroke="midnightblue" d="M463.254,-49.5372C474.308,-39.9087 488.131,-27.8694 497.357,-19.8339"/>
<polygon fill="midnightblue" stroke="midnightblue" points="460.703,-47.1168 455.461,-56.324 465.301,-52.3954 460.703,-47.1168"/>
</g>
<!-- Node13 -->
<g id="node13" class="node"><title>Node13</title>
<g id="a_node13"><a xlink:href="PHIOTest_8cpp_source.html" target="_top" xlink:title="src/test/PHIOTest.cpp">
<polygon fill="white" stroke="black" points="564.5,-0.5 564.5,-19.5 680.5,-19.5 680.5,-0.5 564.5,-0.5"/>
<text text-anchor="middle" x="622.5" y="-7.5" font-family="Helvetica,sans-Serif" font-size="10.00">src/test/PHIOTest.cpp</text>
</a>
</g>
</g>
<!-- Node10&#45;&gt;Node13 -->
<g id="edge14" class="edge"><title>Node10&#45;&gt;Node13</title>
<path fill="none" stroke="midnightblue" d="M483.403,-53.4363C516.775,-43.2551 564.601,-28.664 594.585,-19.5164"/>
<polygon fill="midnightblue" stroke="midnightblue" points="482.09,-50.1777 473.546,-56.4435 484.132,-56.8731 482.09,-50.1777"/>
</g>
<!-- Node14 -->
<g id="node14" class="node"><title>Node14</title>
<g id="a_node14"><a xlink:href="TextArea_8cpp_source.html" target="_top" xlink:title="src/ui/TextArea.cpp">
<polygon fill="white" stroke="black" points="698.5,-0.5 698.5,-19.5 800.5,-19.5 800.5,-0.5 698.5,-0.5"/>
<text text-anchor="middle" x="749.5" y="-7.5" font-family="Helvetica,sans-Serif" font-size="10.00">src/ui/TextArea.cpp</text>
</a>
</g>
</g>
<!-- Node10&#45;&gt;Node14 -->
<g id="edge17" class="edge"><title>Node10&#45;&gt;Node14</title>
<path fill="none" stroke="midnightblue" d="M499.009,-55.4952C556.315,-45.3157 646.425,-29.3094 701.511,-19.5243"/>
<polygon fill="midnightblue" stroke="midnightblue" points="498.29,-52.068 489.056,-57.2631 499.514,-58.9602 498.29,-52.068"/>
</g>
</g>
</svg>
