<?xml version="1.0" encoding="UTF-8" standalone="no"?>
<!DOCTYPE svg PUBLIC "-//W3C//DTD SVG 1.1//EN"
 "http://www.w3.org/Graphics/SVG/1.1/DTD/svg11.dtd">
<!-- Generated by graphviz version 2.38.0 (20140413.2041)
 -->
<!-- Title: headers/PH.h Pages: 1 -->
<svg width="1813pt" height="364pt"
 viewBox="0.00 0.00 1812.50 364.00" xmlns="http://www.w3.org/2000/svg" xmlns:xlink="http://www.w3.org/1999/xlink">
<g id="graph0" class="graph" transform="scale(1 1) rotate(0) translate(4 360)">
<title>headers/PH.h</title>
<polygon fill="white" stroke="none" points="-4,4 -4,-360 1808.5,-360 1808.5,4 -4,4"/>
<!-- Node1 -->
<g id="node1" class="node"><title>Node1</title>
<polygon fill="#bfbfbf" stroke="black" points="547.5,-336.5 547.5,-355.5 624.5,-355.5 624.5,-336.5 547.5,-336.5"/>
<text text-anchor="middle" x="586" y="-343.5" font-family="Helvetica,sans-Serif" font-size="10.00">headers/PH.h</text>
</g>
<!-- Node2 -->
<g id="node2" class="node"><title>Node2</title>
<polygon fill="white" stroke="#bfbfbf" points="131.5,-0.5 131.5,-19.5 160.5,-19.5 160.5,-0.5 131.5,-0.5"/>
<text text-anchor="middle" x="146" y="-7.5" font-family="Helvetica,sans-Serif" font-size="10.00">list</text>
</g>
<!-- Node1&#45;&gt;Node2 -->
<g id="edge1" class="edge"><title>Node1&#45;&gt;Node2</title>
<path fill="none" stroke="midnightblue" d="M547.307,-343.601C448.434,-339.672 188.571,-327.012 107,-300 54.1783,-282.508 0,-290.643 0,-235 0,-235 0,-235 0,-121 0,-60.731 80.3436,-29.3468 121.83,-17.1586"/>
<polygon fill="midnightblue" stroke="midnightblue" points="122.777,-20.5281 131.467,-14.4676 120.894,-13.786 122.777,-20.5281"/>
</g>
<!-- Node3 -->
<g id="node3" class="node"><title>Node3</title>
<polygon fill="white" stroke="#bfbfbf" points="650.5,-56.5 650.5,-75.5 685.5,-75.5 685.5,-56.5 650.5,-56.5"/>
<text text-anchor="middle" x="668" y="-63.5" font-family="Helvetica,sans-Serif" font-size="10.00">map</text>
</g>
<!-- Node1&#45;&gt;Node3 -->
<g id="edge2" class="edge"><title>Node1&#45;&gt;Node3</title>
<path fill="none" stroke="midnightblue" d="M575.858,-336.139C539.687,-303.492 422.281,-187.89 482,-112 491.834,-99.5035 590.988,-80.53 640.364,-71.7565"/>
<polygon fill="midnightblue" stroke="midnightblue" points="641.131,-75.1754 650.374,-69.9966 639.919,-68.2812 641.131,-75.1754"/>
</g>
<!-- Node4 -->
<g id="node4" class="node"><title>Node4</title>
<polygon fill="white" stroke="#bfbfbf" points="542.5,-0.5 542.5,-19.5 583.5,-19.5 583.5,-0.5 542.5,-0.5"/>
<text text-anchor="middle" x="563" y="-7.5" font-family="Helvetica,sans-Serif" font-size="10.00">string</text>
</g>
<!-- Node1&#45;&gt;Node4 -->
<g id="edge3" class="edge"><title>Node1&#45;&gt;Node4</title>
<path fill="none" stroke="midnightblue" d="M547.249,-344.892C428.232,-343.528 76,-331.352 76,-235 76,-235 76,-235 76,-121 76,-84.8221 93.4899,-73.7751 125,-56 194.825,-16.611 444.268,-11.5587 532.116,-11.0187"/>
<polygon fill="midnightblue" stroke="midnightblue" points="532.257,-14.5182 542.24,-10.9726 532.225,-7.5183 532.257,-14.5182"/>
</g>
<!-- Node5 -->
<g id="node5" class="node"><title>Node5</title>
<polygon fill="white" stroke="#bfbfbf" points="1069,-0.5 1069,-19.5 1177,-19.5 1177,-0.5 1069,-0.5"/>
<text text-anchor="middle" x="1123" y="-7.5" font-family="Helvetica,sans-Serif" font-size="10.00">boost/shared_ptr.hpp</text>
</g>
<!-- Node1&#45;&gt;Node5 -->
<g id="edge4" class="edge"><title>Node1&#45;&gt;Node5</title>
<path fill="none" stroke="midnightblue" d="M624.777,-344.128C791.258,-339.88 1437,-318.052 1437,-235 1437,-235 1437,-235 1437,-177 1437,-122.563 1491.82,-96.9891 1456,-56 1421.8,-16.8626 1273.86,-10.4069 1187.1,-10.0979"/>
<polygon fill="midnightblue" stroke="midnightblue" points="1187.1,-6.59803 1177.1,-10.0885 1187.09,-13.598 1187.1,-6.59803"/>
</g>
<!-- Node6 -->
<g id="node6" class="node"><title>Node6</title>
<polygon fill="white" stroke="#bfbfbf" points="1060.5,-56.5 1060.5,-75.5 1181.5,-75.5 1181.5,-56.5 1060.5,-56.5"/>
<text text-anchor="middle" x="1121" y="-63.5" font-family="Helvetica,sans-Serif" font-size="10.00">boost/make_shared.hpp</text>
</g>
<!-- Node1&#45;&gt;Node6 -->
<g id="edge5" class="edge"><title>Node1&#45;&gt;Node6</title>
<path fill="none" stroke="midnightblue" d="M624.691,-343.889C705.357,-339.998 895.116,-322.505 1029,-244 1058.83,-226.511 1065.35,-217.731 1083,-188 1102.69,-154.834 1113.23,-110.402 1117.92,-85.6512"/>
<polygon fill="midnightblue" stroke="midnightblue" points="1121.37,-86.2333 1119.67,-75.7751 1114.48,-85.0082 1121.37,-86.2333"/>
</g>
<!-- Node7 -->
<g id="node7" class="node"><title>Node7</title>
<g id="a_node7"><a xlink:href="Action_8h.html" target="_top" xlink:title="header for the Action class ">
<polygon fill="white" stroke="black" points="754.5,-280.5 754.5,-299.5 807.5,-299.5 807.5,-280.5 754.5,-280.5"/>
<text text-anchor="middle" x="781" y="-287.5" font-family="Helvetica,sans-Serif" font-size="10.00">Action.h</text>
</a>
</g>
</g>
<!-- Node1&#45;&gt;Node7 -->
<g id="edge6" class="edge"><title>Node1&#45;&gt;Node7</title>
<path fill="none" stroke="midnightblue" d="M611.81,-336.444C645.884,-326.397 705.716,-309.825 744.417,-299.712"/>
<polygon fill="midnightblue" stroke="midnightblue" points="745.449,-303.06 754.253,-297.165 743.694,-296.284 745.449,-303.06"/>
</g>
<!-- Node17 -->
<g id="node17" class="node"><title>Node17</title>
<g id="a_node17"><a xlink:href="PHScene_8h.html" target="_top" xlink:title="header for the PHScene class ">
<polygon fill="white" stroke="black" points="552.5,-112.5 552.5,-131.5 619.5,-131.5 619.5,-112.5 552.5,-112.5"/>
<text text-anchor="middle" x="586" y="-119.5" font-family="Helvetica,sans-Serif" font-size="10.00">PHScene.h</text>
</a>
</g>
</g>
<!-- Node1&#45;&gt;Node17 -->
<g id="edge70" class="edge"><title>Node1&#45;&gt;Node17</title>
<path fill="none" stroke="midnightblue" d="M586,-336.297C586,-303.633 586,-187.866 586,-141.957"/>
<polygon fill="midnightblue" stroke="midnightblue" points="589.5,-141.884 586,-131.884 582.5,-141.884 589.5,-141.884"/>
</g>
<!-- Node26 -->
<g id="node26" class="node"><title>Node26</title>
<g id="a_node26"><a xlink:href="Sort_8h.html" target="_top" xlink:title="header for the Sort class ">
<polygon fill="white" stroke="black" points="491.5,-112.5 491.5,-131.5 534.5,-131.5 534.5,-112.5 491.5,-112.5"/>
<text text-anchor="middle" x="513" y="-119.5" font-family="Helvetica,sans-Serif" font-size="10.00">Sort.h</text>
</a>
</g>
</g>
<!-- Node1&#45;&gt;Node26 -->
<g id="edge71" class="edge"><title>Node1&#45;&gt;Node26</title>
<path fill="none" stroke="midnightblue" d="M583.138,-336.297C572.374,-303.563 534.168,-187.375 519.138,-141.666"/>
<polygon fill="midnightblue" stroke="midnightblue" points="522.37,-140.29 515.921,-131.884 515.72,-142.477 522.37,-140.29"/>
</g>
<!-- Node31 -->
<g id="node31" class="node"><title>Node31</title>
<g id="a_node31"><a xlink:href="GVSkeletonGraph_8h.html" target="_top" xlink:title="header for the GVSkeletonGraph class ">
<polygon fill="white" stroke="black" points="1465,-168.5 1465,-187.5 1569,-187.5 1569,-168.5 1465,-168.5"/>
<text text-anchor="middle" x="1517" y="-175.5" font-family="Helvetica,sans-Serif" font-size="10.00">GVSkeletonGraph.h</text>
</a>
</g>
</g>
<!-- Node1&#45;&gt;Node31 -->
<g id="edge61" class="edge"><title>Node1&#45;&gt;Node31</title>
<path fill="none" stroke="midnightblue" d="M624.518,-345.183C783.093,-345.646 1380.44,-344.403 1451,-300 1487.85,-276.812 1505.65,-225.47 1512.88,-197.702"/>
<polygon fill="midnightblue" stroke="midnightblue" points="1516.34,-198.243 1515.28,-187.702 1509.54,-196.607 1516.34,-198.243"/>
</g>
<!-- Node7&#45;&gt;Node1 -->
<g id="edge10" class="edge"><title>Node7&#45;&gt;Node1</title>
<path fill="none" stroke="midnightblue" d="M755.326,-299.516C723.907,-308.782 670.449,-323.633 631.929,-333.829"/>
<polygon fill="midnightblue" stroke="midnightblue" points="630.768,-330.515 621.987,-336.444 632.548,-337.285 630.768,-330.515"/>
</g>
<!-- Node7&#45;&gt;Node4 -->
<g id="edge8" class="edge"><title>Node7&#45;&gt;Node4</title>
<path fill="none" stroke="midnightblue" d="M754.232,-284.733C640.93,-266.044 203.41,-187.351 133,-76 128.249,-68.4871 127.051,-62.6044 133,-56 159.696,-26.3643 438.505,-14.9187 532.361,-11.8875"/>
<polygon fill="midnightblue" stroke="midnightblue" points="532.478,-15.3857 542.364,-11.574 532.259,-8.3891 532.478,-15.3857"/>
</g>
<!-- Node7&#45;&gt;Node5 -->
<g id="edge7" class="edge"><title>Node7&#45;&gt;Node5</title>
<path fill="none" stroke="midnightblue" d="M807.557,-286.289C853.485,-281.137 950.38,-268.222 1029,-244 1146.13,-207.913 1214.21,-234.769 1281,-132 1296.79,-107.702 1265.34,-65.2943 1255,-56 1236.17,-39.0732 1210.71,-28.4665 1187.16,-21.8409"/>
<polygon fill="midnightblue" stroke="midnightblue" points="1187.77,-18.3834 1177.21,-19.2383 1186,-25.1555 1187.77,-18.3834"/>
</g>
<!-- Node8 -->
<g id="node8" class="node"><title>Node8</title>
<polygon fill="white" stroke="#bfbfbf" points="999,-56.5 999,-75.5 1043,-75.5 1043,-56.5 999,-56.5"/>
<text text-anchor="middle" x="1021" y="-63.5" font-family="Helvetica,sans-Serif" font-size="10.00">vector</text>
</g>
<!-- Node7&#45;&gt;Node8 -->
<g id="edge9" class="edge"><title>Node7&#45;&gt;Node8</title>
<path fill="none" stroke="midnightblue" d="M807.598,-288.877C865.955,-286.989 1004.8,-273.298 1065,-188 1088.4,-154.837 1056.47,-107.839 1035.92,-83.32"/>
<polygon fill="midnightblue" stroke="midnightblue" points="1038.45,-80.8887 1029.24,-75.6443 1033.17,-85.4849 1038.45,-80.8887"/>
</g>
<!-- Node9 -->
<g id="node9" class="node"><title>Node9</title>
<g id="a_node9"><a xlink:href="GAction_8h.html" target="_top" xlink:title="header for the GAction class ">
<polygon fill="white" stroke="black" points="751,-224.5 751,-243.5 811,-243.5 811,-224.5 751,-224.5"/>
<text text-anchor="middle" x="781" y="-231.5" font-family="Helvetica,sans-Serif" font-size="10.00">GAction.h</text>
</a>
</g>
</g>
<!-- Node7&#45;&gt;Node9 -->
<g id="edge11" class="edge"><title>Node7&#45;&gt;Node9</title>
<path fill="none" stroke="midnightblue" d="M775.834,-280.083C774.324,-272.927 773.894,-262.635 774.542,-253.691"/>
<polygon fill="midnightblue" stroke="midnightblue" points="778.015,-254.126 775.869,-243.751 771.077,-253.2 778.015,-254.126"/>
</g>
<!-- Node9&#45;&gt;Node2 -->
<g id="edge14" class="edge"><title>Node9&#45;&gt;Node2</title>
<path fill="none" stroke="midnightblue" d="M750.97,-231.511C687.599,-227.897 535.847,-216.742 412,-188 281.841,-157.793 204.411,-188.935 133,-76 123.992,-61.7548 129.546,-42.5354 135.948,-28.6952"/>
<polygon fill="midnightblue" stroke="midnightblue" points="139.104,-30.21 140.563,-19.7161 132.879,-27.0098 139.104,-30.21"/>
</g>
<!-- Node9&#45;&gt;Node7 -->
<g id="edge27" class="edge"><title>Node9&#45;&gt;Node7</title>
<path fill="none" stroke="midnightblue" d="M786.131,-243.751C787.657,-250.858 788.104,-261.136 787.472,-270.101"/>
<polygon fill="midnightblue" stroke="midnightblue" points="783.993,-269.713 786.166,-280.083 790.934,-270.622 783.993,-269.713"/>
</g>
<!-- Node9&#45;&gt;Node8 -->
<g id="edge60" class="edge"><title>Node9&#45;&gt;Node8</title>
<path fill="none" stroke="midnightblue" d="M804.969,-224.364C827.903,-215.869 863.298,-202.149 893,-188 909.524,-180.128 912.602,-176.132 929,-168 964.658,-150.316 986.758,-163.568 1011,-132 1021.1,-118.853 1022.96,-99.711 1022.68,-85.6031"/>
<polygon fill="midnightblue" stroke="midnightblue" points="1026.17,-85.3647 1022.11,-75.5787 1019.18,-85.7607 1026.17,-85.3647"/>
</g>
<!-- Node10 -->
<g id="node10" class="node"><title>Node10</title>
<polygon fill="white" stroke="#bfbfbf" points="142.5,-56.5 142.5,-75.5 225.5,-75.5 225.5,-56.5 142.5,-56.5"/>
<text text-anchor="middle" x="184" y="-63.5" font-family="Helvetica,sans-Serif" font-size="10.00">QGraphicsItem</text>
</g>
<!-- Node9&#45;&gt;Node10 -->
<g id="edge12" class="edge"><title>Node9&#45;&gt;Node10</title>
<path fill="none" stroke="midnightblue" d="M750.736,-230.155C672.86,-222.11 460.08,-195.522 295,-132 261.08,-118.948 225.426,-96.2202 203.952,-81.3948"/>
<polygon fill="midnightblue" stroke="midnightblue" points="205.859,-78.4573 195.664,-75.5761 201.837,-84.1865 205.859,-78.4573"/>
</g>
<!-- Node11 -->
<g id="node11" class="node"><title>Node11</title>
<polygon fill="white" stroke="#bfbfbf" points="938,-168.5 938,-187.5 1056,-187.5 1056,-168.5 938,-168.5"/>
<text text-anchor="middle" x="997" y="-175.5" font-family="Helvetica,sans-Serif" font-size="10.00">QGraphicsPolygonItem</text>
</g>
<!-- Node9&#45;&gt;Node11 -->
<g id="edge13" class="edge"><title>Node9&#45;&gt;Node11</title>
<path fill="none" stroke="midnightblue" d="M811.034,-225.492C847.951,-216.262 910.892,-200.527 953.199,-189.95"/>
<polygon fill="midnightblue" stroke="midnightblue" points="954.1,-193.333 962.953,-187.512 952.403,-186.542 954.1,-193.333"/>
</g>
<!-- Node12 -->
<g id="node12" class="node"><title>Node12</title>
<polygon fill="white" stroke="#bfbfbf" points="698,-168.5 698,-187.5 738,-187.5 738,-168.5 698,-168.5"/>
<text text-anchor="middle" x="718" y="-175.5" font-family="Helvetica,sans-Serif" font-size="10.00">utility</text>
</g>
<!-- Node9&#45;&gt;Node12 -->
<g id="edge15" class="edge"><title>Node9&#45;&gt;Node12</title>
<path fill="none" stroke="midnightblue" d="M770.878,-224.324C761.474,-216.263 747.256,-204.077 735.931,-194.369"/>
<polygon fill="midnightblue" stroke="midnightblue" points="738.177,-191.684 728.306,-187.834 733.621,-196.999 738.177,-191.684"/>
</g>
<!-- Node13 -->
<g id="node13" class="node"><title>Node13</title>
<g id="a_node13"><a xlink:href="GVEdge_8h.html" target="_top" xlink:title="header for the GVEdge class ">
<polygon fill="white" stroke="black" points="1328,-112.5 1328,-131.5 1390,-131.5 1390,-112.5 1328,-112.5"/>
<text text-anchor="middle" x="1359" y="-119.5" font-family="Helvetica,sans-Serif" font-size="10.00">GVEdge.h</text>
</a>
</g>
</g>
<!-- Node9&#45;&gt;Node13 -->
<g id="edge16" class="edge"><title>Node9&#45;&gt;Node13</title>
<path fill="none" stroke="midnightblue" d="M811.332,-229.749C867.966,-223.445 993.519,-208.37 1098,-188 1177.11,-172.576 1268.2,-148.401 1319.14,-134.288"/>
<polygon fill="midnightblue" stroke="midnightblue" points="1320.39,-137.575 1329.08,-131.521 1318.51,-130.831 1320.39,-137.575"/>
</g>
<!-- Node14 -->
<g id="node14" class="node"><title>Node14</title>
<polygon fill="white" stroke="#bfbfbf" points="1199.5,-56.5 1199.5,-75.5 1246.5,-75.5 1246.5,-56.5 1199.5,-56.5"/>
<text text-anchor="middle" x="1223" y="-63.5" font-family="Helvetica,sans-Serif" font-size="10.00">QPoint</text>
</g>
<!-- Node9&#45;&gt;Node14 -->
<g id="edge59" class="edge"><title>Node9&#45;&gt;Node14</title>
<path fill="none" stroke="midnightblue" d="M811.36,-233.012C864.819,-232.003 978.296,-225.206 1065,-188 1080.64,-181.287 1165.85,-113.189 1204.24,-82.2051"/>
<polygon fill="midnightblue" stroke="midnightblue" points="1206.52,-84.8634 1212.09,-75.8547 1202.12,-79.4197 1206.52,-84.8634"/>
</g>
<!-- Node9&#45;&gt;Node17 -->
<g id="edge20" class="edge"><title>Node9&#45;&gt;Node17</title>
<path fill="none" stroke="midnightblue" d="M755.174,-224.447C734.199,-215.798 704.688,-201.775 680,-188 651.278,-171.974 619.433,-151.426 600.883,-137.768"/>
<polygon fill="midnightblue" stroke="midnightblue" points="602.984,-134.968 592.917,-131.666 598.728,-140.526 602.984,-134.968"/>
</g>
<!-- Node20 -->
<g id="node20" class="node"><title>Node20</title>
<g id="a_node20"><a xlink:href="GSort_8h.html" target="_top" xlink:title="header for the GSort class ">
<polygon fill="white" stroke="black" points="756,-168.5 756,-187.5 806,-187.5 806,-168.5 756,-168.5"/>
<text text-anchor="middle" x="781" y="-175.5" font-family="Helvetica,sans-Serif" font-size="10.00">GSort.h</text>
</a>
</g>
</g>
<!-- Node9&#45;&gt;Node20 -->
<g id="edge28" class="edge"><title>Node9&#45;&gt;Node20</title>
<path fill="none" stroke="midnightblue" d="M781,-224.083C781,-217.006 781,-206.861 781,-197.986"/>
<polygon fill="midnightblue" stroke="midnightblue" points="784.5,-197.751 781,-187.751 777.5,-197.751 784.5,-197.751"/>
</g>
<!-- Node23 -->
<g id="node23" class="node"><title>Node23</title>
<polygon fill="white" stroke="#bfbfbf" points="892.5,-112.5 892.5,-131.5 939.5,-131.5 939.5,-112.5 892.5,-112.5"/>
<text text-anchor="middle" x="916" y="-119.5" font-family="Helvetica,sans-Serif" font-size="10.00">QColor</text>
</g>
<!-- Node9&#45;&gt;Node23 -->
<g id="edge57" class="edge"><title>Node9&#45;&gt;Node23</title>
<path fill="none" stroke="midnightblue" d="M790.858,-224.454C805.4,-211.898 833.524,-187.812 858,-168 870.63,-157.776 885.067,-146.574 896.377,-137.904"/>
<polygon fill="midnightblue" stroke="midnightblue" points="898.513,-140.677 904.335,-131.826 894.264,-135.114 898.513,-140.677"/>
</g>
<!-- Node24 -->
<g id="node24" class="node"><title>Node24</title>
<polygon fill="white" stroke="#bfbfbf" points="958,-112.5 958,-131.5 1002,-131.5 1002,-112.5 958,-112.5"/>
<text text-anchor="middle" x="980" y="-119.5" font-family="Helvetica,sans-Serif" font-size="10.00">QSize</text>
</g>
<!-- Node9&#45;&gt;Node24 -->
<g id="edge58" class="edge"><title>Node9&#45;&gt;Node24</title>
<path fill="none" stroke="midnightblue" d="M795.826,-224.478C817.673,-211.953 859.835,-187.904 896,-168 915.628,-157.197 937.996,-145.231 954.712,-136.356"/>
<polygon fill="midnightblue" stroke="midnightblue" points="956.641,-139.294 963.838,-131.519 953.363,-133.109 956.641,-139.294"/>
</g>
<!-- Node13&#45;&gt;Node14 -->
<g id="edge17" class="edge"><title>Node13&#45;&gt;Node14</title>
<path fill="none" stroke="midnightblue" d="M1337.45,-112.444C1314.97,-103.517 1279.51,-89.4387 1254.02,-79.3168"/>
<polygon fill="midnightblue" stroke="midnightblue" points="1255.03,-75.9539 1244.45,-75.5164 1252.45,-82.4598 1255.03,-75.9539"/>
</g>
<!-- Node15 -->
<g id="node15" class="node"><title>Node15</title>
<polygon fill="white" stroke="#bfbfbf" points="1397,-56.5 1397,-75.5 1447,-75.5 1447,-56.5 1397,-56.5"/>
<text text-anchor="middle" x="1422" y="-63.5" font-family="Helvetica,sans-Serif" font-size="10.00">QString</text>
</g>
<!-- Node13&#45;&gt;Node15 -->
<g id="edge18" class="edge"><title>Node13&#45;&gt;Node15</title>
<path fill="none" stroke="midnightblue" d="M1369.12,-112.324C1378.53,-104.263 1392.74,-92.0765 1404.07,-82.3695"/>
<polygon fill="midnightblue" stroke="midnightblue" points="1406.38,-84.9993 1411.69,-75.8339 1401.82,-79.6844 1406.38,-84.9993"/>
</g>
<!-- Node16 -->
<g id="node16" class="node"><title>Node16</title>
<polygon fill="white" stroke="#bfbfbf" points="1303.5,-56.5 1303.5,-75.5 1378.5,-75.5 1378.5,-56.5 1303.5,-56.5"/>
<text text-anchor="middle" x="1341" y="-63.5" font-family="Helvetica,sans-Serif" font-size="10.00">QPainterPath</text>
</g>
<!-- Node13&#45;&gt;Node16 -->
<g id="edge19" class="edge"><title>Node13&#45;&gt;Node16</title>
<path fill="none" stroke="midnightblue" d="M1356.03,-112.083C1353.62,-104.849 1350.14,-94.4087 1347.13,-85.3968"/>
<polygon fill="midnightblue" stroke="midnightblue" points="1350.4,-84.1311 1343.92,-75.7511 1343.76,-86.3447 1350.4,-84.1311"/>
</g>
<!-- Node17&#45;&gt;Node3 -->
<g id="edge24" class="edge"><title>Node17&#45;&gt;Node3</title>
<path fill="none" stroke="midnightblue" d="M599.175,-112.324C611.847,-103.979 631.233,-91.2122 646.206,-81.3524"/>
<polygon fill="midnightblue" stroke="midnightblue" points="648.431,-84.0776 654.858,-75.6545 644.581,-78.2313 648.431,-84.0776"/>
</g>
<!-- Node17&#45;&gt;Node4 -->
<g id="edge25" class="edge"><title>Node17&#45;&gt;Node4</title>
<path fill="none" stroke="midnightblue" d="M616.369,-112.466C645.052,-103.719 684.986,-89.5208 694,-76 698.931,-68.604 699.164,-63.2347 694,-56 671.379,-24.3104 624.971,-14.7054 593.913,-11.9257"/>
<polygon fill="midnightblue" stroke="midnightblue" points="593.853,-8.4129 583.632,-11.2021 593.361,-15.3956 593.853,-8.4129"/>
</g>
<!-- Node17&#45;&gt;Node5 -->
<g id="edge21" class="edge"><title>Node17&#45;&gt;Node5</title>
<path fill="none" stroke="midnightblue" d="M619.745,-113.621C622.867,-113.034 625.988,-112.483 629,-112 771.19,-89.2239 813.118,-117.536 951,-76 969.652,-70.3813 972.058,-63.5867 990,-56 1020.96,-42.9096 1057.15,-30.8659 1083.96,-22.5389"/>
<polygon fill="midnightblue" stroke="midnightblue" points="1085.21,-25.8158 1093.74,-19.535 1083.16,-19.124 1085.21,-25.8158"/>
</g>
<!-- Node17&#45;&gt;Node9 -->
<g id="edge26" class="edge"><title>Node17&#45;&gt;Node9</title>
<path fill="none" stroke="midnightblue" d="M604.555,-131.666C626.928,-144.58 664.578,-169.352 698,-188 718.638,-199.515 742.645,-211.203 759.701,-219.781"/>
<polygon fill="midnightblue" stroke="midnightblue" points="758.362,-223.027 768.861,-224.447 761.539,-216.789 758.362,-223.027"/>
</g>
<!-- Node18 -->
<g id="node18" class="node"><title>Node18</title>
<polygon fill="white" stroke="#bfbfbf" points="889.5,-56.5 889.5,-75.5 942.5,-75.5 942.5,-56.5 889.5,-56.5"/>
<text text-anchor="middle" x="916" y="-63.5" font-family="Helvetica,sans-Serif" font-size="10.00">QObject</text>
</g>
<!-- Node17&#45;&gt;Node18 -->
<g id="edge22" class="edge"><title>Node17&#45;&gt;Node18</title>
<path fill="none" stroke="midnightblue" d="M619.762,-113.721C622.88,-113.113 625.995,-112.529 629,-112 736.845,-93.0001 767.679,-97.4176 879.357,-75.936"/>
<polygon fill="midnightblue" stroke="midnightblue" points="880.187,-79.3402 889.332,-73.9905 878.847,-72.4696 880.187,-79.3402"/>
</g>
<!-- Node19 -->
<g id="node19" class="node"><title>Node19</title>
<polygon fill="white" stroke="#bfbfbf" points="780.5,-56.5 780.5,-75.5 871.5,-75.5 871.5,-56.5 780.5,-56.5"/>
<text text-anchor="middle" x="826" y="-63.5" font-family="Helvetica,sans-Serif" font-size="10.00">QGraphicsScene</text>
</g>
<!-- Node17&#45;&gt;Node19 -->
<g id="edge23" class="edge"><title>Node17&#45;&gt;Node19</title>
<path fill="none" stroke="midnightblue" d="M619.624,-113.435C660.848,-104.159 731.005,-88.374 777.92,-77.8179"/>
<polygon fill="midnightblue" stroke="midnightblue" points="778.864,-81.1932 787.852,-75.5834 777.327,-74.3639 778.864,-81.1932"/>
</g>
<!-- Node20&#45;&gt;Node8 -->
<g id="edge35" class="edge"><title>Node20&#45;&gt;Node8</title>
<path fill="none" stroke="midnightblue" d="M792.376,-168.383C810.655,-154.861 848.064,-128.502 883,-112 917.905,-95.5124 960.45,-82.6437 988.993,-74.9665"/>
<polygon fill="midnightblue" stroke="midnightblue" points="990.056,-78.3061 998.836,-72.3759 988.274,-71.5367 990.056,-78.3061"/>
</g>
<!-- Node20&#45;&gt;Node14 -->
<g id="edge33" class="edge"><title>Node20&#45;&gt;Node14</title>
<path fill="none" stroke="midnightblue" d="M806.034,-172.983C848.489,-165.974 937.193,-150.482 1011,-132 1075,-115.975 1148.31,-92.2774 1189.79,-78.3603"/>
<polygon fill="midnightblue" stroke="midnightblue" points="1191.02,-81.639 1199.38,-75.1271 1188.79,-75.0059 1191.02,-81.639"/>
</g>
<!-- Node20&#45;&gt;Node17 -->
<g id="edge56" class="edge"><title>Node20&#45;&gt;Node17</title>
<path fill="none" stroke="midnightblue" d="M755.906,-170.051C723.235,-161.004 665.714,-145.075 626.747,-134.284"/>
<polygon fill="midnightblue" stroke="midnightblue" points="627.347,-130.818 616.776,-131.522 625.479,-137.564 627.347,-130.818"/>
</g>
<!-- Node21 -->
<g id="node21" class="node"><title>Node21</title>
<polygon fill="white" stroke="#bfbfbf" points="638,-112.5 638,-131.5 742,-131.5 742,-112.5 638,-112.5"/>
<text text-anchor="middle" x="690" y="-119.5" font-family="Helvetica,sans-Serif" font-size="10.00">QGraphicsRectItem</text>
</g>
<!-- Node20&#45;&gt;Node21 -->
<g id="edge29" class="edge"><title>Node20&#45;&gt;Node21</title>
<path fill="none" stroke="midnightblue" d="M766.379,-168.324C752.051,-159.822 729.987,-146.729 713.251,-136.797"/>
<polygon fill="midnightblue" stroke="midnightblue" points="714.97,-133.748 704.584,-131.655 711.398,-139.768 714.97,-133.748"/>
</g>
<!-- Node22 -->
<g id="node22" class="node"><title>Node22</title>
<polygon fill="white" stroke="#bfbfbf" points="412,-56.5 412,-75.5 514,-75.5 514,-56.5 412,-56.5"/>
<text text-anchor="middle" x="463" y="-63.5" font-family="Helvetica,sans-Serif" font-size="10.00">QGraphicsTextItem</text>
</g>
<!-- Node20&#45;&gt;Node22 -->
<g id="edge30" class="edge"><title>Node20&#45;&gt;Node22</title>
<path fill="none" stroke="midnightblue" d="M755.83,-169.966C752.866,-169.248 749.874,-168.573 747,-168 688.718,-156.374 527.042,-170.771 482,-132 468.793,-120.632 464.51,-100.638 463.245,-85.8182"/>
<polygon fill="midnightblue" stroke="midnightblue" points="466.736,-85.5456 462.767,-75.722 459.744,-85.8762 466.736,-85.5456"/>
</g>
<!-- Node20&#45;&gt;Node23 -->
<g id="edge31" class="edge"><title>Node20&#45;&gt;Node23</title>
<path fill="none" stroke="midnightblue" d="M802.391,-168.444C824.707,-159.517 859.903,-145.439 885.208,-135.317"/>
<polygon fill="midnightblue" stroke="midnightblue" points="886.724,-138.48 894.709,-131.516 884.124,-131.981 886.724,-138.48"/>
</g>
<!-- Node20&#45;&gt;Node24 -->
<g id="edge32" class="edge"><title>Node20&#45;&gt;Node24</title>
<path fill="none" stroke="midnightblue" d="M806.204,-170.301C838.919,-161.584 897.772,-145.83 948,-132 948.101,-131.972 948.202,-131.944 948.303,-131.917"/>
<polygon fill="midnightblue" stroke="midnightblue" points="949.277,-135.279 957.975,-129.229 947.403,-128.534 949.277,-135.279"/>
</g>
<!-- Node25 -->
<g id="node25" class="node"><title>Node25</title>
<polygon fill="white" stroke="#bfbfbf" points="760.5,-112.5 760.5,-131.5 835.5,-131.5 835.5,-112.5 760.5,-112.5"/>
<text text-anchor="middle" x="798" y="-119.5" font-family="Helvetica,sans-Serif" font-size="10.00">QColorDialog</text>
</g>
<!-- Node20&#45;&gt;Node25 -->
<g id="edge34" class="edge"><title>Node20&#45;&gt;Node25</title>
<path fill="none" stroke="midnightblue" d="M783.807,-168.083C786.085,-160.849 789.371,-150.409 792.208,-141.397"/>
<polygon fill="midnightblue" stroke="midnightblue" points="795.581,-142.341 795.245,-131.751 788.904,-140.239 795.581,-142.341"/>
</g>
<!-- Node20&#45;&gt;Node26 -->
<g id="edge36" class="edge"><title>Node20&#45;&gt;Node26</title>
<path fill="none" stroke="midnightblue" d="M755.807,-170.079C752.847,-169.341 749.862,-168.63 747,-168 660.159,-148.879 634.33,-152.947 544.348,-132.102"/>
<polygon fill="midnightblue" stroke="midnightblue" points="545.085,-128.679 534.548,-129.793 543.479,-135.493 545.085,-128.679"/>
</g>
<!-- Node28 -->
<g id="node28" class="node"><title>Node28</title>
<g id="a_node28"><a xlink:href="GVNode_8h.html" target="_top" xlink:title="header for the GVNode class ">
<polygon fill="white" stroke="black" points="1210,-112.5 1210,-131.5 1272,-131.5 1272,-112.5 1210,-112.5"/>
<text text-anchor="middle" x="1241" y="-119.5" font-family="Helvetica,sans-Serif" font-size="10.00">GVNode.h</text>
</a>
</g>
</g>
<!-- Node20&#45;&gt;Node28 -->
<g id="edge46" class="edge"><title>Node20&#45;&gt;Node28</title>
<path fill="none" stroke="midnightblue" d="M806.058,-174.058C881.338,-165.221 1106.04,-138.843 1199.5,-127.871"/>
<polygon fill="midnightblue" stroke="midnightblue" points="1200.19,-131.315 1209.71,-126.673 1199.37,-124.363 1200.19,-131.315"/>
</g>
<!-- Node29 -->
<g id="node29" class="node"><title>Node29</title>
<g id="a_node29"><a xlink:href="GProcess_8h.html" target="_top" xlink:title="header for the GProcess class ">
<polygon fill="white" stroke="black" points="304,-112.5 304,-131.5 372,-131.5 372,-112.5 304,-112.5"/>
<text text-anchor="middle" x="338" y="-119.5" font-family="Helvetica,sans-Serif" font-size="10.00">GProcess.h</text>
</a>
</g>
</g>
<!-- Node20&#45;&gt;Node29 -->
<g id="edge49" class="edge"><title>Node20&#45;&gt;Node29</title>
<path fill="none" stroke="midnightblue" d="M755.844,-169.894C752.878,-169.189 749.881,-168.537 747,-168 677.857,-155.12 473.099,-135.43 382.26,-127.027"/>
<polygon fill="midnightblue" stroke="midnightblue" points="382.558,-123.54 372.279,-126.107 381.915,-130.51 382.558,-123.54"/>
</g>
<!-- Node26&#45;&gt;Node4 -->
<g id="edge37" class="edge"><title>Node26&#45;&gt;Node4</title>
<path fill="none" stroke="midnightblue" d="M534.619,-113.095C558.433,-103.897 594.382,-88.3889 602,-76 612.411,-59.0691 596.964,-39.4917 582.545,-26.2833"/>
<polygon fill="midnightblue" stroke="midnightblue" points="584.683,-23.5059 574.811,-19.6579 580.129,-28.8219 584.683,-23.5059"/>
</g>
<!-- Node26&#45;&gt;Node5 -->
<g id="edge39" class="edge"><title>Node26&#45;&gt;Node5</title>
<path fill="none" stroke="midnightblue" d="M534.588,-114.362C537.41,-113.542 540.269,-112.734 543,-112 609.624,-94.0803 627.053,-92.6731 694,-76 728.31,-67.4552 736.283,-62.6998 771,-56 870.746,-36.7508 988.033,-23.6294 1058.88,-16.7279"/>
<polygon fill="midnightblue" stroke="midnightblue" points="1059.37,-20.197 1068.99,-15.7548 1058.7,-13.2292 1059.37,-20.197"/>
</g>
<!-- Node26&#45;&gt;Node6 -->
<g id="edge40" class="edge"><title>Node26&#45;&gt;Node6</title>
<path fill="none" stroke="midnightblue" d="M534.819,-113.847C537.551,-113.131 540.326,-112.49 543,-112 762.813,-71.766 824.549,-97.8849 1050.26,-76.108"/>
<polygon fill="midnightblue" stroke="midnightblue" points="1050.83,-79.5691 1060.44,-75.1047 1050.15,-72.6029 1050.83,-79.5691"/>
</g>
<!-- Node26&#45;&gt;Node8 -->
<g id="edge38" class="edge"><title>Node26&#45;&gt;Node8</title>
<path fill="none" stroke="midnightblue" d="M534.827,-113.892C537.558,-113.169 540.33,-112.513 543,-112 721.771,-77.6684 770.022,-95.6108 951,-76 963.437,-74.6524 977.087,-72.9482 989.005,-71.3863"/>
<polygon fill="midnightblue" stroke="midnightblue" points="989.506,-74.8504 998.958,-70.0627 988.584,-67.9115 989.506,-74.8504"/>
</g>
<!-- Node27 -->
<g id="node27" class="node"><title>Node27</title>
<g id="a_node27"><a xlink:href="Process_8h.html" target="_top" xlink:title="header for the Process class ">
<polygon fill="white" stroke="black" points="532.5,-56.5 532.5,-75.5 593.5,-75.5 593.5,-56.5 532.5,-56.5"/>
<text text-anchor="middle" x="563" y="-63.5" font-family="Helvetica,sans-Serif" font-size="10.00">Process.h</text>
</a>
</g>
</g>
<!-- Node26&#45;&gt;Node27 -->
<g id="edge41" class="edge"><title>Node26&#45;&gt;Node27</title>
<path fill="none" stroke="midnightblue" d="M516.09,-112.083C521.769,-104.141 532.353,-92.3354 542.168,-82.7973"/>
<polygon fill="midnightblue" stroke="midnightblue" points="544.814,-85.1173 549.766,-75.7511 540.054,-79.9847 544.814,-85.1173"/>
</g>
<!-- Node27&#45;&gt;Node2 -->
<g id="edge44" class="edge"><title>Node27&#45;&gt;Node2</title>
<path fill="none" stroke="midnightblue" d="M532.489,-57.7967C529.294,-57.1438 526.087,-56.53 523,-56 391.203,-33.3683 231.536,-18.346 170.942,-13.0857"/>
<polygon fill="midnightblue" stroke="midnightblue" points="171.072,-9.58406 160.81,-12.2174 170.474,-16.5585 171.072,-9.58406"/>
</g>
<!-- Node27&#45;&gt;Node4 -->
<g id="edge43" class="edge"><title>Node27&#45;&gt;Node4</title>
<path fill="none" stroke="midnightblue" d="M563,-56.083C563,-49.0059 563,-38.8611 563,-29.9865"/>
<polygon fill="midnightblue" stroke="midnightblue" points="566.5,-29.751 563,-19.7511 559.5,-29.7511 566.5,-29.751"/>
</g>
<!-- Node27&#45;&gt;Node5 -->
<g id="edge42" class="edge"><title>Node27&#45;&gt;Node5</title>
<path fill="none" stroke="midnightblue" d="M593.731,-61.2976C608.085,-59.6086 625.408,-57.6271 641,-56 790.458,-40.4026 966.265,-24.6414 1058.71,-16.5537"/>
<polygon fill="midnightblue" stroke="midnightblue" points="1059.09,-20.0338 1068.75,-15.6769 1058.48,-13.0604 1059.09,-20.0338"/>
</g>
<!-- Node27&#45;&gt;Node26 -->
<g id="edge45" class="edge"><title>Node27&#45;&gt;Node26</title>
<path fill="none" stroke="midnightblue" d="M559.969,-75.8339C554.295,-83.7906 543.643,-95.6731 533.78,-105.253"/>
<polygon fill="midnightblue" stroke="midnightblue" points="531.105,-102.96 526.148,-112.324 535.862,-108.095 531.105,-102.96"/>
</g>
<!-- Node28&#45;&gt;Node14 -->
<g id="edge47" class="edge"><title>Node28&#45;&gt;Node14</title>
<path fill="none" stroke="midnightblue" d="M1238.03,-112.083C1235.62,-104.849 1232.14,-94.4087 1229.13,-85.3968"/>
<polygon fill="midnightblue" stroke="midnightblue" points="1232.4,-84.1311 1225.92,-75.7511 1225.76,-86.3447 1232.4,-84.1311"/>
</g>
<!-- Node28&#45;&gt;Node15 -->
<g id="edge48" class="edge"><title>Node28&#45;&gt;Node15</title>
<path fill="none" stroke="midnightblue" d="M1269.68,-112.444C1301.48,-102.957 1352.78,-87.6507 1386.94,-77.4595"/>
<polygon fill="midnightblue" stroke="midnightblue" points="1388.37,-80.6859 1396.95,-74.473 1386.37,-73.9781 1388.37,-80.6859"/>
</g>
<!-- Node29&#45;&gt;Node1 -->
<g id="edge54" class="edge"><title>Node29&#45;&gt;Node1</title>
<path fill="none" stroke="midnightblue" d="M303.937,-130.994C284.5,-137.491 261.731,-148.825 250,-168 219.383,-218.044 211.368,-255.849 250,-300 286.739,-341.987 453.35,-346.465 537.317,-345.963"/>
<polygon fill="midnightblue" stroke="midnightblue" points="537.408,-349.462 547.377,-345.876 537.348,-342.463 537.408,-349.462"/>
</g>
<!-- Node29&#45;&gt;Node2 -->
<g id="edge53" class="edge"><title>Node29&#45;&gt;Node2</title>
<path fill="none" stroke="midnightblue" d="M325.084,-112.425C305.634,-99.6278 267.527,-75.0033 234,-56 212.587,-43.8633 187.543,-31.1998 169.659,-22.41"/>
<polygon fill="midnightblue" stroke="midnightblue" points="171.051,-19.1946 160.529,-17.9533 167.98,-25.4852 171.051,-19.1946"/>
</g>
<!-- Node29&#45;&gt;Node10 -->
<g id="edge50" class="edge"><title>Node29&#45;&gt;Node10</title>
<path fill="none" stroke="midnightblue" d="M313.598,-112.444C287.803,-103.399 246.923,-89.064 217.982,-78.9158"/>
<polygon fill="midnightblue" stroke="midnightblue" points="218.882,-75.5226 208.288,-75.5164 216.566,-82.1283 218.882,-75.5226"/>
</g>
<!-- Node29&#45;&gt;Node22 -->
<g id="edge52" class="edge"><title>Node29&#45;&gt;Node22</title>
<path fill="none" stroke="midnightblue" d="M357.807,-112.444C378.287,-103.596 410.483,-89.6875 433.865,-79.5865"/>
<polygon fill="midnightblue" stroke="midnightblue" points="435.494,-82.6953 443.286,-75.5164 432.718,-76.2692 435.494,-82.6953"/>
</g>
<!-- Node29&#45;&gt;Node27 -->
<g id="edge55" class="edge"><title>Node29&#45;&gt;Node27</title>
<path fill="none" stroke="midnightblue" d="M372.173,-112.799C412.576,-103.102 479.737,-86.9832 522.657,-76.6824"/>
<polygon fill="midnightblue" stroke="midnightblue" points="523.578,-80.0607 532.485,-74.3235 521.945,-73.2539 523.578,-80.0607"/>
</g>
<!-- Node30 -->
<g id="node30" class="node"><title>Node30</title>
<polygon fill="white" stroke="#bfbfbf" points="282,-56.5 282,-75.5 394,-75.5 394,-56.5 282,-56.5"/>
<text text-anchor="middle" x="338" y="-63.5" font-family="Helvetica,sans-Serif" font-size="10.00">QGraphicsEllipseItem</text>
</g>
<!-- Node29&#45;&gt;Node30 -->
<g id="edge51" class="edge"><title>Node29&#45;&gt;Node30</title>
<path fill="none" stroke="midnightblue" d="M338,-112.083C338,-105.006 338,-94.8611 338,-85.9865"/>
<polygon fill="midnightblue" stroke="midnightblue" points="341.5,-85.751 338,-75.7511 334.5,-85.7511 341.5,-85.751"/>
</g>
<!-- Node31&#45;&gt;Node5 -->
<g id="edge63" class="edge"><title>Node31&#45;&gt;Node5</title>
<path fill="none" stroke="midnightblue" d="M1517.99,-168.356C1520.03,-145.958 1522.01,-85.7156 1489,-56 1445.89,-17.1949 1280.43,-10.7787 1187.43,-10.3419"/>
<polygon fill="midnightblue" stroke="midnightblue" points="1187.29,-6.84166 1177.28,-10.3166 1187.28,-13.8416 1187.29,-6.84166"/>
</g>
<!-- Node31&#45;&gt;Node13 -->
<g id="edge69" class="edge"><title>Node31&#45;&gt;Node13</title>
<path fill="none" stroke="midnightblue" d="M1491.96,-168.444C1465.38,-159.359 1423.19,-144.939 1393.48,-134.783"/>
<polygon fill="midnightblue" stroke="midnightblue" points="1394.51,-131.439 1383.92,-131.516 1392.25,-138.062 1394.51,-131.439"/>
</g>
<!-- Node31&#45;&gt;Node15 -->
<g id="edge67" class="edge"><title>Node31&#45;&gt;Node15</title>
<path fill="none" stroke="midnightblue" d="M1509.55,-168.368C1493.73,-150.055 1456.59,-107.049 1436.13,-83.3624"/>
<polygon fill="midnightblue" stroke="midnightblue" points="1438.6,-80.872 1429.42,-75.5914 1433.31,-85.4474 1438.6,-80.872"/>
</g>
<!-- Node31&#45;&gt;Node28 -->
<g id="edge68" class="edge"><title>Node31&#45;&gt;Node28</title>
<path fill="none" stroke="midnightblue" d="M1473.27,-168.444C1420.79,-158.177 1333.49,-141.096 1282.18,-131.057"/>
<polygon fill="midnightblue" stroke="midnightblue" points="1282.59,-127.572 1272.11,-129.086 1281.25,-134.442 1282.59,-127.572"/>
</g>
<!-- Node32 -->
<g id="node32" class="node"><title>Node32</title>
<polygon fill="white" stroke="#bfbfbf" points="1601,-112.5 1601,-131.5 1681,-131.5 1681,-112.5 1601,-112.5"/>
<text text-anchor="middle" x="1641" y="-119.5" font-family="Helvetica,sans-Serif" font-size="10.00">graphviz/gvc.h</text>
</g>
<!-- Node31&#45;&gt;Node32 -->
<g id="edge62" class="edge"><title>Node31&#45;&gt;Node32</title>
<path fill="none" stroke="midnightblue" d="M1536.65,-168.444C1556.96,-159.596 1588.9,-145.687 1612.1,-135.586"/>
<polygon fill="midnightblue" stroke="midnightblue" points="1613.67,-138.718 1621.44,-131.516 1610.88,-132.3 1613.67,-138.718"/>
</g>
<!-- Node33 -->
<g id="node33" class="node"><title>Node33</title>
<polygon fill="white" stroke="#bfbfbf" points="1699,-112.5 1699,-131.5 1743,-131.5 1743,-112.5 1699,-112.5"/>
<text text-anchor="middle" x="1721" y="-119.5" font-family="Helvetica,sans-Serif" font-size="10.00">QFont</text>
</g>
<!-- Node31&#45;&gt;Node33 -->
<g id="edge64" class="edge"><title>Node31&#45;&gt;Node33</title>
<path fill="none" stroke="midnightblue" d="M1550.89,-168.485C1583.84,-160.138 1635.55,-146.867 1689.02,-132.217"/>
<polygon fill="midnightblue" stroke="midnightblue" points="1689.96,-135.59 1698.67,-129.564 1688.1,-128.841 1689.96,-135.59"/>
</g>
<!-- Node34 -->
<g id="node34" class="node"><title>Node34</title>
<polygon fill="white" stroke="#bfbfbf" points="1761.5,-112.5 1761.5,-131.5 1804.5,-131.5 1804.5,-112.5 1761.5,-112.5"/>
<text text-anchor="middle" x="1783" y="-119.5" font-family="Helvetica,sans-Serif" font-size="10.00">QMap</text>
</g>
<!-- Node31&#45;&gt;Node34 -->
<g id="edge65" class="edge"><title>Node31&#45;&gt;Node34</title>
<path fill="none" stroke="midnightblue" d="M1569.1,-168.461C1614.68,-160.667 1682.84,-148.233 1751.29,-131.979"/>
<polygon fill="midnightblue" stroke="midnightblue" points="1752.48,-135.292 1761.39,-129.553 1750.85,-128.486 1752.48,-135.292"/>
</g>
<!-- Node35 -->
<g id="node35" class="node"><title>Node35</title>
<polygon fill="white" stroke="#bfbfbf" points="1541.5,-112.5 1541.5,-131.5 1582.5,-131.5 1582.5,-112.5 1541.5,-112.5"/>
<text text-anchor="middle" x="1562" y="-119.5" font-family="Helvetica,sans-Serif" font-size="10.00">QPair</text>
</g>
<!-- Node31&#45;&gt;Node35 -->
<g id="edge66" class="edge"><title>Node31&#45;&gt;Node35</title>
<path fill="none" stroke="midnightblue" d="M1524.43,-168.083C1530.85,-160.377 1540.31,-149.033 1548.12,-139.653"/>
<polygon fill="midnightblue" stroke="midnightblue" points="1550.99,-141.674 1554.71,-131.751 1545.62,-137.193 1550.99,-141.674"/>
</g>
</g>
</svg>
