<?xml version="1.0" encoding="UTF-8" standalone="no"?>
<!DOCTYPE svg PUBLIC "-//W3C//DTD SVG 1.1//EN"
 "http://www.w3.org/Graphics/SVG/1.1/DTD/svg11.dtd">
<!-- Generated by graphviz version 2.38.0 (20140413.2041)
 -->
<!-- Title: headers/PH.h Pages: 1 -->
<svg width="1447pt" height="364pt"
 viewBox="0.00 0.00 1446.91 364.00" xmlns="http://www.w3.org/2000/svg" xmlns:xlink="http://www.w3.org/1999/xlink">
<g id="graph0" class="graph" transform="scale(1 1) rotate(0) translate(4 360)">
<title>headers/PH.h</title>
<polygon fill="white" stroke="none" points="-4,4 -4,-360 1442.91,-360 1442.91,4 -4,4"/>
<!-- Node1 -->
<g id="node1" class="node"><title>Node1</title>
<polygon fill="#bfbfbf" stroke="black" points="428.408,-336.5 428.408,-355.5 505.408,-355.5 505.408,-336.5 428.408,-336.5"/>
<text text-anchor="middle" x="466.908" y="-343.5" font-family="Helvetica,sans-Serif" font-size="10.00">headers/PH.h</text>
</g>
<!-- Node2 -->
<g id="node2" class="node"><title>Node2</title>
<g id="a_node2"><a xlink:href="Action_8h.html" target="_top" xlink:title="header for the Action class ">
<polygon fill="white" stroke="black" points="294.908,-280.5 294.908,-299.5 384.908,-299.5 384.908,-280.5 294.908,-280.5"/>
<text text-anchor="middle" x="339.908" y="-287.5" font-family="Helvetica,sans-Serif" font-size="10.00">headers/Action.h</text>
</a>
</g>
</g>
<!-- Node1&#45;&gt;Node2 -->
<g id="edge1" class="edge"><title>Node1&#45;&gt;Node2</title>
<path fill="none" stroke="midnightblue" d="M432.393,-332.772C407.016,-322.629 373.936,-308.467 354.857,-299.516"/>
<polygon fill="midnightblue" stroke="midnightblue" points="431.109,-336.028 441.696,-336.444 433.679,-329.517 431.109,-336.028"/>
</g>
<!-- Node7 -->
<g id="node7" class="node"><title>Node7</title>
<g id="a_node7"><a xlink:href="PHScene_8cpp_source.html" target="_top" xlink:title="src/gfx/PHScene.cpp">
<polygon fill="white" stroke="black" points="172.908,-112.5 172.908,-131.5 282.908,-131.5 282.908,-112.5 172.908,-112.5"/>
<text text-anchor="middle" x="227.908" y="-119.5" font-family="Helvetica,sans-Serif" font-size="10.00">src/gfx/PHScene.cpp</text>
</a>
</g>
</g>
<!-- Node1&#45;&gt;Node7 -->
<g id="edge47" class="edge"><title>Node1&#45;&gt;Node7</title>
<path fill="none" stroke="midnightblue" d="M461.359,-326.475C449.67,-290.59 419.113,-211.328 365.908,-168 342.362,-148.825 310.407,-137.731 283.176,-131.36"/>
<polygon fill="midnightblue" stroke="midnightblue" points="458.055,-327.635 464.385,-336.131 464.734,-325.542 458.055,-327.635"/>
</g>
<!-- Node14 -->
<g id="node14" class="node"><title>Node14</title>
<g id="a_node14"><a xlink:href="TikzEditor_8cpp_source.html" target="_top" xlink:title="src/ui/TikzEditor.cpp">
<polygon fill="white" stroke="black" points="477.408,-0.5 477.408,-19.5 584.408,-19.5 584.408,-0.5 477.408,-0.5"/>
<text text-anchor="middle" x="530.908" y="-7.5" font-family="Helvetica,sans-Serif" font-size="10.00">src/ui/TikzEditor.cpp</text>
</a>
</g>
</g>
<!-- Node1&#45;&gt;Node14 -->
<g id="edge50" class="edge"><title>Node1&#45;&gt;Node14</title>
<path fill="none" stroke="midnightblue" d="M481.33,-328.83C508.189,-296.655 560.413,-222.977 528.908,-168 486.291,-93.6322 320.207,-124.365 371.908,-56 384.757,-39.0103 436.201,-26.5892 477.14,-19.1533"/>
<polygon fill="midnightblue" stroke="midnightblue" points="478.673,-326.551 474.815,-336.419 483.984,-331.111 478.673,-326.551"/>
</g>
<!-- Node15 -->
<g id="node15" class="node"><title>Node15</title>
<g id="a_node15"><a xlink:href="PHIO_8h.html" target="_top" xlink:title="header for the PHIO class ">
<polygon fill="white" stroke="black" points="1121.41,-56.5 1121.41,-75.5 1208.41,-75.5 1208.41,-56.5 1121.41,-56.5"/>
<text text-anchor="middle" x="1164.91" y="-63.5" font-family="Helvetica,sans-Serif" font-size="10.00">headers/PHIO.h</text>
</a>
</g>
</g>
<!-- Node1&#45;&gt;Node15 -->
<g id="edge46" class="edge"><title>Node1&#45;&gt;Node15</title>
<path fill="none" stroke="midnightblue" d="M515.83,-343.342C630.637,-339.06 914.519,-326.099 1005.91,-300 1066.88,-282.588 1132.91,-298.408 1132.91,-235 1132.91,-235 1132.91,-235 1132.91,-177 1132.91,-137.819 1151.86,-93.8003 1160.59,-75.5917"/>
<polygon fill="midnightblue" stroke="midnightblue" points="515.449,-339.853 505.584,-343.717 515.705,-346.849 515.449,-339.853"/>
</g>
<!-- Node17 -->
<g id="node17" class="node"><title>Node17</title>
<g id="a_node17"><a xlink:href="Main2_8cpp_source.html" target="_top" xlink:title="src/Main2.cpp">
<polygon fill="white" stroke="black" points="1360.91,-0.5 1360.91,-19.5 1438.91,-19.5 1438.91,-0.5 1360.91,-0.5"/>
<text text-anchor="middle" x="1399.91" y="-7.5" font-family="Helvetica,sans-Serif" font-size="10.00">src/Main2.cpp</text>
</a>
</g>
</g>
<!-- Node1&#45;&gt;Node17 -->
<g id="edge48" class="edge"><title>Node1&#45;&gt;Node17</title>
<path fill="none" stroke="midnightblue" d="M515.71,-343.866C696.525,-339.027 1317.91,-316.47 1317.91,-235 1317.91,-235 1317.91,-235 1317.91,-121 1317.91,-75.2665 1364.03,-36.2582 1387.1,-19.6125"/>
<polygon fill="midnightblue" stroke="midnightblue" points="515.59,-340.368 505.685,-344.128 515.773,-347.365 515.59,-340.368"/>
</g>
<!-- Node20 -->
<g id="node20" class="node"><title>Node20</title>
<g id="a_node20"><a xlink:href="PH_8cpp_source.html" target="_top" xlink:title="src/ph/PH.cpp">
<polygon fill="white" stroke="black" points="1022.91,-56.5 1022.91,-75.5 1102.91,-75.5 1102.91,-56.5 1022.91,-56.5"/>
<text text-anchor="middle" x="1062.91" y="-63.5" font-family="Helvetica,sans-Serif" font-size="10.00">src/ph/PH.cpp</text>
</a>
</g>
</g>
<!-- Node1&#45;&gt;Node20 -->
<g id="edge49" class="edge"><title>Node1&#45;&gt;Node20</title>
<path fill="none" stroke="midnightblue" d="M515.845,-345.858C653.806,-346.973 1035.91,-340.536 1035.91,-235 1035.91,-235 1035.91,-235 1035.91,-177 1035.91,-138.262 1051.9,-94.0045 1059.27,-75.6622"/>
<polygon fill="midnightblue" stroke="midnightblue" points="515.604,-342.356 505.57,-345.757 515.535,-349.355 515.604,-342.356"/>
</g>
<!-- Node25 -->
<g id="node25" class="node"><title>Node25</title>
<g id="a_node25"><a xlink:href="GProcess_8h.html" target="_top" xlink:title="header for the GProcess class ">
<polygon fill="white" stroke="black" points="14.908,-280.5 14.908,-299.5 120.908,-299.5 120.908,-280.5 14.908,-280.5"/>
<text text-anchor="middle" x="67.908" y="-287.5" font-family="Helvetica,sans-Serif" font-size="10.00">headers/GProcess.h</text>
</a>
</g>
</g>
<!-- Node1&#45;&gt;Node25 -->
<g id="edge37" class="edge"><title>Node1&#45;&gt;Node25</title>
<path fill="none" stroke="midnightblue" d="M418.131,-338.399C342.819,-328.206 198.81,-308.716 120.978,-298.182"/>
<polygon fill="midnightblue" stroke="midnightblue" points="417.909,-341.9 428.288,-339.773 418.847,-334.964 417.909,-341.9"/>
</g>
<!-- Node27 -->
<g id="node27" class="node"><title>Node27</title>
<g id="a_node27"><a xlink:href="MyArea_8h.html" target="_top" xlink:title="header for the MyArea class ">
<polygon fill="white" stroke="black" points="691.908,-168.5 691.908,-187.5 787.908,-187.5 787.908,-168.5 691.908,-168.5"/>
<text text-anchor="middle" x="739.908" y="-175.5" font-family="Helvetica,sans-Serif" font-size="10.00">headers/MyArea.h</text>
</a>
</g>
</g>
<!-- Node1&#45;&gt;Node27 -->
<g id="edge40" class="edge"><title>Node1&#45;&gt;Node27</title>
<path fill="none" stroke="midnightblue" d="M496.81,-332.475C516.075,-324.044 541.441,-312.262 562.908,-300 628.521,-262.52 701.373,-208.396 728.727,-187.592"/>
<polygon fill="midnightblue" stroke="midnightblue" points="495.408,-329.268 487.616,-336.447 498.184,-335.693 495.408,-329.268"/>
</g>
<!-- Node2&#45;&gt;Node1 -->
<g id="edge2" class="edge"><title>Node2&#45;&gt;Node1</title>
<path fill="none" stroke="midnightblue" d="M374.646,-303.317C399.954,-313.439 432.838,-327.517 451.873,-336.444"/>
<polygon fill="midnightblue" stroke="midnightblue" points="375.604,-299.932 365.017,-299.516 373.034,-306.444 375.604,-299.932"/>
</g>
<!-- Node3 -->
<g id="node3" class="node"><title>Node3</title>
<g id="a_node3"><a xlink:href="GAction_8h.html" target="_top" xlink:title="header for the GAction class ">
<polygon fill="white" stroke="black" points="290.908,-224.5 290.908,-243.5 388.908,-243.5 388.908,-224.5 290.908,-224.5"/>
<text text-anchor="middle" x="339.908" y="-231.5" font-family="Helvetica,sans-Serif" font-size="10.00">headers/GAction.h</text>
</a>
</g>
</g>
<!-- Node2&#45;&gt;Node3 -->
<g id="edge3" class="edge"><title>Node2&#45;&gt;Node3</title>
<path fill="none" stroke="midnightblue" d="M333.436,-270.101C332.804,-261.136 333.251,-250.858 334.777,-243.751"/>
<polygon fill="midnightblue" stroke="midnightblue" points="329.974,-270.622 334.742,-280.083 336.915,-269.713 329.974,-270.622"/>
</g>
<!-- Node24 -->
<g id="node24" class="node"><title>Node24</title>
<g id="a_node24"><a xlink:href="Action_8cpp_source.html" target="_top" xlink:title="src/ph/Action.cpp">
<polygon fill="white" stroke="black" points="180.408,-224.5 180.408,-243.5 273.408,-243.5 273.408,-224.5 180.408,-224.5"/>
<text text-anchor="middle" x="226.908" y="-231.5" font-family="Helvetica,sans-Serif" font-size="10.00">src/ph/Action.cpp</text>
</a>
</g>
</g>
<!-- Node2&#45;&gt;Node24 -->
<g id="edge36" class="edge"><title>Node2&#45;&gt;Node24</title>
<path fill="none" stroke="midnightblue" d="M312.905,-276.096C291.794,-266.007 263.046,-252.27 244.729,-243.516"/>
<polygon fill="midnightblue" stroke="midnightblue" points="311.471,-279.29 322.003,-280.444 314.489,-272.974 311.471,-279.29"/>
</g>
<!-- Node3&#45;&gt;Node2 -->
<g id="edge11" class="edge"><title>Node3&#45;&gt;Node2</title>
<path fill="none" stroke="midnightblue" d="M346.366,-253.691C347.014,-262.635 346.584,-272.927 345.074,-280.083"/>
<polygon fill="midnightblue" stroke="midnightblue" points="349.831,-253.2 345.039,-243.751 342.893,-254.126 349.831,-253.2"/>
</g>
<!-- Node4 -->
<g id="node4" class="node"><title>Node4</title>
<g id="a_node4"><a xlink:href="PHScene_8h.html" target="_top" xlink:title="header for the PHScene class ">
<polygon fill="white" stroke="black" points="130.908,-168.5 130.908,-187.5 234.908,-187.5 234.908,-168.5 130.908,-168.5"/>
<text text-anchor="middle" x="182.908" y="-175.5" font-family="Helvetica,sans-Serif" font-size="10.00">headers/PHScene.h</text>
</a>
</g>
</g>
<!-- Node3&#45;&gt;Node4 -->
<g id="edge4" class="edge"><title>Node3&#45;&gt;Node4</title>
<path fill="none" stroke="midnightblue" d="M300.229,-221.304C269.036,-211.129 227.063,-196.625 202.589,-187.516"/>
<polygon fill="midnightblue" stroke="midnightblue" points="299.35,-224.699 309.942,-224.444 301.503,-218.038 299.35,-224.699"/>
</g>
<!-- Node8 -->
<g id="node8" class="node"><title>Node8</title>
<g id="a_node8"><a xlink:href="TikzEditor_8h_source.html" target="_top" xlink:title="headers/TikzEditor.h">
<polygon fill="white" stroke="black" points="413.408,-168.5 413.408,-187.5 520.408,-187.5 520.408,-168.5 413.408,-168.5"/>
<text text-anchor="middle" x="466.908" y="-175.5" font-family="Helvetica,sans-Serif" font-size="10.00">headers/TikzEditor.h</text>
</a>
</g>
</g>
<!-- Node3&#45;&gt;Node8 -->
<g id="edge12" class="edge"><title>Node3&#45;&gt;Node8</title>
<path fill="none" stroke="midnightblue" d="M369.299,-220.503C393.108,-210.38 426.014,-196.388 446.879,-187.516"/>
<polygon fill="midnightblue" stroke="midnightblue" points="367.865,-217.31 360.032,-224.444 370.604,-223.751 367.865,-217.31"/>
</g>
<!-- Node23 -->
<g id="node23" class="node"><title>Node23</title>
<g id="a_node23"><a xlink:href="GAction_8cpp_source.html" target="_top" xlink:title="src/gfx/GAction.cpp">
<polygon fill="white" stroke="black" points="252.908,-168.5 252.908,-187.5 356.908,-187.5 356.908,-168.5 252.908,-168.5"/>
<text text-anchor="middle" x="304.908" y="-175.5" font-family="Helvetica,sans-Serif" font-size="10.00">src/gfx/GAction.cpp</text>
</a>
</g>
</g>
<!-- Node3&#45;&gt;Node23 -->
<g id="edge35" class="edge"><title>Node3&#45;&gt;Node23</title>
<path fill="none" stroke="midnightblue" d="M328.608,-215.566C322.586,-206.275 315.439,-195.248 310.58,-187.751"/>
<polygon fill="midnightblue" stroke="midnightblue" points="325.752,-217.595 334.128,-224.083 331.626,-213.788 325.752,-217.595"/>
</g>
<!-- Node4&#45;&gt;Node1 -->
<g id="edge5" class="edge"><title>Node4&#45;&gt;Node1</title>
<path fill="none" stroke="midnightblue" d="M173.124,-197.097C167.11,-210.904 162.084,-229.889 170.908,-244 225.461,-331.243 361.442,-344.668 428.408,-345.756"/>
<polygon fill="midnightblue" stroke="midnightblue" points="176.463,-198.237 177.704,-187.715 170.172,-195.166 176.463,-198.237"/>
</g>
<!-- Node4&#45;&gt;Node3 -->
<g id="edge6" class="edge"><title>Node4&#45;&gt;Node3</title>
<path fill="none" stroke="midnightblue" d="M222.45,-190.651C253.611,-200.813 295.594,-215.32 320.12,-224.444"/>
<polygon fill="midnightblue" stroke="midnightblue" points="223.34,-187.261 212.749,-187.516 221.188,-193.922 223.34,-187.261"/>
</g>
<!-- Node5 -->
<g id="node5" class="node"><title>Node5</title>
<g id="a_node5"><a xlink:href="GSort_8h.html" target="_top" xlink:title="header for the GSort class ">
<polygon fill="white" stroke="black" points="58.908,-112.5 58.908,-131.5 146.908,-131.5 146.908,-112.5 58.908,-112.5"/>
<text text-anchor="middle" x="102.908" y="-119.5" font-family="Helvetica,sans-Serif" font-size="10.00">headers/GSort.h</text>
</a>
</g>
</g>
<!-- Node4&#45;&gt;Node5 -->
<g id="edge7" class="edge"><title>Node4&#45;&gt;Node5</title>
<path fill="none" stroke="midnightblue" d="M161.607,-162.622C146.993,-152.757 128.081,-139.992 115.729,-131.655"/>
<polygon fill="midnightblue" stroke="midnightblue" points="159.808,-165.63 170.055,-168.324 163.724,-159.828 159.808,-165.63"/>
</g>
<!-- Node4&#45;&gt;Node7 -->
<g id="edge10" class="edge"><title>Node4&#45;&gt;Node7</title>
<path fill="none" stroke="midnightblue" d="M196.955,-160.144C204.795,-150.736 214.237,-139.405 220.615,-131.751"/>
<polygon fill="midnightblue" stroke="midnightblue" points="194.052,-158.16 190.339,-168.083 199.429,-162.641 194.052,-158.16"/>
</g>
<!-- Node5&#45;&gt;Node3 -->
<g id="edge8" class="edge"><title>Node5&#45;&gt;Node3</title>
<path fill="none" stroke="midnightblue" d="M103.364,-141.581C104.752,-156.263 109.098,-176.186 121.908,-188 128.202,-193.805 230.288,-213.144 292.5,-224.493"/>
<polygon fill="midnightblue" stroke="midnightblue" points="106.858,-141.378 102.787,-131.597 99.8697,-141.782 106.858,-141.378"/>
</g>
<!-- Node6 -->
<g id="node6" class="node"><title>Node6</title>
<g id="a_node6"><a xlink:href="GSort_8cpp_source.html" target="_top" xlink:title="src/gfx/GSort.cpp">
<polygon fill="white" stroke="black" points="55.908,-56.5 55.908,-75.5 149.908,-75.5 149.908,-56.5 55.908,-56.5"/>
<text text-anchor="middle" x="102.908" y="-63.5" font-family="Helvetica,sans-Serif" font-size="10.00">src/gfx/GSort.cpp</text>
</a>
</g>
</g>
<!-- Node5&#45;&gt;Node6 -->
<g id="edge9" class="edge"><title>Node5&#45;&gt;Node6</title>
<path fill="none" stroke="midnightblue" d="M102.908,-101.805C102.908,-92.9102 102.908,-82.7798 102.908,-75.7511"/>
<polygon fill="midnightblue" stroke="midnightblue" points="99.4081,-102.083 102.908,-112.083 106.408,-102.083 99.4081,-102.083"/>
</g>
<!-- Node9 -->
<g id="node9" class="node"><title>Node9</title>
<g id="a_node9"><a xlink:href="MainWindow_8h.html" target="_top" xlink:title="header for the Main class ">
<polygon fill="white" stroke="black" points="600.408,-112.5 600.408,-131.5 719.408,-131.5 719.408,-112.5 600.408,-112.5"/>
<text text-anchor="middle" x="659.908" y="-119.5" font-family="Helvetica,sans-Serif" font-size="10.00">headers/MainWindow.h</text>
</a>
</g>
</g>
<!-- Node8&#45;&gt;Node9 -->
<g id="edge13" class="edge"><title>Node8&#45;&gt;Node9</title>
<path fill="none" stroke="midnightblue" d="M507.3,-165.699C543.725,-155.507 596.494,-140.743 629.47,-131.516"/>
<polygon fill="midnightblue" stroke="midnightblue" points="506.176,-162.378 497.489,-168.444 508.063,-169.12 506.176,-162.378"/>
</g>
<!-- Node8&#45;&gt;Node14 -->
<g id="edge34" class="edge"><title>Node8&#45;&gt;Node14</title>
<path fill="none" stroke="midnightblue" d="M434.91,-164.551C386.473,-143.893 303.719,-100.39 338.908,-56 355.923,-34.5366 426.669,-22.3243 477.336,-16.1834"/>
<polygon fill="midnightblue" stroke="midnightblue" points="433.805,-167.882 444.382,-168.488 436.491,-161.418 433.805,-167.882"/>
</g>
<!-- Node10 -->
<g id="node10" class="node"><title>Node10</title>
<g id="a_node10"><a xlink:href="Area_8h_source.html" target="_top" xlink:title="headers/Area.h">
<polygon fill="white" stroke="black" points="801.408,-56.5 801.408,-75.5 884.408,-75.5 884.408,-56.5 801.408,-56.5"/>
<text text-anchor="middle" x="842.908" y="-63.5" font-family="Helvetica,sans-Serif" font-size="10.00">headers/Area.h</text>
</a>
</g>
</g>
<!-- Node9&#45;&gt;Node10 -->
<g id="edge14" class="edge"><title>Node9&#45;&gt;Node10</title>
<path fill="none" stroke="midnightblue" d="M698.651,-109.568C733.173,-99.381 782.913,-84.7034 814.047,-75.5164"/>
<polygon fill="midnightblue" stroke="midnightblue" points="697.505,-106.256 688.905,-112.444 699.487,-112.97 697.505,-106.256"/>
</g>
<!-- Node13 -->
<g id="node13" class="node"><title>Node13</title>
<g id="a_node13"><a xlink:href="MainWindow_8cpp_source.html" target="_top" xlink:title="src/ui/MainWindow.cpp">
<polygon fill="white" stroke="black" points="763.408,-0.5 763.408,-19.5 882.408,-19.5 882.408,-0.5 763.408,-0.5"/>
<text text-anchor="middle" x="822.908" y="-7.5" font-family="Helvetica,sans-Serif" font-size="10.00">src/ui/MainWindow.cpp</text>
</a>
</g>
</g>
<!-- Node9&#45;&gt;Node13 -->
<g id="edge32" class="edge"><title>Node9&#45;&gt;Node13</title>
<path fill="none" stroke="midnightblue" d="M683.443,-107.09C697.884,-98.4076 716.66,-86.8546 732.908,-76 761.756,-56.7283 794.531,-32.4224 811.449,-19.6893"/>
<polygon fill="midnightblue" stroke="midnightblue" points="681.438,-104.21 674.649,-112.344 685.029,-110.219 681.438,-104.21"/>
</g>
<!-- Node9&#45;&gt;Node14 -->
<g id="edge33" class="edge"><title>Node9&#45;&gt;Node14</title>
<path fill="none" stroke="midnightblue" d="M605.78,-109.434C585.805,-102.697 564.508,-92.2024 549.908,-76 535.427,-59.9294 531.947,-33.3812 531.135,-19.719"/>
<polygon fill="midnightblue" stroke="midnightblue" points="604.855,-112.812 615.444,-112.449 606.94,-106.13 604.855,-112.812"/>
</g>
<!-- Node9&#45;&gt;Node15 -->
<g id="edge19" class="edge"><title>Node9&#45;&gt;Node15</title>
<path fill="none" stroke="midnightblue" d="M729.816,-111.941C900.52,-93.1353 945.628,-97.902 1111.91,-76 1114.96,-75.5978 1118.11,-75.1497 1121.27,-74.6743"/>
<polygon fill="midnightblue" stroke="midnightblue" points="729.283,-108.479 719.731,-113.063 730.057,-115.436 729.283,-108.479"/>
</g>
<!-- Node16 -->
<g id="node16" class="node"><title>Node16</title>
<g id="a_node16"><a xlink:href="Main_8cpp.html" target="_top" xlink:title="Principal Program. ">
<polygon fill="white" stroke="black" points="672.408,-0.5 672.408,-19.5 745.408,-19.5 745.408,-0.5 672.408,-0.5"/>
<text text-anchor="middle" x="708.908" y="-7.5" font-family="Helvetica,sans-Serif" font-size="10.00">src/Main.cpp</text>
</a>
</g>
</g>
<!-- Node9&#45;&gt;Node16 -->
<g id="edge28" class="edge"><title>Node9&#45;&gt;Node16</title>
<path fill="none" stroke="midnightblue" d="M686.226,-107.049C697.572,-99.5079 709.655,-89.0458 715.908,-76 724.738,-57.5768 717.69,-32.9262 712.727,-19.9137"/>
<polygon fill="midnightblue" stroke="midnightblue" points="684.099,-104.248 677.41,-112.465 687.762,-110.213 684.099,-104.248"/>
</g>
<!-- Node9&#45;&gt;Node20 -->
<g id="edge29" class="edge"><title>Node9&#45;&gt;Node20</title>
<path fill="none" stroke="midnightblue" d="M729.892,-111.885C857.238,-95.7206 890.942,-95.0437 1013.91,-76 1016.81,-75.5499 1019.81,-75.0607 1022.83,-74.5505"/>
<polygon fill="midnightblue" stroke="midnightblue" points="729.221,-108.442 719.745,-113.18 730.108,-115.385 729.221,-108.442"/>
</g>
<!-- Node21 -->
<g id="node21" class="node"><title>Node21</title>
<g id="a_node21"><a xlink:href="ConnectionSettings_8cpp_source.html" target="_top" xlink:title="src/ui/ConnectionSettings.cpp">
<polygon fill="white" stroke="black" points="558.908,-56.5 558.908,-75.5 706.908,-75.5 706.908,-56.5 558.908,-56.5"/>
<text text-anchor="middle" x="632.908" y="-63.5" font-family="Helvetica,sans-Serif" font-size="10.00">src/ui/ConnectionSettings.cpp</text>
</a>
</g>
</g>
<!-- Node9&#45;&gt;Node21 -->
<g id="edge30" class="edge"><title>Node9&#45;&gt;Node21</title>
<path fill="none" stroke="midnightblue" d="M650.899,-102.983C646.316,-93.8168 640.954,-83.0922 637.284,-75.7511"/>
<polygon fill="midnightblue" stroke="midnightblue" points="647.847,-104.704 655.449,-112.083 654.108,-101.573 647.847,-104.704"/>
</g>
<!-- Node22 -->
<g id="node22" class="node"><title>Node22</title>
<g id="a_node22"><a xlink:href="FunctionForm_8cpp_source.html" target="_top" xlink:title="src/ui/FunctionForm.cpp">
<polygon fill="white" stroke="black" points="380.908,-56.5 380.908,-75.5 502.908,-75.5 502.908,-56.5 380.908,-56.5"/>
<text text-anchor="middle" x="441.908" y="-63.5" font-family="Helvetica,sans-Serif" font-size="10.00">src/ui/FunctionForm.cpp</text>
</a>
</g>
</g>
<!-- Node9&#45;&gt;Node22 -->
<g id="edge31" class="edge"><title>Node9&#45;&gt;Node22</title>
<path fill="none" stroke="midnightblue" d="M615.596,-110.024C574.416,-99.8232 513.935,-84.8414 476.289,-75.5164"/>
<polygon fill="midnightblue" stroke="midnightblue" points="614.817,-113.436 625.365,-112.444 616.5,-106.642 614.817,-113.436"/>
</g>
<!-- Node11 -->
<g id="node11" class="node"><title>Node11</title>
<g id="a_node11"><a xlink:href="PHIO_8cpp_source.html" target="_top" xlink:title="src/io/PHIO.cpp">
<polygon fill="white" stroke="black" points="900.408,-0.5 900.408,-19.5 987.408,-19.5 987.408,-0.5 900.408,-0.5"/>
<text text-anchor="middle" x="943.908" y="-7.5" font-family="Helvetica,sans-Serif" font-size="10.00">src/io/PHIO.cpp</text>
</a>
</g>
</g>
<!-- Node10&#45;&gt;Node11 -->
<g id="edge15" class="edge"><title>Node10&#45;&gt;Node11</title>
<path fill="none" stroke="midnightblue" d="M867.991,-51.5895C886.665,-41.6052 911.612,-28.2672 927.721,-19.6545"/>
<polygon fill="midnightblue" stroke="midnightblue" points="866.304,-48.5224 859.135,-56.324 869.604,-54.6955 866.304,-48.5224"/>
</g>
<!-- Node12 -->
<g id="node12" class="node"><title>Node12</title>
<g id="a_node12"><a xlink:href="Area_8cpp_source.html" target="_top" xlink:title="src/ui/Area.cpp">
<polygon fill="white" stroke="black" points="1005.41,-0.5 1005.41,-19.5 1088.41,-19.5 1088.41,-0.5 1005.41,-0.5"/>
<text text-anchor="middle" x="1046.91" y="-7.5" font-family="Helvetica,sans-Serif" font-size="10.00">src/ui/Area.cpp</text>
</a>
</g>
</g>
<!-- Node10&#45;&gt;Node12 -->
<g id="edge16" class="edge"><title>Node10&#45;&gt;Node12</title>
<path fill="none" stroke="midnightblue" d="M885.109,-53.8291C923.626,-43.6333 979.73,-28.7823 1014.73,-19.5164"/>
<polygon fill="midnightblue" stroke="midnightblue" points="884.004,-50.5011 875.232,-56.4435 885.795,-57.268 884.004,-50.5011"/>
</g>
<!-- Node10&#45;&gt;Node13 -->
<g id="edge17" class="edge"><title>Node10&#45;&gt;Node13</title>
<path fill="none" stroke="midnightblue" d="M836.126,-46.6897C832.756,-37.589 828.839,-27.0141 826.149,-19.7511"/>
<polygon fill="midnightblue" stroke="midnightblue" points="832.85,-47.9211 839.605,-56.083 839.414,-45.4899 832.85,-47.9211"/>
</g>
<!-- Node10&#45;&gt;Node14 -->
<g id="edge18" class="edge"><title>Node10&#45;&gt;Node14</title>
<path fill="none" stroke="midnightblue" d="M790.998,-56.0155C732.357,-45.8662 637.627,-29.4706 580.121,-19.5177"/>
<polygon fill="midnightblue" stroke="midnightblue" points="790.704,-59.5166 801.154,-57.7734 791.897,-52.6191 790.704,-59.5166"/>
</g>
<!-- Node15&#45;&gt;Node11 -->
<g id="edge20" class="edge"><title>Node15&#45;&gt;Node11</title>
<path fill="none" stroke="midnightblue" d="M1119.99,-54.0237C1078.24,-43.8232 1016.93,-28.8414 978.762,-19.5164"/>
<polygon fill="midnightblue" stroke="midnightblue" points="1119.34,-57.4698 1129.89,-56.4435 1121.01,-50.6699 1119.34,-57.4698"/>
</g>
<!-- Node15&#45;&gt;Node12 -->
<g id="edge24" class="edge"><title>Node15&#45;&gt;Node12</title>
<path fill="none" stroke="midnightblue" d="M1137.01,-52.2321C1114.94,-42.1312 1084.73,-28.3091 1065.52,-19.5164"/>
<polygon fill="midnightblue" stroke="midnightblue" points="1135.66,-55.4648 1146.21,-56.4435 1138.57,-49.0997 1135.66,-55.4648"/>
</g>
<!-- Node15&#45;&gt;Node13 -->
<g id="edge25" class="edge"><title>Node15&#45;&gt;Node13</title>
<path fill="none" stroke="midnightblue" d="M1111.19,-55.9023C1024.19,-41.7831 935.261,-28.0801 879.158,-19.5247"/>
<polygon fill="midnightblue" stroke="midnightblue" points="1110.81,-59.3859 1121.24,-57.5364 1111.93,-52.4767 1110.81,-59.3859"/>
</g>
<!-- Node15&#45;&gt;Node14 -->
<g id="edge27" class="edge"><title>Node15&#45;&gt;Node14</title>
<path fill="none" stroke="midnightblue" d="M1110.93,-56.0859C1028.88,-47.3377 712.554,-24.1584 584.77,-14.8904"/>
<polygon fill="midnightblue" stroke="midnightblue" points="1110.95,-59.6112 1121.28,-57.2686 1111.74,-52.6564 1110.95,-59.6112"/>
</g>
<!-- Node15&#45;&gt;Node16 -->
<g id="edge21" class="edge"><title>Node15&#45;&gt;Node16</title>
<path fill="none" stroke="midnightblue" d="M1111.1,-55.9885C951.686,-34.9614 908.811,-43.2226 753.908,-20 751.229,-19.5984 748.468,-19.1447 745.694,-18.6599"/>
<polygon fill="midnightblue" stroke="midnightblue" points="1110.9,-59.4918 1121.27,-57.3483 1111.82,-52.5536 1110.9,-59.4918"/>
</g>
<!-- Node15&#45;&gt;Node17 -->
<g id="edge22" class="edge"><title>Node15&#45;&gt;Node17</title>
<path fill="none" stroke="midnightblue" d="M1212.11,-54.1529C1256.51,-43.95 1322.09,-28.8809 1362.85,-19.5164"/>
<polygon fill="midnightblue" stroke="midnightblue" points="1211.11,-50.7929 1202.14,-56.4435 1212.67,-57.6151 1211.11,-50.7929"/>
</g>
<!-- Node18 -->
<g id="node18" class="node"><title>Node18</title>
<g id="a_node18"><a xlink:href="PHIOTest_8cpp_source.html" target="_top" xlink:title="src/test/PHIOTest.cpp">
<polygon fill="white" stroke="black" points="1106.91,-0.5 1106.91,-19.5 1222.91,-19.5 1222.91,-0.5 1106.91,-0.5"/>
<text text-anchor="middle" x="1164.91" y="-7.5" font-family="Helvetica,sans-Serif" font-size="10.00">src/test/PHIOTest.cpp</text>
</a>
</g>
</g>
<!-- Node15&#45;&gt;Node18 -->
<g id="edge23" class="edge"><title>Node15&#45;&gt;Node18</title>
<path fill="none" stroke="midnightblue" d="M1164.91,-45.8045C1164.91,-36.9102 1164.91,-26.7798 1164.91,-19.7511"/>
<polygon fill="midnightblue" stroke="midnightblue" points="1161.41,-46.083 1164.91,-56.083 1168.41,-46.083 1161.41,-46.083"/>
</g>
<!-- Node19 -->
<g id="node19" class="node"><title>Node19</title>
<g id="a_node19"><a xlink:href="TextArea_8cpp_source.html" target="_top" xlink:title="src/ui/TextArea.cpp">
<polygon fill="white" stroke="black" points="1240.91,-0.5 1240.91,-19.5 1342.91,-19.5 1342.91,-0.5 1240.91,-0.5"/>
<text text-anchor="middle" x="1291.91" y="-7.5" font-family="Helvetica,sans-Serif" font-size="10.00">src/ui/TextArea.cpp</text>
</a>
</g>
</g>
<!-- Node15&#45;&gt;Node19 -->
<g id="edge26" class="edge"><title>Node15&#45;&gt;Node19</title>
<path fill="none" stroke="midnightblue" d="M1194.3,-52.503C1218.11,-42.3795 1251.01,-28.388 1271.88,-19.5164"/>
<polygon fill="midnightblue" stroke="midnightblue" points="1192.86,-49.3096 1185.03,-56.4435 1195.6,-55.7515 1192.86,-49.3096"/>
</g>
<!-- Node25&#45;&gt;Node5 -->
<g id="edge38" class="edge"><title>Node25&#45;&gt;Node5</title>
<path fill="none" stroke="midnightblue" d="M36.8905,-275.667C23.9175,-268.348 10.1866,-257.892 2.90799,-244 -1.2174,-236.126 -0.473197,-232.221 2.90799,-224 20.5539,-181.097 66.213,-146.738 89.2244,-131.512"/>
<polygon fill="midnightblue" stroke="midnightblue" points="35.6118,-278.947 46.0999,-280.447 38.8365,-272.734 35.6118,-278.947"/>
</g>
<!-- Node26 -->
<g id="node26" class="node"><title>Node26</title>
<g id="a_node26"><a xlink:href="GProcess_8cpp_source.html" target="_top" xlink:title="src/gfx/GProcess.cpp">
<polygon fill="white" stroke="black" points="11.908,-224.5 11.908,-243.5 123.908,-243.5 123.908,-224.5 11.908,-224.5"/>
<text text-anchor="middle" x="67.908" y="-231.5" font-family="Helvetica,sans-Serif" font-size="10.00">src/gfx/GProcess.cpp</text>
</a>
</g>
</g>
<!-- Node25&#45;&gt;Node26 -->
<g id="edge39" class="edge"><title>Node25&#45;&gt;Node26</title>
<path fill="none" stroke="midnightblue" d="M67.908,-269.805C67.908,-260.91 67.908,-250.78 67.908,-243.751"/>
<polygon fill="midnightblue" stroke="midnightblue" points="64.4081,-270.083 67.908,-280.083 71.4081,-270.083 64.4081,-270.083"/>
</g>
<!-- Node27&#45;&gt;Node9 -->
<g id="edge44" class="edge"><title>Node27&#45;&gt;Node9</title>
<path fill="none" stroke="midnightblue" d="M718.607,-162.622C703.993,-152.757 685.081,-139.992 672.729,-131.655"/>
<polygon fill="midnightblue" stroke="midnightblue" points="716.808,-165.63 727.055,-168.324 720.724,-159.828 716.808,-165.63"/>
</g>
<!-- Node28 -->
<g id="node28" class="node"><title>Node28</title>
<g id="a_node28"><a xlink:href="TreeArea_8h_source.html" target="_top" xlink:title="headers/TreeArea.h">
<polygon fill="white" stroke="black" points="851.908,-112.5 851.908,-131.5 953.908,-131.5 953.908,-112.5 851.908,-112.5"/>
<text text-anchor="middle" x="902.908" y="-119.5" font-family="Helvetica,sans-Serif" font-size="10.00">headers/TreeArea.h</text>
</a>
</g>
</g>
<!-- Node27&#45;&gt;Node28 -->
<g id="edge41" class="edge"><title>Node27&#45;&gt;Node28</title>
<path fill="none" stroke="midnightblue" d="M775.611,-165.172C806.304,-155.004 849.827,-140.585 877.201,-131.516"/>
<polygon fill="midnightblue" stroke="midnightblue" points="774.128,-161.976 765.736,-168.444 776.329,-168.621 774.128,-161.976"/>
</g>
<!-- Node30 -->
<g id="node30" class="node"><title>Node30</title>
<g id="a_node30"><a xlink:href="MyArea_8cpp_source.html" target="_top" xlink:title="src/ui/MyArea.cpp">
<polygon fill="white" stroke="black" points="737.908,-112.5 737.908,-131.5 833.908,-131.5 833.908,-112.5 737.908,-112.5"/>
<text text-anchor="middle" x="785.908" y="-119.5" font-family="Helvetica,sans-Serif" font-size="10.00">src/ui/MyArea.cpp</text>
</a>
</g>
</g>
<!-- Node27&#45;&gt;Node30 -->
<g id="edge45" class="edge"><title>Node27&#45;&gt;Node30</title>
<path fill="none" stroke="midnightblue" d="M754.022,-160.431C762.084,-150.967 771.867,-139.483 778.453,-131.751"/>
<polygon fill="midnightblue" stroke="midnightblue" points="751.324,-158.201 747.504,-168.083 756.653,-162.74 751.324,-158.201"/>
</g>
<!-- Node28&#45;&gt;Node10 -->
<g id="edge42" class="edge"><title>Node28&#45;&gt;Node10</title>
<path fill="none" stroke="midnightblue" d="M885.727,-105.537C875.029,-95.9087 861.652,-83.8694 852.723,-75.8339"/>
<polygon fill="midnightblue" stroke="midnightblue" points="883.494,-108.236 893.268,-112.324 888.176,-103.033 883.494,-108.236"/>
</g>
<!-- Node29 -->
<g id="node29" class="node"><title>Node29</title>
<g id="a_node29"><a xlink:href="TreeArea_8cpp_source.html" target="_top" xlink:title="src/ui/TreeArea.cpp">
<polygon fill="white" stroke="black" points="902.908,-56.5 902.908,-75.5 1004.91,-75.5 1004.91,-56.5 902.908,-56.5"/>
<text text-anchor="middle" x="953.908" y="-63.5" font-family="Helvetica,sans-Serif" font-size="10.00">src/ui/TreeArea.cpp</text>
</a>
</g>
</g>
<!-- Node28&#45;&gt;Node29 -->
<g id="edge43" class="edge"><title>Node28&#45;&gt;Node29</title>
<path fill="none" stroke="midnightblue" d="M918.286,-104.718C927.275,-95.1997 938.267,-83.5608 945.643,-75.7511"/>
<polygon fill="midnightblue" stroke="midnightblue" points="915.651,-102.41 911.33,-112.083 920.74,-107.216 915.651,-102.41"/>
</g>
</g>
</svg>
