<?xml version="1.0" encoding="UTF-8" standalone="no"?>
<!DOCTYPE svg PUBLIC "-//W3C//DTD SVG 1.1//EN"
 "http://www.w3.org/Graphics/SVG/1.1/DTD/svg11.dtd">
<!-- Generated by graphviz version 2.38.0 (20140413.2041)
 -->
<!-- Title: headers/test/PHIOTest.h Pages: 1 -->
<svg width="264pt" height="84pt"
 viewBox="0.00 0.00 264.00 84.00" xmlns="http://www.w3.org/2000/svg" xmlns:xlink="http://www.w3.org/1999/xlink">
<g id="graph0" class="graph" transform="scale(1 1) rotate(0) translate(4 80)">
<title>headers/test/PHIOTest.h</title>
<polygon fill="white" stroke="none" points="-4,4 -4,-80 260,-80 260,4 -4,4"/>
<!-- Node1 -->
<g id="node1" class="node"><title>Node1</title>
<polygon fill="#bfbfbf" stroke="black" points="63,-56.5 63,-75.5 189,-75.5 189,-56.5 63,-56.5"/>
<text text-anchor="middle" x="126" y="-63.5" font-family="Helvetica,sans-Serif" font-size="10.00">headers/test/PHIOTest.h</text>
</g>
<!-- Node2 -->
<g id="node2" class="node"><title>Node2</title>
<g id="a_node2"><a xlink:href="PHIOTest_8cpp_source.html" target="_top" xlink:title="src/test/PHIOTest.cpp">
<polygon fill="white" stroke="black" points="0,-0.5 0,-19.5 116,-19.5 116,-0.5 0,-0.5"/>
<text text-anchor="middle" x="58" y="-7.5" font-family="Helvetica,sans-Serif" font-size="10.00">src/test/PHIOTest.cpp</text>
</a>
</g>
</g>
<!-- Node1&#45;&gt;Node2 -->
<g id="edge1" class="edge"><title>Node1&#45;&gt;Node2</title>
<path fill="none" stroke="midnightblue" d="M107.238,-50.1008C95.0001,-40.3824 79.4413,-28.0269 69.1242,-19.8339"/>
<polygon fill="midnightblue" stroke="midnightblue" points="105.067,-52.846 115.075,-56.324 109.42,-47.3642 105.067,-52.846"/>
</g>
<!-- Node3 -->
<g id="node3" class="node"><title>Node3</title>
<g id="a_node3"><a xlink:href="TestRunner_8cpp.html" target="_top" xlink:title="this file contains the main program for test mode ">
<polygon fill="white" stroke="black" points="134,-0.5 134,-19.5 256,-19.5 256,-0.5 134,-0.5"/>
<text text-anchor="middle" x="195" y="-7.5" font-family="Helvetica,sans-Serif" font-size="10.00">src/test/TestRunner.cpp</text>
</a>
</g>
</g>
<!-- Node1&#45;&gt;Node3 -->
<g id="edge2" class="edge"><title>Node1&#45;&gt;Node3</title>
<path fill="none" stroke="midnightblue" d="M145.038,-50.1008C157.456,-40.3824 173.243,-28.0269 183.712,-19.8339"/>
<polygon fill="midnightblue" stroke="midnightblue" points="142.804,-47.4046 137.086,-56.324 147.118,-52.9171 142.804,-47.4046"/>
</g>
</g>
</svg>
