<?xml version="1.0" encoding="UTF-8" standalone="no"?>
<!DOCTYPE svg PUBLIC "-//W3C//DTD SVG 1.1//EN"
 "http://www.w3.org/Graphics/SVG/1.1/DTD/svg11.dtd">
<!-- Generated by graphviz version 2.38.0 (20140413.2041)
 -->
<!-- Title: headers/PHIO.h Pages: 1 -->
<svg width="900pt" height="84pt"
 viewBox="0.00 0.00 900.00 84.00" xmlns="http://www.w3.org/2000/svg" xmlns:xlink="http://www.w3.org/1999/xlink">
<g id="graph0" class="graph" transform="scale(1 1) rotate(0) translate(4 80)">
<title>headers/PHIO.h</title>
<polygon fill="white" stroke="none" points="-4,4 -4,-80 896,-80 896,4 -4,4"/>
<!-- Node1 -->
<g id="node1" class="node"><title>Node1</title>
<polygon fill="#bfbfbf" stroke="black" points="366,-56.5 366,-75.5 453,-75.5 453,-56.5 366,-56.5"/>
<text text-anchor="middle" x="409.5" y="-63.5" font-family="Helvetica,sans-Serif" font-size="10.00">headers/PHIO.h</text>
</g>
<!-- Node2 -->
<g id="node2" class="node"><title>Node2</title>
<g id="a_node2"><a xlink:href="PHIO_8cpp_source.html" target="_top" xlink:title="src/io/PHIO.cpp">
<polygon fill="white" stroke="black" points="0,-0.5 0,-19.5 87,-19.5 87,-0.5 0,-0.5"/>
<text text-anchor="middle" x="43.5" y="-7.5" font-family="Helvetica,sans-Serif" font-size="10.00">src/io/PHIO.cpp</text>
</a>
</g>
</g>
<!-- Node1&#45;&gt;Node2 -->
<g id="edge1" class="edge"><title>Node1&#45;&gt;Node2</title>
<path fill="none" stroke="midnightblue" d="M355.719,-57.7763C293.13,-49.2574 186.701,-34.4245 95.5,-20 92.7851,-19.5706 89.9925,-19.1183 87.1775,-18.6543"/>
<polygon fill="midnightblue" stroke="midnightblue" points="355.374,-61.2615 365.754,-59.1391 356.316,-54.3251 355.374,-61.2615"/>
</g>
<!-- Node3 -->
<g id="node3" class="node"><title>Node3</title>
<g id="a_node3"><a xlink:href="Main_8cpp.html" target="_top" xlink:title="Principal Program. ">
<polygon fill="white" stroke="black" points="105,-0.5 105,-19.5 178,-19.5 178,-0.5 105,-0.5"/>
<text text-anchor="middle" x="141.5" y="-7.5" font-family="Helvetica,sans-Serif" font-size="10.00">src/Main.cpp</text>
</a>
</g>
</g>
<!-- Node1&#45;&gt;Node3 -->
<g id="edge2" class="edge"><title>Node1&#45;&gt;Node3</title>
<path fill="none" stroke="midnightblue" d="M357.198,-54.4616C304.482,-43.8396 224.483,-27.7205 178.168,-18.3884"/>
<polygon fill="midnightblue" stroke="midnightblue" points="356.54,-57.8993 367.035,-56.4435 357.923,-51.0372 356.54,-57.8993"/>
</g>
<!-- Node4 -->
<g id="node4" class="node"><title>Node4</title>
<g id="a_node4"><a xlink:href="Main2_8cpp_source.html" target="_top" xlink:title="src/Main2.cpp">
<polygon fill="white" stroke="black" points="196.5,-0.5 196.5,-19.5 274.5,-19.5 274.5,-0.5 196.5,-0.5"/>
<text text-anchor="middle" x="235.5" y="-7.5" font-family="Helvetica,sans-Serif" font-size="10.00">src/Main2.cpp</text>
</a>
</g>
</g>
<!-- Node1&#45;&gt;Node4 -->
<g id="edge3" class="edge"><title>Node1&#45;&gt;Node4</title>
<path fill="none" stroke="midnightblue" d="M372.239,-53.4363C339.433,-43.2551 292.417,-28.664 262.942,-19.5164"/>
<polygon fill="midnightblue" stroke="midnightblue" points="371.341,-56.8222 381.929,-56.4435 373.416,-50.1368 371.341,-56.8222"/>
</g>
<!-- Node5 -->
<g id="node5" class="node"><title>Node5</title>
<g id="a_node5"><a xlink:href="PHIOTest_8cpp_source.html" target="_top" xlink:title="src/test/PHIOTest.cpp">
<polygon fill="white" stroke="black" points="292.5,-0.5 292.5,-19.5 408.5,-19.5 408.5,-0.5 292.5,-0.5"/>
<text text-anchor="middle" x="350.5" y="-7.5" font-family="Helvetica,sans-Serif" font-size="10.00">src/test/PHIOTest.cpp</text>
</a>
</g>
</g>
<!-- Node1&#45;&gt;Node5 -->
<g id="edge4" class="edge"><title>Node1&#45;&gt;Node5</title>
<path fill="none" stroke="midnightblue" d="M392.605,-49.5372C382.085,-39.9087 368.931,-27.8694 360.152,-19.8339"/>
<polygon fill="midnightblue" stroke="midnightblue" points="390.281,-52.1542 400.021,-56.324 395.007,-46.9905 390.281,-52.1542"/>
</g>
<!-- Node6 -->
<g id="node6" class="node"><title>Node6</title>
<g id="a_node6"><a xlink:href="Area_8cpp_source.html" target="_top" xlink:title="src/ui/Area.cpp">
<polygon fill="white" stroke="black" points="427,-0.5 427,-19.5 510,-19.5 510,-0.5 427,-0.5"/>
<text text-anchor="middle" x="468.5" y="-7.5" font-family="Helvetica,sans-Serif" font-size="10.00">src/ui/Area.cpp</text>
</a>
</g>
</g>
<!-- Node1&#45;&gt;Node6 -->
<g id="edge5" class="edge"><title>Node1&#45;&gt;Node6</title>
<path fill="none" stroke="midnightblue" d="M426.395,-49.5372C436.915,-39.9087 450.069,-27.8694 458.848,-19.8339"/>
<polygon fill="midnightblue" stroke="midnightblue" points="423.993,-46.9905 418.979,-56.324 428.719,-52.1542 423.993,-46.9905"/>
</g>
<!-- Node7 -->
<g id="node7" class="node"><title>Node7</title>
<g id="a_node7"><a xlink:href="MainWindow_8cpp_source.html" target="_top" xlink:title="src/ui/MainWindow.cpp">
<polygon fill="white" stroke="black" points="528,-0.5 528,-19.5 647,-19.5 647,-0.5 528,-0.5"/>
<text text-anchor="middle" x="587.5" y="-7.5" font-family="Helvetica,sans-Serif" font-size="10.00">src/ui/MainWindow.cpp</text>
</a>
</g>
</g>
<!-- Node1&#45;&gt;Node7 -->
<g id="edge6" class="edge"><title>Node1&#45;&gt;Node7</title>
<path fill="none" stroke="midnightblue" d="M447.617,-53.4363C481.178,-43.2551 529.274,-28.664 559.427,-19.5164"/>
<polygon fill="midnightblue" stroke="midnightblue" points="446.258,-50.1911 437.705,-56.4435 448.29,-56.8897 446.258,-50.1911"/>
</g>
<!-- Node8 -->
<g id="node8" class="node"><title>Node8</title>
<g id="a_node8"><a xlink:href="TextArea_8cpp_source.html" target="_top" xlink:title="src/ui/TextArea.cpp">
<polygon fill="white" stroke="black" points="665.5,-0.5 665.5,-19.5 767.5,-19.5 767.5,-0.5 665.5,-0.5"/>
<text text-anchor="middle" x="716.5" y="-7.5" font-family="Helvetica,sans-Serif" font-size="10.00">src/ui/TextArea.cpp</text>
</a>
</g>
</g>
<!-- Node1&#45;&gt;Node8 -->
<g id="edge7" class="edge"><title>Node1&#45;&gt;Node8</title>
<path fill="none" stroke="midnightblue" d="M463.198,-55.5547C521.015,-45.385 612.177,-29.35 667.926,-19.544"/>
<polygon fill="midnightblue" stroke="midnightblue" points="462.402,-52.1409 453.16,-57.3205 463.615,-59.0351 462.402,-52.1409"/>
</g>
<!-- Node9 -->
<g id="node9" class="node"><title>Node9</title>
<g id="a_node9"><a xlink:href="TikzEditor_8cpp_source.html" target="_top" xlink:title="src/ui/TikzEditor.cpp">
<polygon fill="white" stroke="black" points="785,-0.5 785,-19.5 892,-19.5 892,-0.5 785,-0.5"/>
<text text-anchor="middle" x="838.5" y="-7.5" font-family="Helvetica,sans-Serif" font-size="10.00">src/ui/TikzEditor.cpp</text>
</a>
</g>
</g>
<!-- Node1&#45;&gt;Node9 -->
<g id="edge8" class="edge"><title>Node1&#45;&gt;Node9</title>
<path fill="none" stroke="midnightblue" d="M463.158,-58.7979C534.693,-50.443 665.221,-34.8971 776.5,-20 779.195,-19.6392 781.955,-19.263 784.742,-18.8779"/>
<polygon fill="midnightblue" stroke="midnightblue" points="462.568,-55.3428 453.041,-59.9774 463.379,-62.2957 462.568,-55.3428"/>
</g>
</g>
</svg>
