<?xml version="1.0" encoding="UTF-8" standalone="no"?>
<!DOCTYPE svg PUBLIC "-//W3C//DTD SVG 1.1//EN"
 "http://www.w3.org/Graphics/SVG/1.1/DTD/svg11.dtd">
<!-- Generated by graphviz version 2.38.0 (20140413.2041)
 -->
<!-- Title: headers/PHScene.h Pages: 1 -->
<svg width="1072pt" height="476pt"
 viewBox="0.00 0.00 1072.00 476.00" xmlns="http://www.w3.org/2000/svg" xmlns:xlink="http://www.w3.org/1999/xlink">
<g id="graph0" class="graph" transform="scale(1 1) rotate(0) translate(4 472)">
<title>headers/PHScene.h</title>
<polygon fill="white" stroke="none" points="-4,4 -4,-472 1068,-472 1068,4 -4,4"/>
<!-- Node1 -->
<g id="node1" class="node"><title>Node1</title>
<polygon fill="#bfbfbf" stroke="black" points="868,-448.5 868,-467.5 972,-467.5 972,-448.5 868,-448.5"/>
<text text-anchor="middle" x="920" y="-455.5" font-family="Helvetica,sans-Serif" font-size="10.00">headers/PHScene.h</text>
</g>
<!-- Node2 -->
<g id="node2" class="node"><title>Node2</title>
<g id="a_node2"><a xlink:href="PH_8h.html" target="_top" xlink:title="header for the PH class ">
<polygon fill="white" stroke="black" points="511.5,-392.5 511.5,-411.5 588.5,-411.5 588.5,-392.5 511.5,-392.5"/>
<text text-anchor="middle" x="550" y="-399.5" font-family="Helvetica,sans-Serif" font-size="10.00">headers/PH.h</text>
</a>
</g>
</g>
<!-- Node1&#45;&gt;Node2 -->
<g id="edge1" class="edge"><title>Node1&#45;&gt;Node2</title>
<path fill="none" stroke="midnightblue" d="M857.747,-447.914C780.926,-436.703 652.646,-417.981 588.698,-408.648"/>
<polygon fill="midnightblue" stroke="midnightblue" points="857.372,-451.397 867.773,-449.378 858.383,-444.47 857.372,-451.397"/>
</g>
<!-- Node4 -->
<g id="node4" class="node"><title>Node4</title>
<g id="a_node4"><a xlink:href="GAction_8h.html" target="_top" xlink:title="header for the GAction class ">
<polygon fill="white" stroke="black" points="854,-224.5 854,-243.5 952,-243.5 952,-224.5 854,-224.5"/>
<text text-anchor="middle" x="903" y="-231.5" font-family="Helvetica,sans-Serif" font-size="10.00">headers/GAction.h</text>
</a>
</g>
</g>
<!-- Node1&#45;&gt;Node4 -->
<g id="edge48" class="edge"><title>Node1&#45;&gt;Node4</title>
<path fill="none" stroke="midnightblue" d="M914.608,-438.295C907.056,-392.644 898.555,-276.854 900.82,-243.884"/>
<polygon fill="midnightblue" stroke="midnightblue" points="911.202,-439.122 916.5,-448.297 918.08,-437.821 911.202,-439.122"/>
</g>
<!-- Node23 -->
<g id="node23" class="node"><title>Node23</title>
<g id="a_node23"><a xlink:href="GSort_8h.html" target="_top" xlink:title="header for the GSort class ">
<polygon fill="white" stroke="black" points="957,-280.5 957,-299.5 1045,-299.5 1045,-280.5 957,-280.5"/>
<text text-anchor="middle" x="1001" y="-287.5" font-family="Helvetica,sans-Serif" font-size="10.00">headers/GSort.h</text>
</a>
</g>
</g>
<!-- Node1&#45;&gt;Node23 -->
<g id="edge49" class="edge"><title>Node1&#45;&gt;Node23</title>
<path fill="none" stroke="midnightblue" d="M929.152,-439.35C933.412,-431.071 938.516,-421.056 943,-412 963.777,-370.038 987.683,-319.376 996.996,-299.545"/>
<polygon fill="midnightblue" stroke="midnightblue" points="925.954,-437.915 924.475,-448.406 932.174,-441.128 925.954,-437.915"/>
</g>
<!-- Node30 -->
<g id="node30" class="node"><title>Node30</title>
<g id="a_node30"><a xlink:href="PHScene_8cpp_source.html" target="_top" xlink:title="src/gfx/PHScene.cpp">
<polygon fill="white" stroke="black" points="773,-336.5 773,-355.5 883,-355.5 883,-336.5 773,-336.5"/>
<text text-anchor="middle" x="828" y="-343.5" font-family="Helvetica,sans-Serif" font-size="10.00">src/gfx/PHScene.cpp</text>
</a>
</g>
</g>
<!-- Node1&#45;&gt;Node30 -->
<g id="edge50" class="edge"><title>Node1&#45;&gt;Node30</title>
<path fill="none" stroke="midnightblue" d="M906.272,-440.586C886.437,-416.871 850.472,-373.869 835.186,-355.591"/>
<polygon fill="midnightblue" stroke="midnightblue" points="903.681,-442.943 912.781,-448.368 909.05,-438.452 903.681,-442.943"/>
</g>
<!-- Node3 -->
<g id="node3" class="node"><title>Node3</title>
<g id="a_node3"><a xlink:href="Action_8h.html" target="_top" xlink:title="header for the Action class ">
<polygon fill="white" stroke="black" points="541,-336.5 541,-355.5 631,-355.5 631,-336.5 541,-336.5"/>
<text text-anchor="middle" x="586" y="-343.5" font-family="Helvetica,sans-Serif" font-size="10.00">headers/Action.h</text>
</a>
</g>
</g>
<!-- Node2&#45;&gt;Node3 -->
<g id="edge2" class="edge"><title>Node2&#45;&gt;Node3</title>
<path fill="none" stroke="midnightblue" d="M555.605,-382.983C560.989,-373.817 568.564,-363.092 575.035,-355.751"/>
<polygon fill="midnightblue" stroke="midnightblue" points="552.372,-381.609 550.778,-392.083 558.556,-384.889 552.372,-381.609"/>
</g>
<!-- Node11 -->
<g id="node11" class="node"><title>Node11</title>
<g id="a_node11"><a xlink:href="TikzEditor_8cpp_source.html" target="_top" xlink:title="src/ui/TikzEditor.cpp">
<polygon fill="white" stroke="black" points="810.5,-0.5 810.5,-19.5 917.5,-19.5 917.5,-0.5 810.5,-0.5"/>
<text text-anchor="middle" x="864" y="-7.5" font-family="Helvetica,sans-Serif" font-size="10.00">src/ui/TikzEditor.cpp</text>
</a>
</g>
</g>
<!-- Node2&#45;&gt;Node11 -->
<g id="edge47" class="edge"><title>Node2&#45;&gt;Node11</title>
<path fill="none" stroke="midnightblue" d="M540.884,-383.229C529.587,-358.521 513.907,-313.102 532,-280 612.533,-132.657 754.32,-213.989 850,-76 861.971,-58.7352 863.997,-33.1657 864.168,-19.8259"/>
<polygon fill="midnightblue" stroke="midnightblue" points="537.841,-384.975 545.346,-392.453 544.142,-381.927 537.841,-384.975"/>
</g>
<!-- Node12 -->
<g id="node12" class="node"><title>Node12</title>
<g id="a_node12"><a xlink:href="PHIO_8h.html" target="_top" xlink:title="header for the PHIO class ">
<polygon fill="white" stroke="black" points="385.5,-56.5 385.5,-75.5 472.5,-75.5 472.5,-56.5 385.5,-56.5"/>
<text text-anchor="middle" x="429" y="-63.5" font-family="Helvetica,sans-Serif" font-size="10.00">headers/PHIO.h</text>
</a>
</g>
</g>
<!-- Node2&#45;&gt;Node12 -->
<g id="edge43" class="edge"><title>Node2&#45;&gt;Node12</title>
<path fill="none" stroke="midnightblue" d="M520.069,-388.141C485.995,-371.248 435,-338.098 435,-291 435,-291 435,-291 435,-177 435,-139.131 431.411,-94.0381 429.784,-75.5491"/>
<polygon fill="midnightblue" stroke="midnightblue" points="518.641,-391.338 529.174,-392.473 521.648,-385.016 518.641,-391.338"/>
</g>
<!-- Node14 -->
<g id="node14" class="node"><title>Node14</title>
<g id="a_node14"><a xlink:href="Main2_8cpp_source.html" target="_top" xlink:title="src/Main2.cpp">
<polygon fill="white" stroke="black" points="3,-0.5 3,-19.5 81,-19.5 81,-0.5 3,-0.5"/>
<text text-anchor="middle" x="42" y="-7.5" font-family="Helvetica,sans-Serif" font-size="10.00">src/Main2.cpp</text>
</a>
</g>
</g>
<!-- Node2&#45;&gt;Node14 -->
<g id="edge45" class="edge"><title>Node2&#45;&gt;Node14</title>
<path fill="none" stroke="midnightblue" d="M501.295,-401.528C366.774,-401.686 0,-392.785 0,-291 0,-291 0,-291 0,-121 0,-80.9338 24.6196,-37.739 36.1601,-19.6923"/>
<polygon fill="midnightblue" stroke="midnightblue" points="501.335,-405.028 511.325,-401.499 501.315,-398.028 501.335,-405.028"/>
</g>
<!-- Node17 -->
<g id="node17" class="node"><title>Node17</title>
<g id="a_node17"><a xlink:href="PH_8cpp_source.html" target="_top" xlink:title="src/ph/PH.cpp">
<polygon fill="white" stroke="black" points="28,-56.5 28,-75.5 108,-75.5 108,-56.5 28,-56.5"/>
<text text-anchor="middle" x="68" y="-63.5" font-family="Helvetica,sans-Serif" font-size="10.00">src/ph/PH.cpp</text>
</a>
</g>
</g>
<!-- Node2&#45;&gt;Node17 -->
<g id="edge46" class="edge"><title>Node2&#45;&gt;Node17</title>
<path fill="none" stroke="midnightblue" d="M501.237,-398.945C387.647,-392.833 115,-369.939 115,-291 115,-291 115,-291 115,-177 115,-136.296 87.4495,-93.44 74.5351,-75.5872"/>
<polygon fill="midnightblue" stroke="midnightblue" points="501.229,-402.449 511.397,-399.47 501.59,-395.459 501.229,-402.449"/>
</g>
<!-- Node22 -->
<g id="node22" class="node"><title>Node22</title>
<g id="a_node22"><a xlink:href="GProcess_8h.html" target="_top" xlink:title="header for the GProcess class ">
<polygon fill="white" stroke="black" points="649,-336.5 649,-355.5 755,-355.5 755,-336.5 649,-336.5"/>
<text text-anchor="middle" x="702" y="-343.5" font-family="Helvetica,sans-Serif" font-size="10.00">headers/GProcess.h</text>
</a>
</g>
</g>
<!-- Node2&#45;&gt;Node22 -->
<g id="edge32" class="edge"><title>Node2&#45;&gt;Node22</title>
<path fill="none" stroke="midnightblue" d="M583.668,-389.039C612.268,-378.879 652.612,-364.546 678.028,-355.516"/>
<polygon fill="midnightblue" stroke="midnightblue" points="582.336,-385.798 574.085,-392.444 584.68,-392.394 582.336,-385.798"/>
</g>
<!-- Node26 -->
<g id="node26" class="node"><title>Node26</title>
<g id="a_node26"><a xlink:href="MyArea_8h.html" target="_top" xlink:title="header for the MyArea class ">
<polygon fill="white" stroke="black" points="311,-168.5 311,-187.5 407,-187.5 407,-168.5 311,-168.5"/>
<text text-anchor="middle" x="359" y="-175.5" font-family="Helvetica,sans-Serif" font-size="10.00">headers/MyArea.h</text>
</a>
</g>
</g>
<!-- Node2&#45;&gt;Node26 -->
<g id="edge37" class="edge"><title>Node2&#45;&gt;Node26</title>
<path fill="none" stroke="midnightblue" d="M501.415,-394.548C474.575,-388.65 442.43,-377.402 421,-356 371.698,-306.762 361.498,-216.158 359.478,-187.753"/>
<polygon fill="midnightblue" stroke="midnightblue" points="500.914,-398.017 511.408,-396.556 502.294,-391.154 500.914,-398.017"/>
</g>
<!-- Node2&#45;&gt;Node30 -->
<g id="edge44" class="edge"><title>Node2&#45;&gt;Node30</title>
<path fill="none" stroke="midnightblue" d="M598.717,-391.537C651.134,-381.355 733.742,-365.309 784.18,-355.512"/>
<polygon fill="midnightblue" stroke="midnightblue" points="597.804,-388.149 588.655,-393.492 599.139,-395.02 597.804,-388.149"/>
</g>
<!-- Node3&#45;&gt;Node2 -->
<g id="edge3" class="edge"><title>Node3&#45;&gt;Node2</title>
<path fill="none" stroke="midnightblue" d="M580.516,-364.811C575.165,-373.953 567.598,-384.691 561.111,-392.083"/>
<polygon fill="midnightblue" stroke="midnightblue" points="583.725,-366.229 585.297,-355.751 577.534,-362.962 583.725,-366.229"/>
</g>
<!-- Node3&#45;&gt;Node4 -->
<g id="edge4" class="edge"><title>Node3&#45;&gt;Node4</title>
<path fill="none" stroke="midnightblue" d="M600.436,-330.325C620.377,-315.589 656.715,-293.226 691,-280 744.55,-259.342 809.89,-246.986 853.873,-240.588"/>
<polygon fill="midnightblue" stroke="midnightblue" points="598.241,-327.599 592.493,-336.499 602.537,-333.125 598.241,-327.599"/>
</g>
<!-- Node21 -->
<g id="node21" class="node"><title>Node21</title>
<g id="a_node21"><a xlink:href="Action_8cpp_source.html" target="_top" xlink:title="src/ph/Action.cpp">
<polygon fill="white" stroke="black" points="541.5,-280.5 541.5,-299.5 634.5,-299.5 634.5,-280.5 541.5,-280.5"/>
<text text-anchor="middle" x="588" y="-287.5" font-family="Helvetica,sans-Serif" font-size="10.00">src/ph/Action.cpp</text>
</a>
</g>
</g>
<!-- Node3&#45;&gt;Node21 -->
<g id="edge31" class="edge"><title>Node3&#45;&gt;Node21</title>
<path fill="none" stroke="midnightblue" d="M586.711,-325.805C587.04,-316.91 587.416,-306.78 587.676,-299.751"/>
<polygon fill="midnightblue" stroke="midnightblue" points="583.203,-325.96 586.33,-336.083 590.198,-326.219 583.203,-325.96"/>
</g>
<!-- Node4&#45;&gt;Node1 -->
<g id="edge5" class="edge"><title>Node4&#45;&gt;Node1</title>
<path fill="none" stroke="midnightblue" d="M908.434,-253.957C915.99,-299.866 924.472,-415.633 922.167,-448.297"/>
<polygon fill="midnightblue" stroke="midnightblue" points="911.828,-253.065 906.54,-243.884 904.948,-254.358 911.828,-253.065"/>
</g>
<!-- Node4&#45;&gt;Node3 -->
<g id="edge6" class="edge"><title>Node4&#45;&gt;Node3</title>
<path fill="none" stroke="midnightblue" d="M843.423,-244.715C804.362,-251.788 752.747,-263.124 709,-280 669.464,-295.252 627.199,-322.654 603.589,-336.499"/>
<polygon fill="midnightblue" stroke="midnightblue" points="844.341,-248.108 853.579,-242.921 843.122,-241.214 844.341,-248.108"/>
</g>
<!-- Node5 -->
<g id="node5" class="node"><title>Node5</title>
<g id="a_node5"><a xlink:href="TikzEditor_8h_source.html" target="_top" xlink:title="headers/TikzEditor.h">
<polygon fill="white" stroke="black" points="855.5,-168.5 855.5,-187.5 962.5,-187.5 962.5,-168.5 855.5,-168.5"/>
<text text-anchor="middle" x="909" y="-175.5" font-family="Helvetica,sans-Serif" font-size="10.00">headers/TikzEditor.h</text>
</a>
</g>
</g>
<!-- Node4&#45;&gt;Node5 -->
<g id="edge7" class="edge"><title>Node4&#45;&gt;Node5</title>
<path fill="none" stroke="midnightblue" d="M905.1,-214.101C906.096,-205.136 907.238,-194.858 908.028,-187.751"/>
<polygon fill="midnightblue" stroke="midnightblue" points="901.617,-213.758 903.991,-224.083 908.574,-214.531 901.617,-213.758"/>
</g>
<!-- Node20 -->
<g id="node20" class="node"><title>Node20</title>
<g id="a_node20"><a xlink:href="GAction_8cpp_source.html" target="_top" xlink:title="src/gfx/GAction.cpp">
<polygon fill="white" stroke="black" points="733,-168.5 733,-187.5 837,-187.5 837,-168.5 733,-168.5"/>
<text text-anchor="middle" x="785" y="-175.5" font-family="Helvetica,sans-Serif" font-size="10.00">src/gfx/GAction.cpp</text>
</a>
</g>
</g>
<!-- Node4&#45;&gt;Node20 -->
<g id="edge30" class="edge"><title>Node4&#45;&gt;Node20</title>
<path fill="none" stroke="midnightblue" d="M875.1,-220.232C853.027,-210.131 822.824,-196.309 803.61,-187.516"/>
<polygon fill="midnightblue" stroke="midnightblue" points="873.753,-223.465 884.303,-224.444 876.666,-217.1 873.753,-223.465"/>
</g>
<!-- Node6 -->
<g id="node6" class="node"><title>Node6</title>
<g id="a_node6"><a xlink:href="MainWindow_8h.html" target="_top" xlink:title="header for the Main class ">
<polygon fill="white" stroke="black" points="463.5,-112.5 463.5,-131.5 582.5,-131.5 582.5,-112.5 463.5,-112.5"/>
<text text-anchor="middle" x="523" y="-119.5" font-family="Helvetica,sans-Serif" font-size="10.00">headers/MainWindow.h</text>
</a>
</g>
</g>
<!-- Node5&#45;&gt;Node6 -->
<g id="edge8" class="edge"><title>Node5&#45;&gt;Node6</title>
<path fill="none" stroke="midnightblue" d="M845.276,-167.902C747.018,-154.05 645.205,-139.91 582.54,-131.232"/>
<polygon fill="midnightblue" stroke="midnightblue" points="844.995,-171.397 855.386,-169.328 845.972,-164.465 844.995,-171.397"/>
</g>
<!-- Node5&#45;&gt;Node11 -->
<g id="edge29" class="edge"><title>Node5&#45;&gt;Node11</title>
<path fill="none" stroke="midnightblue" d="M910.134,-158.428C910.964,-134.065 910.168,-90.3766 897,-56 891.594,-41.8866 880.522,-28.2637 872.698,-19.7743"/>
<polygon fill="midnightblue" stroke="midnightblue" points="906.637,-158.281 909.659,-168.435 913.629,-158.612 906.637,-158.281"/>
</g>
<!-- Node7 -->
<g id="node7" class="node"><title>Node7</title>
<g id="a_node7"><a xlink:href="Area_8h_source.html" target="_top" xlink:title="headers/Area.h">
<polygon fill="white" stroke="black" points="284.5,-56.5 284.5,-75.5 367.5,-75.5 367.5,-56.5 284.5,-56.5"/>
<text text-anchor="middle" x="326" y="-63.5" font-family="Helvetica,sans-Serif" font-size="10.00">headers/Area.h</text>
</a>
</g>
</g>
<!-- Node6&#45;&gt;Node7 -->
<g id="edge9" class="edge"><title>Node6&#45;&gt;Node7</title>
<path fill="none" stroke="midnightblue" d="M481.771,-109.699C444.591,-99.507 390.729,-84.7429 357.069,-75.5164"/>
<polygon fill="midnightblue" stroke="midnightblue" points="481.215,-113.175 491.785,-112.444 483.066,-106.424 481.215,-113.175"/>
</g>
<!-- Node10 -->
<g id="node10" class="node"><title>Node10</title>
<g id="a_node10"><a xlink:href="MainWindow_8cpp_source.html" target="_top" xlink:title="src/ui/MainWindow.cpp">
<polygon fill="white" stroke="black" points="121.5,-0.5 121.5,-19.5 240.5,-19.5 240.5,-0.5 121.5,-0.5"/>
<text text-anchor="middle" x="181" y="-7.5" font-family="Helvetica,sans-Serif" font-size="10.00">src/ui/MainWindow.cpp</text>
</a>
</g>
</g>
<!-- Node6&#45;&gt;Node10 -->
<g id="edge27" class="edge"><title>Node6&#45;&gt;Node10</title>
<path fill="none" stroke="midnightblue" d="M453.136,-116.278C402.181,-110.958 332.311,-99.7085 275,-76 240.715,-61.8169 206.361,-33.6714 190.333,-19.5296"/>
<polygon fill="midnightblue" stroke="midnightblue" points="453.091,-119.79 463.388,-117.295 453.782,-112.825 453.091,-119.79"/>
</g>
<!-- Node6&#45;&gt;Node11 -->
<g id="edge28" class="edge"><title>Node6&#45;&gt;Node11</title>
<path fill="none" stroke="midnightblue" d="M592.735,-117.571C670.126,-112.579 789.004,-101.018 826,-76 846.14,-62.3802 857.074,-34.2386 861.548,-19.867"/>
<polygon fill="midnightblue" stroke="midnightblue" points="592.336,-114.089 582.573,-118.204 592.771,-121.075 592.336,-114.089"/>
</g>
<!-- Node6&#45;&gt;Node12 -->
<g id="edge14" class="edge"><title>Node6&#45;&gt;Node12</title>
<path fill="none" stroke="midnightblue" d="M498.938,-107.177C481.641,-97.2407 458.852,-84.1492 444.065,-75.6545"/>
<polygon fill="midnightblue" stroke="midnightblue" points="497.483,-110.378 507.897,-112.324 500.97,-104.308 497.483,-110.378"/>
</g>
<!-- Node13 -->
<g id="node13" class="node"><title>Node13</title>
<g id="a_node13"><a xlink:href="Main_8cpp.html" target="_top" xlink:title="Principal Program. ">
<polygon fill="white" stroke="black" points="719.5,-0.5 719.5,-19.5 792.5,-19.5 792.5,-0.5 719.5,-0.5"/>
<text text-anchor="middle" x="756" y="-7.5" font-family="Helvetica,sans-Serif" font-size="10.00">src/Main.cpp</text>
</a>
</g>
</g>
<!-- Node6&#45;&gt;Node13 -->
<g id="edge23" class="edge"><title>Node6&#45;&gt;Node13</title>
<path fill="none" stroke="midnightblue" d="M516.039,-102.529C511.955,-88.223 509.434,-68.7561 520,-56 547.413,-22.9054 667.802,-28.1257 710,-20 713.036,-19.4153 716.185,-18.8059 719.346,-18.1919"/>
<polygon fill="midnightblue" stroke="midnightblue" points="512.8,-103.88 519.275,-112.266 519.442,-101.673 512.8,-103.88"/>
</g>
<!-- Node6&#45;&gt;Node17 -->
<g id="edge24" class="edge"><title>Node6&#45;&gt;Node17</title>
<path fill="none" stroke="midnightblue" d="M453.24,-114.792C372.202,-107.228 234.581,-93.292 117,-76 114.091,-75.5721 111.09,-75.0991 108.073,-74.6006"/>
<polygon fill="midnightblue" stroke="midnightblue" points="453.04,-118.289 463.321,-115.728 453.687,-111.319 453.04,-118.289"/>
</g>
<!-- Node18 -->
<g id="node18" class="node"><title>Node18</title>
<g id="a_node18"><a xlink:href="ConnectionSettings_8cpp_source.html" target="_top" xlink:title="src/ui/ConnectionSettings.cpp">
<polygon fill="white" stroke="black" points="529,-56.5 529,-75.5 677,-75.5 677,-56.5 529,-56.5"/>
<text text-anchor="middle" x="603" y="-63.5" font-family="Helvetica,sans-Serif" font-size="10.00">src/ui/ConnectionSettings.cpp</text>
</a>
</g>
</g>
<!-- Node6&#45;&gt;Node18 -->
<g id="edge25" class="edge"><title>Node6&#45;&gt;Node18</title>
<path fill="none" stroke="midnightblue" d="M544.301,-106.622C558.915,-96.7574 577.827,-83.9919 590.179,-75.6545"/>
<polygon fill="midnightblue" stroke="midnightblue" points="542.184,-103.828 535.853,-112.324 546.1,-109.63 542.184,-103.828"/>
</g>
<!-- Node19 -->
<g id="node19" class="node"><title>Node19</title>
<g id="a_node19"><a xlink:href="FunctionForm_8cpp_source.html" target="_top" xlink:title="src/ui/FunctionForm.cpp">
<polygon fill="white" stroke="black" points="695,-56.5 695,-75.5 817,-75.5 817,-56.5 695,-56.5"/>
<text text-anchor="middle" x="756" y="-63.5" font-family="Helvetica,sans-Serif" font-size="10.00">src/ui/FunctionForm.cpp</text>
</a>
</g>
</g>
<!-- Node6&#45;&gt;Node19 -->
<g id="edge26" class="edge"><title>Node6&#45;&gt;Node19</title>
<path fill="none" stroke="midnightblue" d="M569.803,-110.153C613.827,-99.95 678.847,-84.8809 719.253,-75.5164"/>
<polygon fill="midnightblue" stroke="midnightblue" points="568.871,-106.776 559.92,-112.444 570.452,-113.595 568.871,-106.776"/>
</g>
<!-- Node8 -->
<g id="node8" class="node"><title>Node8</title>
<g id="a_node8"><a xlink:href="PHIO_8cpp_source.html" target="_top" xlink:title="src/io/PHIO.cpp">
<polygon fill="white" stroke="black" points="359.5,-0.5 359.5,-19.5 446.5,-19.5 446.5,-0.5 359.5,-0.5"/>
<text text-anchor="middle" x="403" y="-7.5" font-family="Helvetica,sans-Serif" font-size="10.00">src/io/PHIO.cpp</text>
</a>
</g>
</g>
<!-- Node7&#45;&gt;Node8 -->
<g id="edge10" class="edge"><title>Node7&#45;&gt;Node8</title>
<path fill="none" stroke="midnightblue" d="M346.901,-50.3422C360.911,-40.5169 378.883,-27.9132 390.659,-19.6545"/>
<polygon fill="midnightblue" stroke="midnightblue" points="344.549,-47.7166 338.371,-56.324 348.568,-53.4477 344.549,-47.7166"/>
</g>
<!-- Node9 -->
<g id="node9" class="node"><title>Node9</title>
<g id="a_node9"><a xlink:href="Area_8cpp_source.html" target="_top" xlink:title="src/ui/Area.cpp">
<polygon fill="white" stroke="black" points="258.5,-0.5 258.5,-19.5 341.5,-19.5 341.5,-0.5 258.5,-0.5"/>
<text text-anchor="middle" x="300" y="-7.5" font-family="Helvetica,sans-Serif" font-size="10.00">src/ui/Area.cpp</text>
</a>
</g>
</g>
<!-- Node7&#45;&gt;Node9 -->
<g id="edge11" class="edge"><title>Node7&#45;&gt;Node9</title>
<path fill="none" stroke="midnightblue" d="M317.325,-46.9827C312.912,-37.8168 307.748,-27.0922 304.213,-19.7511"/>
<polygon fill="midnightblue" stroke="midnightblue" points="314.215,-48.5913 321.707,-56.083 320.522,-45.5546 314.215,-48.5913"/>
</g>
<!-- Node7&#45;&gt;Node10 -->
<g id="edge12" class="edge"><title>Node7&#45;&gt;Node10</title>
<path fill="none" stroke="midnightblue" d="M293.525,-52.9058C266.264,-42.7536 228.008,-28.5063 203.868,-19.5164"/>
<polygon fill="midnightblue" stroke="midnightblue" points="292.432,-56.2334 303.024,-56.4435 294.875,-49.6736 292.432,-56.2334"/>
</g>
<!-- Node7&#45;&gt;Node11 -->
<g id="edge13" class="edge"><title>Node7&#45;&gt;Node11</title>
<path fill="none" stroke="midnightblue" d="M377.629,-55.8913C565.64,-31.5223 615.867,-41.0472 801,-20 804.074,-19.6506 807.229,-19.2699 810.411,-18.869"/>
<polygon fill="midnightblue" stroke="midnightblue" points="377.156,-52.4233 367.696,-57.1935 378.066,-59.3639 377.156,-52.4233"/>
</g>
<!-- Node12&#45;&gt;Node8 -->
<g id="edge15" class="edge"><title>Node12&#45;&gt;Node8</title>
<path fill="none" stroke="midnightblue" d="M420.325,-46.9827C415.912,-37.8168 410.748,-27.0922 407.213,-19.7511"/>
<polygon fill="midnightblue" stroke="midnightblue" points="417.215,-48.5913 424.707,-56.083 423.522,-45.5546 417.215,-48.5913"/>
</g>
<!-- Node12&#45;&gt;Node9 -->
<g id="edge19" class="edge"><title>Node12&#45;&gt;Node9</title>
<path fill="none" stroke="midnightblue" d="M399.146,-52.503C374.962,-42.3795 341.538,-28.388 320.345,-19.5164"/>
<polygon fill="midnightblue" stroke="midnightblue" points="397.984,-55.8106 408.56,-56.4435 400.687,-49.3536 397.984,-55.8106"/>
</g>
<!-- Node12&#45;&gt;Node10 -->
<g id="edge20" class="edge"><title>Node12&#45;&gt;Node10</title>
<path fill="none" stroke="midnightblue" d="M379.774,-54.2815C332.909,-44.0769 263.301,-28.9203 220.112,-19.5164"/>
<polygon fill="midnightblue" stroke="midnightblue" points="379.188,-57.7358 389.704,-56.4435 380.677,-50.896 379.188,-57.7358"/>
</g>
<!-- Node12&#45;&gt;Node11 -->
<g id="edge22" class="edge"><title>Node12&#45;&gt;Node11</title>
<path fill="none" stroke="midnightblue" d="M482.795,-58.8604C555.173,-50.5158 687.891,-34.9187 801,-20 804.067,-19.5955 807.217,-19.1718 810.395,-18.7379"/>
<polygon fill="midnightblue" stroke="midnightblue" points="482.098,-55.4174 472.564,-60.0379 482.899,-62.3715 482.098,-55.4174"/>
</g>
<!-- Node12&#45;&gt;Node13 -->
<g id="edge16" class="edge"><title>Node12&#45;&gt;Node13</title>
<path fill="none" stroke="midnightblue" d="M482.791,-56.6119C551.734,-45.8218 667.434,-27.5701 710,-20 713.044,-19.4586 716.199,-18.8796 719.363,-18.2861"/>
<polygon fill="midnightblue" stroke="midnightblue" points="481.899,-53.2089 472.56,-58.2122 482.981,-60.1248 481.899,-53.2089"/>
</g>
<!-- Node12&#45;&gt;Node14 -->
<g id="edge17" class="edge"><title>Node12&#45;&gt;Node14</title>
<path fill="none" stroke="midnightblue" d="M375.07,-55.9185C304.088,-45.3776 152.908,-25.4833 81.1179,-16.0988"/>
<polygon fill="midnightblue" stroke="midnightblue" points="374.937,-59.4377 385.346,-57.4652 375.979,-52.5157 374.937,-59.4377"/>
</g>
<!-- Node15 -->
<g id="node15" class="node"><title>Node15</title>
<g id="a_node15"><a xlink:href="PHIOTest_8cpp_source.html" target="_top" xlink:title="src/test/PHIOTest.cpp">
<polygon fill="white" stroke="black" points="465,-0.5 465,-19.5 581,-19.5 581,-0.5 465,-0.5"/>
<text text-anchor="middle" x="523" y="-7.5" font-family="Helvetica,sans-Serif" font-size="10.00">src/test/PHIOTest.cpp</text>
</a>
</g>
</g>
<!-- Node12&#45;&gt;Node15 -->
<g id="edge18" class="edge"><title>Node12&#45;&gt;Node15</title>
<path fill="none" stroke="midnightblue" d="M453.062,-51.1774C470.359,-41.2407 493.148,-28.1492 507.935,-19.6545"/>
<polygon fill="midnightblue" stroke="midnightblue" points="451.03,-48.3078 444.103,-56.324 454.517,-54.3775 451.03,-48.3078"/>
</g>
<!-- Node16 -->
<g id="node16" class="node"><title>Node16</title>
<g id="a_node16"><a xlink:href="TextArea_8cpp_source.html" target="_top" xlink:title="src/ui/TextArea.cpp">
<polygon fill="white" stroke="black" points="599,-0.5 599,-19.5 701,-19.5 701,-0.5 599,-0.5"/>
<text text-anchor="middle" x="650" y="-7.5" font-family="Helvetica,sans-Serif" font-size="10.00">src/ui/TextArea.cpp</text>
</a>
</g>
</g>
<!-- Node12&#45;&gt;Node16 -->
<g id="edge21" class="edge"><title>Node12&#45;&gt;Node16</title>
<path fill="none" stroke="midnightblue" d="M473.921,-54.0237C515.668,-43.8232 576.982,-28.8414 615.146,-19.5164"/>
<polygon fill="midnightblue" stroke="midnightblue" points="472.902,-50.6699 464.018,-56.4435 474.563,-57.4698 472.902,-50.6699"/>
</g>
<!-- Node22&#45;&gt;Node23 -->
<g id="edge33" class="edge"><title>Node22&#45;&gt;Node23</title>
<path fill="none" stroke="midnightblue" d="M759.41,-334.632C816.974,-324.235 904.379,-308.45 956.768,-298.988"/>
<polygon fill="midnightblue" stroke="midnightblue" points="758.596,-331.222 749.377,-336.444 759.84,-338.11 758.596,-331.222"/>
</g>
<!-- Node25 -->
<g id="node25" class="node"><title>Node25</title>
<g id="a_node25"><a xlink:href="GProcess_8cpp_source.html" target="_top" xlink:title="src/gfx/GProcess.cpp">
<polygon fill="white" stroke="black" points="709,-280.5 709,-299.5 821,-299.5 821,-280.5 709,-280.5"/>
<text text-anchor="middle" x="765" y="-287.5" font-family="Helvetica,sans-Serif" font-size="10.00">src/gfx/GProcess.cpp</text>
</a>
</g>
</g>
<!-- Node22&#45;&gt;Node25 -->
<g id="edge36" class="edge"><title>Node22&#45;&gt;Node25</title>
<path fill="none" stroke="midnightblue" d="M720.04,-329.537C731.273,-319.909 745.319,-307.869 754.694,-299.834"/>
<polygon fill="midnightblue" stroke="midnightblue" points="717.437,-327.159 712.122,-336.324 721.992,-332.473 717.437,-327.159"/>
</g>
<!-- Node23&#45;&gt;Node4 -->
<g id="edge34" class="edge"><title>Node23&#45;&gt;Node4</title>
<path fill="none" stroke="midnightblue" d="M976.414,-275.453C958.322,-265.483 934.265,-252.228 918.706,-243.655"/>
<polygon fill="midnightblue" stroke="midnightblue" points="974.807,-278.563 985.255,-280.324 978.185,-272.432 974.807,-278.563"/>
</g>
<!-- Node24 -->
<g id="node24" class="node"><title>Node24</title>
<g id="a_node24"><a xlink:href="GSort_8cpp_source.html" target="_top" xlink:title="src/gfx/GSort.cpp">
<polygon fill="white" stroke="black" points="970,-224.5 970,-243.5 1064,-243.5 1064,-224.5 970,-224.5"/>
<text text-anchor="middle" x="1017" y="-231.5" font-family="Helvetica,sans-Serif" font-size="10.00">src/gfx/GSort.cpp</text>
</a>
</g>
</g>
<!-- Node23&#45;&gt;Node24 -->
<g id="edge35" class="edge"><title>Node23&#45;&gt;Node24</title>
<path fill="none" stroke="midnightblue" d="M1006.51,-270.396C1009.19,-261.362 1012.28,-250.936 1014.41,-243.751"/>
<polygon fill="midnightblue" stroke="midnightblue" points="1003.13,-269.501 1003.64,-280.083 1009.84,-271.489 1003.13,-269.501"/>
</g>
<!-- Node26&#45;&gt;Node6 -->
<g id="edge41" class="edge"><title>Node26&#45;&gt;Node6</title>
<path fill="none" stroke="midnightblue" d="M394.52,-165.304C425.422,-155.129 469.473,-140.625 497.135,-131.516"/>
<polygon fill="midnightblue" stroke="midnightblue" points="393.39,-161.992 384.986,-168.444 395.579,-168.64 393.39,-161.992"/>
</g>
<!-- Node27 -->
<g id="node27" class="node"><title>Node27</title>
<g id="a_node27"><a xlink:href="TreeArea_8h_source.html" target="_top" xlink:title="headers/TreeArea.h">
<polygon fill="white" stroke="black" points="191,-112.5 191,-131.5 293,-131.5 293,-112.5 191,-112.5"/>
<text text-anchor="middle" x="242" y="-119.5" font-family="Helvetica,sans-Serif" font-size="10.00">headers/TreeArea.h</text>
</a>
</g>
</g>
<!-- Node26&#45;&gt;Node27 -->
<g id="edge38" class="edge"><title>Node26&#45;&gt;Node27</title>
<path fill="none" stroke="midnightblue" d="M331.336,-164.232C309.451,-154.131 279.503,-140.309 260.452,-131.516"/>
<polygon fill="midnightblue" stroke="midnightblue" points="329.915,-167.431 340.461,-168.444 332.848,-161.075 329.915,-167.431"/>
</g>
<!-- Node29 -->
<g id="node29" class="node"><title>Node29</title>
<g id="a_node29"><a xlink:href="MyArea_8cpp_source.html" target="_top" xlink:title="src/ui/MyArea.cpp">
<polygon fill="white" stroke="black" points="311,-112.5 311,-131.5 407,-131.5 407,-112.5 311,-112.5"/>
<text text-anchor="middle" x="359" y="-119.5" font-family="Helvetica,sans-Serif" font-size="10.00">src/ui/MyArea.cpp</text>
</a>
</g>
</g>
<!-- Node26&#45;&gt;Node29 -->
<g id="edge42" class="edge"><title>Node26&#45;&gt;Node29</title>
<path fill="none" stroke="midnightblue" d="M359,-157.805C359,-148.91 359,-138.78 359,-131.751"/>
<polygon fill="midnightblue" stroke="midnightblue" points="355.5,-158.083 359,-168.083 362.5,-158.083 355.5,-158.083"/>
</g>
<!-- Node27&#45;&gt;Node7 -->
<g id="edge39" class="edge"><title>Node27&#45;&gt;Node7</title>
<path fill="none" stroke="midnightblue" d="M263.932,-106.901C279.335,-96.9986 299.446,-84.0705 312.537,-75.6545"/>
<polygon fill="midnightblue" stroke="midnightblue" points="262.015,-103.972 255.496,-112.324 265.801,-109.86 262.015,-103.972"/>
</g>
<!-- Node28 -->
<g id="node28" class="node"><title>Node28</title>
<g id="a_node28"><a xlink:href="TreeArea_8cpp_source.html" target="_top" xlink:title="src/ui/TreeArea.cpp">
<polygon fill="white" stroke="black" points="126,-56.5 126,-75.5 228,-75.5 228,-56.5 126,-56.5"/>
<text text-anchor="middle" x="177" y="-63.5" font-family="Helvetica,sans-Serif" font-size="10.00">src/ui/TreeArea.cpp</text>
</a>
</g>
</g>
<!-- Node27&#45;&gt;Node28 -->
<g id="edge40" class="edge"><title>Node27&#45;&gt;Node28</title>
<path fill="none" stroke="midnightblue" d="M223.727,-105.82C212.082,-96.1452 197.401,-83.9481 187.633,-75.8339"/>
<polygon fill="midnightblue" stroke="midnightblue" points="221.628,-108.626 231.557,-112.324 226.101,-103.242 221.628,-108.626"/>
</g>
</g>
</svg>
