<?xml version="1.0" encoding="UTF-8" standalone="no"?>
<!DOCTYPE svg PUBLIC "-//W3C//DTD SVG 1.1//EN"
 "http://www.w3.org/Graphics/SVG/1.1/DTD/svg11.dtd">
<!-- Generated by graphviz version 2.38.0 (20140413.2041)
 -->
<!-- Title: headers/PHScene.h Pages: 1 -->
<svg width="1634pt" height="420pt"
 viewBox="0.00 0.00 1633.50 420.00" xmlns="http://www.w3.org/2000/svg" xmlns:xlink="http://www.w3.org/1999/xlink">
<g id="graph0" class="graph" transform="scale(1 1) rotate(0) translate(4 416)">
<title>headers/PHScene.h</title>
<polygon fill="white" stroke="none" points="-4,4 -4,-416 1629.5,-416 1629.5,4 -4,4"/>
<!-- Node1 -->
<g id="node1" class="node"><title>Node1</title>
<polygon fill="#bfbfbf" stroke="black" points="1242,-392.5 1242,-411.5 1346,-411.5 1346,-392.5 1242,-392.5"/>
<text text-anchor="middle" x="1294" y="-399.5" font-family="Helvetica,sans-Serif" font-size="10.00">headers/PHScene.h</text>
</g>
<!-- Node2 -->
<g id="node2" class="node"><title>Node2</title>
<polygon fill="white" stroke="#bfbfbf" points="822,-0.5 822,-19.5 930,-19.5 930,-0.5 822,-0.5"/>
<text text-anchor="middle" x="876" y="-7.5" font-family="Helvetica,sans-Serif" font-size="10.00">boost/shared_ptr.hpp</text>
</g>
<!-- Node1&#45;&gt;Node2 -->
<g id="edge1" class="edge"><title>Node1&#45;&gt;Node2</title>
<path fill="none" stroke="midnightblue" d="M1307.12,-392.463C1330.75,-375.943 1378,-337.135 1378,-291 1378,-291 1378,-291 1378,-177 1378,-113.257 1355.18,-89.5771 1301,-56 1242.25,-19.5942 1043.94,-12.3439 940.3,-11.0947"/>
<polygon fill="midnightblue" stroke="midnightblue" points="940.306,-7.59468 930.27,-10.989 940.233,-14.5943 940.306,-7.59468"/>
</g>
<!-- Node3 -->
<g id="node3" class="node"><title>Node3</title>
<polygon fill="white" stroke="#bfbfbf" points="1463.5,-336.5 1463.5,-355.5 1516.5,-355.5 1516.5,-336.5 1463.5,-336.5"/>
<text text-anchor="middle" x="1490" y="-343.5" font-family="Helvetica,sans-Serif" font-size="10.00">QObject</text>
</g>
<!-- Node1&#45;&gt;Node3 -->
<g id="edge2" class="edge"><title>Node1&#45;&gt;Node3</title>
<path fill="none" stroke="midnightblue" d="M1325.06,-392.444C1359.98,-382.821 1416.64,-367.21 1453.62,-357.024"/>
<polygon fill="midnightblue" stroke="midnightblue" points="1454.78,-360.335 1463.49,-354.304 1452.92,-353.586 1454.78,-360.335"/>
</g>
<!-- Node4 -->
<g id="node4" class="node"><title>Node4</title>
<polygon fill="white" stroke="#bfbfbf" points="1534.5,-336.5 1534.5,-355.5 1625.5,-355.5 1625.5,-336.5 1534.5,-336.5"/>
<text text-anchor="middle" x="1580" y="-343.5" font-family="Helvetica,sans-Serif" font-size="10.00">QGraphicsScene</text>
</g>
<!-- Node1&#45;&gt;Node4 -->
<g id="edge3" class="edge"><title>Node1&#45;&gt;Node4</title>
<path fill="none" stroke="midnightblue" d="M1339.32,-392.444C1389.63,-382.944 1470.84,-367.611 1524.81,-357.42"/>
<polygon fill="midnightblue" stroke="midnightblue" points="1525.72,-360.811 1534.89,-355.516 1524.42,-353.933 1525.72,-360.811"/>
</g>
<!-- Node5 -->
<g id="node5" class="node"><title>Node5</title>
<polygon fill="white" stroke="#bfbfbf" points="1276.5,-112.5 1276.5,-131.5 1311.5,-131.5 1311.5,-112.5 1276.5,-112.5"/>
<text text-anchor="middle" x="1294" y="-119.5" font-family="Helvetica,sans-Serif" font-size="10.00">map</text>
</g>
<!-- Node1&#45;&gt;Node5 -->
<g id="edge4" class="edge"><title>Node1&#45;&gt;Node5</title>
<path fill="none" stroke="midnightblue" d="M1294,-392.442C1294,-373.936 1294,-328.812 1294,-291 1294,-291 1294,-291 1294,-233 1294,-200.948 1294,-163.643 1294,-141.749"/>
<polygon fill="midnightblue" stroke="midnightblue" points="1297.5,-141.558 1294,-131.558 1290.5,-141.558 1297.5,-141.558"/>
</g>
<!-- Node6 -->
<g id="node6" class="node"><title>Node6</title>
<polygon fill="white" stroke="#bfbfbf" points="1300.5,-0.5 1300.5,-19.5 1341.5,-19.5 1341.5,-0.5 1300.5,-0.5"/>
<text text-anchor="middle" x="1321" y="-7.5" font-family="Helvetica,sans-Serif" font-size="10.00">string</text>
</g>
<!-- Node1&#45;&gt;Node6 -->
<g id="edge5" class="edge"><title>Node1&#45;&gt;Node6</title>
<path fill="none" stroke="midnightblue" d="M1323.9,-392.448C1365.29,-378.564 1435,-346.885 1435,-291 1435,-291 1435,-291 1435,-121 1435,-74.1149 1384.45,-40.8944 1350.67,-23.9302"/>
<polygon fill="midnightblue" stroke="midnightblue" points="1352.17,-20.7687 1341.64,-19.5787 1349.13,-27.0742 1352.17,-20.7687"/>
</g>
<!-- Node7 -->
<g id="node7" class="node"><title>Node7</title>
<g id="a_node7"><a xlink:href="GAction_8h.html" target="_top" xlink:title="header for the GAction class ">
<polygon fill="white" stroke="black" points="330,-336.5 330,-355.5 390,-355.5 390,-336.5 330,-336.5"/>
<text text-anchor="middle" x="360" y="-343.5" font-family="Helvetica,sans-Serif" font-size="10.00">GAction.h</text>
</a>
</g>
</g>
<!-- Node1&#45;&gt;Node7 -->
<g id="edge6" class="edge"><title>Node1&#45;&gt;Node7</title>
<path fill="none" stroke="midnightblue" d="M1241.87,-398.173C1074,-388.742 550.204,-358.455 400.355,-349.51"/>
<polygon fill="midnightblue" stroke="midnightblue" points="400.413,-346.007 390.222,-348.903 399.995,-352.995 400.413,-346.007"/>
</g>
<!-- Node7&#45;&gt;Node1 -->
<g id="edge15" class="edge"><title>Node7&#45;&gt;Node1</title>
<path fill="none" stroke="midnightblue" d="M390.244,-348.604C522.33,-355.938 1049.19,-386.376 1231.56,-397.177"/>
<polygon fill="midnightblue" stroke="midnightblue" points="1231.59,-400.685 1241.78,-397.784 1232.01,-393.698 1231.59,-400.685"/>
</g>
<!-- Node8 -->
<g id="node8" class="node"><title>Node8</title>
<polygon fill="white" stroke="#bfbfbf" points="418.5,-168.5 418.5,-187.5 501.5,-187.5 501.5,-168.5 418.5,-168.5"/>
<text text-anchor="middle" x="460" y="-175.5" font-family="Helvetica,sans-Serif" font-size="10.00">QGraphicsItem</text>
</g>
<!-- Node7&#45;&gt;Node8 -->
<g id="edge7" class="edge"><title>Node7&#45;&gt;Node8</title>
<path fill="none" stroke="midnightblue" d="M344.662,-336.38C311.007,-316.391 236.204,-265.421 269,-224 286.064,-202.448 357.518,-190.186 408.005,-184.065"/>
<polygon fill="midnightblue" stroke="midnightblue" points="408.589,-187.521 418.117,-182.887 407.779,-180.568 408.589,-187.521"/>
</g>
<!-- Node9 -->
<g id="node9" class="node"><title>Node9</title>
<polygon fill="white" stroke="#bfbfbf" points="66,-280.5 66,-299.5 184,-299.5 184,-280.5 66,-280.5"/>
<text text-anchor="middle" x="125" y="-287.5" font-family="Helvetica,sans-Serif" font-size="10.00">QGraphicsPolygonItem</text>
</g>
<!-- Node7&#45;&gt;Node9 -->
<g id="edge8" class="edge"><title>Node7&#45;&gt;Node9</title>
<path fill="none" stroke="midnightblue" d="M329.759,-338.051C289.799,-328.869 218.994,-312.599 172.022,-301.805"/>
<polygon fill="midnightblue" stroke="midnightblue" points="172.618,-298.351 162.089,-299.522 171.051,-305.173 172.618,-298.351"/>
</g>
<!-- Node10 -->
<g id="node10" class="node"><title>Node10</title>
<polygon fill="white" stroke="#bfbfbf" points="508.5,-0.5 508.5,-19.5 537.5,-19.5 537.5,-0.5 508.5,-0.5"/>
<text text-anchor="middle" x="523" y="-7.5" font-family="Helvetica,sans-Serif" font-size="10.00">list</text>
</g>
<!-- Node7&#45;&gt;Node10 -->
<g id="edge9" class="edge"><title>Node7&#45;&gt;Node10</title>
<path fill="none" stroke="midnightblue" d="M329.691,-336.65C310.448,-329.828 286.52,-318.27 272,-300 250.63,-273.112 243.158,-254.974 258,-224 309.388,-116.762 444.01,-46.3961 499.039,-21.2816"/>
<polygon fill="midnightblue" stroke="midnightblue" points="500.648,-24.396 508.35,-17.12 497.792,-18.0053 500.648,-24.396"/>
</g>
<!-- Node11 -->
<g id="node11" class="node"><title>Node11</title>
<polygon fill="white" stroke="#bfbfbf" points="316,-280.5 316,-299.5 356,-299.5 356,-280.5 316,-280.5"/>
<text text-anchor="middle" x="336" y="-287.5" font-family="Helvetica,sans-Serif" font-size="10.00">utility</text>
</g>
<!-- Node7&#45;&gt;Node11 -->
<g id="edge10" class="edge"><title>Node7&#45;&gt;Node11</title>
<path fill="none" stroke="midnightblue" d="M356.037,-336.083C352.787,-328.77 348.081,-318.181 344.046,-309.103"/>
<polygon fill="midnightblue" stroke="midnightblue" points="347.149,-307.468 339.889,-299.751 340.752,-310.311 347.149,-307.468"/>
</g>
<!-- Node12 -->
<g id="node12" class="node"><title>Node12</title>
<g id="a_node12"><a xlink:href="GVEdge_8h.html" target="_top" xlink:title="header for the GVEdge class ">
<polygon fill="white" stroke="black" points="246,-56.5 246,-75.5 308,-75.5 308,-56.5 246,-56.5"/>
<text text-anchor="middle" x="277" y="-63.5" font-family="Helvetica,sans-Serif" font-size="10.00">GVEdge.h</text>
</a>
</g>
</g>
<!-- Node7&#45;&gt;Node12 -->
<g id="edge11" class="edge"><title>Node7&#45;&gt;Node12</title>
<path fill="none" stroke="midnightblue" d="M329.925,-345.267C260.453,-345.178 92.0803,-340.675 57,-300 -18.111,-212.91 171.532,-114.542 247.33,-79.8971"/>
<polygon fill="midnightblue" stroke="midnightblue" points="249.137,-82.9217 256.817,-75.6227 246.262,-76.5396 249.137,-82.9217"/>
</g>
<!-- Node13 -->
<g id="node13" class="node"><title>Node13</title>
<polygon fill="white" stroke="#bfbfbf" points="179.5,-0.5 179.5,-19.5 226.5,-19.5 226.5,-0.5 179.5,-0.5"/>
<text text-anchor="middle" x="203" y="-7.5" font-family="Helvetica,sans-Serif" font-size="10.00">QPoint</text>
</g>
<!-- Node7&#45;&gt;Node13 -->
<g id="edge70" class="edge"><title>Node7&#45;&gt;Node13</title>
<path fill="none" stroke="midnightblue" d="M329.855,-343.887C260.01,-340.816 89.4473,-330.335 42,-300 13.0216,-281.473 0,-269.395 0,-235 0,-235 0,-235 0,-121 0,-44.9621 111.46,-21.2136 169.199,-14.0125"/>
<polygon fill="midnightblue" stroke="midnightblue" points="169.78,-17.4688 179.316,-12.8515 168.982,-10.5145 169.78,-17.4688"/>
</g>
<!-- Node16 -->
<g id="node16" class="node"><title>Node16</title>
<g id="a_node16"><a xlink:href="Action_8h.html" target="_top" xlink:title="header for the Action class ">
<polygon fill="white" stroke="black" points="905.5,-224.5 905.5,-243.5 958.5,-243.5 958.5,-224.5 905.5,-224.5"/>
<text text-anchor="middle" x="932" y="-231.5" font-family="Helvetica,sans-Serif" font-size="10.00">Action.h</text>
</a>
</g>
</g>
<!-- Node7&#45;&gt;Node16 -->
<g id="edge16" class="edge"><title>Node7&#45;&gt;Node16</title>
<path fill="none" stroke="midnightblue" d="M390.23,-338.43C435.113,-329.788 521.377,-314.047 595,-300 721.373,-275.888 752.867,-269.335 879,-244 884.256,-242.944 889.862,-241.807 895.425,-240.707"/>
<polygon fill="midnightblue" stroke="midnightblue" points="896.156,-244.131 905.309,-238.795 894.826,-237.258 896.156,-244.131"/>
</g>
<!-- Node17 -->
<g id="node17" class="node"><title>Node17</title>
<polygon fill="white" stroke="#bfbfbf" points="482,-56.5 482,-75.5 526,-75.5 526,-56.5 482,-56.5"/>
<text text-anchor="middle" x="504" y="-63.5" font-family="Helvetica,sans-Serif" font-size="10.00">vector</text>
</g>
<!-- Node7&#45;&gt;Node17 -->
<g id="edge71" class="edge"><title>Node7&#45;&gt;Node17</title>
<path fill="none" stroke="midnightblue" d="M360.973,-336.375C361.992,-327.318 363.63,-312.66 365,-300 368.653,-266.233 361.734,-256.041 373,-224 394.849,-161.859 453.848,-107.318 484.664,-82.006"/>
<polygon fill="midnightblue" stroke="midnightblue" points="486.955,-84.6547 492.554,-75.6599 482.568,-79.2001 486.955,-84.6547"/>
</g>
<!-- Node28 -->
<g id="node28" class="node"><title>Node28</title>
<g id="a_node28"><a xlink:href="GSort_8h.html" target="_top" xlink:title="header for the GSort class ">
<polygon fill="white" stroke="black" points="545,-280.5 545,-299.5 595,-299.5 595,-280.5 545,-280.5"/>
<text text-anchor="middle" x="570" y="-287.5" font-family="Helvetica,sans-Serif" font-size="10.00">GSort.h</text>
</a>
</g>
</g>
<!-- Node7&#45;&gt;Node28 -->
<g id="edge50" class="edge"><title>Node7&#45;&gt;Node28</title>
<path fill="none" stroke="midnightblue" d="M390.088,-337.263C428.458,-327.396 494.678,-310.369 535.187,-299.952"/>
<polygon fill="midnightblue" stroke="midnightblue" points="536.086,-303.335 544.899,-297.455 534.342,-296.555 536.086,-303.335"/>
</g>
<!-- Node31 -->
<g id="node31" class="node"><title>Node31</title>
<polygon fill="white" stroke="#bfbfbf" points="278.5,-224.5 278.5,-243.5 325.5,-243.5 325.5,-224.5 278.5,-224.5"/>
<text text-anchor="middle" x="302" y="-231.5" font-family="Helvetica,sans-Serif" font-size="10.00">QColor</text>
</g>
<!-- Node7&#45;&gt;Node31 -->
<g id="edge68" class="edge"><title>Node7&#45;&gt;Node31</title>
<path fill="none" stroke="midnightblue" d="M344.247,-336.384C331.788,-328.636 315.174,-316.02 307,-300 299.686,-285.665 298.954,-267.202 299.749,-253.619"/>
<polygon fill="midnightblue" stroke="midnightblue" points="303.244,-253.83 300.665,-243.554 296.273,-253.196 303.244,-253.83"/>
</g>
<!-- Node32 -->
<g id="node32" class="node"><title>Node32</title>
<polygon fill="white" stroke="#bfbfbf" points="382,-224.5 382,-243.5 426,-243.5 426,-224.5 382,-224.5"/>
<text text-anchor="middle" x="404" y="-231.5" font-family="Helvetica,sans-Serif" font-size="10.00">QSize</text>
</g>
<!-- Node7&#45;&gt;Node32 -->
<g id="edge69" class="edge"><title>Node7&#45;&gt;Node32</title>
<path fill="none" stroke="midnightblue" d="M370.393,-336.179C379.401,-327.859 391.916,-314.524 398,-300 404.095,-285.448 405.336,-267.5 405.199,-254.153"/>
<polygon fill="midnightblue" stroke="midnightblue" points="408.683,-253.672 404.811,-243.81 401.688,-253.934 408.683,-253.672"/>
</g>
<!-- Node12&#45;&gt;Node13 -->
<g id="edge12" class="edge"><title>Node12&#45;&gt;Node13</title>
<path fill="none" stroke="midnightblue" d="M265.111,-56.324C253.85,-48.1066 236.713,-35.6017 223.291,-25.8069"/>
<polygon fill="midnightblue" stroke="midnightblue" points="225.247,-22.9014 215.106,-19.8339 221.12,-28.5559 225.247,-22.9014"/>
</g>
<!-- Node14 -->
<g id="node14" class="node"><title>Node14</title>
<polygon fill="white" stroke="#bfbfbf" points="338,-0.5 338,-19.5 388,-19.5 388,-0.5 338,-0.5"/>
<text text-anchor="middle" x="363" y="-7.5" font-family="Helvetica,sans-Serif" font-size="10.00">QString</text>
</g>
<!-- Node12&#45;&gt;Node14 -->
<g id="edge13" class="edge"><title>Node12&#45;&gt;Node14</title>
<path fill="none" stroke="midnightblue" d="M290.817,-56.324C304.233,-47.9002 324.824,-34.9709 340.586,-25.0741"/>
<polygon fill="midnightblue" stroke="midnightblue" points="342.609,-27.9364 349.217,-19.6545 338.887,-22.0081 342.609,-27.9364"/>
</g>
<!-- Node15 -->
<g id="node15" class="node"><title>Node15</title>
<polygon fill="white" stroke="#bfbfbf" points="244.5,-0.5 244.5,-19.5 319.5,-19.5 319.5,-0.5 244.5,-0.5"/>
<text text-anchor="middle" x="282" y="-7.5" font-family="Helvetica,sans-Serif" font-size="10.00">QPainterPath</text>
</g>
<!-- Node12&#45;&gt;Node15 -->
<g id="edge14" class="edge"><title>Node12&#45;&gt;Node15</title>
<path fill="none" stroke="midnightblue" d="M277.826,-56.083C278.481,-49.0059 279.42,-38.8611 280.242,-29.9865"/>
<polygon fill="midnightblue" stroke="midnightblue" points="283.753,-30.0312 281.19,-19.7511 276.783,-29.3858 283.753,-30.0312"/>
</g>
<!-- Node16&#45;&gt;Node2 -->
<g id="edge17" class="edge"><title>Node16&#45;&gt;Node2</title>
<path fill="none" stroke="midnightblue" d="M926.326,-224.219C916.622,-209.97 895.404,-182.002 870,-168 798.932,-128.829 742.414,-194.783 691,-132 679.072,-117.434 679.584,-78.3635 700,-56 715.141,-39.4152 767.899,-27.3569 811.738,-19.9212"/>
<polygon fill="midnightblue" stroke="midnightblue" points="812.498,-23.3433 821.798,-18.2678 811.363,-16.436 812.498,-23.3433"/>
</g>
<!-- Node16&#45;&gt;Node6 -->
<g id="edge18" class="edge"><title>Node16&#45;&gt;Node6</title>
<path fill="none" stroke="midnightblue" d="M958.638,-230.143C1038.6,-220.977 1273.9,-189.492 1320,-132 1343.46,-102.746 1334.69,-55.46 1327.23,-29.5108"/>
<polygon fill="midnightblue" stroke="midnightblue" points="1330.53,-28.3189 1324.21,-19.8108 1323.84,-30.3992 1330.53,-28.3189"/>
</g>
<!-- Node16&#45;&gt;Node7 -->
<g id="edge49" class="edge"><title>Node16&#45;&gt;Node7</title>
<path fill="none" stroke="midnightblue" d="M905.438,-242.291C902.6,-242.872 899.752,-243.447 897,-244 770.867,-269.335 739.373,-275.888 613,-300 538.34,-314.245 450.682,-330.231 400.466,-338.791"/>
<polygon fill="midnightblue" stroke="midnightblue" points="399.614,-335.385 390.337,-340.502 400.78,-342.288 399.614,-335.385"/>
</g>
<!-- Node16&#45;&gt;Node17 -->
<g id="edge19" class="edge"><title>Node16&#45;&gt;Node17</title>
<path fill="none" stroke="midnightblue" d="M922.6,-224.347C906.45,-210.024 871.801,-181.617 837,-168 734.509,-127.896 693.75,-173.949 592,-132 564.187,-120.533 537.104,-98.3735 520.494,-83.1419"/>
<polygon fill="midnightblue" stroke="midnightblue" points="522.492,-80.215 512.815,-75.9017 517.69,-85.3083 522.492,-80.215"/>
</g>
<!-- Node18 -->
<g id="node18" class="node"><title>Node18</title>
<g id="a_node18"><a xlink:href="PH_8h.html" target="_top" xlink:title="header for the PH class ">
<polygon fill="white" stroke="black" points="960.5,-168.5 960.5,-187.5 999.5,-187.5 999.5,-168.5 960.5,-168.5"/>
<text text-anchor="middle" x="980" y="-175.5" font-family="Helvetica,sans-Serif" font-size="10.00">PH.h</text>
</a>
</g>
</g>
<!-- Node16&#45;&gt;Node18 -->
<g id="edge20" class="edge"><title>Node16&#45;&gt;Node18</title>
<path fill="none" stroke="midnightblue" d="M934.76,-224.083C940.144,-216.141 950.292,-204.335 959.753,-194.797"/>
<polygon fill="midnightblue" stroke="midnightblue" points="962.302,-197.202 967.09,-187.751 957.453,-192.154 962.302,-197.202"/>
</g>
<!-- Node18&#45;&gt;Node1 -->
<g id="edge38" class="edge"><title>Node18&#45;&gt;Node1</title>
<path fill="none" stroke="midnightblue" d="M992.224,-187.643C1039.85,-221.316 1213.32,-343.958 1273.37,-386.416"/>
<polygon fill="midnightblue" stroke="midnightblue" points="1271.5,-389.382 1281.69,-392.297 1275.55,-383.666 1271.5,-389.382"/>
</g>
<!-- Node18&#45;&gt;Node2 -->
<g id="edge24" class="edge"><title>Node18&#45;&gt;Node2</title>
<path fill="none" stroke="midnightblue" d="M960.313,-171.386C955.644,-170.166 950.666,-168.957 946,-168 892.094,-156.942 736.972,-173.644 701,-132 686.096,-114.746 697.375,-75.5757 717,-56 741.834,-31.228 779.215,-19.8537 811.494,-14.7301"/>
<polygon fill="midnightblue" stroke="midnightblue" points="812.361,-18.1425 821.772,-13.2772 811.381,-11.2114 812.361,-18.1425"/>
</g>
<!-- Node18&#45;&gt;Node5 -->
<g id="edge22" class="edge"><title>Node18&#45;&gt;Node5</title>
<path fill="none" stroke="midnightblue" d="M999.634,-174.664C1045.74,-169.004 1164.43,-153.431 1262,-132 1263.48,-131.675 1264.99,-131.322 1266.52,-130.95"/>
<polygon fill="midnightblue" stroke="midnightblue" points="1267.71,-134.255 1276.49,-128.321 1265.93,-127.486 1267.71,-134.255"/>
</g>
<!-- Node18&#45;&gt;Node6 -->
<g id="edge23" class="edge"><title>Node18&#45;&gt;Node6</title>
<path fill="none" stroke="midnightblue" d="M999.784,-176.795C1055.44,-175.122 1214.93,-162.613 1301,-76 1313.08,-63.8404 1317.89,-44.5662 1319.79,-30.1583"/>
<polygon fill="midnightblue" stroke="midnightblue" points="1323.31,-30.1636 1320.78,-19.8757 1316.34,-29.4969 1323.31,-30.1636"/>
</g>
<!-- Node18&#45;&gt;Node10 -->
<g id="edge21" class="edge"><title>Node18&#45;&gt;Node10</title>
<path fill="none" stroke="midnightblue" d="M960.316,-171.366C955.648,-170.148 950.668,-168.944 946,-168 833.813,-145.316 797.198,-174.69 691,-132 628.167,-106.742 566.826,-53.1254 538.812,-26.5712"/>
<polygon fill="midnightblue" stroke="midnightblue" points="541.152,-23.966 531.521,-19.5519 536.298,-29.0089 541.152,-23.966"/>
</g>
<!-- Node18&#45;&gt;Node16 -->
<g id="edge26" class="edge"><title>Node18&#45;&gt;Node16</title>
<path fill="none" stroke="midnightblue" d="M977.296,-187.834C971.917,-195.791 961.705,-207.673 952.196,-217.253"/>
<polygon fill="midnightblue" stroke="midnightblue" points="949.62,-214.875 944.827,-224.324 954.466,-219.926 949.62,-214.875"/>
</g>
<!-- Node19 -->
<g id="node19" class="node"><title>Node19</title>
<polygon fill="white" stroke="#bfbfbf" points="1171.5,-56.5 1171.5,-75.5 1292.5,-75.5 1292.5,-56.5 1171.5,-56.5"/>
<text text-anchor="middle" x="1232" y="-63.5" font-family="Helvetica,sans-Serif" font-size="10.00">boost/make_shared.hpp</text>
</g>
<!-- Node18&#45;&gt;Node19 -->
<g id="edge25" class="edge"><title>Node18&#45;&gt;Node19</title>
<path fill="none" stroke="midnightblue" d="M999.774,-168.368C1044.03,-149.051 1151.22,-102.259 1203.02,-79.6481"/>
<polygon fill="midnightblue" stroke="midnightblue" points="1204.55,-82.7998 1212.32,-75.5914 1201.75,-76.3843 1204.55,-82.7998"/>
</g>
<!-- Node20 -->
<g id="node20" class="node"><title>Node20</title>
<g id="a_node20"><a xlink:href="GVSkeletonGraph_8h.html" target="_top" xlink:title="header for the GVSkeletonGraph class ">
<polygon fill="white" stroke="black" points="710,-112.5 710,-131.5 814,-131.5 814,-112.5 710,-112.5"/>
<text text-anchor="middle" x="762" y="-119.5" font-family="Helvetica,sans-Serif" font-size="10.00">GVSkeletonGraph.h</text>
</a>
</g>
</g>
<!-- Node18&#45;&gt;Node20 -->
<g id="edge27" class="edge"><title>Node18&#45;&gt;Node20</title>
<path fill="none" stroke="midnightblue" d="M960.24,-171.702C955.575,-170.47 950.615,-169.175 946,-168 898.954,-156.022 844.982,-142.894 807.716,-133.926"/>
<polygon fill="midnightblue" stroke="midnightblue" points="808.208,-130.445 797.667,-131.512 806.573,-137.251 808.208,-130.445"/>
</g>
<!-- Node26 -->
<g id="node26" class="node"><title>Node26</title>
<g id="a_node26"><a xlink:href="Sort_8h.html" target="_top" xlink:title="header for the Sort class ">
<polygon fill="white" stroke="black" points="1024.5,-112.5 1024.5,-131.5 1067.5,-131.5 1067.5,-112.5 1024.5,-112.5"/>
<text text-anchor="middle" x="1046" y="-119.5" font-family="Helvetica,sans-Serif" font-size="10.00">Sort.h</text>
</a>
</g>
</g>
<!-- Node18&#45;&gt;Node26 -->
<g id="edge39" class="edge"><title>Node18&#45;&gt;Node26</title>
<path fill="none" stroke="midnightblue" d="M990.604,-168.324C1000.46,-160.263 1015.35,-148.077 1027.22,-138.369"/>
<polygon fill="midnightblue" stroke="midnightblue" points="1029.68,-140.875 1035.2,-131.834 1025.25,-135.457 1029.68,-140.875"/>
</g>
<!-- Node20&#45;&gt;Node2 -->
<g id="edge29" class="edge"><title>Node20&#45;&gt;Node2</title>
<path fill="none" stroke="midnightblue" d="M750.717,-112.384C735.266,-99.534 710.953,-74.8432 725,-56 744.989,-29.1848 780.329,-17.719 811.796,-13.0574"/>
<polygon fill="midnightblue" stroke="midnightblue" points="812.377,-16.5118 821.853,-11.7722 811.49,-9.56824 812.377,-16.5118"/>
</g>
<!-- Node20&#45;&gt;Node12 -->
<g id="edge37" class="edge"><title>Node20&#45;&gt;Node12</title>
<path fill="none" stroke="midnightblue" d="M709.666,-117.76C628.091,-112.261 465.541,-99.501 318.484,-76.0667"/>
<polygon fill="midnightblue" stroke="midnightblue" points="318.803,-72.5729 308.373,-74.4344 317.688,-79.4835 318.803,-72.5729"/>
</g>
<!-- Node20&#45;&gt;Node14 -->
<g id="edge33" class="edge"><title>Node20&#45;&gt;Node14</title>
<path fill="none" stroke="midnightblue" d="M733.035,-112.475C689.943,-99.8452 606.364,-75.5499 535,-56 487.788,-43.0663 433.06,-28.8872 398.249,-19.9695"/>
<polygon fill="midnightblue" stroke="midnightblue" points="398.67,-16.4647 388.115,-17.378 396.936,-23.2465 398.67,-16.4647"/>
</g>
<!-- Node21 -->
<g id="node21" class="node"><title>Node21</title>
<polygon fill="white" stroke="#bfbfbf" points="794,-56.5 794,-75.5 874,-75.5 874,-56.5 794,-56.5"/>
<text text-anchor="middle" x="834" y="-63.5" font-family="Helvetica,sans-Serif" font-size="10.00">graphviz/gvc.h</text>
</g>
<!-- Node20&#45;&gt;Node21 -->
<g id="edge28" class="edge"><title>Node20&#45;&gt;Node21</title>
<path fill="none" stroke="midnightblue" d="M773.568,-112.324C784.42,-104.185 800.881,-91.8395 813.883,-82.0874"/>
<polygon fill="midnightblue" stroke="midnightblue" points="816.321,-84.6339 822.221,-75.8339 812.121,-79.0339 816.321,-84.6339"/>
</g>
<!-- Node22 -->
<g id="node22" class="node"><title>Node22</title>
<polygon fill="white" stroke="#bfbfbf" points="892,-56.5 892,-75.5 936,-75.5 936,-56.5 892,-56.5"/>
<text text-anchor="middle" x="914" y="-63.5" font-family="Helvetica,sans-Serif" font-size="10.00">QFont</text>
</g>
<!-- Node20&#45;&gt;Node22 -->
<g id="edge30" class="edge"><title>Node20&#45;&gt;Node22</title>
<path fill="none" stroke="midnightblue" d="M786.085,-112.444C811.994,-103.239 853.323,-88.5565 881.96,-78.3826"/>
<polygon fill="midnightblue" stroke="midnightblue" points="883.263,-81.6341 891.514,-74.9883 880.92,-75.038 883.263,-81.6341"/>
</g>
<!-- Node23 -->
<g id="node23" class="node"><title>Node23</title>
<polygon fill="white" stroke="#bfbfbf" points="954.5,-56.5 954.5,-75.5 997.5,-75.5 997.5,-56.5 954.5,-56.5"/>
<text text-anchor="middle" x="976" y="-63.5" font-family="Helvetica,sans-Serif" font-size="10.00">QMap</text>
</g>
<!-- Node20&#45;&gt;Node23 -->
<g id="edge31" class="edge"><title>Node20&#45;&gt;Node23</title>
<path fill="none" stroke="midnightblue" d="M798.571,-112.478C833.568,-104.219 888.066,-91.0862 944.535,-76.0391"/>
<polygon fill="midnightblue" stroke="midnightblue" points="945.598,-79.3777 954.352,-73.4089 943.787,-72.6162 945.598,-79.3777"/>
</g>
<!-- Node24 -->
<g id="node24" class="node"><title>Node24</title>
<polygon fill="white" stroke="#bfbfbf" points="734.5,-56.5 734.5,-75.5 775.5,-75.5 775.5,-56.5 734.5,-56.5"/>
<text text-anchor="middle" x="755" y="-63.5" font-family="Helvetica,sans-Serif" font-size="10.00">QPair</text>
</g>
<!-- Node20&#45;&gt;Node24 -->
<g id="edge32" class="edge"><title>Node20&#45;&gt;Node24</title>
<path fill="none" stroke="midnightblue" d="M760.844,-112.083C759.916,-104.927 758.582,-94.6353 757.423,-85.6911"/>
<polygon fill="midnightblue" stroke="midnightblue" points="760.891,-85.2181 756.134,-75.7511 753.949,-86.1181 760.891,-85.2181"/>
</g>
<!-- Node25 -->
<g id="node25" class="node"><title>Node25</title>
<g id="a_node25"><a xlink:href="GVNode_8h.html" target="_top" xlink:title="header for the GVNode class ">
<polygon fill="white" stroke="black" points="326,-56.5 326,-75.5 388,-75.5 388,-56.5 326,-56.5"/>
<text text-anchor="middle" x="357" y="-63.5" font-family="Helvetica,sans-Serif" font-size="10.00">GVNode.h</text>
</a>
</g>
</g>
<!-- Node20&#45;&gt;Node25 -->
<g id="edge34" class="edge"><title>Node20&#45;&gt;Node25</title>
<path fill="none" stroke="midnightblue" d="M709.882,-114.051C628.432,-103.191 472.619,-82.4158 398.35,-72.5133"/>
<polygon fill="midnightblue" stroke="midnightblue" points="398.378,-68.9861 388.003,-71.1337 397.452,-75.9247 398.378,-68.9861"/>
</g>
<!-- Node25&#45;&gt;Node13 -->
<g id="edge35" class="edge"><title>Node25&#45;&gt;Node13</title>
<path fill="none" stroke="midnightblue" d="M332.598,-56.4435C306.576,-47.3188 265.201,-32.8107 236.219,-22.6482"/>
<polygon fill="midnightblue" stroke="midnightblue" points="237.125,-19.257 226.53,-19.2508 234.809,-25.8627 237.125,-19.257"/>
</g>
<!-- Node25&#45;&gt;Node14 -->
<g id="edge36" class="edge"><title>Node25&#45;&gt;Node14</title>
<path fill="none" stroke="midnightblue" d="M357.991,-56.083C358.786,-48.9272 359.929,-38.6353 360.923,-29.6911"/>
<polygon fill="midnightblue" stroke="midnightblue" points="364.402,-30.0765 362.028,-19.7511 357.445,-29.3034 364.402,-30.0765"/>
</g>
<!-- Node26&#45;&gt;Node2 -->
<g id="edge42" class="edge"><title>Node26&#45;&gt;Node2</title>
<path fill="none" stroke="midnightblue" d="M1057.93,-112.304C1074.27,-99.3512 1099.97,-74.5312 1085,-56 1067,-33.7095 994.693,-21.9381 940.132,-16.1053"/>
<polygon fill="midnightblue" stroke="midnightblue" points="940.472,-12.6219 930.167,-15.0841 939.759,-19.5854 940.472,-12.6219"/>
</g>
<!-- Node26&#45;&gt;Node6 -->
<g id="edge40" class="edge"><title>Node26&#45;&gt;Node6</title>
<path fill="none" stroke="midnightblue" d="M1059.06,-112.33C1080.01,-98.7354 1122.77,-72.2778 1162,-56 1205.28,-38.0442 1258.05,-24.6834 1290.59,-17.3629"/>
<polygon fill="midnightblue" stroke="midnightblue" points="1291.39,-20.77 1300.4,-15.2002 1289.89,-13.934 1291.39,-20.77"/>
</g>
<!-- Node26&#45;&gt;Node17 -->
<g id="edge41" class="edge"><title>Node26&#45;&gt;Node17</title>
<path fill="none" stroke="midnightblue" d="M1024.42,-118.85C940.644,-110.503 636.689,-80.22 536.372,-70.2253"/>
<polygon fill="midnightblue" stroke="midnightblue" points="536.536,-66.7243 526.238,-69.2156 535.842,-73.6899 536.536,-66.7243"/>
</g>
<!-- Node26&#45;&gt;Node19 -->
<g id="edge43" class="edge"><title>Node26&#45;&gt;Node19</title>
<path fill="none" stroke="midnightblue" d="M1067.7,-114.7C1098.31,-105.812 1154.69,-89.446 1192.76,-78.3933"/>
<polygon fill="midnightblue" stroke="midnightblue" points="1193.86,-81.7161 1202.49,-75.5667 1191.91,-74.9937 1193.86,-81.7161"/>
</g>
<!-- Node27 -->
<g id="node27" class="node"><title>Node27</title>
<g id="a_node27"><a xlink:href="Process_8h.html" target="_top" xlink:title="header for the Process class ">
<polygon fill="white" stroke="black" points="1015.5,-56.5 1015.5,-75.5 1076.5,-75.5 1076.5,-56.5 1015.5,-56.5"/>
<text text-anchor="middle" x="1046" y="-63.5" font-family="Helvetica,sans-Serif" font-size="10.00">Process.h</text>
</a>
</g>
</g>
<!-- Node26&#45;&gt;Node27 -->
<g id="edge44" class="edge"><title>Node26&#45;&gt;Node27</title>
<path fill="none" stroke="midnightblue" d="M1040.83,-112.083C1039.32,-104.927 1038.89,-94.6353 1039.54,-85.6911"/>
<polygon fill="midnightblue" stroke="midnightblue" points="1043.02,-86.1262 1040.87,-75.7511 1036.08,-85.2002 1043.02,-86.1262"/>
</g>
<!-- Node27&#45;&gt;Node2 -->
<g id="edge45" class="edge"><title>Node27&#45;&gt;Node2</title>
<path fill="none" stroke="midnightblue" d="M1019.06,-56.4435C990.34,-47.3196 944.671,-32.8133 912.679,-22.6509"/>
<polygon fill="midnightblue" stroke="midnightblue" points="913.401,-19.2081 902.811,-19.5164 911.282,-25.8797 913.401,-19.2081"/>
</g>
<!-- Node27&#45;&gt;Node6 -->
<g id="edge46" class="edge"><title>Node27&#45;&gt;Node6</title>
<path fill="none" stroke="midnightblue" d="M1076.75,-58.9627C1129.59,-48.5863 1237.05,-27.4839 1290.04,-17.0789"/>
<polygon fill="midnightblue" stroke="midnightblue" points="1291.04,-20.4491 1300.18,-15.0878 1289.7,-13.5803 1291.04,-20.4491"/>
</g>
<!-- Node27&#45;&gt;Node10 -->
<g id="edge47" class="edge"><title>Node27&#45;&gt;Node10</title>
<path fill="none" stroke="midnightblue" d="M1015.07,-57.6278C1012.01,-57.0243 1008.95,-56.4678 1006,-56 831.902,-28.4207 619.623,-15.8581 547.972,-12.1927"/>
<polygon fill="midnightblue" stroke="midnightblue" points="547.869,-8.6833 537.707,-11.6799 547.52,-15.6746 547.869,-8.6833"/>
</g>
<!-- Node27&#45;&gt;Node26 -->
<g id="edge48" class="edge"><title>Node27&#45;&gt;Node26</title>
<path fill="none" stroke="midnightblue" d="M1051.13,-75.7511C1052.66,-82.8579 1053.1,-93.1357 1052.47,-102.101"/>
<polygon fill="midnightblue" stroke="midnightblue" points="1048.99,-101.713 1051.17,-112.083 1055.93,-102.622 1048.99,-101.713"/>
</g>
<!-- Node28&#45;&gt;Node1 -->
<g id="edge67" class="edge"><title>Node28&#45;&gt;Node1</title>
<path fill="none" stroke="midnightblue" d="M595.346,-295.17C659.511,-305.696 833.614,-334.064 979,-356 1066.58,-369.214 1168.01,-383.526 1231.59,-392.379"/>
<polygon fill="midnightblue" stroke="midnightblue" points="1231.46,-395.895 1241.85,-393.805 1232.43,-388.961 1231.46,-395.895"/>
</g>
<!-- Node28&#45;&gt;Node13 -->
<g id="edge55" class="edge"><title>Node28&#45;&gt;Node13</title>
<path fill="none" stroke="midnightblue" d="M546.63,-280.341C525.499,-272.131 493.835,-258.866 468,-244 440.492,-228.172 257.734,-100.027 237,-76 224.933,-62.0167 215.626,-43.0152 209.825,-29.1695"/>
<polygon fill="midnightblue" stroke="midnightblue" points="213.03,-27.756 206.085,-19.755 206.524,-30.3407 213.03,-27.756"/>
</g>
<!-- Node28&#45;&gt;Node17 -->
<g id="edge57" class="edge"><title>Node28&#45;&gt;Node17</title>
<path fill="none" stroke="midnightblue" d="M565.311,-280.243C560.68,-271.322 553.636,-256.992 549,-244 528.885,-187.637 513.969,-118.169 507.521,-85.5593"/>
<polygon fill="midnightblue" stroke="midnightblue" points="510.938,-84.7949 505.598,-75.6439 504.066,-86.1273 510.938,-84.7949"/>
</g>
<!-- Node28&#45;&gt;Node25 -->
<g id="edge59" class="edge"><title>Node28&#45;&gt;Node25</title>
<path fill="none" stroke="midnightblue" d="M556.524,-280.294C537.054,-267.744 499.893,-243.89 468,-224 441.935,-207.745 429.126,-211.207 409,-188 382.38,-157.304 367.66,-110.92 361.147,-85.4182"/>
<polygon fill="midnightblue" stroke="midnightblue" points="364.524,-84.4915 358.782,-75.5873 357.718,-86.1286 364.524,-84.4915"/>
</g>
<!-- Node28&#45;&gt;Node26 -->
<g id="edge58" class="edge"><title>Node28&#45;&gt;Node26</title>
<path fill="none" stroke="midnightblue" d="M595.243,-288.744C672.337,-287.563 903.332,-280.95 967,-244 1006.65,-220.988 1029.95,-169.172 1040.04,-141.402"/>
<polygon fill="midnightblue" stroke="midnightblue" points="1043.42,-142.332 1043.36,-131.737 1036.8,-140.054 1043.42,-142.332"/>
</g>
<!-- Node29 -->
<g id="node29" class="node"><title>Node29</title>
<polygon fill="white" stroke="#bfbfbf" points="558,-224.5 558,-243.5 662,-243.5 662,-224.5 558,-224.5"/>
<text text-anchor="middle" x="610" y="-231.5" font-family="Helvetica,sans-Serif" font-size="10.00">QGraphicsRectItem</text>
</g>
<!-- Node28&#45;&gt;Node29 -->
<g id="edge51" class="edge"><title>Node28&#45;&gt;Node29</title>
<path fill="none" stroke="midnightblue" d="M576.605,-280.083C582.255,-272.455 590.545,-261.264 597.451,-251.941"/>
<polygon fill="midnightblue" stroke="midnightblue" points="600.378,-253.87 603.518,-243.751 594.753,-249.703 600.378,-253.87"/>
</g>
<!-- Node30 -->
<g id="node30" class="node"><title>Node30</title>
<polygon fill="white" stroke="#bfbfbf" points="558,-168.5 558,-187.5 660,-187.5 660,-168.5 558,-168.5"/>
<text text-anchor="middle" x="609" y="-175.5" font-family="Helvetica,sans-Serif" font-size="10.00">QGraphicsTextItem</text>
</g>
<!-- Node28&#45;&gt;Node30 -->
<g id="edge52" class="edge"><title>Node28&#45;&gt;Node30</title>
<path fill="none" stroke="midnightblue" d="M595.354,-285.54C619.443,-280.759 654.38,-269.6 671,-244 684.003,-223.971 659.269,-204.647 637.289,-192.35"/>
<polygon fill="midnightblue" stroke="midnightblue" points="638.634,-189.102 628.156,-187.529 635.366,-195.293 638.634,-189.102"/>
</g>
<!-- Node28&#45;&gt;Node31 -->
<g id="edge53" class="edge"><title>Node28&#45;&gt;Node31</title>
<path fill="none" stroke="midnightblue" d="M544.787,-283.92C496.312,-274.152 390.1,-252.751 335.648,-241.78"/>
<polygon fill="midnightblue" stroke="midnightblue" points="336.289,-238.339 325.794,-239.794 334.906,-245.201 336.289,-238.339"/>
</g>
<!-- Node28&#45;&gt;Node32 -->
<g id="edge54" class="edge"><title>Node28&#45;&gt;Node32</title>
<path fill="none" stroke="midnightblue" d="M544.788,-280.799C515.652,-271.321 467.656,-255.708 435.935,-245.389"/>
<polygon fill="midnightblue" stroke="midnightblue" points="436.845,-242.004 426.253,-242.239 434.68,-248.661 436.845,-242.004"/>
</g>
<!-- Node33 -->
<g id="node33" class="node"><title>Node33</title>
<polygon fill="white" stroke="#bfbfbf" points="804.5,-224.5 804.5,-243.5 879.5,-243.5 879.5,-224.5 804.5,-224.5"/>
<text text-anchor="middle" x="842" y="-231.5" font-family="Helvetica,sans-Serif" font-size="10.00">QColorDialog</text>
</g>
<!-- Node28&#45;&gt;Node33 -->
<g id="edge56" class="edge"><title>Node28&#45;&gt;Node33</title>
<path fill="none" stroke="midnightblue" d="M595.102,-284.017C640.262,-275.051 735.901,-256.064 793.997,-244.53"/>
<polygon fill="midnightblue" stroke="midnightblue" points="794.909,-247.917 804.036,-242.537 793.546,-241.051 794.909,-247.917"/>
</g>
<!-- Node34 -->
<g id="node34" class="node"><title>Node34</title>
<g id="a_node34"><a xlink:href="GProcess_8h.html" target="_top" xlink:title="header for the GProcess class ">
<polygon fill="white" stroke="black" points="718,-224.5 718,-243.5 786,-243.5 786,-224.5 718,-224.5"/>
<text text-anchor="middle" x="752" y="-231.5" font-family="Helvetica,sans-Serif" font-size="10.00">GProcess.h</text>
</a>
</g>
</g>
<!-- Node28&#45;&gt;Node34 -->
<g id="edge60" class="edge"><title>Node28&#45;&gt;Node34</title>
<path fill="none" stroke="midnightblue" d="M595.306,-281.492C625.887,-272.418 677.662,-257.056 713.274,-246.49"/>
<polygon fill="midnightblue" stroke="midnightblue" points="714.721,-249.712 723.312,-243.512 712.73,-243.001 714.721,-249.712"/>
</g>
<!-- Node34&#45;&gt;Node8 -->
<g id="edge61" class="edge"><title>Node34&#45;&gt;Node8</title>
<path fill="none" stroke="midnightblue" d="M717.932,-226.7C667.162,-217.311 571.26,-199.575 511.779,-188.576"/>
<polygon fill="midnightblue" stroke="midnightblue" points="512.307,-185.114 501.838,-186.737 511.034,-191.997 512.307,-185.114"/>
</g>
<!-- Node34&#45;&gt;Node10 -->
<g id="edge64" class="edge"><title>Node34&#45;&gt;Node10</title>
<path fill="none" stroke="midnightblue" d="M743.076,-224.176C728.657,-210.371 698.83,-183.63 669,-168 583.762,-123.337 517.44,-161.354 473,-76 463.09,-56.9662 482.182,-37.8129 499.561,-25.2791"/>
<polygon fill="midnightblue" stroke="midnightblue" points="501.997,-27.8578 508.329,-19.3638 498.082,-22.0547 501.997,-27.8578"/>
</g>
<!-- Node34&#45;&gt;Node18 -->
<g id="edge65" class="edge"><title>Node34&#45;&gt;Node18</title>
<path fill="none" stroke="midnightblue" d="M786.134,-224.916C830.797,-214.337 908.33,-195.975 950.546,-185.976"/>
<polygon fill="midnightblue" stroke="midnightblue" points="951.552,-189.335 960.476,-183.624 949.939,-182.523 951.552,-189.335"/>
</g>
<!-- Node34&#45;&gt;Node27 -->
<g id="edge66" class="edge"><title>Node34&#45;&gt;Node27</title>
<path fill="none" stroke="midnightblue" d="M768.713,-224.39C785.927,-215.466 813.484,-201.026 837,-188 905.129,-150.262 984.429,-103.582 1022.82,-80.8064"/>
<polygon fill="midnightblue" stroke="midnightblue" points="1024.85,-83.6675 1031.66,-75.5511 1021.28,-77.6493 1024.85,-83.6675"/>
</g>
<!-- Node34&#45;&gt;Node30 -->
<g id="edge63" class="edge"><title>Node34&#45;&gt;Node30</title>
<path fill="none" stroke="midnightblue" d="M729.341,-224.444C705.598,-215.478 668.091,-201.314 641.262,-191.183"/>
<polygon fill="midnightblue" stroke="midnightblue" points="642.144,-187.775 631.553,-187.516 639.671,-194.324 642.144,-187.775"/>
</g>
<!-- Node35 -->
<g id="node35" class="node"><title>Node35</title>
<polygon fill="white" stroke="#bfbfbf" points="716,-168.5 716,-187.5 828,-187.5 828,-168.5 716,-168.5"/>
<text text-anchor="middle" x="772" y="-175.5" font-family="Helvetica,sans-Serif" font-size="10.00">QGraphicsEllipseItem</text>
</g>
<!-- Node34&#45;&gt;Node35 -->
<g id="edge62" class="edge"><title>Node34&#45;&gt;Node35</title>
<path fill="none" stroke="midnightblue" d="M755.303,-224.083C757.982,-216.849 761.849,-206.409 765.186,-197.397"/>
<polygon fill="midnightblue" stroke="midnightblue" points="768.568,-198.344 768.759,-187.751 762.004,-195.913 768.568,-198.344"/>
</g>
</g>
</svg>
