<?xml version="1.0" encoding="UTF-8" standalone="no"?>
<!DOCTYPE svg PUBLIC "-//W3C//DTD SVG 1.1//EN"
 "http://www.w3.org/Graphics/SVG/1.1/DTD/svg11.dtd">
<!-- Generated by graphviz version 2.38.0 (20140413.2041)
 -->
<!-- Title: headers/Process.h Pages: 1 -->
<svg width="377pt" height="140pt"
 viewBox="0.00 0.00 376.50 140.00" xmlns="http://www.w3.org/2000/svg" xmlns:xlink="http://www.w3.org/1999/xlink">
<g id="graph0" class="graph" transform="scale(1 1) rotate(0) translate(4 136)">
<title>headers/Process.h</title>
<polygon fill="white" stroke="none" points="-4,4 -4,-136 372.5,-136 372.5,4 -4,4"/>
<!-- Node1 -->
<g id="node1" class="node"><title>Node1</title>
<polygon fill="#bfbfbf" stroke="black" points="123,-112.5 123,-131.5 221,-131.5 221,-112.5 123,-112.5"/>
<text text-anchor="middle" x="172" y="-119.5" font-family="Helvetica,sans-Serif" font-size="10.00">headers/Process.h</text>
</g>
<!-- Node2 -->
<g id="node2" class="node"><title>Node2</title>
<polygon fill="white" stroke="#bfbfbf" points="0,-0.5 0,-19.5 108,-19.5 108,-0.5 0,-0.5"/>
<text text-anchor="middle" x="54" y="-7.5" font-family="Helvetica,sans-Serif" font-size="10.00">boost/shared_ptr.hpp</text>
</g>
<!-- Node1&#45;&gt;Node2 -->
<g id="edge1" class="edge"><title>Node1&#45;&gt;Node2</title>
<path fill="none" stroke="midnightblue" d="M162.741,-112.368C142.837,-93.8137 95.743,-49.9129 70.5603,-26.4376"/>
<polygon fill="midnightblue" stroke="midnightblue" points="72.9175,-23.8501 63.2162,-19.5914 68.1444,-28.9704 72.9175,-23.8501"/>
</g>
<!-- Node3 -->
<g id="node3" class="node"><title>Node3</title>
<polygon fill="white" stroke="#bfbfbf" points="126.5,-0.5 126.5,-19.5 167.5,-19.5 167.5,-0.5 126.5,-0.5"/>
<text text-anchor="middle" x="147" y="-7.5" font-family="Helvetica,sans-Serif" font-size="10.00">string</text>
</g>
<!-- Node1&#45;&gt;Node3 -->
<g id="edge2" class="edge"><title>Node1&#45;&gt;Node3</title>
<path fill="none" stroke="midnightblue" d="M163.517,-112.234C155.946,-103.75 145.396,-90.1314 141,-76 136.266,-60.7828 138.543,-42.6701 141.558,-29.4347"/>
<polygon fill="midnightblue" stroke="midnightblue" points="144.976,-30.1954 144.125,-19.6348 138.205,-28.4211 144.976,-30.1954"/>
</g>
<!-- Node4 -->
<g id="node4" class="node"><title>Node4</title>
<polygon fill="white" stroke="#bfbfbf" points="211.5,-56.5 211.5,-75.5 240.5,-75.5 240.5,-56.5 211.5,-56.5"/>
<text text-anchor="middle" x="226" y="-63.5" font-family="Helvetica,sans-Serif" font-size="10.00">list</text>
</g>
<!-- Node1&#45;&gt;Node4 -->
<g id="edge3" class="edge"><title>Node1&#45;&gt;Node4</title>
<path fill="none" stroke="midnightblue" d="M180.917,-112.083C188.78,-104.22 200.431,-92.5688 209.919,-83.0813"/>
<polygon fill="midnightblue" stroke="midnightblue" points="212.653,-85.2971 217.249,-75.7511 207.703,-80.3473 212.653,-85.2971"/>
</g>
<!-- Node5 -->
<g id="node5" class="node"><title>Node5</title>
<g id="a_node5"><a xlink:href="Sort_8h.html" target="_top" xlink:title="header for the Sort class ">
<polygon fill="white" stroke="black" points="150.5,-56.5 150.5,-75.5 193.5,-75.5 193.5,-56.5 150.5,-56.5"/>
<text text-anchor="middle" x="172" y="-63.5" font-family="Helvetica,sans-Serif" font-size="10.00">Sort.h</text>
</a>
</g>
</g>
<!-- Node1&#45;&gt;Node5 -->
<g id="edge4" class="edge"><title>Node1&#45;&gt;Node5</title>
<path fill="none" stroke="midnightblue" d="M166.834,-112.083C165.324,-104.927 164.894,-94.6353 165.542,-85.6911"/>
<polygon fill="midnightblue" stroke="midnightblue" points="169.015,-86.1262 166.869,-75.7511 162.077,-85.2002 169.015,-86.1262"/>
</g>
<!-- Node5&#45;&gt;Node1 -->
<g id="edge9" class="edge"><title>Node5&#45;&gt;Node1</title>
<path fill="none" stroke="midnightblue" d="M177.131,-75.7511C178.657,-82.8579 179.104,-93.1357 178.472,-102.101"/>
<polygon fill="midnightblue" stroke="midnightblue" points="174.993,-101.713 177.166,-112.083 181.934,-102.622 174.993,-101.713"/>
</g>
<!-- Node5&#45;&gt;Node2 -->
<g id="edge7" class="edge"><title>Node5&#45;&gt;Node2</title>
<path fill="none" stroke="midnightblue" d="M153.303,-56.4435C134.056,-47.6356 103.848,-33.8116 81.7999,-23.722"/>
<polygon fill="midnightblue" stroke="midnightblue" points="83.1595,-20.4951 72.61,-19.5164 80.2466,-26.8603 83.1595,-20.4951"/>
</g>
<!-- Node5&#45;&gt;Node3 -->
<g id="edge5" class="edge"><title>Node5&#45;&gt;Node3</title>
<path fill="none" stroke="midnightblue" d="M167.872,-56.083C164.486,-48.77 159.584,-38.1814 155.381,-29.1034"/>
<polygon fill="midnightblue" stroke="midnightblue" points="158.429,-27.3553 151.051,-19.7511 152.077,-30.2962 158.429,-27.3553"/>
</g>
<!-- Node6 -->
<g id="node6" class="node"><title>Node6</title>
<polygon fill="white" stroke="#bfbfbf" points="186,-0.5 186,-19.5 230,-19.5 230,-0.5 186,-0.5"/>
<text text-anchor="middle" x="208" y="-7.5" font-family="Helvetica,sans-Serif" font-size="10.00">vector</text>
</g>
<!-- Node5&#45;&gt;Node6 -->
<g id="edge6" class="edge"><title>Node5&#45;&gt;Node6</title>
<path fill="none" stroke="midnightblue" d="M177.945,-56.083C182.977,-48.5341 190.337,-37.4948 196.513,-28.2298"/>
<polygon fill="midnightblue" stroke="midnightblue" points="199.531,-30.0131 202.166,-19.7511 193.707,-26.1301 199.531,-30.0131"/>
</g>
<!-- Node7 -->
<g id="node7" class="node"><title>Node7</title>
<polygon fill="white" stroke="#bfbfbf" points="247.5,-0.5 247.5,-19.5 368.5,-19.5 368.5,-0.5 247.5,-0.5"/>
<text text-anchor="middle" x="308" y="-7.5" font-family="Helvetica,sans-Serif" font-size="10.00">boost/make_shared.hpp</text>
</g>
<!-- Node5&#45;&gt;Node7 -->
<g id="edge8" class="edge"><title>Node5&#45;&gt;Node7</title>
<path fill="none" stroke="midnightblue" d="M193.55,-56.4435C216.031,-47.5171 251.488,-33.4387 276.98,-23.3168"/>
<polygon fill="midnightblue" stroke="midnightblue" points="278.549,-26.4598 286.551,-19.5164 275.965,-19.9539 278.549,-26.4598"/>
</g>
</g>
</svg>
