<?xml version="1.0" encoding="UTF-8" standalone="no"?>
<!DOCTYPE svg PUBLIC "-//W3C//DTD SVG 1.1//EN"
 "http://www.w3.org/Graphics/SVG/1.1/DTD/svg11.dtd">
<!-- Generated by graphviz version 2.38.0 (20140413.2041)
 -->
<!-- Title: headers/Process.h Pages: 1 -->
<svg width="1079pt" height="532pt"
 viewBox="0.00 0.00 1079.09 532.00" xmlns="http://www.w3.org/2000/svg" xmlns:xlink="http://www.w3.org/1999/xlink">
<g id="graph0" class="graph" transform="scale(1 1) rotate(0) translate(4 528)">
<title>headers/Process.h</title>
<polygon fill="white" stroke="none" points="-4,4 -4,-528 1075.09,-528 1075.09,4 -4,4"/>
<!-- Node1 -->
<g id="node1" class="node"><title>Node1</title>
<polygon fill="#bfbfbf" stroke="black" points="858.591,-504.5 858.591,-523.5 956.591,-523.5 956.591,-504.5 858.591,-504.5"/>
<text text-anchor="middle" x="907.591" y="-511.5" font-family="Helvetica,sans-Serif" font-size="10.00">headers/Process.h</text>
</g>
<!-- Node2 -->
<g id="node2" class="node"><title>Node2</title>
<g id="a_node2"><a xlink:href="Sort_8h.html" target="_top" xlink:title="header for the Sort class ">
<polygon fill="white" stroke="black" points="833.591,-448.5 833.591,-467.5 913.591,-467.5 913.591,-448.5 833.591,-448.5"/>
<text text-anchor="middle" x="873.591" y="-455.5" font-family="Helvetica,sans-Serif" font-size="10.00">headers/Sort.h</text>
</a>
</g>
</g>
<!-- Node1&#45;&gt;Node2 -->
<g id="edge1" class="edge"><title>Node1&#45;&gt;Node2</title>
<path fill="none" stroke="midnightblue" d="M890.67,-496.144C883.887,-486.736 877.145,-475.405 873.97,-467.751"/>
<polygon fill="midnightblue" stroke="midnightblue" points="887.924,-498.314 896.81,-504.083 893.461,-494.031 887.924,-498.314"/>
</g>
<!-- Node9 -->
<g id="node9" class="node"><title>Node9</title>
<g id="a_node9"><a xlink:href="GProcess_8h.html" target="_top" xlink:title="header for the GProcess class ">
<polygon fill="white" stroke="black" points="884.591,-168.5 884.591,-187.5 990.591,-187.5 990.591,-168.5 884.591,-168.5"/>
<text text-anchor="middle" x="937.591" y="-175.5" font-family="Helvetica,sans-Serif" font-size="10.00">headers/GProcess.h</text>
</a>
</g>
</g>
<!-- Node1&#45;&gt;Node9 -->
<g id="edge56" class="edge"><title>Node1&#45;&gt;Node9</title>
<path fill="none" stroke="midnightblue" d="M916.649,-495.339C926.721,-474.03 941.591,-436.84 941.591,-403 941.591,-403 941.591,-403 941.591,-289 941.591,-251.163 939.198,-206.052 938.114,-187.554"/>
<polygon fill="midnightblue" stroke="midnightblue" points="913.446,-493.921 912.176,-504.44 919.728,-497.009 913.446,-493.921"/>
</g>
<!-- Node34 -->
<g id="node34" class="node"><title>Node34</title>
<g id="a_node34"><a xlink:href="Process_8cpp_source.html" target="_top" xlink:title="src/ph/Process.cpp">
<polygon fill="white" stroke="black" points="970.091,-448.5 970.091,-467.5 1071.09,-467.5 1071.09,-448.5 970.091,-448.5"/>
<text text-anchor="middle" x="1020.59" y="-455.5" font-family="Helvetica,sans-Serif" font-size="10.00">src/ph/Process.cpp</text>
</a>
</g>
</g>
<!-- Node1&#45;&gt;Node34 -->
<g id="edge57" class="edge"><title>Node1&#45;&gt;Node34</title>
<path fill="none" stroke="midnightblue" d="M934.594,-500.096C955.705,-490.007 984.452,-476.27 1002.77,-467.516"/>
<polygon fill="midnightblue" stroke="midnightblue" points="933.009,-496.974 925.496,-504.444 936.028,-503.29 933.009,-496.974"/>
</g>
<!-- Node2&#45;&gt;Node1 -->
<g id="edge53" class="edge"><title>Node2&#45;&gt;Node1</title>
<path fill="none" stroke="midnightblue" d="M890.365,-475.653C897.148,-485.033 903.916,-496.377 907.143,-504.083"/>
<polygon fill="midnightblue" stroke="midnightblue" points="893.128,-473.505 884.232,-467.751 887.598,-477.797 893.128,-473.505"/>
</g>
<!-- Node3 -->
<g id="node3" class="node"><title>Node3</title>
<g id="a_node3"><a xlink:href="GSort_8h.html" target="_top" xlink:title="header for the GSort class ">
<polygon fill="white" stroke="black" points="685.591,-392.5 685.591,-411.5 773.591,-411.5 773.591,-392.5 685.591,-392.5"/>
<text text-anchor="middle" x="729.591" y="-399.5" font-family="Helvetica,sans-Serif" font-size="10.00">headers/GSort.h</text>
</a>
</g>
</g>
<!-- Node2&#45;&gt;Node3 -->
<g id="edge2" class="edge"><title>Node2&#45;&gt;Node3</title>
<path fill="none" stroke="midnightblue" d="M841.34,-444.906C814.267,-434.754 776.274,-420.506 752.301,-411.516"/>
<polygon fill="midnightblue" stroke="midnightblue" points="840.181,-448.209 850.773,-448.444 842.639,-441.655 840.181,-448.209"/>
</g>
<!-- Node6 -->
<g id="node6" class="node"><title>Node6</title>
<g id="a_node6"><a xlink:href="PH_8h.html" target="_top" xlink:title="header for the PH class ">
<polygon fill="white" stroke="black" points="670.091,-224.5 670.091,-243.5 747.091,-243.5 747.091,-224.5 670.091,-224.5"/>
<text text-anchor="middle" x="708.591" y="-231.5" font-family="Helvetica,sans-Serif" font-size="10.00">headers/PH.h</text>
</a>
</g>
</g>
<!-- Node2&#45;&gt;Node6 -->
<g id="edge54" class="edge"><title>Node2&#45;&gt;Node6</title>
<path fill="none" stroke="midnightblue" d="M880.669,-438.662C884.738,-425.474 888.212,-407.376 883.591,-392 875.005,-363.431 865.851,-358.78 846.591,-336 823.04,-308.145 815.912,-301.699 786.591,-280 766.987,-265.492 742.311,-251.955 726.024,-243.594"/>
<polygon fill="midnightblue" stroke="midnightblue" points="877.255,-437.824 877.275,-448.419 883.866,-440.124 877.255,-437.824"/>
</g>
<!-- Node33 -->
<g id="node33" class="node"><title>Node33</title>
<g id="a_node33"><a xlink:href="Sort_8cpp_source.html" target="_top" xlink:title="src/ph/Sort.cpp">
<polygon fill="white" stroke="black" points="792.091,-392.5 792.091,-411.5 875.091,-411.5 875.091,-392.5 792.091,-392.5"/>
<text text-anchor="middle" x="833.591" y="-399.5" font-family="Helvetica,sans-Serif" font-size="10.00">src/ph/Sort.cpp</text>
</a>
</g>
</g>
<!-- Node2&#45;&gt;Node33 -->
<g id="edge55" class="edge"><title>Node2&#45;&gt;Node33</title>
<path fill="none" stroke="midnightblue" d="M860.891,-439.855C853.965,-430.505 845.684,-419.327 840.073,-411.751"/>
<polygon fill="midnightblue" stroke="midnightblue" points="858.221,-442.131 866.986,-448.083 863.846,-437.964 858.221,-442.131"/>
</g>
<!-- Node4 -->
<g id="node4" class="node"><title>Node4</title>
<g id="a_node4"><a xlink:href="GAction_8h.html" target="_top" xlink:title="header for the GAction class ">
<polygon fill="white" stroke="black" points="627.591,-336.5 627.591,-355.5 725.591,-355.5 725.591,-336.5 627.591,-336.5"/>
<text text-anchor="middle" x="676.591" y="-343.5" font-family="Helvetica,sans-Serif" font-size="10.00">headers/GAction.h</text>
</a>
</g>
</g>
<!-- Node3&#45;&gt;Node4 -->
<g id="edge3" class="edge"><title>Node3&#45;&gt;Node4</title>
<path fill="none" stroke="midnightblue" d="M713.61,-384.718C704.268,-375.2 692.845,-363.561 685.18,-355.751"/>
<polygon fill="midnightblue" stroke="midnightblue" points="711.336,-387.398 720.839,-392.083 716.332,-382.494 711.336,-387.398"/>
</g>
<!-- Node32 -->
<g id="node32" class="node"><title>Node32</title>
<g id="a_node32"><a xlink:href="GSort_8cpp_source.html" target="_top" xlink:title="src/gfx/GSort.cpp">
<polygon fill="white" stroke="black" points="743.591,-336.5 743.591,-355.5 837.591,-355.5 837.591,-336.5 743.591,-336.5"/>
<text text-anchor="middle" x="790.591" y="-343.5" font-family="Helvetica,sans-Serif" font-size="10.00">src/gfx/GSort.cpp</text>
</a>
</g>
</g>
<!-- Node3&#45;&gt;Node32 -->
<g id="edge52" class="edge"><title>Node3&#45;&gt;Node32</title>
<path fill="none" stroke="midnightblue" d="M747.058,-385.537C757.935,-375.909 771.535,-363.869 780.612,-355.834"/>
<polygon fill="midnightblue" stroke="midnightblue" points="744.559,-383.075 739.391,-392.324 749.199,-388.316 744.559,-383.075"/>
</g>
<!-- Node5 -->
<g id="node5" class="node"><title>Node5</title>
<g id="a_node5"><a xlink:href="PHScene_8h.html" target="_top" xlink:title="header for the PHScene class ">
<polygon fill="white" stroke="black" points="551.591,-280.5 551.591,-299.5 655.591,-299.5 655.591,-280.5 551.591,-280.5"/>
<text text-anchor="middle" x="603.591" y="-287.5" font-family="Helvetica,sans-Serif" font-size="10.00">headers/PHScene.h</text>
</a>
</g>
</g>
<!-- Node4&#45;&gt;Node5 -->
<g id="edge4" class="edge"><title>Node4&#45;&gt;Node5</title>
<path fill="none" stroke="midnightblue" d="M651.161,-330.658C636.732,-320.859 619.895,-308.184 610.384,-299.834"/>
<polygon fill="midnightblue" stroke="midnightblue" points="649.473,-333.738 659.747,-336.324 653.328,-327.895 649.473,-333.738"/>
</g>
<!-- Node7 -->
<g id="node7" class="node"><title>Node7</title>
<g id="a_node7"><a xlink:href="Action_8h.html" target="_top" xlink:title="header for the Action class ">
<polygon fill="white" stroke="black" points="774.591,-168.5 774.591,-187.5 864.591,-187.5 864.591,-168.5 774.591,-168.5"/>
<text text-anchor="middle" x="819.591" y="-175.5" font-family="Helvetica,sans-Serif" font-size="10.00">headers/Action.h</text>
</a>
</g>
</g>
<!-- Node4&#45;&gt;Node7 -->
<g id="edge47" class="edge"><title>Node4&#45;&gt;Node7</title>
<path fill="none" stroke="midnightblue" d="M723.005,-333.397C742.232,-326.67 763.262,-316.194 777.591,-300 807.17,-266.57 810.537,-209.089 815.327,-187.513"/>
<polygon fill="midnightblue" stroke="midnightblue" points="721.887,-330.08 713.455,-336.494 724.047,-336.738 721.887,-330.08"/>
</g>
<!-- Node30 -->
<g id="node30" class="node"><title>Node30</title>
<g id="a_node30"><a xlink:href="TikzEditor_8h_source.html" target="_top" xlink:title="headers/TikzEditor.h">
<polygon fill="white" stroke="black" points="31.0907,-168.5 31.0907,-187.5 138.091,-187.5 138.091,-168.5 31.0907,-168.5"/>
<text text-anchor="middle" x="84.5907" y="-175.5" font-family="Helvetica,sans-Serif" font-size="10.00">headers/TikzEditor.h</text>
</a>
</g>
</g>
<!-- Node4&#45;&gt;Node30 -->
<g id="edge48" class="edge"><title>Node4&#45;&gt;Node30</title>
<path fill="none" stroke="midnightblue" d="M636.144,-333.659C524.462,-302.342 213.571,-215.167 114.99,-187.524"/>
<polygon fill="midnightblue" stroke="midnightblue" points="635.435,-337.095 646.009,-336.425 637.325,-330.355 635.435,-337.095"/>
</g>
<!-- Node31 -->
<g id="node31" class="node"><title>Node31</title>
<g id="a_node31"><a xlink:href="GAction_8cpp_source.html" target="_top" xlink:title="src/gfx/GAction.cpp">
<polygon fill="white" stroke="black" points="673.591,-280.5 673.591,-299.5 777.591,-299.5 777.591,-280.5 673.591,-280.5"/>
<text text-anchor="middle" x="725.591" y="-287.5" font-family="Helvetica,sans-Serif" font-size="10.00">src/gfx/GAction.cpp</text>
</a>
</g>
</g>
<!-- Node4&#45;&gt;Node31 -->
<g id="edge51" class="edge"><title>Node4&#45;&gt;Node31</title>
<path fill="none" stroke="midnightblue" d="M691.625,-328.431C700.213,-318.967 710.634,-307.483 717.65,-299.751"/>
<polygon fill="midnightblue" stroke="midnightblue" points="688.81,-326.325 684.682,-336.083 693.994,-331.029 688.81,-326.325"/>
</g>
<!-- Node5&#45;&gt;Node3 -->
<g id="edge45" class="edge"><title>Node5&#45;&gt;Node3</title>
<path fill="none" stroke="midnightblue" d="M603.455,-309.802C604.319,-324.018 607.679,-343.207 618.591,-356 635.459,-375.776 662.319,-386.968 685.391,-393.244"/>
<polygon fill="midnightblue" stroke="midnightblue" points="606.951,-309.594 603.201,-299.685 599.954,-309.77 606.951,-309.594"/>
</g>
<!-- Node5&#45;&gt;Node4 -->
<g id="edge44" class="edge"><title>Node5&#45;&gt;Node4</title>
<path fill="none" stroke="midnightblue" d="M629.036,-305.352C643.553,-315.212 660.502,-327.979 669.977,-336.324"/>
<polygon fill="midnightblue" stroke="midnightblue" points="630.675,-302.24 620.4,-299.655 626.82,-308.083 630.675,-302.24"/>
</g>
<!-- Node5&#45;&gt;Node6 -->
<g id="edge5" class="edge"><title>Node5&#45;&gt;Node6</title>
<path fill="none" stroke="midnightblue" d="M629.401,-275.726C648.844,-265.727 674.939,-252.307 691.763,-243.655"/>
<polygon fill="midnightblue" stroke="midnightblue" points="627.753,-272.638 620.461,-280.324 630.954,-278.863 627.753,-272.638"/>
</g>
<!-- Node29 -->
<g id="node29" class="node"><title>Node29</title>
<g id="a_node29"><a xlink:href="PHScene_8cpp_source.html" target="_top" xlink:title="src/gfx/PHScene.cpp">
<polygon fill="white" stroke="black" points="156.591,-168.5 156.591,-187.5 266.591,-187.5 266.591,-168.5 156.591,-168.5"/>
<text text-anchor="middle" x="211.591" y="-175.5" font-family="Helvetica,sans-Serif" font-size="10.00">src/gfx/PHScene.cpp</text>
</a>
</g>
</g>
<!-- Node5&#45;&gt;Node29 -->
<g id="edge46" class="edge"><title>Node5&#45;&gt;Node29</title>
<path fill="none" stroke="midnightblue" d="M563.13,-277.646C484.348,-255.539 311.968,-207.167 242.005,-187.535"/>
<polygon fill="midnightblue" stroke="midnightblue" points="562.584,-281.128 573.157,-280.46 564.475,-274.388 562.584,-281.128"/>
</g>
<!-- Node6&#45;&gt;Node7 -->
<g id="edge6" class="edge"><title>Node6&#45;&gt;Node7</title>
<path fill="none" stroke="midnightblue" d="M730.233,-219.59C749.429,-209.605 777.118,-196.267 796.691,-187.655"/>
<polygon fill="midnightblue" stroke="midnightblue" points="728.503,-216.545 721.31,-224.324 731.784,-222.729 728.503,-216.545"/>
</g>
<!-- Node6&#45;&gt;Node9 -->
<g id="edge10" class="edge"><title>Node6&#45;&gt;Node9</title>
<path fill="none" stroke="midnightblue" d="M754.864,-222.088C798.127,-211.887 861.846,-196.861 901.475,-187.516"/>
<polygon fill="midnightblue" stroke="midnightblue" points="753.806,-218.742 744.876,-224.444 755.413,-225.555 753.806,-218.742"/>
</g>
<!-- Node11 -->
<g id="node11" class="node"><title>Node11</title>
<g id="a_node11"><a xlink:href="MyArea_8h.html" target="_top" xlink:title="header for the MyArea class ">
<polygon fill="white" stroke="black" points="485.591,-168.5 485.591,-187.5 581.591,-187.5 581.591,-168.5 485.591,-168.5"/>
<text text-anchor="middle" x="533.591" y="-175.5" font-family="Helvetica,sans-Serif" font-size="10.00">headers/MyArea.h</text>
</a>
</g>
</g>
<!-- Node6&#45;&gt;Node11 -->
<g id="edge13" class="edge"><title>Node6&#45;&gt;Node11</title>
<path fill="none" stroke="midnightblue" d="M671.116,-221.436C638.121,-211.255 590.835,-196.664 561.19,-187.516"/>
<polygon fill="midnightblue" stroke="midnightblue" points="670.274,-224.839 680.861,-224.444 672.338,-218.151 670.274,-224.839"/>
</g>
<!-- Node17 -->
<g id="node17" class="node"><title>Node17</title>
<g id="a_node17"><a xlink:href="TikzEditor_8cpp_source.html" target="_top" xlink:title="src/ui/TikzEditor.cpp">
<polygon fill="white" stroke="black" points="1.0907,-0.5 1.0907,-19.5 108.091,-19.5 108.091,-0.5 1.0907,-0.5"/>
<text text-anchor="middle" x="54.5907" y="-7.5" font-family="Helvetica,sans-Serif" font-size="10.00">src/ui/TikzEditor.cpp</text>
</a>
</g>
</g>
<!-- Node6&#45;&gt;Node17 -->
<g id="edge43" class="edge"><title>Node6&#45;&gt;Node17</title>
<path fill="none" stroke="midnightblue" d="M659.902,-224.574C612.815,-216.186 539.541,-202.5 476.591,-188 382.67,-166.366 118.033,-151.072 57.5907,-76 44.5552,-59.8095 48.7084,-33.3137 52.0758,-19.6906"/>
<polygon fill="midnightblue" stroke="midnightblue" points="659.373,-228.035 669.83,-226.333 660.594,-221.142 659.373,-228.035"/>
</g>
<!-- Node20 -->
<g id="node20" class="node"><title>Node20</title>
<g id="a_node20"><a xlink:href="PHIO_8h.html" target="_top" xlink:title="header for the PHIO class ">
<polygon fill="white" stroke="black" points="665.091,-56.5 665.091,-75.5 752.091,-75.5 752.091,-56.5 665.091,-56.5"/>
<text text-anchor="middle" x="708.591" y="-63.5" font-family="Helvetica,sans-Serif" font-size="10.00">headers/PHIO.h</text>
</a>
</g>
</g>
<!-- Node6&#45;&gt;Node20 -->
<g id="edge39" class="edge"><title>Node6&#45;&gt;Node20</title>
<path fill="none" stroke="midnightblue" d="M708.591,-213.93C708.591,-177.92 708.591,-101.231 708.591,-75.5681"/>
<polygon fill="midnightblue" stroke="midnightblue" points="705.091,-214.075 708.591,-224.075 712.091,-214.075 705.091,-214.075"/>
</g>
<!-- Node22 -->
<g id="node22" class="node"><title>Node22</title>
<g id="a_node22"><a xlink:href="Main2_8cpp_source.html" target="_top" xlink:title="src/Main2.cpp">
<polygon fill="white" stroke="black" points="951.591,-0.5 951.591,-19.5 1029.59,-19.5 1029.59,-0.5 951.591,-0.5"/>
<text text-anchor="middle" x="990.591" y="-7.5" font-family="Helvetica,sans-Serif" font-size="10.00">src/Main2.cpp</text>
</a>
</g>
</g>
<!-- Node6&#45;&gt;Node22 -->
<g id="edge41" class="edge"><title>Node6&#45;&gt;Node22</title>
<path fill="none" stroke="midnightblue" d="M715.205,-214.488C726.337,-184.263 749.204,-126.249 765.591,-112 806.325,-76.5789 832.286,-97.9778 881.591,-76 918.619,-59.4944 958.729,-33.1365 978.361,-19.6158"/>
<polygon fill="midnightblue" stroke="midnightblue" points="711.79,-213.639 711.668,-224.233 718.37,-216.027 711.79,-213.639"/>
</g>
<!-- Node25 -->
<g id="node25" class="node"><title>Node25</title>
<g id="a_node25"><a xlink:href="PH_8cpp_source.html" target="_top" xlink:title="src/ph/PH.cpp">
<polygon fill="white" stroke="black" points="566.591,-56.5 566.591,-75.5 646.591,-75.5 646.591,-56.5 566.591,-56.5"/>
<text text-anchor="middle" x="606.591" y="-63.5" font-family="Helvetica,sans-Serif" font-size="10.00">src/ph/PH.cpp</text>
</a>
</g>
</g>
<!-- Node6&#45;&gt;Node25 -->
<g id="edge42" class="edge"><title>Node6&#45;&gt;Node25</title>
<path fill="none" stroke="midnightblue" d="M702.251,-214.714C693.216,-190.067 675.092,-145.425 651.591,-112 641.677,-97.9007 627.136,-84.2747 617.288,-75.7808"/>
<polygon fill="midnightblue" stroke="midnightblue" points="698.994,-216.001 705.653,-224.242 705.587,-213.647 698.994,-216.001"/>
</g>
<!-- Node6&#45;&gt;Node29 -->
<g id="edge40" class="edge"><title>Node6&#45;&gt;Node29</title>
<path fill="none" stroke="midnightblue" d="M659.695,-228.26C580.156,-220.458 417.825,-204.162 280.591,-188 276.152,-187.477 271.554,-186.918 266.937,-186.343"/>
<polygon fill="midnightblue" stroke="midnightblue" points="659.605,-231.767 669.898,-229.258 660.287,-224.801 659.605,-231.767"/>
</g>
<!-- Node7&#45;&gt;Node4 -->
<g id="edge8" class="edge"><title>Node7&#45;&gt;Node4</title>
<path fill="none" stroke="midnightblue" d="M825.377,-197.518C827.234,-223.509 821.357,-270.88 795.591,-300 777.953,-319.934 750.159,-331.205 725.772,-337.482"/>
<polygon fill="midnightblue" stroke="midnightblue" points="828.837,-196.982 824.084,-187.513 821.894,-197.879 828.837,-196.982"/>
</g>
<!-- Node7&#45;&gt;Node6 -->
<g id="edge7" class="edge"><title>Node7&#45;&gt;Node6</title>
<path fill="none" stroke="midnightblue" d="M798.222,-192.268C778.942,-202.306 750.946,-215.794 731.268,-224.444"/>
<polygon fill="midnightblue" stroke="midnightblue" points="799.976,-195.3 807.165,-187.516 796.692,-189.118 799.976,-195.3"/>
</g>
<!-- Node8 -->
<g id="node8" class="node"><title>Node8</title>
<g id="a_node8"><a xlink:href="Action_8cpp_source.html" target="_top" xlink:title="src/ph/Action.cpp">
<polygon fill="white" stroke="black" points="775.091,-112.5 775.091,-131.5 868.091,-131.5 868.091,-112.5 775.091,-112.5"/>
<text text-anchor="middle" x="821.591" y="-119.5" font-family="Helvetica,sans-Serif" font-size="10.00">src/ph/Action.cpp</text>
</a>
</g>
</g>
<!-- Node7&#45;&gt;Node8 -->
<g id="edge9" class="edge"><title>Node7&#45;&gt;Node8</title>
<path fill="none" stroke="midnightblue" d="M820.302,-157.805C820.631,-148.91 821.006,-138.78 821.267,-131.751"/>
<polygon fill="midnightblue" stroke="midnightblue" points="816.794,-157.96 819.921,-168.083 823.789,-158.219 816.794,-157.96"/>
</g>
<!-- Node9&#45;&gt;Node3 -->
<g id="edge11" class="edge"><title>Node9&#45;&gt;Node3</title>
<path fill="none" stroke="midnightblue" d="M932.802,-197.732C922.765,-233.39 896.241,-311.429 846.591,-356 825.861,-374.609 796.611,-385.859 772.544,-392.457"/>
<polygon fill="midnightblue" stroke="midnightblue" points="936.272,-198.307 935.489,-187.741 929.512,-196.488 936.272,-198.307"/>
</g>
<!-- Node10 -->
<g id="node10" class="node"><title>Node10</title>
<g id="a_node10"><a xlink:href="GProcess_8cpp_source.html" target="_top" xlink:title="src/gfx/GProcess.cpp">
<polygon fill="white" stroke="black" points="885.591,-112.5 885.591,-131.5 997.591,-131.5 997.591,-112.5 885.591,-112.5"/>
<text text-anchor="middle" x="941.591" y="-119.5" font-family="Helvetica,sans-Serif" font-size="10.00">src/gfx/GProcess.cpp</text>
</a>
</g>
</g>
<!-- Node9&#45;&gt;Node10 -->
<g id="edge12" class="edge"><title>Node9&#45;&gt;Node10</title>
<path fill="none" stroke="midnightblue" d="M938.991,-158.101C939.655,-149.136 940.416,-138.858 940.942,-131.751"/>
<polygon fill="midnightblue" stroke="midnightblue" points="935.5,-157.852 938.251,-168.083 942.48,-158.369 935.5,-157.852"/>
</g>
<!-- Node12 -->
<g id="node12" class="node"><title>Node12</title>
<g id="a_node12"><a xlink:href="TreeArea_8h_source.html" target="_top" xlink:title="headers/TreeArea.h">
<polygon fill="white" stroke="black" points="540.591,-112.5 540.591,-131.5 642.591,-131.5 642.591,-112.5 540.591,-112.5"/>
<text text-anchor="middle" x="591.591" y="-119.5" font-family="Helvetica,sans-Serif" font-size="10.00">headers/TreeArea.h</text>
</a>
</g>
</g>
<!-- Node11&#45;&gt;Node12 -->
<g id="edge14" class="edge"><title>Node11&#45;&gt;Node12</title>
<path fill="none" stroke="midnightblue" d="M550.504,-161.253C560.794,-151.673 573.556,-139.791 582.102,-131.834"/>
<polygon fill="midnightblue" stroke="midnightblue" points="547.843,-158.948 542.909,-168.324 552.613,-164.071 547.843,-158.948"/>
</g>
<!-- Node19 -->
<g id="node19" class="node"><title>Node19</title>
<g id="a_node19"><a xlink:href="MainWindow_8h.html" target="_top" xlink:title="header for the Main class ">
<polygon fill="white" stroke="black" points="289.091,-112.5 289.091,-131.5 408.091,-131.5 408.091,-112.5 289.091,-112.5"/>
<text text-anchor="middle" x="348.591" y="-119.5" font-family="Helvetica,sans-Serif" font-size="10.00">headers/MainWindow.h</text>
</a>
</g>
</g>
<!-- Node11&#45;&gt;Node19 -->
<g id="edge21" class="edge"><title>Node11&#45;&gt;Node19</title>
<path fill="none" stroke="midnightblue" d="M494.425,-165.568C459.525,-155.381 409.241,-140.703 377.767,-131.516"/>
<polygon fill="midnightblue" stroke="midnightblue" points="493.697,-169.001 504.277,-168.444 495.658,-162.282 493.697,-169.001"/>
</g>
<!-- Node28 -->
<g id="node28" class="node"><title>Node28</title>
<g id="a_node28"><a xlink:href="MyArea_8cpp_source.html" target="_top" xlink:title="src/ui/MyArea.cpp">
<polygon fill="white" stroke="black" points="426.591,-112.5 426.591,-131.5 522.591,-131.5 522.591,-112.5 426.591,-112.5"/>
<text text-anchor="middle" x="474.591" y="-119.5" font-family="Helvetica,sans-Serif" font-size="10.00">src/ui/MyArea.cpp</text>
</a>
</g>
</g>
<!-- Node11&#45;&gt;Node28 -->
<g id="edge38" class="edge"><title>Node11&#45;&gt;Node28</title>
<path fill="none" stroke="midnightblue" d="M516.696,-161.537C506.176,-151.909 493.022,-139.869 484.243,-131.834"/>
<polygon fill="midnightblue" stroke="midnightblue" points="514.372,-164.154 524.111,-168.324 519.098,-158.99 514.372,-164.154"/>
</g>
<!-- Node13 -->
<g id="node13" class="node"><title>Node13</title>
<g id="a_node13"><a xlink:href="Area_8h_source.html" target="_top" xlink:title="headers/Area.h">
<polygon fill="white" stroke="black" points="465.091,-56.5 465.091,-75.5 548.091,-75.5 548.091,-56.5 465.091,-56.5"/>
<text text-anchor="middle" x="506.591" y="-63.5" font-family="Helvetica,sans-Serif" font-size="10.00">headers/Area.h</text>
</a>
</g>
</g>
<!-- Node12&#45;&gt;Node13 -->
<g id="edge15" class="edge"><title>Node12&#45;&gt;Node13</title>
<path fill="none" stroke="midnightblue" d="M569.397,-106.901C553.811,-96.9986 533.461,-84.0705 520.214,-75.6545"/>
<polygon fill="midnightblue" stroke="midnightblue" points="567.616,-109.916 577.934,-112.324 571.37,-104.007 567.616,-109.916"/>
</g>
<!-- Node18 -->
<g id="node18" class="node"><title>Node18</title>
<g id="a_node18"><a xlink:href="TreeArea_8cpp_source.html" target="_top" xlink:title="src/ui/TreeArea.cpp">
<polygon fill="white" stroke="black" points="770.591,-56.5 770.591,-75.5 872.591,-75.5 872.591,-56.5 770.591,-56.5"/>
<text text-anchor="middle" x="821.591" y="-63.5" font-family="Helvetica,sans-Serif" font-size="10.00">src/ui/TreeArea.cpp</text>
</a>
</g>
</g>
<!-- Node12&#45;&gt;Node18 -->
<g id="edge20" class="edge"><title>Node12&#45;&gt;Node18</title>
<path fill="none" stroke="midnightblue" d="M637.792,-110.153C681.248,-99.95 745.431,-84.8809 785.317,-75.5164"/>
<polygon fill="midnightblue" stroke="midnightblue" points="636.97,-106.75 628.035,-112.444 638.57,-113.565 636.97,-106.75"/>
</g>
<!-- Node14 -->
<g id="node14" class="node"><title>Node14</title>
<g id="a_node14"><a xlink:href="PHIO_8cpp_source.html" target="_top" xlink:title="src/io/PHIO.cpp">
<polygon fill="white" stroke="black" points="491.091,-0.5 491.091,-19.5 578.091,-19.5 578.091,-0.5 491.091,-0.5"/>
<text text-anchor="middle" x="534.591" y="-7.5" font-family="Helvetica,sans-Serif" font-size="10.00">src/io/PHIO.cpp</text>
</a>
</g>
</g>
<!-- Node13&#45;&gt;Node14 -->
<g id="edge16" class="edge"><title>Node13&#45;&gt;Node14</title>
<path fill="none" stroke="midnightblue" d="M515.933,-46.9827C520.686,-37.8168 526.247,-27.0922 530.053,-19.7511"/>
<polygon fill="midnightblue" stroke="midnightblue" points="512.71,-45.5943 511.214,-56.083 518.925,-48.8166 512.71,-45.5943"/>
</g>
<!-- Node15 -->
<g id="node15" class="node"><title>Node15</title>
<g id="a_node15"><a xlink:href="Area_8cpp_source.html" target="_top" xlink:title="src/ui/Area.cpp">
<polygon fill="white" stroke="black" points="596.091,-0.5 596.091,-19.5 679.091,-19.5 679.091,-0.5 596.091,-0.5"/>
<text text-anchor="middle" x="637.591" y="-7.5" font-family="Helvetica,sans-Serif" font-size="10.00">src/ui/Area.cpp</text>
</a>
</g>
</g>
<!-- Node13&#45;&gt;Node15 -->
<g id="edge17" class="edge"><title>Node13&#45;&gt;Node15</title>
<path fill="none" stroke="midnightblue" d="M536.908,-52.503C561.466,-42.3795 595.409,-28.388 616.93,-19.5164"/>
<polygon fill="midnightblue" stroke="midnightblue" points="535.259,-49.3966 527.348,-56.4435 537.927,-55.8683 535.259,-49.3966"/>
</g>
<!-- Node16 -->
<g id="node16" class="node"><title>Node16</title>
<g id="a_node16"><a xlink:href="MainWindow_8cpp_source.html" target="_top" xlink:title="src/ui/MainWindow.cpp">
<polygon fill="white" stroke="black" points="263.091,-0.5 263.091,-19.5 382.091,-19.5 382.091,-0.5 263.091,-0.5"/>
<text text-anchor="middle" x="322.591" y="-7.5" font-family="Helvetica,sans-Serif" font-size="10.00">src/ui/MainWindow.cpp</text>
</a>
</g>
</g>
<!-- Node13&#45;&gt;Node16 -->
<g id="edge18" class="edge"><title>Node13&#45;&gt;Node16</title>
<path fill="none" stroke="midnightblue" d="M467.636,-53.5677C432.926,-43.381 382.914,-28.7034 351.61,-19.5164"/>
<polygon fill="midnightblue" stroke="midnightblue" points="466.854,-56.9858 477.435,-56.4435 468.826,-50.2691 466.854,-56.9858"/>
</g>
<!-- Node13&#45;&gt;Node17 -->
<g id="edge19" class="edge"><title>Node13&#45;&gt;Node17</title>
<path fill="none" stroke="midnightblue" d="M454.785,-58.8108C368.428,-48.4938 195.905,-27.8827 108.3,-17.4166"/>
<polygon fill="midnightblue" stroke="midnightblue" points="454.533,-62.3055 464.878,-60.0166 455.364,-55.355 454.533,-62.3055"/>
</g>
<!-- Node19&#45;&gt;Node13 -->
<g id="edge22" class="edge"><title>Node19&#45;&gt;Node13</title>
<path fill="none" stroke="midnightblue" d="M383.198,-109.172C412.95,-99.0039 455.138,-84.5852 481.672,-75.5164"/>
<polygon fill="midnightblue" stroke="midnightblue" points="381.957,-105.898 373.626,-112.444 384.221,-112.521 381.957,-105.898"/>
</g>
<!-- Node19&#45;&gt;Node16 -->
<g id="edge36" class="edge"><title>Node19&#45;&gt;Node16</title>
<path fill="none" stroke="midnightblue" d="M365.248,-104.413C376.346,-91.2621 387.552,-72.4281 379.591,-56 371.563,-39.4349 354.152,-27.1278 340.672,-19.6099"/>
<polygon fill="midnightblue" stroke="midnightblue" points="362.338,-102.41 358.173,-112.152 367.504,-107.133 362.338,-102.41"/>
</g>
<!-- Node19&#45;&gt;Node17 -->
<g id="edge37" class="edge"><title>Node19&#45;&gt;Node17</title>
<path fill="none" stroke="midnightblue" d="M278.688,-117.901C207.423,-113.32 103.247,-102.238 73.5907,-76 57.2125,-61.51 54.6039,-33.7627 54.4019,-19.6718"/>
<polygon fill="midnightblue" stroke="midnightblue" points="278.756,-121.412 288.951,-118.531 279.184,-114.425 278.756,-121.412"/>
</g>
<!-- Node19&#45;&gt;Node20 -->
<g id="edge23" class="edge"><title>Node19&#45;&gt;Node20</title>
<path fill="none" stroke="midnightblue" d="M418.467,-111.217C480.736,-102.39 574.319,-88.8551 655.591,-76 658.633,-75.5188 661.771,-75.0121 664.931,-74.4945"/>
<polygon fill="midnightblue" stroke="midnightblue" points="417.777,-107.78 408.366,-112.647 418.758,-114.711 417.777,-107.78"/>
</g>
<!-- Node21 -->
<g id="node21" class="node"><title>Node21</title>
<g id="a_node21"><a xlink:href="Main_8cpp.html" target="_top" xlink:title="Principal Program. ">
<polygon fill="white" stroke="black" points="400.091,-0.5 400.091,-19.5 473.091,-19.5 473.091,-0.5 400.091,-0.5"/>
<text text-anchor="middle" x="436.591" y="-7.5" font-family="Helvetica,sans-Serif" font-size="10.00">src/Main.cpp</text>
</a>
</g>
</g>
<!-- Node19&#45;&gt;Node21 -->
<g id="edge32" class="edge"><title>Node19&#45;&gt;Node21</title>
<path fill="none" stroke="midnightblue" d="M366.529,-105.734C375.752,-97.4297 386.857,-86.6914 395.591,-76 410.784,-57.4007 424.881,-32.8217 431.913,-19.8671"/>
<polygon fill="midnightblue" stroke="midnightblue" points="364.213,-103.11 359.016,-112.343 368.836,-108.366 364.213,-103.11"/>
</g>
<!-- Node19&#45;&gt;Node25 -->
<g id="edge33" class="edge"><title>Node19&#45;&gt;Node25</title>
<path fill="none" stroke="midnightblue" d="M399.526,-110.339C448.437,-100.102 521.344,-84.8422 566.326,-75.4275"/>
<polygon fill="midnightblue" stroke="midnightblue" points="398.542,-106.969 389.472,-112.444 399.977,-113.821 398.542,-106.969"/>
</g>
<!-- Node26 -->
<g id="node26" class="node"><title>Node26</title>
<g id="a_node26"><a xlink:href="ConnectionSettings_8cpp_source.html" target="_top" xlink:title="src/ui/ConnectionSettings.cpp">
<polygon fill="white" stroke="black" points="82.5907,-56.5 82.5907,-75.5 230.591,-75.5 230.591,-56.5 82.5907,-56.5"/>
<text text-anchor="middle" x="156.591" y="-63.5" font-family="Helvetica,sans-Serif" font-size="10.00">src/ui/ConnectionSettings.cpp</text>
</a>
</g>
</g>
<!-- Node19&#45;&gt;Node26 -->
<g id="edge34" class="edge"><title>Node19&#45;&gt;Node26</title>
<path fill="none" stroke="midnightblue" d="M308.408,-109.699C272.171,-99.507 219.676,-84.7429 186.871,-75.5164"/>
<polygon fill="midnightblue" stroke="midnightblue" points="307.594,-113.105 318.168,-112.444 309.489,-106.367 307.594,-113.105"/>
</g>
<!-- Node27 -->
<g id="node27" class="node"><title>Node27</title>
<g id="a_node27"><a xlink:href="FunctionForm_8cpp_source.html" target="_top" xlink:title="src/ui/FunctionForm.cpp">
<polygon fill="white" stroke="black" points="248.591,-56.5 248.591,-75.5 370.591,-75.5 370.591,-56.5 248.591,-56.5"/>
<text text-anchor="middle" x="309.591" y="-63.5" font-family="Helvetica,sans-Serif" font-size="10.00">src/ui/FunctionForm.cpp</text>
</a>
</g>
</g>
<!-- Node19&#45;&gt;Node27 -->
<g id="edge35" class="edge"><title>Node19&#45;&gt;Node27</title>
<path fill="none" stroke="midnightblue" d="M336.208,-103.855C329.455,-94.5048 321.382,-83.3265 315.911,-75.7511"/>
<polygon fill="midnightblue" stroke="midnightblue" points="333.458,-106.025 342.151,-112.083 339.133,-101.927 333.458,-106.025"/>
</g>
<!-- Node20&#45;&gt;Node14 -->
<g id="edge24" class="edge"><title>Node20&#45;&gt;Node14</title>
<path fill="none" stroke="midnightblue" d="M671.33,-53.4363C638.524,-43.2551 591.508,-28.664 562.033,-19.5164"/>
<polygon fill="midnightblue" stroke="midnightblue" points="670.432,-56.8222 681.02,-56.4435 672.507,-50.1368 670.432,-56.8222"/>
</g>
<!-- Node20&#45;&gt;Node15 -->
<g id="edge28" class="edge"><title>Node20&#45;&gt;Node15</title>
<path fill="none" stroke="midnightblue" d="M689.001,-50.1008C676.223,-40.3824 659.978,-28.0269 649.206,-19.8339"/>
<polygon fill="midnightblue" stroke="midnightblue" points="687.105,-53.0561 697.183,-56.324 691.343,-47.4844 687.105,-53.0561"/>
</g>
<!-- Node20&#45;&gt;Node16 -->
<g id="edge29" class="edge"><title>Node20&#45;&gt;Node16</title>
<path fill="none" stroke="midnightblue" d="M655.04,-55.9961C606.11,-48.8865 464.244,-29.8927 382.307,-18.9579"/>
<polygon fill="midnightblue" stroke="midnightblue" points="654.531,-59.4589 664.937,-57.4666 655.56,-52.5349 654.531,-59.4589"/>
</g>
<!-- Node20&#45;&gt;Node17 -->
<g id="edge31" class="edge"><title>Node20&#45;&gt;Node17</title>
<path fill="none" stroke="midnightblue" d="M654.762,-56.0212C446.632,-31.0133 211.777,-18.1977 108.222,-13.3309"/>
<polygon fill="midnightblue" stroke="midnightblue" points="654.616,-59.5291 664.965,-57.2597 655.46,-52.5801 654.616,-59.5291"/>
</g>
<!-- Node20&#45;&gt;Node21 -->
<g id="edge25" class="edge"><title>Node20&#45;&gt;Node21</title>
<path fill="none" stroke="midnightblue" d="M655.449,-54.4918C609.442,-45.388 541.119,-31.8531 481.591,-20 478.934,-19.471 476.189,-18.9238 473.427,-18.3725"/>
<polygon fill="midnightblue" stroke="midnightblue" points="655.002,-57.9711 665.491,-56.4786 656.361,-51.1042 655.002,-57.9711"/>
</g>
<!-- Node20&#45;&gt;Node22 -->
<g id="edge26" class="edge"><title>Node20&#45;&gt;Node22</title>
<path fill="none" stroke="midnightblue" d="M762.289,-54.7173C817.466,-44.1515 902.052,-27.9542 951.287,-18.5262"/>
<polygon fill="midnightblue" stroke="midnightblue" points="761.507,-51.3034 752.344,-56.6217 762.824,-58.1785 761.507,-51.3034"/>
</g>
<!-- Node23 -->
<g id="node23" class="node"><title>Node23</title>
<g id="a_node23"><a xlink:href="PHIOTest_8cpp_source.html" target="_top" xlink:title="src/test/PHIOTest.cpp">
<polygon fill="white" stroke="black" points="697.591,-0.5 697.591,-19.5 813.591,-19.5 813.591,-0.5 697.591,-0.5"/>
<text text-anchor="middle" x="755.591" y="-7.5" font-family="Helvetica,sans-Serif" font-size="10.00">src/test/PHIOTest.cpp</text>
</a>
</g>
</g>
<!-- Node20&#45;&gt;Node23 -->
<g id="edge27" class="edge"><title>Node20&#45;&gt;Node23</title>
<path fill="none" stroke="midnightblue" d="M723.012,-48.4314C731.249,-38.9673 741.245,-27.4827 747.974,-19.7511"/>
<polygon fill="midnightblue" stroke="midnightblue" points="720.277,-46.2421 716.352,-56.083 725.557,-50.8378 720.277,-46.2421"/>
</g>
<!-- Node24 -->
<g id="node24" class="node"><title>Node24</title>
<g id="a_node24"><a xlink:href="TextArea_8cpp_source.html" target="_top" xlink:title="src/ui/TextArea.cpp">
<polygon fill="white" stroke="black" points="831.591,-0.5 831.591,-19.5 933.591,-19.5 933.591,-0.5 831.591,-0.5"/>
<text text-anchor="middle" x="882.591" y="-7.5" font-family="Helvetica,sans-Serif" font-size="10.00">src/ui/TextArea.cpp</text>
</a>
</g>
</g>
<!-- Node20&#45;&gt;Node24 -->
<g id="edge30" class="edge"><title>Node20&#45;&gt;Node24</title>
<path fill="none" stroke="midnightblue" d="M745.851,-53.4363C778.658,-43.2551 825.673,-28.664 855.149,-19.5164"/>
<polygon fill="midnightblue" stroke="midnightblue" points="744.675,-50.1368 736.162,-56.4435 746.75,-56.8222 744.675,-50.1368"/>
</g>
<!-- Node30&#45;&gt;Node17 -->
<g id="edge50" class="edge"><title>Node30&#45;&gt;Node17</title>
<path fill="none" stroke="midnightblue" d="M66.3198,-161.753C46.2533,-143.694 15.2034,-111.546 2.5907,-76 -0.381771,-67.6228 -1.10446,-64.0844 2.5907,-56 9.98565,-39.821 26.388,-27.2312 38.8074,-19.5333"/>
<polygon fill="midnightblue" stroke="midnightblue" points="64.0783,-164.442 73.9116,-168.386 68.6843,-159.171 64.0783,-164.442"/>
</g>
<!-- Node30&#45;&gt;Node19 -->
<g id="edge49" class="edge"><title>Node30&#45;&gt;Node19</title>
<path fill="none" stroke="midnightblue" d="M136.366,-166.41C186.259,-156.204 260.788,-140.96 306.955,-131.516"/>
<polygon fill="midnightblue" stroke="midnightblue" points="135.518,-163.01 126.422,-168.444 136.921,-169.869 135.518,-163.01"/>
</g>
</g>
</svg>
