<?xml version="1.0" encoding="UTF-8" standalone="no"?>
<!DOCTYPE svg PUBLIC "-//W3C//DTD SVG 1.1//EN"
 "http://www.w3.org/Graphics/SVG/1.1/DTD/svg11.dtd">
<!-- Generated by graphviz version 2.38.0 (20140413.2041)
 -->
<!-- Title: headers/Sort.h Pages: 1 -->
<svg width="312pt" height="140pt"
 viewBox="0.00 0.00 311.50 140.00" xmlns="http://www.w3.org/2000/svg" xmlns:xlink="http://www.w3.org/1999/xlink">
<g id="graph0" class="graph" transform="scale(1 1) rotate(0) translate(4 136)">
<title>headers/Sort.h</title>
<polygon fill="white" stroke="none" points="-4,4 -4,-136 307.5,-136 307.5,4 -4,4"/>
<!-- Node1 -->
<g id="node1" class="node"><title>Node1</title>
<polygon fill="#bfbfbf" stroke="black" points="67.5,-112.5 67.5,-131.5 147.5,-131.5 147.5,-112.5 67.5,-112.5"/>
<text text-anchor="middle" x="107.5" y="-119.5" font-family="Helvetica,sans-Serif" font-size="10.00">headers/Sort.h</text>
</g>
<!-- Node2 -->
<g id="node2" class="node"><title>Node2</title>
<polygon fill="white" stroke="#bfbfbf" points="0,-0.5 0,-19.5 41,-19.5 41,-0.5 0,-0.5"/>
<text text-anchor="middle" x="20.5" y="-7.5" font-family="Helvetica,sans-Serif" font-size="10.00">string</text>
</g>
<!-- Node1&#45;&gt;Node2 -->
<g id="edge1" class="edge"><title>Node1&#45;&gt;Node2</title>
<path fill="none" stroke="midnightblue" d="M67.4224,-114.277C45.1276,-108.267 19.1869,-96.998 5.5,-76 -3.7618,-61.7908 2.4826,-42.5662 9.52274,-28.715"/>
<polygon fill="midnightblue" stroke="midnightblue" points="12.7263,-30.1589 14.5793,-19.7274 6.62553,-26.7265 12.7263,-30.1589"/>
</g>
<!-- Node3 -->
<g id="node3" class="node"><title>Node3</title>
<polygon fill="white" stroke="#bfbfbf" points="14.5,-56.5 14.5,-75.5 58.5,-75.5 58.5,-56.5 14.5,-56.5"/>
<text text-anchor="middle" x="36.5" y="-63.5" font-family="Helvetica,sans-Serif" font-size="10.00">vector</text>
</g>
<!-- Node1&#45;&gt;Node3 -->
<g id="edge2" class="edge"><title>Node1&#45;&gt;Node3</title>
<path fill="none" stroke="midnightblue" d="M96.0926,-112.324C85.3912,-104.185 69.1593,-91.8395 56.3372,-82.0874"/>
<polygon fill="midnightblue" stroke="midnightblue" points="58.1932,-79.1018 48.1149,-75.8339 53.9556,-84.6734 58.1932,-79.1018"/>
</g>
<!-- Node4 -->
<g id="node4" class="node"><title>Node4</title>
<polygon fill="white" stroke="#bfbfbf" points="195.5,-0.5 195.5,-19.5 303.5,-19.5 303.5,-0.5 195.5,-0.5"/>
<text text-anchor="middle" x="249.5" y="-7.5" font-family="Helvetica,sans-Serif" font-size="10.00">boost/shared_ptr.hpp</text>
</g>
<!-- Node1&#45;&gt;Node4 -->
<g id="edge3" class="edge"><title>Node1&#45;&gt;Node4</title>
<path fill="none" stroke="midnightblue" d="M147.802,-116.523C194.961,-110.358 268.756,-97.5032 285.5,-76 297.67,-60.37 282.286,-40.1029 268.026,-26.3858"/>
<polygon fill="midnightblue" stroke="midnightblue" points="270.171,-23.6078 260.401,-19.5102 265.483,-28.8063 270.171,-23.6078"/>
</g>
<!-- Node5 -->
<g id="node5" class="node"><title>Node5</title>
<polygon fill="white" stroke="#bfbfbf" points="156,-56.5 156,-75.5 277,-75.5 277,-56.5 156,-56.5"/>
<text text-anchor="middle" x="216.5" y="-63.5" font-family="Helvetica,sans-Serif" font-size="10.00">boost/make_shared.hpp</text>
</g>
<!-- Node1&#45;&gt;Node5 -->
<g id="edge4" class="edge"><title>Node1&#45;&gt;Node5</title>
<path fill="none" stroke="midnightblue" d="M125.013,-112.324C142.572,-103.625 169.831,-90.1202 190.031,-80.113"/>
<polygon fill="midnightblue" stroke="midnightblue" points="191.624,-83.23 199.031,-75.6545 188.516,-76.9575 191.624,-83.23"/>
</g>
<!-- Node6 -->
<g id="node6" class="node"><title>Node6</title>
<g id="a_node6"><a xlink:href="Process_8h.html" target="_top" xlink:title="header for the Process class ">
<polygon fill="white" stroke="black" points="77,-56.5 77,-75.5 138,-75.5 138,-56.5 77,-56.5"/>
<text text-anchor="middle" x="107.5" y="-63.5" font-family="Helvetica,sans-Serif" font-size="10.00">Process.h</text>
</a>
</g>
</g>
<!-- Node1&#45;&gt;Node6 -->
<g id="edge5" class="edge"><title>Node1&#45;&gt;Node6</title>
<path fill="none" stroke="midnightblue" d="M102.334,-112.083C100.824,-104.927 100.394,-94.6353 101.042,-85.6911"/>
<polygon fill="midnightblue" stroke="midnightblue" points="104.515,-86.1262 102.369,-75.7511 97.5769,-85.2002 104.515,-86.1262"/>
</g>
<!-- Node6&#45;&gt;Node1 -->
<g id="edge9" class="edge"><title>Node6&#45;&gt;Node1</title>
<path fill="none" stroke="midnightblue" d="M112.631,-75.7511C114.157,-82.8579 114.604,-93.1357 113.972,-102.101"/>
<polygon fill="midnightblue" stroke="midnightblue" points="110.493,-101.713 112.666,-112.083 117.434,-102.622 110.493,-101.713"/>
</g>
<!-- Node6&#45;&gt;Node2 -->
<g id="edge7" class="edge"><title>Node6&#45;&gt;Node2</title>
<path fill="none" stroke="midnightblue" d="M93.5219,-56.324C79.9504,-47.9002 59.1198,-34.9709 43.175,-25.0741"/>
<polygon fill="midnightblue" stroke="midnightblue" points="44.7856,-21.9544 34.4434,-19.6545 41.094,-27.9019 44.7856,-21.9544"/>
</g>
<!-- Node6&#45;&gt;Node4 -->
<g id="edge6" class="edge"><title>Node6&#45;&gt;Node4</title>
<path fill="none" stroke="midnightblue" d="M130,-56.4435C153.577,-47.4776 190.822,-33.314 217.464,-23.1827"/>
<polygon fill="midnightblue" stroke="midnightblue" points="219.002,-26.3424 227.105,-19.5164 216.514,-19.7995 219.002,-26.3424"/>
</g>
<!-- Node7 -->
<g id="node7" class="node"><title>Node7</title>
<polygon fill="white" stroke="#bfbfbf" points="93,-0.5 93,-19.5 122,-19.5 122,-0.5 93,-0.5"/>
<text text-anchor="middle" x="107.5" y="-7.5" font-family="Helvetica,sans-Serif" font-size="10.00">list</text>
</g>
<!-- Node6&#45;&gt;Node7 -->
<g id="edge8" class="edge"><title>Node6&#45;&gt;Node7</title>
<path fill="none" stroke="midnightblue" d="M107.5,-56.083C107.5,-49.0059 107.5,-38.8611 107.5,-29.9865"/>
<polygon fill="midnightblue" stroke="midnightblue" points="111,-29.751 107.5,-19.7511 104,-29.7511 111,-29.751"/>
</g>
</g>
</svg>
