<?xml version="1.0" encoding="UTF-8" standalone="no"?>
<!DOCTYPE svg PUBLIC "-//W3C//DTD SVG 1.1//EN"
 "http://www.w3.org/Graphics/SVG/1.1/DTD/svg11.dtd">
<!-- Generated by graphviz version 2.38.0 (20140413.2041)
 -->
<!-- Title: headers/Sort.h Pages: 1 -->
<svg width="1195pt" height="476pt"
 viewBox="0.00 0.00 1194.89 476.00" xmlns="http://www.w3.org/2000/svg" xmlns:xlink="http://www.w3.org/1999/xlink">
<g id="graph0" class="graph" transform="scale(1 1) rotate(0) translate(4 472)">
<title>headers/Sort.h</title>
<polygon fill="white" stroke="none" points="-4,4 -4,-472 1190.89,-472 1190.89,4 -4,4"/>
<!-- Node1 -->
<g id="node1" class="node"><title>Node1</title>
<polygon fill="#bfbfbf" stroke="black" points="996.39,-448.5 996.39,-467.5 1076.39,-467.5 1076.39,-448.5 996.39,-448.5"/>
<text text-anchor="middle" x="1036.39" y="-455.5" font-family="Helvetica,sans-Serif" font-size="10.00">headers/Sort.h</text>
</g>
<!-- Node2 -->
<g id="node2" class="node"><title>Node2</title>
<g id="a_node2"><a xlink:href="GSort_8h.html" target="_top" xlink:title="header for the GSort class ">
<polygon fill="white" stroke="black" points="802.39,-392.5 802.39,-411.5 890.39,-411.5 890.39,-392.5 802.39,-392.5"/>
<text text-anchor="middle" x="846.39" y="-399.5" font-family="Helvetica,sans-Serif" font-size="10.00">headers/GSort.h</text>
</a>
</g>
</g>
<!-- Node1&#45;&gt;Node2 -->
<g id="edge1" class="edge"><title>Node1&#45;&gt;Node2</title>
<path fill="none" stroke="midnightblue" d="M996.626,-445.699C960.767,-435.507 908.819,-420.743 876.356,-411.516"/>
<polygon fill="midnightblue" stroke="midnightblue" points="995.708,-449.076 1006.28,-448.444 997.622,-442.343 995.708,-449.076"/>
</g>
<!-- Node5 -->
<g id="node5" class="node"><title>Node5</title>
<g id="a_node5"><a xlink:href="PH_8h.html" target="_top" xlink:title="header for the PH class ">
<polygon fill="white" stroke="black" points="725.89,-224.5 725.89,-243.5 802.89,-243.5 802.89,-224.5 725.89,-224.5"/>
<text text-anchor="middle" x="764.39" y="-231.5" font-family="Helvetica,sans-Serif" font-size="10.00">headers/PH.h</text>
</a>
</g>
</g>
<!-- Node1&#45;&gt;Node5 -->
<g id="edge56" class="edge"><title>Node1&#45;&gt;Node5</title>
<path fill="none" stroke="midnightblue" d="M1016.43,-442.491C1005.01,-433.951 990.579,-422.747 978.39,-412 915.209,-356.292 910.099,-330.108 842.39,-280 822.786,-265.492 798.11,-251.955 781.824,-243.594"/>
<polygon fill="midnightblue" stroke="midnightblue" points="1014.37,-445.319 1024.49,-448.451 1018.53,-439.691 1014.37,-445.319"/>
</g>
<!-- Node32 -->
<g id="node32" class="node"><title>Node32</title>
<g id="a_node32"><a xlink:href="Process_8h.html" target="_top" xlink:title="header for the Process class ">
<polygon fill="white" stroke="black" points="987.39,-392.5 987.39,-411.5 1085.39,-411.5 1085.39,-392.5 987.39,-392.5"/>
<text text-anchor="middle" x="1036.39" y="-399.5" font-family="Helvetica,sans-Serif" font-size="10.00">headers/Process.h</text>
</a>
</g>
</g>
<!-- Node1&#45;&gt;Node32 -->
<g id="edge52" class="edge"><title>Node1&#45;&gt;Node32</title>
<path fill="none" stroke="midnightblue" d="M1029.92,-438.101C1029.29,-429.136 1029.73,-418.858 1031.26,-411.751"/>
<polygon fill="midnightblue" stroke="midnightblue" points="1026.46,-438.622 1031.22,-448.083 1033.4,-437.713 1026.46,-438.622"/>
</g>
<!-- Node34 -->
<g id="node34" class="node"><title>Node34</title>
<g id="a_node34"><a xlink:href="Sort_8cpp_source.html" target="_top" xlink:title="src/ph/Sort.cpp">
<polygon fill="white" stroke="black" points="1103.89,-392.5 1103.89,-411.5 1186.89,-411.5 1186.89,-392.5 1103.89,-392.5"/>
<text text-anchor="middle" x="1145.39" y="-399.5" font-family="Helvetica,sans-Serif" font-size="10.00">src/ph/Sort.cpp</text>
</a>
</g>
</g>
<!-- Node1&#45;&gt;Node34 -->
<g id="edge57" class="edge"><title>Node1&#45;&gt;Node34</title>
<path fill="none" stroke="midnightblue" d="M1062.91,-443.862C1083.12,-433.849 1110.38,-420.346 1127.92,-411.655"/>
<polygon fill="midnightblue" stroke="midnightblue" points="1061.31,-440.748 1053.9,-448.324 1064.42,-447.021 1061.31,-440.748"/>
</g>
<!-- Node3 -->
<g id="node3" class="node"><title>Node3</title>
<g id="a_node3"><a xlink:href="GAction_8h.html" target="_top" xlink:title="header for the GAction class ">
<polygon fill="white" stroke="black" points="683.39,-336.5 683.39,-355.5 781.39,-355.5 781.39,-336.5 683.39,-336.5"/>
<text text-anchor="middle" x="732.39" y="-343.5" font-family="Helvetica,sans-Serif" font-size="10.00">headers/GAction.h</text>
</a>
</g>
</g>
<!-- Node2&#45;&gt;Node3 -->
<g id="edge2" class="edge"><title>Node2&#45;&gt;Node3</title>
<path fill="none" stroke="midnightblue" d="M819.149,-388.096C797.85,-378.007 768.849,-364.27 750.37,-355.516"/>
<polygon fill="midnightblue" stroke="midnightblue" points="817.791,-391.326 828.327,-392.444 820.788,-385 817.791,-391.326"/>
</g>
<!-- Node31 -->
<g id="node31" class="node"><title>Node31</title>
<g id="a_node31"><a xlink:href="GSort_8cpp_source.html" target="_top" xlink:title="src/gfx/GSort.cpp">
<polygon fill="white" stroke="black" points="799.39,-336.5 799.39,-355.5 893.39,-355.5 893.39,-336.5 799.39,-336.5"/>
<text text-anchor="middle" x="846.39" y="-343.5" font-family="Helvetica,sans-Serif" font-size="10.00">src/gfx/GSort.cpp</text>
</a>
</g>
</g>
<!-- Node2&#45;&gt;Node31 -->
<g id="edge51" class="edge"><title>Node2&#45;&gt;Node31</title>
<path fill="none" stroke="midnightblue" d="M846.39,-381.805C846.39,-372.91 846.39,-362.78 846.39,-355.751"/>
<polygon fill="midnightblue" stroke="midnightblue" points="842.891,-382.083 846.39,-392.083 849.891,-382.083 842.891,-382.083"/>
</g>
<!-- Node4 -->
<g id="node4" class="node"><title>Node4</title>
<g id="a_node4"><a xlink:href="PHScene_8h.html" target="_top" xlink:title="header for the PHScene class ">
<polygon fill="white" stroke="black" points="607.39,-280.5 607.39,-299.5 711.39,-299.5 711.39,-280.5 607.39,-280.5"/>
<text text-anchor="middle" x="659.39" y="-287.5" font-family="Helvetica,sans-Serif" font-size="10.00">headers/PHScene.h</text>
</a>
</g>
</g>
<!-- Node3&#45;&gt;Node4 -->
<g id="edge3" class="edge"><title>Node3&#45;&gt;Node4</title>
<path fill="none" stroke="midnightblue" d="M706.961,-330.658C692.532,-320.859 675.695,-308.184 666.184,-299.834"/>
<polygon fill="midnightblue" stroke="midnightblue" points="705.273,-333.738 715.547,-336.324 709.128,-327.895 705.273,-333.738"/>
</g>
<!-- Node6 -->
<g id="node6" class="node"><title>Node6</title>
<g id="a_node6"><a xlink:href="Action_8h.html" target="_top" xlink:title="header for the Action class ">
<polygon fill="white" stroke="black" points="830.39,-168.5 830.39,-187.5 920.39,-187.5 920.39,-168.5 830.39,-168.5"/>
<text text-anchor="middle" x="875.39" y="-175.5" font-family="Helvetica,sans-Serif" font-size="10.00">headers/Action.h</text>
</a>
</g>
</g>
<!-- Node3&#45;&gt;Node6 -->
<g id="edge46" class="edge"><title>Node3&#45;&gt;Node6</title>
<path fill="none" stroke="midnightblue" d="M778.804,-333.397C798.031,-326.67 819.062,-316.194 833.39,-300 862.97,-266.57 866.337,-209.089 871.126,-187.513"/>
<polygon fill="midnightblue" stroke="midnightblue" points="777.687,-330.08 769.254,-336.494 779.847,-336.738 777.687,-330.08"/>
</g>
<!-- Node29 -->
<g id="node29" class="node"><title>Node29</title>
<g id="a_node29"><a xlink:href="TikzEditor_8h_source.html" target="_top" xlink:title="headers/TikzEditor.h">
<polygon fill="white" stroke="black" points="63.8904,-168.5 63.8904,-187.5 170.89,-187.5 170.89,-168.5 63.8904,-168.5"/>
<text text-anchor="middle" x="117.39" y="-175.5" font-family="Helvetica,sans-Serif" font-size="10.00">headers/TikzEditor.h</text>
</a>
</g>
</g>
<!-- Node3&#45;&gt;Node29 -->
<g id="edge47" class="edge"><title>Node3&#45;&gt;Node29</title>
<path fill="none" stroke="midnightblue" d="M690.722,-333.753C575.002,-302.518 251.485,-215.195 148.971,-187.524"/>
<polygon fill="midnightblue" stroke="midnightblue" points="690.054,-337.198 700.62,-336.425 691.878,-330.44 690.054,-337.198"/>
</g>
<!-- Node30 -->
<g id="node30" class="node"><title>Node30</title>
<g id="a_node30"><a xlink:href="GAction_8cpp_source.html" target="_top" xlink:title="src/gfx/GAction.cpp">
<polygon fill="white" stroke="black" points="729.39,-280.5 729.39,-299.5 833.39,-299.5 833.39,-280.5 729.39,-280.5"/>
<text text-anchor="middle" x="781.39" y="-287.5" font-family="Helvetica,sans-Serif" font-size="10.00">src/gfx/GAction.cpp</text>
</a>
</g>
</g>
<!-- Node3&#45;&gt;Node30 -->
<g id="edge50" class="edge"><title>Node3&#45;&gt;Node30</title>
<path fill="none" stroke="midnightblue" d="M747.425,-328.431C756.013,-318.967 766.434,-307.483 773.45,-299.751"/>
<polygon fill="midnightblue" stroke="midnightblue" points="744.61,-326.325 740.482,-336.083 749.794,-331.029 744.61,-326.325"/>
</g>
<!-- Node4&#45;&gt;Node2 -->
<g id="edge44" class="edge"><title>Node4&#45;&gt;Node2</title>
<path fill="none" stroke="midnightblue" d="M658.803,-310.214C659.423,-324.651 662.675,-343.939 674.39,-356 707.617,-390.208 763.386,-399.516 802.386,-401.52"/>
<polygon fill="midnightblue" stroke="midnightblue" points="662.302,-309.89 658.759,-299.905 655.302,-309.92 662.302,-309.89"/>
</g>
<!-- Node4&#45;&gt;Node3 -->
<g id="edge43" class="edge"><title>Node4&#45;&gt;Node3</title>
<path fill="none" stroke="midnightblue" d="M684.836,-305.352C699.353,-315.212 716.302,-327.979 725.777,-336.324"/>
<polygon fill="midnightblue" stroke="midnightblue" points="686.475,-302.24 676.2,-299.655 682.619,-308.083 686.475,-302.24"/>
</g>
<!-- Node4&#45;&gt;Node5 -->
<g id="edge4" class="edge"><title>Node4&#45;&gt;Node5</title>
<path fill="none" stroke="midnightblue" d="M685.201,-275.726C704.643,-265.727 730.739,-252.307 747.562,-243.655"/>
<polygon fill="midnightblue" stroke="midnightblue" points="683.553,-272.638 676.26,-280.324 686.754,-278.863 683.553,-272.638"/>
</g>
<!-- Node28 -->
<g id="node28" class="node"><title>Node28</title>
<g id="a_node28"><a xlink:href="PHScene_8cpp_source.html" target="_top" xlink:title="src/gfx/PHScene.cpp">
<polygon fill="white" stroke="black" points="189.39,-168.5 189.39,-187.5 299.39,-187.5 299.39,-168.5 189.39,-168.5"/>
<text text-anchor="middle" x="244.39" y="-175.5" font-family="Helvetica,sans-Serif" font-size="10.00">src/gfx/PHScene.cpp</text>
</a>
</g>
</g>
<!-- Node4&#45;&gt;Node28 -->
<g id="edge45" class="edge"><title>Node4&#45;&gt;Node28</title>
<path fill="none" stroke="midnightblue" d="M617.319,-277.848C534.269,-255.835 350.884,-207.227 276.589,-187.535"/>
<polygon fill="midnightblue" stroke="midnightblue" points="616.608,-281.281 627.171,-280.46 618.402,-274.515 616.608,-281.281"/>
</g>
<!-- Node5&#45;&gt;Node6 -->
<g id="edge5" class="edge"><title>Node5&#45;&gt;Node6</title>
<path fill="none" stroke="midnightblue" d="M786.032,-219.59C805.229,-209.605 832.917,-196.267 852.49,-187.655"/>
<polygon fill="midnightblue" stroke="midnightblue" points="784.303,-216.545 777.11,-224.324 787.584,-222.729 784.303,-216.545"/>
</g>
<!-- Node8 -->
<g id="node8" class="node"><title>Node8</title>
<g id="a_node8"><a xlink:href="GProcess_8h.html" target="_top" xlink:title="header for the GProcess class ">
<polygon fill="white" stroke="black" points="940.39,-168.5 940.39,-187.5 1046.39,-187.5 1046.39,-168.5 940.39,-168.5"/>
<text text-anchor="middle" x="993.39" y="-175.5" font-family="Helvetica,sans-Serif" font-size="10.00">headers/GProcess.h</text>
</a>
</g>
</g>
<!-- Node5&#45;&gt;Node8 -->
<g id="edge9" class="edge"><title>Node5&#45;&gt;Node8</title>
<path fill="none" stroke="midnightblue" d="M810.664,-222.088C853.927,-211.887 917.646,-196.861 957.274,-187.516"/>
<polygon fill="midnightblue" stroke="midnightblue" points="809.606,-218.742 800.676,-224.444 811.213,-225.555 809.606,-218.742"/>
</g>
<!-- Node10 -->
<g id="node10" class="node"><title>Node10</title>
<g id="a_node10"><a xlink:href="MyArea_8h.html" target="_top" xlink:title="header for the MyArea class ">
<polygon fill="white" stroke="black" points="523.39,-168.5 523.39,-187.5 619.39,-187.5 619.39,-168.5 523.39,-168.5"/>
<text text-anchor="middle" x="571.39" y="-175.5" font-family="Helvetica,sans-Serif" font-size="10.00">headers/MyArea.h</text>
</a>
</g>
</g>
<!-- Node5&#45;&gt;Node10 -->
<g id="edge12" class="edge"><title>Node5&#45;&gt;Node10</title>
<path fill="none" stroke="midnightblue" d="M723.999,-221.699C687.573,-211.507 634.805,-196.743 601.829,-187.516"/>
<polygon fill="midnightblue" stroke="midnightblue" points="723.236,-225.12 733.809,-224.444 725.122,-218.378 723.236,-225.12"/>
</g>
<!-- Node16 -->
<g id="node16" class="node"><title>Node16</title>
<g id="a_node16"><a xlink:href="TikzEditor_8cpp_source.html" target="_top" xlink:title="src/ui/TikzEditor.cpp">
<polygon fill="white" stroke="black" points="0.890406,-0.5 0.890406,-19.5 107.89,-19.5 107.89,-0.5 0.890406,-0.5"/>
<text text-anchor="middle" x="54.3904" y="-7.5" font-family="Helvetica,sans-Serif" font-size="10.00">src/ui/TikzEditor.cpp</text>
</a>
</g>
</g>
<!-- Node5&#45;&gt;Node16 -->
<g id="edge42" class="edge"><title>Node5&#45;&gt;Node16</title>
<path fill="none" stroke="midnightblue" d="M715.712,-225.16C665.203,-216.81 584.008,-202.782 514.39,-188 412.11,-166.283 123.809,-156.756 57.3904,-76 44.1868,-59.9463 48.4136,-33.3907 51.8356,-19.723"/>
<polygon fill="midnightblue" stroke="midnightblue" points="715.264,-228.633 725.7,-226.803 716.401,-221.726 715.264,-228.633"/>
</g>
<!-- Node19 -->
<g id="node19" class="node"><title>Node19</title>
<g id="a_node19"><a xlink:href="PHIO_8h.html" target="_top" xlink:title="header for the PHIO class ">
<polygon fill="white" stroke="black" points="784.89,-56.5 784.89,-75.5 871.89,-75.5 871.89,-56.5 784.89,-56.5"/>
<text text-anchor="middle" x="828.39" y="-63.5" font-family="Helvetica,sans-Serif" font-size="10.00">headers/PHIO.h</text>
</a>
</g>
</g>
<!-- Node5&#45;&gt;Node19 -->
<g id="edge38" class="edge"><title>Node5&#45;&gt;Node19</title>
<path fill="none" stroke="midnightblue" d="M765.085,-214.143C766.656,-189.47 771.77,-145.444 788.39,-112 795.647,-97.3975 808.913,-83.8816 818.17,-75.5505"/>
<polygon fill="midnightblue" stroke="midnightblue" points="761.582,-214.127 764.574,-224.291 768.573,-214.48 761.582,-214.127"/>
</g>
<!-- Node21 -->
<g id="node21" class="node"><title>Node21</title>
<g id="a_node21"><a xlink:href="Main2_8cpp_source.html" target="_top" xlink:title="src/Main2.cpp">
<polygon fill="white" stroke="black" points="1027.39,-0.5 1027.39,-19.5 1105.39,-19.5 1105.39,-0.5 1027.39,-0.5"/>
<text text-anchor="middle" x="1066.39" y="-7.5" font-family="Helvetica,sans-Serif" font-size="10.00">src/Main2.cpp</text>
</a>
</g>
</g>
<!-- Node5&#45;&gt;Node21 -->
<g id="edge40" class="edge"><title>Node5&#45;&gt;Node21</title>
<path fill="none" stroke="midnightblue" d="M772.109,-214.772C785.737,-182.884 813.382,-119.624 821.39,-112 854.297,-80.6749 982.251,-37.5694 1039.01,-19.5047"/>
<polygon fill="midnightblue" stroke="midnightblue" points="768.768,-213.685 768.073,-224.257 775.209,-216.426 768.768,-213.685"/>
</g>
<!-- Node24 -->
<g id="node24" class="node"><title>Node24</title>
<g id="a_node24"><a xlink:href="PH_8cpp_source.html" target="_top" xlink:title="src/ph/PH.cpp">
<polygon fill="white" stroke="black" points="686.39,-56.5 686.39,-75.5 766.39,-75.5 766.39,-56.5 686.39,-56.5"/>
<text text-anchor="middle" x="726.39" y="-63.5" font-family="Helvetica,sans-Serif" font-size="10.00">src/ph/PH.cpp</text>
</a>
</g>
</g>
<!-- Node5&#45;&gt;Node24 -->
<g id="edge41" class="edge"><title>Node5&#45;&gt;Node24</title>
<path fill="none" stroke="midnightblue" d="M758.271,-214.873C755.642,-206.716 752.659,-196.933 750.39,-188 739.794,-146.278 731.042,-95.4797 727.77,-75.5781"/>
<polygon fill="midnightblue" stroke="midnightblue" points="754.974,-216.052 761.434,-224.45 761.621,-213.857 754.974,-216.052"/>
</g>
<!-- Node5&#45;&gt;Node28 -->
<g id="edge39" class="edge"><title>Node5&#45;&gt;Node28</title>
<path fill="none" stroke="midnightblue" d="M715.622,-228.621C632.841,-221.08 459.573,-204.823 313.39,-188 308.95,-187.489 304.352,-186.938 299.734,-186.368"/>
<polygon fill="midnightblue" stroke="midnightblue" points="715.462,-232.121 725.738,-229.541 716.096,-225.15 715.462,-232.121"/>
</g>
<!-- Node6&#45;&gt;Node3 -->
<g id="edge7" class="edge"><title>Node6&#45;&gt;Node3</title>
<path fill="none" stroke="midnightblue" d="M881.176,-197.518C883.033,-223.509 877.157,-270.88 851.39,-300 833.752,-319.934 805.959,-331.205 781.572,-337.482"/>
<polygon fill="midnightblue" stroke="midnightblue" points="884.636,-196.982 879.883,-187.513 877.694,-197.879 884.636,-196.982"/>
</g>
<!-- Node6&#45;&gt;Node5 -->
<g id="edge6" class="edge"><title>Node6&#45;&gt;Node5</title>
<path fill="none" stroke="midnightblue" d="M854.021,-192.268C834.742,-202.306 806.745,-215.794 787.067,-224.444"/>
<polygon fill="midnightblue" stroke="midnightblue" points="855.776,-195.3 862.964,-187.516 852.491,-189.118 855.776,-195.3"/>
</g>
<!-- Node7 -->
<g id="node7" class="node"><title>Node7</title>
<g id="a_node7"><a xlink:href="Action_8cpp_source.html" target="_top" xlink:title="src/ph/Action.cpp">
<polygon fill="white" stroke="black" points="830.89,-112.5 830.89,-131.5 923.89,-131.5 923.89,-112.5 830.89,-112.5"/>
<text text-anchor="middle" x="877.39" y="-119.5" font-family="Helvetica,sans-Serif" font-size="10.00">src/ph/Action.cpp</text>
</a>
</g>
</g>
<!-- Node6&#45;&gt;Node7 -->
<g id="edge8" class="edge"><title>Node6&#45;&gt;Node7</title>
<path fill="none" stroke="midnightblue" d="M876.101,-157.805C876.431,-148.91 876.806,-138.78 877.066,-131.751"/>
<polygon fill="midnightblue" stroke="midnightblue" points="872.593,-157.96 875.721,-168.083 879.588,-158.219 872.593,-157.96"/>
</g>
<!-- Node8&#45;&gt;Node2 -->
<g id="edge10" class="edge"><title>Node8&#45;&gt;Node2</title>
<path fill="none" stroke="midnightblue" d="M986.898,-197.391C974.327,-231.277 944.177,-304.787 902.39,-356 890.248,-370.882 872.449,-384.144 860.193,-392.349"/>
<polygon fill="midnightblue" stroke="midnightblue" points="990.235,-198.453 990.354,-187.859 983.654,-196.067 990.235,-198.453"/>
</g>
<!-- Node9 -->
<g id="node9" class="node"><title>Node9</title>
<g id="a_node9"><a xlink:href="GProcess_8cpp_source.html" target="_top" xlink:title="src/gfx/GProcess.cpp">
<polygon fill="white" stroke="black" points="941.39,-112.5 941.39,-131.5 1053.39,-131.5 1053.39,-112.5 941.39,-112.5"/>
<text text-anchor="middle" x="997.39" y="-119.5" font-family="Helvetica,sans-Serif" font-size="10.00">src/gfx/GProcess.cpp</text>
</a>
</g>
</g>
<!-- Node8&#45;&gt;Node9 -->
<g id="edge11" class="edge"><title>Node8&#45;&gt;Node9</title>
<path fill="none" stroke="midnightblue" d="M994.79,-158.101C995.454,-149.136 996.216,-138.858 996.742,-131.751"/>
<polygon fill="midnightblue" stroke="midnightblue" points="991.299,-157.852 994.051,-168.083 998.28,-158.369 991.299,-157.852"/>
</g>
<!-- Node11 -->
<g id="node11" class="node"><title>Node11</title>
<g id="a_node11"><a xlink:href="TreeArea_8h_source.html" target="_top" xlink:title="headers/TreeArea.h">
<polygon fill="white" stroke="black" points="578.39,-112.5 578.39,-131.5 680.39,-131.5 680.39,-112.5 578.39,-112.5"/>
<text text-anchor="middle" x="629.39" y="-119.5" font-family="Helvetica,sans-Serif" font-size="10.00">headers/TreeArea.h</text>
</a>
</g>
</g>
<!-- Node10&#45;&gt;Node11 -->
<g id="edge13" class="edge"><title>Node10&#45;&gt;Node11</title>
<path fill="none" stroke="midnightblue" d="M588.303,-161.253C598.593,-151.673 611.356,-139.791 619.902,-131.834"/>
<polygon fill="midnightblue" stroke="midnightblue" points="585.643,-158.948 580.709,-168.324 590.413,-164.071 585.643,-158.948"/>
</g>
<!-- Node18 -->
<g id="node18" class="node"><title>Node18</title>
<g id="a_node18"><a xlink:href="MainWindow_8h.html" target="_top" xlink:title="header for the Main class ">
<polygon fill="white" stroke="black" points="326.89,-112.5 326.89,-131.5 445.89,-131.5 445.89,-112.5 326.89,-112.5"/>
<text text-anchor="middle" x="386.39" y="-119.5" font-family="Helvetica,sans-Serif" font-size="10.00">headers/MainWindow.h</text>
</a>
</g>
</g>
<!-- Node10&#45;&gt;Node18 -->
<g id="edge20" class="edge"><title>Node10&#45;&gt;Node18</title>
<path fill="none" stroke="midnightblue" d="M532.224,-165.568C497.325,-155.381 447.041,-140.703 415.567,-131.516"/>
<polygon fill="midnightblue" stroke="midnightblue" points="531.496,-169.001 542.077,-168.444 533.458,-162.282 531.496,-169.001"/>
</g>
<!-- Node27 -->
<g id="node27" class="node"><title>Node27</title>
<g id="a_node27"><a xlink:href="MyArea_8cpp_source.html" target="_top" xlink:title="src/ui/MyArea.cpp">
<polygon fill="white" stroke="black" points="464.39,-112.5 464.39,-131.5 560.39,-131.5 560.39,-112.5 464.39,-112.5"/>
<text text-anchor="middle" x="512.39" y="-119.5" font-family="Helvetica,sans-Serif" font-size="10.00">src/ui/MyArea.cpp</text>
</a>
</g>
</g>
<!-- Node10&#45;&gt;Node27 -->
<g id="edge37" class="edge"><title>Node10&#45;&gt;Node27</title>
<path fill="none" stroke="midnightblue" d="M554.496,-161.537C543.976,-151.909 530.822,-139.869 522.042,-131.834"/>
<polygon fill="midnightblue" stroke="midnightblue" points="552.171,-164.154 561.911,-168.324 556.897,-158.99 552.171,-164.154"/>
</g>
<!-- Node12 -->
<g id="node12" class="node"><title>Node12</title>
<g id="a_node12"><a xlink:href="Area_8h_source.html" target="_top" xlink:title="headers/Area.h">
<polygon fill="white" stroke="black" points="464.89,-56.5 464.89,-75.5 547.89,-75.5 547.89,-56.5 464.89,-56.5"/>
<text text-anchor="middle" x="506.39" y="-63.5" font-family="Helvetica,sans-Serif" font-size="10.00">headers/Area.h</text>
</a>
</g>
</g>
<!-- Node11&#45;&gt;Node12 -->
<g id="edge14" class="edge"><title>Node11&#45;&gt;Node12</title>
<path fill="none" stroke="midnightblue" d="M600.617,-108.368C577.583,-98.2553 545.907,-84.3486 525.789,-75.5164"/>
<polygon fill="midnightblue" stroke="midnightblue" points="599.337,-111.628 609.901,-112.444 602.151,-105.219 599.337,-111.628"/>
</g>
<!-- Node17 -->
<g id="node17" class="node"><title>Node17</title>
<g id="a_node17"><a xlink:href="TreeArea_8cpp_source.html" target="_top" xlink:title="src/ui/TreeArea.cpp">
<polygon fill="white" stroke="black" points="566.39,-56.5 566.39,-75.5 668.39,-75.5 668.39,-56.5 566.39,-56.5"/>
<text text-anchor="middle" x="617.39" y="-63.5" font-family="Helvetica,sans-Serif" font-size="10.00">src/ui/TreeArea.cpp</text>
</a>
</g>
</g>
<!-- Node11&#45;&gt;Node17 -->
<g id="edge19" class="edge"><title>Node11&#45;&gt;Node17</title>
<path fill="none" stroke="midnightblue" d="M625.191,-102.101C623.198,-93.1357 620.914,-82.8579 619.335,-75.7511"/>
<polygon fill="midnightblue" stroke="midnightblue" points="621.823,-103.08 627.409,-112.083 628.656,-101.562 621.823,-103.08"/>
</g>
<!-- Node13 -->
<g id="node13" class="node"><title>Node13</title>
<g id="a_node13"><a xlink:href="PHIO_8cpp_source.html" target="_top" xlink:title="src/io/PHIO.cpp">
<polygon fill="white" stroke="black" points="667.89,-0.5 667.89,-19.5 754.89,-19.5 754.89,-0.5 667.89,-0.5"/>
<text text-anchor="middle" x="711.39" y="-7.5" font-family="Helvetica,sans-Serif" font-size="10.00">src/io/PHIO.cpp</text>
</a>
</g>
</g>
<!-- Node12&#45;&gt;Node13 -->
<g id="edge15" class="edge"><title>Node12&#45;&gt;Node13</title>
<path fill="none" stroke="midnightblue" d="M548.799,-53.8291C587.505,-43.6333 643.884,-28.7823 679.06,-19.5164"/>
<polygon fill="midnightblue" stroke="midnightblue" points="547.652,-50.5117 538.873,-56.4435 549.435,-57.2808 547.652,-50.5117"/>
</g>
<!-- Node14 -->
<g id="node14" class="node"><title>Node14</title>
<g id="a_node14"><a xlink:href="Area_8cpp_source.html" target="_top" xlink:title="src/ui/Area.cpp">
<polygon fill="white" stroke="black" points="566.89,-0.5 566.89,-19.5 649.89,-19.5 649.89,-0.5 566.89,-0.5"/>
<text text-anchor="middle" x="608.39" y="-7.5" font-family="Helvetica,sans-Serif" font-size="10.00">src/ui/Area.cpp</text>
</a>
</g>
</g>
<!-- Node12&#45;&gt;Node14 -->
<g id="edge16" class="edge"><title>Node12&#45;&gt;Node14</title>
<path fill="none" stroke="midnightblue" d="M531.721,-51.5895C550.581,-41.6052 575.775,-28.2672 592.043,-19.6545"/>
<polygon fill="midnightblue" stroke="midnightblue" points="529.979,-48.5518 522.778,-56.324 533.254,-54.7383 529.979,-48.5518"/>
</g>
<!-- Node15 -->
<g id="node15" class="node"><title>Node15</title>
<g id="a_node15"><a xlink:href="MainWindow_8cpp_source.html" target="_top" xlink:title="src/ui/MainWindow.cpp">
<polygon fill="white" stroke="black" points="338.89,-0.5 338.89,-19.5 457.89,-19.5 457.89,-0.5 338.89,-0.5"/>
<text text-anchor="middle" x="398.39" y="-7.5" font-family="Helvetica,sans-Serif" font-size="10.00">src/ui/MainWindow.cpp</text>
</a>
</g>
</g>
<!-- Node12&#45;&gt;Node15 -->
<g id="edge17" class="edge"><title>Node12&#45;&gt;Node15</title>
<path fill="none" stroke="midnightblue" d="M479.843,-51.7261C459.845,-41.7271 433.003,-28.3065 415.699,-19.6545"/>
<polygon fill="midnightblue" stroke="midnightblue" points="478.529,-54.9823 489.038,-56.324 481.659,-48.7213 478.529,-54.9823"/>
</g>
<!-- Node12&#45;&gt;Node16 -->
<g id="edge18" class="edge"><title>Node12&#45;&gt;Node16</title>
<path fill="none" stroke="midnightblue" d="M454.585,-58.8108C368.228,-48.4938 195.705,-27.8827 108.1,-17.4166"/>
<polygon fill="midnightblue" stroke="midnightblue" points="454.333,-62.3055 464.678,-60.0166 455.163,-55.355 454.333,-62.3055"/>
</g>
<!-- Node18&#45;&gt;Node12 -->
<g id="edge21" class="edge"><title>Node18&#45;&gt;Node12</title>
<path fill="none" stroke="midnightblue" d="M414.764,-108.232C437.21,-98.1312 467.926,-84.3091 487.465,-75.5164"/>
<polygon fill="midnightblue" stroke="midnightblue" points="413.088,-105.148 405.405,-112.444 415.96,-111.532 413.088,-105.148"/>
</g>
<!-- Node18&#45;&gt;Node15 -->
<g id="edge35" class="edge"><title>Node18&#45;&gt;Node15</title>
<path fill="none" stroke="midnightblue" d="M388.425,-102.348C391.054,-78.2538 395.52,-37.3079 397.453,-19.5914"/>
<polygon fill="midnightblue" stroke="midnightblue" points="384.937,-102.048 387.332,-112.368 391.896,-102.807 384.937,-102.048"/>
</g>
<!-- Node18&#45;&gt;Node16 -->
<g id="edge36" class="edge"><title>Node18&#45;&gt;Node16</title>
<path fill="none" stroke="midnightblue" d="M316.743,-119.555C235.783,-116.443 108.734,-106.662 73.3904,-76 56.8724,-61.6696 54.3271,-33.85 54.1702,-19.7076"/>
<polygon fill="midnightblue" stroke="midnightblue" points="316.747,-123.058 326.867,-119.919 316.999,-116.062 316.747,-123.058"/>
</g>
<!-- Node18&#45;&gt;Node19 -->
<g id="edge22" class="edge"><title>Node18&#45;&gt;Node19</title>
<path fill="none" stroke="midnightblue" d="M456.241,-111.921C599.145,-94.789 636.857,-95.5391 775.39,-76 778.44,-75.5699 781.584,-75.1011 784.748,-74.6107"/>
<polygon fill="midnightblue" stroke="midnightblue" points="455.73,-108.457 446.221,-113.13 456.569,-115.406 455.73,-108.457"/>
</g>
<!-- Node20 -->
<g id="node20" class="node"><title>Node20</title>
<g id="a_node20"><a xlink:href="Main_8cpp.html" target="_top" xlink:title="Principal Program. ">
<polygon fill="white" stroke="black" points="475.89,-0.5 475.89,-19.5 548.89,-19.5 548.89,-0.5 475.89,-0.5"/>
<text text-anchor="middle" x="512.39" y="-7.5" font-family="Helvetica,sans-Serif" font-size="10.00">src/Main.cpp</text>
</a>
</g>
</g>
<!-- Node18&#45;&gt;Node20 -->
<g id="edge31" class="edge"><title>Node18&#45;&gt;Node20</title>
<path fill="none" stroke="midnightblue" d="M402.342,-105.217C416.095,-91.7935 436.642,-72.1776 455.39,-56 470.663,-42.8213 489.111,-28.5378 500.799,-19.6785"/>
<polygon fill="midnightblue" stroke="midnightblue" points="399.778,-102.829 395.093,-112.332 404.682,-107.824 399.778,-102.829"/>
</g>
<!-- Node18&#45;&gt;Node24 -->
<g id="edge32" class="edge"><title>Node18&#45;&gt;Node24</title>
<path fill="none" stroke="midnightblue" d="M454.667,-110.998C513.695,-102.218 601.271,-88.8734 677.39,-76 680.29,-75.5096 683.284,-74.9907 686.295,-74.4596"/>
<polygon fill="midnightblue" stroke="midnightblue" points="454.094,-107.545 444.717,-112.475 455.122,-114.469 454.094,-107.545"/>
</g>
<!-- Node25 -->
<g id="node25" class="node"><title>Node25</title>
<g id="a_node25"><a xlink:href="ConnectionSettings_8cpp_source.html" target="_top" xlink:title="src/ui/ConnectionSettings.cpp">
<polygon fill="white" stroke="black" points="82.3904,-56.5 82.3904,-75.5 230.39,-75.5 230.39,-56.5 82.3904,-56.5"/>
<text text-anchor="middle" x="156.39" y="-63.5" font-family="Helvetica,sans-Serif" font-size="10.00">src/ui/ConnectionSettings.cpp</text>
</a>
</g>
</g>
<!-- Node18&#45;&gt;Node25 -->
<g id="edge33" class="edge"><title>Node18&#45;&gt;Node25</title>
<path fill="none" stroke="midnightblue" d="M340.19,-110.153C296.733,-99.95 232.55,-84.8809 192.664,-75.5164"/>
<polygon fill="midnightblue" stroke="midnightblue" points="339.411,-113.565 349.946,-112.444 341.011,-106.75 339.411,-113.565"/>
</g>
<!-- Node26 -->
<g id="node26" class="node"><title>Node26</title>
<g id="a_node26"><a xlink:href="FunctionForm_8cpp_source.html" target="_top" xlink:title="src/ui/FunctionForm.cpp">
<polygon fill="white" stroke="black" points="248.39,-56.5 248.39,-75.5 370.39,-75.5 370.39,-56.5 248.39,-56.5"/>
<text text-anchor="middle" x="309.39" y="-63.5" font-family="Helvetica,sans-Serif" font-size="10.00">src/ui/FunctionForm.cpp</text>
</a>
</g>
</g>
<!-- Node18&#45;&gt;Node26 -->
<g id="edge34" class="edge"><title>Node18&#45;&gt;Node26</title>
<path fill="none" stroke="midnightblue" d="M365.489,-106.342C351.479,-96.5169 333.507,-83.9132 321.731,-75.6545"/>
<polygon fill="midnightblue" stroke="midnightblue" points="363.822,-109.448 374.019,-112.324 367.841,-103.717 363.822,-109.448"/>
</g>
<!-- Node19&#45;&gt;Node13 -->
<g id="edge23" class="edge"><title>Node19&#45;&gt;Node13</title>
<path fill="none" stroke="midnightblue" d="M800.727,-52.2321C778.841,-42.1312 748.894,-28.3091 729.843,-19.5164"/>
<polygon fill="midnightblue" stroke="midnightblue" points="799.305,-55.4308 809.851,-56.4435 802.239,-49.075 799.305,-55.4308"/>
</g>
<!-- Node19&#45;&gt;Node14 -->
<g id="edge27" class="edge"><title>Node19&#45;&gt;Node14</title>
<path fill="none" stroke="midnightblue" d="M783.672,-54.0237C742.114,-43.8232 681.078,-28.8414 643.087,-19.5164"/>
<polygon fill="midnightblue" stroke="midnightblue" points="782.985,-57.4588 793.531,-56.4435 784.653,-50.6606 782.985,-57.4588"/>
</g>
<!-- Node19&#45;&gt;Node15 -->
<g id="edge28" class="edge"><title>Node19&#45;&gt;Node15</title>
<path fill="none" stroke="midnightblue" d="M774.645,-55.9628C636.828,-36.4406 600.379,-36.671 466.39,-20 463.672,-19.6618 460.894,-19.3118 458.088,-18.9547"/>
<polygon fill="midnightblue" stroke="midnightblue" points="774.352,-59.4563 784.746,-57.403 775.34,-52.5264 774.352,-59.4563"/>
</g>
<!-- Node19&#45;&gt;Node16 -->
<g id="edge30" class="edge"><title>Node19&#45;&gt;Node16</title>
<path fill="none" stroke="midnightblue" d="M774.548,-56.0399C518.99,-26.9271 226.234,-15.9218 107.928,-12.4031"/>
<polygon fill="midnightblue" stroke="midnightblue" points="774.435,-59.55 784.77,-57.2165 775.236,-52.5959 774.435,-59.55"/>
</g>
<!-- Node19&#45;&gt;Node20 -->
<g id="edge24" class="edge"><title>Node19&#45;&gt;Node20</title>
<path fill="none" stroke="midnightblue" d="M774.704,-55.8961C676.881,-39.6253 650.882,-37.0637 557.39,-20 554.726,-19.5136 551.975,-18.9977 549.208,-18.4686"/>
<polygon fill="midnightblue" stroke="midnightblue" points="774.28,-59.3738 784.72,-57.5682 775.433,-52.4693 774.28,-59.3738"/>
</g>
<!-- Node19&#45;&gt;Node21 -->
<g id="edge25" class="edge"><title>Node19&#45;&gt;Node21</title>
<path fill="none" stroke="midnightblue" d="M875.914,-54.2172C920.887,-44.0134 987.495,-28.9006 1028.86,-19.5164"/>
<polygon fill="midnightblue" stroke="midnightblue" points="875.08,-50.8175 866.102,-56.4435 876.629,-57.644 875.08,-50.8175"/>
</g>
<!-- Node22 -->
<g id="node22" class="node"><title>Node22</title>
<g id="a_node22"><a xlink:href="PHIOTest_8cpp_source.html" target="_top" xlink:title="src/test/PHIOTest.cpp">
<polygon fill="white" stroke="black" points="893.39,-0.5 893.39,-19.5 1009.39,-19.5 1009.39,-0.5 893.39,-0.5"/>
<text text-anchor="middle" x="951.39" y="-7.5" font-family="Helvetica,sans-Serif" font-size="10.00">src/test/PHIOTest.cpp</text>
</a>
</g>
</g>
<!-- Node19&#45;&gt;Node22 -->
<g id="edge26" class="edge"><title>Node19&#45;&gt;Node22</title>
<path fill="none" stroke="midnightblue" d="M857.164,-52.3678C880.198,-42.2553 911.874,-28.3486 931.992,-19.5164"/>
<polygon fill="midnightblue" stroke="midnightblue" points="855.63,-49.2188 847.88,-56.4435 858.444,-55.6283 855.63,-49.2188"/>
</g>
<!-- Node23 -->
<g id="node23" class="node"><title>Node23</title>
<g id="a_node23"><a xlink:href="TextArea_8cpp_source.html" target="_top" xlink:title="src/ui/TextArea.cpp">
<polygon fill="white" stroke="black" points="773.39,-0.5 773.39,-19.5 875.39,-19.5 875.39,-0.5 773.39,-0.5"/>
<text text-anchor="middle" x="824.39" y="-7.5" font-family="Helvetica,sans-Serif" font-size="10.00">src/ui/TextArea.cpp</text>
</a>
</g>
</g>
<!-- Node19&#45;&gt;Node23 -->
<g id="edge29" class="edge"><title>Node19&#45;&gt;Node23</title>
<path fill="none" stroke="midnightblue" d="M826.99,-46.1005C826.326,-37.1357 825.565,-26.8579 825.039,-19.7511"/>
<polygon fill="midnightblue" stroke="midnightblue" points="823.501,-46.3689 827.73,-56.083 830.482,-45.8517 823.501,-46.3689"/>
</g>
<!-- Node29&#45;&gt;Node16 -->
<g id="edge49" class="edge"><title>Node29&#45;&gt;Node16</title>
<path fill="none" stroke="midnightblue" d="M91.5947,-163.29C63.6435,-146.8 20.6034,-116.236 2.39041,-76 -7.97905,-53.092 19.7702,-31.2962 38.6109,-19.6836"/>
<polygon fill="midnightblue" stroke="midnightblue" points="90.0176,-166.42 100.438,-168.337 93.4872,-160.341 90.0176,-166.42"/>
</g>
<!-- Node29&#45;&gt;Node18 -->
<g id="edge48" class="edge"><title>Node29&#45;&gt;Node18</title>
<path fill="none" stroke="midnightblue" d="M169.828,-166.473C220.667,-156.268 296.826,-140.979 343.966,-131.516"/>
<polygon fill="midnightblue" stroke="midnightblue" points="169.13,-163.044 160.014,-168.444 170.508,-169.907 169.13,-163.044"/>
</g>
<!-- Node32&#45;&gt;Node1 -->
<g id="edge53" class="edge"><title>Node32&#45;&gt;Node1</title>
<path fill="none" stroke="midnightblue" d="M1042.85,-421.691C1043.5,-430.635 1043.07,-440.927 1041.56,-448.083"/>
<polygon fill="midnightblue" stroke="midnightblue" points="1046.31,-421.2 1041.52,-411.751 1039.38,-422.126 1046.31,-421.2"/>
</g>
<!-- Node32&#45;&gt;Node8 -->
<g id="edge54" class="edge"><title>Node32&#45;&gt;Node8</title>
<path fill="none" stroke="midnightblue" d="M1027.03,-383.162C1023.17,-375.072 1018.99,-365.26 1016.39,-356 998.716,-293.05 994.552,-213.627 993.634,-187.649"/>
<polygon fill="midnightblue" stroke="midnightblue" points="1024.01,-384.946 1031.62,-392.318 1030.27,-381.809 1024.01,-384.946"/>
</g>
<!-- Node33 -->
<g id="node33" class="node"><title>Node33</title>
<g id="a_node33"><a xlink:href="Process_8cpp_source.html" target="_top" xlink:title="src/ph/Process.cpp">
<polygon fill="white" stroke="black" points="1025.89,-336.5 1025.89,-355.5 1126.89,-355.5 1126.89,-336.5 1025.89,-336.5"/>
<text text-anchor="middle" x="1076.39" y="-343.5" font-family="Helvetica,sans-Serif" font-size="10.00">src/ph/Process.cpp</text>
</a>
</g>
</g>
<!-- Node32&#45;&gt;Node33 -->
<g id="edge55" class="edge"><title>Node32&#45;&gt;Node33</title>
<path fill="none" stroke="midnightblue" d="M1049.09,-383.855C1056.02,-374.505 1064.3,-363.327 1069.91,-355.751"/>
<polygon fill="midnightblue" stroke="midnightblue" points="1046.14,-381.964 1043,-392.083 1051.76,-386.131 1046.14,-381.964"/>
</g>
</g>
</svg>
