<?xml version="1.0" encoding="UTF-8" standalone="no"?>
<!DOCTYPE svg PUBLIC "-//W3C//DTD SVG 1.1//EN"
 "http://www.w3.org/Graphics/SVG/1.1/DTD/svg11.dtd">
<!-- Generated by graphviz version 2.38.0 (20140413.2041)
 -->
<!-- Title: exception_base Pages: 1 -->
<svg width="540pt" height="332pt"
 viewBox="0.00 0.00 540.00 332.00" xmlns="http://www.w3.org/2000/svg" xmlns:xlink="http://www.w3.org/1999/xlink">
<g id="graph0" class="graph" transform="scale(1 1) rotate(0) translate(4 328)">
<title>exception_base</title>
<polygon fill="white" stroke="none" points="-4,4 -4,-328 536,-328 536,4 -4,4"/>
<!-- Node1 -->
<g id="node1" class="node"><title>Node1</title>
<polygon fill="#bfbfbf" stroke="black" points="125,-114.5 125,-133.5 210,-133.5 210,-114.5 125,-114.5"/>
<text text-anchor="middle" x="167.5" y="-121.5" font-family="Helvetica,sans-Serif" font-size="10.00">exception_base</text>
</g>
<!-- Node4 -->
<g id="node4" class="node"><title>Node4</title>
<g id="a_node4"><a xlink:href="structgv__error.html" target="_top" xlink:title="struct defining the exception called when an error occurs in GraphViz extends exception_base ...">
<polygon fill="white" stroke="black" points="280.5,-285.5 280.5,-304.5 332.5,-304.5 332.5,-285.5 280.5,-285.5"/>
<text text-anchor="middle" x="306.5" y="-292.5" font-family="Helvetica,sans-Serif" font-size="10.00">gv_error</text>
</a>
</g>
</g>
<!-- Node1&#45;&gt;Node4 -->
<g id="edge3" class="edge"><title>Node1&#45;&gt;Node4</title>
<path fill="none" stroke="midnightblue" d="M179.379,-142.463C193.46,-165.734 219.363,-206.5 246,-238 261.149,-255.914 281.307,-274.268 293.839,-285.147"/>
<polygon fill="midnightblue" stroke="midnightblue" points="182.238,-140.423 174.101,-133.638 176.231,-144.017 182.238,-140.423"/>
</g>
<!-- Node6 -->
<g id="node6" class="node"><title>Node6</title>
<g id="a_node6"><a xlink:href="structio__error.html" target="_top" xlink:title="struct defining the base of the IO errors ">
<polygon fill="white" stroke="black" points="282,-209.5 282,-228.5 331,-228.5 331,-209.5 282,-209.5"/>
<text text-anchor="middle" x="306.5" y="-216.5" font-family="Helvetica,sans-Serif" font-size="10.00">io_error</text>
</a>
</g>
</g>
<!-- Node1&#45;&gt;Node6 -->
<g id="edge5" class="edge"><title>Node1&#45;&gt;Node6</title>
<path fill="none" stroke="midnightblue" d="M190.896,-139.53C219.421,-159.31 267.854,-192.895 291.573,-209.343"/>
<polygon fill="midnightblue" stroke="midnightblue" points="192.602,-136.454 182.39,-133.632 188.613,-142.206 192.602,-136.454"/>
</g>
<!-- Node10 -->
<g id="node10" class="node"><title>Node10</title>
<g id="a_node10"><a xlink:href="structph__error.html" target="_top" xlink:title="struct defining the exception called when there is an error in the PH file extends exception_base ...">
<polygon fill="white" stroke="black" points="280.5,-114.5 280.5,-133.5 332.5,-133.5 332.5,-114.5 280.5,-114.5"/>
<text text-anchor="middle" x="306.5" y="-121.5" font-family="Helvetica,sans-Serif" font-size="10.00">ph_error</text>
</a>
</g>
</g>
<!-- Node1&#45;&gt;Node10 -->
<g id="edge9" class="edge"><title>Node1&#45;&gt;Node10</title>
<path fill="none" stroke="midnightblue" d="M220.498,-124C240.951,-124 263.49,-124 280.217,-124"/>
<polygon fill="midnightblue" stroke="midnightblue" points="220.349,-120.5 210.349,-124 220.349,-127.5 220.349,-120.5"/>
</g>
<!-- Node14 -->
<g id="node14" class="node"><title>Node14</title>
<g id="a_node14"><a xlink:href="structph__parse__error.html" target="_top" xlink:title="struct defining the exception called when the PH file cannot be parsed extends exception_base ...">
<polygon fill="white" stroke="black" points="266,-57.5 266,-76.5 347,-76.5 347,-57.5 266,-57.5"/>
<text text-anchor="middle" x="306.5" y="-64.5" font-family="Helvetica,sans-Serif" font-size="10.00">ph_parse_error</text>
</a>
</g>
</g>
<!-- Node1&#45;&gt;Node14 -->
<g id="edge13" class="edge"><title>Node1&#45;&gt;Node14</title>
<path fill="none" stroke="midnightblue" d="M200.898,-110.521C225.994,-100.079 260.142,-85.8715 282.494,-76.5716"/>
<polygon fill="midnightblue" stroke="midnightblue" points="199.319,-107.387 191.431,-114.459 202.008,-113.85 199.319,-107.387"/>
</g>
<!-- Node17 -->
<g id="node17" class="node"><title>Node17</title>
<g id="a_node17"><a xlink:href="structpint__program__not__found.html" target="_top" xlink:title="struct defining the exception called when Pint is not found$ extends exception_base ...">
<polygon fill="white" stroke="black" points="246,-19.5 246,-38.5 367,-38.5 367,-19.5 246,-19.5"/>
<text text-anchor="middle" x="306.5" y="-26.5" font-family="Helvetica,sans-Serif" font-size="10.00">pint_program_not_found</text>
</a>
</g>
</g>
<!-- Node1&#45;&gt;Node17 -->
<g id="edge16" class="edge"><title>Node1&#45;&gt;Node17</title>
<path fill="none" stroke="midnightblue" d="M182.33,-106.274C196.584,-89.1157 220.298,-63.4893 246,-48 252.316,-44.194 259.474,-41.0693 266.582,-38.5326"/>
<polygon fill="midnightblue" stroke="midnightblue" points="179.344,-104.4 175.777,-114.377 184.787,-108.802 179.344,-104.4"/>
</g>
<!-- Node2 -->
<g id="node2" class="node"><title>Node2</title>
<polygon fill="white" stroke="#bfbfbf" points="5.5,-133.5 5.5,-152.5 83.5,-152.5 83.5,-133.5 5.5,-133.5"/>
<text text-anchor="middle" x="44.5" y="-140.5" font-family="Helvetica,sans-Serif" font-size="10.00">std::exception</text>
</g>
<!-- Node2&#45;&gt;Node1 -->
<g id="edge1" class="edge"><title>Node2&#45;&gt;Node1</title>
<path fill="none" stroke="midnightblue" d="M93.8006,-135.416C104.023,-133.81 114.731,-132.129 124.689,-130.565"/>
<polygon fill="midnightblue" stroke="midnightblue" points="93.1211,-131.979 83.7852,-136.988 94.2071,-138.895 93.1211,-131.979"/>
</g>
<!-- Node3 -->
<g id="node3" class="node"><title>Node3</title>
<polygon fill="white" stroke="#bfbfbf" points="0,-95.5 0,-114.5 89,-114.5 89,-95.5 0,-95.5"/>
<text text-anchor="middle" x="44.5" y="-102.5" font-family="Helvetica,sans-Serif" font-size="10.00">boost::exception</text>
</g>
<!-- Node3&#45;&gt;Node1 -->
<g id="edge2" class="edge"><title>Node3&#45;&gt;Node1</title>
<path fill="none" stroke="midnightblue" d="M99.1792,-113.429C107.804,-114.783 116.615,-116.167 124.901,-117.468"/>
<polygon fill="midnightblue" stroke="midnightblue" points="99.6057,-109.953 89.1838,-111.859 98.5198,-116.868 99.6057,-109.953"/>
</g>
<!-- Node5 -->
<g id="node5" class="node"><title>Node5</title>
<g id="a_node5"><a xlink:href="structsubgraph__not__found.html" target="_top" xlink:title="struct defining the exception called when the subgraph is not found extends gv_error ...">
<polygon fill="white" stroke="black" points="415.5,-304.5 415.5,-323.5 519.5,-323.5 519.5,-304.5 415.5,-304.5"/>
<text text-anchor="middle" x="467.5" y="-311.5" font-family="Helvetica,sans-Serif" font-size="10.00">subgraph_not_found</text>
</a>
</g>
</g>
<!-- Node4&#45;&gt;Node5 -->
<g id="edge4" class="edge"><title>Node4&#45;&gt;Node5</title>
<path fill="none" stroke="midnightblue" d="M342.635,-299.199C364.006,-301.752 391.668,-305.058 415.428,-307.897"/>
<polygon fill="midnightblue" stroke="midnightblue" points="343.039,-295.722 332.694,-298.011 342.208,-302.672 343.039,-295.722"/>
</g>
<!-- Node7 -->
<g id="node7" class="node"><title>Node7</title>
<g id="a_node7"><a xlink:href="structfile__not__exist.html" target="_top" xlink:title="struct defining the exception called when the file does not exist extends io_error ...">
<polygon fill="white" stroke="black" points="430.5,-266.5 430.5,-285.5 504.5,-285.5 504.5,-266.5 430.5,-266.5"/>
<text text-anchor="middle" x="467.5" y="-273.5" font-family="Helvetica,sans-Serif" font-size="10.00">file_not_exist</text>
</a>
</g>
</g>
<!-- Node6&#45;&gt;Node7 -->
<g id="edge6" class="edge"><title>Node6&#45;&gt;Node7</title>
<path fill="none" stroke="midnightblue" d="M339.44,-232.525C357.87,-240.123 381.571,-249.547 403,-257 412.564,-260.327 423.057,-263.611 432.709,-266.49"/>
<polygon fill="midnightblue" stroke="midnightblue" points="340.635,-229.232 330.058,-228.627 337.95,-235.696 340.635,-229.232"/>
</g>
<!-- Node8 -->
<g id="node8" class="node"><title>Node8</title>
<g id="a_node8"><a xlink:href="structnot__regular__file.html" target="_top" xlink:title="struct defining the exception called when the format of the file is not the one expected extends io_e...">
<polygon fill="white" stroke="black" points="426,-228.5 426,-247.5 509,-247.5 509,-228.5 426,-228.5"/>
<text text-anchor="middle" x="467.5" y="-235.5" font-family="Helvetica,sans-Serif" font-size="10.00">not_regular_file</text>
</a>
</g>
</g>
<!-- Node6&#45;&gt;Node8 -->
<g id="edge7" class="edge"><title>Node6&#45;&gt;Node8</title>
<path fill="none" stroke="midnightblue" d="M341.302,-223.039C366.016,-225.993 399.653,-230.012 425.837,-233.141"/>
<polygon fill="midnightblue" stroke="midnightblue" points="341.649,-219.556 331.304,-221.844 340.818,-226.506 341.649,-219.556"/>
</g>
<!-- Node9 -->
<g id="node9" class="node"><title>Node9</title>
<g id="a_node9"><a xlink:href="structwrong__import__file.html" target="_top" xlink:title="wrong_import_file">
<polygon fill="white" stroke="black" points="421,-190.5 421,-209.5 514,-209.5 514,-190.5 421,-190.5"/>
<text text-anchor="middle" x="467.5" y="-197.5" font-family="Helvetica,sans-Serif" font-size="10.00">wrong_import_file</text>
</a>
</g>
</g>
<!-- Node6&#45;&gt;Node9 -->
<g id="edge8" class="edge"><title>Node6&#45;&gt;Node9</title>
<path fill="none" stroke="midnightblue" d="M341.339,-214.956C364.48,-212.191 395.431,-208.493 420.764,-205.465"/>
<polygon fill="midnightblue" stroke="midnightblue" points="340.818,-211.494 331.304,-216.156 341.649,-218.444 340.818,-211.494"/>
</g>
<!-- Node11 -->
<g id="node11" class="node"><title>Node11</title>
<g id="a_node11"><a xlink:href="structprocess__not__found.html" target="_top" xlink:title="struct defining the exception called when the process called is not found extends ph_error ...">
<polygon fill="white" stroke="black" points="418,-152.5 418,-171.5 517,-171.5 517,-152.5 418,-152.5"/>
<text text-anchor="middle" x="467.5" y="-159.5" font-family="Helvetica,sans-Serif" font-size="10.00">process_not_found</text>
</a>
</g>
</g>
<!-- Node10&#45;&gt;Node11 -->
<g id="edge10" class="edge"><title>Node10&#45;&gt;Node11</title>
<path fill="none" stroke="midnightblue" d="M342.428,-132.348C367.26,-138.282 400.665,-146.266 426.557,-152.454"/>
<polygon fill="midnightblue" stroke="midnightblue" points="343.234,-128.942 332.694,-130.021 341.607,-135.75 343.234,-128.942"/>
</g>
<!-- Node12 -->
<g id="node12" class="node"><title>Node12</title>
<g id="a_node12"><a xlink:href="structprocess__required.html" target="_top" xlink:title="struct defining the exception called when the process is not specified extends ph_error ...">
<polygon fill="white" stroke="black" points="422,-114.5 422,-133.5 513,-133.5 513,-114.5 422,-114.5"/>
<text text-anchor="middle" x="467.5" y="-121.5" font-family="Helvetica,sans-Serif" font-size="10.00">process_required</text>
</a>
</g>
</g>
<!-- Node10&#45;&gt;Node12 -->
<g id="edge11" class="edge"><title>Node10&#45;&gt;Node12</title>
<path fill="none" stroke="midnightblue" d="M342.836,-124C366.148,-124 396.882,-124 421.878,-124"/>
<polygon fill="midnightblue" stroke="midnightblue" points="342.694,-120.5 332.694,-124 342.694,-127.5 342.694,-120.5"/>
</g>
<!-- Node13 -->
<g id="node13" class="node"><title>Node13</title>
<g id="a_node13"><a xlink:href="structsort__not__found.html" target="_top" xlink:title="struct defining the exception called when the sort called are not found extends ph_error ...">
<polygon fill="white" stroke="black" points="427,-76.5 427,-95.5 508,-95.5 508,-76.5 427,-76.5"/>
<text text-anchor="middle" x="467.5" y="-83.5" font-family="Helvetica,sans-Serif" font-size="10.00">sort_not_found</text>
</a>
</g>
</g>
<!-- Node10&#45;&gt;Node13 -->
<g id="edge12" class="edge"><title>Node10&#45;&gt;Node13</title>
<path fill="none" stroke="midnightblue" d="M342.464,-115.644C367.391,-109.687 400.941,-101.668 426.864,-95.4728"/>
<polygon fill="midnightblue" stroke="midnightblue" points="341.607,-112.25 332.694,-117.979 343.234,-119.058 341.607,-112.25"/>
</g>
<!-- Node15 -->
<g id="node15" class="node"><title>Node15</title>
<g id="a_node15"><a xlink:href="structpint__phc__crash.html" target="_top" xlink:title="struct defining the exception called when Pint cannot be called extends ph_parse_error ...">
<polygon fill="white" stroke="black" points="426,-38.5 426,-57.5 509,-57.5 509,-38.5 426,-38.5"/>
<text text-anchor="middle" x="467.5" y="-45.5" font-family="Helvetica,sans-Serif" font-size="10.00">pint_phc_crash</text>
</a>
</g>
</g>
<!-- Node14&#45;&gt;Node15 -->
<g id="edge14" class="edge"><title>Node14&#45;&gt;Node15</title>
<path fill="none" stroke="midnightblue" d="M357.392,-61.0381C379.448,-58.4024 405.052,-55.3428 425.912,-52.8501"/>
<polygon fill="midnightblue" stroke="midnightblue" points="356.726,-57.5926 347.212,-62.2545 357.557,-64.5432 356.726,-57.5926"/>
</g>
<!-- Node16 -->
<g id="node16" class="node"><title>Node16</title>
<g id="a_node16"><a xlink:href="structtextAreaEmpty__exception.html" target="_top" xlink:title="struct defining the exception called when the user update from an empty textArea extends ph_parse_err...">
<polygon fill="white" stroke="black" points="403,-0.5 403,-19.5 532,-19.5 532,-0.5 403,-0.5"/>
<text text-anchor="middle" x="467.5" y="-7.5" font-family="Helvetica,sans-Serif" font-size="10.00">textAreaEmpty_exception</text>
</a>
</g>
</g>
<!-- Node14&#45;&gt;Node16 -->
<g id="edge15" class="edge"><title>Node14&#45;&gt;Node16</title>
<path fill="none" stroke="midnightblue" d="M350.767,-54.1764C356.285,-52.2517 361.813,-50.1769 367,-48 383.682,-40.9988 386.254,-35.8477 403,-29 411.627,-25.472 421.152,-22.2745 430.143,-19.5514"/>
<polygon fill="midnightblue" stroke="midnightblue" points="349.296,-50.9778 340.922,-57.4684 351.516,-57.6165 349.296,-50.9778"/>
</g>
</g>
</svg>
