<?xml version="1.0" encoding="UTF-8" standalone="no"?>
<!DOCTYPE svg PUBLIC "-//W3C//DTD SVG 1.1//EN"
 "http://www.w3.org/Graphics/SVG/1.1/DTD/svg11.dtd">
<!-- Generated by graphviz version 2.38.0 (20140413.2041)
 -->
<!-- Title: io_error Pages: 1 -->
<svg width="295pt" height="196pt"
 viewBox="0.00 0.00 294.50 196.00" xmlns="http://www.w3.org/2000/svg" xmlns:xlink="http://www.w3.org/1999/xlink">
<g id="graph0" class="graph" transform="scale(1 1) rotate(0) translate(4 192)">
<title>io_error</title>
<polygon fill="white" stroke="none" points="-4,4 -4,-192 290.5,-192 290.5,4 -4,4"/>
<!-- Node1 -->
<g id="node1" class="node"><title>Node1</title>
<polygon fill="#bfbfbf" stroke="black" points="109.5,-56.5 109.5,-75.5 158.5,-75.5 158.5,-56.5 109.5,-56.5"/>
<text text-anchor="middle" x="134" y="-63.5" font-family="Helvetica,sans-Serif" font-size="10.00">io_error</text>
</g>
<!-- Node5 -->
<g id="node5" class="node"><title>Node5</title>
<g id="a_node5"><a xlink:href="structfile__not__exist.html" target="_top" xlink:title="struct defining the exception called when the file does not exist extends io_error ...">
<polygon fill="white" stroke="black" points="0,-0.5 0,-19.5 74,-19.5 74,-0.5 0,-0.5"/>
<text text-anchor="middle" x="37" y="-7.5" font-family="Helvetica,sans-Serif" font-size="10.00">file_not_exist</text>
</a>
</g>
</g>
<!-- Node1&#45;&gt;Node5 -->
<g id="edge4" class="edge"><title>Node1&#45;&gt;Node5</title>
<path fill="none" stroke="midnightblue" d="M109.665,-51.4526C91.7574,-41.4835 67.9463,-28.2279 52.5461,-19.6545"/>
<polygon fill="midnightblue" stroke="midnightblue" points="107.975,-54.5179 118.415,-56.324 111.38,-48.4018 107.975,-54.5179"/>
</g>
<!-- Node6 -->
<g id="node6" class="node"><title>Node6</title>
<g id="a_node6"><a xlink:href="structnot__regular__file.html" target="_top" xlink:title="struct defining the exception called when the format of the file is not the one expected extends io_e...">
<polygon fill="white" stroke="black" points="92.5,-0.5 92.5,-19.5 175.5,-19.5 175.5,-0.5 92.5,-0.5"/>
<text text-anchor="middle" x="134" y="-7.5" font-family="Helvetica,sans-Serif" font-size="10.00">not_regular_file</text>
</a>
</g>
</g>
<!-- Node1&#45;&gt;Node6 -->
<g id="edge5" class="edge"><title>Node1&#45;&gt;Node6</title>
<path fill="none" stroke="midnightblue" d="M134,-45.8045C134,-36.9102 134,-26.7798 134,-19.7511"/>
<polygon fill="midnightblue" stroke="midnightblue" points="130.5,-46.083 134,-56.083 137.5,-46.083 130.5,-46.083"/>
</g>
<!-- Node7 -->
<g id="node7" class="node"><title>Node7</title>
<g id="a_node7"><a xlink:href="structwrong__import__file.html" target="_top" xlink:title="wrong_import_file">
<polygon fill="white" stroke="black" points="193.5,-0.5 193.5,-19.5 286.5,-19.5 286.5,-0.5 193.5,-0.5"/>
<text text-anchor="middle" x="240" y="-7.5" font-family="Helvetica,sans-Serif" font-size="10.00">wrong_import_file</text>
</a>
</g>
</g>
<!-- Node1&#45;&gt;Node7 -->
<g id="edge6" class="edge"><title>Node1&#45;&gt;Node7</title>
<path fill="none" stroke="midnightblue" d="M160.056,-51.7261C179.684,-41.7271 206.028,-28.3065 223.012,-19.6545"/>
<polygon fill="midnightblue" stroke="midnightblue" points="158.352,-48.666 151.031,-56.324 161.53,-54.9033 158.352,-48.666"/>
</g>
<!-- Node2 -->
<g id="node2" class="node"><title>Node2</title>
<g id="a_node2"><a xlink:href="structexception__base.html" target="_top" xlink:title="struct defining the base of the exception ">
<polygon fill="white" stroke="black" points="91.5,-112.5 91.5,-131.5 176.5,-131.5 176.5,-112.5 91.5,-112.5"/>
<text text-anchor="middle" x="134" y="-119.5" font-family="Helvetica,sans-Serif" font-size="10.00">exception_base</text>
</a>
</g>
</g>
<!-- Node2&#45;&gt;Node1 -->
<g id="edge1" class="edge"><title>Node2&#45;&gt;Node1</title>
<path fill="none" stroke="midnightblue" d="M134,-101.805C134,-92.9102 134,-82.7798 134,-75.7511"/>
<polygon fill="midnightblue" stroke="midnightblue" points="130.5,-102.083 134,-112.083 137.5,-102.083 130.5,-102.083"/>
</g>
<!-- Node3 -->
<g id="node3" class="node"><title>Node3</title>
<polygon fill="white" stroke="#bfbfbf" points="44,-168.5 44,-187.5 122,-187.5 122,-168.5 44,-168.5"/>
<text text-anchor="middle" x="83" y="-175.5" font-family="Helvetica,sans-Serif" font-size="10.00">std::exception</text>
</g>
<!-- Node3&#45;&gt;Node2 -->
<g id="edge2" class="edge"><title>Node3&#45;&gt;Node2</title>
<path fill="none" stroke="midnightblue" d="M98.3779,-160.718C107.367,-151.2 118.359,-139.561 125.735,-131.751"/>
<polygon fill="midnightblue" stroke="midnightblue" points="95.7433,-158.41 91.4216,-168.083 100.832,-163.216 95.7433,-158.41"/>
</g>
<!-- Node4 -->
<g id="node4" class="node"><title>Node4</title>
<polygon fill="white" stroke="#bfbfbf" points="140.5,-168.5 140.5,-187.5 229.5,-187.5 229.5,-168.5 140.5,-168.5"/>
<text text-anchor="middle" x="185" y="-175.5" font-family="Helvetica,sans-Serif" font-size="10.00">boost::exception</text>
</g>
<!-- Node4&#45;&gt;Node2 -->
<g id="edge3" class="edge"><title>Node4&#45;&gt;Node2</title>
<path fill="none" stroke="midnightblue" d="M169.622,-160.718C160.633,-151.2 149.641,-139.561 142.265,-131.751"/>
<polygon fill="midnightblue" stroke="midnightblue" points="167.168,-163.216 176.578,-168.083 172.257,-158.41 167.168,-163.216"/>
</g>
</g>
</svg>
