<?xml version="1.0" encoding="UTF-8" standalone="no"?>
<!DOCTYPE svg PUBLIC "-//W3C//DTD SVG 1.1//EN"
 "http://www.w3.org/Graphics/SVG/1.1/DTD/svg11.dtd">
<!-- Generated by graphviz version 2.38.0 (20140413.2041)
 -->
<!-- Title: ph_error Pages: 1 -->
<svg width="315pt" height="196pt"
 viewBox="0.00 0.00 315.00 196.00" xmlns="http://www.w3.org/2000/svg" xmlns:xlink="http://www.w3.org/1999/xlink">
<g id="graph0" class="graph" transform="scale(1 1) rotate(0) translate(4 192)">
<title>ph_error</title>
<polygon fill="white" stroke="none" points="-4,4 -4,-192 311,-192 311,4 -4,4"/>
<!-- Node1 -->
<g id="node1" class="node"><title>Node1</title>
<polygon fill="#bfbfbf" stroke="black" points="136.5,-56.5 136.5,-75.5 188.5,-75.5 188.5,-56.5 136.5,-56.5"/>
<text text-anchor="middle" x="162.5" y="-63.5" font-family="Helvetica,sans-Serif" font-size="10.00">ph_error</text>
</g>
<!-- Node5 -->
<g id="node5" class="node"><title>Node5</title>
<g id="a_node5"><a xlink:href="structprocess__not__found.html" target="_top" xlink:title="struct defining the exception called when the process called is not found extends ph_error ...">
<polygon fill="white" stroke="black" points="0,-0.5 0,-19.5 99,-19.5 99,-0.5 0,-0.5"/>
<text text-anchor="middle" x="49.5" y="-7.5" font-family="Helvetica,sans-Serif" font-size="10.00">process_not_found</text>
</a>
</g>
</g>
<!-- Node1&#45;&gt;Node5 -->
<g id="edge4" class="edge"><title>Node1&#45;&gt;Node5</title>
<path fill="none" stroke="midnightblue" d="M135.497,-52.096C114.386,-42.0073 85.6385,-28.2697 67.3214,-19.5164"/>
<polygon fill="midnightblue" stroke="midnightblue" points="134.063,-55.2897 144.595,-56.4435 137.081,-48.9738 134.063,-55.2897"/>
</g>
<!-- Node6 -->
<g id="node6" class="node"><title>Node6</title>
<g id="a_node6"><a xlink:href="structprocess__required.html" target="_top" xlink:title="struct defining the exception called when the process is not specified extends ph_error ...">
<polygon fill="white" stroke="black" points="117,-0.5 117,-19.5 208,-19.5 208,-0.5 117,-0.5"/>
<text text-anchor="middle" x="162.5" y="-7.5" font-family="Helvetica,sans-Serif" font-size="10.00">process_required</text>
</a>
</g>
</g>
<!-- Node1&#45;&gt;Node6 -->
<g id="edge5" class="edge"><title>Node1&#45;&gt;Node6</title>
<path fill="none" stroke="midnightblue" d="M162.5,-45.8045C162.5,-36.9102 162.5,-26.7798 162.5,-19.7511"/>
<polygon fill="midnightblue" stroke="midnightblue" points="159,-46.083 162.5,-56.083 166,-46.083 159,-46.083"/>
</g>
<!-- Node7 -->
<g id="node7" class="node"><title>Node7</title>
<g id="a_node7"><a xlink:href="structsort__not__found.html" target="_top" xlink:title="struct defining the exception called when the sort called are not found extends ph_error ...">
<polygon fill="white" stroke="black" points="226,-0.5 226,-19.5 307,-19.5 307,-0.5 226,-0.5"/>
<text text-anchor="middle" x="266.5" y="-7.5" font-family="Helvetica,sans-Serif" font-size="10.00">sort_not_found</text>
</a>
</g>
</g>
<!-- Node1&#45;&gt;Node7 -->
<g id="edge6" class="edge"><title>Node1&#45;&gt;Node7</title>
<path fill="none" stroke="midnightblue" d="M188.328,-51.5895C207.557,-41.6052 233.245,-28.2672 249.832,-19.6545"/>
<polygon fill="midnightblue" stroke="midnightblue" points="186.471,-48.6095 179.209,-56.324 189.697,-54.822 186.471,-48.6095"/>
</g>
<!-- Node2 -->
<g id="node2" class="node"><title>Node2</title>
<g id="a_node2"><a xlink:href="structexception__base.html" target="_top" xlink:title="struct defining the base of the exception ">
<polygon fill="white" stroke="black" points="120,-112.5 120,-131.5 205,-131.5 205,-112.5 120,-112.5"/>
<text text-anchor="middle" x="162.5" y="-119.5" font-family="Helvetica,sans-Serif" font-size="10.00">exception_base</text>
</a>
</g>
</g>
<!-- Node2&#45;&gt;Node1 -->
<g id="edge1" class="edge"><title>Node2&#45;&gt;Node1</title>
<path fill="none" stroke="midnightblue" d="M162.5,-101.805C162.5,-92.9102 162.5,-82.7798 162.5,-75.7511"/>
<polygon fill="midnightblue" stroke="midnightblue" points="159,-102.083 162.5,-112.083 166,-102.083 159,-102.083"/>
</g>
<!-- Node3 -->
<g id="node3" class="node"><title>Node3</title>
<polygon fill="white" stroke="#bfbfbf" points="72.5,-168.5 72.5,-187.5 150.5,-187.5 150.5,-168.5 72.5,-168.5"/>
<text text-anchor="middle" x="111.5" y="-175.5" font-family="Helvetica,sans-Serif" font-size="10.00">std::exception</text>
</g>
<!-- Node3&#45;&gt;Node2 -->
<g id="edge2" class="edge"><title>Node3&#45;&gt;Node2</title>
<path fill="none" stroke="midnightblue" d="M126.878,-160.718C135.867,-151.2 146.859,-139.561 154.235,-131.751"/>
<polygon fill="midnightblue" stroke="midnightblue" points="124.243,-158.41 119.922,-168.083 129.332,-163.216 124.243,-158.41"/>
</g>
<!-- Node4 -->
<g id="node4" class="node"><title>Node4</title>
<polygon fill="white" stroke="#bfbfbf" points="169,-168.5 169,-187.5 258,-187.5 258,-168.5 169,-168.5"/>
<text text-anchor="middle" x="213.5" y="-175.5" font-family="Helvetica,sans-Serif" font-size="10.00">boost::exception</text>
</g>
<!-- Node4&#45;&gt;Node2 -->
<g id="edge3" class="edge"><title>Node4&#45;&gt;Node2</title>
<path fill="none" stroke="midnightblue" d="M198.122,-160.718C189.133,-151.2 178.141,-139.561 170.765,-131.751"/>
<polygon fill="midnightblue" stroke="midnightblue" points="195.668,-163.216 205.078,-168.083 200.757,-158.41 195.668,-163.216"/>
</g>
</g>
</svg>
