<?xml version="1.0" encoding="UTF-8" standalone="no"?>
<!DOCTYPE svg PUBLIC "-//W3C//DTD SVG 1.1//EN"
 "http://www.w3.org/Graphics/SVG/1.1/DTD/svg11.dtd">
<!-- Generated by graphviz version 2.38.0 (20140413.2041)
 -->
<!-- Title: pint_phc_crash Pages: 1 -->
<svg width="194pt" height="196pt"
 viewBox="0.00 0.00 193.50 196.00" xmlns="http://www.w3.org/2000/svg" xmlns:xlink="http://www.w3.org/1999/xlink">
<g id="graph0" class="graph" transform="scale(1 1) rotate(0) translate(4 192)">
<title>pint_phc_crash</title>
<polygon fill="white" stroke="none" points="-4,4 -4,-192 189.5,-192 189.5,4 -4,4"/>
<!-- Node1 -->
<g id="node1" class="node"><title>Node1</title>
<polygon fill="#bfbfbf" stroke="black" points="48.5,-0.5 48.5,-19.5 131.5,-19.5 131.5,-0.5 48.5,-0.5"/>
<text text-anchor="middle" x="90" y="-7.5" font-family="Helvetica,sans-Serif" font-size="10.00">pint_phc_crash</text>
</g>
<!-- Node2 -->
<g id="node2" class="node"><title>Node2</title>
<g id="a_node2"><a xlink:href="structph__parse__error.html" target="_top" xlink:title="struct defining the exception called when the PH file cannot be parsed extends exception_base ...">
<polygon fill="white" stroke="black" points="49.5,-56.5 49.5,-75.5 130.5,-75.5 130.5,-56.5 49.5,-56.5"/>
<text text-anchor="middle" x="90" y="-63.5" font-family="Helvetica,sans-Serif" font-size="10.00">ph_parse_error</text>
</a>
</g>
</g>
<!-- Node2&#45;&gt;Node1 -->
<g id="edge1" class="edge"><title>Node2&#45;&gt;Node1</title>
<path fill="none" stroke="midnightblue" d="M90,-45.8045C90,-36.9102 90,-26.7798 90,-19.7511"/>
<polygon fill="midnightblue" stroke="midnightblue" points="86.5001,-46.083 90,-56.083 93.5001,-46.083 86.5001,-46.083"/>
</g>
<!-- Node3 -->
<g id="node3" class="node"><title>Node3</title>
<g id="a_node3"><a xlink:href="structexception__base.html" target="_top" xlink:title="struct defining the base of the exception ">
<polygon fill="white" stroke="black" points="47.5,-112.5 47.5,-131.5 132.5,-131.5 132.5,-112.5 47.5,-112.5"/>
<text text-anchor="middle" x="90" y="-119.5" font-family="Helvetica,sans-Serif" font-size="10.00">exception_base</text>
</a>
</g>
</g>
<!-- Node3&#45;&gt;Node2 -->
<g id="edge2" class="edge"><title>Node3&#45;&gt;Node2</title>
<path fill="none" stroke="midnightblue" d="M90,-101.805C90,-92.9102 90,-82.7798 90,-75.7511"/>
<polygon fill="midnightblue" stroke="midnightblue" points="86.5001,-102.083 90,-112.083 93.5001,-102.083 86.5001,-102.083"/>
</g>
<!-- Node4 -->
<g id="node4" class="node"><title>Node4</title>
<polygon fill="white" stroke="#bfbfbf" points="0,-168.5 0,-187.5 78,-187.5 78,-168.5 0,-168.5"/>
<text text-anchor="middle" x="39" y="-175.5" font-family="Helvetica,sans-Serif" font-size="10.00">std::exception</text>
</g>
<!-- Node4&#45;&gt;Node3 -->
<g id="edge3" class="edge"><title>Node4&#45;&gt;Node3</title>
<path fill="none" stroke="midnightblue" d="M54.3779,-160.718C63.3669,-151.2 74.3592,-139.561 81.7351,-131.751"/>
<polygon fill="midnightblue" stroke="midnightblue" points="51.7433,-158.41 47.4216,-168.083 56.8324,-163.216 51.7433,-158.41"/>
</g>
<!-- Node5 -->
<g id="node5" class="node"><title>Node5</title>
<polygon fill="white" stroke="#bfbfbf" points="96.5,-168.5 96.5,-187.5 185.5,-187.5 185.5,-168.5 96.5,-168.5"/>
<text text-anchor="middle" x="141" y="-175.5" font-family="Helvetica,sans-Serif" font-size="10.00">boost::exception</text>
</g>
<!-- Node5&#45;&gt;Node3 -->
<g id="edge4" class="edge"><title>Node5&#45;&gt;Node3</title>
<path fill="none" stroke="midnightblue" d="M125.622,-160.718C116.633,-151.2 105.641,-139.561 98.2649,-131.751"/>
<polygon fill="midnightblue" stroke="midnightblue" points="123.168,-163.216 132.578,-168.083 128.257,-158.41 123.168,-163.216"/>
</g>
</g>
</svg>
