<?xml version="1.0" encoding="UTF-8" standalone="no"?>
<!DOCTYPE svg PUBLIC "-//W3C//DTD SVG 1.1//EN"
 "http://www.w3.org/Graphics/SVG/1.1/DTD/svg11.dtd">
<!-- Generated by graphviz version 2.38.0 (20140413.2041)
 -->
<!-- Title: ph_parse_error Pages: 1 -->
<svg width="238pt" height="196pt"
 viewBox="0.00 0.00 238.00 196.00" xmlns="http://www.w3.org/2000/svg" xmlns:xlink="http://www.w3.org/1999/xlink">
<g id="graph0" class="graph" transform="scale(1 1) rotate(0) translate(4 192)">
<title>ph_parse_error</title>
<polygon fill="white" stroke="none" points="-4,4 -4,-192 234,-192 234,4 -4,4"/>
<!-- Node1 -->
<g id="node1" class="node"><title>Node1</title>
<polygon fill="#bfbfbf" stroke="black" points="63,-56.5 63,-75.5 144,-75.5 144,-56.5 63,-56.5"/>
<text text-anchor="middle" x="103.5" y="-63.5" font-family="Helvetica,sans-Serif" font-size="10.00">ph_parse_error</text>
</g>
<!-- Node5 -->
<g id="node5" class="node"><title>Node5</title>
<g id="a_node5"><a xlink:href="structpint__phc__crash.html" target="_top" xlink:title="struct defining the exception called when Pint cannot be called extends ph_parse_error ...">
<polygon fill="white" stroke="black" points="0,-0.5 0,-19.5 83,-19.5 83,-0.5 0,-0.5"/>
<text text-anchor="middle" x="41.5" y="-7.5" font-family="Helvetica,sans-Serif" font-size="10.00">pint_phc_crash</text>
</a>
</g>
</g>
<!-- Node1&#45;&gt;Node5 -->
<g id="edge4" class="edge"><title>Node1&#45;&gt;Node5</title>
<path fill="none" stroke="midnightblue" d="M85.7464,-49.5372C74.6915,-39.9087 60.8685,-27.8694 51.6426,-19.8339"/>
<polygon fill="midnightblue" stroke="midnightblue" points="83.699,-52.3954 93.5386,-56.324 88.2965,-47.1168 83.699,-52.3954"/>
</g>
<!-- Node6 -->
<g id="node6" class="node"><title>Node6</title>
<g id="a_node6"><a xlink:href="structtextAreaEmpty__exception.html" target="_top" xlink:title="struct defining the exception called when the user update from an empty textArea extends ph_parse_err...">
<polygon fill="white" stroke="black" points="101,-0.5 101,-19.5 230,-19.5 230,-0.5 101,-0.5"/>
<text text-anchor="middle" x="165.5" y="-7.5" font-family="Helvetica,sans-Serif" font-size="10.00">textAreaEmpty_exception</text>
</a>
</g>
</g>
<!-- Node1&#45;&gt;Node6 -->
<g id="edge5" class="edge"><title>Node1&#45;&gt;Node6</title>
<path fill="none" stroke="midnightblue" d="M121.254,-49.5372C132.308,-39.9087 146.131,-27.8694 155.357,-19.8339"/>
<polygon fill="midnightblue" stroke="midnightblue" points="118.703,-47.1168 113.461,-56.324 123.301,-52.3954 118.703,-47.1168"/>
</g>
<!-- Node2 -->
<g id="node2" class="node"><title>Node2</title>
<g id="a_node2"><a xlink:href="structexception__base.html" target="_top" xlink:title="struct defining the base of the exception ">
<polygon fill="white" stroke="black" points="61,-112.5 61,-131.5 146,-131.5 146,-112.5 61,-112.5"/>
<text text-anchor="middle" x="103.5" y="-119.5" font-family="Helvetica,sans-Serif" font-size="10.00">exception_base</text>
</a>
</g>
</g>
<!-- Node2&#45;&gt;Node1 -->
<g id="edge1" class="edge"><title>Node2&#45;&gt;Node1</title>
<path fill="none" stroke="midnightblue" d="M103.5,-101.805C103.5,-92.9102 103.5,-82.7798 103.5,-75.7511"/>
<polygon fill="midnightblue" stroke="midnightblue" points="100,-102.083 103.5,-112.083 107,-102.083 100,-102.083"/>
</g>
<!-- Node3 -->
<g id="node3" class="node"><title>Node3</title>
<polygon fill="white" stroke="#bfbfbf" points="13.5,-168.5 13.5,-187.5 91.5,-187.5 91.5,-168.5 13.5,-168.5"/>
<text text-anchor="middle" x="52.5" y="-175.5" font-family="Helvetica,sans-Serif" font-size="10.00">std::exception</text>
</g>
<!-- Node3&#45;&gt;Node2 -->
<g id="edge2" class="edge"><title>Node3&#45;&gt;Node2</title>
<path fill="none" stroke="midnightblue" d="M67.8779,-160.718C76.8669,-151.2 87.8592,-139.561 95.2351,-131.751"/>
<polygon fill="midnightblue" stroke="midnightblue" points="65.2433,-158.41 60.9216,-168.083 70.3324,-163.216 65.2433,-158.41"/>
</g>
<!-- Node4 -->
<g id="node4" class="node"><title>Node4</title>
<polygon fill="white" stroke="#bfbfbf" points="110,-168.5 110,-187.5 199,-187.5 199,-168.5 110,-168.5"/>
<text text-anchor="middle" x="154.5" y="-175.5" font-family="Helvetica,sans-Serif" font-size="10.00">boost::exception</text>
</g>
<!-- Node4&#45;&gt;Node2 -->
<g id="edge3" class="edge"><title>Node4&#45;&gt;Node2</title>
<path fill="none" stroke="midnightblue" d="M139.122,-160.718C130.133,-151.2 119.141,-139.561 111.765,-131.751"/>
<polygon fill="midnightblue" stroke="midnightblue" points="136.668,-163.216 146.078,-168.083 141.757,-158.41 136.668,-163.216"/>
</g>
</g>
</svg>
