<?xml version="1.0" encoding="UTF-8" standalone="no"?>
<!DOCTYPE svg PUBLIC "-//W3C//DTD SVG 1.1//EN"
 "http://www.w3.org/Graphics/SVG/1.1/DTD/svg11.dtd">
<!-- Generated by graphviz version 2.38.0 (20140413.2041)
 -->
<!-- Title: src/test/TestRunner.cpp Pages: 1 -->
<svg width="136pt" height="140pt"
 viewBox="0.00 0.00 135.50 140.00" xmlns="http://www.w3.org/2000/svg" xmlns:xlink="http://www.w3.org/1999/xlink">
<g id="graph0" class="graph" transform="scale(1 1) rotate(0) translate(4 136)">
<title>src/test/TestRunner.cpp</title>
<polygon fill="white" stroke="none" points="-4,4 -4,-136 131.5,-136 131.5,4 -4,4"/>
<!-- Node1 -->
<g id="node1" class="node"><title>Node1</title>
<polygon fill="#bfbfbf" stroke="black" points="0,-112.5 0,-131.5 122,-131.5 122,-112.5 0,-112.5"/>
<text text-anchor="middle" x="61" y="-119.5" font-family="Helvetica,sans-Serif" font-size="10.00">src/test/TestRunner.cpp</text>
</g>
<!-- Node2 -->
<g id="node2" class="node"><title>Node2</title>
<polygon fill="white" stroke="#bfbfbf" points="21,-0.5 21,-19.5 101,-19.5 101,-0.5 21,-0.5"/>
<text text-anchor="middle" x="61" y="-7.5" font-family="Helvetica,sans-Serif" font-size="10.00">QtTest/QtTest</text>
</g>
<!-- Node1&#45;&gt;Node2 -->
<g id="edge1" class="edge"><title>Node1&#45;&gt;Node2</title>
<path fill="none" stroke="midnightblue" d="M57.5977,-112.215C53.1842,-99.7666 46.346,-76.2531 49,-56 50.1556,-47.1813 52.5337,-37.6328 54.8703,-29.6098"/>
<polygon fill="midnightblue" stroke="midnightblue" points="58.2852,-30.4151 57.9123,-19.8268 51.6009,-28.3366 58.2852,-30.4151"/>
</g>
<!-- Node3 -->
<g id="node3" class="node"><title>Node3</title>
<g id="a_node3"><a xlink:href="PHIOTest_8h.html" target="_top" xlink:title="header for the PHIOTest class ">
<polygon fill="white" stroke="black" points="58.5,-56.5 58.5,-75.5 127.5,-75.5 127.5,-56.5 58.5,-56.5"/>
<text text-anchor="middle" x="93" y="-63.5" font-family="Helvetica,sans-Serif" font-size="10.00">PHIOTest.h</text>
</a>
</g>
</g>
<!-- Node1&#45;&gt;Node3 -->
<g id="edge2" class="edge"><title>Node1&#45;&gt;Node3</title>
<path fill="none" stroke="midnightblue" d="M66.2841,-112.083C70.711,-104.613 77.1633,-93.7244 82.6179,-84.5199"/>
<polygon fill="midnightblue" stroke="midnightblue" points="85.7271,-86.1383 87.8142,-75.7511 79.7051,-82.5697 85.7271,-86.1383"/>
</g>
<!-- Node3&#45;&gt;Node2 -->
<g id="edge3" class="edge"><title>Node3&#45;&gt;Node2</title>
<path fill="none" stroke="midnightblue" d="M87.7159,-56.083C83.289,-48.6127 76.8367,-37.7244 71.3821,-28.5199"/>
<polygon fill="midnightblue" stroke="midnightblue" points="74.2949,-26.5697 66.1858,-19.7511 68.2729,-30.1383 74.2949,-26.5697"/>
</g>
</g>
</svg>
